<?xml version="1.0" encoding="UTF-8" standalone="no"?>
<!DOCTYPE svg PUBLIC "-//W3C//DTD SVG 1.1//EN"
 "http://www.w3.org/Graphics/SVG/1.1/DTD/svg11.dtd">
<!-- Generated by graphviz version 7.0.5 (20221223.1930)
 -->
<!-- Title: src/Attribute_Request_Callback.h Pages: 1 -->
<svg width="517pt" height="313pt"
 viewBox="0.00 0.00 516.50 313.00" xmlns="http://www.w3.org/2000/svg" xmlns:xlink="http://www.w3.org/1999/xlink">
<g id="graph0" class="graph" transform="scale(1 1) rotate(0) translate(4 309)">
<title>src/Attribute_Request_Callback.h</title>
<!-- Node1 -->
<g id="node1" class="node">
<title>Node1</title>
<g id="a_node1"><a xlink:title=" ">
<polygon fill="#999999" stroke="#666666" points="402,-305 291,-305 291,-275 402,-275 402,-305"/>
<text text-anchor="start" x="299" y="-293" font-family="Helvetica,sans-Serif" font-size="10.00">src/Attribute_Request</text>
<text text-anchor="middle" x="346.5" y="-282" font-family="Helvetica,sans-Serif" font-size="10.00">_Callback.h</text>
</a>
</g>
</g>
<!-- Node2 -->
<g id="node2" class="node">
<title>Node2</title>
<g id="a_node2"><a xlink:href="Callback__Watchdog_8h.html" target="_top" xlink:title=" ">
<polygon fill="white" stroke="#666666" points="327.5,-239 217.5,-239 217.5,-220 327.5,-220 327.5,-239"/>
<text text-anchor="middle" x="272.5" y="-227" font-family="Helvetica,sans-Serif" font-size="10.00">Callback_Watchdog.h</text>
</a>
</g>
</g>
<!-- Node1&#45;&gt;Node2 -->
<g id="edge1" class="edge">
<title>Node1&#45;&gt;Node2</title>
<path fill="none" stroke="#63b8ff" d="M328.21,-274.54C317.35,-265.96 303.58,-255.07 292.44,-246.26"/>
<polygon fill="#63b8ff" stroke="#63b8ff" points="294.68,-243.57 284.66,-240.11 290.34,-249.06 294.68,-243.57"/>
</g>
<!-- Node16 -->
<g id="node16" class="node">
<title>Node16</title>
<g id="a_node16"><a xlink:href="Constants_8h.html" target="_top" xlink:title=" ">
<polygon fill="white" stroke="#666666" points="437.5,-74 369.5,-74 369.5,-55 437.5,-55 437.5,-74"/>
<text text-anchor="middle" x="403.5" y="-62" font-family="Helvetica,sans-Serif" font-size="10.00">Constants.h</text>
</a>
</g>
</g>
<!-- Node1&#45;&gt;Node16 -->
<g id="edge18" class="edge">
<title>Node1&#45;&gt;Node16</title>
<path fill="none" stroke="#63b8ff" d="M350.15,-274.68C360.01,-236.01 387.19,-129.44 398.48,-85.18"/>
<polygon fill="#63b8ff" stroke="#63b8ff" points="401.82,-86.25 400.9,-75.7 395.04,-84.52 401.82,-86.25"/>
</g>
<!-- Node3 -->
<g id="node3" class="node">
<title>Node3</title>
<g id="a_node3"><a xlink:href="Callback_8h.html" target="_top" xlink:title=" ">
<polygon fill="white" stroke="#666666" points="303.5,-184 241.5,-184 241.5,-165 303.5,-165 303.5,-184"/>
<text text-anchor="middle" x="272.5" y="-172" font-family="Helvetica,sans-Serif" font-size="10.00">Callback.h</text>
</a>
</g>
</g>
<!-- Node2&#45;&gt;Node3 -->
<g id="edge2" class="edge">
<title>Node2&#45;&gt;Node3</title>
<path fill="none" stroke="#63b8ff" d="M272.5,-219.75C272.5,-213.27 272.5,-204.16 272.5,-195.9"/>
<polygon fill="#63b8ff" stroke="#63b8ff" points="276,-195.96 272.5,-185.96 269,-195.96 276,-195.96"/>
</g>
<!-- Node15 -->
<g id="node15" class="node">
<title>Node15</title>
<g id="a_node15"><a xlink:title=" ">
<polygon fill="#e0e0e0" stroke="#999999" points="223.5,-184 143.5,-184 143.5,-165 223.5,-165 223.5,-184"/>
<text text-anchor="middle" x="183.5" y="-172" font-family="Helvetica,sans-Serif" font-size="10.00">arduino&#45;timer.h</text>
</a>
</g>
</g>
<!-- Node2&#45;&gt;Node15 -->
<g id="edge17" class="edge">
<title>Node2&#45;&gt;Node15</title>
<path fill="none" stroke="#63b8ff" d="M257.4,-219.51C243.9,-211.47 223.85,-199.53 208.04,-190.11"/>
<polygon fill="#63b8ff" stroke="#63b8ff" points="210.06,-187.24 199.68,-185.13 206.48,-193.26 210.06,-187.24"/>
</g>
<!-- Node4 -->
<g id="node4" class="node">
<title>Node4</title>
<g id="a_node4"><a xlink:href="Configuration_8h.html" target="_top" xlink:title=" ">
<polygon fill="white" stroke="#666666" points="442.5,-19 362.5,-19 362.5,0 442.5,0 442.5,-19"/>
<text text-anchor="middle" x="402.5" y="-7" font-family="Helvetica,sans-Serif" font-size="10.00">Configuration.h</text>
</a>
</g>
</g>
<!-- Node3&#45;&gt;Node4 -->
<g id="edge3" class="edge">
<title>Node3&#45;&gt;Node4</title>
<path fill="none" stroke="#63b8ff" d="M278.56,-164.61C292.38,-144.51 327.58,-94.28 360.5,-55 368.42,-45.55 377.79,-35.53 385.66,-27.39"/>
<polygon fill="#63b8ff" stroke="#63b8ff" points="387.92,-30.09 392.43,-20.5 382.93,-25.18 387.92,-30.09"/>
</g>
<!-- Node5 -->
<g id="node5" class="node">
<title>Node5</title>
<g id="a_node5"><a xlink:href="Container_8h.html" target="_top" xlink:title=" ">
<polygon fill="white" stroke="#666666" points="275,-129 210,-129 210,-110 275,-110 275,-129"/>
<text text-anchor="middle" x="242.5" y="-117" font-family="Helvetica,sans-Serif" font-size="10.00">Container.h</text>
</a>
</g>
</g>
<!-- Node3&#45;&gt;Node5 -->
<g id="edge4" class="edge">
<title>Node3&#45;&gt;Node5</title>
<path fill="none" stroke="#63b8ff" d="M267.55,-164.75C263.66,-157.88 258.11,-148.08 253.22,-139.45"/>
<polygon fill="#63b8ff" stroke="#63b8ff" points="256.28,-137.74 248.31,-130.76 250.19,-141.19 256.28,-137.74"/>
</g>
<!-- Node7 -->
<g id="node7" class="node">
<title>Node7</title>
<g id="a_node7"><a xlink:title=" ">
<polygon fill="#e0e0e0" stroke="#999999" points="344.5,-19 266.5,-19 266.5,0 344.5,0 344.5,-19"/>
<text text-anchor="middle" x="305.5" y="-7" font-family="Helvetica,sans-Serif" font-size="10.00">ArduinoJson.h</text>
</a>
</g>
</g>
<!-- Node3&#45;&gt;Node7 -->
<g id="edge14" class="edge">
<title>Node3&#45;&gt;Node7</title>
<path fill="none" stroke="#63b8ff" d="M275.12,-164.69C277.72,-155.75 281.71,-141.5 284.5,-129 292.14,-94.76 298.79,-54.46 302.46,-30.78"/>
<polygon fill="#63b8ff" stroke="#63b8ff" points="305.91,-31.38 303.96,-20.97 298.99,-30.33 305.91,-31.38"/>
</g>
<!-- Node13 -->
<g id="node13" class="node">
<title>Node13</title>
<g id="a_node13"><a xlink:title=" ">
<polygon fill="#e0e0e0" stroke="#999999" points="129,-129 70,-129 70,-110 129,-110 129,-129"/>
<text text-anchor="middle" x="99.5" y="-117" font-family="Helvetica,sans-Serif" font-size="10.00">functional</text>
</a>
</g>
</g>
<!-- Node3&#45;&gt;Node13 -->
<g id="edge15" class="edge">
<title>Node3&#45;&gt;Node13</title>
<path fill="none" stroke="#63b8ff" d="M243.15,-164.51C214.61,-155.76 171.04,-142.42 139.36,-132.71"/>
<polygon fill="#63b8ff" stroke="#63b8ff" points="140.74,-129.47 130.15,-129.89 138.69,-136.17 140.74,-129.47"/>
</g>
<!-- Node14 -->
<g id="node14" class="node">
<title>Node14</title>
<g id="a_node14"><a xlink:title=" ">
<polygon fill="#e0e0e0" stroke="#999999" points="191.5,-129 147.5,-129 147.5,-110 191.5,-110 191.5,-129"/>
<text text-anchor="middle" x="169.5" y="-117" font-family="Helvetica,sans-Serif" font-size="10.00">vector</text>
</a>
</g>
</g>
<!-- Node3&#45;&gt;Node14 -->
<g id="edge16" class="edge">
<title>Node3&#45;&gt;Node14</title>
<path fill="none" stroke="#63b8ff" d="M255.03,-164.51C239.1,-156.31 215.31,-144.07 196.86,-134.58"/>
<polygon fill="#63b8ff" stroke="#63b8ff" points="198.55,-131.51 188.06,-130.05 195.35,-137.74 198.55,-131.51"/>
</g>
<!-- Node6 -->
<g id="node6" class="node">
<title>Node6</title>
<g id="a_node6"><a xlink:href="Helper_8h.html" target="_top" xlink:title=" ">
<polygon fill="white" stroke="#666666" points="259,-74 206,-74 206,-55 259,-55 259,-74"/>
<text text-anchor="middle" x="232.5" y="-62" font-family="Helvetica,sans-Serif" font-size="10.00">Helper.h</text>
</a>
</g>
</g>
<!-- Node5&#45;&gt;Node6 -->
<g id="edge5" class="edge">
<title>Node5&#45;&gt;Node6</title>
<path fill="none" stroke="#63b8ff" d="M240.85,-109.75C239.61,-103.19 237.87,-93.95 236.29,-85.6"/>
<polygon fill="#63b8ff" stroke="#63b8ff" points="239.76,-85.11 234.47,-75.93 232.88,-86.4 239.76,-85.11"/>
</g>
<!-- Node10 -->
<g id="node10" class="node">
<title>Node10</title>
<g id="a_node10"><a xlink:title=" ">
<polygon fill="#e0e0e0" stroke="#999999" points="51,-19 0,-19 0,0 51,0 51,-19"/>
<text text-anchor="middle" x="25.5" y="-7" font-family="Helvetica,sans-Serif" font-size="10.00">assert.h</text>
</a>
</g>
</g>
<!-- Node5&#45;&gt;Node10 -->
<g id="edge13" class="edge">
<title>Node5&#45;&gt;Node10</title>
<path fill="none" stroke="#63b8ff" d="M224.74,-109.66C187.07,-90.91 98.89,-47.03 53.54,-24.45"/>
<polygon fill="#63b8ff" stroke="#63b8ff" points="55.37,-21.46 44.86,-20.13 52.25,-27.72 55.37,-21.46"/>
</g>
<!-- Node6&#45;&gt;Node4 -->
<g id="edge6" class="edge">
<title>Node6&#45;&gt;Node4</title>
<path fill="none" stroke="#63b8ff" d="M259.44,-55.1C287.33,-46.41 331.19,-32.73 363,-22.82"/>
<polygon fill="#63b8ff" stroke="#63b8ff" points="363.75,-26.25 372.26,-19.93 361.67,-19.56 363.75,-26.25"/>
</g>
<!-- Node6&#45;&gt;Node7 -->
<g id="edge7" class="edge">
<title>Node6&#45;&gt;Node7</title>
<path fill="none" stroke="#63b8ff" d="M244.88,-54.51C255.65,-46.7 271.47,-35.21 284.25,-25.93"/>
<polygon fill="#63b8ff" stroke="#63b8ff" points="286.04,-28.95 292.07,-20.25 281.93,-23.29 286.04,-28.95"/>
</g>
<!-- Node8 -->
<g id="node8" class="node">
<title>Node8</title>
<g id="a_node8"><a xlink:title=" ">
<polygon fill="#e0e0e0" stroke="#999999" points="179,-19 132,-19 132,0 179,0 179,-19"/>
<text text-anchor="middle" x="155.5" y="-7" font-family="Helvetica,sans-Serif" font-size="10.00">iterator</text>
</a>
</g>
</g>
<!-- Node6&#45;&gt;Node8 -->
<g id="edge8" class="edge">
<title>Node6&#45;&gt;Node8</title>
<path fill="none" stroke="#63b8ff" d="M219.44,-54.51C207.98,-46.62 191.07,-34.98 177.52,-25.65"/>
<polygon fill="#63b8ff" stroke="#63b8ff" points="179.84,-23 169.62,-20.22 175.87,-28.77 179.84,-23"/>
</g>
<!-- Node9 -->
<g id="node9" class="node">
<title>Node9</title>
<g id="a_node9"><a xlink:title=" ">
<polygon fill="#e0e0e0" stroke="#999999" points="508.5,-19 460.5,-19 460.5,0 508.5,0 508.5,-19"/>
<text text-anchor="middle" x="484.5" y="-7" font-family="Helvetica,sans-Serif" font-size="10.00">stdint.h</text>
</a>
</g>
</g>
<!-- Node6&#45;&gt;Node9 -->
<g id="edge9" class="edge">
<title>Node6&#45;&gt;Node9</title>
<path fill="none" stroke="#63b8ff" d="M259.23,-58.53C298.64,-51.1 374.91,-36.35 449.1,-19.46"/>
<polygon fill="#63b8ff" stroke="#63b8ff" points="449.59,-22.94 458.55,-17.29 448.02,-16.12 449.59,-22.94"/>
</g>
<!-- Node6&#45;&gt;Node10 -->
<g id="edge10" class="edge">
<title>Node6&#45;&gt;Node10</title>
<path fill="none" stroke="#63b8ff" d="M205.86,-56.68C169.33,-47.33 103.53,-30.48 62.31,-19.93"/>
<polygon fill="#63b8ff" stroke="#63b8ff" points="63.41,-16.59 52.85,-17.5 61.67,-23.37 63.41,-16.59"/>
</g>
<!-- Node11 -->
<g id="node11" class="node">
<title>Node11</title>
<g id="a_node11"><a xlink:title=" ">
<polygon fill="#e0e0e0" stroke="#999999" points="248,-19 197,-19 197,0 248,0 248,-19"/>
<text text-anchor="middle" x="222.5" y="-7" font-family="Helvetica,sans-Serif" font-size="10.00">stdarg.h</text>
</a>
</g>
</g>
<!-- Node6&#45;&gt;Node11 -->
<g id="edge11" class="edge">
<title>Node6&#45;&gt;Node11</title>
<path fill="none" stroke="#63b8ff" d="M230.85,-54.75C229.61,-48.19 227.87,-38.95 226.29,-30.6"/>
<polygon fill="#63b8ff" stroke="#63b8ff" points="229.76,-30.11 224.47,-20.93 222.88,-31.4 229.76,-30.11"/>
</g>
<!-- Node12 -->
<g id="node12" class="node">
<title>Node12</title>
<g id="a_node12"><a xlink:title=" ">
<polygon fill="#e0e0e0" stroke="#999999" points="114,-19 69,-19 69,0 114,0 114,-19"/>
<text text-anchor="middle" x="91.5" y="-7" font-family="Helvetica,sans-Serif" font-size="10.00">stdio.h</text>
</a>
</g>
</g>
<!-- Node6&#45;&gt;Node12 -->
<g id="edge12" class="edge">
<title>Node6&#45;&gt;Node12</title>
<path fill="none" stroke="#63b8ff" d="M208.58,-54.51C185.58,-45.87 150.62,-32.72 124.88,-23.05"/>
<polygon fill="#63b8ff" stroke="#63b8ff" points="126.14,-19.78 115.55,-19.54 123.68,-26.34 126.14,-19.78"/>
</g>
<!-- Node16&#45;&gt;Node4 -->
<g id="edge19" class="edge">
<title>Node16&#45;&gt;Node4</title>
<path fill="none" stroke="#63b8ff" d="M403.33,-54.75C403.21,-48.27 403.04,-39.16 402.88,-30.9"/>
<polygon fill="#63b8ff" stroke="#63b8ff" points="406.39,-30.89 402.7,-20.96 399.39,-31.02 406.39,-30.89"/>
</g>
<!-- Node16&#45;&gt;Node9 -->
<g id="edge20" class="edge">
<title>Node16&#45;&gt;Node9</title>
<path fill="none" stroke="#63b8ff" d="M417.24,-54.51C429.3,-46.62 447.09,-34.98 461.34,-25.65"/>
<polygon fill="#63b8ff" stroke="#63b8ff" points="463.24,-28.59 469.7,-20.19 459.41,-22.73 463.24,-28.59"/>
</g>
</g>
</svg>
