<?xml version="1.0" encoding="UTF-8" standalone="no"?>
<!DOCTYPE svg PUBLIC "-//W3C//DTD SVG 1.1//EN"
 "http://www.w3.org/Graphics/SVG/1.1/DTD/svg11.dtd">
<!-- Generated by graphviz version 7.0.5 (20221223.1930)
 -->
<!-- Title: src/Attribute_Request.h Pages: 1 -->
<svg width="597pt" height="357pt"
 viewBox="0.00 0.00 597.00 357.00" xmlns="http://www.w3.org/2000/svg" xmlns:xlink="http://www.w3.org/1999/xlink">
<g id="graph0" class="graph" transform="scale(1 1) rotate(0) translate(4 353)">
<title>src/Attribute_Request.h</title>
<!-- Node1 -->
<g id="node1" class="node">
<title>Node1</title>
<g id="a_node1"><a xlink:title=" ">
<polygon fill="#999999" stroke="#666666" points="454.5,-349 335.5,-349 335.5,-330 454.5,-330 454.5,-349"/>
<text text-anchor="middle" x="395" y="-337" font-family="Helvetica,sans-Serif" font-size="10.00">src/Attribute_Request.h</text>
</a>
</g>
</g>
<!-- Node2 -->
<g id="node2" class="node">
<title>Node2</title>
<g id="a_node2"><a xlink:href="Attribute__Request__Callback_8h.html" target="_top" xlink:title=" ">
<polygon fill="white" stroke="#666666" points="417.5,-294 272.5,-294 272.5,-275 417.5,-275 417.5,-294"/>
<text text-anchor="middle" x="345" y="-282" font-family="Helvetica,sans-Serif" font-size="10.00">Attribute_Request_Callback.h</text>
</a>
</g>
</g>
<!-- Node1&#45;&gt;Node2 -->
<g id="edge1" class="edge">
<title>Node1&#45;&gt;Node2</title>
<path fill="none" stroke="#63b8ff" d="M386.74,-329.75C379.84,-322.43 369.78,-311.76 361.26,-302.74"/>
<polygon fill="#63b8ff" stroke="#63b8ff" points="363.88,-300.42 354.47,-295.54 358.79,-305.22 363.88,-300.42"/>
</g>
<!-- Node18 -->
<g id="node18" class="node">
<title>Node18</title>
<g id="a_node18"><a xlink:href="IAPI__Implementation_8h.html" target="_top" xlink:title=" ">
<polygon fill="white" stroke="#666666" points="504,-239 388,-239 388,-220 504,-220 504,-239"/>
<text text-anchor="middle" x="446" y="-227" font-family="Helvetica,sans-Serif" font-size="10.00">IAPI_Implementation.h</text>
</a>
</g>
</g>
<!-- Node1&#45;&gt;Node18 -->
<g id="edge22" class="edge">
<title>Node1&#45;&gt;Node18</title>
<path fill="none" stroke="#63b8ff" d="M402.83,-329.53C410,-320.93 420.45,-307.32 427,-294 433.85,-280.07 438.76,-263.19 441.87,-250.34"/>
<polygon fill="#63b8ff" stroke="#63b8ff" points="445.2,-251.47 443.97,-240.95 438.37,-249.94 445.2,-251.47"/>
</g>
<!-- Node3 -->
<g id="node3" class="node">
<title>Node3</title>
<g id="a_node3"><a xlink:href="Callback__Watchdog_8h.html" target="_top" xlink:title=" ">
<polygon fill="white" stroke="#666666" points="319,-239 209,-239 209,-220 319,-220 319,-239"/>
<text text-anchor="middle" x="264" y="-227" font-family="Helvetica,sans-Serif" font-size="10.00">Callback_Watchdog.h</text>
</a>
</g>
</g>
<!-- Node2&#45;&gt;Node3 -->
<g id="edge2" class="edge">
<title>Node2&#45;&gt;Node3</title>
<path fill="none" stroke="#63b8ff" d="M331.26,-274.51C319.2,-266.62 301.41,-254.98 287.16,-245.65"/>
<polygon fill="#63b8ff" stroke="#63b8ff" points="289.09,-242.73 278.8,-240.19 285.26,-248.59 289.09,-242.73"/>
</g>
<!-- Node17 -->
<g id="node17" class="node">
<title>Node17</title>
<g id="a_node17"><a xlink:href="Constants_8h.html" target="_top" xlink:title=" ">
<polygon fill="white" stroke="#666666" points="444,-74 376,-74 376,-55 444,-55 444,-74"/>
<text text-anchor="middle" x="410" y="-62" font-family="Helvetica,sans-Serif" font-size="10.00">Constants.h</text>
</a>
</g>
</g>
<!-- Node2&#45;&gt;Node17 -->
<g id="edge19" class="edge">
<title>Node2&#45;&gt;Node17</title>
<path fill="none" stroke="#63b8ff" d="M344.72,-274.72C344.22,-248.41 345.15,-168.45 372,-110 376.69,-99.78 384.43,-90.08 391.71,-82.36"/>
<polygon fill="#63b8ff" stroke="#63b8ff" points="394.12,-84.89 398.75,-75.36 389.19,-79.93 394.12,-84.89"/>
</g>
<!-- Node4 -->
<g id="node4" class="node">
<title>Node4</title>
<g id="a_node4"><a xlink:href="Callback_8h.html" target="_top" xlink:title=" ">
<polygon fill="white" stroke="#666666" points="295,-184 233,-184 233,-165 295,-165 295,-184"/>
<text text-anchor="middle" x="264" y="-172" font-family="Helvetica,sans-Serif" font-size="10.00">Callback.h</text>
</a>
</g>
</g>
<!-- Node3&#45;&gt;Node4 -->
<g id="edge3" class="edge">
<title>Node3&#45;&gt;Node4</title>
<path fill="none" stroke="#63b8ff" d="M264,-219.75C264,-213.27 264,-204.16 264,-195.9"/>
<polygon fill="#63b8ff" stroke="#63b8ff" points="267.5,-195.96 264,-185.96 260.5,-195.96 267.5,-195.96"/>
</g>
<!-- Node16 -->
<g id="node16" class="node">
<title>Node16</title>
<g id="a_node16"><a xlink:title=" ">
<polygon fill="#e0e0e0" stroke="#999999" points="215,-184 135,-184 135,-165 215,-165 215,-184"/>
<text text-anchor="middle" x="175" y="-172" font-family="Helvetica,sans-Serif" font-size="10.00">arduino&#45;timer.h</text>
</a>
</g>
</g>
<!-- Node3&#45;&gt;Node16 -->
<g id="edge18" class="edge">
<title>Node3&#45;&gt;Node16</title>
<path fill="none" stroke="#63b8ff" d="M248.9,-219.51C235.4,-211.47 215.35,-199.53 199.54,-190.11"/>
<polygon fill="#63b8ff" stroke="#63b8ff" points="201.56,-187.24 191.18,-185.13 197.98,-193.26 201.56,-187.24"/>
</g>
<!-- Node5 -->
<g id="node5" class="node">
<title>Node5</title>
<g id="a_node5"><a xlink:href="Configuration_8h.html" target="_top" xlink:title=" ">
<polygon fill="white" stroke="#666666" points="443,-19 363,-19 363,0 443,0 443,-19"/>
<text text-anchor="middle" x="403" y="-7" font-family="Helvetica,sans-Serif" font-size="10.00">Configuration.h</text>
</a>
</g>
</g>
<!-- Node4&#45;&gt;Node5 -->
<g id="edge4" class="edge">
<title>Node4&#45;&gt;Node5</title>
<path fill="none" stroke="#63b8ff" d="M271.47,-164.74C293.53,-138.87 358.67,-62.48 388.18,-27.88"/>
<polygon fill="#63b8ff" stroke="#63b8ff" points="390.68,-30.34 394.51,-20.46 385.36,-25.8 390.68,-30.34"/>
</g>
<!-- Node6 -->
<g id="node6" class="node">
<title>Node6</title>
<g id="a_node6"><a xlink:href="Container_8h.html" target="_top" xlink:title=" ">
<polygon fill="white" stroke="#666666" points="146.5,-129 81.5,-129 81.5,-110 146.5,-110 146.5,-129"/>
<text text-anchor="middle" x="114" y="-117" font-family="Helvetica,sans-Serif" font-size="10.00">Container.h</text>
</a>
</g>
</g>
<!-- Node4&#45;&gt;Node6 -->
<g id="edge5" class="edge">
<title>Node4&#45;&gt;Node6</title>
<path fill="none" stroke="#63b8ff" d="M238.55,-164.51C214.24,-155.92 177.34,-142.88 150.01,-133.22"/>
<polygon fill="#63b8ff" stroke="#63b8ff" points="151.34,-129.98 140.75,-129.95 149.01,-136.58 151.34,-129.98"/>
</g>
<!-- Node8 -->
<g id="node8" class="node">
<title>Node8</title>
<g id="a_node8"><a xlink:title=" ">
<polygon fill="#e0e0e0" stroke="#999999" points="78,-19 0,-19 0,0 78,0 78,-19"/>
<text text-anchor="middle" x="39" y="-7" font-family="Helvetica,sans-Serif" font-size="10.00">ArduinoJson.h</text>
</a>
</g>
</g>
<!-- Node4&#45;&gt;Node8 -->
<g id="edge15" class="edge">
<title>Node4&#45;&gt;Node8</title>
<path fill="none" stroke="#63b8ff" d="M232.88,-166.71C179.28,-154.96 74.94,-131.81 72,-129 44.95,-103.11 39.47,-57.11 38.71,-30.68"/>
<polygon fill="#63b8ff" stroke="#63b8ff" points="42.21,-30.94 38.65,-20.97 35.21,-30.99 42.21,-30.94"/>
</g>
<!-- Node14 -->
<g id="node14" class="node">
<title>Node14</title>
<g id="a_node14"><a xlink:title=" ">
<polygon fill="#e0e0e0" stroke="#999999" points="223.5,-129 164.5,-129 164.5,-110 223.5,-110 223.5,-129"/>
<text text-anchor="middle" x="194" y="-117" font-family="Helvetica,sans-Serif" font-size="10.00">functional</text>
</a>
</g>
</g>
<!-- Node4&#45;&gt;Node14 -->
<g id="edge16" class="edge">
<title>Node4&#45;&gt;Node14</title>
<path fill="none" stroke="#63b8ff" d="M252.13,-164.51C241.91,-156.77 226.93,-145.43 214.74,-136.2"/>
<polygon fill="#63b8ff" stroke="#63b8ff" points="216.99,-133.52 206.91,-130.27 212.77,-139.1 216.99,-133.52"/>
</g>
<!-- Node15 -->
<g id="node15" class="node">
<title>Node15</title>
<g id="a_node15"><a xlink:title=" ">
<polygon fill="#e0e0e0" stroke="#999999" points="286,-129 242,-129 242,-110 286,-110 286,-129"/>
<text text-anchor="middle" x="264" y="-117" font-family="Helvetica,sans-Serif" font-size="10.00">vector</text>
</a>
</g>
</g>
<!-- Node4&#45;&gt;Node15 -->
<g id="edge17" class="edge">
<title>Node4&#45;&gt;Node15</title>
<path fill="none" stroke="#63b8ff" d="M264,-164.75C264,-158.27 264,-149.16 264,-140.9"/>
<polygon fill="#63b8ff" stroke="#63b8ff" points="267.5,-140.96 264,-130.96 260.5,-140.96 267.5,-140.96"/>
</g>
<!-- Node7 -->
<g id="node7" class="node">
<title>Node7</title>
<g id="a_node7"><a xlink:href="Helper_8h.html" target="_top" xlink:title=" ">
<polygon fill="white" stroke="#666666" points="278.5,-74 225.5,-74 225.5,-55 278.5,-55 278.5,-74"/>
<text text-anchor="middle" x="252" y="-62" font-family="Helvetica,sans-Serif" font-size="10.00">Helper.h</text>
</a>
</g>
</g>
<!-- Node6&#45;&gt;Node7 -->
<g id="edge6" class="edge">
<title>Node6&#45;&gt;Node7</title>
<path fill="none" stroke="#63b8ff" d="M137.41,-109.51C159.65,-100.97 193.33,-88.03 218.42,-78.4"/>
<polygon fill="#63b8ff" stroke="#63b8ff" points="219.44,-81.75 227.52,-74.9 216.93,-75.22 219.44,-81.75"/>
</g>
<!-- Node11 -->
<g id="node11" class="node">
<title>Node11</title>
<g id="a_node11"><a xlink:title=" ">
<polygon fill="#e0e0e0" stroke="#999999" points="147.5,-19 96.5,-19 96.5,0 147.5,0 147.5,-19"/>
<text text-anchor="middle" x="122" y="-7" font-family="Helvetica,sans-Serif" font-size="10.00">assert.h</text>
</a>
</g>
</g>
<!-- Node6&#45;&gt;Node11 -->
<g id="edge14" class="edge">
<title>Node6&#45;&gt;Node11</title>
<path fill="none" stroke="#63b8ff" d="M114.65,-109.66C115.92,-92.57 118.73,-54.61 120.49,-30.92"/>
<polygon fill="#63b8ff" stroke="#63b8ff" points="123.98,-31.2 121.22,-20.97 117,-30.68 123.98,-31.2"/>
</g>
<!-- Node7&#45;&gt;Node5 -->
<g id="edge7" class="edge">
<title>Node7&#45;&gt;Node5</title>
<path fill="none" stroke="#63b8ff" d="M277.62,-54.51C302.09,-45.92 339.24,-32.88 366.75,-23.22"/>
<polygon fill="#63b8ff" stroke="#63b8ff" points="367.81,-26.56 376.08,-19.95 365.49,-19.96 367.81,-26.56"/>
</g>
<!-- Node7&#45;&gt;Node8 -->
<g id="edge8" class="edge">
<title>Node7&#45;&gt;Node8</title>
<path fill="none" stroke="#63b8ff" d="M225.02,-56.79C190.08,-48.09 128.62,-32.8 85.95,-22.18"/>
<polygon fill="#63b8ff" stroke="#63b8ff" points="87.01,-18.84 76.46,-19.82 85.32,-25.63 87.01,-18.84"/>
</g>
<!-- Node9 -->
<g id="node9" class="node">
<title>Node9</title>
<g id="a_node9"><a xlink:title=" ">
<polygon fill="#e0e0e0" stroke="#999999" points="275.5,-19 228.5,-19 228.5,0 275.5,0 275.5,-19"/>
<text text-anchor="middle" x="252" y="-7" font-family="Helvetica,sans-Serif" font-size="10.00">iterator</text>
</a>
</g>
</g>
<!-- Node7&#45;&gt;Node9 -->
<g id="edge9" class="edge">
<title>Node7&#45;&gt;Node9</title>
<path fill="none" stroke="#63b8ff" d="M252,-54.75C252,-48.27 252,-39.16 252,-30.9"/>
<polygon fill="#63b8ff" stroke="#63b8ff" points="255.5,-30.96 252,-20.96 248.5,-30.96 255.5,-30.96"/>
</g>
<!-- Node10 -->
<g id="node10" class="node">
<title>Node10</title>
<g id="a_node10"><a xlink:title=" ">
<polygon fill="#e0e0e0" stroke="#999999" points="509,-19 461,-19 461,0 509,0 509,-19"/>
<text text-anchor="middle" x="485" y="-7" font-family="Helvetica,sans-Serif" font-size="10.00">stdint.h</text>
</a>
</g>
</g>
<!-- Node7&#45;&gt;Node10 -->
<g id="edge10" class="edge">
<title>Node7&#45;&gt;Node10</title>
<path fill="none" stroke="#63b8ff" d="M278.92,-57.81C315.35,-50.04 382.67,-35.46 449.38,-19.57"/>
<polygon fill="#63b8ff" stroke="#63b8ff" points="450.13,-22.99 459.04,-17.26 448.5,-16.18 450.13,-22.99"/>
</g>
<!-- Node7&#45;&gt;Node11 -->
<g id="edge11" class="edge">
<title>Node7&#45;&gt;Node11</title>
<path fill="none" stroke="#63b8ff" d="M229.95,-54.51C209.19,-46.04 177.84,-33.27 154.27,-23.66"/>
<polygon fill="#63b8ff" stroke="#63b8ff" points="155.71,-20.46 145.13,-19.93 153.07,-26.95 155.71,-20.46"/>
</g>
<!-- Node12 -->
<g id="node12" class="node">
<title>Node12</title>
<g id="a_node12"><a xlink:title=" ">
<polygon fill="#e0e0e0" stroke="#999999" points="344.5,-19 293.5,-19 293.5,0 344.5,0 344.5,-19"/>
<text text-anchor="middle" x="319" y="-7" font-family="Helvetica,sans-Serif" font-size="10.00">stdarg.h</text>
</a>
</g>
</g>
<!-- Node7&#45;&gt;Node12 -->
<g id="edge12" class="edge">
<title>Node7&#45;&gt;Node12</title>
<path fill="none" stroke="#63b8ff" d="M263.37,-54.51C273.05,-46.85 287.2,-35.66 298.81,-26.47"/>
<polygon fill="#63b8ff" stroke="#63b8ff" points="300.94,-29.25 306.62,-20.3 296.6,-23.76 300.94,-29.25"/>
</g>
<!-- Node13 -->
<g id="node13" class="node">
<title>Node13</title>
<g id="a_node13"><a xlink:title=" ">
<polygon fill="#e0e0e0" stroke="#999999" points="210.5,-19 165.5,-19 165.5,0 210.5,0 210.5,-19"/>
<text text-anchor="middle" x="188" y="-7" font-family="Helvetica,sans-Serif" font-size="10.00">stdio.h</text>
</a>
</g>
</g>
<!-- Node7&#45;&gt;Node13 -->
<g id="edge13" class="edge">
<title>Node7&#45;&gt;Node13</title>
<path fill="none" stroke="#63b8ff" d="M241.14,-54.51C231.89,-46.85 218.38,-35.66 207.29,-26.47"/>
<polygon fill="#63b8ff" stroke="#63b8ff" points="209.8,-24.01 199.86,-20.32 205.33,-29.4 209.8,-24.01"/>
</g>
<!-- Node17&#45;&gt;Node5 -->
<g id="edge20" class="edge">
<title>Node17&#45;&gt;Node5</title>
<path fill="none" stroke="#63b8ff" d="M408.84,-54.75C407.98,-48.19 406.76,-38.95 405.66,-30.6"/>
<polygon fill="#63b8ff" stroke="#63b8ff" points="409.16,-30.4 404.38,-20.94 402.22,-31.31 409.16,-30.4"/>
</g>
<!-- Node17&#45;&gt;Node10 -->
<g id="edge21" class="edge">
<title>Node17&#45;&gt;Node10</title>
<path fill="none" stroke="#63b8ff" d="M422.72,-54.51C433.78,-46.7 450.04,-35.21 463.17,-25.93"/>
<polygon fill="#63b8ff" stroke="#63b8ff" points="465.08,-28.86 471.23,-20.23 461.04,-23.14 465.08,-28.86"/>
</g>
<!-- Node18&#45;&gt;Node4 -->
<g id="edge23" class="edge">
<title>Node18&#45;&gt;Node4</title>
<path fill="none" stroke="#63b8ff" d="M415.13,-219.51C384.97,-210.73 338.86,-197.3 305.5,-187.59"/>
<polygon fill="#63b8ff" stroke="#63b8ff" points="306.75,-184.31 296.17,-184.87 304.8,-191.03 306.75,-184.31"/>
</g>
<!-- Node18&#45;&gt;Node17 -->
<g id="edge24" class="edge">
<title>Node18&#45;&gt;Node17</title>
<path fill="none" stroke="#63b8ff" d="M456.79,-219.55C465.74,-211.36 477.81,-198.36 483,-184 489.55,-165.88 482.27,-121.67 475,-110 467.03,-97.22 453.88,-87.19 441.49,-79.92"/>
<polygon fill="#63b8ff" stroke="#63b8ff" points="443.18,-76.86 432.72,-75.19 439.86,-83.02 443.18,-76.86"/>
</g>
<!-- Node19 -->
<g id="node19" class="node">
<title>Node19</title>
<g id="a_node19"><a xlink:href="DefaultLogger_8h.html" target="_top" xlink:title=" ">
<polygon fill="white" stroke="#666666" points="465.5,-129 380.5,-129 380.5,-110 465.5,-110 465.5,-129"/>
<text text-anchor="middle" x="423" y="-117" font-family="Helvetica,sans-Serif" font-size="10.00">DefaultLogger.h</text>
</a>
</g>
</g>
<!-- Node18&#45;&gt;Node19 -->
<g id="edge25" class="edge">
<title>Node18&#45;&gt;Node19</title>
<path fill="none" stroke="#63b8ff" d="M435.21,-219.55C426.26,-211.36 414.19,-198.36 409,-184 403.77,-169.53 408.08,-152.47 413.25,-139.68"/>
<polygon fill="#63b8ff" stroke="#63b8ff" points="416.38,-141.25 417.36,-130.71 410.01,-138.34 416.38,-141.25"/>
</g>
<!-- Node20 -->
<g id="node20" class="node">
<title>Node20</title>
<g id="a_node20"><a xlink:href="API__Process__Type_8h.html" target="_top" xlink:title=" ">
<polygon fill="white" stroke="#666666" points="589,-74 481,-74 481,-55 589,-55 589,-74"/>
<text text-anchor="middle" x="535" y="-62" font-family="Helvetica,sans-Serif" font-size="10.00">API_Process_Type.h</text>
</a>
</g>
</g>
<!-- Node18&#45;&gt;Node20 -->
<g id="edge27" class="edge">
<title>Node18&#45;&gt;Node20</title>
<path fill="none" stroke="#63b8ff" d="M460.32,-219.58C472.02,-211.6 488.19,-198.88 498,-184 518.4,-153.05 528.09,-110.19 532.25,-85.4"/>
<polygon fill="#63b8ff" stroke="#63b8ff" points="535.68,-86.15 533.73,-75.74 528.76,-85.1 535.68,-86.15"/>
</g>
<!-- Node21 -->
<g id="node21" class="node">
<title>Node21</title>
<g id="a_node21"><a xlink:title=" ">
<polygon fill="#e0e0e0" stroke="#999999" points="474,-184 418,-184 418,-165 474,-165 474,-184"/>
<text text-anchor="middle" x="446" y="-172" font-family="Helvetica,sans-Serif" font-size="10.00">algorithm</text>
</a>
</g>
</g>
<!-- Node18&#45;&gt;Node21 -->
<g id="edge29" class="edge">
<title>Node18&#45;&gt;Node21</title>
<path fill="none" stroke="#63b8ff" d="M446,-219.75C446,-213.27 446,-204.16 446,-195.9"/>
<polygon fill="#63b8ff" stroke="#63b8ff" points="449.5,-195.96 446,-185.96 442.5,-195.96 449.5,-195.96"/>
</g>
<!-- Node19&#45;&gt;Node7 -->
<g id="edge26" class="edge">
<title>Node19&#45;&gt;Node7</title>
<path fill="none" stroke="#63b8ff" d="M393.99,-109.51C365.31,-100.62 321.27,-86.97 289.85,-77.23"/>
<polygon fill="#63b8ff" stroke="#63b8ff" points="290.93,-73.9 280.34,-74.28 288.85,-80.59 290.93,-73.9"/>
</g>
<!-- Node20&#45;&gt;Node10 -->
<g id="edge28" class="edge">
<title>Node20&#45;&gt;Node10</title>
<path fill="none" stroke="#63b8ff" d="M526.74,-54.75C519.84,-47.43 509.78,-36.76 501.26,-27.74"/>
<polygon fill="#63b8ff" stroke="#63b8ff" points="503.88,-25.42 494.47,-20.54 498.79,-30.22 503.88,-25.42"/>
</g>
</g>
</svg>
