<?xml version="1.0" encoding="UTF-8" standalone="no"?>
<!DOCTYPE svg PUBLIC "-//W3C//DTD SVG 1.1//EN"
 "http://www.w3.org/Graphics/SVG/1.1/DTD/svg11.dtd">
<!-- Generated by graphviz version 7.0.5 (20221223.1930)
 -->
<!-- Title: src/Attribute_Request.h Pages: 1 -->
<svg width="620pt" height="412pt"
 viewBox="0.00 0.00 620.00 412.00" xmlns="http://www.w3.org/2000/svg" xmlns:xlink="http://www.w3.org/1999/xlink">
<g id="graph0" class="graph" transform="scale(1 1) rotate(0) translate(4 408)">
<title>src/Attribute_Request.h</title>
<!-- Node1 -->
<g id="node1" class="node">
<title>Node1</title>
<g id="a_node1"><a xlink:title=" ">
<polygon fill="#999999" stroke="#666666" points="244.5,-404 125.5,-404 125.5,-385 244.5,-385 244.5,-404"/>
<text text-anchor="middle" x="185" y="-392" font-family="Helvetica,sans-Serif" font-size="10.00">src/Attribute_Request.h</text>
</a>
</g>
</g>
<!-- Node2 -->
<g id="node2" class="node">
<title>Node2</title>
<g id="a_node2"><a xlink:href="Attribute__Request__Callback_8h.html" target="_top" xlink:title=" ">
<polygon fill="white" stroke="#666666" points="257.5,-349 112.5,-349 112.5,-330 257.5,-330 257.5,-349"/>
<text text-anchor="middle" x="185" y="-337" font-family="Helvetica,sans-Serif" font-size="10.00">Attribute_Request_Callback.h</text>
</a>
</g>
</g>
<!-- Node1&#45;&gt;Node2 -->
<g id="edge1" class="edge">
<title>Node1&#45;&gt;Node2</title>
<path fill="none" stroke="#63b8ff" d="M185,-384.75C185,-378.27 185,-369.16 185,-360.9"/>
<polygon fill="#63b8ff" stroke="#63b8ff" points="188.5,-360.96 185,-350.96 181.5,-360.96 188.5,-360.96"/>
</g>
<!-- Node3 -->
<g id="node3" class="node">
<title>Node3</title>
<g id="a_node3"><a xlink:href="Timeoutable__Request_8h.html" target="_top" xlink:title=" ">
<polygon fill="white" stroke="#666666" points="345.5,-294 226.5,-294 226.5,-275 345.5,-275 345.5,-294"/>
<text text-anchor="middle" x="286" y="-282" font-family="Helvetica,sans-Serif" font-size="10.00">Timeoutable_Request.h</text>
</a>
</g>
</g>
<!-- Node1&#45;&gt;Node3 -->
<g id="edge31" class="edge">
<title>Node1&#45;&gt;Node3</title>
<path fill="none" stroke="#63b8ff" d="M212.2,-384.61C229.84,-377.55 252.06,-366 266,-349 276.21,-336.55 281.23,-318.84 283.69,-305.28"/>
<polygon fill="#63b8ff" stroke="#63b8ff" points="287.09,-306.17 285.08,-295.77 280.17,-305.16 287.09,-306.17"/>
</g>
<!-- Node19 -->
<g id="node19" class="node">
<title>Node19</title>
<g id="a_node19"><a xlink:href="IAPI__Implementation_8h.html" target="_top" xlink:title=" ">
<polygon fill="white" stroke="#666666" points="142,-239 26,-239 26,-220 142,-220 142,-239"/>
<text text-anchor="middle" x="84" y="-227" font-family="Helvetica,sans-Serif" font-size="10.00">IAPI_Implementation.h</text>
</a>
</g>
</g>
<!-- Node1&#45;&gt;Node19 -->
<g id="edge23" class="edge">
<title>Node1&#45;&gt;Node19</title>
<path fill="none" stroke="#63b8ff" d="M154.62,-384.57C136.77,-377.73 115.36,-366.45 103,-349 82.18,-319.61 80.82,-275.88 82.12,-250.57"/>
<polygon fill="#63b8ff" stroke="#63b8ff" points="85.61,-250.94 82.85,-240.71 78.63,-250.42 85.61,-250.94"/>
</g>
<!-- Node2&#45;&gt;Node3 -->
<g id="edge2" class="edge">
<title>Node2&#45;&gt;Node3</title>
<path fill="none" stroke="#63b8ff" d="M202.13,-329.51C217.75,-321.31 241.08,-309.07 259.17,-299.58"/>
<polygon fill="#63b8ff" stroke="#63b8ff" points="260.55,-302.81 267.78,-295.06 257.3,-296.61 260.55,-302.81"/>
</g>
<!-- Node18 -->
<g id="node18" class="node">
<title>Node18</title>
<g id="a_node18"><a xlink:href="Constants_8h.html" target="_top" xlink:title=" ">
<polygon fill="white" stroke="#666666" points="214,-74 146,-74 146,-55 214,-55 214,-74"/>
<text text-anchor="middle" x="180" y="-62" font-family="Helvetica,sans-Serif" font-size="10.00">Constants.h</text>
</a>
</g>
</g>
<!-- Node2&#45;&gt;Node18 -->
<g id="edge20" class="edge">
<title>Node2&#45;&gt;Node18</title>
<path fill="none" stroke="#63b8ff" d="M182.91,-329.6C178.79,-311.2 170,-267.6 170,-230.5 170,-230.5 170,-230.5 170,-173.5 170,-142.79 174.06,-107.38 177,-85.72"/>
<polygon fill="#63b8ff" stroke="#63b8ff" points="180.45,-86.33 178.4,-75.93 173.52,-85.34 180.45,-86.33"/>
</g>
<!-- Node4 -->
<g id="node4" class="node">
<title>Node4</title>
<g id="a_node4"><a xlink:href="Callback__Watchdog_8h.html" target="_top" xlink:title=" ">
<polygon fill="white" stroke="#666666" points="417,-239 307,-239 307,-220 417,-220 417,-239"/>
<text text-anchor="middle" x="362" y="-227" font-family="Helvetica,sans-Serif" font-size="10.00">Callback_Watchdog.h</text>
</a>
</g>
</g>
<!-- Node3&#45;&gt;Node4 -->
<g id="edge3" class="edge">
<title>Node3&#45;&gt;Node4</title>
<path fill="none" stroke="#63b8ff" d="M298.89,-274.51C310.1,-266.7 326.57,-255.21 339.88,-245.93"/>
<polygon fill="#63b8ff" stroke="#63b8ff" points="341.86,-248.81 348.06,-240.22 337.85,-243.07 341.86,-248.81"/>
</g>
<!-- Node5 -->
<g id="node5" class="node">
<title>Node5</title>
<g id="a_node5"><a xlink:href="Callback_8h.html" target="_top" xlink:title=" ">
<polygon fill="white" stroke="#666666" points="393,-184 331,-184 331,-165 393,-165 393,-184"/>
<text text-anchor="middle" x="362" y="-172" font-family="Helvetica,sans-Serif" font-size="10.00">Callback.h</text>
</a>
</g>
</g>
<!-- Node4&#45;&gt;Node5 -->
<g id="edge4" class="edge">
<title>Node4&#45;&gt;Node5</title>
<path fill="none" stroke="#63b8ff" d="M362,-219.75C362,-213.27 362,-204.16 362,-195.9"/>
<polygon fill="#63b8ff" stroke="#63b8ff" points="365.5,-195.96 362,-185.96 358.5,-195.96 365.5,-195.96"/>
</g>
<!-- Node17 -->
<g id="node17" class="node">
<title>Node17</title>
<g id="a_node17"><a xlink:title=" ">
<polygon fill="#e0e0e0" stroke="#999999" points="491,-184 411,-184 411,-165 491,-165 491,-184"/>
<text text-anchor="middle" x="451" y="-172" font-family="Helvetica,sans-Serif" font-size="10.00">arduino&#45;timer.h</text>
</a>
</g>
</g>
<!-- Node4&#45;&gt;Node17 -->
<g id="edge19" class="edge">
<title>Node4&#45;&gt;Node17</title>
<path fill="none" stroke="#63b8ff" d="M377.1,-219.51C390.6,-211.47 410.65,-199.53 426.46,-190.11"/>
<polygon fill="#63b8ff" stroke="#63b8ff" points="428.02,-193.26 434.82,-185.13 424.44,-187.24 428.02,-193.26"/>
</g>
<!-- Node6 -->
<g id="node6" class="node">
<title>Node6</title>
<g id="a_node6"><a xlink:href="Configuration_8h.html" target="_top" xlink:title=" ">
<polygon fill="white" stroke="#666666" points="249,-19 169,-19 169,0 249,0 249,-19"/>
<text text-anchor="middle" x="209" y="-7" font-family="Helvetica,sans-Serif" font-size="10.00">Configuration.h</text>
</a>
</g>
</g>
<!-- Node5&#45;&gt;Node6 -->
<g id="edge5" class="edge">
<title>Node5&#45;&gt;Node6</title>
<path fill="none" stroke="#63b8ff" d="M353.77,-164.74C329.39,-138.76 257.18,-61.83 224.9,-27.44"/>
<polygon fill="#63b8ff" stroke="#63b8ff" points="227.7,-25.31 218.3,-20.41 222.59,-30.1 227.7,-25.31"/>
</g>
<!-- Node7 -->
<g id="node7" class="node">
<title>Node7</title>
<g id="a_node7"><a xlink:title=" ">
<polygon fill="#e0e0e0" stroke="#999999" points="612,-19 534,-19 534,0 612,0 612,-19"/>
<text text-anchor="middle" x="573" y="-7" font-family="Helvetica,sans-Serif" font-size="10.00">ArduinoJson.h</text>
</a>
</g>
</g>
<!-- Node5&#45;&gt;Node7 -->
<g id="edge6" class="edge">
<title>Node5&#45;&gt;Node7</title>
<path fill="none" stroke="#63b8ff" d="M393.15,-166.74C446.81,-155.04 551.23,-131.97 554,-129 578.93,-102.3 578.62,-56.6 575.96,-30.44"/>
<polygon fill="#63b8ff" stroke="#63b8ff" points="579.47,-30.32 574.75,-20.84 572.52,-31.2 579.47,-30.32"/>
</g>
<!-- Node8 -->
<g id="node8" class="node">
<title>Node8</title>
<g id="a_node8"><a xlink:title=" ">
<polygon fill="#e0e0e0" stroke="#999999" points="544.5,-129 485.5,-129 485.5,-110 544.5,-110 544.5,-129"/>
<text text-anchor="middle" x="515" y="-117" font-family="Helvetica,sans-Serif" font-size="10.00">functional</text>
</a>
</g>
</g>
<!-- Node5&#45;&gt;Node8 -->
<g id="edge7" class="edge">
<title>Node5&#45;&gt;Node8</title>
<path fill="none" stroke="#63b8ff" d="M387.95,-164.51C412.87,-155.88 450.73,-142.76 478.64,-133.1"/>
<polygon fill="#63b8ff" stroke="#63b8ff" points="479.44,-136.52 487.74,-129.94 477.15,-129.91 479.44,-136.52"/>
</g>
<!-- Node9 -->
<g id="node9" class="node">
<title>Node9</title>
<g id="a_node9"><a xlink:title=" ">
<polygon fill="#e0e0e0" stroke="#999999" points="384,-129 340,-129 340,-110 384,-110 384,-129"/>
<text text-anchor="middle" x="362" y="-117" font-family="Helvetica,sans-Serif" font-size="10.00">vector</text>
</a>
</g>
</g>
<!-- Node5&#45;&gt;Node9 -->
<g id="edge8" class="edge">
<title>Node5&#45;&gt;Node9</title>
<path fill="none" stroke="#63b8ff" d="M362,-164.75C362,-158.27 362,-149.16 362,-140.9"/>
<polygon fill="#63b8ff" stroke="#63b8ff" points="365.5,-140.96 362,-130.96 358.5,-140.96 365.5,-140.96"/>
</g>
<!-- Node10 -->
<g id="node10" class="node">
<title>Node10</title>
<g id="a_node10"><a xlink:href="Container_8h.html" target="_top" xlink:title=" ">
<polygon fill="white" stroke="#666666" points="467.5,-129 402.5,-129 402.5,-110 467.5,-110 467.5,-129"/>
<text text-anchor="middle" x="435" y="-117" font-family="Helvetica,sans-Serif" font-size="10.00">Container.h</text>
</a>
</g>
</g>
<!-- Node5&#45;&gt;Node10 -->
<g id="edge9" class="edge">
<title>Node5&#45;&gt;Node10</title>
<path fill="none" stroke="#63b8ff" d="M374.38,-164.51C385.15,-156.7 400.97,-145.21 413.75,-135.93"/>
<polygon fill="#63b8ff" stroke="#63b8ff" points="415.54,-138.95 421.57,-130.25 411.43,-133.29 415.54,-138.95"/>
</g>
<!-- Node11 -->
<g id="node11" class="node">
<title>Node11</title>
<g id="a_node11"><a xlink:href="Helper_8h.html" target="_top" xlink:title=" ">
<polygon fill="white" stroke="#666666" points="393.5,-74 340.5,-74 340.5,-55 393.5,-55 393.5,-74"/>
<text text-anchor="middle" x="367" y="-62" font-family="Helvetica,sans-Serif" font-size="10.00">Helper.h</text>
</a>
</g>
</g>
<!-- Node10&#45;&gt;Node11 -->
<g id="edge10" class="edge">
<title>Node10&#45;&gt;Node11</title>
<path fill="none" stroke="#63b8ff" d="M423.46,-109.51C413.54,-101.77 398.99,-90.43 387.14,-81.2"/>
<polygon fill="#63b8ff" stroke="#63b8ff" points="389.6,-78.68 379.56,-75.29 385.29,-84.2 389.6,-78.68"/>
</g>
<!-- Node14 -->
<g id="node14" class="node">
<title>Node14</title>
<g id="a_node14"><a xlink:title=" ">
<polygon fill="#e0e0e0" stroke="#999999" points="515.5,-19 464.5,-19 464.5,0 515.5,0 515.5,-19"/>
<text text-anchor="middle" x="490" y="-7" font-family="Helvetica,sans-Serif" font-size="10.00">assert.h</text>
</a>
</g>
</g>
<!-- Node10&#45;&gt;Node14 -->
<g id="edge18" class="edge">
<title>Node10&#45;&gt;Node14</title>
<path fill="none" stroke="#63b8ff" d="M439.5,-109.66C448.36,-92.26 468.26,-53.19 480.26,-29.62"/>
<polygon fill="#63b8ff" stroke="#63b8ff" points="483.33,-31.31 484.75,-20.81 477.09,-28.13 483.33,-31.31"/>
</g>
<!-- Node11&#45;&gt;Node6 -->
<g id="edge11" class="edge">
<title>Node11&#45;&gt;Node6</title>
<path fill="none" stroke="#63b8ff" d="M340.2,-54.51C314.47,-45.88 275.37,-32.76 246.55,-23.1"/>
<polygon fill="#63b8ff" stroke="#63b8ff" points="247.7,-19.79 237.1,-19.93 245.47,-26.43 247.7,-19.79"/>
</g>
<!-- Node11&#45;&gt;Node7 -->
<g id="edge12" class="edge">
<title>Node11&#45;&gt;Node7</title>
<path fill="none" stroke="#63b8ff" d="M393.93,-56.57C427.73,-47.88 486.2,-32.83 527.11,-22.31"/>
<polygon fill="#63b8ff" stroke="#63b8ff" points="527.87,-25.73 536.68,-19.84 526.12,-18.95 527.87,-25.73"/>
</g>
<!-- Node12 -->
<g id="node12" class="node">
<title>Node12</title>
<g id="a_node12"><a xlink:title=" ">
<polygon fill="#e0e0e0" stroke="#999999" points="377.5,-19 330.5,-19 330.5,0 377.5,0 377.5,-19"/>
<text text-anchor="middle" x="354" y="-7" font-family="Helvetica,sans-Serif" font-size="10.00">iterator</text>
</a>
</g>
</g>
<!-- Node11&#45;&gt;Node12 -->
<g id="edge13" class="edge">
<title>Node11&#45;&gt;Node12</title>
<path fill="none" stroke="#63b8ff" d="M364.85,-54.75C363.24,-48.19 360.98,-38.95 358.93,-30.6"/>
<polygon fill="#63b8ff" stroke="#63b8ff" points="362.34,-29.79 356.55,-20.91 355.54,-31.46 362.34,-29.79"/>
</g>
<!-- Node13 -->
<g id="node13" class="node">
<title>Node13</title>
<g id="a_node13"><a xlink:title=" ">
<polygon fill="#e0e0e0" stroke="#999999" points="151,-19 103,-19 103,0 151,0 151,-19"/>
<text text-anchor="middle" x="127" y="-7" font-family="Helvetica,sans-Serif" font-size="10.00">stdint.h</text>
</a>
</g>
</g>
<!-- Node11&#45;&gt;Node13 -->
<g id="edge14" class="edge">
<title>Node11&#45;&gt;Node13</title>
<path fill="none" stroke="#63b8ff" d="M340.13,-58.08C302.58,-50.44 232.04,-35.8 162.61,-19.54"/>
<polygon fill="#63b8ff" stroke="#63b8ff" points="163.49,-16.16 152.95,-17.27 161.89,-22.97 163.49,-16.16"/>
</g>
<!-- Node11&#45;&gt;Node14 -->
<g id="edge15" class="edge">
<title>Node11&#45;&gt;Node14</title>
<path fill="none" stroke="#63b8ff" d="M387.87,-54.51C407.42,-46.08 436.9,-33.38 459.17,-23.79"/>
<polygon fill="#63b8ff" stroke="#63b8ff" points="460.25,-27.13 468.05,-19.96 457.48,-20.7 460.25,-27.13"/>
</g>
<!-- Node15 -->
<g id="node15" class="node">
<title>Node15</title>
<g id="a_node15"><a xlink:title=" ">
<polygon fill="#e0e0e0" stroke="#999999" points="446.5,-19 395.5,-19 395.5,0 446.5,0 446.5,-19"/>
<text text-anchor="middle" x="421" y="-7" font-family="Helvetica,sans-Serif" font-size="10.00">stdarg.h</text>
</a>
</g>
</g>
<!-- Node11&#45;&gt;Node15 -->
<g id="edge16" class="edge">
<title>Node11&#45;&gt;Node15</title>
<path fill="none" stroke="#63b8ff" d="M375.92,-54.75C383.45,-47.35 394.47,-36.54 403.73,-27.45"/>
<polygon fill="#63b8ff" stroke="#63b8ff" points="406.12,-30 410.81,-20.5 401.22,-25.01 406.12,-30"/>
</g>
<!-- Node16 -->
<g id="node16" class="node">
<title>Node16</title>
<g id="a_node16"><a xlink:title=" ">
<polygon fill="#e0e0e0" stroke="#999999" points="312.5,-19 267.5,-19 267.5,0 312.5,0 312.5,-19"/>
<text text-anchor="middle" x="290" y="-7" font-family="Helvetica,sans-Serif" font-size="10.00">stdio.h</text>
</a>
</g>
</g>
<!-- Node11&#45;&gt;Node16 -->
<g id="edge17" class="edge">
<title>Node11&#45;&gt;Node16</title>
<path fill="none" stroke="#63b8ff" d="M353.94,-54.51C342.48,-46.62 325.57,-34.98 312.02,-25.65"/>
<polygon fill="#63b8ff" stroke="#63b8ff" points="314.34,-23 304.12,-20.22 310.37,-28.77 314.34,-23"/>
</g>
<!-- Node18&#45;&gt;Node6 -->
<g id="edge21" class="edge">
<title>Node18&#45;&gt;Node6</title>
<path fill="none" stroke="#63b8ff" d="M184.79,-54.75C188.54,-47.88 193.91,-38.08 198.63,-29.45"/>
<polygon fill="#63b8ff" stroke="#63b8ff" points="201.65,-31.22 203.38,-20.77 195.51,-27.86 201.65,-31.22"/>
</g>
<!-- Node18&#45;&gt;Node13 -->
<g id="edge22" class="edge">
<title>Node18&#45;&gt;Node13</title>
<path fill="none" stroke="#63b8ff" d="M171.25,-54.75C163.85,-47.35 153.04,-36.54 143.95,-27.45"/>
<polygon fill="#63b8ff" stroke="#63b8ff" points="146.56,-25.11 137.01,-20.51 141.61,-30.06 146.56,-25.11"/>
</g>
<!-- Node19&#45;&gt;Node5 -->
<g id="edge24" class="edge">
<title>Node19&#45;&gt;Node5</title>
<path fill="none" stroke="#63b8ff" d="M131.16,-219.51C183.9,-209.45 268.58,-193.31 319.4,-183.62"/>
<polygon fill="#63b8ff" stroke="#63b8ff" points="319.97,-187.08 329.14,-181.77 318.66,-180.2 319.97,-187.08"/>
</g>
<!-- Node19&#45;&gt;Node18 -->
<g id="edge25" class="edge">
<title>Node19&#45;&gt;Node18</title>
<path fill="none" stroke="#63b8ff" d="M89.16,-219.74C104.27,-194.09 148.62,-118.78 169.24,-83.78"/>
<polygon fill="#63b8ff" stroke="#63b8ff" points="171.99,-86 174.05,-75.61 165.95,-82.45 171.99,-86"/>
</g>
<!-- Node20 -->
<g id="node20" class="node">
<title>Node20</title>
<g id="a_node20"><a xlink:href="DefaultLogger_8h.html" target="_top" xlink:title=" ">
<polygon fill="white" stroke="#666666" points="283.5,-129 198.5,-129 198.5,-110 283.5,-110 283.5,-129"/>
<text text-anchor="middle" x="241" y="-117" font-family="Helvetica,sans-Serif" font-size="10.00">DefaultLogger.h</text>
</a>
</g>
</g>
<!-- Node19&#45;&gt;Node20 -->
<g id="edge26" class="edge">
<title>Node19&#45;&gt;Node20</title>
<path fill="none" stroke="#63b8ff" d="M96.85,-219.66C123.53,-201.31 185.22,-158.87 218.6,-135.91"/>
<polygon fill="#63b8ff" stroke="#63b8ff" points="220.47,-138.87 226.73,-130.32 216.5,-133.1 220.47,-138.87"/>
</g>
<!-- Node21 -->
<g id="node21" class="node">
<title>Node21</title>
<g id="a_node21"><a xlink:href="API__Process__Type_8h.html" target="_top" xlink:title=" ">
<polygon fill="white" stroke="#666666" points="128,-74 20,-74 20,-55 128,-55 128,-74"/>
<text text-anchor="middle" x="74" y="-62" font-family="Helvetica,sans-Serif" font-size="10.00">API_Process_Type.h</text>
</a>
</g>
</g>
<!-- Node19&#45;&gt;Node21 -->
<g id="edge28" class="edge">
<title>Node19&#45;&gt;Node21</title>
<path fill="none" stroke="#63b8ff" d="M83.46,-219.74C81.92,-194.53 77.43,-121.36 75.23,-85.62"/>
<polygon fill="#63b8ff" stroke="#63b8ff" points="78.74,-85.58 74.63,-75.82 71.75,-86.01 78.74,-85.58"/>
</g>
<!-- Node22 -->
<g id="node22" class="node">
<title>Node22</title>
<g id="a_node22"><a xlink:title=" ">
<polygon fill="#e0e0e0" stroke="#999999" points="56,-184 0,-184 0,-165 56,-165 56,-184"/>
<text text-anchor="middle" x="28" y="-172" font-family="Helvetica,sans-Serif" font-size="10.00">algorithm</text>
</a>
</g>
</g>
<!-- Node19&#45;&gt;Node22 -->
<g id="edge30" class="edge">
<title>Node19&#45;&gt;Node22</title>
<path fill="none" stroke="#63b8ff" d="M74.5,-219.51C66.57,-212 55.05,-201.1 45.46,-192.03"/>
<polygon fill="#63b8ff" stroke="#63b8ff" points="48.13,-189.73 38.46,-185.4 43.32,-194.81 48.13,-189.73"/>
</g>
<!-- Node20&#45;&gt;Node11 -->
<g id="edge27" class="edge">
<title>Node20&#45;&gt;Node11</title>
<path fill="none" stroke="#63b8ff" d="M262.37,-109.51C282.41,-101.08 312.6,-88.38 335.41,-78.79"/>
<polygon fill="#63b8ff" stroke="#63b8ff" points="336.69,-82.05 344.55,-74.94 333.97,-75.6 336.69,-82.05"/>
</g>
<!-- Node21&#45;&gt;Node13 -->
<g id="edge29" class="edge">
<title>Node21&#45;&gt;Node13</title>
<path fill="none" stroke="#63b8ff" d="M82.75,-54.75C90.15,-47.35 100.96,-36.54 110.05,-27.45"/>
<polygon fill="#63b8ff" stroke="#63b8ff" points="112.39,-30.06 116.99,-20.51 107.44,-25.11 112.39,-30.06"/>
</g>
</g>
</svg>
