<?xml version="1.0" encoding="UTF-8" standalone="no"?>
<!DOCTYPE svg PUBLIC "-//W3C//DTD SVG 1.1//EN"
 "http://www.w3.org/Graphics/SVG/1.1/DTD/svg11.dtd">
<!-- Generated by graphviz version 7.0.5 (20221223.1930)
 -->
<!-- Title: src/Attribute_Request_Callback.h Pages: 1 -->
<svg width="517pt" height="368pt"
 viewBox="0.00 0.00 516.50 368.00" xmlns="http://www.w3.org/2000/svg" xmlns:xlink="http://www.w3.org/1999/xlink">
<g id="graph0" class="graph" transform="scale(1 1) rotate(0) translate(4 364)">
<title>src/Attribute_Request_Callback.h</title>
<!-- Node1 -->
<g id="node1" class="node">
<title>Node1</title>
<g id="a_node1"><a xlink:title=" ">
<polygon fill="#999999" stroke="#666666" points="267.5,-360 156.5,-360 156.5,-330 267.5,-330 267.5,-360"/>
<text text-anchor="start" x="164.5" y="-348" font-family="Helvetica,sans-Serif" font-size="10.00">src/Attribute_Request</text>
<text text-anchor="middle" x="212" y="-337" font-family="Helvetica,sans-Serif" font-size="10.00">_Callback.h</text>
</a>
</g>
</g>
<!-- Node2 -->
<g id="node2" class="node">
<title>Node2</title>
<g id="a_node2"><a xlink:href="Timeoutable__Request_8h.html" target="_top" xlink:title=" ">
<polygon fill="white" stroke="#666666" points="227.5,-294 108.5,-294 108.5,-275 227.5,-275 227.5,-294"/>
<text text-anchor="middle" x="168" y="-282" font-family="Helvetica,sans-Serif" font-size="10.00">Timeoutable_Request.h</text>
</a>
</g>
</g>
<!-- Node1&#45;&gt;Node2 -->
<g id="edge1" class="edge">
<title>Node1&#45;&gt;Node2</title>
<path fill="none" stroke="#63b8ff" d="M201.12,-329.54C195.12,-321.56 187.63,-311.59 181.28,-303.16"/>
<polygon fill="#63b8ff" stroke="#63b8ff" points="184.24,-301.27 175.43,-295.38 178.65,-305.48 184.24,-301.27"/>
</g>
<!-- Node17 -->
<g id="node17" class="node">
<title>Node17</title>
<g id="a_node17"><a xlink:href="Constants_8h.html" target="_top" xlink:title=" ">
<polygon fill="white" stroke="#666666" points="252,-74 184,-74 184,-55 252,-55 252,-74"/>
<text text-anchor="middle" x="218" y="-62" font-family="Helvetica,sans-Serif" font-size="10.00">Constants.h</text>
</a>
</g>
</g>
<!-- Node1&#45;&gt;Node17 -->
<g id="edge19" class="edge">
<title>Node1&#45;&gt;Node17</title>
<path fill="none" stroke="#63b8ff" d="M221.55,-329.64C234.49,-308.75 256,-268.33 256,-230.5 256,-230.5 256,-230.5 256,-173.5 256,-140.65 240.16,-105.19 228.93,-84.19"/>
<polygon fill="#63b8ff" stroke="#63b8ff" points="232.12,-82.72 224.18,-75.69 226,-86.13 232.12,-82.72"/>
</g>
<!-- Node3 -->
<g id="node3" class="node">
<title>Node3</title>
<g id="a_node3"><a xlink:href="Callback__Watchdog_8h.html" target="_top" xlink:title=" ">
<polygon fill="white" stroke="#666666" points="223,-239 113,-239 113,-220 223,-220 223,-239"/>
<text text-anchor="middle" x="168" y="-227" font-family="Helvetica,sans-Serif" font-size="10.00">Callback_Watchdog.h</text>
</a>
</g>
</g>
<!-- Node2&#45;&gt;Node3 -->
<g id="edge2" class="edge">
<title>Node2&#45;&gt;Node3</title>
<path fill="none" stroke="#63b8ff" d="M168,-274.75C168,-268.27 168,-259.16 168,-250.9"/>
<polygon fill="#63b8ff" stroke="#63b8ff" points="171.5,-250.96 168,-240.96 164.5,-250.96 171.5,-250.96"/>
</g>
<!-- Node4 -->
<g id="node4" class="node">
<title>Node4</title>
<g id="a_node4"><a xlink:href="Callback_8h.html" target="_top" xlink:title=" ">
<polygon fill="white" stroke="#666666" points="130,-184 68,-184 68,-165 130,-165 130,-184"/>
<text text-anchor="middle" x="99" y="-172" font-family="Helvetica,sans-Serif" font-size="10.00">Callback.h</text>
</a>
</g>
</g>
<!-- Node3&#45;&gt;Node4 -->
<g id="edge3" class="edge">
<title>Node3&#45;&gt;Node4</title>
<path fill="none" stroke="#63b8ff" d="M156.3,-219.51C146.22,-211.77 131.46,-200.43 119.44,-191.2"/>
<polygon fill="#63b8ff" stroke="#63b8ff" points="121.79,-188.6 111.73,-185.28 117.53,-194.15 121.79,-188.6"/>
</g>
<!-- Node16 -->
<g id="node16" class="node">
<title>Node16</title>
<g id="a_node16"><a xlink:title=" ">
<polygon fill="#e0e0e0" stroke="#999999" points="228,-184 148,-184 148,-165 228,-165 228,-184"/>
<text text-anchor="middle" x="188" y="-172" font-family="Helvetica,sans-Serif" font-size="10.00">arduino&#45;timer.h</text>
</a>
</g>
</g>
<!-- Node3&#45;&gt;Node16 -->
<g id="edge18" class="edge">
<title>Node3&#45;&gt;Node16</title>
<path fill="none" stroke="#63b8ff" d="M171.3,-219.75C173.83,-213.04 177.43,-203.52 180.63,-195.02"/>
<polygon fill="#63b8ff" stroke="#63b8ff" points="183.84,-196.45 184.09,-185.86 177.29,-193.98 183.84,-196.45"/>
</g>
<!-- Node5 -->
<g id="node5" class="node">
<title>Node5</title>
<g id="a_node5"><a xlink:href="Configuration_8h.html" target="_top" xlink:title=" ">
<polygon fill="white" stroke="#666666" points="80,-19 0,-19 0,0 80,0 80,-19"/>
<text text-anchor="middle" x="40" y="-7" font-family="Helvetica,sans-Serif" font-size="10.00">Configuration.h</text>
</a>
</g>
</g>
<!-- Node4&#45;&gt;Node5 -->
<g id="edge4" class="edge">
<title>Node4&#45;&gt;Node5</title>
<path fill="none" stroke="#63b8ff" d="M95.83,-164.74C86.62,-139.31 59.75,-65.08 46.95,-29.69"/>
<polygon fill="#63b8ff" stroke="#63b8ff" points="50.4,-28.94 43.7,-20.73 43.82,-31.32 50.4,-28.94"/>
</g>
<!-- Node6 -->
<g id="node6" class="node">
<title>Node6</title>
<g id="a_node6"><a xlink:title=" ">
<polygon fill="#e0e0e0" stroke="#999999" points="176,-19 98,-19 98,0 176,0 176,-19"/>
<text text-anchor="middle" x="137" y="-7" font-family="Helvetica,sans-Serif" font-size="10.00">ArduinoJson.h</text>
</a>
</g>
</g>
<!-- Node4&#45;&gt;Node6 -->
<g id="edge5" class="edge">
<title>Node4&#45;&gt;Node6</title>
<path fill="none" stroke="#63b8ff" d="M98.48,-164.64C97.99,-155.66 97.28,-141.37 97,-129 96.81,-120.56 95.4,-118.29 97,-110 102.68,-80.66 116.96,-49 126.82,-29.46"/>
<polygon fill="#63b8ff" stroke="#63b8ff" points="129.81,-31.3 131.32,-20.81 123.6,-28.06 129.81,-31.3"/>
</g>
<!-- Node7 -->
<g id="node7" class="node">
<title>Node7</title>
<g id="a_node7"><a xlink:title=" ">
<polygon fill="#e0e0e0" stroke="#999999" points="165.5,-129 106.5,-129 106.5,-110 165.5,-110 165.5,-129"/>
<text text-anchor="middle" x="136" y="-117" font-family="Helvetica,sans-Serif" font-size="10.00">functional</text>
</a>
</g>
</g>
<!-- Node4&#45;&gt;Node7 -->
<g id="edge6" class="edge">
<title>Node4&#45;&gt;Node7</title>
<path fill="none" stroke="#63b8ff" d="M105.11,-164.75C110.01,-157.73 117.05,-147.64 123.17,-138.87"/>
<polygon fill="#63b8ff" stroke="#63b8ff" points="126.04,-140.89 128.89,-130.68 120.3,-136.88 126.04,-140.89"/>
</g>
<!-- Node8 -->
<g id="node8" class="node">
<title>Node8</title>
<g id="a_node8"><a xlink:title=" ">
<polygon fill="#e0e0e0" stroke="#999999" points="228,-129 184,-129 184,-110 228,-110 228,-129"/>
<text text-anchor="middle" x="206" y="-117" font-family="Helvetica,sans-Serif" font-size="10.00">vector</text>
</a>
</g>
</g>
<!-- Node4&#45;&gt;Node8 -->
<g id="edge7" class="edge">
<title>Node4&#45;&gt;Node8</title>
<path fill="none" stroke="#63b8ff" d="M117.15,-164.51C133.78,-156.27 158.64,-143.96 177.85,-134.45"/>
<polygon fill="#63b8ff" stroke="#63b8ff" points="179.35,-137.6 186.76,-130.03 176.25,-131.33 179.35,-137.6"/>
</g>
<!-- Node9 -->
<g id="node9" class="node">
<title>Node9</title>
<g id="a_node9"><a xlink:href="Container_8h.html" target="_top" xlink:title=" ">
<polygon fill="white" stroke="#666666" points="349.5,-129 284.5,-129 284.5,-110 349.5,-110 349.5,-129"/>
<text text-anchor="middle" x="317" y="-117" font-family="Helvetica,sans-Serif" font-size="10.00">Container.h</text>
</a>
</g>
</g>
<!-- Node4&#45;&gt;Node9 -->
<g id="edge8" class="edge">
<title>Node4&#45;&gt;Node9</title>
<path fill="none" stroke="#63b8ff" d="M130.23,-165.91C167.66,-156.81 230.6,-141.51 272.95,-131.21"/>
<polygon fill="#63b8ff" stroke="#63b8ff" points="273.68,-134.63 282.57,-128.87 272.03,-127.83 273.68,-134.63"/>
</g>
<!-- Node10 -->
<g id="node10" class="node">
<title>Node10</title>
<g id="a_node10"><a xlink:href="Helper_8h.html" target="_top" xlink:title=" ">
<polygon fill="white" stroke="#666666" points="333.5,-74 280.5,-74 280.5,-55 333.5,-55 333.5,-74"/>
<text text-anchor="middle" x="307" y="-62" font-family="Helvetica,sans-Serif" font-size="10.00">Helper.h</text>
</a>
</g>
</g>
<!-- Node9&#45;&gt;Node10 -->
<g id="edge9" class="edge">
<title>Node9&#45;&gt;Node10</title>
<path fill="none" stroke="#63b8ff" d="M315.35,-109.75C314.11,-103.19 312.37,-93.95 310.79,-85.6"/>
<polygon fill="#63b8ff" stroke="#63b8ff" points="314.26,-85.11 308.97,-75.93 307.38,-86.4 314.26,-85.11"/>
</g>
<!-- Node13 -->
<g id="node13" class="node">
<title>Node13</title>
<g id="a_node13"><a xlink:title=" ">
<polygon fill="#e0e0e0" stroke="#999999" points="508.5,-19 457.5,-19 457.5,0 508.5,0 508.5,-19"/>
<text text-anchor="middle" x="483" y="-7" font-family="Helvetica,sans-Serif" font-size="10.00">assert.h</text>
</a>
</g>
</g>
<!-- Node9&#45;&gt;Node13 -->
<g id="edge17" class="edge">
<title>Node9&#45;&gt;Node13</title>
<path fill="none" stroke="#63b8ff" d="M330.58,-109.66C358.92,-91.23 424.59,-48.5 459.77,-25.62"/>
<polygon fill="#63b8ff" stroke="#63b8ff" points="461.49,-28.67 467.96,-20.29 457.67,-22.81 461.49,-28.67"/>
</g>
<!-- Node10&#45;&gt;Node5 -->
<g id="edge10" class="edge">
<title>Node10&#45;&gt;Node5</title>
<path fill="none" stroke="#63b8ff" d="M280.42,-58.22C236.49,-49.5 147.98,-31.93 91.48,-20.72"/>
<polygon fill="#63b8ff" stroke="#63b8ff" points="92.25,-17.3 81.76,-18.79 90.89,-24.17 92.25,-17.3"/>
</g>
<!-- Node10&#45;&gt;Node6 -->
<g id="edge11" class="edge">
<title>Node10&#45;&gt;Node6</title>
<path fill="none" stroke="#63b8ff" d="M280.06,-55.1C252.17,-46.41 208.31,-32.73 176.5,-22.82"/>
<polygon fill="#63b8ff" stroke="#63b8ff" points="177.83,-19.56 167.24,-19.93 175.75,-26.25 177.83,-19.56"/>
</g>
<!-- Node11 -->
<g id="node11" class="node">
<title>Node11</title>
<g id="a_node11"><a xlink:title=" ">
<polygon fill="#e0e0e0" stroke="#999999" points="307.5,-19 260.5,-19 260.5,0 307.5,0 307.5,-19"/>
<text text-anchor="middle" x="284" y="-7" font-family="Helvetica,sans-Serif" font-size="10.00">iterator</text>
</a>
</g>
</g>
<!-- Node10&#45;&gt;Node11 -->
<g id="edge12" class="edge">
<title>Node10&#45;&gt;Node11</title>
<path fill="none" stroke="#63b8ff" d="M303.2,-54.75C300.26,-47.96 296.06,-38.3 292.35,-29.73"/>
<polygon fill="#63b8ff" stroke="#63b8ff" points="295.67,-28.61 288.48,-20.83 289.25,-31.4 295.67,-28.61"/>
</g>
<!-- Node12 -->
<g id="node12" class="node">
<title>Node12</title>
<g id="a_node12"><a xlink:title=" ">
<polygon fill="#e0e0e0" stroke="#999999" points="242,-19 194,-19 194,0 242,0 242,-19"/>
<text text-anchor="middle" x="218" y="-7" font-family="Helvetica,sans-Serif" font-size="10.00">stdint.h</text>
</a>
</g>
</g>
<!-- Node10&#45;&gt;Node12 -->
<g id="edge13" class="edge">
<title>Node10&#45;&gt;Node12</title>
<path fill="none" stroke="#63b8ff" d="M291.9,-54.51C278.4,-46.47 258.35,-34.53 242.54,-25.11"/>
<polygon fill="#63b8ff" stroke="#63b8ff" points="244.56,-22.24 234.18,-20.13 240.98,-28.26 244.56,-22.24"/>
</g>
<!-- Node10&#45;&gt;Node13 -->
<g id="edge14" class="edge">
<title>Node10&#45;&gt;Node13</title>
<path fill="none" stroke="#63b8ff" d="M333.73,-55.45C363.8,-46.4 412.81,-31.64 446.41,-21.52"/>
<polygon fill="#63b8ff" stroke="#63b8ff" points="447.15,-24.95 455.72,-18.72 445.13,-18.25 447.15,-24.95"/>
</g>
<!-- Node14 -->
<g id="node14" class="node">
<title>Node14</title>
<g id="a_node14"><a xlink:title=" ">
<polygon fill="#e0e0e0" stroke="#999999" points="376.5,-19 325.5,-19 325.5,0 376.5,0 376.5,-19"/>
<text text-anchor="middle" x="351" y="-7" font-family="Helvetica,sans-Serif" font-size="10.00">stdarg.h</text>
</a>
</g>
</g>
<!-- Node10&#45;&gt;Node14 -->
<g id="edge15" class="edge">
<title>Node10&#45;&gt;Node14</title>
<path fill="none" stroke="#63b8ff" d="M314.27,-54.75C320.28,-47.5 329.01,-36.98 336.46,-28.02"/>
<polygon fill="#63b8ff" stroke="#63b8ff" points="338.92,-30.54 342.61,-20.61 333.53,-26.07 338.92,-30.54"/>
</g>
<!-- Node15 -->
<g id="node15" class="node">
<title>Node15</title>
<g id="a_node15"><a xlink:title=" ">
<polygon fill="#e0e0e0" stroke="#999999" points="439.5,-19 394.5,-19 394.5,0 439.5,0 439.5,-19"/>
<text text-anchor="middle" x="417" y="-7" font-family="Helvetica,sans-Serif" font-size="10.00">stdio.h</text>
</a>
</g>
</g>
<!-- Node10&#45;&gt;Node15 -->
<g id="edge16" class="edge">
<title>Node10&#45;&gt;Node15</title>
<path fill="none" stroke="#63b8ff" d="M325.66,-54.51C342.83,-46.24 368.55,-33.84 388.33,-24.31"/>
<polygon fill="#63b8ff" stroke="#63b8ff" points="389.76,-27.51 397.25,-20.01 386.72,-21.2 389.76,-27.51"/>
</g>
<!-- Node17&#45;&gt;Node5 -->
<g id="edge20" class="edge">
<title>Node17&#45;&gt;Node5</title>
<path fill="none" stroke="#63b8ff" d="M187.8,-54.51C158.44,-45.76 113.6,-32.42 81.02,-22.71"/>
<polygon fill="#63b8ff" stroke="#63b8ff" points="82.08,-19.38 71.5,-19.88 80.08,-26.09 82.08,-19.38"/>
</g>
<!-- Node17&#45;&gt;Node12 -->
<g id="edge21" class="edge">
<title>Node17&#45;&gt;Node12</title>
<path fill="none" stroke="#63b8ff" d="M218,-54.75C218,-48.27 218,-39.16 218,-30.9"/>
<polygon fill="#63b8ff" stroke="#63b8ff" points="221.5,-30.96 218,-20.96 214.5,-30.96 221.5,-30.96"/>
</g>
</g>
</svg>
