<?xml version="1.0" encoding="UTF-8" standalone="no"?>
<!DOCTYPE svg PUBLIC "-//W3C//DTD SVG 1.1//EN"
 "http://www.w3.org/Graphics/SVG/1.1/DTD/svg11.dtd">
<!-- Generated by graphviz version 7.0.5 (20221223.1930)
 -->
<!-- Title: src/Attribute_Request_Callback.h Pages: 1 -->
<svg width="485pt" height="313pt"
 viewBox="0.00 0.00 485.00 313.00" xmlns="http://www.w3.org/2000/svg" xmlns:xlink="http://www.w3.org/1999/xlink">
<g id="graph0" class="graph" transform="scale(1 1) rotate(0) translate(4 309)">
<title>src/Attribute_Request_Callback.h</title>
<!-- Node1 -->
<g id="node1" class="node">
<title>Node1</title>
<g id="a_node1"><a xlink:title=" ">
<polygon fill="#999999" stroke="#666666" points="382.5,-305 271.5,-305 271.5,-275 382.5,-275 382.5,-305"/>
<text text-anchor="start" x="279.5" y="-293" font-family="Helvetica,sans-Serif" font-size="10.00">src/Attribute_Request</text>
<text text-anchor="middle" x="327" y="-282" font-family="Helvetica,sans-Serif" font-size="10.00">_Callback.h</text>
</a>
</g>
</g>
<!-- Node2 -->
<g id="node2" class="node">
<title>Node2</title>
<g id="a_node2"><a xlink:href="Callback__Watchdog_8h.html" target="_top" xlink:title=" ">
<polygon fill="white" stroke="#666666" points="329,-239 219,-239 219,-220 329,-220 329,-239"/>
<text text-anchor="middle" x="274" y="-227" font-family="Helvetica,sans-Serif" font-size="10.00">Callback_Watchdog.h</text>
</a>
</g>
</g>
<!-- Node1&#45;&gt;Node2 -->
<g id="edge1" class="edge">
<title>Node1&#45;&gt;Node2</title>
<path fill="none" stroke="#63b8ff" d="M313.9,-274.54C306.52,-266.39 297.25,-256.16 289.5,-247.61"/>
<polygon fill="#63b8ff" stroke="#63b8ff" points="292.18,-245.36 282.88,-240.3 287,-250.06 292.18,-245.36"/>
</g>
<!-- Node15 -->
<g id="node15" class="node">
<title>Node15</title>
<g id="a_node15"><a xlink:href="Constants_8h.html" target="_top" xlink:title=" ">
<polygon fill="white" stroke="#666666" points="435,-239 367,-239 367,-220 435,-220 435,-239"/>
<text text-anchor="middle" x="401" y="-227" font-family="Helvetica,sans-Serif" font-size="10.00">Constants.h</text>
</a>
</g>
</g>
<!-- Node1&#45;&gt;Node15 -->
<g id="edge17" class="edge">
<title>Node1&#45;&gt;Node15</title>
<path fill="none" stroke="#63b8ff" d="M345.29,-274.54C356.15,-265.96 369.92,-255.07 381.06,-246.26"/>
<polygon fill="#63b8ff" stroke="#63b8ff" points="383.16,-249.06 388.84,-240.11 378.82,-243.57 383.16,-249.06"/>
</g>
<!-- Node3 -->
<g id="node3" class="node">
<title>Node3</title>
<g id="a_node3"><a xlink:href="Callback_8h.html" target="_top" xlink:title=" ">
<polygon fill="white" stroke="#666666" points="206,-184 144,-184 144,-165 206,-165 206,-184"/>
<text text-anchor="middle" x="175" y="-172" font-family="Helvetica,sans-Serif" font-size="10.00">Callback.h</text>
</a>
</g>
</g>
<!-- Node2&#45;&gt;Node3 -->
<g id="edge2" class="edge">
<title>Node2&#45;&gt;Node3</title>
<path fill="none" stroke="#63b8ff" d="M257.21,-219.51C241.9,-211.31 219.03,-199.07 201.3,-189.58"/>
<polygon fill="#63b8ff" stroke="#63b8ff" points="203.35,-186.71 192.88,-185.07 200.04,-192.88 203.35,-186.71"/>
</g>
<!-- Node14 -->
<g id="node14" class="node">
<title>Node14</title>
<g id="a_node14"><a xlink:title=" ">
<polygon fill="#e0e0e0" stroke="#999999" points="314,-184 234,-184 234,-165 314,-165 314,-184"/>
<text text-anchor="middle" x="274" y="-172" font-family="Helvetica,sans-Serif" font-size="10.00">arduino&#45;timer.h</text>
</a>
</g>
</g>
<!-- Node2&#45;&gt;Node14 -->
<g id="edge16" class="edge">
<title>Node2&#45;&gt;Node14</title>
<path fill="none" stroke="#63b8ff" d="M274,-219.75C274,-213.27 274,-204.16 274,-195.9"/>
<polygon fill="#63b8ff" stroke="#63b8ff" points="277.5,-195.96 274,-185.96 270.5,-195.96 277.5,-195.96"/>
</g>
<!-- Node4 -->
<g id="node4" class="node">
<title>Node4</title>
<g id="a_node4"><a xlink:href="Configuration_8h.html" target="_top" xlink:title=" ">
<polygon fill="white" stroke="#666666" points="443,-19 363,-19 363,0 443,0 443,-19"/>
<text text-anchor="middle" x="403" y="-7" font-family="Helvetica,sans-Serif" font-size="10.00">Configuration.h</text>
</a>
</g>
</g>
<!-- Node3&#45;&gt;Node4 -->
<g id="edge3" class="edge">
<title>Node3&#45;&gt;Node4</title>
<path fill="none" stroke="#63b8ff" d="M205.72,-164.58C228.48,-157.14 259.64,-145.15 284,-129 327.55,-100.13 368.44,-53.61 389.06,-28.3"/>
<polygon fill="#63b8ff" stroke="#63b8ff" points="391.69,-30.61 395.21,-20.61 386.23,-26.23 391.69,-30.61"/>
</g>
<!-- Node5 -->
<g id="node5" class="node">
<title>Node5</title>
<g id="a_node5"><a xlink:href="Container_8h.html" target="_top" xlink:title=" ">
<polygon fill="white" stroke="#666666" points="275.5,-129 210.5,-129 210.5,-110 275.5,-110 275.5,-129"/>
<text text-anchor="middle" x="243" y="-117" font-family="Helvetica,sans-Serif" font-size="10.00">Container.h</text>
</a>
</g>
</g>
<!-- Node3&#45;&gt;Node5 -->
<g id="edge4" class="edge">
<title>Node3&#45;&gt;Node5</title>
<path fill="none" stroke="#63b8ff" d="M186.54,-164.51C196.46,-156.77 211.01,-145.43 222.86,-136.2"/>
<polygon fill="#63b8ff" stroke="#63b8ff" points="224.71,-139.2 230.44,-130.29 220.4,-133.68 224.71,-139.2"/>
</g>
<!-- Node7 -->
<g id="node7" class="node">
<title>Node7</title>
<g id="a_node7"><a xlink:title=" ">
<polygon fill="#e0e0e0" stroke="#999999" points="78,-19 0,-19 0,0 78,0 78,-19"/>
<text text-anchor="middle" x="39" y="-7" font-family="Helvetica,sans-Serif" font-size="10.00">ArduinoJson.h</text>
</a>
</g>
</g>
<!-- Node3&#45;&gt;Node7 -->
<g id="edge13" class="edge">
<title>Node3&#45;&gt;Node7</title>
<path fill="none" stroke="#63b8ff" d="M143.52,-169.66C117.44,-164.76 81.45,-153.72 61,-129 37.84,-101 35.98,-56.46 37.18,-30.7"/>
<polygon fill="#63b8ff" stroke="#63b8ff" points="40.65,-31.15 37.85,-20.94 33.67,-30.67 40.65,-31.15"/>
</g>
<!-- Node12 -->
<g id="node12" class="node">
<title>Node12</title>
<g id="a_node12"><a xlink:title=" ">
<polygon fill="#e0e0e0" stroke="#999999" points="129.5,-129 70.5,-129 70.5,-110 129.5,-110 129.5,-129"/>
<text text-anchor="middle" x="100" y="-117" font-family="Helvetica,sans-Serif" font-size="10.00">functional</text>
</a>
</g>
</g>
<!-- Node3&#45;&gt;Node12 -->
<g id="edge14" class="edge">
<title>Node3&#45;&gt;Node12</title>
<path fill="none" stroke="#63b8ff" d="M162.28,-164.51C151.22,-156.7 134.96,-145.21 121.83,-135.93"/>
<polygon fill="#63b8ff" stroke="#63b8ff" points="123.96,-133.14 113.77,-130.23 119.92,-138.86 123.96,-133.14"/>
</g>
<!-- Node13 -->
<g id="node13" class="node">
<title>Node13</title>
<g id="a_node13"><a xlink:title=" ">
<polygon fill="#e0e0e0" stroke="#999999" points="192,-129 148,-129 148,-110 192,-110 192,-129"/>
<text text-anchor="middle" x="170" y="-117" font-family="Helvetica,sans-Serif" font-size="10.00">vector</text>
</a>
</g>
</g>
<!-- Node3&#45;&gt;Node13 -->
<g id="edge15" class="edge">
<title>Node3&#45;&gt;Node13</title>
<path fill="none" stroke="#63b8ff" d="M174.17,-164.75C173.56,-158.27 172.7,-149.16 171.92,-140.9"/>
<polygon fill="#63b8ff" stroke="#63b8ff" points="175.41,-140.58 170.99,-130.95 168.44,-141.23 175.41,-140.58"/>
</g>
<!-- Node6 -->
<g id="node6" class="node">
<title>Node6</title>
<g id="a_node6"><a xlink:href="Helper_8h.html" target="_top" xlink:title=" ">
<polygon fill="white" stroke="#666666" points="269.5,-74 216.5,-74 216.5,-55 269.5,-55 269.5,-74"/>
<text text-anchor="middle" x="243" y="-62" font-family="Helvetica,sans-Serif" font-size="10.00">Helper.h</text>
</a>
</g>
</g>
<!-- Node5&#45;&gt;Node6 -->
<g id="edge5" class="edge">
<title>Node5&#45;&gt;Node6</title>
<path fill="none" stroke="#63b8ff" d="M243,-109.75C243,-103.27 243,-94.16 243,-85.9"/>
<polygon fill="#63b8ff" stroke="#63b8ff" points="246.5,-85.96 243,-75.96 239.5,-85.96 246.5,-85.96"/>
</g>
<!-- Node9 -->
<g id="node9" class="node">
<title>Node9</title>
<g id="a_node9"><a xlink:title=" ">
<polygon fill="#e0e0e0" stroke="#999999" points="147.5,-19 96.5,-19 96.5,0 147.5,0 147.5,-19"/>
<text text-anchor="middle" x="122" y="-7" font-family="Helvetica,sans-Serif" font-size="10.00">assert.h</text>
</a>
</g>
</g>
<!-- Node5&#45;&gt;Node9 -->
<g id="edge12" class="edge">
<title>Node5&#45;&gt;Node9</title>
<path fill="none" stroke="#63b8ff" d="M233.1,-109.66C212.89,-91.62 166.62,-50.32 140.62,-27.12"/>
<polygon fill="#63b8ff" stroke="#63b8ff" points="142.96,-24.52 133.17,-20.47 138.3,-29.74 142.96,-24.52"/>
</g>
<!-- Node6&#45;&gt;Node4 -->
<g id="edge6" class="edge">
<title>Node6&#45;&gt;Node4</title>
<path fill="none" stroke="#63b8ff" d="M269.78,-54.63C295.89,-45.98 335.84,-32.75 365.19,-23.03"/>
<polygon fill="#63b8ff" stroke="#63b8ff" points="366.04,-26.43 374.43,-19.96 363.83,-19.79 366.04,-26.43"/>
</g>
<!-- Node6&#45;&gt;Node7 -->
<g id="edge7" class="edge">
<title>Node6&#45;&gt;Node7</title>
<path fill="none" stroke="#63b8ff" d="M216.33,-56.57C182.86,-47.88 124.95,-32.83 84.45,-22.31"/>
<polygon fill="#63b8ff" stroke="#63b8ff" points="85.54,-18.97 74.98,-19.85 83.78,-25.75 85.54,-18.97"/>
</g>
<!-- Node8 -->
<g id="node8" class="node">
<title>Node8</title>
<g id="a_node8"><a xlink:title=" ">
<polygon fill="#e0e0e0" stroke="#999999" points="275.5,-19 228.5,-19 228.5,0 275.5,0 275.5,-19"/>
<text text-anchor="middle" x="252" y="-7" font-family="Helvetica,sans-Serif" font-size="10.00">iterator</text>
</a>
</g>
</g>
<!-- Node6&#45;&gt;Node8 -->
<g id="edge8" class="edge">
<title>Node6&#45;&gt;Node8</title>
<path fill="none" stroke="#63b8ff" d="M244.49,-54.75C245.6,-48.19 247.17,-38.95 248.59,-30.6"/>
<polygon fill="#63b8ff" stroke="#63b8ff" points="252,-31.38 250.23,-20.93 245.1,-30.21 252,-31.38"/>
</g>
<!-- Node6&#45;&gt;Node9 -->
<g id="edge9" class="edge">
<title>Node6&#45;&gt;Node9</title>
<path fill="none" stroke="#63b8ff" d="M222.47,-54.51C203.32,-46.12 174.5,-33.5 152.63,-23.92"/>
<polygon fill="#63b8ff" stroke="#63b8ff" points="154.17,-20.77 143.61,-19.97 151.36,-27.18 154.17,-20.77"/>
</g>
<!-- Node10 -->
<g id="node10" class="node">
<title>Node10</title>
<g id="a_node10"><a xlink:title=" ">
<polygon fill="#e0e0e0" stroke="#999999" points="344.5,-19 293.5,-19 293.5,0 344.5,0 344.5,-19"/>
<text text-anchor="middle" x="319" y="-7" font-family="Helvetica,sans-Serif" font-size="10.00">stdarg.h</text>
</a>
</g>
</g>
<!-- Node6&#45;&gt;Node10 -->
<g id="edge10" class="edge">
<title>Node6&#45;&gt;Node10</title>
<path fill="none" stroke="#63b8ff" d="M255.89,-54.51C267.1,-46.7 283.57,-35.21 296.88,-25.93"/>
<polygon fill="#63b8ff" stroke="#63b8ff" points="298.86,-28.81 305.06,-20.22 294.85,-23.07 298.86,-28.81"/>
</g>
<!-- Node11 -->
<g id="node11" class="node">
<title>Node11</title>
<g id="a_node11"><a xlink:title=" ">
<polygon fill="#e0e0e0" stroke="#999999" points="210.5,-19 165.5,-19 165.5,0 210.5,0 210.5,-19"/>
<text text-anchor="middle" x="188" y="-7" font-family="Helvetica,sans-Serif" font-size="10.00">stdio.h</text>
</a>
</g>
</g>
<!-- Node6&#45;&gt;Node11 -->
<g id="edge11" class="edge">
<title>Node6&#45;&gt;Node11</title>
<path fill="none" stroke="#63b8ff" d="M233.92,-54.75C226.16,-47.27 214.79,-36.32 205.3,-27.17"/>
<polygon fill="#63b8ff" stroke="#63b8ff" points="208,-24.91 198.37,-20.49 203.14,-29.95 208,-24.91"/>
</g>
<!-- Node15&#45;&gt;Node4 -->
<g id="edge18" class="edge">
<title>Node15&#45;&gt;Node4</title>
<path fill="none" stroke="#63b8ff" d="M401.08,-219.68C401.38,-187.57 402.4,-76.33 402.82,-30.49"/>
<polygon fill="#63b8ff" stroke="#63b8ff" points="406.31,-30.73 402.91,-20.7 399.31,-30.67 406.31,-30.73"/>
</g>
<!-- Node16 -->
<g id="node16" class="node">
<title>Node16</title>
<g id="a_node16"><a xlink:title=" ">
<polygon fill="#e0e0e0" stroke="#999999" points="477,-184 429,-184 429,-165 477,-165 477,-184"/>
<text text-anchor="middle" x="453" y="-172" font-family="Helvetica,sans-Serif" font-size="10.00">stdint.h</text>
</a>
</g>
</g>
<!-- Node15&#45;&gt;Node16 -->
<g id="edge19" class="edge">
<title>Node15&#45;&gt;Node16</title>
<path fill="none" stroke="#63b8ff" d="M409.59,-219.75C416.84,-212.35 427.45,-201.54 436.37,-192.45"/>
<polygon fill="#63b8ff" stroke="#63b8ff" points="438.66,-195.11 443.17,-185.52 433.66,-190.21 438.66,-195.11"/>
</g>
</g>
</svg>
