<?xml version="1.0" encoding="UTF-8" standalone="no"?>
<!DOCTYPE svg PUBLIC "-//W3C//DTD SVG 1.1//EN"
 "http://www.w3.org/Graphics/SVG/1.1/DTD/svg11.dtd">
<!-- Generated by graphviz version 7.0.5 (20221223.1930)
 -->
<!-- Title: src/Callback.h Pages: 1 -->
<svg width="1387pt" height="335pt"
 viewBox="0.00 0.00 1387.00 335.00" xmlns="http://www.w3.org/2000/svg" xmlns:xlink="http://www.w3.org/1999/xlink">
<g id="graph0" class="graph" transform="scale(1 1) rotate(0) translate(4 331)">
<title>src/Callback.h</title>
<!-- Node1 -->
<g id="node1" class="node">
<title>Node1</title>
<g id="a_node1"><a xlink:title=" ">
<polygon fill="#999999" stroke="#666666" points="1102.5,-327 1024.5,-327 1024.5,-308 1102.5,-308 1102.5,-327"/>
<text text-anchor="middle" x="1063.5" y="-315" font-family="Helvetica,sans-Serif" font-size="10.00">src/Callback.h</text>
</a>
</g>
</g>
<!-- Node2 -->
<g id="node2" class="node">
<title>Node2</title>
<g id="a_node2"><a xlink:href="Callback__Watchdog_8h.html" target="_top" xlink:title=" ">
<polygon fill="white" stroke="#666666" points="678,-266.5 551,-266.5 551,-247.5 678,-247.5 678,-266.5"/>
<text text-anchor="middle" x="614.5" y="-254.5" font-family="Helvetica,sans-Serif" font-size="10.00">src/Callback_Watchdog.h</text>
</a>
</g>
</g>
<!-- Node1&#45;&gt;Node2 -->
<g id="edge1" class="edge">
<title>Node1&#45;&gt;Node2</title>
<path fill="none" stroke="#63b8ff" d="M1012.75,-309.89C930.48,-299.17 768.17,-278.02 678.24,-266.3"/>
<polygon fill="#63b8ff" stroke="#63b8ff" points="1012.18,-313.34 1022.55,-311.16 1013.08,-306.4 1012.18,-313.34"/>
</g>
<!-- Node8 -->
<g id="node8" class="node">
<title>Node8</title>
<g id="a_node8"><a xlink:href="OTA__Update__Callback_8h.html" target="_top" xlink:title=" ">
<polygon fill="white" stroke="#666666" points="261.5,-145.5 121.5,-145.5 121.5,-126.5 261.5,-126.5 261.5,-145.5"/>
<text text-anchor="middle" x="191.5" y="-133.5" font-family="Helvetica,sans-Serif" font-size="10.00">src/OTA_Update_Callback.h</text>
</a>
</g>
</g>
<!-- Node1&#45;&gt;Node8 -->
<g id="edge30" class="edge">
<title>Node1&#45;&gt;Node8</title>
<path fill="none" stroke="#63b8ff" d="M1012.84,-316.9C918.73,-316.61 711.06,-311.09 541.5,-272 408.86,-241.42 259.52,-170.79 209.15,-145.89"/>
<polygon fill="#63b8ff" stroke="#63b8ff" points="1012.76,-320.4 1022.77,-316.91 1012.77,-313.4 1012.76,-320.4"/>
</g>
<!-- Node17 -->
<g id="node17" class="node">
<title>Node17</title>
<g id="a_node17"><a xlink:href="IAPI__Implementation_8h.html" target="_top" xlink:title=" ">
<polygon fill="white" stroke="#666666" points="1087.5,-145.5 955.5,-145.5 955.5,-126.5 1087.5,-126.5 1087.5,-145.5"/>
<text text-anchor="middle" x="1021.5" y="-133.5" font-family="Helvetica,sans-Serif" font-size="10.00">src/IAPI_Implementation.h</text>
</a>
</g>
</g>
<!-- Node1&#45;&gt;Node17 -->
<g id="edge19" class="edge">
<title>Node1&#45;&gt;Node17</title>
<path fill="none" stroke="#63b8ff" d="M1055.85,-297.27C1052.96,-289.51 1049.81,-280.41 1047.5,-272 1034.68,-225.27 1025.84,-167.76 1022.73,-145.95"/>
<polygon fill="#63b8ff" stroke="#63b8ff" points="1052.49,-298.29 1059.36,-306.35 1059.02,-295.76 1052.49,-298.29"/>
</g>
<!-- Node21 -->
<g id="node21" class="node">
<title>Node21</title>
<g id="a_node21"><a xlink:href="IMQTT__Client_8h.html" target="_top" xlink:title=" ">
<polygon fill="white" stroke="#666666" points="1245,-206 1144,-206 1144,-187 1245,-187 1245,-206"/>
<text text-anchor="middle" x="1194.5" y="-194" font-family="Helvetica,sans-Serif" font-size="10.00">src/IMQTT_Client.h</text>
</a>
</g>
</g>
<!-- Node1&#45;&gt;Node21 -->
<g id="edge28" class="edge">
<title>Node1&#45;&gt;Node21</title>
<path fill="none" stroke="#63b8ff" d="M1113.57,-305.85C1133.99,-299.21 1156.32,-288.63 1171.5,-272 1188.65,-253.2 1193.02,-221.84 1194.12,-206.5"/>
<polygon fill="#63b8ff" stroke="#63b8ff" points="1112.83,-302.42 1104.24,-308.64 1114.83,-309.13 1112.83,-302.42"/>
</g>
<!-- Node22 -->
<g id="node22" class="node">
<title>Node22</title>
<g id="a_node22"><a xlink:href="RPC__Callback_8h.html" target="_top" xlink:title=" ">
<polygon fill="white" stroke="#666666" points="1325.5,-266.5 1221.5,-266.5 1221.5,-247.5 1325.5,-247.5 1325.5,-266.5"/>
<text text-anchor="middle" x="1273.5" y="-254.5" font-family="Helvetica,sans-Serif" font-size="10.00">src/RPC_Callback.h</text>
</a>
</g>
</g>
<!-- Node1&#45;&gt;Node22 -->
<g id="edge31" class="edge">
<title>Node1&#45;&gt;Node22</title>
<path fill="none" stroke="#63b8ff" d="M1106.4,-304.55C1146.4,-293.41 1205.18,-277.03 1241.31,-266.97"/>
<polygon fill="#63b8ff" stroke="#63b8ff" points="1105.55,-301.15 1096.85,-307.21 1107.42,-307.9 1105.55,-301.15"/>
</g>
<!-- Node23 -->
<g id="node23" class="node">
<title>Node23</title>
<g id="a_node23"><a xlink:href="Shared__Attribute__Callback_8h.html" target="_top" xlink:title=" ">
<polygon fill="white" stroke="#666666" points="1162.5,-272 1056.5,-272 1056.5,-242 1162.5,-242 1162.5,-272"/>
<text text-anchor="start" x="1064.5" y="-260" font-family="Helvetica,sans-Serif" font-size="10.00">src/Shared_Attribute</text>
<text text-anchor="middle" x="1109.5" y="-249" font-family="Helvetica,sans-Serif" font-size="10.00">_Callback.h</text>
</a>
</g>
</g>
<!-- Node1&#45;&gt;Node23 -->
<g id="edge33" class="edge">
<title>Node1&#45;&gt;Node23</title>
<path fill="none" stroke="#63b8ff" d="M1077.22,-299.05C1083.98,-290.45 1092.03,-280.21 1098.4,-272.11"/>
<polygon fill="#63b8ff" stroke="#63b8ff" points="1074.65,-296.65 1071.22,-306.68 1080.16,-300.98 1074.65,-296.65"/>
</g>
<!-- Node3 -->
<g id="node3" class="node">
<title>Node3</title>
<g id="a_node3"><a xlink:href="OTA__Handler_8h.html" target="_top" xlink:title=" ">
<polygon fill="white" stroke="#666666" points="269.5,-79.5 169.5,-79.5 169.5,-60.5 269.5,-60.5 269.5,-79.5"/>
<text text-anchor="middle" x="219.5" y="-67.5" font-family="Helvetica,sans-Serif" font-size="10.00">src/OTA_Handler.h</text>
</a>
</g>
</g>
<!-- Node2&#45;&gt;Node3 -->
<g id="edge2" class="edge">
<title>Node2&#45;&gt;Node3</title>
<path fill="none" stroke="#63b8ff" d="M560.69,-244.49C497.3,-229.4 390.26,-199.06 308.5,-151 290.77,-140.58 247.22,-98.42 228.4,-79.85"/>
<polygon fill="#63b8ff" stroke="#63b8ff" points="559.62,-247.83 570.15,-246.7 561.21,-241.02 559.62,-247.83"/>
</g>
<!-- Node5 -->
<g id="node5" class="node">
<title>Node5</title>
<g id="a_node5"><a xlink:href="Timeoutable__Request_8h.html" target="_top" xlink:title=" ">
<polygon fill="white" stroke="#666666" points="682,-206 547,-206 547,-187 682,-187 682,-206"/>
<text text-anchor="middle" x="614.5" y="-194" font-family="Helvetica,sans-Serif" font-size="10.00">src/Timeoutable_Request.h</text>
</a>
</g>
</g>
<!-- Node2&#45;&gt;Node5 -->
<g id="edge4" class="edge">
<title>Node2&#45;&gt;Node5</title>
<path fill="none" stroke="#63b8ff" d="M614.5,-236.16C614.5,-225.95 614.5,-214.04 614.5,-206.17"/>
<polygon fill="#63b8ff" stroke="#63b8ff" points="611,-235.85 614.5,-245.85 618,-235.85 611,-235.85"/>
</g>
<!-- Node4 -->
<g id="node4" class="node">
<title>Node4</title>
<g id="a_node4"><a xlink:href="OTA__Firmware__Update_8h.html" target="_top" xlink:title=" ">
<polygon fill="white" stroke="#666666" points="1022,-19 879,-19 879,0 1022,0 1022,-19"/>
<text text-anchor="middle" x="950.5" y="-7" font-family="Helvetica,sans-Serif" font-size="10.00">src/OTA_Firmware_Update.h</text>
</a>
</g>
</g>
<!-- Node3&#45;&gt;Node4 -->
<g id="edge3" class="edge">
<title>Node3&#45;&gt;Node4</title>
<path fill="none" stroke="#63b8ff" d="M264.12,-57.58C268.95,-56.6 273.82,-55.71 278.5,-55 495.57,-22.29 755.69,-13.62 878.96,-11.33"/>
<polygon fill="#63b8ff" stroke="#63b8ff" points="263.5,-54.14 254.49,-59.7 265,-60.97 263.5,-54.14"/>
</g>
<!-- Node6 -->
<g id="node6" class="node">
<title>Node6</title>
<g id="a_node6"><a xlink:href="Attribute__Request_8h.html" target="_top" xlink:title=" ">
<polygon fill="white" stroke="#666666" points="966,-79.5 847,-79.5 847,-60.5 966,-60.5 966,-79.5"/>
<text text-anchor="middle" x="906.5" y="-67.5" font-family="Helvetica,sans-Serif" font-size="10.00">src/Attribute_Request.h</text>
</a>
</g>
</g>
<!-- Node5&#45;&gt;Node6 -->
<g id="edge5" class="edge">
<title>Node5&#45;&gt;Node6</title>
<path fill="none" stroke="#63b8ff" d="M678.15,-184.15C709.16,-177.14 746.38,-166.46 777.5,-151 797.08,-141.27 798.22,-133.01 816.5,-121 840.7,-105.1 870.31,-89.3 888.8,-79.84"/>
<polygon fill="#63b8ff" stroke="#63b8ff" points="677.54,-180.71 668.51,-186.25 679.02,-187.55 677.54,-180.71"/>
</g>
<!-- Node7 -->
<g id="node7" class="node">
<title>Node7</title>
<g id="a_node7"><a xlink:href="Attribute__Request__Callback_8h.html" target="_top" xlink:title=" ">
<polygon fill="white" stroke="#666666" points="937,-151 826,-151 826,-121 937,-121 937,-151"/>
<text text-anchor="start" x="834" y="-139" font-family="Helvetica,sans-Serif" font-size="10.00">src/Attribute_Request</text>
<text text-anchor="middle" x="881.5" y="-128" font-family="Helvetica,sans-Serif" font-size="10.00">_Callback.h</text>
</a>
</g>
</g>
<!-- Node5&#45;&gt;Node7 -->
<g id="edge7" class="edge">
<title>Node5&#45;&gt;Node7</title>
<path fill="none" stroke="#63b8ff" d="M666.52,-184.1C712.34,-174.06 778.9,-159.48 825.8,-149.2"/>
<polygon fill="#63b8ff" stroke="#63b8ff" points="665.84,-180.67 656.82,-186.23 667.34,-187.51 665.84,-180.67"/>
</g>
<!-- Node5&#45;&gt;Node8 -->
<g id="edge9" class="edge">
<title>Node5&#45;&gt;Node8</title>
<path fill="none" stroke="#63b8ff" d="M538.76,-185.03C458.36,-173.91 332.62,-156.52 256.55,-146"/>
<polygon fill="#63b8ff" stroke="#63b8ff" points="537.91,-188.44 548.3,-186.34 538.87,-181.51 537.91,-188.44"/>
</g>
<!-- Node10 -->
<g id="node10" class="node">
<title>Node10</title>
<g id="a_node10"><a xlink:href="Provision__Callback_8h.html" target="_top" xlink:title=" ">
<polygon fill="white" stroke="#666666" points="441.5,-145.5 317.5,-145.5 317.5,-126.5 441.5,-126.5 441.5,-145.5"/>
<text text-anchor="middle" x="379.5" y="-133.5" font-family="Helvetica,sans-Serif" font-size="10.00">src/Provision_Callback.h</text>
</a>
</g>
</g>
<!-- Node5&#45;&gt;Node10 -->
<g id="edge12" class="edge">
<title>Node5&#45;&gt;Node10</title>
<path fill="none" stroke="#63b8ff" d="M567.66,-183.84C522.84,-172.68 456.22,-156.1 415.44,-145.95"/>
<polygon fill="#63b8ff" stroke="#63b8ff" points="566.53,-187.17 577.08,-186.19 568.23,-180.37 566.53,-187.17"/>
</g>
<!-- Node13 -->
<g id="node13" class="node">
<title>Node13</title>
<g id="a_node13"><a xlink:href="RPC__Request__Callback_8h.html" target="_top" xlink:title=" ">
<polygon fill="white" stroke="#666666" points="769,-145.5 624,-145.5 624,-126.5 769,-126.5 769,-145.5"/>
<text text-anchor="middle" x="696.5" y="-133.5" font-family="Helvetica,sans-Serif" font-size="10.00">src/RPC_Request_Callback.h</text>
</a>
</g>
</g>
<!-- Node5&#45;&gt;Node13 -->
<g id="edge15" class="edge">
<title>Node5&#45;&gt;Node13</title>
<path fill="none" stroke="#63b8ff" d="M636.17,-180.04C651.4,-169.17 671.24,-155.02 683.93,-145.97"/>
<polygon fill="#63b8ff" stroke="#63b8ff" points="634.29,-177.08 628.19,-185.74 638.36,-182.78 634.29,-177.08"/>
</g>
<!-- Node16 -->
<g id="node16" class="node">
<title>Node16</title>
<g id="a_node16"><a xlink:href="Timeoutable__Request_8cpp.html" target="_top" xlink:title=" ">
<polygon fill="white" stroke="#666666" points="605.5,-145.5 459.5,-145.5 459.5,-126.5 605.5,-126.5 605.5,-145.5"/>
<text text-anchor="middle" x="532.5" y="-133.5" font-family="Helvetica,sans-Serif" font-size="10.00">src/Timeoutable_Request.cpp</text>
</a>
</g>
</g>
<!-- Node5&#45;&gt;Node16 -->
<g id="edge18" class="edge">
<title>Node5&#45;&gt;Node16</title>
<path fill="none" stroke="#63b8ff" d="M592.83,-180.04C577.6,-169.17 557.76,-155.02 545.07,-145.97"/>
<polygon fill="#63b8ff" stroke="#63b8ff" points="590.64,-182.78 600.81,-185.74 594.71,-177.08 590.64,-182.78"/>
</g>
<!-- Node6&#45;&gt;Node4 -->
<g id="edge6" class="edge">
<title>Node6&#45;&gt;Node4</title>
<path fill="none" stroke="#63b8ff" d="M919.68,-51.48C927.7,-40.81 937.6,-27.65 943.98,-19.17"/>
<polygon fill="#63b8ff" stroke="#63b8ff" points="917.12,-49.06 913.9,-59.16 922.71,-53.27 917.12,-49.06"/>
</g>
<!-- Node7&#45;&gt;Node6 -->
<g id="edge8" class="edge">
<title>Node7&#45;&gt;Node6</title>
<path fill="none" stroke="#63b8ff" d="M891.16,-110.27C895.35,-99.55 899.98,-87.7 903.05,-79.84"/>
<polygon fill="#63b8ff" stroke="#63b8ff" points="887.98,-108.8 887.6,-119.39 894.5,-111.35 887.98,-108.8"/>
</g>
<!-- Node8&#45;&gt;Node3 -->
<g id="edge10" class="edge">
<title>Node8&#45;&gt;Node3</title>
<path fill="none" stroke="#63b8ff" d="M199.9,-115.8C205.13,-103.85 211.6,-89.06 215.64,-79.82"/>
<polygon fill="#63b8ff" stroke="#63b8ff" points="196.8,-114.15 196,-124.71 203.21,-116.96 196.8,-114.15"/>
</g>
<!-- Node9 -->
<g id="node9" class="node">
<title>Node9</title>
<g id="a_node9"><a xlink:href="OTA__Update__Callback_8cpp.html" target="_top" xlink:title=" ">
<polygon fill="white" stroke="#666666" points="151,-79.5 0,-79.5 0,-60.5 151,-60.5 151,-79.5"/>
<text text-anchor="middle" x="75.5" y="-67.5" font-family="Helvetica,sans-Serif" font-size="10.00">src/OTA_Update_Callback.cpp</text>
</a>
</g>
</g>
<!-- Node8&#45;&gt;Node9 -->
<g id="edge11" class="edge">
<title>Node8&#45;&gt;Node9</title>
<path fill="none" stroke="#63b8ff" d="M165.39,-120.59C142.7,-108.08 110.56,-90.34 91.49,-79.82"/>
<polygon fill="#63b8ff" stroke="#63b8ff" points="163.6,-123.6 174.05,-125.37 166.98,-117.47 163.6,-123.6"/>
</g>
<!-- Node11 -->
<g id="node11" class="node">
<title>Node11</title>
<g id="a_node11"><a xlink:href="Provision_8h.html" target="_top" xlink:title=" ">
<polygon fill="white" stroke="#666666" points="694,-79.5 613,-79.5 613,-60.5 694,-60.5 694,-79.5"/>
<text text-anchor="middle" x="653.5" y="-67.5" font-family="Helvetica,sans-Serif" font-size="10.00">src/Provision.h</text>
</a>
</g>
</g>
<!-- Node10&#45;&gt;Node11 -->
<g id="edge13" class="edge">
<title>Node10&#45;&gt;Node11</title>
<path fill="none" stroke="#63b8ff" d="M434.12,-123.66C479.59,-114.02 545.97,-99.46 603.5,-85 609.62,-83.46 616.13,-81.72 622.36,-80"/>
<polygon fill="#63b8ff" stroke="#63b8ff" points="433.56,-120.2 424.5,-125.69 435.01,-127.05 433.56,-120.2"/>
</g>
<!-- Node12 -->
<g id="node12" class="node">
<title>Node12</title>
<g id="a_node12"><a xlink:href="Provision__Callback_8cpp.html" target="_top" xlink:title=" ">
<polygon fill="white" stroke="#666666" points="421.5,-79.5 287.5,-79.5 287.5,-60.5 421.5,-60.5 421.5,-79.5"/>
<text text-anchor="middle" x="354.5" y="-67.5" font-family="Helvetica,sans-Serif" font-size="10.00">src/Provision_Callback.cpp</text>
</a>
</g>
</g>
<!-- Node10&#45;&gt;Node12 -->
<g id="edge14" class="edge">
<title>Node10&#45;&gt;Node12</title>
<path fill="none" stroke="#63b8ff" d="M371.85,-115.43C367.21,-103.55 361.52,-88.96 357.95,-79.82"/>
<polygon fill="#63b8ff" stroke="#63b8ff" points="368.57,-116.65 375.47,-124.69 375.09,-114.1 368.57,-116.65"/>
</g>
<!-- Node14 -->
<g id="node14" class="node">
<title>Node14</title>
<g id="a_node14"><a xlink:href="Client__Side__RPC_8h.html" target="_top" xlink:title=" ">
<polygon fill="white" stroke="#666666" points="828.5,-79.5 712.5,-79.5 712.5,-60.5 828.5,-60.5 828.5,-79.5"/>
<text text-anchor="middle" x="770.5" y="-67.5" font-family="Helvetica,sans-Serif" font-size="10.00">src/Client_Side_RPC.h</text>
</a>
</g>
</g>
<!-- Node13&#45;&gt;Node14 -->
<g id="edge16" class="edge">
<title>Node13&#45;&gt;Node14</title>
<path fill="none" stroke="#63b8ff" d="M715.36,-118.69C729.65,-106.33 748.74,-89.82 760.3,-79.82"/>
<polygon fill="#63b8ff" stroke="#63b8ff" points="713.21,-115.92 707.93,-125.11 717.79,-121.22 713.21,-115.92"/>
</g>
<!-- Node15 -->
<g id="node15" class="node">
<title>Node15</title>
<g id="a_node15"><a xlink:href="RPC__Request__Callback_8cpp.html" target="_top" xlink:title=" ">
<polygon fill="white" stroke="#666666" points="595,-79.5 440,-79.5 440,-60.5 595,-60.5 595,-79.5"/>
<text text-anchor="middle" x="517.5" y="-67.5" font-family="Helvetica,sans-Serif" font-size="10.00">src/RPC_Request_Callback.cpp</text>
</a>
</g>
</g>
<!-- Node13&#45;&gt;Node15 -->
<g id="edge17" class="edge">
<title>Node13&#45;&gt;Node15</title>
<path fill="none" stroke="#63b8ff" d="M660.9,-122.27C625.87,-109.75 573.27,-90.94 542.47,-79.93"/>
<polygon fill="#63b8ff" stroke="#63b8ff" points="659.59,-125.52 670.19,-125.59 661.95,-118.93 659.59,-125.52"/>
</g>
<!-- Node17&#45;&gt;Node4 -->
<g id="edge22" class="edge">
<title>Node17&#45;&gt;Node4</title>
<path fill="none" stroke="#63b8ff" d="M1010.76,-116.17C995.21,-88.9 967.03,-39.48 955.56,-19.37"/>
<polygon fill="#63b8ff" stroke="#63b8ff" points="1007.65,-117.78 1015.64,-124.73 1013.73,-114.31 1007.65,-117.78"/>
</g>
<!-- Node17&#45;&gt;Node6 -->
<g id="edge20" class="edge">
<title>Node17&#45;&gt;Node6</title>
<path fill="none" stroke="#63b8ff" d="M995.62,-120.59C973.12,-108.08 941.26,-90.34 922.35,-79.82"/>
<polygon fill="#63b8ff" stroke="#63b8ff" points="993.75,-123.56 1004.19,-125.37 997.15,-117.44 993.75,-123.56"/>
</g>
<!-- Node17&#45;&gt;Node11 -->
<g id="edge23" class="edge">
<title>Node17&#45;&gt;Node11</title>
<path fill="none" stroke="#63b8ff" d="M962.89,-123.99C957.02,-122.95 951.15,-121.94 945.5,-121 838.24,-103.15 809.84,-107.7 703.5,-85 696.89,-83.59 689.86,-81.8 683.22,-79.98"/>
<polygon fill="#63b8ff" stroke="#63b8ff" points="962.16,-127.42 972.62,-125.74 963.4,-120.53 962.16,-127.42"/>
</g>
<!-- Node17&#45;&gt;Node14 -->
<g id="edge21" class="edge">
<title>Node17&#45;&gt;Node14</title>
<path fill="none" stroke="#63b8ff" d="M975.39,-123.24C926.31,-110.73 849.75,-91.21 805.43,-79.91"/>
<polygon fill="#63b8ff" stroke="#63b8ff" points="974.31,-126.58 984.87,-125.66 976.04,-119.8 974.31,-126.58"/>
</g>
<!-- Node18 -->
<g id="node18" class="node">
<title>Node18</title>
<g id="a_node18"><a xlink:href="Server__Side__RPC_8h.html" target="_top" xlink:title=" ">
<polygon fill="white" stroke="#666666" points="1379,-79.5 1260,-79.5 1260,-60.5 1379,-60.5 1379,-79.5"/>
<text text-anchor="middle" x="1319.5" y="-67.5" font-family="Helvetica,sans-Serif" font-size="10.00">src/Server_Side_RPC.h</text>
</a>
</g>
</g>
<!-- Node17&#45;&gt;Node18 -->
<g id="edge24" class="edge">
<title>Node17&#45;&gt;Node18</title>
<path fill="none" stroke="#63b8ff" d="M1074.41,-123.64C1132.59,-111.14 1224.86,-91.33 1278.03,-79.91"/>
<polygon fill="#63b8ff" stroke="#63b8ff" points="1073.77,-120.19 1064.73,-125.72 1075.24,-127.04 1073.77,-120.19"/>
</g>
<!-- Node19 -->
<g id="node19" class="node">
<title>Node19</title>
<g id="a_node19"><a xlink:href="Shared__Attribute__Update_8h.html" target="_top" xlink:title=" ">
<polygon fill="white" stroke="#666666" points="1128.5,-85 1022.5,-85 1022.5,-55 1128.5,-55 1128.5,-85"/>
<text text-anchor="start" x="1030.5" y="-73" font-family="Helvetica,sans-Serif" font-size="10.00">src/Shared_Attribute</text>
<text text-anchor="middle" x="1075.5" y="-62" font-family="Helvetica,sans-Serif" font-size="10.00">_Update.h</text>
</a>
</g>
</g>
<!-- Node17&#45;&gt;Node19 -->
<g id="edge25" class="edge">
<title>Node17&#45;&gt;Node19</title>
<path fill="none" stroke="#63b8ff" d="M1036.41,-117.32C1044.94,-107.22 1055.5,-94.7 1063.49,-85.23"/>
<polygon fill="#63b8ff" stroke="#63b8ff" points="1033.76,-115.04 1029.98,-124.94 1039.11,-119.56 1033.76,-115.04"/>
</g>
<!-- Node20 -->
<g id="node20" class="node">
<title>Node20</title>
<g id="a_node20"><a xlink:href="ThingsBoard_8h.html" target="_top" xlink:title=" ">
<polygon fill="white" stroke="#666666" points="1242,-79.5 1147,-79.5 1147,-60.5 1242,-60.5 1242,-79.5"/>
<text text-anchor="middle" x="1194.5" y="-67.5" font-family="Helvetica,sans-Serif" font-size="10.00">src/ThingsBoard.h</text>
</a>
</g>
</g>
<!-- Node17&#45;&gt;Node20 -->
<g id="edge27" class="edge">
<title>Node17&#45;&gt;Node20</title>
<path fill="none" stroke="#63b8ff" d="M1056.34,-122.11C1090.2,-109.58 1140.72,-90.89 1170.37,-79.93"/>
<polygon fill="#63b8ff" stroke="#63b8ff" points="1055.14,-118.82 1046.97,-125.58 1057.57,-125.39 1055.14,-118.82"/>
</g>
<!-- Node19&#45;&gt;Node4 -->
<g id="edge26" class="edge">
<title>Node19&#45;&gt;Node4</title>
<path fill="none" stroke="#63b8ff" d="M1034.23,-49.69C1012.35,-39.44 986.53,-27.36 969.4,-19.35"/>
<polygon fill="#63b8ff" stroke="#63b8ff" points="1032.69,-52.83 1043.23,-53.9 1035.66,-46.49 1032.69,-52.83"/>
</g>
<!-- Node21&#45;&gt;Node20 -->
<g id="edge29" class="edge">
<title>Node21&#45;&gt;Node20</title>
<path fill="none" stroke="#63b8ff" d="M1194.5,-175.2C1194.5,-147.65 1194.5,-99.63 1194.5,-79.87"/>
<polygon fill="#63b8ff" stroke="#63b8ff" points="1191,-175.03 1194.5,-185.03 1198,-175.03 1191,-175.03"/>
</g>
<!-- Node22&#45;&gt;Node18 -->
<g id="edge32" class="edge">
<title>Node22&#45;&gt;Node18</title>
<path fill="none" stroke="#63b8ff" d="M1278.49,-235.94C1288.42,-196 1310.31,-107.97 1317.3,-79.83"/>
<polygon fill="#63b8ff" stroke="#63b8ff" points="1275.1,-235.06 1276.08,-245.61 1281.89,-236.75 1275.1,-235.06"/>
</g>
<!-- Node23&#45;&gt;Node19 -->
<g id="edge34" class="edge">
<title>Node23&#45;&gt;Node19</title>
<path fill="none" stroke="#63b8ff" d="M1109.31,-230.25C1108.58,-202.79 1105.88,-158.22 1096.5,-121 1093.37,-108.58 1087.64,-95.25 1082.95,-85.47"/>
<polygon fill="#63b8ff" stroke="#63b8ff" points="1105.81,-230.12 1109.5,-240.06 1112.81,-229.99 1105.81,-230.12"/>
</g>
</g>
</svg>
