<?xml version="1.0" encoding="UTF-8" standalone="no"?>
<!DOCTYPE svg PUBLIC "-//W3C//DTD SVG 1.1//EN"
 "http://www.w3.org/Graphics/SVG/1.1/DTD/svg11.dtd">
<!-- Generated by graphviz version 7.0.5 (20221223.1930)
 -->
<!-- Title: src/Callback_Watchdog.h Pages: 1 -->
<!--zoomable 258 -->
<svg id="main" version="1.1" xmlns="http://www.w3.org/2000/svg" xmlns:xlink="http://www.w3.org/1999/xlink" xml:space="preserve" onload="init(evt)">
<style type="text/css"><![CDATA[
.edge:hover path { stroke: red; }
.edge:hover polygon { stroke: red; fill: red; }
]]></style>
<script type="text/javascript"><![CDATA[
var edges = document.getElementsByTagName('g');
if (edges && edges.length) {
  for (var i=0;i<edges.length;i++) {
    if (edges[i].id.substr(0,4)=='edge') {
      edges[i].setAttribute('class','edge');
    }
  }
}
]]></script>
        <defs>
                <circle id="rim" cx="0" cy="0" r="7"/>
                <circle id="rim2" cx="0" cy="0" r="3.5"/>
                <g id="zoomPlus">
                        <use xlink:href="#rim" fill="#404040">
                                <set attributeName="fill" to="#808080" begin="zoomplus.mouseover" end="zoomplus.mouseout"/>
                        </use>
                        <path d="M-4,0h8M0,-4v8" fill="none" stroke="white" stroke-width="1.5" pointer-events="none"/>
                </g>
                <g id="zoomMin">
                        <use xlink:href="#rim" fill="#404040">
                                <set attributeName="fill" to="#808080" begin="zoomminus.mouseover" end="zoomminus.mouseout"/>
                        </use>
                        <path d="M-4,0h8" fill="none" stroke="white" stroke-width="1.5" pointer-events="none"/>
                </g>
                <g id="dirArrow">
                        <path fill="none" stroke="white" stroke-width="1.5" d="M0,-3.0v7 M-2.5,-0.5L0,-3.0L2.5,-0.5"/>
                </g>
               <g id="resetDef">
                       <use xlink:href="#rim2" fill="#404040">
                               <set attributeName="fill" to="#808080" begin="reset.mouseover" end="reset.mouseout"/>
                       </use>
               </g>
        </defs>

<script type="text/javascript">
var viewWidth = 974;
var viewHeight = 258;
var sectionId = 'dynsection-1';
</script>
<script xlink:href="svgpan.js"/>
<svg id="graph" class="graph">
<g id="viewport">
<title>src/Callback_Watchdog.h</title>
<!-- Node1 -->
<g id="node1" class="node">
<title>Node1</title>
<g id="a_node1"><a xlink:title=" ">
<polygon fill="#999999" stroke="#666666" points="276.5,-250 149.5,-250 149.5,-231 276.5,-231 276.5,-250"/>
<text text-anchor="middle" x="213" y="-238" font-family="Helvetica,sans-Serif" font-size="10.00">src/Callback_Watchdog.h</text>
</a>
</g>
</g>
<!-- Node2 -->
<g id="node2" class="node">
<title>Node2</title>
<g id="a_node2"><a xlink:href="OTA__Handler_8h.html" target="_top" xlink:title=" ">
<polygon fill="white" stroke="#666666" points="100,-74 0,-74 0,-55 100,-55 100,-74"/>
<text text-anchor="middle" x="50" y="-62" font-family="Helvetica,sans-Serif" font-size="10.00">src/OTA_Handler.h</text>
</a>
</g>
</g>
<!-- Node1&#45;&gt;Node2 -->
<g id="edge1" class="edge">
<title>Node1&#45;&gt;Node2</title>
<path fill="none" stroke="#63b8ff" d="M195.81,-222.68C175.99,-203.13 142.59,-169.76 115,-140 93.53,-116.84 69.34,-88.49 57.44,-74.37"/>
<polygon fill="#63b8ff" stroke="#63b8ff" points="193.23,-225.05 202.82,-229.56 198.14,-220.06 193.23,-225.05"/>
</g>
<!-- Node4 -->
<g id="node4" class="node">
<title>Node4</title>
<g id="a_node4"><a xlink:href="Timeoutable__Request_8h.html" target="_top" xlink:title=" ">
<polygon fill="white" stroke="#666666" points="470.5,-195 335.5,-195 335.5,-176 470.5,-176 470.5,-195"/>
<text text-anchor="middle" x="403" y="-183" font-family="Helvetica,sans-Serif" font-size="10.00">src/Timeoutable_Request.h</text>
</a>
</g>
</g>
<!-- Node1&#45;&gt;Node4 -->
<g id="edge3" class="edge">
<title>Node1&#45;&gt;Node4</title>
<path fill="none" stroke="#63b8ff" d="M256.05,-227.49C290.95,-217.76 339.36,-204.25 370.93,-195.45"/>
<polygon fill="#63b8ff" stroke="#63b8ff" points="255.38,-224.04 246.69,-230.1 257.26,-230.79 255.38,-224.04"/>
</g>
<!-- Node3 -->
<g id="node3" class="node">
<title>Node3</title>
<g id="a_node3"><a xlink:href="OTA__Firmware__Update_8h.html" target="_top" xlink:title=" ">
<polygon fill="white" stroke="#666666" points="269.5,-19 126.5,-19 126.5,0 269.5,0 269.5,-19"/>
<text text-anchor="middle" x="198" y="-7" font-family="Helvetica,sans-Serif" font-size="10.00">src/OTA_Firmware_Update.h</text>
</a>
</g>
</g>
<!-- Node2&#45;&gt;Node3 -->
<g id="edge2" class="edge">
<title>Node2&#45;&gt;Node3</title>
<path fill="none" stroke="#63b8ff" d="M85.71,-50.71C112.79,-41.01 149.33,-27.93 173.26,-19.36"/>
<polygon fill="#63b8ff" stroke="#63b8ff" points="84.77,-47.33 76.53,-54 87.13,-53.92 84.77,-47.33"/>
</g>
<!-- Node5 -->
<g id="node5" class="node">
<title>Node5</title>
<g id="a_node5"><a xlink:href="Attribute__Request_8h.html" target="_top" xlink:title=" ">
<polygon fill="white" stroke="#666666" points="406.5,-74 287.5,-74 287.5,-55 406.5,-55 406.5,-74"/>
<text text-anchor="middle" x="347" y="-62" font-family="Helvetica,sans-Serif" font-size="10.00">src/Attribute_Request.h</text>
</a>
</g>
</g>
<!-- Node4&#45;&gt;Node5 -->
<g id="edge4" class="edge">
<title>Node4&#45;&gt;Node5</title>
<path fill="none" stroke="#63b8ff" d="M370.06,-170.3C357.67,-163.14 344.93,-153.14 338,-140 326.7,-118.57 336.57,-88.95 342.81,-74.36"/>
<polygon fill="#63b8ff" stroke="#63b8ff" points="368.42,-173.39 378.9,-174.94 371.67,-167.19 368.42,-173.39"/>
</g>
<!-- Node6 -->
<g id="node6" class="node">
<title>Node6</title>
<g id="a_node6"><a xlink:href="Attribute__Request__Callback_8h.html" target="_top" xlink:title=" ">
<polygon fill="white" stroke="#666666" points="458.5,-140 347.5,-140 347.5,-110 458.5,-110 458.5,-140"/>
<text text-anchor="start" x="355.5" y="-128" font-family="Helvetica,sans-Serif" font-size="10.00">src/Attribute_Request</text>
<text text-anchor="middle" x="403" y="-117" font-family="Helvetica,sans-Serif" font-size="10.00">_Callback.h</text>
</a>
</g>
</g>
<!-- Node4&#45;&gt;Node6 -->
<g id="edge6" class="edge">
<title>Node4&#45;&gt;Node6</title>
<path fill="none" stroke="#63b8ff" d="M403,-164.51C403,-156.49 403,-147.43 403,-140.11"/>
<polygon fill="#63b8ff" stroke="#63b8ff" points="399.5,-164.35 403,-174.35 406.5,-164.35 399.5,-164.35"/>
</g>
<!-- Node7 -->
<g id="node7" class="node">
<title>Node7</title>
<g id="a_node7"><a xlink:href="OTA__Update__Callback_8h.html" target="_top" xlink:title=" ">
<polygon fill="white" stroke="#666666" points="264,-134.5 124,-134.5 124,-115.5 264,-115.5 264,-134.5"/>
<text text-anchor="middle" x="194" y="-122.5" font-family="Helvetica,sans-Serif" font-size="10.00">src/OTA_Update_Callback.h</text>
</a>
</g>
</g>
<!-- Node4&#45;&gt;Node7 -->
<g id="edge8" class="edge">
<title>Node4&#45;&gt;Node7</title>
<path fill="none" stroke="#63b8ff" d="M360.31,-172.55C320.49,-161.41 262,-145.03 226.04,-134.97"/>
<polygon fill="#63b8ff" stroke="#63b8ff" points="359.23,-175.88 369.8,-175.21 361.11,-169.14 359.23,-175.88"/>
</g>
<!-- Node9 -->
<g id="node9" class="node">
<title>Node9</title>
<g id="a_node9"><a xlink:href="Provision__Callback_8h.html" target="_top" xlink:title=" ">
<polygon fill="white" stroke="#666666" points="601,-134.5 477,-134.5 477,-115.5 601,-115.5 601,-134.5"/>
<text text-anchor="middle" x="539" y="-122.5" font-family="Helvetica,sans-Serif" font-size="10.00">src/Provision_Callback.h</text>
</a>
</g>
</g>
<!-- Node4&#45;&gt;Node9 -->
<g id="edge11" class="edge">
<title>Node4&#45;&gt;Node9</title>
<path fill="none" stroke="#63b8ff" d="M434,-171.16C459.76,-160.08 495.71,-144.62 518.15,-134.97"/>
<polygon fill="#63b8ff" stroke="#63b8ff" points="432.85,-167.85 425.05,-175.02 435.62,-174.28 432.85,-167.85"/>
</g>
<!-- Node12 -->
<g id="node12" class="node">
<title>Node12</title>
<g id="a_node12"><a xlink:href="RPC__Request__Callback_8h.html" target="_top" xlink:title=" ">
<polygon fill="white" stroke="#666666" points="785.5,-134.5 640.5,-134.5 640.5,-115.5 785.5,-115.5 785.5,-134.5"/>
<text text-anchor="middle" x="713" y="-122.5" font-family="Helvetica,sans-Serif" font-size="10.00">src/RPC_Request_Callback.h</text>
</a>
</g>
</g>
<!-- Node4&#45;&gt;Node12 -->
<g id="edge14" class="edge">
<title>Node4&#45;&gt;Node12</title>
<path fill="none" stroke="#63b8ff" d="M461.42,-173.47C520.44,-162.34 610.49,-145.34 665.33,-135"/>
<polygon fill="#63b8ff" stroke="#63b8ff" points="461.08,-169.98 451.91,-175.27 462.38,-176.86 461.08,-169.98"/>
</g>
<!-- Node15 -->
<g id="node15" class="node">
<title>Node15</title>
<g id="a_node15"><a xlink:href="Timeoutable__Request_8cpp.html" target="_top" xlink:title=" ">
<polygon fill="white" stroke="#666666" points="950,-134.5 804,-134.5 804,-115.5 950,-115.5 950,-134.5"/>
<text text-anchor="middle" x="877" y="-122.5" font-family="Helvetica,sans-Serif" font-size="10.00">src/Timeoutable_Request.cpp</text>
</a>
</g>
</g>
<!-- Node4&#45;&gt;Node15 -->
<g id="edge17" class="edge">
<title>Node4&#45;&gt;Node15</title>
<path fill="none" stroke="#63b8ff" d="M482.14,-176.83C561.43,-168.84 686.9,-155.35 795,-140 805.44,-138.52 816.59,-136.74 827.2,-134.96"/>
<polygon fill="#63b8ff" stroke="#63b8ff" points="481.89,-173.34 472.29,-177.82 482.59,-180.3 481.89,-173.34"/>
</g>
<!-- Node5&#45;&gt;Node3 -->
<g id="edge5" class="edge">
<title>Node5&#45;&gt;Node3</title>
<path fill="none" stroke="#63b8ff" d="M311.05,-50.71C283.78,-41.01 247,-27.93 222.9,-19.36"/>
<polygon fill="#63b8ff" stroke="#63b8ff" points="309.7,-53.95 320.3,-54 312.05,-47.35 309.7,-53.95"/>
</g>
<!-- Node6&#45;&gt;Node5 -->
<g id="edge7" class="edge">
<title>Node6&#45;&gt;Node5</title>
<path fill="none" stroke="#63b8ff" d="M381.2,-101.22C372.12,-91.74 362.13,-81.31 355.3,-74.18"/>
<polygon fill="#63b8ff" stroke="#63b8ff" points="378.67,-103.64 388.11,-108.45 383.72,-98.8 378.67,-103.64"/>
</g>
<!-- Node7&#45;&gt;Node2 -->
<g id="edge9" class="edge">
<title>Node7&#45;&gt;Node2</title>
<path fill="none" stroke="#63b8ff" d="M161.54,-110.81C134.24,-99.72 95.95,-84.17 72.08,-74.47"/>
<polygon fill="#63b8ff" stroke="#63b8ff" points="160.15,-114.02 170.73,-114.55 162.78,-107.54 160.15,-114.02"/>
</g>
<!-- Node8 -->
<g id="node8" class="node">
<title>Node8</title>
<g id="a_node8"><a xlink:href="OTA__Update__Callback_8cpp.html" target="_top" xlink:title=" ">
<polygon fill="white" stroke="#666666" points="269.5,-74 118.5,-74 118.5,-55 269.5,-55 269.5,-74"/>
<text text-anchor="middle" x="194" y="-62" font-family="Helvetica,sans-Serif" font-size="10.00">src/OTA_Update_Callback.cpp</text>
</a>
</g>
</g>
<!-- Node7&#45;&gt;Node8 -->
<g id="edge10" class="edge">
<title>Node7&#45;&gt;Node8</title>
<path fill="none" stroke="#63b8ff" d="M194,-104.16C194,-93.95 194,-82.04 194,-74.17"/>
<polygon fill="#63b8ff" stroke="#63b8ff" points="190.5,-103.85 194,-113.85 197.5,-103.85 190.5,-103.85"/>
</g>
<!-- Node10 -->
<g id="node10" class="node">
<title>Node10</title>
<g id="a_node10"><a xlink:href="Provision_8h.html" target="_top" xlink:title=" ">
<polygon fill="white" stroke="#666666" points="505.5,-74 424.5,-74 424.5,-55 505.5,-55 505.5,-74"/>
<text text-anchor="middle" x="465" y="-62" font-family="Helvetica,sans-Serif" font-size="10.00">src/Provision.h</text>
</a>
</g>
</g>
<!-- Node9&#45;&gt;Node10 -->
<g id="edge12" class="edge">
<title>Node9&#45;&gt;Node10</title>
<path fill="none" stroke="#63b8ff" d="M519.05,-108.23C505.36,-97.4 487.69,-83.43 476.34,-74.47"/>
<polygon fill="#63b8ff" stroke="#63b8ff" points="516.56,-110.72 526.57,-114.18 520.9,-105.23 516.56,-110.72"/>
</g>
<!-- Node11 -->
<g id="node11" class="node">
<title>Node11</title>
<g id="a_node11"><a xlink:href="Provision__Callback_8cpp.html" target="_top" xlink:title=" ">
<polygon fill="white" stroke="#666666" points="658,-74 524,-74 524,-55 658,-55 658,-74"/>
<text text-anchor="middle" x="591" y="-62" font-family="Helvetica,sans-Serif" font-size="10.00">src/Provision_Callback.cpp</text>
</a>
</g>
</g>
<!-- Node9&#45;&gt;Node11 -->
<g id="edge13" class="edge">
<title>Node9&#45;&gt;Node11</title>
<path fill="none" stroke="#63b8ff" d="M554.29,-106.8C563.82,-96.08 575.68,-82.73 583.3,-74.17"/>
<polygon fill="#63b8ff" stroke="#63b8ff" points="551.71,-104.44 547.68,-114.24 556.94,-109.09 551.71,-104.44"/>
</g>
<!-- Node13 -->
<g id="node13" class="node">
<title>Node13</title>
<g id="a_node13"><a xlink:href="Client__Side__RPC_8h.html" target="_top" xlink:title=" ">
<polygon fill="white" stroke="#666666" points="792,-74 676,-74 676,-55 792,-55 792,-74"/>
<text text-anchor="middle" x="734" y="-62" font-family="Helvetica,sans-Serif" font-size="10.00">src/Client_Side_RPC.h</text>
</a>
</g>
</g>
<!-- Node12&#45;&gt;Node13 -->
<g id="edge15" class="edge">
<title>Node12&#45;&gt;Node13</title>
<path fill="none" stroke="#63b8ff" d="M719.88,-104.83C723.6,-94.48 728,-82.22 730.89,-74.17"/>
<polygon fill="#63b8ff" stroke="#63b8ff" points="716.69,-103.35 716.61,-113.94 723.28,-105.71 716.69,-103.35"/>
</g>
<!-- Node14 -->
<g id="node14" class="node">
<title>Node14</title>
<g id="a_node14"><a xlink:href="RPC__Request__Callback_8cpp.html" target="_top" xlink:title=" ">
<polygon fill="white" stroke="#666666" points="965.5,-74 810.5,-74 810.5,-55 965.5,-55 965.5,-74"/>
<text text-anchor="middle" x="888" y="-62" font-family="Helvetica,sans-Serif" font-size="10.00">src/RPC_Request_Callback.cpp</text>
</a>
</g>
</g>
<!-- Node12&#45;&gt;Node14 -->
<g id="edge16" class="edge">
<title>Node12&#45;&gt;Node14</title>
<path fill="none" stroke="#63b8ff" d="M750.26,-111.55C783.55,-100.42 831.52,-84.38 861.17,-74.47"/>
<polygon fill="#63b8ff" stroke="#63b8ff" points="749.39,-108.15 741.01,-114.64 751.61,-114.78 749.39,-108.15"/>
</g>
</g>
</svg>
        <g id="navigator" transform="translate(0 0)" fill="#404254">
                <rect fill="#f2f5e9" fill-opacity="0.5" stroke="#606060" stroke-width=".5" x="0" y="0" width="60" height="60"/>
                <use id="zoomplus" xlink:href="#zoomPlus" x="17" y="9" onmousedown="handleZoom(evt,'in')"/>
                <use id="zoomminus" xlink:href="#zoomMin" x="42" y="9" onmousedown="handleZoom(evt,'out')"/>
                <use id="reset" xlink:href="#resetDef" x="30" y="36" onmousedown="handleReset()"/>
                <g id="arrowUp" xlink:href="#dirArrow" transform="translate(30 24)" onmousedown="handlePan(0,-1)">
                  <use xlink:href="#rim" fill="#404040">
                        <set attributeName="fill" to="#808080" begin="arrowUp.mouseover" end="arrowUp.mouseout"/>
                  </use>
                  <path fill="none" stroke="white" stroke-width="1.5" d="M0,-3.0v7 M-2.5,-0.5L0,-3.0L2.5,-0.5"/>
                </g>
                <g id="arrowRight" xlink:href="#dirArrow" transform="rotate(90) translate(36 -43)" onmousedown="handlePan(1,0)">
                  <use xlink:href="#rim" fill="#404040">
                        <set attributeName="fill" to="#808080" begin="arrowRight.mouseover" end="arrowRight.mouseout"/>
                  </use>
                  <path fill="none" stroke="white" stroke-width="1.5" d="M0,-3.0v7 M-2.5,-0.5L0,-3.0L2.5,-0.5"/>
                </g>
                <g id="arrowDown" xlink:href="#dirArrow" transform="rotate(180) translate(-30 -48)" onmousedown="handlePan(0,1)">
                  <use xlink:href="#rim" fill="#404040">
                        <set attributeName="fill" to="#808080" begin="arrowDown.mouseover" end="arrowDown.mouseout"/>
                  </use>
                  <path fill="none" stroke="white" stroke-width="1.5" d="M0,-3.0v7 M-2.5,-0.5L0,-3.0L2.5,-0.5"/>
                </g>
                <g id="arrowLeft" xlink:href="#dirArrow" transform="rotate(270) translate(-36 17)" onmousedown="handlePan(-1,0)">
                  <use xlink:href="#rim" fill="#404040">
                        <set attributeName="fill" to="#808080" begin="arrowLeft.mouseover" end="arrowLeft.mouseout"/>
                  </use>
                  <path fill="none" stroke="white" stroke-width="1.5" d="M0,-3.0v7 M-2.5,-0.5L0,-3.0L2.5,-0.5"/>
                </g>
        </g>
        <svg viewBox="0 0 15 15" width="100%" height="30px" preserveAspectRatio="xMaxYMin meet">
         <g id="arrow_out" transform="scale(0.3 0.3)">
          <a xlink:href="Callback__Watchdog_8h__dep__incl_org.svg" target="_base">
           <rect id="button" ry="5" rx="5" y="6" x="6" height="38" width="38"
                fill="#f2f5e9" fill-opacity="0.5" stroke="#606060" stroke-width="1.0"/>
           <path id="arrow"
             d="M 11.500037,31.436501 C 11.940474,20.09759 22.043105,11.32322 32.158766,21.979434 L 37.068811,17.246167 C 37.068811,17.246167 37.088388,32 37.088388,32 L 22.160133,31.978069 C 22.160133,31.978069 26.997745,27.140456 26.997745,27.140456 C 18.528582,18.264221 13.291696,25.230495 11.500037,31.436501 z"
             style="fill:#404040;"/>
          </a>
         </g>
        </svg>
</svg>
