<?xml version="1.0" encoding="UTF-8" standalone="no"?>
<!DOCTYPE svg PUBLIC "-//W3C//DTD SVG 1.1//EN"
 "http://www.w3.org/Graphics/SVG/1.1/DTD/svg11.dtd">
<!-- Generated by graphviz version 7.0.5 (20221223.1930)
 -->
<!-- Title: src/Callback.h Pages: 1 -->
<svg width="451pt" height="192pt"
 viewBox="0.00 0.00 450.50 192.00" xmlns="http://www.w3.org/2000/svg" xmlns:xlink="http://www.w3.org/1999/xlink">
<g id="graph0" class="graph" transform="scale(1 1) rotate(0) translate(4 188)">
<title>src/Callback.h</title>
<!-- Node1 -->
<g id="node1" class="node">
<title>Node1</title>
<g id="a_node1"><a xlink:title=" ">
<polygon fill="#999999" stroke="#666666" points="252,-184 174,-184 174,-165 252,-165 252,-184"/>
<text text-anchor="middle" x="213" y="-172" font-family="Helvetica,sans-Serif" font-size="10.00">src/Callback.h</text>
</a>
</g>
</g>
<!-- Node2 -->
<g id="node2" class="node">
<title>Node2</title>
<g id="a_node2"><a xlink:href="Configuration_8h.html" target="_top" xlink:title=" ">
<polygon fill="white" stroke="#666666" points="80,-19 0,-19 0,0 80,0 80,-19"/>
<text text-anchor="middle" x="40" y="-7" font-family="Helvetica,sans-Serif" font-size="10.00">Configuration.h</text>
</a>
</g>
</g>
<!-- Node1&#45;&gt;Node2 -->
<g id="edge1" class="edge">
<title>Node1&#45;&gt;Node2</title>
<path fill="none" stroke="#63b8ff" d="M201.57,-164.6C190.46,-155.82 173.22,-141.89 159,-129 120.86,-94.43 78.72,-51.18 56.25,-27.66"/>
<polygon fill="#63b8ff" stroke="#63b8ff" points="58.86,-25.34 49.43,-20.51 53.79,-30.16 58.86,-25.34"/>
</g>
<!-- Node3 -->
<g id="node3" class="node">
<title>Node3</title>
<g id="a_node3"><a xlink:href="Container_8h.html" target="_top" xlink:title=" ">
<polygon fill="white" stroke="#666666" points="245.5,-129 180.5,-129 180.5,-110 245.5,-110 245.5,-129"/>
<text text-anchor="middle" x="213" y="-117" font-family="Helvetica,sans-Serif" font-size="10.00">Container.h</text>
</a>
</g>
</g>
<!-- Node1&#45;&gt;Node3 -->
<g id="edge2" class="edge">
<title>Node1&#45;&gt;Node3</title>
<path fill="none" stroke="#63b8ff" d="M213,-164.75C213,-158.27 213,-149.16 213,-140.9"/>
<polygon fill="#63b8ff" stroke="#63b8ff" points="216.5,-140.96 213,-130.96 209.5,-140.96 216.5,-140.96"/>
</g>
<!-- Node5 -->
<g id="node5" class="node">
<title>Node5</title>
<g id="a_node5"><a xlink:title=" ">
<polygon fill="#e0e0e0" stroke="#999999" points="176,-19 98,-19 98,0 176,0 176,-19"/>
<text text-anchor="middle" x="137" y="-7" font-family="Helvetica,sans-Serif" font-size="10.00">ArduinoJson.h</text>
</a>
</g>
</g>
<!-- Node1&#45;&gt;Node5 -->
<g id="edge11" class="edge">
<title>Node1&#45;&gt;Node5</title>
<path fill="none" stroke="#63b8ff" d="M202.17,-164.71C192.65,-156.43 179.1,-143.21 171,-129 152.86,-97.17 143.78,-54.93 139.75,-30.43"/>
<polygon fill="#63b8ff" stroke="#63b8ff" points="143.26,-30.25 138.31,-20.88 136.34,-31.29 143.26,-30.25"/>
</g>
<!-- Node10 -->
<g id="node10" class="node">
<title>Node10</title>
<g id="a_node10"><a xlink:title=" ">
<polygon fill="#e0e0e0" stroke="#999999" points="322.5,-129 263.5,-129 263.5,-110 322.5,-110 322.5,-129"/>
<text text-anchor="middle" x="293" y="-117" font-family="Helvetica,sans-Serif" font-size="10.00">functional</text>
</a>
</g>
</g>
<!-- Node1&#45;&gt;Node10 -->
<g id="edge12" class="edge">
<title>Node1&#45;&gt;Node10</title>
<path fill="none" stroke="#63b8ff" d="M226.57,-164.51C238.48,-156.62 256.05,-144.98 270.13,-135.65"/>
<polygon fill="#63b8ff" stroke="#63b8ff" points="271.96,-138.63 278.37,-130.19 268.1,-132.8 271.96,-138.63"/>
</g>
<!-- Node11 -->
<g id="node11" class="node">
<title>Node11</title>
<g id="a_node11"><a xlink:title=" ">
<polygon fill="#e0e0e0" stroke="#999999" points="385,-129 341,-129 341,-110 385,-110 385,-129"/>
<text text-anchor="middle" x="363" y="-117" font-family="Helvetica,sans-Serif" font-size="10.00">vector</text>
</a>
</g>
</g>
<!-- Node1&#45;&gt;Node11 -->
<g id="edge13" class="edge">
<title>Node1&#45;&gt;Node11</title>
<path fill="none" stroke="#63b8ff" d="M238.45,-164.51C263.72,-155.58 302.58,-141.85 330.16,-132.1"/>
<polygon fill="#63b8ff" stroke="#63b8ff" points="331.17,-135.46 339.43,-128.83 328.84,-128.86 331.17,-135.46"/>
</g>
<!-- Node4 -->
<g id="node4" class="node">
<title>Node4</title>
<g id="a_node4"><a xlink:href="Helper_8h.html" target="_top" xlink:title=" ">
<polygon fill="white" stroke="#666666" points="244.5,-74 191.5,-74 191.5,-55 244.5,-55 244.5,-74"/>
<text text-anchor="middle" x="218" y="-62" font-family="Helvetica,sans-Serif" font-size="10.00">Helper.h</text>
</a>
</g>
</g>
<!-- Node3&#45;&gt;Node4 -->
<g id="edge3" class="edge">
<title>Node3&#45;&gt;Node4</title>
<path fill="none" stroke="#63b8ff" d="M213.83,-109.75C214.44,-103.27 215.3,-94.16 216.08,-85.9"/>
<polygon fill="#63b8ff" stroke="#63b8ff" points="219.56,-86.23 217.01,-75.95 212.59,-85.58 219.56,-86.23"/>
</g>
<!-- Node7 -->
<g id="node7" class="node">
<title>Node7</title>
<g id="a_node7"><a xlink:title=" ">
<polygon fill="#e0e0e0" stroke="#999999" points="442.5,-19 391.5,-19 391.5,0 442.5,0 442.5,-19"/>
<text text-anchor="middle" x="417" y="-7" font-family="Helvetica,sans-Serif" font-size="10.00">assert.h</text>
</a>
</g>
</g>
<!-- Node3&#45;&gt;Node7 -->
<g id="edge10" class="edge">
<title>Node3&#45;&gt;Node7</title>
<path fill="none" stroke="#63b8ff" d="M229.69,-109.66C264.96,-90.99 347.3,-47.4 390.1,-24.74"/>
<polygon fill="#63b8ff" stroke="#63b8ff" points="391.54,-27.94 398.74,-20.17 388.26,-21.75 391.54,-27.94"/>
</g>
<!-- Node4&#45;&gt;Node2 -->
<g id="edge4" class="edge">
<title>Node4&#45;&gt;Node2</title>
<path fill="none" stroke="#63b8ff" d="M191.35,-55.57C162.16,-46.87 114.99,-32.83 81.06,-22.73"/>
<polygon fill="#63b8ff" stroke="#63b8ff" points="82.14,-19.4 71.56,-19.9 80.15,-26.11 82.14,-19.4"/>
</g>
<!-- Node4&#45;&gt;Node5 -->
<g id="edge5" class="edge">
<title>Node4&#45;&gt;Node5</title>
<path fill="none" stroke="#63b8ff" d="M204.26,-54.51C192.2,-46.62 174.41,-34.98 160.16,-25.65"/>
<polygon fill="#63b8ff" stroke="#63b8ff" points="162.09,-22.73 151.8,-20.19 158.26,-28.59 162.09,-22.73"/>
</g>
<!-- Node6 -->
<g id="node6" class="node">
<title>Node6</title>
<g id="a_node6"><a xlink:title=" ">
<polygon fill="#e0e0e0" stroke="#999999" points="241.5,-19 194.5,-19 194.5,0 241.5,0 241.5,-19"/>
<text text-anchor="middle" x="218" y="-7" font-family="Helvetica,sans-Serif" font-size="10.00">iterator</text>
</a>
</g>
</g>
<!-- Node4&#45;&gt;Node6 -->
<g id="edge6" class="edge">
<title>Node4&#45;&gt;Node6</title>
<path fill="none" stroke="#63b8ff" d="M218,-54.75C218,-48.27 218,-39.16 218,-30.9"/>
<polygon fill="#63b8ff" stroke="#63b8ff" points="221.5,-30.96 218,-20.96 214.5,-30.96 221.5,-30.96"/>
</g>
<!-- Node4&#45;&gt;Node7 -->
<g id="edge7" class="edge">
<title>Node4&#45;&gt;Node7</title>
<path fill="none" stroke="#63b8ff" d="M244.84,-56.35C279.79,-47.04 341.05,-30.73 380.29,-20.28"/>
<polygon fill="#63b8ff" stroke="#63b8ff" points="380.99,-23.71 389.75,-17.76 379.19,-16.95 380.99,-23.71"/>
</g>
<!-- Node8 -->
<g id="node8" class="node">
<title>Node8</title>
<g id="a_node8"><a xlink:title=" ">
<polygon fill="#e0e0e0" stroke="#999999" points="310.5,-19 259.5,-19 259.5,0 310.5,0 310.5,-19"/>
<text text-anchor="middle" x="285" y="-7" font-family="Helvetica,sans-Serif" font-size="10.00">stdarg.h</text>
</a>
</g>
</g>
<!-- Node4&#45;&gt;Node8 -->
<g id="edge8" class="edge">
<title>Node4&#45;&gt;Node8</title>
<path fill="none" stroke="#63b8ff" d="M229.37,-54.51C239.05,-46.85 253.2,-35.66 264.81,-26.47"/>
<polygon fill="#63b8ff" stroke="#63b8ff" points="266.94,-29.25 272.62,-20.3 262.6,-23.76 266.94,-29.25"/>
</g>
<!-- Node9 -->
<g id="node9" class="node">
<title>Node9</title>
<g id="a_node9"><a xlink:title=" ">
<polygon fill="#e0e0e0" stroke="#999999" points="373.5,-19 328.5,-19 328.5,0 373.5,0 373.5,-19"/>
<text text-anchor="middle" x="351" y="-7" font-family="Helvetica,sans-Serif" font-size="10.00">stdio.h</text>
</a>
</g>
</g>
<!-- Node4&#45;&gt;Node9 -->
<g id="edge9" class="edge">
<title>Node4&#45;&gt;Node9</title>
<path fill="none" stroke="#63b8ff" d="M240.56,-54.51C261.9,-46.01 294.16,-33.15 318.31,-23.53"/>
<polygon fill="#63b8ff" stroke="#63b8ff" points="319.37,-26.87 327.37,-19.92 316.78,-20.37 319.37,-26.87"/>
</g>
</g>
</svg>
