<?xml version="1.0" encoding="UTF-8" standalone="no"?>
<!DOCTYPE svg PUBLIC "-//W3C//DTD SVG 1.1//EN"
 "http://www.w3.org/Graphics/SVG/1.1/DTD/svg11.dtd">
<!-- Generated by graphviz version 7.0.5 (20221223.1930)
 -->
<!-- Title: Container&lt; T, Capacity &gt; Pages: 1 -->
<!--zoomable 333 -->
<svg id="main" version="1.1" xmlns="http://www.w3.org/2000/svg" xmlns:xlink="http://www.w3.org/1999/xlink" xml:space="preserve" onload="init(evt)">
<style type="text/css"><![CDATA[
.edge:hover path { stroke: red; }
.edge:hover polygon { stroke: red; fill: red; }
]]></style>
<script type="text/javascript"><![CDATA[
var edges = document.getElementsByTagName('g');
if (edges && edges.length) {
  for (var i=0;i<edges.length;i++) {
    if (edges[i].id.substr(0,4)=='edge') {
      edges[i].setAttribute('class','edge');
    }
  }
}
]]></script>
        <defs>
                <circle id="rim" cx="0" cy="0" r="7"/>
                <circle id="rim2" cx="0" cy="0" r="3.5"/>
                <g id="zoomPlus">
                        <use xlink:href="#rim" fill="#404040">
                                <set attributeName="fill" to="#808080" begin="zoomplus.mouseover" end="zoomplus.mouseout"/>
                        </use>
                        <path d="M-4,0h8M0,-4v8" fill="none" stroke="white" stroke-width="1.5" pointer-events="none"/>
                </g>
                <g id="zoomMin">
                        <use xlink:href="#rim" fill="#404040">
                                <set attributeName="fill" to="#808080" begin="zoomminus.mouseover" end="zoomminus.mouseout"/>
                        </use>
                        <path d="M-4,0h8" fill="none" stroke="white" stroke-width="1.5" pointer-events="none"/>
                </g>
                <g id="dirArrow">
                        <path fill="none" stroke="white" stroke-width="1.5" d="M0,-3.0v7 M-2.5,-0.5L0,-3.0L2.5,-0.5"/>
                </g>
               <g id="resetDef">
                       <use xlink:href="#rim2" fill="#404040">
                               <set attributeName="fill" to="#808080" begin="reset.mouseover" end="reset.mouseout"/>
                       </use>
               </g>
        </defs>

<script type="text/javascript">
var viewWidth = 526;
var viewHeight = 333;
var sectionId = 'dynsection-0';
</script>
<script xlink:href="svgpan.js"/>
<svg id="graph" class="graph">
<g id="viewport">
<title>Container&lt; T, Capacity &gt;</title>
<!-- Node1 -->
<g id="node1" class="node">
<title>Node1</title>
<g id="a_node1"><a xlink:title="Custom std::array or std::vector implementation that contains a partial vector&#45;like interface impleme...">
<polygon fill="#999999" stroke="#666666" points="123,-160.5 0,-160.5 0,-141.5 123,-141.5 123,-160.5"/>
<text text-anchor="middle" x="61.5" y="-148.5" font-family="Helvetica,sans-Serif" font-size="10.00">Container&lt; T, Capacity &gt;</text>
</a>
</g>
</g>
<!-- Node2 -->
<g id="node2" class="node">
<title>Node2</title>
<g id="a_node2"><a xlink:href="classContainer.html" target="_top" xlink:title=" ">
<polygon fill="white" stroke="#666666" points="511.5,-316.5 334.5,-316.5 334.5,-275.5 511.5,-275.5 511.5,-316.5"/>
<text text-anchor="start" x="342.5" y="-304.5" font-family="Helvetica,sans-Serif" font-size="10.00">Container&lt; Callback</text>
<text text-anchor="start" x="342.5" y="-293.5" font-family="Helvetica,sans-Serif" font-size="10.00">_Value, DEFAULT_SUBSCRIPTION</text>
<text text-anchor="middle" x="423" y="-282.5" font-family="Helvetica,sans-Serif" font-size="10.00">_AMOUNT &gt;</text>
</a>
</g>
</g>
<!-- Node1&#45;&gt;Node2 -->
<g id="edge1" class="edge">
<title>Node1&#45;&gt;Node2</title>
<path fill="none" stroke="orange" stroke-dasharray="5,2" d="M70.52,-171.46C81.93,-197.54 105.46,-241.79 141,-263 198.89,-297.56 275.47,-304.54 334.07,-303.59"/>
<polygon fill="orange" stroke="orange" points="73.79,-170.19 66.72,-162.3 67.32,-172.88 73.79,-170.19"/>
<text text-anchor="start" x="156.5" y="-317" font-family="Helvetica,sans-Serif" font-size="10.00"> &lt; Callback_Value, DEFAULT</text>
<text text-anchor="middle" x="225.5" y="-306" font-family="Helvetica,sans-Serif" font-size="10.00">_SUBSCRIPTION_AMOUNT &gt;</text>
</g>
<!-- Node3 -->
<g id="node3" class="node">
<title>Node3</title>
<g id="a_node3"><a xlink:href="classContainer.html" target="_top" xlink:title=" ">
<polygon fill="white" stroke="#666666" points="493,-257.5 353,-257.5 353,-216.5 493,-216.5 493,-257.5"/>
<text text-anchor="start" x="361" y="-245.5" font-family="Helvetica,sans-Serif" font-size="10.00">Container&lt; char const</text>
<text text-anchor="start" x="361" y="-234.5" font-family="Helvetica,sans-Serif" font-size="10.00"> *, DEFAULT_ATTRIBUTES</text>
<text text-anchor="middle" x="423" y="-223.5" font-family="Helvetica,sans-Serif" font-size="10.00">_AMOUNT &gt;</text>
</a>
</g>
</g>
<!-- Node1&#45;&gt;Node3 -->
<g id="edge2" class="edge">
<title>Node1&#45;&gt;Node3</title>
<path fill="none" stroke="orange" stroke-dasharray="5,2" d="M81.01,-168.06C96.01,-180.8 118.31,-197.44 141,-206 209.77,-231.93 294.24,-238.13 352.51,-238.81"/>
<polygon fill="orange" stroke="orange" points="83.64,-165.7 73.81,-161.73 79.01,-170.96 83.64,-165.7"/>
<text text-anchor="start" x="163.5" y="-251" font-family="Helvetica,sans-Serif" font-size="10.00"> &lt; char const *, DEFAULT</text>
<text text-anchor="middle" x="225.5" y="-240" font-family="Helvetica,sans-Serif" font-size="10.00">_ATTRIBUTES_AMOUNT &gt;</text>
</g>
<!-- Node4 -->
<g id="node4" class="node">
<title>Node4</title>
<g id="a_node4"><a xlink:href="classContainer.html" target="_top" xlink:title=" ">
<polygon fill="white" stroke="#666666" points="518,-198.5 328,-198.5 328,-157.5 518,-157.5 518,-198.5"/>
<text text-anchor="start" x="336" y="-186.5" font-family="Helvetica,sans-Serif" font-size="10.00">Container&lt; RPC_Request</text>
<text text-anchor="start" x="336" y="-175.5" font-family="Helvetica,sans-Serif" font-size="10.00">_Callback, DEFAULT_SUBSCRIPTION</text>
<text text-anchor="middle" x="423" y="-164.5" font-family="Helvetica,sans-Serif" font-size="10.00">_AMOUNT &gt;</text>
</a>
</g>
</g>
<!-- Node1&#45;&gt;Node4 -->
<g id="edge3" class="edge">
<title>Node1&#45;&gt;Node4</title>
<path fill="none" stroke="orange" stroke-dasharray="5,2" d="M134.62,-156.42C190.08,-160.58 267.15,-166.37 327.53,-170.9"/>
<polygon fill="orange" stroke="orange" points="135.23,-152.95 124.99,-155.69 134.7,-159.93 135.23,-152.95"/>
<text text-anchor="start" x="161.5" y="-194" font-family="Helvetica,sans-Serif" font-size="10.00"> &lt; RPC_Request_Callback,</text>
<text text-anchor="start" x="161.5" y="-183" font-family="Helvetica,sans-Serif" font-size="10.00"> DEFAULT_SUBSCRIPTION</text>
<text text-anchor="middle" x="225.5" y="-172" font-family="Helvetica,sans-Serif" font-size="10.00">_AMOUNT &gt;</text>
</g>
<!-- Node5 -->
<g id="node5" class="node">
<title>Node5</title>
<g id="a_node5"><a xlink:href="classContainer.html" target="_top" xlink:title=" ">
<polygon fill="white" stroke="#666666" points="491.5,-139 354.5,-139 354.5,-109 491.5,-109 491.5,-139"/>
<text text-anchor="start" x="362.5" y="-127" font-family="Helvetica,sans-Serif" font-size="10.00">Container&lt; Callback</text>
<text text-anchor="middle" x="423" y="-116" font-family="Helvetica,sans-Serif" font-size="10.00">_Value, MaxSubscriptions &gt;</text>
</a>
</g>
</g>
<!-- Node1&#45;&gt;Node5 -->
<g id="edge4" class="edge">
<title>Node1&#45;&gt;Node5</title>
<path fill="none" stroke="orange" stroke-dasharray="5,2" d="M134.73,-142.58C136.85,-142.38 138.94,-142.18 141,-142 213.67,-135.51 297.12,-130.47 354.08,-127.39"/>
<polygon fill="orange" stroke="orange" points="134.43,-139.09 124.83,-143.57 135.13,-146.06 134.43,-139.09"/>
<text text-anchor="middle" x="225.5" y="-145" font-family="Helvetica,sans-Serif" font-size="10.00"> &lt; Callback_Value, MaxSubscriptions &gt;</text>
</g>
<!-- Node6 -->
<g id="node6" class="node">
<title>Node6</title>
<g id="a_node6"><a xlink:href="classContainer.html" target="_top" xlink:title=" ">
<polygon fill="white" stroke="#666666" points="495,-90.5 351,-90.5 351,-49.5 495,-49.5 495,-90.5"/>
<text text-anchor="start" x="359" y="-78.5" font-family="Helvetica,sans-Serif" font-size="10.00">Container&lt; RPC_Callback,</text>
<text text-anchor="start" x="359" y="-67.5" font-family="Helvetica,sans-Serif" font-size="10.00"> DEFAULT_SUBSCRIPTION</text>
<text text-anchor="middle" x="423" y="-56.5" font-family="Helvetica,sans-Serif" font-size="10.00">_AMOUNT &gt;</text>
</a>
</g>
</g>
<!-- Node1&#45;&gt;Node6 -->
<g id="edge5" class="edge">
<title>Node1&#45;&gt;Node6</title>
<path fill="none" stroke="orange" stroke-dasharray="5,2" d="M84.27,-134.54C99.38,-124.01 120.41,-111.05 141,-104 209.69,-80.48 292.69,-72.78 350.61,-70.48"/>
<polygon fill="orange" stroke="orange" points="82.57,-131.46 76.5,-140.14 86.66,-137.14 82.57,-131.46"/>
<text text-anchor="start" x="156.5" y="-118" font-family="Helvetica,sans-Serif" font-size="10.00"> &lt; RPC_Callback, DEFAULT</text>
<text text-anchor="middle" x="225.5" y="-107" font-family="Helvetica,sans-Serif" font-size="10.00">_SUBSCRIPTION_AMOUNT &gt;</text>
</g>
<!-- Node7 -->
<g id="node7" class="node">
<title>Node7</title>
<g id="a_node7"><a xlink:href="classContainer.html" target="_top" xlink:title=" ">
<polygon fill="white" stroke="#666666" points="516,-30 330,-30 330,0 516,0 516,-30"/>
<text text-anchor="start" x="338" y="-18" font-family="Helvetica,sans-Serif" font-size="10.00">Container&lt; IAPI_Implementation</text>
<text text-anchor="middle" x="423" y="-7" font-family="Helvetica,sans-Serif" font-size="10.00"> *, DEFAULT_ENDPOINT_AMOUNT &gt;</text>
</a>
</g>
</g>
<!-- Node1&#45;&gt;Node7 -->
<g id="edge6" class="edge">
<title>Node1&#45;&gt;Node7</title>
<path fill="none" stroke="orange" stroke-dasharray="5,2" d="M69.92,-130.54C80.87,-103.62 104.16,-57.25 141,-36 197.68,-3.31 271.84,0.96 329.74,-2.43"/>
<polygon fill="orange" stroke="orange" points="66.73,-129.06 66.4,-139.65 73.27,-131.58 66.73,-129.06"/>
<text text-anchor="start" x="169" y="-61" font-family="Helvetica,sans-Serif" font-size="10.00"> &lt; IAPI_Implementation</text>
<text text-anchor="start" x="169" y="-50" font-family="Helvetica,sans-Serif" font-size="10.00"> *, DEFAULT_ENDPOINT</text>
<text text-anchor="middle" x="225.5" y="-39" font-family="Helvetica,sans-Serif" font-size="10.00">_AMOUNT &gt;</text>
</g>
</g>
</svg>
        <g id="navigator" transform="translate(0 0)" fill="#404254">
                <rect fill="#f2f5e9" fill-opacity="0.5" stroke="#606060" stroke-width=".5" x="0" y="0" width="60" height="60"/>
                <use id="zoomplus" xlink:href="#zoomPlus" x="17" y="9" onmousedown="handleZoom(evt,'in')"/>
                <use id="zoomminus" xlink:href="#zoomMin" x="42" y="9" onmousedown="handleZoom(evt,'out')"/>
                <use id="reset" xlink:href="#resetDef" x="30" y="36" onmousedown="handleReset()"/>
                <g id="arrowUp" xlink:href="#dirArrow" transform="translate(30 24)" onmousedown="handlePan(0,-1)">
                  <use xlink:href="#rim" fill="#404040">
                        <set attributeName="fill" to="#808080" begin="arrowUp.mouseover" end="arrowUp.mouseout"/>
                  </use>
                  <path fill="none" stroke="white" stroke-width="1.5" d="M0,-3.0v7 M-2.5,-0.5L0,-3.0L2.5,-0.5"/>
                </g>
                <g id="arrowRight" xlink:href="#dirArrow" transform="rotate(90) translate(36 -43)" onmousedown="handlePan(1,0)">
                  <use xlink:href="#rim" fill="#404040">
                        <set attributeName="fill" to="#808080" begin="arrowRight.mouseover" end="arrowRight.mouseout"/>
                  </use>
                  <path fill="none" stroke="white" stroke-width="1.5" d="M0,-3.0v7 M-2.5,-0.5L0,-3.0L2.5,-0.5"/>
                </g>
                <g id="arrowDown" xlink:href="#dirArrow" transform="rotate(180) translate(-30 -48)" onmousedown="handlePan(0,1)">
                  <use xlink:href="#rim" fill="#404040">
                        <set attributeName="fill" to="#808080" begin="arrowDown.mouseover" end="arrowDown.mouseout"/>
                  </use>
                  <path fill="none" stroke="white" stroke-width="1.5" d="M0,-3.0v7 M-2.5,-0.5L0,-3.0L2.5,-0.5"/>
                </g>
                <g id="arrowLeft" xlink:href="#dirArrow" transform="rotate(270) translate(-36 17)" onmousedown="handlePan(-1,0)">
                  <use xlink:href="#rim" fill="#404040">
                        <set attributeName="fill" to="#808080" begin="arrowLeft.mouseover" end="arrowLeft.mouseout"/>
                  </use>
                  <path fill="none" stroke="white" stroke-width="1.5" d="M0,-3.0v7 M-2.5,-0.5L0,-3.0L2.5,-0.5"/>
                </g>
        </g>
        <svg viewBox="0 0 15 15" width="100%" height="30px" preserveAspectRatio="xMaxYMin meet">
         <g id="arrow_out" transform="scale(0.3 0.3)">
          <a xlink:href="classContainer__inherit__graph_org.svg" target="_base">
           <rect id="button" ry="5" rx="5" y="6" x="6" height="38" width="38"
                fill="#f2f5e9" fill-opacity="0.5" stroke="#606060" stroke-width="1.0"/>
           <path id="arrow"
             d="M 11.500037,31.436501 C 11.940474,20.09759 22.043105,11.32322 32.158766,21.979434 L 37.068811,17.246167 C 37.068811,17.246167 37.088388,32 37.088388,32 L 22.160133,31.978069 C 22.160133,31.978069 26.997745,27.140456 26.997745,27.140456 C 18.528582,18.264221 13.291696,25.230495 11.500037,31.436501 z"
             style="fill:#404040;"/>
          </a>
         </g>
        </svg>
</svg>
