<?xml version="1.0" encoding="UTF-8" standalone="no"?>
<!DOCTYPE svg PUBLIC "-//W3C//DTD SVG 1.1//EN"
 "http://www.w3.org/Graphics/SVG/1.1/DTD/svg11.dtd">
<!-- Generated by graphviz version 7.0.5 (20221223.1930)
 -->
<!-- Title: Container&lt; T, Capacity &gt; Pages: 1 -->
<svg width="526pt" height="333pt"
 viewBox="0.00 0.00 526.00 333.00" xmlns="http://www.w3.org/2000/svg" xmlns:xlink="http://www.w3.org/1999/xlink">
<g id="graph0" class="graph" transform="scale(1 1) rotate(0) translate(4 329)">
<title>Container&lt; T, Capacity &gt;</title>
<!-- Node1 -->
<g id="node1" class="node">
<title>Node1</title>
<g id="a_node1"><a xlink:title="Custom std::array or std::vector implementation that contains a partial vector&#45;like interface impleme...">
<polygon fill="#999999" stroke="#666666" points="123,-160.5 0,-160.5 0,-141.5 123,-141.5 123,-160.5"/>
<text text-anchor="middle" x="61.5" y="-148.5" font-family="Helvetica,sans-Serif" font-size="10.00">Container&lt; T, Capacity &gt;</text>
</a>
</g>
</g>
<!-- Node2 -->
<g id="node2" class="node">
<title>Node2</title>
<g id="a_node2"><a xlink:href="classContainer.html" target="_top" xlink:title=" ">
<polygon fill="white" stroke="#666666" points="511.5,-316.5 334.5,-316.5 334.5,-275.5 511.5,-275.5 511.5,-316.5"/>
<text text-anchor="start" x="342.5" y="-304.5" font-family="Helvetica,sans-Serif" font-size="10.00">Container&lt; Callback</text>
<text text-anchor="start" x="342.5" y="-293.5" font-family="Helvetica,sans-Serif" font-size="10.00">_Value, DEFAULT_SUBSCRIPTION</text>
<text text-anchor="middle" x="423" y="-282.5" font-family="Helvetica,sans-Serif" font-size="10.00">_AMOUNT &gt;</text>
</a>
</g>
</g>
<!-- Node1&#45;&gt;Node2 -->
<g id="edge1" class="edge">
<title>Node1&#45;&gt;Node2</title>
<path fill="none" stroke="orange" stroke-dasharray="5,2" d="M70.52,-171.46C81.93,-197.54 105.46,-241.79 141,-263 198.89,-297.56 275.47,-304.54 334.07,-303.59"/>
<polygon fill="orange" stroke="orange" points="73.79,-170.19 66.72,-162.3 67.32,-172.88 73.79,-170.19"/>
<text text-anchor="start" x="156.5" y="-317" font-family="Helvetica,sans-Serif" font-size="10.00"> &lt; Callback_Value, DEFAULT</text>
<text text-anchor="middle" x="225.5" y="-306" font-family="Helvetica,sans-Serif" font-size="10.00">_SUBSCRIPTION_AMOUNT &gt;</text>
</g>
<!-- Node3 -->
<g id="node3" class="node">
<title>Node3</title>
<g id="a_node3"><a xlink:href="classContainer.html" target="_top" xlink:title=" ">
<polygon fill="white" stroke="#666666" points="493,-257.5 353,-257.5 353,-216.5 493,-216.5 493,-257.5"/>
<text text-anchor="start" x="361" y="-245.5" font-family="Helvetica,sans-Serif" font-size="10.00">Container&lt; char const</text>
<text text-anchor="start" x="361" y="-234.5" font-family="Helvetica,sans-Serif" font-size="10.00"> *, DEFAULT_ATTRIBUTES</text>
<text text-anchor="middle" x="423" y="-223.5" font-family="Helvetica,sans-Serif" font-size="10.00">_AMOUNT &gt;</text>
</a>
</g>
</g>
<!-- Node1&#45;&gt;Node3 -->
<g id="edge2" class="edge">
<title>Node1&#45;&gt;Node3</title>
<path fill="none" stroke="orange" stroke-dasharray="5,2" d="M81.01,-168.06C96.01,-180.8 118.31,-197.44 141,-206 209.77,-231.93 294.24,-238.13 352.51,-238.81"/>
<polygon fill="orange" stroke="orange" points="83.64,-165.7 73.81,-161.73 79.01,-170.96 83.64,-165.7"/>
<text text-anchor="start" x="163.5" y="-251" font-family="Helvetica,sans-Serif" font-size="10.00"> &lt; char const *, DEFAULT</text>
<text text-anchor="middle" x="225.5" y="-240" font-family="Helvetica,sans-Serif" font-size="10.00">_ATTRIBUTES_AMOUNT &gt;</text>
</g>
<!-- Node4 -->
<g id="node4" class="node">
<title>Node4</title>
<g id="a_node4"><a xlink:href="classContainer.html" target="_top" xlink:title=" ">
<polygon fill="white" stroke="#666666" points="518,-198.5 328,-198.5 328,-157.5 518,-157.5 518,-198.5"/>
<text text-anchor="start" x="336" y="-186.5" font-family="Helvetica,sans-Serif" font-size="10.00">Container&lt; RPC_Request</text>
<text text-anchor="start" x="336" y="-175.5" font-family="Helvetica,sans-Serif" font-size="10.00">_Callback, DEFAULT_SUBSCRIPTION</text>
<text text-anchor="middle" x="423" y="-164.5" font-family="Helvetica,sans-Serif" font-size="10.00">_AMOUNT &gt;</text>
</a>
</g>
</g>
<!-- Node1&#45;&gt;Node4 -->
<g id="edge3" class="edge">
<title>Node1&#45;&gt;Node4</title>
<path fill="none" stroke="orange" stroke-dasharray="5,2" d="M134.62,-156.42C190.08,-160.58 267.15,-166.37 327.53,-170.9"/>
<polygon fill="orange" stroke="orange" points="135.23,-152.95 124.99,-155.69 134.7,-159.93 135.23,-152.95"/>
<text text-anchor="start" x="161.5" y="-194" font-family="Helvetica,sans-Serif" font-size="10.00"> &lt; RPC_Request_Callback,</text>
<text text-anchor="start" x="161.5" y="-183" font-family="Helvetica,sans-Serif" font-size="10.00"> DEFAULT_SUBSCRIPTION</text>
<text text-anchor="middle" x="225.5" y="-172" font-family="Helvetica,sans-Serif" font-size="10.00">_AMOUNT &gt;</text>
</g>
<!-- Node5 -->
<g id="node5" class="node">
<title>Node5</title>
<g id="a_node5"><a xlink:href="classContainer.html" target="_top" xlink:title=" ">
<polygon fill="white" stroke="#666666" points="491.5,-139 354.5,-139 354.5,-109 491.5,-109 491.5,-139"/>
<text text-anchor="start" x="362.5" y="-127" font-family="Helvetica,sans-Serif" font-size="10.00">Container&lt; Callback</text>
<text text-anchor="middle" x="423" y="-116" font-family="Helvetica,sans-Serif" font-size="10.00">_Value, MaxSubscriptions &gt;</text>
</a>
</g>
</g>
<!-- Node1&#45;&gt;Node5 -->
<g id="edge4" class="edge">
<title>Node1&#45;&gt;Node5</title>
<path fill="none" stroke="orange" stroke-dasharray="5,2" d="M134.73,-142.58C136.85,-142.38 138.94,-142.18 141,-142 213.67,-135.51 297.12,-130.47 354.08,-127.39"/>
<polygon fill="orange" stroke="orange" points="134.43,-139.09 124.83,-143.57 135.13,-146.06 134.43,-139.09"/>
<text text-anchor="middle" x="225.5" y="-145" font-family="Helvetica,sans-Serif" font-size="10.00"> &lt; Callback_Value, MaxSubscriptions &gt;</text>
</g>
<!-- Node6 -->
<g id="node6" class="node">
<title>Node6</title>
<g id="a_node6"><a xlink:href="classContainer.html" target="_top" xlink:title=" ">
<polygon fill="white" stroke="#666666" points="495,-90.5 351,-90.5 351,-49.5 495,-49.5 495,-90.5"/>
<text text-anchor="start" x="359" y="-78.5" font-family="Helvetica,sans-Serif" font-size="10.00">Container&lt; RPC_Callback,</text>
<text text-anchor="start" x="359" y="-67.5" font-family="Helvetica,sans-Serif" font-size="10.00"> DEFAULT_SUBSCRIPTION</text>
<text text-anchor="middle" x="423" y="-56.5" font-family="Helvetica,sans-Serif" font-size="10.00">_AMOUNT &gt;</text>
</a>
</g>
</g>
<!-- Node1&#45;&gt;Node6 -->
<g id="edge5" class="edge">
<title>Node1&#45;&gt;Node6</title>
<path fill="none" stroke="orange" stroke-dasharray="5,2" d="M84.27,-134.54C99.38,-124.01 120.41,-111.05 141,-104 209.69,-80.48 292.69,-72.78 350.61,-70.48"/>
<polygon fill="orange" stroke="orange" points="82.57,-131.46 76.5,-140.14 86.66,-137.14 82.57,-131.46"/>
<text text-anchor="start" x="156.5" y="-118" font-family="Helvetica,sans-Serif" font-size="10.00"> &lt; RPC_Callback, DEFAULT</text>
<text text-anchor="middle" x="225.5" y="-107" font-family="Helvetica,sans-Serif" font-size="10.00">_SUBSCRIPTION_AMOUNT &gt;</text>
</g>
<!-- Node7 -->
<g id="node7" class="node">
<title>Node7</title>
<g id="a_node7"><a xlink:href="classContainer.html" target="_top" xlink:title=" ">
<polygon fill="white" stroke="#666666" points="516,-30 330,-30 330,0 516,0 516,-30"/>
<text text-anchor="start" x="338" y="-18" font-family="Helvetica,sans-Serif" font-size="10.00">Container&lt; IAPI_Implementation</text>
<text text-anchor="middle" x="423" y="-7" font-family="Helvetica,sans-Serif" font-size="10.00"> *, DEFAULT_ENDPOINT_AMOUNT &gt;</text>
</a>
</g>
</g>
<!-- Node1&#45;&gt;Node7 -->
<g id="edge6" class="edge">
<title>Node1&#45;&gt;Node7</title>
<path fill="none" stroke="orange" stroke-dasharray="5,2" d="M69.92,-130.54C80.87,-103.62 104.16,-57.25 141,-36 197.68,-3.31 271.84,0.96 329.74,-2.43"/>
<polygon fill="orange" stroke="orange" points="66.73,-129.06 66.4,-139.65 73.27,-131.58 66.73,-129.06"/>
<text text-anchor="start" x="169" y="-61" font-family="Helvetica,sans-Serif" font-size="10.00"> &lt; IAPI_Implementation</text>
<text text-anchor="start" x="169" y="-50" font-family="Helvetica,sans-Serif" font-size="10.00"> *, DEFAULT_ENDPOINT</text>
<text text-anchor="middle" x="225.5" y="-39" font-family="Helvetica,sans-Serif" font-size="10.00">_AMOUNT &gt;</text>
</g>
</g>
</svg>
