<?xml version="1.0" encoding="UTF-8" standalone="no"?>
<!DOCTYPE svg PUBLIC "-//W3C//DTD SVG 1.1//EN"
 "http://www.w3.org/Graphics/SVG/1.1/DTD/svg11.dtd">
<!-- Generated by graphviz version 7.0.5 (20221223.1930)
 -->
<!-- Title: IUpdater Pages: 1 -->
<svg width="266pt" height="93pt"
 viewBox="0.00 0.00 266.00 93.00" xmlns="http://www.w3.org/2000/svg" xmlns:xlink="http://www.w3.org/1999/xlink">
<g id="graph0" class="graph" transform="scale(1 1) rotate(0) translate(4 89)">
<title>IUpdater</title>
<!-- Node1 -->
<g id="node1" class="node">
<title>Node1</title>
<g id="a_node1"><a xlink:title="Updater interface that contains the method that a class that can be used to flash given binary data o...">
<polygon fill="#999999" stroke="#666666" points="147.5,-85 93.5,-85 93.5,-66 147.5,-66 147.5,-85"/>
<text text-anchor="middle" x="120.5" y="-73" font-family="Helvetica,sans-Serif" font-size="10.00">IUpdater</text>
</a>
</g>
</g>
<!-- Node2 -->
<g id="node2" class="node">
<title>Node2</title>
<g id="a_node2"><a xlink:href="classEspressif__Updater.html" target="_top" xlink:title="IUpdater implementation that uses the Over the Air Update API from Espressif (https://docs....">
<polygon fill="white" stroke="#666666" points="103,-30 0,-30 0,0 103,0 103,-30"/>
<text text-anchor="start" x="8" y="-18" font-family="Helvetica,sans-Serif" font-size="10.00">Espressif_Updater&lt;</text>
<text text-anchor="middle" x="51.5" y="-7" font-family="Helvetica,sans-Serif" font-size="10.00"> Logger &gt;</text>
</a>
</g>
</g>
<!-- Node1&#45;&gt;Node2 -->
<g id="edge1" class="edge">
<title>Node1&#45;&gt;Node2</title>
<path fill="none" stroke="#63b8ff" d="M101.35,-58.27C91.06,-49.54 78.48,-38.87 68.53,-30.44"/>
<polygon fill="#63b8ff" stroke="#63b8ff" points="98.97,-60.84 108.87,-64.64 103.5,-55.5 98.97,-60.84"/>
</g>
<!-- Node3 -->
<g id="node3" class="node">
<title>Node3</title>
<g id="a_node3"><a xlink:href="classSDCard__Updater.html" target="_top" xlink:title="IUpdater implementation that uses the c fopen function (https://cplusplus.com/reference/cstdio/fopen/...">
<polygon fill="white" stroke="#666666" points="258,-24.5 121,-24.5 121,-5.5 258,-5.5 258,-24.5"/>
<text text-anchor="middle" x="189.5" y="-12.5" font-family="Helvetica,sans-Serif" font-size="10.00">SDCard_Updater&lt; Logger &gt;</text>
</a>
</g>
</g>
<!-- Node1&#45;&gt;Node3 -->
<g id="edge2" class="edge">
<title>Node1&#45;&gt;Node3</title>
<path fill="none" stroke="#63b8ff" d="M139.47,-58.41C152.19,-47.64 168.45,-33.85 178.92,-24.97"/>
<polygon fill="#63b8ff" stroke="#63b8ff" points="137.5,-55.5 132.13,-64.64 142.03,-60.84 137.5,-55.5"/>
</g>
</g>
</svg>
