<?xml version="1.0" encoding="UTF-8" standalone="no"?>
<!DOCTYPE svg PUBLIC "-//W3C//DTD SVG 1.1//EN"
 "http://www.w3.org/Graphics/SVG/1.1/DTD/svg11.dtd">
<!-- Generated by graphviz version 7.0.5 (20221223.1930)
 -->
<!-- Title: Callback&lt; return_typ, argument_types &gt; Pages: 1 -->
<svg width="634pt" height="753pt"
 viewBox="0.00 0.00 634.00 752.93" xmlns="http://www.w3.org/2000/svg" xmlns:xlink="http://www.w3.org/1999/xlink">
<g id="graph0" class="graph" transform="scale(1 1) rotate(0) translate(4 748.93)">
<title>Callback&lt; return_typ, argument_types &gt;</title>
<!-- Node1 -->
<g id="node1" class="node">
<title>Node1</title>
<g id="a_node1"><a xlink:title="General purpose safe callback wrapper. Expects either c&#45;style or c++ style function pointer,...">
<polygon fill="#999999" stroke="#666666" points="108,-363.93 0,-363.93 0,-333.93 108,-333.93 108,-363.93"/>
<text text-anchor="start" x="8" y="-351.93" font-family="Helvetica,sans-Serif" font-size="10.00">Callback&lt; return_typ,</text>
<text text-anchor="middle" x="54" y="-340.93" font-family="Helvetica,sans-Serif" font-size="10.00"> argument_types &gt;</text>
</a>
</g>
</g>
<!-- Node2 -->
<g id="node2" class="node">
<title>Node2</title>
<g id="a_node2"><a xlink:href="classCallback.html" target="_top" xlink:title=" ">
<polygon fill="white" stroke="#666666" points="437,-696.93 302,-696.93 302,-666.93 437,-666.93 437,-696.93"/>
<text text-anchor="start" x="310" y="-684.93" font-family="Helvetica,sans-Serif" font-size="10.00">Callback&lt; void, JsonObject</text>
<text text-anchor="middle" x="369.5" y="-673.93" font-family="Helvetica,sans-Serif" font-size="10.00">Const const &amp; &gt;</text>
</a>
</g>
</g>
<!-- Node1&#45;&gt;Node2 -->
<g id="edge1" class="edge">
<title>Node1&#45;&gt;Node2</title>
<path fill="none" stroke="orange" stroke-dasharray="5,2" d="M57.4,-375.59C64.01,-442.51 84.76,-614.89 126,-651.93 173.1,-694.24 247.71,-697.42 301.74,-692.71"/>
<polygon fill="orange" stroke="orange" points="60.91,-375.51 56.48,-365.89 53.94,-376.17 60.91,-375.51"/>
<text text-anchor="start" x="143" y="-707.93" font-family="Helvetica,sans-Serif" font-size="10.00"> &lt; void, JsonObjectConst</text>
<text text-anchor="middle" x="197.5" y="-696.93" font-family="Helvetica,sans-Serif" font-size="10.00"> const &amp; &gt;</text>
</g>
<!-- Node5 -->
<g id="node5" class="node">
<title>Node5</title>
<g id="a_node5"><a xlink:href="classCallback.html" target="_top" xlink:title=" ">
<polygon fill="white" stroke="#666666" points="414,-648.43 325,-648.43 325,-629.43 414,-629.43 414,-648.43"/>
<text text-anchor="middle" x="369.5" y="-636.43" font-family="Helvetica,sans-Serif" font-size="10.00">Callback&lt; void &gt;</text>
</a>
</g>
</g>
<!-- Node1&#45;&gt;Node5 -->
<g id="edge4" class="edge">
<title>Node1&#45;&gt;Node5</title>
<path fill="none" stroke="orange" stroke-dasharray="5,2" d="M58.43,-375.61C66.77,-435.94 90.07,-580.02 126,-610.93 154.91,-635.81 263.05,-639.55 324.72,-639.57"/>
<polygon fill="orange" stroke="orange" points="61.93,-375.34 57.13,-365.9 54.99,-376.28 61.93,-375.34"/>
<text text-anchor="middle" x="197.5" y="-640.93" font-family="Helvetica,sans-Serif" font-size="10.00"> &lt; void &gt;</text>
</g>
<!-- Node7 -->
<g id="node7" class="node">
<title>Node7</title>
<g id="a_node7"><a xlink:href="classCallback.html" target="_top" xlink:title=" ">
<polygon fill="white" stroke="#666666" points="421.5,-610.93 317.5,-610.93 317.5,-580.93 421.5,-580.93 421.5,-610.93"/>
<text text-anchor="start" x="325.5" y="-598.93" font-family="Helvetica,sans-Serif" font-size="10.00">Callback&lt; void, bool</text>
<text text-anchor="middle" x="369.5" y="-587.93" font-family="Helvetica,sans-Serif" font-size="10.00"> const &amp; &gt;</text>
</a>
</g>
</g>
<!-- Node1&#45;&gt;Node7 -->
<g id="edge6" class="edge">
<title>Node1&#45;&gt;Node7</title>
<path fill="none" stroke="orange" stroke-dasharray="5,2" d="M54.82,-375.92C56.11,-423.64 66.31,-522.47 126,-570.93 154.38,-593.98 254.88,-597.31 317.25,-597.03"/>
<polygon fill="orange" stroke="orange" points="58.32,-375.88 54.68,-365.93 51.32,-375.98 58.32,-375.88"/>
<text text-anchor="middle" x="197.5" y="-598.93" font-family="Helvetica,sans-Serif" font-size="10.00"> &lt; void, bool const &amp; &gt;</text>
</g>
<!-- Node9 -->
<g id="node9" class="node">
<title>Node9</title>
<g id="a_node9"><a xlink:href="classCallback.html" target="_top" xlink:title=" ">
<polygon fill="white" stroke="#666666" points="445,-562.93 294,-562.93 294,-532.93 445,-532.93 445,-562.93"/>
<text text-anchor="start" x="302" y="-550.93" font-family="Helvetica,sans-Serif" font-size="10.00">Callback&lt; void, JsonDocument</text>
<text text-anchor="middle" x="369.5" y="-539.93" font-family="Helvetica,sans-Serif" font-size="10.00"> const &amp; &gt;</text>
</a>
</g>
</g>
<!-- Node1&#45;&gt;Node9 -->
<g id="edge8" class="edge">
<title>Node1&#45;&gt;Node9</title>
<path fill="none" stroke="orange" stroke-dasharray="5,2" d="M57.41,-375.55C62.53,-415.02 78.27,-488.25 126,-523.93 151.75,-543.19 232.41,-548.04 293.7,-548.8"/>
<polygon fill="orange" stroke="orange" points="60.9,-375.27 56.29,-365.74 53.94,-376.07 60.9,-375.27"/>
<text text-anchor="start" x="147.5" y="-561.93" font-family="Helvetica,sans-Serif" font-size="10.00"> &lt; void, JsonDocument</text>
<text text-anchor="middle" x="197.5" y="-550.93" font-family="Helvetica,sans-Serif" font-size="10.00"> const &amp; &gt;</text>
</g>
<!-- Node12 -->
<g id="node12" class="node">
<title>Node12</title>
<g id="a_node12"><a xlink:href="classCallback.html" target="_top" xlink:title=" ">
<polygon fill="white" stroke="#666666" points="452,-514.93 287,-514.93 287,-484.93 452,-484.93 452,-514.93"/>
<text text-anchor="start" x="295" y="-502.93" font-family="Helvetica,sans-Serif" font-size="10.00">Callback&lt; void, JsonVariant</text>
<text text-anchor="middle" x="369.5" y="-491.93" font-family="Helvetica,sans-Serif" font-size="10.00">Const const &amp;, JsonDocument &amp; &gt;</text>
</a>
</g>
</g>
<!-- Node1&#45;&gt;Node12 -->
<g id="edge11" class="edge">
<title>Node1&#45;&gt;Node12</title>
<path fill="none" stroke="orange" stroke-dasharray="5,2" d="M61.42,-375.04C70.37,-405.36 89.73,-454.22 126,-477.93 151.78,-494.79 226.81,-499.59 286.66,-500.59"/>
<polygon fill="orange" stroke="orange" points="64.82,-374.22 58.79,-365.51 58.07,-376.08 64.82,-374.22"/>
<text text-anchor="start" x="135.5" y="-513.93" font-family="Helvetica,sans-Serif" font-size="10.00"> &lt; void, JsonVariantConst</text>
<text text-anchor="middle" x="197.5" y="-502.93" font-family="Helvetica,sans-Serif" font-size="10.00"> const &amp;, JsonDocument &amp; &gt;</text>
</g>
<!-- Node14 -->
<g id="node14" class="node">
<title>Node14</title>
<g id="a_node14"><a xlink:href="classCallback.html" target="_top" xlink:title=" ">
<polygon fill="white" stroke="#666666" points="441,-466.43 298,-466.43 298,-425.43 441,-425.43 441,-466.43"/>
<text text-anchor="start" x="306" y="-454.43" font-family="Helvetica,sans-Serif" font-size="10.00">Callback&lt; bool, char</text>
<text text-anchor="start" x="306" y="-443.43" font-family="Helvetica,sans-Serif" font-size="10.00"> const *const, JsonDocument</text>
<text text-anchor="middle" x="369.5" y="-432.43" font-family="Helvetica,sans-Serif" font-size="10.00"> const &amp;, size_t const &amp; &gt;</text>
</a>
</g>
</g>
<!-- Node1&#45;&gt;Node14 -->
<g id="edge13" class="edge">
<title>Node1&#45;&gt;Node14</title>
<path fill="none" stroke="orange" stroke-dasharray="5,2" d="M76.49,-372.11C89.56,-384.74 107.31,-399.49 126,-407.93 180.37,-432.5 247.8,-441.56 297.74,-444.73"/>
<polygon fill="orange" stroke="orange" points="79.21,-369.88 69.68,-365.27 74.25,-374.82 79.21,-369.88"/>
<text text-anchor="start" x="142.5" y="-466.93" font-family="Helvetica,sans-Serif" font-size="10.00"> &lt; bool, char const</text>
<text text-anchor="start" x="142.5" y="-455.93" font-family="Helvetica,sans-Serif" font-size="10.00"> *const, JsonDocument</text>
<text text-anchor="middle" x="197.5" y="-444.93" font-family="Helvetica,sans-Serif" font-size="10.00"> const &amp;, size_t const &amp; &gt;</text>
</g>
<!-- Node15 -->
<g id="node15" class="node">
<title>Node15</title>
<g id="a_node15"><a xlink:href="classCallback.html" target="_top" xlink:title=" ">
<polygon fill="white" stroke="#666666" points="421.5,-406.93 317.5,-406.93 317.5,-376.93 421.5,-376.93 421.5,-406.93"/>
<text text-anchor="start" x="325.5" y="-394.93" font-family="Helvetica,sans-Serif" font-size="10.00">Callback&lt; bool, char</text>
<text text-anchor="middle" x="369.5" y="-383.93" font-family="Helvetica,sans-Serif" font-size="10.00"> const *const &gt;</text>
</a>
</g>
</g>
<!-- Node1&#45;&gt;Node15 -->
<g id="edge14" class="edge">
<title>Node1&#45;&gt;Node15</title>
<path fill="none" stroke="orange" stroke-dasharray="5,2" d="M119.48,-362.83C121.68,-363.21 123.86,-363.58 126,-363.93 191.67,-374.64 268,-382.74 317.21,-387.41"/>
<polygon fill="orange" stroke="orange" points="120.36,-359.43 109.89,-361.05 119.08,-366.31 120.36,-359.43"/>
<text text-anchor="start" x="158" y="-395.93" font-family="Helvetica,sans-Serif" font-size="10.00"> &lt; bool, char const</text>
<text text-anchor="middle" x="197.5" y="-384.93" font-family="Helvetica,sans-Serif" font-size="10.00"> *const &gt;</text>
</g>
<!-- Node16 -->
<g id="node16" class="node">
<title>Node16</title>
<g id="a_node16"><a xlink:href="classCallback.html" target="_top" xlink:title=" ">
<polygon fill="white" stroke="#666666" points="420.5,-358.43 318.5,-358.43 318.5,-339.43 420.5,-339.43 420.5,-358.43"/>
<text text-anchor="middle" x="369.5" y="-346.43" font-family="Helvetica,sans-Serif" font-size="10.00">Callback&lt; size_t * &gt;</text>
</a>
</g>
</g>
<!-- Node1&#45;&gt;Node16 -->
<g id="edge15" class="edge">
<title>Node1&#45;&gt;Node16</title>
<path fill="none" stroke="orange" stroke-dasharray="5,2" d="M119.58,-348.93C178.46,-348.93 264.24,-348.93 318.17,-348.93"/>
<polygon fill="orange" stroke="orange" points="119.69,-345.43 109.69,-348.93 119.69,-352.43 119.69,-345.43"/>
<text text-anchor="middle" x="197.5" y="-351.93" font-family="Helvetica,sans-Serif" font-size="10.00"> &lt; size_t * &gt;</text>
</g>
<!-- Node17 -->
<g id="node17" class="node">
<title>Node17</title>
<g id="a_node17"><a xlink:href="classCallback.html" target="_top" xlink:title=" ">
<polygon fill="white" stroke="#666666" points="422.5,-320.93 316.5,-320.93 316.5,-290.93 422.5,-290.93 422.5,-320.93"/>
<text text-anchor="start" x="324.5" y="-308.93" font-family="Helvetica,sans-Serif" font-size="10.00">Callback&lt; void, IAPI</text>
<text text-anchor="middle" x="369.5" y="-297.93" font-family="Helvetica,sans-Serif" font-size="10.00">_Implementation &amp; &gt;</text>
</a>
</g>
</g>
<!-- Node1&#45;&gt;Node17 -->
<g id="edge16" class="edge">
<title>Node1&#45;&gt;Node17</title>
<path fill="none" stroke="orange" stroke-dasharray="5,2" d="M119.48,-335.04C121.68,-334.65 123.86,-334.28 126,-333.93 191.25,-323.3 267.03,-315.23 316.27,-310.55"/>
<polygon fill="orange" stroke="orange" points="119.08,-331.56 109.89,-336.82 120.36,-338.44 119.08,-331.56"/>
<text text-anchor="middle" x="197.5" y="-336.93" font-family="Helvetica,sans-Serif" font-size="10.00"> &lt; void, IAPI_Implementation &amp; &gt;</text>
</g>
<!-- Node18 -->
<g id="node18" class="node">
<title>Node18</title>
<g id="a_node18"><a xlink:href="classCallback.html" target="_top" xlink:title=" ">
<polygon fill="white" stroke="#666666" points="431,-272.43 308,-272.43 308,-231.43 431,-231.43 431,-272.43"/>
<text text-anchor="start" x="316" y="-260.43" font-family="Helvetica,sans-Serif" font-size="10.00">Callback&lt; bool, char</text>
<text text-anchor="start" x="316" y="-249.43" font-family="Helvetica,sans-Serif" font-size="10.00"> const *const, char const</text>
<text text-anchor="middle" x="369.5" y="-238.43" font-family="Helvetica,sans-Serif" font-size="10.00"> *const &gt;</text>
</a>
</g>
</g>
<!-- Node1&#45;&gt;Node18 -->
<g id="edge17" class="edge">
<title>Node1&#45;&gt;Node18</title>
<path fill="none" stroke="orange" stroke-dasharray="5,2" d="M72.07,-324.76C84.92,-308.6 104.05,-288.43 126,-277.93 183.3,-250.53 256.71,-246.32 307.67,-247.52"/>
<polygon fill="orange" stroke="orange" points="69.45,-322.43 66.17,-332.51 75.01,-326.67 69.45,-322.43"/>
<text text-anchor="start" x="157" y="-302.93" font-family="Helvetica,sans-Serif" font-size="10.00"> &lt; bool, char const</text>
<text text-anchor="start" x="157" y="-291.93" font-family="Helvetica,sans-Serif" font-size="10.00"> *const, char const</text>
<text text-anchor="middle" x="197.5" y="-280.93" font-family="Helvetica,sans-Serif" font-size="10.00"> *const &gt;</text>
</g>
<!-- Node19 -->
<g id="node19" class="node">
<title>Node19</title>
<g id="a_node19"><a xlink:href="classCallback.html" target="_top" xlink:title=" ">
<polygon fill="white" stroke="#666666" points="422,-213.43 317,-213.43 317,-194.43 422,-194.43 422,-213.43"/>
<text text-anchor="middle" x="369.5" y="-201.43" font-family="Helvetica,sans-Serif" font-size="10.00">Callback&lt; uint16_t &gt;</text>
</a>
</g>
</g>
<!-- Node1&#45;&gt;Node19 -->
<g id="edge18" class="edge">
<title>Node1&#45;&gt;Node19</title>
<path fill="none" stroke="orange" stroke-dasharray="5,2" d="M63.12,-322.86C73.16,-295.33 93.1,-253.03 126,-231.93 183.44,-195.1 264.54,-193.53 316.83,-197.42"/>
<polygon fill="orange" stroke="orange" points="59.84,-321.63 59.9,-332.23 66.46,-323.91 59.84,-321.63"/>
<text text-anchor="middle" x="197.5" y="-234.93" font-family="Helvetica,sans-Serif" font-size="10.00"> &lt; uint16_t &gt;</text>
</g>
<!-- Node20 -->
<g id="node20" class="node">
<title>Node20</title>
<g id="a_node20"><a xlink:href="classCallback.html" target="_top" xlink:title=" ">
<polygon fill="white" stroke="#666666" points="425.5,-175.93 313.5,-175.93 313.5,-145.93 425.5,-145.93 425.5,-175.93"/>
<text text-anchor="start" x="321.5" y="-163.93" font-family="Helvetica,sans-Serif" font-size="10.00">Callback&lt; bool, uint16</text>
<text text-anchor="middle" x="369.5" y="-152.93" font-family="Helvetica,sans-Serif" font-size="10.00">_t, uint16_t &gt;</text>
</a>
</g>
</g>
<!-- Node1&#45;&gt;Node20 -->
<g id="edge19" class="edge">
<title>Node1&#45;&gt;Node20</title>
<path fill="none" stroke="orange" stroke-dasharray="5,2" d="M57.81,-322.44C63.4,-284.2 79.71,-214.44 126,-180.93 180.15,-141.73 260.02,-143.35 313.12,-150.31"/>
<polygon fill="orange" stroke="orange" points="54.36,-321.8 56.54,-332.16 61.3,-322.7 54.36,-321.8"/>
<text text-anchor="middle" x="197.5" y="-183.93" font-family="Helvetica,sans-Serif" font-size="10.00"> &lt; bool, uint16_t, uint16_t &gt;</text>
</g>
<!-- Node21 -->
<g id="node21" class="node">
<title>Node21</title>
<g id="a_node21"><a xlink:href="classCallback.html" target="_top" xlink:title=" ">
<polygon fill="white" stroke="#666666" points="436.5,-127.93 302.5,-127.93 302.5,-97.93 436.5,-97.93 436.5,-127.93"/>
<text text-anchor="start" x="310.5" y="-115.93" font-family="Helvetica,sans-Serif" font-size="10.00">Callback&lt; bool, size</text>
<text text-anchor="middle" x="369.5" y="-104.93" font-family="Helvetica,sans-Serif" font-size="10.00">_t const &amp;, size_t const &amp; &gt;</text>
</a>
</g>
</g>
<!-- Node1&#45;&gt;Node21 -->
<g id="edge20" class="edge">
<title>Node1&#45;&gt;Node21</title>
<path fill="none" stroke="orange" stroke-dasharray="5,2" d="M54.16,-322.38C54.22,-273.14 62.28,-168.32 126,-119.93 178.91,-79.75 258.7,-86.43 312.14,-97.48"/>
<polygon fill="orange" stroke="orange" points="50.66,-322.16 54.27,-332.12 57.66,-322.08 50.66,-322.16"/>
<text text-anchor="start" x="154.5" y="-133.93" font-family="Helvetica,sans-Serif" font-size="10.00"> &lt; bool, size_t const</text>
<text text-anchor="middle" x="197.5" y="-122.93" font-family="Helvetica,sans-Serif" font-size="10.00"> &amp;, size_t const &amp; &gt;</text>
</g>
<!-- Node22 -->
<g id="node22" class="node">
<title>Node22</title>
<g id="a_node22"><a xlink:href="classCallback.html" target="_top" xlink:title=" ">
<polygon fill="white" stroke="#666666" points="414,-79.43 325,-79.43 325,-60.43 414,-60.43 414,-79.43"/>
<text text-anchor="middle" x="369.5" y="-67.43" font-family="Helvetica,sans-Serif" font-size="10.00">Callback&lt; bool &gt;</text>
</a>
</g>
</g>
<!-- Node1&#45;&gt;Node22 -->
<g id="edge21" class="edge">
<title>Node1&#45;&gt;Node22</title>
<path fill="none" stroke="orange" stroke-dasharray="5,2" d="M57.82,-322.41C65.08,-259.63 86.69,-104.9 126,-73.93 155.73,-50.51 263.26,-58.01 324.69,-64.55"/>
<polygon fill="orange" stroke="orange" points="54.36,-321.84 56.72,-332.17 61.32,-322.62 54.36,-321.84"/>
<text text-anchor="middle" x="197.5" y="-76.93" font-family="Helvetica,sans-Serif" font-size="10.00"> &lt; bool &gt;</text>
</g>
<!-- Node23 -->
<g id="node23" class="node">
<title>Node23</title>
<g id="a_node23"><a xlink:href="classCallback.html" target="_top" xlink:title=" ">
<polygon fill="white" stroke="#666666" points="436.5,-40.93 302.5,-40.93 302.5,-10.93 436.5,-10.93 436.5,-40.93"/>
<text text-anchor="start" x="310.5" y="-28.93" font-family="Helvetica,sans-Serif" font-size="10.00">Callback&lt; void, size</text>
<text text-anchor="middle" x="369.5" y="-17.93" font-family="Helvetica,sans-Serif" font-size="10.00">_t const &amp;, size_t const &amp; &gt;</text>
</a>
</g>
</g>
<!-- Node1&#45;&gt;Node23 -->
<g id="edge22" class="edge">
<title>Node1&#45;&gt;Node23</title>
<path fill="none" stroke="orange" stroke-dasharray="5,2" d="M56.9,-322.3C62.46,-253 81.18,-69.88 126,-32.93 178.57,10.39 261.52,1.76 315.47,-10.46"/>
<polygon fill="orange" stroke="orange" points="53.44,-321.75 56.16,-331.98 60.42,-322.28 53.44,-321.75"/>
<text text-anchor="start" x="154.5" y="-46.93" font-family="Helvetica,sans-Serif" font-size="10.00"> &lt; void, size_t const</text>
<text text-anchor="middle" x="197.5" y="-35.93" font-family="Helvetica,sans-Serif" font-size="10.00"> &amp;, size_t const &amp; &gt;</text>
</g>
<!-- Node3 -->
<g id="node3" class="node">
<title>Node3</title>
<g id="a_node3"><a xlink:href="classAttribute__Request__Callback.html" target="_top" xlink:title="Client&#45;side or shared attributes request callback wrapper, contains the needed configuration settings...">
<polygon fill="white" stroke="#666666" points="626,-744.93 489,-744.93 489,-714.93 626,-714.93 626,-744.93"/>
<text text-anchor="start" x="497" y="-732.93" font-family="Helvetica,sans-Serif" font-size="10.00">Attribute_Request_Callback</text>
<text text-anchor="middle" x="557.5" y="-721.93" font-family="Helvetica,sans-Serif" font-size="10.00">&lt; MaxAttributes &gt;</text>
</a>
</g>
</g>
<!-- Node2&#45;&gt;Node3 -->
<g id="edge2" class="edge">
<title>Node2&#45;&gt;Node3</title>
<path fill="none" stroke="#63b8ff" d="M441.28,-700.2C459.57,-704.92 479.07,-709.95 496.74,-714.51"/>
<polygon fill="#63b8ff" stroke="#63b8ff" points="442.4,-696.87 431.84,-697.76 440.65,-703.65 442.4,-696.87"/>
</g>
<!-- Node4 -->
<g id="node4" class="node">
<title>Node4</title>
<g id="a_node4"><a xlink:href="classShared__Attribute__Callback.html" target="_top" xlink:title="Shared attribute update callback wrapper, contains the needed configuration settings to create the re...">
<polygon fill="white" stroke="#666666" points="623.5,-696.93 491.5,-696.93 491.5,-666.93 623.5,-666.93 623.5,-696.93"/>
<text text-anchor="start" x="499.5" y="-684.93" font-family="Helvetica,sans-Serif" font-size="10.00">Shared_Attribute_Callback</text>
<text text-anchor="middle" x="557.5" y="-673.93" font-family="Helvetica,sans-Serif" font-size="10.00">&lt; MaxAttributes &gt;</text>
</a>
</g>
</g>
<!-- Node2&#45;&gt;Node4 -->
<g id="edge3" class="edge">
<title>Node2&#45;&gt;Node4</title>
<path fill="none" stroke="#63b8ff" d="M448.61,-681.93C462.77,-681.93 477.4,-681.93 491.14,-681.93"/>
<polygon fill="#63b8ff" stroke="#63b8ff" points="448.9,-678.43 438.9,-681.93 448.9,-685.43 448.9,-678.43"/>
</g>
<!-- Node6 -->
<g id="node6" class="node">
<title>Node6</title>
<g id="a_node6"><a xlink:href="classCallback__Watchdog.html" target="_top" xlink:title="Wrapper class which allows to start a timer and if it is not stopped in the given time then the callb...">
<polygon fill="white" stroke="#666666" points="609,-648.43 506,-648.43 506,-629.43 609,-629.43 609,-648.43"/>
<text text-anchor="middle" x="557.5" y="-636.43" font-family="Helvetica,sans-Serif" font-size="10.00">Callback_Watchdog</text>
</a>
</g>
</g>
<!-- Node5&#45;&gt;Node6 -->
<g id="edge5" class="edge">
<title>Node5&#45;&gt;Node6</title>
<path fill="none" stroke="#63b8ff" d="M425.41,-638.93C450.78,-638.93 480.72,-638.93 505.58,-638.93"/>
<polygon fill="#63b8ff" stroke="#63b8ff" points="425.62,-635.43 415.62,-638.93 425.62,-642.43 425.62,-635.43"/>
</g>
<!-- Node8 -->
<g id="node8" class="node">
<title>Node8</title>
<g id="a_node8"><a xlink:href="classOTA__Update__Callback.html" target="_top" xlink:title="Over the air firmware update callback wrapper, contains the needed configuration settings to create t...">
<polygon fill="white" stroke="#666666" points="615.5,-608.43 499.5,-608.43 499.5,-589.43 615.5,-589.43 615.5,-608.43"/>
<text text-anchor="middle" x="557.5" y="-596.43" font-family="Helvetica,sans-Serif" font-size="10.00">OTA_Update_Callback</text>
</a>
</g>
</g>
<!-- Node7&#45;&gt;Node8 -->
<g id="edge7" class="edge">
<title>Node7&#45;&gt;Node8</title>
<path fill="none" stroke="#63b8ff" d="M433.07,-596.94C454.43,-597.29 478.2,-597.67 499.13,-598.01"/>
<polygon fill="#63b8ff" stroke="#63b8ff" points="433.39,-593.45 423.33,-596.79 433.27,-600.45 433.39,-593.45"/>
</g>
<!-- Node10 -->
<g id="node10" class="node">
<title>Node10</title>
<g id="a_node10"><a xlink:href="classProvision__Callback.html" target="_top" xlink:title="Provisioning callback wrapper, contains the needed configuration settings to create the request that ...">
<polygon fill="white" stroke="#666666" points="607.5,-571.43 507.5,-571.43 507.5,-552.43 607.5,-552.43 607.5,-571.43"/>
<text text-anchor="middle" x="557.5" y="-559.43" font-family="Helvetica,sans-Serif" font-size="10.00">Provision_Callback</text>
</a>
</g>
</g>
<!-- Node9&#45;&gt;Node10 -->
<g id="edge9" class="edge">
<title>Node9&#45;&gt;Node10</title>
<path fill="none" stroke="#63b8ff" d="M456.66,-554.42C473.97,-555.72 491.6,-557.05 507.13,-558.22"/>
<polygon fill="#63b8ff" stroke="#63b8ff" points="457.09,-550.94 446.86,-553.68 456.57,-557.92 457.09,-550.94"/>
</g>
<!-- Node11 -->
<g id="node11" class="node">
<title>Node11</title>
<g id="a_node11"><a xlink:href="classRPC__Request__Callback.html" target="_top" xlink:title="Client&#45;side RPC callback wrapper, contains the needed configuration settings to create the request th...">
<polygon fill="white" stroke="#666666" points="618,-534.43 497,-534.43 497,-515.43 618,-515.43 618,-534.43"/>
<text text-anchor="middle" x="557.5" y="-522.43" font-family="Helvetica,sans-Serif" font-size="10.00">RPC_Request_Callback</text>
</a>
</g>
</g>
<!-- Node9&#45;&gt;Node11 -->
<g id="edge10" class="edge">
<title>Node9&#45;&gt;Node11</title>
<path fill="none" stroke="#63b8ff" d="M456.64,-537.28C470.17,-535.61 483.89,-533.91 496.65,-532.33"/>
<polygon fill="#63b8ff" stroke="#63b8ff" points="456.35,-533.79 446.85,-538.49 457.21,-540.74 456.35,-533.79"/>
</g>
<!-- Node13 -->
<g id="node13" class="node">
<title>Node13</title>
<g id="a_node13"><a xlink:href="classRPC__Callback.html" target="_top" xlink:title="Server&#45;side RPC callback wrapper, contains the needed configuration settings to create the request th...">
<polygon fill="white" stroke="#666666" points="597.5,-497.43 517.5,-497.43 517.5,-478.43 597.5,-478.43 597.5,-497.43"/>
<text text-anchor="middle" x="557.5" y="-485.43" font-family="Helvetica,sans-Serif" font-size="10.00">RPC_Callback</text>
</a>
</g>
</g>
<!-- Node12&#45;&gt;Node13 -->
<g id="edge12" class="edge">
<title>Node12&#45;&gt;Node13</title>
<path fill="none" stroke="#63b8ff" d="M463.8,-493.92C482.73,-492.69 501.65,-491.47 517.41,-490.46"/>
<polygon fill="#63b8ff" stroke="#63b8ff" points="463.62,-490.42 453.86,-494.56 464.07,-497.41 463.62,-490.42"/>
</g>
</g>
</svg>
