<?xml version="1.0" encoding="UTF-8" standalone="no"?>
<!DOCTYPE svg PUBLIC "-//W3C//DTD SVG 1.1//EN"
 "http://www.w3.org/Graphics/SVG/1.1/DTD/svg11.dtd">
<!-- Generated by graphviz version 7.0.5 (20221223.1930)
 -->
<!-- Title: Callback_Watchdog Pages: 1 -->
<svg width="121pt" height="160pt"
 viewBox="0.00 0.00 121.00 160.00" xmlns="http://www.w3.org/2000/svg" xmlns:xlink="http://www.w3.org/1999/xlink">
<g id="graph0" class="graph" transform="scale(1 1) rotate(0) translate(4 156)">
<title>Callback_Watchdog</title>
<!-- Node1 -->
<g id="node1" class="node">
<title>Node1</title>
<g id="a_node1"><a xlink:title="Wrapper class which allows to start a timer and if it is not stopped in the given time then the inter...">
<polygon fill="#999999" stroke="#666666" points="108,-19 5,-19 5,0 108,0 108,-19"/>
<text text-anchor="middle" x="56.5" y="-7" font-family="Helvetica,sans-Serif" font-size="10.00">Callback_Watchdog</text>
</a>
</g>
</g>
<!-- Node2 -->
<g id="node2" class="node">
<title>Node2</title>
<g id="a_node2"><a xlink:href="classCallback.html" target="_top" xlink:title=" ">
<polygon fill="white" stroke="#666666" points="101,-75 12,-75 12,-56 101,-56 101,-75"/>
<text text-anchor="middle" x="56.5" y="-63" font-family="Helvetica,sans-Serif" font-size="10.00">Callback&lt; void &gt;</text>
</a>
</g>
</g>
<!-- Node2&#45;&gt;Node1 -->
<g id="edge1" class="edge">
<title>Node2&#45;&gt;Node1</title>
<path fill="none" stroke="#63b8ff" d="M56.5,-44.11C56.5,-35.52 56.5,-25.97 56.5,-19.25"/>
<polygon fill="#63b8ff" stroke="#63b8ff" points="53,-44.07 56.5,-54.07 60,-44.07 53,-44.07"/>
</g>
<!-- Node3 -->
<g id="node3" class="node">
<title>Node3</title>
<g id="a_node3"><a xlink:href="classCallback.html" target="_top" xlink:title="General purpose safe callback wrapper. Expects either c&#45;style or c++ style function pointer,...">
<polygon fill="white" stroke="#666666" points="113,-152 0,-152 0,-122 113,-122 113,-152"/>
<text text-anchor="start" x="8" y="-140" font-family="Helvetica,sans-Serif" font-size="10.00">Callback&lt; return_type,</text>
<text text-anchor="middle" x="56.5" y="-129" font-family="Helvetica,sans-Serif" font-size="10.00"> argument_types &gt;</text>
</a>
</g>
</g>
<!-- Node3&#45;&gt;Node2 -->
<g id="edge2" class="edge">
<title>Node3&#45;&gt;Node2</title>
<path fill="none" stroke="orange" stroke-dasharray="5,2" d="M56.5,-110.46C56.5,-98.07 56.5,-83.99 56.5,-75.18"/>
<polygon fill="orange" stroke="orange" points="53,-110.09 56.5,-120.09 60,-110.09 53,-110.09"/>
<text text-anchor="middle" x="75" y="-96" font-family="Helvetica,sans-Serif" font-size="10.00"> &lt; void &gt;</text>
</g>
</g>
</svg>
