<?xml version="1.0" encoding="UTF-8" standalone="no"?>
<!DOCTYPE svg PUBLIC "-//W3C//DTD SVG 1.1//EN"
 "http://www.w3.org/Graphics/SVG/1.1/DTD/svg11.dtd">
<!-- Generated by graphviz version 7.0.5 (20221223.1930)
 -->
<!-- Title: Callback&lt; return_type, argument_types &gt; Pages: 1 -->
<!--zoomable 753 -->
<svg id="main" version="1.1" xmlns="http://www.w3.org/2000/svg" xmlns:xlink="http://www.w3.org/1999/xlink" xml:space="preserve" onload="init(evt)">
<style type="text/css"><![CDATA[
.edge:hover path { stroke: red; }
.edge:hover polygon { stroke: red; fill: red; }
]]></style>
<script type="text/javascript"><![CDATA[
var edges = document.getElementsByTagName('g');
if (edges && edges.length) {
  for (var i=0;i<edges.length;i++) {
    if (edges[i].id.substr(0,4)=='edge') {
      edges[i].setAttribute('class','edge');
    }
  }
}
]]></script>
        <defs>
                <circle id="rim" cx="0" cy="0" r="7"/>
                <circle id="rim2" cx="0" cy="0" r="3.5"/>
                <g id="zoomPlus">
                        <use xlink:href="#rim" fill="#404040">
                                <set attributeName="fill" to="#808080" begin="zoomplus.mouseover" end="zoomplus.mouseout"/>
                        </use>
                        <path d="M-4,0h8M0,-4v8" fill="none" stroke="white" stroke-width="1.5" pointer-events="none"/>
                </g>
                <g id="zoomMin">
                        <use xlink:href="#rim" fill="#404040">
                                <set attributeName="fill" to="#808080" begin="zoomminus.mouseover" end="zoomminus.mouseout"/>
                        </use>
                        <path d="M-4,0h8" fill="none" stroke="white" stroke-width="1.5" pointer-events="none"/>
                </g>
                <g id="dirArrow">
                        <path fill="none" stroke="white" stroke-width="1.5" d="M0,-3.0v7 M-2.5,-0.5L0,-3.0L2.5,-0.5"/>
                </g>
               <g id="resetDef">
                       <use xlink:href="#rim2" fill="#404040">
                               <set attributeName="fill" to="#808080" begin="reset.mouseover" end="reset.mouseout"/>
                       </use>
               </g>
        </defs>

<script type="text/javascript">
var viewWidth = 639;
var viewHeight = 753;
var sectionId = 'dynsection-0';
</script>
<script xlink:href="svgpan.js"/>
<svg id="graph" class="graph">
<g id="viewport">
<title>Callback&lt; return_type, argument_types &gt;</title>
<!-- Node1 -->
<g id="node1" class="node">
<title>Node1</title>
<g id="a_node1"><a xlink:title="General purpose safe callback wrapper. Expects either c&#45;style or c++ style function pointer,...">
<polygon fill="#999999" stroke="#666666" points="113,-363.8 0,-363.8 0,-333.8 113,-333.8 113,-363.8"/>
<text text-anchor="start" x="8" y="-351.8" font-family="Helvetica,sans-Serif" font-size="10.00">Callback&lt; return_type,</text>
<text text-anchor="middle" x="56.5" y="-340.8" font-family="Helvetica,sans-Serif" font-size="10.00"> argument_types &gt;</text>
</a>
</g>
</g>
<!-- Node2 -->
<g id="node2" class="node">
<title>Node2</title>
<g id="a_node2"><a xlink:href="classCallback.html" target="_top" xlink:title=" ">
<polygon fill="white" stroke="#666666" points="442,-696.8 307,-696.8 307,-666.8 442,-666.8 442,-696.8"/>
<text text-anchor="start" x="315" y="-684.8" font-family="Helvetica,sans-Serif" font-size="10.00">Callback&lt; void, JsonObject</text>
<text text-anchor="middle" x="374.5" y="-673.8" font-family="Helvetica,sans-Serif" font-size="10.00">Const const &amp; &gt;</text>
</a>
</g>
</g>
<!-- Node1&#45;&gt;Node2 -->
<g id="edge1" class="edge">
<title>Node1&#45;&gt;Node2</title>
<path fill="none" stroke="orange" stroke-dasharray="5,2" d="M60.13,-375.46C67.32,-442.41 89.53,-614.84 131,-651.8 178.19,-693.85 252.6,-697.11 306.55,-692.49"/>
<polygon fill="orange" stroke="orange" points="63.64,-375.34 59.12,-365.75 56.68,-376.06 63.64,-375.34"/>
<text text-anchor="start" x="148" y="-707.8" font-family="Helvetica,sans-Serif" font-size="10.00"> &lt; void, JsonObjectConst</text>
<text text-anchor="middle" x="202.5" y="-696.8" font-family="Helvetica,sans-Serif" font-size="10.00"> const &amp; &gt;</text>
</g>
<!-- Node5 -->
<g id="node5" class="node">
<title>Node5</title>
<g id="a_node5"><a xlink:href="classCallback.html" target="_top" xlink:title=" ">
<polygon fill="white" stroke="#666666" points="419,-648.3 330,-648.3 330,-629.3 419,-629.3 419,-648.3"/>
<text text-anchor="middle" x="374.5" y="-636.3" font-family="Helvetica,sans-Serif" font-size="10.00">Callback&lt; void &gt;</text>
</a>
</g>
</g>
<!-- Node1&#45;&gt;Node5 -->
<g id="edge4" class="edge">
<title>Node1&#45;&gt;Node5</title>
<path fill="none" stroke="orange" stroke-dasharray="5,2" d="M61.2,-375.48C70.13,-435.84 94.85,-579.97 131,-610.8 160.02,-635.55 268.12,-639.33 329.75,-639.4"/>
<polygon fill="orange" stroke="orange" points="64.69,-375.16 59.79,-365.77 57.76,-376.16 64.69,-375.16"/>
<text text-anchor="middle" x="202.5" y="-640.8" font-family="Helvetica,sans-Serif" font-size="10.00"> &lt; void &gt;</text>
</g>
<!-- Node7 -->
<g id="node7" class="node">
<title>Node7</title>
<g id="a_node7"><a xlink:href="classCallback.html" target="_top" xlink:title=" ">
<polygon fill="white" stroke="#666666" points="426.5,-610.8 322.5,-610.8 322.5,-580.8 426.5,-580.8 426.5,-610.8"/>
<text text-anchor="start" x="330.5" y="-598.8" font-family="Helvetica,sans-Serif" font-size="10.00">Callback&lt; void, bool</text>
<text text-anchor="middle" x="374.5" y="-587.8" font-family="Helvetica,sans-Serif" font-size="10.00"> const &amp; &gt;</text>
</a>
</g>
</g>
<!-- Node1&#45;&gt;Node7 -->
<g id="edge6" class="edge">
<title>Node1&#45;&gt;Node7</title>
<path fill="none" stroke="orange" stroke-dasharray="5,2" d="M57.63,-375.46C59.45,-423.1 70.72,-522.36 131,-570.8 159.46,-593.66 259.67,-597.06 322.01,-596.85"/>
<polygon fill="orange" stroke="orange" points="61.13,-375.42 57.38,-365.51 54.14,-375.6 61.13,-375.42"/>
<text text-anchor="middle" x="202.5" y="-598.8" font-family="Helvetica,sans-Serif" font-size="10.00"> &lt; void, bool const &amp; &gt;</text>
</g>
<!-- Node9 -->
<g id="node9" class="node">
<title>Node9</title>
<g id="a_node9"><a xlink:href="classCallback.html" target="_top" xlink:title=" ">
<polygon fill="white" stroke="#666666" points="450,-562.8 299,-562.8 299,-532.8 450,-532.8 450,-562.8"/>
<text text-anchor="start" x="307" y="-550.8" font-family="Helvetica,sans-Serif" font-size="10.00">Callback&lt; void, JsonDocument</text>
<text text-anchor="middle" x="374.5" y="-539.8" font-family="Helvetica,sans-Serif" font-size="10.00"> const &amp; &gt;</text>
</a>
</g>
</g>
<!-- Node1&#45;&gt;Node9 -->
<g id="edge8" class="edge">
<title>Node1&#45;&gt;Node9</title>
<path fill="none" stroke="orange" stroke-dasharray="5,2" d="M60.3,-375.43C66,-414.94 82.81,-488.22 131,-523.8 156.87,-542.89 237.51,-547.77 298.76,-548.59"/>
<polygon fill="orange" stroke="orange" points="63.78,-375.08 59.03,-365.61 56.84,-375.98 63.78,-375.08"/>
<text text-anchor="start" x="152.5" y="-561.8" font-family="Helvetica,sans-Serif" font-size="10.00"> &lt; void, JsonDocument</text>
<text text-anchor="middle" x="202.5" y="-550.8" font-family="Helvetica,sans-Serif" font-size="10.00"> const &amp; &gt;</text>
</g>
<!-- Node12 -->
<g id="node12" class="node">
<title>Node12</title>
<g id="a_node12"><a xlink:href="classCallback.html" target="_top" xlink:title=" ">
<polygon fill="white" stroke="#666666" points="457,-514.8 292,-514.8 292,-484.8 457,-484.8 457,-514.8"/>
<text text-anchor="start" x="300" y="-502.8" font-family="Helvetica,sans-Serif" font-size="10.00">Callback&lt; void, JsonVariant</text>
<text text-anchor="middle" x="374.5" y="-491.8" font-family="Helvetica,sans-Serif" font-size="10.00">Const const &amp;, JsonDocument &amp; &gt;</text>
</a>
</g>
</g>
<!-- Node1&#45;&gt;Node12 -->
<g id="edge11" class="edge">
<title>Node1&#45;&gt;Node12</title>
<path fill="none" stroke="orange" stroke-dasharray="5,2" d="M64.42,-374.93C73.95,-405.27 94.26,-454.16 131,-477.8 156.91,-494.46 231.92,-499.28 291.73,-500.34"/>
<polygon fill="orange" stroke="orange" points="67.79,-373.99 61.61,-365.38 61.07,-375.96 67.79,-373.99"/>
<text text-anchor="start" x="140.5" y="-512.8" font-family="Helvetica,sans-Serif" font-size="10.00"> &lt; void, JsonVariantConst</text>
<text text-anchor="middle" x="202.5" y="-501.8" font-family="Helvetica,sans-Serif" font-size="10.00"> const &amp;, JsonDocument &amp; &gt;</text>
</g>
<!-- Node14 -->
<g id="node14" class="node">
<title>Node14</title>
<g id="a_node14"><a xlink:href="classCallback.html" target="_top" xlink:title=" ">
<polygon fill="white" stroke="#666666" points="446,-466.3 303,-466.3 303,-425.3 446,-425.3 446,-466.3"/>
<text text-anchor="start" x="311" y="-454.3" font-family="Helvetica,sans-Serif" font-size="10.00">Callback&lt; bool, char</text>
<text text-anchor="start" x="311" y="-443.3" font-family="Helvetica,sans-Serif" font-size="10.00"> const *const, JsonDocument</text>
<text text-anchor="middle" x="374.5" y="-432.3" font-family="Helvetica,sans-Serif" font-size="10.00"> const &amp; &gt;</text>
</a>
</g>
</g>
<!-- Node1&#45;&gt;Node14 -->
<g id="edge13" class="edge">
<title>Node1&#45;&gt;Node14</title>
<path fill="none" stroke="orange" stroke-dasharray="5,2" d="M80.5,-372.01C94.05,-384.31 112.2,-398.54 131,-406.8 185.56,-430.75 252.82,-440.18 302.65,-443.79"/>
<polygon fill="orange" stroke="orange" points="83.07,-369.63 73.39,-365.32 78.28,-374.73 83.07,-369.63"/>
<text text-anchor="start" x="152" y="-465.8" font-family="Helvetica,sans-Serif" font-size="10.00"> &lt; bool, char const</text>
<text text-anchor="start" x="152" y="-454.8" font-family="Helvetica,sans-Serif" font-size="10.00"> *const, JsonDocument</text>
<text text-anchor="middle" x="202.5" y="-443.8" font-family="Helvetica,sans-Serif" font-size="10.00"> const &amp; &gt;</text>
</g>
<!-- Node15 -->
<g id="node15" class="node">
<title>Node15</title>
<g id="a_node15"><a xlink:href="classCallback.html" target="_top" xlink:title=" ">
<polygon fill="white" stroke="#666666" points="426.5,-406.8 322.5,-406.8 322.5,-376.8 426.5,-376.8 426.5,-406.8"/>
<text text-anchor="start" x="330.5" y="-394.8" font-family="Helvetica,sans-Serif" font-size="10.00">Callback&lt; bool, char</text>
<text text-anchor="middle" x="374.5" y="-383.8" font-family="Helvetica,sans-Serif" font-size="10.00"> const *const &gt;</text>
</a>
</g>
</g>
<!-- Node1&#45;&gt;Node15 -->
<g id="edge14" class="edge">
<title>Node1&#45;&gt;Node15</title>
<path fill="none" stroke="orange" stroke-dasharray="5,2" d="M124.4,-362.7C126.63,-363.08 128.83,-363.45 131,-363.8 196.71,-374.27 273.03,-382.43 322.23,-387.17"/>
<polygon fill="orange" stroke="orange" points="125.14,-359.28 114.68,-360.95 123.9,-366.17 125.14,-359.28"/>
<text text-anchor="start" x="163" y="-394.8" font-family="Helvetica,sans-Serif" font-size="10.00"> &lt; bool, char const</text>
<text text-anchor="middle" x="202.5" y="-383.8" font-family="Helvetica,sans-Serif" font-size="10.00"> *const &gt;</text>
</g>
<!-- Node16 -->
<g id="node16" class="node">
<title>Node16</title>
<g id="a_node16"><a xlink:href="classCallback.html" target="_top" xlink:title=" ">
<polygon fill="white" stroke="#666666" points="425.5,-358.3 323.5,-358.3 323.5,-339.3 425.5,-339.3 425.5,-358.3"/>
<text text-anchor="middle" x="374.5" y="-346.3" font-family="Helvetica,sans-Serif" font-size="10.00">Callback&lt; size_t * &gt;</text>
</a>
</g>
</g>
<!-- Node1&#45;&gt;Node16 -->
<g id="edge15" class="edge">
<title>Node1&#45;&gt;Node16</title>
<path fill="none" stroke="orange" stroke-dasharray="5,2" d="M124.42,-348.8C183.88,-348.8 269.46,-348.8 323.24,-348.8"/>
<polygon fill="orange" stroke="orange" points="124.78,-345.3 114.78,-348.8 124.78,-352.3 124.78,-345.3"/>
<text text-anchor="middle" x="202.5" y="-351.8" font-family="Helvetica,sans-Serif" font-size="10.00"> &lt; size_t * &gt;</text>
</g>
<!-- Node17 -->
<g id="node17" class="node">
<title>Node17</title>
<g id="a_node17"><a xlink:href="classCallback.html" target="_top" xlink:title=" ">
<polygon fill="white" stroke="#666666" points="427.5,-320.8 321.5,-320.8 321.5,-290.8 427.5,-290.8 427.5,-320.8"/>
<text text-anchor="start" x="329.5" y="-308.8" font-family="Helvetica,sans-Serif" font-size="10.00">Callback&lt; void, IAPI</text>
<text text-anchor="middle" x="374.5" y="-297.8" font-family="Helvetica,sans-Serif" font-size="10.00">_Implementation &amp; &gt;</text>
</a>
</g>
</g>
<!-- Node1&#45;&gt;Node17 -->
<g id="edge16" class="edge">
<title>Node1&#45;&gt;Node17</title>
<path fill="none" stroke="orange" stroke-dasharray="5,2" d="M124.4,-334.89C126.63,-334.51 128.83,-334.14 131,-333.8 196.29,-323.38 272.06,-315.26 321.29,-310.51"/>
<polygon fill="orange" stroke="orange" points="123.9,-331.42 114.68,-336.64 125.14,-338.31 123.9,-331.42"/>
<text text-anchor="middle" x="202.5" y="-336.8" font-family="Helvetica,sans-Serif" font-size="10.00"> &lt; void, IAPI_Implementation &amp; &gt;</text>
</g>
<!-- Node18 -->
<g id="node18" class="node">
<title>Node18</title>
<g id="a_node18"><a xlink:href="classCallback.html" target="_top" xlink:title=" ">
<polygon fill="white" stroke="#666666" points="436,-272.3 313,-272.3 313,-231.3 436,-231.3 436,-272.3"/>
<text text-anchor="start" x="321" y="-260.3" font-family="Helvetica,sans-Serif" font-size="10.00">Callback&lt; bool, char</text>
<text text-anchor="start" x="321" y="-249.3" font-family="Helvetica,sans-Serif" font-size="10.00"> const *const, char const</text>
<text text-anchor="middle" x="374.5" y="-238.3" font-family="Helvetica,sans-Serif" font-size="10.00"> *const &gt;</text>
</a>
</g>
</g>
<!-- Node1&#45;&gt;Node18 -->
<g id="edge17" class="edge">
<title>Node1&#45;&gt;Node18</title>
<path fill="none" stroke="orange" stroke-dasharray="5,2" d="M75.68,-324.7C89.1,-308.82 108.83,-289.12 131,-278.8 188.5,-252.01 261.71,-247.32 312.57,-248.04"/>
<polygon fill="orange" stroke="orange" points="73.07,-322.36 69.49,-332.33 78.51,-326.77 73.07,-322.36"/>
<text text-anchor="start" x="162" y="-303.8" font-family="Helvetica,sans-Serif" font-size="10.00"> &lt; bool, char const</text>
<text text-anchor="start" x="162" y="-292.8" font-family="Helvetica,sans-Serif" font-size="10.00"> *const, char const</text>
<text text-anchor="middle" x="202.5" y="-281.8" font-family="Helvetica,sans-Serif" font-size="10.00"> *const &gt;</text>
</g>
<!-- Node19 -->
<g id="node19" class="node">
<title>Node19</title>
<g id="a_node19"><a xlink:href="classCallback.html" target="_top" xlink:title=" ">
<polygon fill="white" stroke="#666666" points="427,-213.3 322,-213.3 322,-194.3 427,-194.3 427,-213.3"/>
<text text-anchor="middle" x="374.5" y="-201.3" font-family="Helvetica,sans-Serif" font-size="10.00">Callback&lt; uint16_t &gt;</text>
</a>
</g>
</g>
<!-- Node1&#45;&gt;Node19 -->
<g id="edge18" class="edge">
<title>Node1&#45;&gt;Node19</title>
<path fill="none" stroke="orange" stroke-dasharray="5,2" d="M66.24,-322.95C76.94,-295.64 97.82,-253.71 131,-232.8 188.75,-196.39 269.77,-194.3 321.96,-197.77"/>
<polygon fill="orange" stroke="orange" points="63,-321.64 62.8,-332.23 69.56,-324.07 63,-321.64"/>
<text text-anchor="middle" x="202.5" y="-235.8" font-family="Helvetica,sans-Serif" font-size="10.00"> &lt; uint16_t &gt;</text>
</g>
<!-- Node20 -->
<g id="node20" class="node">
<title>Node20</title>
<g id="a_node20"><a xlink:href="classCallback.html" target="_top" xlink:title=" ">
<polygon fill="white" stroke="#666666" points="430.5,-175.8 318.5,-175.8 318.5,-145.8 430.5,-145.8 430.5,-175.8"/>
<text text-anchor="start" x="326.5" y="-163.8" font-family="Helvetica,sans-Serif" font-size="10.00">Callback&lt; bool, uint16</text>
<text text-anchor="middle" x="374.5" y="-152.8" font-family="Helvetica,sans-Serif" font-size="10.00">_t, uint16_t &gt;</text>
</a>
</g>
</g>
<!-- Node1&#45;&gt;Node20 -->
<g id="edge19" class="edge">
<title>Node1&#45;&gt;Node20</title>
<path fill="none" stroke="orange" stroke-dasharray="5,2" d="M60.83,-322.17C67.13,-284.08 84.63,-214.99 131,-181.8 185.38,-142.87 265.19,-144.04 318.22,-150.62"/>
<polygon fill="orange" stroke="orange" points="57.39,-321.45 59.38,-331.86 64.32,-322.49 57.39,-321.45"/>
<text text-anchor="middle" x="202.5" y="-184.8" font-family="Helvetica,sans-Serif" font-size="10.00"> &lt; bool, uint16_t, uint16_t &gt;</text>
</g>
<!-- Node21 -->
<g id="node21" class="node">
<title>Node21</title>
<g id="a_node21"><a xlink:href="classCallback.html" target="_top" xlink:title=" ">
<polygon fill="white" stroke="#666666" points="441.5,-127.8 307.5,-127.8 307.5,-97.8 441.5,-97.8 441.5,-127.8"/>
<text text-anchor="start" x="315.5" y="-115.8" font-family="Helvetica,sans-Serif" font-size="10.00">Callback&lt; bool, size</text>
<text text-anchor="middle" x="374.5" y="-104.8" font-family="Helvetica,sans-Serif" font-size="10.00">_t const &amp;, size_t const &amp; &gt;</text>
</a>
</g>
</g>
<!-- Node1&#45;&gt;Node21 -->
<g id="edge20" class="edge">
<title>Node1&#45;&gt;Node21</title>
<path fill="none" stroke="orange" stroke-dasharray="5,2" d="M57.03,-322.34C57.75,-273.31 67.17,-168.92 131,-120.8 183.3,-81.36 261.54,-86.88 314.91,-97.3"/>
<polygon fill="orange" stroke="orange" points="53.53,-322.03 57,-332.04 60.53,-322.05 53.53,-322.03"/>
<text text-anchor="start" x="159.5" y="-134.8" font-family="Helvetica,sans-Serif" font-size="10.00"> &lt; bool, size_t const</text>
<text text-anchor="middle" x="202.5" y="-123.8" font-family="Helvetica,sans-Serif" font-size="10.00"> &amp;, size_t const &amp; &gt;</text>
</g>
<!-- Node22 -->
<g id="node22" class="node">
<title>Node22</title>
<g id="a_node22"><a xlink:href="classCallback.html" target="_top" xlink:title=" ">
<polygon fill="white" stroke="#666666" points="419,-79.3 330,-79.3 330,-60.3 419,-60.3 419,-79.3"/>
<text text-anchor="middle" x="374.5" y="-67.3" font-family="Helvetica,sans-Serif" font-size="10.00">Callback&lt; bool &gt;</text>
</a>
</g>
</g>
<!-- Node1&#45;&gt;Node22 -->
<g id="edge21" class="edge">
<title>Node1&#45;&gt;Node22</title>
<path fill="none" stroke="orange" stroke-dasharray="5,2" d="M60.57,-322.26C68.42,-259.45 91.47,-104.67 131,-73.8 160.82,-50.5 268.32,-57.95 329.71,-64.45"/>
<polygon fill="orange" stroke="orange" points="57.11,-321.67 59.38,-332.02 64.06,-322.52 57.11,-321.67"/>
<text text-anchor="middle" x="202.5" y="-76.8" font-family="Helvetica,sans-Serif" font-size="10.00"> &lt; bool &gt;</text>
</g>
<!-- Node23 -->
<g id="node23" class="node">
<title>Node23</title>
<g id="a_node23"><a xlink:href="classCallback.html" target="_top" xlink:title=" ">
<polygon fill="white" stroke="#666666" points="441.5,-40.8 307.5,-40.8 307.5,-10.8 441.5,-10.8 441.5,-40.8"/>
<text text-anchor="start" x="315.5" y="-28.8" font-family="Helvetica,sans-Serif" font-size="10.00">Callback&lt; void, size</text>
<text text-anchor="middle" x="374.5" y="-17.8" font-family="Helvetica,sans-Serif" font-size="10.00">_t const &amp;, size_t const &amp; &gt;</text>
</a>
</g>
</g>
<!-- Node1&#45;&gt;Node23 -->
<g id="edge22" class="edge">
<title>Node1&#45;&gt;Node23</title>
<path fill="none" stroke="orange" stroke-dasharray="5,2" d="M59.62,-322.15C65.75,-252.81 85.96,-69.63 131,-32.8 183.65,10.27 266.38,1.78 320.29,-10.35"/>
<polygon fill="orange" stroke="orange" points="56.16,-321.58 58.8,-331.84 63.13,-322.17 56.16,-321.58"/>
<text text-anchor="start" x="159.5" y="-46.8" font-family="Helvetica,sans-Serif" font-size="10.00"> &lt; void, size_t const</text>
<text text-anchor="middle" x="202.5" y="-35.8" font-family="Helvetica,sans-Serif" font-size="10.00"> &amp;, size_t const &amp; &gt;</text>
</g>
<!-- Node3 -->
<g id="node3" class="node">
<title>Node3</title>
<g id="a_node3"><a xlink:href="classAttribute__Request__Callback.html" target="_top" xlink:title="Client&#45;side or shared attributes request callback wrapper, contains the needed configuration settings...">
<polygon fill="white" stroke="#666666" points="631,-744.8 494,-744.8 494,-714.8 631,-714.8 631,-744.8"/>
<text text-anchor="start" x="502" y="-732.8" font-family="Helvetica,sans-Serif" font-size="10.00">Attribute_Request_Callback</text>
<text text-anchor="middle" x="562.5" y="-721.8" font-family="Helvetica,sans-Serif" font-size="10.00">&lt; MaxAttributes &gt;</text>
</a>
</g>
</g>
<!-- Node2&#45;&gt;Node3 -->
<g id="edge2" class="edge">
<title>Node2&#45;&gt;Node3</title>
<path fill="none" stroke="#63b8ff" d="M446.28,-700.06C464.57,-704.78 484.07,-709.81 501.74,-714.37"/>
<polygon fill="#63b8ff" stroke="#63b8ff" points="447.4,-696.73 436.84,-697.63 445.65,-703.51 447.4,-696.73"/>
</g>
<!-- Node4 -->
<g id="node4" class="node">
<title>Node4</title>
<g id="a_node4"><a xlink:href="classShared__Attribute__Callback.html" target="_top" xlink:title="Shared attribute update callback wrapper, contains the needed configuration settings to create the re...">
<polygon fill="white" stroke="#666666" points="628.5,-696.8 496.5,-696.8 496.5,-666.8 628.5,-666.8 628.5,-696.8"/>
<text text-anchor="start" x="504.5" y="-684.8" font-family="Helvetica,sans-Serif" font-size="10.00">Shared_Attribute_Callback</text>
<text text-anchor="middle" x="562.5" y="-673.8" font-family="Helvetica,sans-Serif" font-size="10.00">&lt; MaxAttributes &gt;</text>
</a>
</g>
</g>
<!-- Node2&#45;&gt;Node4 -->
<g id="edge3" class="edge">
<title>Node2&#45;&gt;Node4</title>
<path fill="none" stroke="#63b8ff" d="M453.61,-681.8C467.77,-681.8 482.4,-681.8 496.14,-681.8"/>
<polygon fill="#63b8ff" stroke="#63b8ff" points="453.9,-678.3 443.9,-681.8 453.9,-685.3 453.9,-678.3"/>
</g>
<!-- Node6 -->
<g id="node6" class="node">
<title>Node6</title>
<g id="a_node6"><a xlink:href="classCallback__Watchdog.html" target="_top" xlink:title="Wrapper class which allows to start a timer and if it is not stopped in the given time then the inter...">
<polygon fill="white" stroke="#666666" points="614,-648.3 511,-648.3 511,-629.3 614,-629.3 614,-648.3"/>
<text text-anchor="middle" x="562.5" y="-636.3" font-family="Helvetica,sans-Serif" font-size="10.00">Callback_Watchdog</text>
</a>
</g>
</g>
<!-- Node5&#45;&gt;Node6 -->
<g id="edge5" class="edge">
<title>Node5&#45;&gt;Node6</title>
<path fill="none" stroke="#63b8ff" d="M430.41,-638.8C455.78,-638.8 485.72,-638.8 510.58,-638.8"/>
<polygon fill="#63b8ff" stroke="#63b8ff" points="430.62,-635.3 420.62,-638.8 430.62,-642.3 430.62,-635.3"/>
</g>
<!-- Node8 -->
<g id="node8" class="node">
<title>Node8</title>
<g id="a_node8"><a xlink:href="classOTA__Update__Callback.html" target="_top" xlink:title="Over the air firmware update callback wrapper.">
<polygon fill="white" stroke="#666666" points="620.5,-608.3 504.5,-608.3 504.5,-589.3 620.5,-589.3 620.5,-608.3"/>
<text text-anchor="middle" x="562.5" y="-596.3" font-family="Helvetica,sans-Serif" font-size="10.00">OTA_Update_Callback</text>
</a>
</g>
</g>
<!-- Node7&#45;&gt;Node8 -->
<g id="edge7" class="edge">
<title>Node7&#45;&gt;Node8</title>
<path fill="none" stroke="#63b8ff" d="M438.07,-596.8C459.43,-597.15 483.2,-597.53 504.13,-597.87"/>
<polygon fill="#63b8ff" stroke="#63b8ff" points="438.39,-593.31 428.33,-596.65 438.27,-600.31 438.39,-593.31"/>
</g>
<!-- Node10 -->
<g id="node10" class="node">
<title>Node10</title>
<g id="a_node10"><a xlink:href="classProvision__Callback.html" target="_top" xlink:title="Provisioning callback wrapper.">
<polygon fill="white" stroke="#666666" points="612.5,-571.3 512.5,-571.3 512.5,-552.3 612.5,-552.3 612.5,-571.3"/>
<text text-anchor="middle" x="562.5" y="-559.3" font-family="Helvetica,sans-Serif" font-size="10.00">Provision_Callback</text>
</a>
</g>
</g>
<!-- Node9&#45;&gt;Node10 -->
<g id="edge9" class="edge">
<title>Node9&#45;&gt;Node10</title>
<path fill="none" stroke="#63b8ff" d="M461.66,-554.28C478.97,-555.58 496.6,-556.91 512.13,-558.08"/>
<polygon fill="#63b8ff" stroke="#63b8ff" points="462.09,-550.8 451.86,-553.54 461.57,-557.78 462.09,-550.8"/>
</g>
<!-- Node11 -->
<g id="node11" class="node">
<title>Node11</title>
<g id="a_node11"><a xlink:href="classRPC__Request__Callback.html" target="_top" xlink:title="Client&#45;side RPC callback wrapper, contains the needed configuration settings to create the request th...">
<polygon fill="white" stroke="#666666" points="623,-534.3 502,-534.3 502,-515.3 623,-515.3 623,-534.3"/>
<text text-anchor="middle" x="562.5" y="-522.3" font-family="Helvetica,sans-Serif" font-size="10.00">RPC_Request_Callback</text>
</a>
</g>
</g>
<!-- Node9&#45;&gt;Node11 -->
<g id="edge10" class="edge">
<title>Node9&#45;&gt;Node11</title>
<path fill="none" stroke="#63b8ff" d="M461.64,-537.14C475.17,-535.47 488.89,-533.77 501.65,-532.2"/>
<polygon fill="#63b8ff" stroke="#63b8ff" points="461.35,-533.65 451.85,-538.35 462.21,-540.6 461.35,-533.65"/>
</g>
<!-- Node13 -->
<g id="node13" class="node">
<title>Node13</title>
<g id="a_node13"><a xlink:href="classRPC__Callback.html" target="_top" xlink:title="Server&#45;side RPC callback wrapper, contains the needed configuration settings to create the request th...">
<polygon fill="white" stroke="#666666" points="602.5,-497.3 522.5,-497.3 522.5,-478.3 602.5,-478.3 602.5,-497.3"/>
<text text-anchor="middle" x="562.5" y="-485.3" font-family="Helvetica,sans-Serif" font-size="10.00">RPC_Callback</text>
</a>
</g>
</g>
<!-- Node12&#45;&gt;Node13 -->
<g id="edge12" class="edge">
<title>Node12&#45;&gt;Node13</title>
<path fill="none" stroke="#63b8ff" d="M468.8,-493.78C487.73,-492.55 506.65,-491.33 522.41,-490.32"/>
<polygon fill="#63b8ff" stroke="#63b8ff" points="468.62,-490.28 458.86,-494.42 469.07,-497.27 468.62,-490.28"/>
</g>
</g>
</svg>
        <g id="navigator" transform="translate(0 0)" fill="#404254">
                <rect fill="#f2f5e9" fill-opacity="0.5" stroke="#606060" stroke-width=".5" x="0" y="0" width="60" height="60"/>
                <use id="zoomplus" xlink:href="#zoomPlus" x="17" y="9" onmousedown="handleZoom(evt,'in')"/>
                <use id="zoomminus" xlink:href="#zoomMin" x="42" y="9" onmousedown="handleZoom(evt,'out')"/>
                <use id="reset" xlink:href="#resetDef" x="30" y="36" onmousedown="handleReset()"/>
                <g id="arrowUp" xlink:href="#dirArrow" transform="translate(30 24)" onmousedown="handlePan(0,-1)">
                  <use xlink:href="#rim" fill="#404040">
                        <set attributeName="fill" to="#808080" begin="arrowUp.mouseover" end="arrowUp.mouseout"/>
                  </use>
                  <path fill="none" stroke="white" stroke-width="1.5" d="M0,-3.0v7 M-2.5,-0.5L0,-3.0L2.5,-0.5"/>
                </g>
                <g id="arrowRight" xlink:href="#dirArrow" transform="rotate(90) translate(36 -43)" onmousedown="handlePan(1,0)">
                  <use xlink:href="#rim" fill="#404040">
                        <set attributeName="fill" to="#808080" begin="arrowRight.mouseover" end="arrowRight.mouseout"/>
                  </use>
                  <path fill="none" stroke="white" stroke-width="1.5" d="M0,-3.0v7 M-2.5,-0.5L0,-3.0L2.5,-0.5"/>
                </g>
                <g id="arrowDown" xlink:href="#dirArrow" transform="rotate(180) translate(-30 -48)" onmousedown="handlePan(0,1)">
                  <use xlink:href="#rim" fill="#404040">
                        <set attributeName="fill" to="#808080" begin="arrowDown.mouseover" end="arrowDown.mouseout"/>
                  </use>
                  <path fill="none" stroke="white" stroke-width="1.5" d="M0,-3.0v7 M-2.5,-0.5L0,-3.0L2.5,-0.5"/>
                </g>
                <g id="arrowLeft" xlink:href="#dirArrow" transform="rotate(270) translate(-36 17)" onmousedown="handlePan(-1,0)">
                  <use xlink:href="#rim" fill="#404040">
                        <set attributeName="fill" to="#808080" begin="arrowLeft.mouseover" end="arrowLeft.mouseout"/>
                  </use>
                  <path fill="none" stroke="white" stroke-width="1.5" d="M0,-3.0v7 M-2.5,-0.5L0,-3.0L2.5,-0.5"/>
                </g>
        </g>
        <svg viewBox="0 0 15 15" width="100%" height="30px" preserveAspectRatio="xMaxYMin meet">
         <g id="arrow_out" transform="scale(0.3 0.3)">
          <a xlink:href="classCallback__inherit__graph_org.svg" target="_base">
           <rect id="button" ry="5" rx="5" y="6" x="6" height="38" width="38"
                fill="#f2f5e9" fill-opacity="0.5" stroke="#606060" stroke-width="1.0"/>
           <path id="arrow"
             d="M 11.500037,31.436501 C 11.940474,20.09759 22.043105,11.32322 32.158766,21.979434 L 37.068811,17.246167 C 37.068811,17.246167 37.088388,32 37.088388,32 L 22.160133,31.978069 C 22.160133,31.978069 26.997745,27.140456 26.997745,27.140456 C 18.528582,18.264221 13.291696,25.230495 11.500037,31.436501 z"
             style="fill:#404040;"/>
          </a>
         </g>
        </svg>
</svg>
