<?xml version="1.0" encoding="UTF-8" standalone="no"?>
<!DOCTYPE svg PUBLIC "-//W3C//DTD SVG 1.1//EN"
 "http://www.w3.org/Graphics/SVG/1.1/DTD/svg11.dtd">
<!-- Generated by graphviz version 7.0.5 (20221223.1930)
 -->
<!-- Title: src/Client_Side_RPC.h Pages: 1 -->
<svg width="585pt" height="357pt"
 viewBox="0.00 0.00 585.00 357.00" xmlns="http://www.w3.org/2000/svg" xmlns:xlink="http://www.w3.org/1999/xlink">
<g id="graph0" class="graph" transform="scale(1 1) rotate(0) translate(4 353)">
<title>src/Client_Side_RPC.h</title>
<!-- Node1 -->
<g id="node1" class="node">
<title>Node1</title>
<g id="a_node1"><a xlink:title=" ">
<polygon fill="#999999" stroke="#666666" points="336,-349 220,-349 220,-330 336,-330 336,-349"/>
<text text-anchor="middle" x="278" y="-337" font-family="Helvetica,sans-Serif" font-size="10.00">src/Client_Side_RPC.h</text>
</a>
</g>
</g>
<!-- Node2 -->
<g id="node2" class="node">
<title>Node2</title>
<g id="a_node2"><a xlink:href="RPC__Request__Callback_8h.html" target="_top" xlink:title=" ">
<polygon fill="white" stroke="#666666" points="296,-294 168,-294 168,-275 296,-275 296,-294"/>
<text text-anchor="middle" x="232" y="-282" font-family="Helvetica,sans-Serif" font-size="10.00">RPC_Request_Callback.h</text>
</a>
</g>
</g>
<!-- Node1&#45;&gt;Node2 -->
<g id="edge1" class="edge">
<title>Node1&#45;&gt;Node2</title>
<path fill="none" stroke="#63b8ff" d="M270.4,-329.75C264.12,-322.5 254.99,-311.98 247.2,-303.02"/>
<polygon fill="#63b8ff" stroke="#63b8ff" points="249.95,-300.84 240.75,-295.59 244.66,-305.43 249.95,-300.84"/>
</g>
<!-- Node16 -->
<g id="node16" class="node">
<title>Node16</title>
<g id="a_node16"><a xlink:href="IAPI__Implementation_8h.html" target="_top" xlink:title=" ">
<polygon fill="white" stroke="#666666" points="407,-239 291,-239 291,-220 407,-220 407,-239"/>
<text text-anchor="middle" x="349" y="-227" font-family="Helvetica,sans-Serif" font-size="10.00">IAPI_Implementation.h</text>
</a>
</g>
</g>
<!-- Node1&#45;&gt;Node16 -->
<g id="edge18" class="edge">
<title>Node1&#45;&gt;Node16</title>
<path fill="none" stroke="#63b8ff" d="M283.81,-329.66C295.36,-312.1 321.4,-272.48 336.85,-248.98"/>
<polygon fill="#63b8ff" stroke="#63b8ff" points="339.71,-251 342.28,-240.72 333.86,-247.16 339.71,-251"/>
</g>
<!-- Node3 -->
<g id="node3" class="node">
<title>Node3</title>
<g id="a_node3"><a xlink:href="Callback__Watchdog_8h.html" target="_top" xlink:title=" ">
<polygon fill="white" stroke="#666666" points="268,-239 158,-239 158,-220 268,-220 268,-239"/>
<text text-anchor="middle" x="213" y="-227" font-family="Helvetica,sans-Serif" font-size="10.00">Callback_Watchdog.h</text>
</a>
</g>
</g>
<!-- Node2&#45;&gt;Node3 -->
<g id="edge2" class="edge">
<title>Node2&#45;&gt;Node3</title>
<path fill="none" stroke="#63b8ff" d="M228.86,-274.75C226.46,-268.04 223.04,-258.52 220,-250.02"/>
<polygon fill="#63b8ff" stroke="#63b8ff" points="223.39,-249.1 216.72,-240.87 216.8,-251.46 223.39,-249.1"/>
</g>
<!-- Node4 -->
<g id="node4" class="node">
<title>Node4</title>
<g id="a_node4"><a xlink:href="Callback_8h.html" target="_top" xlink:title=" ">
<polygon fill="white" stroke="#666666" points="244,-184 182,-184 182,-165 244,-165 244,-184"/>
<text text-anchor="middle" x="213" y="-172" font-family="Helvetica,sans-Serif" font-size="10.00">Callback.h</text>
</a>
</g>
</g>
<!-- Node3&#45;&gt;Node4 -->
<g id="edge3" class="edge">
<title>Node3&#45;&gt;Node4</title>
<path fill="none" stroke="#63b8ff" d="M213,-219.75C213,-213.27 213,-204.16 213,-195.9"/>
<polygon fill="#63b8ff" stroke="#63b8ff" points="216.5,-195.96 213,-185.96 209.5,-195.96 216.5,-195.96"/>
</g>
<!-- Node15 -->
<g id="node15" class="node">
<title>Node15</title>
<g id="a_node15"><a xlink:title=" ">
<polygon fill="#e0e0e0" stroke="#999999" points="164,-184 84,-184 84,-165 164,-165 164,-184"/>
<text text-anchor="middle" x="124" y="-172" font-family="Helvetica,sans-Serif" font-size="10.00">arduino&#45;timer.h</text>
</a>
</g>
</g>
<!-- Node3&#45;&gt;Node15 -->
<g id="edge17" class="edge">
<title>Node3&#45;&gt;Node15</title>
<path fill="none" stroke="#63b8ff" d="M197.9,-219.51C184.4,-211.47 164.35,-199.53 148.54,-190.11"/>
<polygon fill="#63b8ff" stroke="#63b8ff" points="150.56,-187.24 140.18,-185.13 146.98,-193.26 150.56,-187.24"/>
</g>
<!-- Node5 -->
<g id="node5" class="node">
<title>Node5</title>
<g id="a_node5"><a xlink:href="Configuration_8h.html" target="_top" xlink:title=" ">
<polygon fill="white" stroke="#666666" points="458,-19 378,-19 378,0 458,0 458,-19"/>
<text text-anchor="middle" x="418" y="-7" font-family="Helvetica,sans-Serif" font-size="10.00">Configuration.h</text>
</a>
</g>
</g>
<!-- Node4&#45;&gt;Node5 -->
<g id="edge4" class="edge">
<title>Node4&#45;&gt;Node5</title>
<path fill="none" stroke="#63b8ff" d="M223.38,-164.78C238.1,-152.45 265.92,-129.28 290,-110 327.43,-80.02 371.74,-45.87 397.19,-26.39"/>
<polygon fill="#63b8ff" stroke="#63b8ff" points="399.24,-29.22 405.06,-20.36 394.99,-23.66 399.24,-29.22"/>
</g>
<!-- Node6 -->
<g id="node6" class="node">
<title>Node6</title>
<g id="a_node6"><a xlink:href="Container_8h.html" target="_top" xlink:title=" ">
<polygon fill="white" stroke="#666666" points="165.5,-129 100.5,-129 100.5,-110 165.5,-110 165.5,-129"/>
<text text-anchor="middle" x="133" y="-117" font-family="Helvetica,sans-Serif" font-size="10.00">Container.h</text>
</a>
</g>
</g>
<!-- Node4&#45;&gt;Node6 -->
<g id="edge5" class="edge">
<title>Node4&#45;&gt;Node6</title>
<path fill="none" stroke="#63b8ff" d="M199.43,-164.51C187.52,-156.62 169.95,-144.98 155.87,-135.65"/>
<polygon fill="#63b8ff" stroke="#63b8ff" points="157.9,-132.8 147.63,-130.19 154.04,-138.63 157.9,-132.8"/>
</g>
<!-- Node8 -->
<g id="node8" class="node">
<title>Node8</title>
<g id="a_node8"><a xlink:title=" ">
<polygon fill="#e0e0e0" stroke="#999999" points="93,-19 15,-19 15,0 93,0 93,-19"/>
<text text-anchor="middle" x="54" y="-7" font-family="Helvetica,sans-Serif" font-size="10.00">ArduinoJson.h</text>
</a>
</g>
</g>
<!-- Node4&#45;&gt;Node8 -->
<g id="edge14" class="edge">
<title>Node4&#45;&gt;Node8</title>
<path fill="none" stroke="#63b8ff" d="M181.71,-165.49C149.96,-156.79 103.72,-142.34 91,-129 65.04,-101.78 57.28,-56.61 54.97,-30.6"/>
<polygon fill="#63b8ff" stroke="#63b8ff" points="58.47,-30.5 54.3,-20.75 51.49,-30.97 58.47,-30.5"/>
</g>
<!-- Node13 -->
<g id="node13" class="node">
<title>Node13</title>
<g id="a_node13"><a xlink:title=" ">
<polygon fill="#e0e0e0" stroke="#999999" points="242.5,-129 183.5,-129 183.5,-110 242.5,-110 242.5,-129"/>
<text text-anchor="middle" x="213" y="-117" font-family="Helvetica,sans-Serif" font-size="10.00">functional</text>
</a>
</g>
</g>
<!-- Node4&#45;&gt;Node13 -->
<g id="edge15" class="edge">
<title>Node4&#45;&gt;Node13</title>
<path fill="none" stroke="#63b8ff" d="M213,-164.75C213,-158.27 213,-149.16 213,-140.9"/>
<polygon fill="#63b8ff" stroke="#63b8ff" points="216.5,-140.96 213,-130.96 209.5,-140.96 216.5,-140.96"/>
</g>
<!-- Node14 -->
<g id="node14" class="node">
<title>Node14</title>
<g id="a_node14"><a xlink:title=" ">
<polygon fill="#e0e0e0" stroke="#999999" points="44,-129 0,-129 0,-110 44,-110 44,-129"/>
<text text-anchor="middle" x="22" y="-117" font-family="Helvetica,sans-Serif" font-size="10.00">vector</text>
</a>
</g>
</g>
<!-- Node4&#45;&gt;Node14 -->
<g id="edge16" class="edge">
<title>Node4&#45;&gt;Node14</title>
<path fill="none" stroke="#63b8ff" d="M181.89,-164.87C147.07,-155.21 90.89,-139.62 55.23,-129.72"/>
<polygon fill="#63b8ff" stroke="#63b8ff" points="56.46,-126.43 45.89,-127.13 54.59,-133.18 56.46,-126.43"/>
</g>
<!-- Node7 -->
<g id="node7" class="node">
<title>Node7</title>
<g id="a_node7"><a xlink:href="Helper_8h.html" target="_top" xlink:title=" ">
<polygon fill="white" stroke="#666666" points="235.5,-74 182.5,-74 182.5,-55 235.5,-55 235.5,-74"/>
<text text-anchor="middle" x="209" y="-62" font-family="Helvetica,sans-Serif" font-size="10.00">Helper.h</text>
</a>
</g>
</g>
<!-- Node6&#45;&gt;Node7 -->
<g id="edge6" class="edge">
<title>Node6&#45;&gt;Node7</title>
<path fill="none" stroke="#63b8ff" d="M145.89,-109.51C157.1,-101.7 173.57,-90.21 186.88,-80.93"/>
<polygon fill="#63b8ff" stroke="#63b8ff" points="188.86,-83.81 195.06,-75.22 184.85,-78.07 188.86,-83.81"/>
</g>
<!-- Node10 -->
<g id="node10" class="node">
<title>Node10</title>
<g id="a_node10"><a xlink:title=" ">
<polygon fill="#e0e0e0" stroke="#999999" points="162.5,-19 111.5,-19 111.5,0 162.5,0 162.5,-19"/>
<text text-anchor="middle" x="137" y="-7" font-family="Helvetica,sans-Serif" font-size="10.00">assert.h</text>
</a>
</g>
</g>
<!-- Node6&#45;&gt;Node10 -->
<g id="edge13" class="edge">
<title>Node6&#45;&gt;Node10</title>
<path fill="none" stroke="#63b8ff" d="M133.33,-109.66C133.96,-92.57 135.37,-54.61 136.24,-30.92"/>
<polygon fill="#63b8ff" stroke="#63b8ff" points="139.74,-31.1 136.61,-20.97 132.74,-30.84 139.74,-31.1"/>
</g>
<!-- Node7&#45;&gt;Node5 -->
<g id="edge7" class="edge">
<title>Node7&#45;&gt;Node5</title>
<path fill="none" stroke="#63b8ff" d="M235.9,-56.68C270.23,-47.97 330.18,-32.77 371.87,-22.2"/>
<polygon fill="#63b8ff" stroke="#63b8ff" points="372.55,-25.64 381.38,-19.79 370.82,-18.85 372.55,-25.64"/>
</g>
<!-- Node7&#45;&gt;Node8 -->
<g id="edge8" class="edge">
<title>Node7&#45;&gt;Node8</title>
<path fill="none" stroke="#63b8ff" d="M182.71,-54.51C157.47,-45.88 119.11,-32.76 90.84,-23.1"/>
<polygon fill="#63b8ff" stroke="#63b8ff" points="92.19,-19.86 81.6,-19.94 89.93,-26.48 92.19,-19.86"/>
</g>
<!-- Node9 -->
<g id="node9" class="node">
<title>Node9</title>
<g id="a_node9"><a xlink:title=" ">
<polygon fill="#e0e0e0" stroke="#999999" points="359.5,-19 312.5,-19 312.5,0 359.5,0 359.5,-19"/>
<text text-anchor="middle" x="336" y="-7" font-family="Helvetica,sans-Serif" font-size="10.00">iterator</text>
</a>
</g>
</g>
<!-- Node7&#45;&gt;Node9 -->
<g id="edge9" class="edge">
<title>Node7&#45;&gt;Node9</title>
<path fill="none" stroke="#63b8ff" d="M230.54,-54.51C250.74,-46.08 281.17,-33.38 304.16,-23.79"/>
<polygon fill="#63b8ff" stroke="#63b8ff" points="305.5,-27.02 313.38,-19.94 302.8,-20.56 305.5,-27.02"/>
</g>
<!-- Node7&#45;&gt;Node10 -->
<g id="edge10" class="edge">
<title>Node7&#45;&gt;Node10</title>
<path fill="none" stroke="#63b8ff" d="M196.79,-54.51C186.17,-46.7 170.56,-35.21 157.96,-25.93"/>
<polygon fill="#63b8ff" stroke="#63b8ff" points="160.38,-23.36 150.25,-20.26 156.23,-29 160.38,-23.36"/>
</g>
<!-- Node11 -->
<g id="node11" class="node">
<title>Node11</title>
<g id="a_node11"><a xlink:title=" ">
<polygon fill="#e0e0e0" stroke="#999999" points="231.5,-19 180.5,-19 180.5,0 231.5,0 231.5,-19"/>
<text text-anchor="middle" x="206" y="-7" font-family="Helvetica,sans-Serif" font-size="10.00">stdarg.h</text>
</a>
</g>
</g>
<!-- Node7&#45;&gt;Node11 -->
<g id="edge11" class="edge">
<title>Node7&#45;&gt;Node11</title>
<path fill="none" stroke="#63b8ff" d="M208.5,-54.75C208.14,-48.27 207.62,-39.16 207.15,-30.9"/>
<polygon fill="#63b8ff" stroke="#63b8ff" points="210.65,-30.74 206.59,-20.95 203.66,-31.13 210.65,-30.74"/>
</g>
<!-- Node12 -->
<g id="node12" class="node">
<title>Node12</title>
<g id="a_node12"><a xlink:title=" ">
<polygon fill="#e0e0e0" stroke="#999999" points="294.5,-19 249.5,-19 249.5,0 294.5,0 294.5,-19"/>
<text text-anchor="middle" x="272" y="-7" font-family="Helvetica,sans-Serif" font-size="10.00">stdio.h</text>
</a>
</g>
</g>
<!-- Node7&#45;&gt;Node12 -->
<g id="edge12" class="edge">
<title>Node7&#45;&gt;Node12</title>
<path fill="none" stroke="#63b8ff" d="M219.69,-54.51C228.7,-46.93 241.83,-35.88 252.68,-26.75"/>
<polygon fill="#63b8ff" stroke="#63b8ff" points="254.91,-29.45 260.31,-20.33 250.41,-24.09 254.91,-29.45"/>
</g>
<!-- Node16&#45;&gt;Node4 -->
<g id="edge19" class="edge">
<title>Node16&#45;&gt;Node4</title>
<path fill="none" stroke="#63b8ff" d="M325.93,-219.51C304.11,-211.01 271.12,-198.15 246.42,-188.53"/>
<polygon fill="#63b8ff" stroke="#63b8ff" points="247.73,-185.28 237.14,-184.91 245.19,-191.8 247.73,-185.28"/>
</g>
<!-- Node17 -->
<g id="node17" class="node">
<title>Node17</title>
<g id="a_node17"><a xlink:href="Constants_8h.html" target="_top" xlink:title=" ">
<polygon fill="white" stroke="#666666" points="503,-184 435,-184 435,-165 503,-165 503,-184"/>
<text text-anchor="middle" x="469" y="-172" font-family="Helvetica,sans-Serif" font-size="10.00">Constants.h</text>
</a>
</g>
</g>
<!-- Node16&#45;&gt;Node17 -->
<g id="edge20" class="edge">
<title>Node16&#45;&gt;Node17</title>
<path fill="none" stroke="#63b8ff" d="M369.36,-219.51C388.35,-211.12 416.93,-198.5 438.62,-188.92"/>
<polygon fill="#63b8ff" stroke="#63b8ff" points="439.83,-192.21 447.56,-184.97 437,-185.81 439.83,-192.21"/>
</g>
<!-- Node19 -->
<g id="node19" class="node">
<title>Node19</title>
<g id="a_node19"><a xlink:href="DefaultLogger_8h.html" target="_top" xlink:title=" ">
<polygon fill="white" stroke="#666666" points="384.5,-129 299.5,-129 299.5,-110 384.5,-110 384.5,-129"/>
<text text-anchor="middle" x="342" y="-117" font-family="Helvetica,sans-Serif" font-size="10.00">DefaultLogger.h</text>
</a>
</g>
</g>
<!-- Node16&#45;&gt;Node19 -->
<g id="edge23" class="edge">
<title>Node16&#45;&gt;Node19</title>
<path fill="none" stroke="#63b8ff" d="M333.87,-219.73C322.19,-211.99 306.88,-199.55 300,-184 292.36,-166.75 306.3,-148.99 320.13,-136.66"/>
<polygon fill="#63b8ff" stroke="#63b8ff" points="322.29,-139.41 327.8,-130.36 317.85,-134 322.29,-139.41"/>
</g>
<!-- Node20 -->
<g id="node20" class="node">
<title>Node20</title>
<g id="a_node20"><a xlink:href="API__Process__Type_8h.html" target="_top" xlink:title=" ">
<polygon fill="white" stroke="#666666" points="417,-184 309,-184 309,-165 417,-165 417,-184"/>
<text text-anchor="middle" x="363" y="-172" font-family="Helvetica,sans-Serif" font-size="10.00">API_Process_Type.h</text>
</a>
</g>
</g>
<!-- Node16&#45;&gt;Node20 -->
<g id="edge25" class="edge">
<title>Node16&#45;&gt;Node20</title>
<path fill="none" stroke="#63b8ff" d="M351.31,-219.75C353.06,-213.11 355.54,-203.73 357.77,-195.31"/>
<polygon fill="#63b8ff" stroke="#63b8ff" points="361.08,-196.47 360.25,-185.91 354.31,-194.68 361.08,-196.47"/>
</g>
<!-- Node21 -->
<g id="node21" class="node">
<title>Node21</title>
<g id="a_node21"><a xlink:title=" ">
<polygon fill="#e0e0e0" stroke="#999999" points="577,-184 521,-184 521,-165 577,-165 577,-184"/>
<text text-anchor="middle" x="549" y="-172" font-family="Helvetica,sans-Serif" font-size="10.00">algorithm</text>
</a>
</g>
</g>
<!-- Node16&#45;&gt;Node21 -->
<g id="edge27" class="edge">
<title>Node16&#45;&gt;Node21</title>
<path fill="none" stroke="#63b8ff" d="M382.93,-219.51C418.07,-210.2 472.93,-195.66 509.88,-185.87"/>
<polygon fill="#63b8ff" stroke="#63b8ff" points="510.5,-189.32 519.27,-183.38 508.71,-182.56 510.5,-189.32"/>
</g>
<!-- Node17&#45;&gt;Node5 -->
<g id="edge21" class="edge">
<title>Node17&#45;&gt;Node5</title>
<path fill="none" stroke="#63b8ff" d="M468.48,-164.73C467.57,-152.34 465.29,-129.1 460,-110 451.93,-80.85 437.35,-48.92 427.67,-29.29"/>
<polygon fill="#63b8ff" stroke="#63b8ff" points="430.93,-27.98 423.31,-20.63 424.68,-31.13 430.93,-27.98"/>
</g>
<!-- Node18 -->
<g id="node18" class="node">
<title>Node18</title>
<g id="a_node18"><a xlink:title=" ">
<polygon fill="#e0e0e0" stroke="#999999" points="451,-129 403,-129 403,-110 451,-110 451,-129"/>
<text text-anchor="middle" x="427" y="-117" font-family="Helvetica,sans-Serif" font-size="10.00">stdint.h</text>
</a>
</g>
</g>
<!-- Node17&#45;&gt;Node18 -->
<g id="edge22" class="edge">
<title>Node17&#45;&gt;Node18</title>
<path fill="none" stroke="#63b8ff" d="M462.06,-164.75C456.38,-157.58 448.16,-147.2 441.11,-138.3"/>
<polygon fill="#63b8ff" stroke="#63b8ff" points="443.98,-136.29 435.03,-130.63 438.49,-140.64 443.98,-136.29"/>
</g>
<!-- Node19&#45;&gt;Node7 -->
<g id="edge24" class="edge">
<title>Node19&#45;&gt;Node7</title>
<path fill="none" stroke="#63b8ff" d="M319.44,-109.51C298.1,-101.01 265.84,-88.15 241.69,-78.53"/>
<polygon fill="#63b8ff" stroke="#63b8ff" points="243.22,-75.37 232.63,-74.92 240.63,-81.87 243.22,-75.37"/>
</g>
<!-- Node20&#45;&gt;Node18 -->
<g id="edge26" class="edge">
<title>Node20&#45;&gt;Node18</title>
<path fill="none" stroke="#63b8ff" d="M373.86,-164.51C383.11,-156.85 396.62,-145.66 407.71,-136.47"/>
<polygon fill="#63b8ff" stroke="#63b8ff" points="409.67,-139.4 415.14,-130.32 405.2,-134.01 409.67,-139.4"/>
</g>
</g>
</svg>
