<?xml version="1.0" encoding="UTF-8" standalone="no"?>
<!DOCTYPE svg PUBLIC "-//W3C//DTD SVG 1.1//EN"
 "http://www.w3.org/Graphics/SVG/1.1/DTD/svg11.dtd">
<!-- Generated by graphviz version 7.0.5 (20221223.1930)
 -->
<!-- Title: src/Configuration.h Pages: 1 -->
<svg width="1823pt" height="456pt"
 viewBox="0.00 0.00 1822.50 456.00" xmlns="http://www.w3.org/2000/svg" xmlns:xlink="http://www.w3.org/1999/xlink">
<g id="graph0" class="graph" transform="scale(1 1) rotate(0) translate(4 452)">
<title>src/Configuration.h</title>
<!-- Node1 -->
<g id="node1" class="node">
<title>Node1</title>
<g id="a_node1"><a xlink:title=" ">
<polygon fill="#999999" stroke="#666666" points="1365.5,-448 1268.5,-448 1268.5,-429 1365.5,-429 1365.5,-448"/>
<text text-anchor="middle" x="1317" y="-436" font-family="Helvetica,sans-Serif" font-size="10.00">src/Configuration.h</text>
</a>
</g>
</g>
<!-- Node2 -->
<g id="node2" class="node">
<title>Node2</title>
<g id="a_node2"><a xlink:href="Arduino__ESP32__Updater_8h.html" target="_top" xlink:title=" ">
<polygon fill="white" stroke="#666666" points="562.5,-387.5 413.5,-387.5 413.5,-368.5 562.5,-368.5 562.5,-387.5"/>
<text text-anchor="middle" x="488" y="-375.5" font-family="Helvetica,sans-Serif" font-size="10.00">src/Arduino_ESP32_Updater.h</text>
</a>
</g>
</g>
<!-- Node1&#45;&gt;Node2 -->
<g id="edge1" class="edge">
<title>Node1&#45;&gt;Node2</title>
<path fill="none" stroke="#63b8ff" d="M1256.83,-435.97C1130.16,-432.29 826.83,-421.08 574,-393 562.12,-391.68 549.39,-389.84 537.45,-387.93"/>
<polygon fill="#63b8ff" stroke="#63b8ff" points="1256.56,-439.46 1266.66,-436.25 1256.76,-432.46 1256.56,-439.46"/>
</g>
<!-- Node4 -->
<g id="node4" class="node">
<title>Node4</title>
<g id="a_node4"><a xlink:href="Arduino__ESP8266__Updater_8h.html" target="_top" xlink:title=" ">
<polygon fill="white" stroke="#666666" points="695,-393 583,-393 583,-363 695,-363 695,-393"/>
<text text-anchor="start" x="591" y="-381" font-family="Helvetica,sans-Serif" font-size="10.00">src/Arduino_ESP8266</text>
<text text-anchor="middle" x="639" y="-370" font-family="Helvetica,sans-Serif" font-size="10.00">_Updater.h</text>
</a>
</g>
</g>
<!-- Node1&#45;&gt;Node4 -->
<g id="edge3" class="edge">
<title>Node1&#45;&gt;Node4</title>
<path fill="none" stroke="#63b8ff" d="M1256.88,-435.58C1147.45,-431.53 908.59,-420.16 709,-393 704.58,-392.4 700.02,-391.69 695.44,-390.91"/>
<polygon fill="#63b8ff" stroke="#63b8ff" points="1256.68,-439.07 1266.8,-435.94 1256.94,-432.08 1256.68,-439.07"/>
</g>
<!-- Node6 -->
<g id="node6" class="node">
<title>Node6</title>
<g id="a_node6"><a xlink:href="Callback_8h.html" target="_top" xlink:title=" ">
<polygon fill="white" stroke="#666666" points="658,-261 580,-261 580,-242 658,-242 658,-261"/>
<text text-anchor="middle" x="619" y="-249" font-family="Helvetica,sans-Serif" font-size="10.00">src/Callback.h</text>
</a>
</g>
</g>
<!-- Node1&#45;&gt;Node6 -->
<g id="edge5" class="edge">
<title>Node1&#45;&gt;Node6</title>
<path fill="none" stroke="#63b8ff" d="M1256.95,-435.34C1152.08,-430.95 940.13,-419.06 871,-393 802.45,-367.15 801.6,-331.55 737,-297 708.43,-281.72 673.45,-269.23 649.03,-261.42"/>
<polygon fill="#63b8ff" stroke="#63b8ff" points="1256.63,-438.83 1266.77,-435.75 1256.92,-431.84 1256.63,-438.83"/>
</g>
<!-- Node11 -->
<g id="node11" class="node">
<title>Node11</title>
<g id="a_node11"><a xlink:href="OTA__Handler_8h.html" target="_top" xlink:title=" ">
<polygon fill="white" stroke="#666666" points="1360,-134.5 1260,-134.5 1260,-115.5 1360,-115.5 1360,-134.5"/>
<text text-anchor="middle" x="1310" y="-122.5" font-family="Helvetica,sans-Serif" font-size="10.00">src/OTA_Handler.h</text>
</a>
</g>
</g>
<!-- Node1&#45;&gt;Node11 -->
<g id="edge66" class="edge">
<title>Node1&#45;&gt;Node11</title>
<path fill="none" stroke="#63b8ff" d="M1346.64,-423.68C1362.71,-415.63 1382.59,-404.77 1399,-393 1506.08,-316.22 1685.92,-276.75 1601,-176 1570.81,-140.18 1435.43,-130.02 1360.43,-127.14"/>
<polygon fill="#63b8ff" stroke="#63b8ff" points="1345.5,-420.33 1338.06,-427.87 1348.58,-426.62 1345.5,-420.33"/>
</g>
<!-- Node27 -->
<g id="node27" class="node">
<title>Node27</title>
<g id="a_node27"><a xlink:href="Constants_8h.html" target="_top" xlink:title=" ">
<polygon fill="white" stroke="#666666" points="476.5,-261 391.5,-261 391.5,-242 476.5,-242 476.5,-261"/>
<text text-anchor="middle" x="434" y="-249" font-family="Helvetica,sans-Serif" font-size="10.00">src/Constants.h</text>
</a>
</g>
</g>
<!-- Node1&#45;&gt;Node27 -->
<g id="edge36" class="edge">
<title>Node1&#45;&gt;Node27</title>
<path fill="none" stroke="#63b8ff" d="M1257,-436.64C1141.84,-434.25 894.3,-425.4 816,-393 773.72,-375.51 771.49,-357.06 737,-327 722.06,-313.98 721.84,-305.63 704,-297 664.71,-277.99 542.72,-263.34 476.99,-256.59"/>
<polygon fill="#63b8ff" stroke="#63b8ff" points="1256.8,-440.13 1266.87,-436.83 1256.94,-433.13 1256.8,-440.13"/>
</g>
<!-- Node29 -->
<g id="node29" class="node">
<title>Node29</title>
<g id="a_node29"><a xlink:href="Espressif__MQTT__Client_8h.html" target="_top" xlink:title=" ">
<polygon fill="white" stroke="#666666" points="1814.5,-393 1707.5,-393 1707.5,-363 1814.5,-363 1814.5,-393"/>
<text text-anchor="start" x="1715.5" y="-381" font-family="Helvetica,sans-Serif" font-size="10.00">src/Espressif_MQTT</text>
<text text-anchor="middle" x="1761" y="-370" font-family="Helvetica,sans-Serif" font-size="10.00">_Client.h</text>
</a>
</g>
</g>
<!-- Node1&#45;&gt;Node29 -->
<g id="edge43" class="edge">
<title>Node1&#45;&gt;Node29</title>
<path fill="none" stroke="#63b8ff" d="M1376.93,-432.5C1452.39,-425.75 1585.85,-412.31 1699,-393 1701.72,-392.54 1704.5,-392.03 1707.3,-391.49"/>
<polygon fill="#63b8ff" stroke="#63b8ff" points="1376.94,-428.99 1367.29,-433.35 1377.56,-435.96 1376.94,-428.99"/>
</g>
<!-- Node30 -->
<g id="node30" class="node">
<title>Node30</title>
<g id="a_node30"><a xlink:href="Espressif__Updater_8h.html" target="_top" xlink:title=" ">
<polygon fill="white" stroke="#666666" points="1459.5,-200.5 1338.5,-200.5 1338.5,-181.5 1459.5,-181.5 1459.5,-200.5"/>
<text text-anchor="middle" x="1399" y="-188.5" font-family="Helvetica,sans-Serif" font-size="10.00">src/Espressif_Updater.h</text>
</a>
</g>
</g>
<!-- Node1&#45;&gt;Node30 -->
<g id="edge44" class="edge">
<title>Node1&#45;&gt;Node30</title>
<path fill="none" stroke="#63b8ff" d="M1331.34,-419.82C1337.31,-411.92 1344,-402.31 1349,-393 1378.68,-337.73 1387.7,-322.71 1399,-261 1402.93,-239.55 1401.27,-213.73 1399.98,-200.59"/>
<polygon fill="#63b8ff" stroke="#63b8ff" points="1328.69,-417.53 1325.28,-427.56 1334.2,-421.84 1328.69,-417.53"/>
</g>
<!-- Node31 -->
<g id="node31" class="node">
<title>Node31</title>
<g id="a_node31"><a xlink:href="HashGenerator_8h.html" target="_top" xlink:title=" ">
<polygon fill="white" stroke="#666666" points="1689.5,-387.5 1582.5,-387.5 1582.5,-368.5 1689.5,-368.5 1689.5,-387.5"/>
<text text-anchor="middle" x="1636" y="-375.5" font-family="Helvetica,sans-Serif" font-size="10.00">src/HashGenerator.h</text>
</a>
</g>
</g>
<!-- Node1&#45;&gt;Node31 -->
<g id="edge45" class="edge">
<title>Node1&#45;&gt;Node31</title>
<path fill="none" stroke="#63b8ff" d="M1376.75,-427.18C1427.23,-418.37 1501.42,-405.23 1566,-393 1574.4,-391.41 1583.36,-389.66 1591.96,-387.95"/>
<polygon fill="#63b8ff" stroke="#63b8ff" points="1376.46,-423.67 1367.21,-428.84 1377.66,-430.57 1376.46,-423.67"/>
</g>
<!-- Node33 -->
<g id="node33" class="node">
<title>Node33</title>
<g id="a_node33"><a xlink:href="Helper_8h.html" target="_top" xlink:title=" ">
<polygon fill="white" stroke="#666666" points="1155.5,-387.5 1086.5,-387.5 1086.5,-368.5 1155.5,-368.5 1155.5,-387.5"/>
<text text-anchor="middle" x="1121" y="-375.5" font-family="Helvetica,sans-Serif" font-size="10.00">src/Helper.h</text>
</a>
</g>
</g>
<!-- Node1&#45;&gt;Node33 -->
<g id="edge48" class="edge">
<title>Node1&#45;&gt;Node33</title>
<path fill="none" stroke="#63b8ff" d="M1276.24,-425.33C1238.92,-414.2 1184.55,-397.97 1151.05,-387.97"/>
<polygon fill="#63b8ff" stroke="#63b8ff" points="1275.2,-428.68 1285.78,-428.18 1277.2,-421.97 1275.2,-428.68"/>
</g>
<!-- Node36 -->
<g id="node36" class="node">
<title>Node36</title>
<g id="a_node36"><a xlink:href="IUpdater_8h.html" target="_top" xlink:title=" ">
<polygon fill="white" stroke="#666666" points="1390,-261 1312,-261 1312,-242 1390,-242 1390,-261"/>
<text text-anchor="middle" x="1351" y="-249" font-family="Helvetica,sans-Serif" font-size="10.00">src/IUpdater.h</text>
</a>
</g>
</g>
<!-- Node1&#45;&gt;Node36 -->
<g id="edge65" class="edge">
<title>Node1&#45;&gt;Node36</title>
<path fill="none" stroke="#63b8ff" d="M1323.9,-417.97C1326.43,-410.27 1329.12,-401.29 1331,-393 1342.12,-343.98 1348.22,-283.87 1350.24,-261.47"/>
<polygon fill="#63b8ff" stroke="#63b8ff" points="1320.63,-416.72 1320.71,-427.32 1327.25,-418.99 1320.63,-416.72"/>
</g>
<!-- Node37 -->
<g id="node37" class="node">
<title>Node37</title>
<g id="a_node37"><a xlink:href="SDCard__Updater_8h.html" target="_top" xlink:title=" ">
<polygon fill="white" stroke="#666666" points="1592,-200.5 1478,-200.5 1478,-181.5 1592,-181.5 1592,-200.5"/>
<text text-anchor="middle" x="1535" y="-188.5" font-family="Helvetica,sans-Serif" font-size="10.00">src/SDCard_Updater.h</text>
</a>
</g>
</g>
<!-- Node1&#45;&gt;Node37 -->
<g id="edge67" class="edge">
<title>Node1&#45;&gt;Node37</title>
<path fill="none" stroke="#63b8ff" d="M1337.97,-421.8C1348.33,-413.66 1360.77,-403.28 1371,-393 1438.98,-324.68 1507.91,-230.13 1528.7,-200.94"/>
<polygon fill="#63b8ff" stroke="#63b8ff" points="1336.15,-418.78 1330.36,-427.66 1340.42,-424.33 1336.15,-418.78"/>
</g>
<!-- Node39 -->
<g id="node39" class="node">
<title>Node39</title>
<g id="a_node39"><a xlink:href="IHTTP__Client_8h.html" target="_top" xlink:title=" ">
<polygon fill="white" stroke="#666666" points="960,-261 860,-261 860,-242 960,-242 960,-261"/>
<text text-anchor="middle" x="910" y="-249" font-family="Helvetica,sans-Serif" font-size="10.00">src/IHTTP_Client.h</text>
</a>
</g>
</g>
<!-- Node1&#45;&gt;Node39 -->
<g id="edge63" class="edge">
<title>Node1&#45;&gt;Node39</title>
<path fill="none" stroke="#63b8ff" d="M1257.17,-433.51C1136.63,-424.08 871.47,-395.81 818,-327 809.82,-316.47 810.92,-308.3 818,-297 829.41,-278.81 850.58,-267.88 869.75,-261.4"/>
<polygon fill="#63b8ff" stroke="#63b8ff" points="1256.63,-436.98 1266.87,-434.25 1257.16,-430 1256.63,-436.98"/>
</g>
<!-- Node40 -->
<g id="node40" class="node">
<title>Node40</title>
<g id="a_node40"><a xlink:href="Telemetry_8h.html" target="_top" xlink:title=" ">
<polygon fill="white" stroke="#666666" points="1255.5,-261 1172.5,-261 1172.5,-242 1255.5,-242 1255.5,-261"/>
<text text-anchor="middle" x="1214" y="-249" font-family="Helvetica,sans-Serif" font-size="10.00">src/Telemetry.h</text>
</a>
</g>
</g>
<!-- Node1&#45;&gt;Node40 -->
<g id="edge68" class="edge">
<title>Node1&#45;&gt;Node40</title>
<path fill="none" stroke="#63b8ff" d="M1306.54,-418.72C1284.66,-379.41 1234.75,-289.78 1218.92,-261.33"/>
<polygon fill="#63b8ff" stroke="#63b8ff" points="1303.37,-420.22 1311.3,-427.25 1309.49,-416.81 1303.37,-420.22"/>
</g>
<!-- Node3 -->
<g id="node3" class="node">
<title>Node3</title>
<g id="a_node3"><a xlink:href="Arduino__ESP32__Updater_8cpp.html" target="_top" xlink:title=" ">
<polygon fill="white" stroke="#666666" points="564.5,-321.5 405.5,-321.5 405.5,-302.5 564.5,-302.5 564.5,-321.5"/>
<text text-anchor="middle" x="485" y="-309.5" font-family="Helvetica,sans-Serif" font-size="10.00">src/Arduino_ESP32_Updater.cpp</text>
</a>
</g>
</g>
<!-- Node2&#45;&gt;Node3 -->
<g id="edge2" class="edge">
<title>Node2&#45;&gt;Node3</title>
<path fill="none" stroke="#63b8ff" d="M487.05,-356.68C486.5,-344.94 485.83,-330.77 485.41,-321.82"/>
<polygon fill="#63b8ff" stroke="#63b8ff" points="483.55,-356.76 487.51,-366.59 490.54,-356.44 483.55,-356.76"/>
</g>
<!-- Node5 -->
<g id="node5" class="node">
<title>Node5</title>
<g id="a_node5"><a xlink:href="Arduino__ESP8266__Updater_8cpp.html" target="_top" xlink:title=" ">
<polygon fill="white" stroke="#666666" points="695,-327 583,-327 583,-297 695,-297 695,-327"/>
<text text-anchor="start" x="591" y="-315" font-family="Helvetica,sans-Serif" font-size="10.00">src/Arduino_ESP8266</text>
<text text-anchor="middle" x="639" y="-304" font-family="Helvetica,sans-Serif" font-size="10.00">_Updater.cpp</text>
</a>
</g>
</g>
<!-- Node4&#45;&gt;Node5 -->
<g id="edge4" class="edge">
<title>Node4&#45;&gt;Node5</title>
<path fill="none" stroke="#63b8ff" d="M639,-351.39C639,-343.13 639,-334.28 639,-327.16"/>
<polygon fill="#63b8ff" stroke="#63b8ff" points="635.5,-351.28 639,-361.28 642.5,-351.28 635.5,-351.28"/>
</g>
<!-- Node7 -->
<g id="node7" class="node">
<title>Node7</title>
<g id="a_node7"><a xlink:href="Callback__Watchdog_8h.html" target="_top" xlink:title=" ">
<polygon fill="white" stroke="#666666" points="645.5,-200.5 518.5,-200.5 518.5,-181.5 645.5,-181.5 645.5,-200.5"/>
<text text-anchor="middle" x="582" y="-188.5" font-family="Helvetica,sans-Serif" font-size="10.00">src/Callback_Watchdog.h</text>
</a>
</g>
</g>
<!-- Node6&#45;&gt;Node7 -->
<g id="edge6" class="edge">
<title>Node6&#45;&gt;Node7</title>
<path fill="none" stroke="#63b8ff" d="M607.5,-232.32C600.83,-221.78 592.74,-208.98 587.48,-200.67"/>
<polygon fill="#63b8ff" stroke="#63b8ff" points="604.43,-234.01 612.73,-240.59 610.34,-230.27 604.43,-234.01"/>
</g>
<!-- Node18 -->
<g id="node18" class="node">
<title>Node18</title>
<g id="a_node18"><a xlink:href="IAPI__Implementation_8h.html" target="_top" xlink:title=" ">
<polygon fill="white" stroke="#666666" points="500,-200.5 368,-200.5 368,-181.5 500,-181.5 500,-200.5"/>
<text text-anchor="middle" x="434" y="-188.5" font-family="Helvetica,sans-Serif" font-size="10.00">src/IAPI_Implementation.h</text>
</a>
</g>
</g>
<!-- Node6&#45;&gt;Node18 -->
<g id="edge18" class="edge">
<title>Node6&#45;&gt;Node18</title>
<path fill="none" stroke="#63b8ff" d="M580.07,-238.19C544.86,-227.06 493.85,-210.92 462.36,-200.97"/>
<polygon fill="#63b8ff" stroke="#63b8ff" points="578.87,-241.48 589.46,-241.16 580.98,-234.81 578.87,-241.48"/>
</g>
<!-- Node22 -->
<g id="node22" class="node">
<title>Node22</title>
<g id="a_node22"><a xlink:href="IMQTT__Client_8h.html" target="_top" xlink:title=" ">
<polygon fill="white" stroke="#666666" points="803.5,-200.5 702.5,-200.5 702.5,-181.5 803.5,-181.5 803.5,-200.5"/>
<text text-anchor="middle" x="753" y="-188.5" font-family="Helvetica,sans-Serif" font-size="10.00">src/IMQTT_Client.h</text>
</a>
</g>
</g>
<!-- Node6&#45;&gt;Node22 -->
<g id="edge27" class="edge">
<title>Node6&#45;&gt;Node22</title>
<path fill="none" stroke="#63b8ff" d="M649.89,-237.02C675.24,-225.95 710.44,-210.58 732.46,-200.97"/>
<polygon fill="#63b8ff" stroke="#63b8ff" points="648.5,-233.8 640.74,-241.01 651.3,-240.22 648.5,-233.8"/>
</g>
<!-- Node23 -->
<g id="node23" class="node">
<title>Node23</title>
<g id="a_node23"><a xlink:href="OTA__Update__Callback_8h.html" target="_top" xlink:title=" ">
<polygon fill="white" stroke="#666666" points="1282,-200.5 1142,-200.5 1142,-181.5 1282,-181.5 1282,-200.5"/>
<text text-anchor="middle" x="1212" y="-188.5" font-family="Helvetica,sans-Serif" font-size="10.00">src/OTA_Update_Callback.h</text>
</a>
</g>
</g>
<!-- Node6&#45;&gt;Node23 -->
<g id="edge29" class="edge">
<title>Node6&#45;&gt;Node23</title>
<path fill="none" stroke="#63b8ff" d="M669.71,-247.61C762.11,-242.02 963.95,-228.25 1133,-206 1143.5,-204.62 1154.72,-202.82 1165.32,-200.98"/>
<polygon fill="#63b8ff" stroke="#63b8ff" points="669.75,-244.1 659.98,-248.19 670.17,-251.09 669.75,-244.1"/>
</g>
<!-- Node25 -->
<g id="node25" class="node">
<title>Node25</title>
<g id="a_node25"><a xlink:href="RPC__Callback_8h.html" target="_top" xlink:title=" ">
<polygon fill="white" stroke="#666666" points="350,-200.5 246,-200.5 246,-181.5 350,-181.5 350,-200.5"/>
<text text-anchor="middle" x="298" y="-188.5" font-family="Helvetica,sans-Serif" font-size="10.00">src/RPC_Callback.h</text>
</a>
</g>
</g>
<!-- Node6&#45;&gt;Node25 -->
<g id="edge32" class="edge">
<title>Node6&#45;&gt;Node25</title>
<path fill="none" stroke="#63b8ff" d="M568.32,-242.69C515.81,-234.39 431.43,-220.5 359,-206 351.44,-204.49 343.37,-202.73 335.68,-200.99"/>
<polygon fill="#63b8ff" stroke="#63b8ff" points="567.75,-246.14 578.18,-244.24 568.84,-239.23 567.75,-246.14"/>
</g>
<!-- Node26 -->
<g id="node26" class="node">
<title>Node26</title>
<g id="a_node26"><a xlink:href="Shared__Attribute__Callback_8h.html" target="_top" xlink:title=" ">
<polygon fill="white" stroke="#666666" points="228,-206 122,-206 122,-176 228,-176 228,-206"/>
<text text-anchor="start" x="130" y="-194" font-family="Helvetica,sans-Serif" font-size="10.00">src/Shared_Attribute</text>
<text text-anchor="middle" x="175" y="-183" font-family="Helvetica,sans-Serif" font-size="10.00">_Callback.h</text>
</a>
</g>
</g>
<!-- Node6&#45;&gt;Node26 -->
<g id="edge34" class="edge">
<title>Node6&#45;&gt;Node26</title>
<path fill="none" stroke="#63b8ff" d="M568.58,-246.34C495.26,-239.91 355.08,-226.15 237,-206 234.17,-205.52 231.28,-204.99 228.36,-204.43"/>
<polygon fill="#63b8ff" stroke="#63b8ff" points="567.99,-249.81 578.25,-247.18 568.59,-242.83 567.99,-249.81"/>
</g>
<!-- Node8 -->
<g id="node8" class="node">
<title>Node8</title>
<g id="a_node8"><a xlink:href="Attribute__Request__Callback_8h.html" target="_top" xlink:title=" ">
<polygon fill="white" stroke="#666666" points="372.5,-140 261.5,-140 261.5,-110 372.5,-110 372.5,-140"/>
<text text-anchor="start" x="269.5" y="-128" font-family="Helvetica,sans-Serif" font-size="10.00">src/Attribute_Request</text>
<text text-anchor="middle" x="317" y="-117" font-family="Helvetica,sans-Serif" font-size="10.00">_Callback.h</text>
</a>
</g>
</g>
<!-- Node7&#45;&gt;Node8 -->
<g id="edge7" class="edge">
<title>Node7&#45;&gt;Node8</title>
<path fill="none" stroke="#63b8ff" d="M533.85,-178.37C488.48,-167.41 420.53,-151 372.81,-139.48"/>
<polygon fill="#63b8ff" stroke="#63b8ff" points="532.86,-181.73 543.4,-180.68 534.5,-174.93 532.86,-181.73"/>
</g>
<!-- Node7&#45;&gt;Node11 -->
<g id="edge10" class="edge">
<title>Node7&#45;&gt;Node11</title>
<path fill="none" stroke="#63b8ff" d="M657.24,-179.88C669.19,-178.46 681.42,-177.1 693,-176 939.95,-152.47 1004.6,-176.31 1250,-140 1258.47,-138.75 1267.5,-136.91 1275.92,-134.98"/>
<polygon fill="#63b8ff" stroke="#63b8ff" points="656.91,-176.4 647.41,-181.08 657.76,-183.34 656.91,-176.4"/>
</g>
<!-- Node12 -->
<g id="node12" class="node">
<title>Node12</title>
<g id="a_node12"><a xlink:href="Provision__Callback_8h.html" target="_top" xlink:title=" ">
<polygon fill="white" stroke="#666666" points="831,-134.5 707,-134.5 707,-115.5 831,-115.5 831,-134.5"/>
<text text-anchor="middle" x="769" y="-122.5" font-family="Helvetica,sans-Serif" font-size="10.00">src/Provision_Callback.h</text>
</a>
</g>
</g>
<!-- Node7&#45;&gt;Node12 -->
<g id="edge12" class="edge">
<title>Node7&#45;&gt;Node12</title>
<path fill="none" stroke="#63b8ff" d="M618.71,-177.43C655.31,-164.91 710.59,-145.99 742.92,-134.93"/>
<polygon fill="#63b8ff" stroke="#63b8ff" points="617.76,-174.06 609.43,-180.61 620.03,-180.68 617.76,-174.06"/>
</g>
<!-- Node15 -->
<g id="node15" class="node">
<title>Node15</title>
<g id="a_node15"><a xlink:href="RPC__Request__Callback_8h.html" target="_top" xlink:title=" ">
<polygon fill="white" stroke="#666666" points="650.5,-134.5 505.5,-134.5 505.5,-115.5 650.5,-115.5 650.5,-134.5"/>
<text text-anchor="middle" x="578" y="-122.5" font-family="Helvetica,sans-Serif" font-size="10.00">src/RPC_Request_Callback.h</text>
</a>
</g>
</g>
<!-- Node7&#45;&gt;Node15 -->
<g id="edge15" class="edge">
<title>Node7&#45;&gt;Node15</title>
<path fill="none" stroke="#63b8ff" d="M580.73,-169.68C580,-157.94 579.11,-143.77 578.55,-134.82"/>
<polygon fill="#63b8ff" stroke="#63b8ff" points="577.23,-169.83 581.35,-179.59 584.22,-169.39 577.23,-169.83"/>
</g>
<!-- Node9 -->
<g id="node9" class="node">
<title>Node9</title>
<g id="a_node9"><a xlink:href="Attribute__Request_8h.html" target="_top" xlink:title=" ">
<polygon fill="white" stroke="#666666" points="393.5,-74 274.5,-74 274.5,-55 393.5,-55 393.5,-74"/>
<text text-anchor="middle" x="334" y="-62" font-family="Helvetica,sans-Serif" font-size="10.00">src/Attribute_Request.h</text>
</a>
</g>
</g>
<!-- Node8&#45;&gt;Node9 -->
<g id="edge8" class="edge">
<title>Node8&#45;&gt;Node9</title>
<path fill="none" stroke="#63b8ff" d="M324.38,-98.59C326.92,-89.85 329.6,-80.65 331.48,-74.18"/>
<polygon fill="#63b8ff" stroke="#63b8ff" points="321.05,-97.51 321.62,-108.09 327.78,-99.46 321.05,-97.51"/>
</g>
<!-- Node10 -->
<g id="node10" class="node">
<title>Node10</title>
<g id="a_node10"><a xlink:href="OTA__Firmware__Update_8h.html" target="_top" xlink:title=" ">
<polygon fill="white" stroke="#666666" points="449.5,-19 306.5,-19 306.5,0 449.5,0 449.5,-19"/>
<text text-anchor="middle" x="378" y="-7" font-family="Helvetica,sans-Serif" font-size="10.00">src/OTA_Firmware_Update.h</text>
</a>
</g>
</g>
<!-- Node9&#45;&gt;Node10 -->
<g id="edge9" class="edge">
<title>Node9&#45;&gt;Node10</title>
<path fill="none" stroke="#63b8ff" d="M348.58,-45.93C355.95,-37.06 364.58,-26.67 370.58,-19.44"/>
<polygon fill="#63b8ff" stroke="#63b8ff" points="345.93,-43.65 342.23,-53.58 351.31,-48.13 345.93,-43.65"/>
</g>
<!-- Node11&#45;&gt;Node10 -->
<g id="edge11" class="edge">
<title>Node11&#45;&gt;Node10</title>
<path fill="none" stroke="#63b8ff" d="M1266.39,-112.12C1206.73,-96.36 1096.12,-68.94 1000,-55 802.06,-26.3 565.87,-15.85 449.73,-12.25"/>
<polygon fill="#63b8ff" stroke="#63b8ff" points="1265.24,-115.43 1275.8,-114.62 1267.04,-108.67 1265.24,-115.43"/>
</g>
<!-- Node13 -->
<g id="node13" class="node">
<title>Node13</title>
<g id="a_node13"><a xlink:href="Provision_8h.html" target="_top" xlink:title=" ">
<polygon fill="white" stroke="#666666" points="838.5,-74 757.5,-74 757.5,-55 838.5,-55 838.5,-74"/>
<text text-anchor="middle" x="798" y="-62" font-family="Helvetica,sans-Serif" font-size="10.00">src/Provision.h</text>
</a>
</g>
</g>
<!-- Node12&#45;&gt;Node13 -->
<g id="edge13" class="edge">
<title>Node12&#45;&gt;Node13</title>
<path fill="none" stroke="#63b8ff" d="M778.34,-105.16C783.5,-94.74 789.67,-82.3 793.7,-74.17"/>
<polygon fill="#63b8ff" stroke="#63b8ff" points="775.26,-103.5 773.95,-114.01 781.53,-106.61 775.26,-103.5"/>
</g>
<!-- Node14 -->
<g id="node14" class="node">
<title>Node14</title>
<g id="a_node14"><a xlink:href="Provision__Callback_8cpp.html" target="_top" xlink:title=" ">
<polygon fill="white" stroke="#666666" points="991,-74 857,-74 857,-55 991,-55 991,-74"/>
<text text-anchor="middle" x="924" y="-62" font-family="Helvetica,sans-Serif" font-size="10.00">src/Provision_Callback.cpp</text>
</a>
</g>
</g>
<!-- Node12&#45;&gt;Node14 -->
<g id="edge14" class="edge">
<title>Node12&#45;&gt;Node14</title>
<path fill="none" stroke="#63b8ff" d="M803.16,-111.11C832.59,-100 874.31,-84.25 900.24,-74.47"/>
<polygon fill="#63b8ff" stroke="#63b8ff" points="802.08,-107.77 793.96,-114.58 804.55,-114.32 802.08,-107.77"/>
</g>
<!-- Node16 -->
<g id="node16" class="node">
<title>Node16</title>
<g id="a_node16"><a xlink:href="Client__Side__RPC_8h.html" target="_top" xlink:title=" ">
<polygon fill="white" stroke="#666666" points="566,-74 450,-74 450,-55 566,-55 566,-74"/>
<text text-anchor="middle" x="508" y="-62" font-family="Helvetica,sans-Serif" font-size="10.00">src/Client_Side_RPC.h</text>
</a>
</g>
</g>
<!-- Node15&#45;&gt;Node16 -->
<g id="edge16" class="edge">
<title>Node15&#45;&gt;Node16</title>
<path fill="none" stroke="#63b8ff" d="M558.75,-107.91C545.86,-97.14 529.36,-83.35 518.73,-74.47"/>
<polygon fill="#63b8ff" stroke="#63b8ff" points="556.29,-110.42 566.21,-114.14 560.78,-105.05 556.29,-110.42"/>
</g>
<!-- Node17 -->
<g id="node17" class="node">
<title>Node17</title>
<g id="a_node17"><a xlink:href="RPC__Request__Callback_8cpp.html" target="_top" xlink:title=" ">
<polygon fill="white" stroke="#666666" points="739.5,-74 584.5,-74 584.5,-55 739.5,-55 739.5,-74"/>
<text text-anchor="middle" x="662" y="-62" font-family="Helvetica,sans-Serif" font-size="10.00">src/RPC_Request_Callback.cpp</text>
</a>
</g>
</g>
<!-- Node15&#45;&gt;Node17 -->
<g id="edge17" class="edge">
<title>Node15&#45;&gt;Node17</title>
<path fill="none" stroke="#63b8ff" d="M600.2,-108.54C615.8,-97.67 636.13,-83.52 649.12,-74.47"/>
<polygon fill="#63b8ff" stroke="#63b8ff" points="598.21,-105.66 592,-114.25 602.21,-111.41 598.21,-105.66"/>
</g>
<!-- Node18&#45;&gt;Node9 -->
<g id="edge19" class="edge">
<title>Node18&#45;&gt;Node9</title>
<path fill="none" stroke="#63b8ff" d="M423.37,-171.45C413.38,-154.67 397.53,-129.67 381,-110 369.72,-96.58 354.74,-82.99 344.75,-74.42"/>
<polygon fill="#63b8ff" stroke="#63b8ff" points="420.2,-172.97 428.27,-179.83 426.25,-169.43 420.2,-172.97"/>
</g>
<!-- Node18&#45;&gt;Node10 -->
<g id="edge21" class="edge">
<title>Node18&#45;&gt;Node10</title>
<path fill="none" stroke="#63b8ff" d="M430.94,-169.98C426.48,-143.19 417.02,-94.47 402,-55 397.07,-42.04 389.08,-28.13 383.69,-19.37"/>
<polygon fill="#63b8ff" stroke="#63b8ff" points="427.47,-170.42 432.5,-179.74 434.38,-169.32 427.47,-170.42"/>
</g>
<!-- Node18&#45;&gt;Node13 -->
<g id="edge22" class="edge">
<title>Node18&#45;&gt;Node13</title>
<path fill="none" stroke="#63b8ff" d="M490.56,-178.76C552.1,-166.33 643.81,-147.1 659,-140 678.81,-130.74 679.21,-121.19 698,-110 722.65,-95.32 753.01,-82.47 773.77,-74.41"/>
<polygon fill="#63b8ff" stroke="#63b8ff" points="490.04,-175.3 480.93,-180.7 491.42,-182.16 490.04,-175.3"/>
</g>
<!-- Node18&#45;&gt;Node16 -->
<g id="edge20" class="edge">
<title>Node18&#45;&gt;Node16</title>
<path fill="none" stroke="#63b8ff" d="M445.19,-171.17C461.4,-143.9 490.77,-94.48 502.73,-74.37"/>
<polygon fill="#63b8ff" stroke="#63b8ff" points="442.2,-169.36 440.1,-179.75 448.21,-172.94 442.2,-169.36"/>
</g>
<!-- Node19 -->
<g id="node19" class="node">
<title>Node19</title>
<g id="a_node19"><a xlink:href="Server__Side__RPC_8h.html" target="_top" xlink:title=" ">
<polygon fill="white" stroke="#666666" points="243.5,-134.5 124.5,-134.5 124.5,-115.5 243.5,-115.5 243.5,-134.5"/>
<text text-anchor="middle" x="184" y="-122.5" font-family="Helvetica,sans-Serif" font-size="10.00">src/Server_Side_RPC.h</text>
</a>
</g>
</g>
<!-- Node18&#45;&gt;Node19 -->
<g id="edge23" class="edge">
<title>Node18&#45;&gt;Node19</title>
<path fill="none" stroke="#63b8ff" d="M388.08,-178.24C339.19,-165.73 262.93,-146.21 218.79,-134.91"/>
<polygon fill="#63b8ff" stroke="#63b8ff" points="386.95,-181.57 397.51,-180.66 388.69,-174.79 386.95,-181.57"/>
</g>
<!-- Node20 -->
<g id="node20" class="node">
<title>Node20</title>
<g id="a_node20"><a xlink:href="Shared__Attribute__Update_8h.html" target="_top" xlink:title=" ">
<polygon fill="white" stroke="#666666" points="106,-140 0,-140 0,-110 106,-110 106,-140"/>
<text text-anchor="start" x="8" y="-128" font-family="Helvetica,sans-Serif" font-size="10.00">src/Shared_Attribute</text>
<text text-anchor="middle" x="53" y="-117" font-family="Helvetica,sans-Serif" font-size="10.00">_Update.h</text>
</a>
</g>
</g>
<!-- Node18&#45;&gt;Node20 -->
<g id="edge24" class="edge">
<title>Node18&#45;&gt;Node20</title>
<path fill="none" stroke="#63b8ff" d="M376.41,-179.02C370.54,-177.97 364.65,-176.94 359,-176 250.88,-157.94 222.76,-160.09 115,-140 112.18,-139.47 109.29,-138.91 106.38,-138.32"/>
<polygon fill="#63b8ff" stroke="#63b8ff" points="375.69,-182.45 386.15,-180.79 376.94,-175.56 375.69,-182.45"/>
</g>
<!-- Node21 -->
<g id="node21" class="node">
<title>Node21</title>
<g id="a_node21"><a xlink:href="ThingsBoard_8h.html" target="_top" xlink:title=" ">
<polygon fill="white" stroke="#666666" points="944.5,-134.5 849.5,-134.5 849.5,-115.5 944.5,-115.5 944.5,-134.5"/>
<text text-anchor="middle" x="897" y="-122.5" font-family="Helvetica,sans-Serif" font-size="10.00">src/ThingsBoard.h</text>
</a>
</g>
</g>
<!-- Node18&#45;&gt;Node21 -->
<g id="edge26" class="edge">
<title>Node18&#45;&gt;Node21</title>
<path fill="none" stroke="#63b8ff" d="M490.34,-179.01C496.62,-177.92 502.94,-176.89 509,-176 655.39,-154.41 694.27,-165.7 840,-140 847.73,-138.64 855.96,-136.83 863.7,-134.96"/>
<polygon fill="#63b8ff" stroke="#63b8ff" points="489.84,-175.54 480.61,-180.74 491.07,-182.43 489.84,-175.54"/>
</g>
<!-- Node20&#45;&gt;Node10 -->
<g id="edge25" class="edge">
<title>Node20&#45;&gt;Node10</title>
<path fill="none" stroke="#63b8ff" d="M104.95,-105.86C175.67,-81.16 299.53,-37.9 352.64,-19.36"/>
<polygon fill="#63b8ff" stroke="#63b8ff" points="104.21,-102.41 95.92,-109.01 106.52,-109.02 104.21,-102.41"/>
</g>
<!-- Node22&#45;&gt;Node21 -->
<g id="edge28" class="edge">
<title>Node22&#45;&gt;Node21</title>
<path fill="none" stroke="#63b8ff" d="M783.52,-176.44C811.76,-163.88 852.94,-145.58 877.15,-134.82"/>
<polygon fill="#63b8ff" stroke="#63b8ff" points="782.12,-173.23 774.41,-180.49 784.97,-179.62 782.12,-173.23"/>
</g>
<!-- Node23&#45;&gt;Node11 -->
<g id="edge30" class="edge">
<title>Node23&#45;&gt;Node11</title>
<path fill="none" stroke="#63b8ff" d="M1235.11,-174.91C1254.21,-162.44 1280.67,-145.15 1296.49,-134.82"/>
<polygon fill="#63b8ff" stroke="#63b8ff" points="1233.35,-171.88 1226.89,-180.27 1237.18,-177.74 1233.35,-171.88"/>
</g>
<!-- Node24 -->
<g id="node24" class="node">
<title>Node24</title>
<g id="a_node24"><a xlink:href="OTA__Update__Callback_8cpp.html" target="_top" xlink:title=" ">
<polygon fill="white" stroke="#666666" points="1241.5,-134.5 1090.5,-134.5 1090.5,-115.5 1241.5,-115.5 1241.5,-134.5"/>
<text text-anchor="middle" x="1166" y="-122.5" font-family="Helvetica,sans-Serif" font-size="10.00">src/OTA_Update_Callback.cpp</text>
</a>
</g>
</g>
<!-- Node23&#45;&gt;Node24 -->
<g id="edge31" class="edge">
<title>Node23&#45;&gt;Node24</title>
<path fill="none" stroke="#63b8ff" d="M1198.99,-171.9C1190.27,-159.77 1179.19,-144.34 1172.34,-134.82"/>
<polygon fill="#63b8ff" stroke="#63b8ff" points="1196.04,-173.79 1204.72,-179.87 1201.73,-169.71 1196.04,-173.79"/>
</g>
<!-- Node25&#45;&gt;Node19 -->
<g id="edge33" class="edge">
<title>Node25&#45;&gt;Node19</title>
<path fill="none" stroke="#63b8ff" d="M272.34,-175.59C250.04,-163.08 218.46,-145.34 199.72,-134.82"/>
<polygon fill="#63b8ff" stroke="#63b8ff" points="270.4,-178.52 280.83,-180.36 273.82,-172.41 270.4,-178.52"/>
</g>
<!-- Node26&#45;&gt;Node20 -->
<g id="edge35" class="edge">
<title>Node26&#45;&gt;Node20</title>
<path fill="none" stroke="#63b8ff" d="M137.48,-170.32C119.01,-160.63 97.14,-149.16 80.29,-140.31"/>
<polygon fill="#63b8ff" stroke="#63b8ff" points="135.8,-173.39 146.28,-174.93 139.05,-167.19 135.8,-173.39"/>
</g>
<!-- Node27&#45;&gt;Node8 -->
<g id="edge37" class="edge">
<title>Node27&#45;&gt;Node8</title>
<path fill="none" stroke="#63b8ff" d="M379.72,-251.18C297.4,-250.92 146.93,-244.96 113,-206 104.24,-195.95 104.77,-186.49 113,-176 115.35,-173.01 201.45,-152.64 261.03,-138.84"/>
<polygon fill="#63b8ff" stroke="#63b8ff" points="379.6,-254.68 389.6,-251.18 379.6,-247.68 379.6,-254.68"/>
</g>
<!-- Node27&#45;&gt;Node18 -->
<g id="edge38" class="edge">
<title>Node27&#45;&gt;Node18</title>
<path fill="none" stroke="#63b8ff" d="M434,-230.66C434,-220.45 434,-208.54 434,-200.67"/>
<polygon fill="#63b8ff" stroke="#63b8ff" points="430.5,-230.35 434,-240.35 437.5,-230.35 430.5,-230.35"/>
</g>
<!-- Node27&#45;&gt;Node21 -->
<g id="edge41" class="edge">
<title>Node27&#45;&gt;Node21</title>
<path fill="none" stroke="#63b8ff" d="M487.9,-246.47C533.78,-241.46 600.55,-230.36 654,-206 673.9,-196.93 673.29,-185.47 693,-176 753.63,-146.87 774.67,-156.02 840,-140 846.63,-138.37 853.7,-136.64 860.51,-134.97"/>
<polygon fill="#63b8ff" stroke="#63b8ff" points="487.8,-242.96 478.21,-247.46 488.51,-249.93 487.8,-242.96"/>
</g>
<!-- Node27&#45;&gt;Node25 -->
<g id="edge39" class="edge">
<title>Node27&#45;&gt;Node25</title>
<path fill="none" stroke="#63b8ff" d="M403,-237.16C377.24,-226.08 341.29,-210.62 318.85,-200.97"/>
<polygon fill="#63b8ff" stroke="#63b8ff" points="401.38,-240.28 411.95,-241.02 404.15,-233.85 401.38,-240.28"/>
</g>
<!-- Node27&#45;&gt;Node26 -->
<g id="edge40" class="edge">
<title>Node27&#45;&gt;Node26</title>
<path fill="none" stroke="#63b8ff" d="M383.18,-239.02C338.43,-228.91 273.5,-214.25 228.09,-203.99"/>
<polygon fill="#63b8ff" stroke="#63b8ff" points="382.38,-242.43 392.91,-241.22 383.92,-235.6 382.38,-242.43"/>
</g>
<!-- Node28 -->
<g id="node28" class="node">
<title>Node28</title>
<g id="a_node28"><a xlink:href="ThingsBoardHttp_8h.html" target="_top" xlink:title=" ">
<polygon fill="white" stroke="#666666" points="974,-200.5 860,-200.5 860,-181.5 974,-181.5 974,-200.5"/>
<text text-anchor="middle" x="917" y="-188.5" font-family="Helvetica,sans-Serif" font-size="10.00">src/ThingsBoardHttp.h</text>
</a>
</g>
</g>
<!-- Node27&#45;&gt;Node28 -->
<g id="edge42" class="edge">
<title>Node27&#45;&gt;Node28</title>
<path fill="none" stroke="#63b8ff" d="M488.06,-244.4C561.46,-236.06 696.71,-220.47 812,-206 827.42,-204.06 844.1,-201.88 859.53,-199.83"/>
<polygon fill="#63b8ff" stroke="#63b8ff" points="487.87,-240.9 478.33,-245.5 488.66,-247.85 487.87,-240.9"/>
</g>
<!-- Node31&#45;&gt;Node11 -->
<g id="edge47" class="edge">
<title>Node31&#45;&gt;Node11</title>
<path fill="none" stroke="#63b8ff" d="M1668.28,-362.97C1682.91,-354.77 1698.76,-342.87 1707,-327 1738.17,-266.93 1676.6,-204.56 1634,-176 1590.15,-146.61 1439.73,-133.56 1360.21,-128.6"/>
<polygon fill="#63b8ff" stroke="#63b8ff" points="1667.06,-359.66 1659.79,-367.36 1670.28,-365.88 1667.06,-359.66"/>
</g>
<!-- Node32 -->
<g id="node32" class="node">
<title>Node32</title>
<g id="a_node32"><a xlink:href="HashGenerator_8cpp.html" target="_top" xlink:title=" ">
<polygon fill="white" stroke="#666666" points="1697.5,-321.5 1580.5,-321.5 1580.5,-302.5 1697.5,-302.5 1697.5,-321.5"/>
<text text-anchor="middle" x="1639" y="-309.5" font-family="Helvetica,sans-Serif" font-size="10.00">src/HashGenerator.cpp</text>
</a>
</g>
</g>
<!-- Node31&#45;&gt;Node32 -->
<g id="edge46" class="edge">
<title>Node31&#45;&gt;Node32</title>
<path fill="none" stroke="#63b8ff" d="M1636.95,-356.68C1637.5,-344.94 1638.17,-330.77 1638.59,-321.82"/>
<polygon fill="#63b8ff" stroke="#63b8ff" points="1633.46,-356.44 1636.49,-366.59 1640.45,-356.76 1633.46,-356.44"/>
</g>
<!-- Node33&#45;&gt;Node11 -->
<g id="edge61" class="edge">
<title>Node33&#45;&gt;Node11</title>
<path fill="none" stroke="#63b8ff" d="M1145.27,-362.1C1176.1,-342.19 1229.46,-304.35 1264,-261 1295.79,-221.11 1306.2,-158 1309.06,-134.87"/>
<polygon fill="#63b8ff" stroke="#63b8ff" points="1143.58,-359.03 1137.01,-367.34 1147.33,-364.94 1143.58,-359.03"/>
</g>
<!-- Node33&#45;&gt;Node28 -->
<g id="edge62" class="edge">
<title>Node33&#45;&gt;Node28</title>
<path fill="none" stroke="#63b8ff" d="M1131.48,-358.41C1139.62,-341.24 1147.73,-315.64 1136,-297 1114.04,-262.12 997.9,-219.28 944.23,-200.98"/>
<polygon fill="#63b8ff" stroke="#63b8ff" points="1128.53,-356.49 1127.03,-366.98 1134.74,-359.72 1128.53,-356.49"/>
</g>
<!-- Node34 -->
<g id="node34" class="node">
<title>Node34</title>
<g id="a_node34"><a xlink:href="Container_8h.html" target="_top" xlink:title=" ">
<polygon fill="white" stroke="#666666" points="909,-321.5 827,-321.5 827,-302.5 909,-302.5 909,-321.5"/>
<text text-anchor="middle" x="868" y="-309.5" font-family="Helvetica,sans-Serif" font-size="10.00">src/Container.h</text>
</a>
</g>
</g>
<!-- Node33&#45;&gt;Node34 -->
<g id="edge49" class="edge">
<title>Node33&#45;&gt;Node34</title>
<path fill="none" stroke="#63b8ff" d="M1075.03,-366.11C1033.81,-356.25 971.74,-341.14 918,-327 911.98,-325.42 905.58,-323.67 899.43,-321.96"/>
<polygon fill="#63b8ff" stroke="#63b8ff" points="1074.06,-369.48 1084.6,-368.4 1075.69,-362.67 1074.06,-369.48"/>
</g>
<!-- Node35 -->
<g id="node35" class="node">
<title>Node35</title>
<g id="a_node35"><a xlink:href="DefaultLogger_8h.html" target="_top" xlink:title=" ">
<polygon fill="white" stroke="#666666" points="1028.5,-321.5 927.5,-321.5 927.5,-302.5 1028.5,-302.5 1028.5,-321.5"/>
<text text-anchor="middle" x="978" y="-309.5" font-family="Helvetica,sans-Serif" font-size="10.00">src/DefaultLogger.h</text>
</a>
</g>
</g>
<!-- Node33&#45;&gt;Node35 -->
<g id="edge51" class="edge">
<title>Node33&#45;&gt;Node35</title>
<path fill="none" stroke="#63b8ff" d="M1090.69,-363.44C1062.64,-350.88 1021.75,-332.58 997.71,-321.82"/>
<polygon fill="#63b8ff" stroke="#63b8ff" points="1089.18,-366.59 1099.73,-367.48 1092.04,-360.2 1089.18,-366.59"/>
</g>
<!-- Node38 -->
<g id="node38" class="node">
<title>Node38</title>
<g id="a_node38"><a xlink:href="Helper_8cpp.html" target="_top" xlink:title=" ">
<polygon fill="white" stroke="#666666" points="1127,-321.5 1047,-321.5 1047,-302.5 1127,-302.5 1127,-321.5"/>
<text text-anchor="middle" x="1087" y="-309.5" font-family="Helvetica,sans-Serif" font-size="10.00">src/Helper.cpp</text>
</a>
</g>
</g>
<!-- Node33&#45;&gt;Node38 -->
<g id="edge60" class="edge">
<title>Node33&#45;&gt;Node38</title>
<path fill="none" stroke="#63b8ff" d="M1110.99,-358.16C1104.61,-346.16 1096.64,-331.15 1091.69,-321.82"/>
<polygon fill="#63b8ff" stroke="#63b8ff" points="1107.78,-359.58 1115.56,-366.76 1113.96,-356.29 1107.78,-359.58"/>
</g>
<!-- Node34&#45;&gt;Node6 -->
<g id="edge50" class="edge">
<title>Node34&#45;&gt;Node6</title>
<path fill="none" stroke="#63b8ff" d="M818.97,-299.48C771.48,-288.32 700.47,-271.64 657.08,-261.45"/>
<polygon fill="#63b8ff" stroke="#63b8ff" points="817.9,-302.83 828.44,-301.71 819.5,-296.01 817.9,-302.83"/>
</g>
<!-- Node35&#45;&gt;Node18 -->
<g id="edge52" class="edge">
<title>Node35&#45;&gt;Node18</title>
<path fill="none" stroke="#63b8ff" d="M928.9,-299.49C925.21,-298.64 921.55,-297.8 918,-297 755.1,-260.15 560.74,-218.77 476.46,-200.95"/>
<polygon fill="#63b8ff" stroke="#63b8ff" points="927.92,-302.85 938.45,-301.69 929.5,-296.03 927.92,-302.85"/>
</g>
<!-- Node35&#45;&gt;Node21 -->
<g id="edge58" class="edge">
<title>Node35&#45;&gt;Node21</title>
<path fill="none" stroke="#63b8ff" d="M932.6,-298.98C900.18,-289.37 860.68,-275.21 851,-261 829.74,-229.78 837.27,-211.2 851,-176 857.77,-158.64 873.71,-143.66 884.92,-134.74"/>
<polygon fill="#63b8ff" stroke="#63b8ff" points="931.23,-302.23 941.81,-301.64 933.17,-295.5 931.23,-302.23"/>
</g>
<!-- Node35&#45;&gt;Node22 -->
<g id="edge53" class="edge">
<title>Node35&#45;&gt;Node22</title>
<path fill="none" stroke="#63b8ff" d="M931.1,-299.18C891.05,-288.57 837,-272.89 818,-261 791.77,-244.59 769.01,-215.07 758.77,-200.55"/>
<polygon fill="#63b8ff" stroke="#63b8ff" points="929.96,-302.5 940.52,-301.64 931.74,-295.72 929.96,-302.5"/>
</g>
<!-- Node35&#45;&gt;Node28 -->
<g id="edge59" class="edge">
<title>Node35&#45;&gt;Node28</title>
<path fill="none" stroke="#63b8ff" d="M978.83,-290.91C978.62,-276.56 976.67,-257.19 969,-242 960.2,-224.56 942.81,-209.81 930.58,-200.94"/>
<polygon fill="#63b8ff" stroke="#63b8ff" points="975.33,-290.84 978.67,-300.89 982.33,-290.95 975.33,-290.84"/>
</g>
<!-- Node35&#45;&gt;Node36 -->
<g id="edge54" class="edge">
<title>Node35&#45;&gt;Node36</title>
<path fill="none" stroke="#63b8ff" d="M1024.93,-299.63C1029.34,-298.69 1033.75,-297.8 1038,-297 1135.92,-278.65 1252.32,-263.95 1311.78,-256.95"/>
<polygon fill="#63b8ff" stroke="#63b8ff" points="1024.54,-296.13 1015.54,-301.72 1026.06,-302.97 1024.54,-296.13"/>
</g>
<!-- Node36&#45;&gt;Node23 -->
<g id="edge56" class="edge">
<title>Node36&#45;&gt;Node23</title>
<path fill="none" stroke="#63b8ff" d="M1319.31,-237.16C1292.99,-226.08 1256.25,-210.62 1233.31,-200.97"/>
<polygon fill="#63b8ff" stroke="#63b8ff" points="1317.92,-240.37 1328.49,-241.03 1320.63,-233.92 1317.92,-240.37"/>
</g>
<!-- Node36&#45;&gt;Node30 -->
<g id="edge55" class="edge">
<title>Node36&#45;&gt;Node30</title>
<path fill="none" stroke="#63b8ff" d="M1365.38,-232.98C1374.13,-222.31 1384.93,-209.15 1391.89,-200.67"/>
<polygon fill="#63b8ff" stroke="#63b8ff" points="1362.68,-230.75 1359.04,-240.7 1368.09,-235.19 1362.68,-230.75"/>
</g>
<!-- Node36&#45;&gt;Node37 -->
<g id="edge57" class="edge">
<title>Node36&#45;&gt;Node37</title>
<path fill="none" stroke="#63b8ff" d="M1389.72,-238.19C1424.74,-227.06 1475.48,-210.92 1506.79,-200.97"/>
<polygon fill="#63b8ff" stroke="#63b8ff" points="1388.86,-234.79 1380.39,-241.16 1390.98,-241.46 1388.86,-234.79"/>
</g>
<!-- Node39&#45;&gt;Node28 -->
<g id="edge64" class="edge">
<title>Node39&#45;&gt;Node28</title>
<path fill="none" stroke="#63b8ff" d="M912.37,-230.66C913.6,-220.45 915.02,-208.54 915.96,-200.67"/>
<polygon fill="#63b8ff" stroke="#63b8ff" points="908.93,-230.02 911.21,-240.37 915.88,-230.85 908.93,-230.02"/>
</g>
<!-- Node40&#45;&gt;Node21 -->
<g id="edge70" class="edge">
<title>Node40&#45;&gt;Node21</title>
<path fill="none" stroke="#63b8ff" d="M1161,-240.99C1112.74,-231.84 1045.4,-217.71 1021,-206 1001.6,-196.69 1000.79,-188.1 983,-176 959.87,-160.26 931.57,-144.42 913.91,-134.91"/>
<polygon fill="#63b8ff" stroke="#63b8ff" points="1160.25,-244.41 1170.73,-242.81 1161.54,-237.53 1160.25,-244.41"/>
</g>
<!-- Node40&#45;&gt;Node28 -->
<g id="edge71" class="edge">
<title>Node40&#45;&gt;Node28</title>
<path fill="none" stroke="#63b8ff" d="M1161.2,-240.11C1115.4,-231.09 1047.32,-217.69 988,-206 979.74,-204.37 970.94,-202.64 962.45,-200.96"/>
<polygon fill="#63b8ff" stroke="#63b8ff" points="1160.37,-243.51 1170.86,-242.01 1161.72,-236.64 1160.37,-243.51"/>
</g>
<!-- Node41 -->
<g id="node41" class="node">
<title>Node41</title>
<g id="a_node41"><a xlink:href="Telemetry_8cpp.html" target="_top" xlink:title=" ">
<polygon fill="white" stroke="#666666" points="1124,-200.5 1030,-200.5 1030,-181.5 1124,-181.5 1124,-200.5"/>
<text text-anchor="middle" x="1077" y="-188.5" font-family="Helvetica,sans-Serif" font-size="10.00">src/Telemetry.cpp</text>
</a>
</g>
</g>
<!-- Node40&#45;&gt;Node41 -->
<g id="edge69" class="edge">
<title>Node40&#45;&gt;Node41</title>
<path fill="none" stroke="#63b8ff" d="M1182.77,-237.16C1156.82,-226.08 1120.61,-210.62 1098,-200.97"/>
<polygon fill="#63b8ff" stroke="#63b8ff" points="1181.23,-240.31 1191.8,-241.02 1183.98,-233.87 1181.23,-240.31"/>
</g>
</g>
</svg>
