<?xml version="1.0" encoding="UTF-8" standalone="no"?>
<!DOCTYPE svg PUBLIC "-//W3C//DTD SVG 1.1//EN"
 "http://www.w3.org/Graphics/SVG/1.1/DTD/svg11.dtd">
<!-- Generated by graphviz version 7.0.5 (20221223.1930)
 -->
<!-- Title: src/Configuration.h Pages: 1 -->
<!--zoomable 522 -->
<svg id="main" version="1.1" xmlns="http://www.w3.org/2000/svg" xmlns:xlink="http://www.w3.org/1999/xlink" xml:space="preserve" onload="init(evt)">
<style type="text/css"><![CDATA[
.edge:hover path { stroke: red; }
.edge:hover polygon { stroke: red; fill: red; }
]]></style>
<script type="text/javascript"><![CDATA[
var edges = document.getElementsByTagName('g');
if (edges && edges.length) {
  for (var i=0;i<edges.length;i++) {
    if (edges[i].id.substr(0,4)=='edge') {
      edges[i].setAttribute('class','edge');
    }
  }
}
]]></script>
        <defs>
                <circle id="rim" cx="0" cy="0" r="7"/>
                <circle id="rim2" cx="0" cy="0" r="3.5"/>
                <g id="zoomPlus">
                        <use xlink:href="#rim" fill="#404040">
                                <set attributeName="fill" to="#808080" begin="zoomplus.mouseover" end="zoomplus.mouseout"/>
                        </use>
                        <path d="M-4,0h8M0,-4v8" fill="none" stroke="white" stroke-width="1.5" pointer-events="none"/>
                </g>
                <g id="zoomMin">
                        <use xlink:href="#rim" fill="#404040">
                                <set attributeName="fill" to="#808080" begin="zoomminus.mouseover" end="zoomminus.mouseout"/>
                        </use>
                        <path d="M-4,0h8" fill="none" stroke="white" stroke-width="1.5" pointer-events="none"/>
                </g>
                <g id="dirArrow">
                        <path fill="none" stroke="white" stroke-width="1.5" d="M0,-3.0v7 M-2.5,-0.5L0,-3.0L2.5,-0.5"/>
                </g>
               <g id="resetDef">
                       <use xlink:href="#rim2" fill="#404040">
                               <set attributeName="fill" to="#808080" begin="reset.mouseover" end="reset.mouseout"/>
                       </use>
               </g>
        </defs>

<script type="text/javascript">
var viewWidth = 1692;
var viewHeight = 522;
var sectionId = 'dynsection-0';
</script>
<script xlink:href="svgpan.js"/>
<svg id="graph" class="graph">
<g id="viewport">
<title>src/Configuration.h</title>
<!-- Node1 -->
<g id="node1" class="node">
<title>Node1</title>
<g id="a_node1"><a xlink:title=" ">
<polygon fill="#999999" stroke="#666666" points="1116.11,-514 1019.11,-514 1019.11,-495 1116.11,-495 1116.11,-514"/>
<text text-anchor="middle" x="1067.61" y="-502" font-family="Helvetica,sans-Serif" font-size="10.00">src/Configuration.h</text>
</a>
</g>
</g>
<!-- Node2 -->
<g id="node2" class="node">
<title>Node2</title>
<g id="a_node2"><a xlink:href="Arduino__ESP32__Updater_8h.html" target="_top" xlink:title=" ">
<polygon fill="white" stroke="#666666" points="519.11,-453.5 370.11,-453.5 370.11,-434.5 519.11,-434.5 519.11,-453.5"/>
<text text-anchor="middle" x="444.61" y="-441.5" font-family="Helvetica,sans-Serif" font-size="10.00">src/Arduino_ESP32_Updater.h</text>
</a>
</g>
</g>
<!-- Node1&#45;&gt;Node2 -->
<g id="edge1" class="edge">
<title>Node1&#45;&gt;Node2</title>
<path fill="none" stroke="#63b8ff" d="M1007.29,-500.05C907.77,-494.02 702.99,-480.14 530.61,-459 519.2,-457.6 506.98,-455.8 495.45,-453.96"/>
<polygon fill="#63b8ff" stroke="#63b8ff" points="1006.91,-503.54 1017.1,-500.64 1007.33,-496.55 1006.91,-503.54"/>
</g>
<!-- Node4 -->
<g id="node4" class="node">
<title>Node4</title>
<g id="a_node4"><a xlink:href="Arduino__ESP8266__Updater_8h.html" target="_top" xlink:title=" ">
<polygon fill="white" stroke="#666666" points="651.61,-459 539.61,-459 539.61,-429 651.61,-429 651.61,-459"/>
<text text-anchor="start" x="547.61" y="-447" font-family="Helvetica,sans-Serif" font-size="10.00">src/Arduino_ESP8266</text>
<text text-anchor="middle" x="595.61" y="-436" font-family="Helvetica,sans-Serif" font-size="10.00">_Updater.h</text>
</a>
</g>
</g>
<!-- Node1&#45;&gt;Node4 -->
<g id="edge3" class="edge">
<title>Node1&#45;&gt;Node4</title>
<path fill="none" stroke="#63b8ff" d="M1007.71,-498.51C928.97,-491.58 786.48,-477.74 665.61,-459 661.2,-458.32 656.65,-457.55 652.08,-456.73"/>
<polygon fill="#63b8ff" stroke="#63b8ff" points="1007.08,-501.97 1017.35,-499.35 1007.69,-495 1007.08,-501.97"/>
</g>
<!-- Node6 -->
<g id="node6" class="node">
<title>Node6</title>
<g id="a_node6"><a xlink:href="Callback_8h.html" target="_top" xlink:title=" ">
<polygon fill="white" stroke="#666666" points="613.61,-327 535.61,-327 535.61,-308 613.61,-308 613.61,-327"/>
<text text-anchor="middle" x="574.61" y="-315" font-family="Helvetica,sans-Serif" font-size="10.00">src/Callback.h</text>
</a>
</g>
</g>
<!-- Node1&#45;&gt;Node6 -->
<g id="edge5" class="edge">
<title>Node1&#45;&gt;Node6</title>
<path fill="none" stroke="#63b8ff" d="M1007.58,-497.74C961.03,-491.86 895.58,-480.42 841.61,-459 790.38,-438.67 782.56,-423.44 736.61,-393 717.19,-380.13 714.24,-373.83 693.61,-363 664.71,-347.82 629.45,-335.32 604.85,-327.47"/>
<polygon fill="#63b8ff" stroke="#63b8ff" points="1007.13,-501.22 1017.48,-498.94 1007.97,-494.27 1007.13,-501.22"/>
</g>
<!-- Node8 -->
<g id="node8" class="node">
<title>Node8</title>
<g id="a_node8"><a xlink:href="OTA__Handler_8h.html" target="_top" xlink:title=" ">
<polygon fill="white" stroke="#666666" points="1277.61,-74 1177.61,-74 1177.61,-55 1277.61,-55 1277.61,-74"/>
<text text-anchor="middle" x="1227.61" y="-62" font-family="Helvetica,sans-Serif" font-size="10.00">src/OTA_Handler.h</text>
</a>
</g>
</g>
<!-- Node1&#45;&gt;Node8 -->
<g id="edge69" class="edge">
<title>Node1&#45;&gt;Node8</title>
<path fill="none" stroke="#63b8ff" d="M1127.76,-499.13C1198.66,-493.09 1311.4,-480.44 1347.61,-459 1386.32,-436.08 1409.61,-423.98 1409.61,-379 1409.61,-379 1409.61,-379 1409.61,-190 1409.61,-122.24 1322.61,-88.66 1268.91,-74.39"/>
<polygon fill="#63b8ff" stroke="#63b8ff" points="1127.52,-495.64 1117.84,-499.95 1128.1,-502.61 1127.52,-495.64"/>
</g>
<!-- Node29 -->
<g id="node29" class="node">
<title>Node29</title>
<g id="a_node29"><a xlink:href="Constants_8h.html" target="_top" xlink:title=" ">
<polygon fill="white" stroke="#666666" points="404.11,-327 319.11,-327 319.11,-308 404.11,-308 404.11,-327"/>
<text text-anchor="middle" x="361.61" y="-315" font-family="Helvetica,sans-Serif" font-size="10.00">src/Constants.h</text>
</a>
</g>
</g>
<!-- Node1&#45;&gt;Node29 -->
<g id="edge40" class="edge">
<title>Node1&#45;&gt;Node29</title>
<path fill="none" stroke="#63b8ff" d="M1007.38,-502.28C948.31,-499.22 856.73,-489.41 783.61,-459 737.81,-439.95 732.02,-424.39 693.61,-393 678.26,-380.46 678.52,-371.49 660.61,-363 616.1,-341.89 476.05,-327.81 404.54,-321.8"/>
<polygon fill="#63b8ff" stroke="#63b8ff" points="1007.08,-505.77 1017.23,-502.74 1007.41,-498.78 1007.08,-505.77"/>
</g>
<!-- Node31 -->
<g id="node31" class="node">
<title>Node31</title>
<g id="a_node31"><a xlink:href="Espressif__MQTT__Client_8h.html" target="_top" xlink:title=" ">
<polygon fill="white" stroke="#666666" points="1545.11,-459 1438.11,-459 1438.11,-429 1545.11,-429 1545.11,-459"/>
<text text-anchor="start" x="1446.11" y="-447" font-family="Helvetica,sans-Serif" font-size="10.00">src/Espressif_MQTT</text>
<text text-anchor="middle" x="1491.61" y="-436" font-family="Helvetica,sans-Serif" font-size="10.00">_Client.h</text>
</a>
</g>
</g>
<!-- Node1&#45;&gt;Node31 -->
<g id="edge47" class="edge">
<title>Node1&#45;&gt;Node31</title>
<path fill="none" stroke="#63b8ff" d="M1127.81,-497.44C1198.77,-489.95 1320.14,-476.09 1423.61,-459 1428.25,-458.23 1433.05,-457.38 1437.86,-456.47"/>
<polygon fill="#63b8ff" stroke="#63b8ff" points="1127.53,-493.95 1117.95,-498.47 1128.26,-500.91 1127.53,-493.95"/>
</g>
<!-- Node32 -->
<g id="node32" class="node">
<title>Node32</title>
<g id="a_node32"><a xlink:href="Espressif__Updater_8h.html" target="_top" xlink:title=" ">
<polygon fill="white" stroke="#666666" points="1684.11,-453.5 1563.11,-453.5 1563.11,-434.5 1684.11,-434.5 1684.11,-453.5"/>
<text text-anchor="middle" x="1623.61" y="-441.5" font-family="Helvetica,sans-Serif" font-size="10.00">src/Espressif_Updater.h</text>
</a>
</g>
</g>
<!-- Node1&#45;&gt;Node32 -->
<g id="edge48" class="edge">
<title>Node1&#45;&gt;Node32</title>
<path fill="none" stroke="#63b8ff" d="M1127.89,-500.11C1220.15,-494.45 1401.76,-481.42 1554.61,-459 1563.92,-457.63 1573.88,-455.82 1583.24,-453.96"/>
<polygon fill="#63b8ff" stroke="#63b8ff" points="1127.83,-496.61 1118.06,-500.71 1128.26,-503.6 1127.83,-496.61"/>
</g>
<!-- Node33 -->
<g id="node33" class="node">
<title>Node33</title>
<g id="a_node33"><a xlink:href="HashGenerator_8h.html" target="_top" xlink:title=" ">
<polygon fill="white" stroke="#666666" points="1338.11,-453.5 1231.11,-453.5 1231.11,-434.5 1338.11,-434.5 1338.11,-453.5"/>
<text text-anchor="middle" x="1284.61" y="-441.5" font-family="Helvetica,sans-Serif" font-size="10.00">src/HashGenerator.h</text>
</a>
</g>
</g>
<!-- Node1&#45;&gt;Node33 -->
<g id="edge49" class="edge">
<title>Node1&#45;&gt;Node33</title>
<path fill="none" stroke="#63b8ff" d="M1111.67,-491.62C1153.02,-480.48 1213.93,-464.05 1251.34,-453.97"/>
<polygon fill="#63b8ff" stroke="#63b8ff" points="1110.77,-488.24 1102.03,-494.22 1112.6,-495 1110.77,-488.24"/>
</g>
<!-- Node35 -->
<g id="node35" class="node">
<title>Node35</title>
<g id="a_node35"><a xlink:href="Helper_8h.html" target="_top" xlink:title=" ">
<polygon fill="white" stroke="#666666" points="1018.11,-453.5 949.11,-453.5 949.11,-434.5 1018.11,-434.5 1018.11,-453.5"/>
<text text-anchor="middle" x="983.61" y="-441.5" font-family="Helvetica,sans-Serif" font-size="10.00">src/Helper.h</text>
</a>
</g>
</g>
<!-- Node1&#45;&gt;Node35 -->
<g id="edge52" class="edge">
<title>Node1&#45;&gt;Node35</title>
<path fill="none" stroke="#63b8ff" d="M1045.41,-488.04C1029.81,-477.17 1009.49,-463.02 996.49,-453.97"/>
<polygon fill="#63b8ff" stroke="#63b8ff" points="1043.41,-490.91 1053.61,-493.75 1047.41,-485.16 1043.41,-490.91"/>
</g>
<!-- Node38 -->
<g id="node38" class="node">
<title>Node38</title>
<g id="a_node38"><a xlink:href="IUpdater_8h.html" target="_top" xlink:title=" ">
<polygon fill="white" stroke="#666666" points="903.61,-266.5 825.61,-266.5 825.61,-247.5 903.61,-247.5 903.61,-266.5"/>
<text text-anchor="middle" x="864.61" y="-254.5" font-family="Helvetica,sans-Serif" font-size="10.00">src/IUpdater.h</text>
</a>
</g>
</g>
<!-- Node1&#45;&gt;Node38 -->
<g id="edge68" class="edge">
<title>Node1&#45;&gt;Node38</title>
<path fill="none" stroke="#63b8ff" d="M1007.73,-493.74C984.09,-487.28 958.19,-476.6 939.61,-459 880.95,-403.4 867.85,-297.64 865.22,-266.7"/>
<polygon fill="#63b8ff" stroke="#63b8ff" points="1006.74,-497.1 1017.29,-496.14 1008.44,-490.31 1006.74,-497.1"/>
</g>
<!-- Node39 -->
<g id="node39" class="node">
<title>Node39</title>
<g id="a_node39"><a xlink:href="SDCard__Updater_8h.html" target="_top" xlink:title=" ">
<polygon fill="white" stroke="#666666" points="1204.61,-200.5 1090.61,-200.5 1090.61,-181.5 1204.61,-181.5 1204.61,-200.5"/>
<text text-anchor="middle" x="1147.61" y="-188.5" font-family="Helvetica,sans-Serif" font-size="10.00">src/SDCard_Updater.h</text>
</a>
</g>
</g>
<!-- Node1&#45;&gt;Node39 -->
<g id="edge70" class="edge">
<title>Node1&#45;&gt;Node39</title>
<path fill="none" stroke="#63b8ff" d="M1081.99,-485.49C1110.61,-448.3 1173.73,-359.21 1194.61,-272 1197.72,-259.03 1199.52,-254.4 1194.61,-242 1187.68,-224.5 1171.4,-209.56 1159.95,-200.68"/>
<polygon fill="#63b8ff" stroke="#63b8ff" points="1079.24,-483.33 1075.83,-493.36 1084.75,-487.64 1079.24,-483.33"/>
</g>
<!-- Node41 -->
<g id="node41" class="node">
<title>Node41</title>
<g id="a_node41"><a xlink:href="IHTTP__Client_8h.html" target="_top" xlink:title=" ">
<polygon fill="white" stroke="#666666" points="1045.61,-327 945.61,-327 945.61,-308 1045.61,-308 1045.61,-327"/>
<text text-anchor="middle" x="995.61" y="-315" font-family="Helvetica,sans-Serif" font-size="10.00">src/IHTTP_Client.h</text>
</a>
</g>
</g>
<!-- Node1&#45;&gt;Node41 -->
<g id="edge66" class="edge">
<title>Node1&#45;&gt;Node41</title>
<path fill="none" stroke="#63b8ff" d="M1064.19,-483.53C1058.9,-455.56 1047.24,-403.59 1027.61,-363 1021.15,-349.64 1010.68,-336.03 1003.49,-327.45"/>
<polygon fill="#63b8ff" stroke="#63b8ff" points="1060.69,-483.86 1065.91,-493.08 1067.58,-482.61 1060.69,-483.86"/>
</g>
<!-- Node42 -->
<g id="node42" class="node">
<title>Node42</title>
<g id="a_node42"><a xlink:href="Telemetry_8h.html" target="_top" xlink:title=" ">
<polygon fill="white" stroke="#666666" points="1147.11,-327 1064.11,-327 1064.11,-308 1147.11,-308 1147.11,-327"/>
<text text-anchor="middle" x="1105.61" y="-315" font-family="Helvetica,sans-Serif" font-size="10.00">src/Telemetry.h</text>
</a>
</g>
</g>
<!-- Node1&#45;&gt;Node42 -->
<g id="edge71" class="edge">
<title>Node1&#45;&gt;Node42</title>
<path fill="none" stroke="#63b8ff" d="M1074.39,-483.95C1076.9,-476.24 1079.61,-467.27 1081.61,-459 1093.46,-409.93 1101.67,-349.85 1104.51,-327.46"/>
<polygon fill="#63b8ff" stroke="#63b8ff" points="1071.12,-482.71 1071.24,-493.3 1077.75,-484.94 1071.12,-482.71"/>
</g>
<!-- Node3 -->
<g id="node3" class="node">
<title>Node3</title>
<g id="a_node3"><a xlink:href="Arduino__ESP32__Updater_8cpp.html" target="_top" xlink:title=" ">
<polygon fill="white" stroke="#666666" points="521.11,-387.5 362.11,-387.5 362.11,-368.5 521.11,-368.5 521.11,-387.5"/>
<text text-anchor="middle" x="441.61" y="-375.5" font-family="Helvetica,sans-Serif" font-size="10.00">src/Arduino_ESP32_Updater.cpp</text>
</a>
</g>
</g>
<!-- Node2&#45;&gt;Node3 -->
<g id="edge2" class="edge">
<title>Node2&#45;&gt;Node3</title>
<path fill="none" stroke="#63b8ff" d="M443.66,-422.68C443.11,-410.94 442.44,-396.77 442.02,-387.82"/>
<polygon fill="#63b8ff" stroke="#63b8ff" points="440.16,-422.76 444.12,-432.59 447.15,-422.44 440.16,-422.76"/>
</g>
<!-- Node5 -->
<g id="node5" class="node">
<title>Node5</title>
<g id="a_node5"><a xlink:href="Arduino__ESP8266__Updater_8cpp.html" target="_top" xlink:title=" ">
<polygon fill="white" stroke="#666666" points="651.61,-393 539.61,-393 539.61,-363 651.61,-363 651.61,-393"/>
<text text-anchor="start" x="547.61" y="-381" font-family="Helvetica,sans-Serif" font-size="10.00">src/Arduino_ESP8266</text>
<text text-anchor="middle" x="595.61" y="-370" font-family="Helvetica,sans-Serif" font-size="10.00">_Updater.cpp</text>
</a>
</g>
</g>
<!-- Node4&#45;&gt;Node5 -->
<g id="edge4" class="edge">
<title>Node4&#45;&gt;Node5</title>
<path fill="none" stroke="#63b8ff" d="M595.61,-417.39C595.61,-409.13 595.61,-400.28 595.61,-393.16"/>
<polygon fill="#63b8ff" stroke="#63b8ff" points="592.11,-417.28 595.61,-427.28 599.11,-417.28 592.11,-417.28"/>
</g>
<!-- Node7 -->
<g id="node7" class="node">
<title>Node7</title>
<g id="a_node7"><a xlink:href="Callback__Watchdog_8h.html" target="_top" xlink:title=" ">
<polygon fill="white" stroke="#666666" points="573.11,-266.5 446.11,-266.5 446.11,-247.5 573.11,-247.5 573.11,-266.5"/>
<text text-anchor="middle" x="509.61" y="-254.5" font-family="Helvetica,sans-Serif" font-size="10.00">src/Callback_Watchdog.h</text>
</a>
</g>
</g>
<!-- Node6&#45;&gt;Node7 -->
<g id="edge6" class="edge">
<title>Node6&#45;&gt;Node7</title>
<path fill="none" stroke="#63b8ff" d="M556.39,-300.1C544.47,-289.37 529.35,-275.76 519.58,-266.97"/>
<polygon fill="#63b8ff" stroke="#63b8ff" points="553.84,-302.51 563.61,-306.6 558.52,-297.31 553.84,-302.51"/>
</g>
<!-- Node13 -->
<g id="node13" class="node">
<title>Node13</title>
<g id="a_node13"><a xlink:href="OTA__Update__Callback_8h.html" target="_top" xlink:title=" ">
<polygon fill="white" stroke="#666666" points="1113.61,-134.5 973.61,-134.5 973.61,-115.5 1113.61,-115.5 1113.61,-134.5"/>
<text text-anchor="middle" x="1043.61" y="-122.5" font-family="Helvetica,sans-Serif" font-size="10.00">src/OTA_Update_Callback.h</text>
</a>
</g>
</g>
<!-- Node6&#45;&gt;Node13 -->
<g id="edge35" class="edge">
<title>Node6&#45;&gt;Node13</title>
<path fill="none" stroke="#63b8ff" d="M590.52,-299.6C606.55,-283.29 632.57,-258.68 658.61,-242 692.13,-220.53 705.9,-225.48 740.61,-206 760.93,-194.6 762.14,-185.07 783.61,-176 802.4,-168.06 920.13,-147.1 990.56,-134.98"/>
<polygon fill="#63b8ff" stroke="#63b8ff" points="588.18,-296.99 583.76,-306.62 593.22,-301.85 588.18,-296.99"/>
</g>
<!-- Node22 -->
<g id="node22" class="node">
<title>Node22</title>
<g id="a_node22"><a xlink:href="IAPI__Implementation_8h.html" target="_top" xlink:title=" ">
<polygon fill="white" stroke="#666666" points="427.61,-266.5 295.61,-266.5 295.61,-247.5 427.61,-247.5 427.61,-266.5"/>
<text text-anchor="middle" x="361.61" y="-254.5" font-family="Helvetica,sans-Serif" font-size="10.00">src/IAPI_Implementation.h</text>
</a>
</g>
</g>
<!-- Node6&#45;&gt;Node22 -->
<g id="edge24" class="edge">
<title>Node6&#45;&gt;Node22</title>
<path fill="none" stroke="#63b8ff" d="M531.36,-304.62C490.78,-293.48 430.99,-277.05 394.27,-266.97"/>
<polygon fill="#63b8ff" stroke="#63b8ff" points="530.23,-307.94 540.8,-307.21 532.09,-301.19 530.23,-307.94"/>
</g>
<!-- Node26 -->
<g id="node26" class="node">
<title>Node26</title>
<g id="a_node26"><a xlink:href="IMQTT__Client_8h.html" target="_top" xlink:title=" ">
<polygon fill="white" stroke="#666666" points="769.11,-266.5 668.11,-266.5 668.11,-247.5 769.11,-247.5 769.11,-266.5"/>
<text text-anchor="middle" x="718.61" y="-254.5" font-family="Helvetica,sans-Serif" font-size="10.00">src/IMQTT_Client.h</text>
</a>
</g>
</g>
<!-- Node6&#45;&gt;Node26 -->
<g id="edge33" class="edge">
<title>Node6&#45;&gt;Node26</title>
<path fill="none" stroke="#63b8ff" d="M607.07,-303.31C634.37,-292.22 672.66,-276.67 696.53,-266.97"/>
<polygon fill="#63b8ff" stroke="#63b8ff" points="605.83,-300.04 597.88,-307.05 608.47,-306.52 605.83,-300.04"/>
</g>
<!-- Node27 -->
<g id="node27" class="node">
<title>Node27</title>
<g id="a_node27"><a xlink:href="RPC__Callback_8h.html" target="_top" xlink:title=" ">
<polygon fill="white" stroke="#666666" points="277.61,-266.5 173.61,-266.5 173.61,-247.5 277.61,-247.5 277.61,-266.5"/>
<text text-anchor="middle" x="225.61" y="-254.5" font-family="Helvetica,sans-Serif" font-size="10.00">src/RPC_Callback.h</text>
</a>
</g>
</g>
<!-- Node6&#45;&gt;Node27 -->
<g id="edge36" class="edge">
<title>Node6&#45;&gt;Node27</title>
<path fill="none" stroke="#63b8ff" d="M523.98,-309.81C466.32,-301.92 369.36,-287.87 286.61,-272 278.82,-270.51 270.51,-268.73 262.62,-266.94"/>
<polygon fill="#63b8ff" stroke="#63b8ff" points="523.45,-313.27 533.83,-311.14 524.39,-306.33 523.45,-313.27"/>
</g>
<!-- Node28 -->
<g id="node28" class="node">
<title>Node28</title>
<g id="a_node28"><a xlink:href="Shared__Attribute__Callback_8h.html" target="_top" xlink:title=" ">
<polygon fill="white" stroke="#666666" points="155.61,-272 49.61,-272 49.61,-242 155.61,-242 155.61,-272"/>
<text text-anchor="start" x="57.61" y="-260" font-family="Helvetica,sans-Serif" font-size="10.00">src/Shared_Attribute</text>
<text text-anchor="middle" x="102.61" y="-249" font-family="Helvetica,sans-Serif" font-size="10.00">_Callback.h</text>
</a>
</g>
</g>
<!-- Node6&#45;&gt;Node28 -->
<g id="edge38" class="edge">
<title>Node6&#45;&gt;Node28</title>
<path fill="none" stroke="#63b8ff" d="M523.75,-312.85C446,-306.86 293.09,-293.41 164.61,-272 161.78,-271.53 158.89,-271.01 155.97,-270.45"/>
<polygon fill="#63b8ff" stroke="#63b8ff" points="523.37,-316.34 533.61,-313.6 523.9,-309.36 523.37,-316.34"/>
</g>
<!-- Node7&#45;&gt;Node8 -->
<g id="edge7" class="edge">
<title>Node7&#45;&gt;Node8</title>
<path fill="none" stroke="#63b8ff" d="M549.89,-243.62C581.08,-233.87 625.29,-219.67 663.61,-206 698.2,-193.66 705.43,-186.55 740.61,-176 813.76,-154.07 836.92,-166.29 908.61,-140 935.12,-130.28 937.9,-119.14 964.61,-110 1003.06,-96.84 1112.39,-80.81 1177.35,-72.03"/>
<polygon fill="#63b8ff" stroke="#63b8ff" points="548.97,-240.24 540.46,-246.56 551.05,-246.92 548.97,-240.24"/>
</g>
<!-- Node10 -->
<g id="node10" class="node">
<title>Node10</title>
<g id="a_node10"><a xlink:href="Timeoutable__Request_8h.html" target="_top" xlink:title=" ">
<polygon fill="white" stroke="#666666" points="577.11,-200.5 442.11,-200.5 442.11,-181.5 577.11,-181.5 577.11,-200.5"/>
<text text-anchor="middle" x="509.61" y="-188.5" font-family="Helvetica,sans-Serif" font-size="10.00">src/Timeoutable_Request.h</text>
</a>
</g>
</g>
<!-- Node7&#45;&gt;Node10 -->
<g id="edge9" class="edge">
<title>Node7&#45;&gt;Node10</title>
<path fill="none" stroke="#63b8ff" d="M509.61,-235.68C509.61,-223.94 509.61,-209.77 509.61,-200.82"/>
<polygon fill="#63b8ff" stroke="#63b8ff" points="506.11,-235.59 509.61,-245.59 513.11,-235.59 506.11,-235.59"/>
</g>
<!-- Node9 -->
<g id="node9" class="node">
<title>Node9</title>
<g id="a_node9"><a xlink:href="OTA__Firmware__Update_8h.html" target="_top" xlink:title=" ">
<polygon fill="white" stroke="#666666" points="351.11,-19 208.11,-19 208.11,0 351.11,0 351.11,-19"/>
<text text-anchor="middle" x="279.61" y="-7" font-family="Helvetica,sans-Serif" font-size="10.00">src/OTA_Firmware_Update.h</text>
</a>
</g>
</g>
<!-- Node8&#45;&gt;Node9 -->
<g id="edge8" class="edge">
<title>Node8&#45;&gt;Node9</title>
<path fill="none" stroke="#63b8ff" d="M1166.16,-57.48C1155.96,-56.58 1145.49,-55.71 1135.61,-55 845.25,-34.05 498.8,-19.13 351.54,-13.26"/>
<polygon fill="#63b8ff" stroke="#63b8ff" points="1165.72,-60.95 1176,-58.37 1166.35,-53.98 1165.72,-60.95"/>
</g>
<!-- Node11 -->
<g id="node11" class="node">
<title>Node11</title>
<g id="a_node11"><a xlink:href="Attribute__Request_8h.html" target="_top" xlink:title=" ">
<polygon fill="white" stroke="#666666" points="295.11,-74 176.11,-74 176.11,-55 295.11,-55 295.11,-74"/>
<text text-anchor="middle" x="235.61" y="-62" font-family="Helvetica,sans-Serif" font-size="10.00">src/Attribute_Request.h</text>
</a>
</g>
</g>
<!-- Node10&#45;&gt;Node11 -->
<g id="edge10" class="edge">
<title>Node10&#45;&gt;Node11</title>
<path fill="none" stroke="#63b8ff" d="M479.49,-176.31C422.95,-150.62 302.35,-95.82 255.14,-74.37"/>
<polygon fill="#63b8ff" stroke="#63b8ff" points="477.98,-179.47 488.53,-180.42 480.87,-173.1 477.98,-179.47"/>
</g>
<!-- Node12 -->
<g id="node12" class="node">
<title>Node12</title>
<g id="a_node12"><a xlink:href="Attribute__Request__Callback_8h.html" target="_top" xlink:title=" ">
<polygon fill="white" stroke="#666666" points="257.11,-140 146.11,-140 146.11,-110 257.11,-110 257.11,-140"/>
<text text-anchor="start" x="154.11" y="-128" font-family="Helvetica,sans-Serif" font-size="10.00">src/Attribute_Request</text>
<text text-anchor="middle" x="201.61" y="-117" font-family="Helvetica,sans-Serif" font-size="10.00">_Callback.h</text>
</a>
</g>
</g>
<!-- Node10&#45;&gt;Node12 -->
<g id="edge12" class="edge">
<title>Node10&#45;&gt;Node12</title>
<path fill="none" stroke="#63b8ff" d="M455.42,-178.74C399.82,-167.19 313.72,-149.3 257.51,-137.61"/>
<polygon fill="#63b8ff" stroke="#63b8ff" points="454.48,-182.12 464.98,-180.73 455.9,-175.26 454.48,-182.12"/>
</g>
<!-- Node10&#45;&gt;Node13 -->
<g id="edge14" class="edge">
<title>Node10&#45;&gt;Node13</title>
<path fill="none" stroke="#63b8ff" d="M588.88,-180.5C692.88,-168.03 873.82,-146.35 973.22,-134.44"/>
<polygon fill="#63b8ff" stroke="#63b8ff" points="588.53,-177.02 579.02,-181.68 589.36,-183.97 588.53,-177.02"/>
</g>
<!-- Node15 -->
<g id="node15" class="node">
<title>Node15</title>
<g id="a_node15"><a xlink:href="Provision__Callback_8h.html" target="_top" xlink:title=" ">
<polygon fill="white" stroke="#666666" points="551.61,-134.5 427.61,-134.5 427.61,-115.5 551.61,-115.5 551.61,-134.5"/>
<text text-anchor="middle" x="489.61" y="-122.5" font-family="Helvetica,sans-Serif" font-size="10.00">src/Provision_Callback.h</text>
</a>
</g>
</g>
<!-- Node10&#45;&gt;Node15 -->
<g id="edge17" class="edge">
<title>Node10&#45;&gt;Node15</title>
<path fill="none" stroke="#63b8ff" d="M503.49,-170.43C499.78,-158.55 495.22,-143.96 492.37,-134.82"/>
<polygon fill="#63b8ff" stroke="#63b8ff" points="500.06,-171.16 506.38,-179.66 506.74,-169.07 500.06,-171.16"/>
</g>
<!-- Node18 -->
<g id="node18" class="node">
<title>Node18</title>
<g id="a_node18"><a xlink:href="RPC__Request__Callback_8h.html" target="_top" xlink:title=" ">
<polygon fill="white" stroke="#666666" points="879.11,-134.5 734.11,-134.5 734.11,-115.5 879.11,-115.5 879.11,-134.5"/>
<text text-anchor="middle" x="806.61" y="-122.5" font-family="Helvetica,sans-Serif" font-size="10.00">src/RPC_Request_Callback.h</text>
</a>
</g>
</g>
<!-- Node10&#45;&gt;Node18 -->
<g id="edge20" class="edge">
<title>Node10&#45;&gt;Node18</title>
<path fill="none" stroke="#63b8ff" d="M562.34,-178.64C620.33,-166.14 712.29,-146.33 765.28,-134.91"/>
<polygon fill="#63b8ff" stroke="#63b8ff" points="561.74,-175.19 552.7,-180.71 563.21,-182.03 561.74,-175.19"/>
</g>
<!-- Node21 -->
<g id="node21" class="node">
<title>Node21</title>
<g id="a_node21"><a xlink:href="Timeoutable__Request_8cpp.html" target="_top" xlink:title=" ">
<polygon fill="white" stroke="#666666" points="715.61,-134.5 569.61,-134.5 569.61,-115.5 715.61,-115.5 715.61,-134.5"/>
<text text-anchor="middle" x="642.61" y="-122.5" font-family="Helvetica,sans-Serif" font-size="10.00">src/Timeoutable_Request.cpp</text>
</a>
</g>
</g>
<!-- Node10&#45;&gt;Node21 -->
<g id="edge23" class="edge">
<title>Node10&#45;&gt;Node21</title>
<path fill="none" stroke="#63b8ff" d="M538.14,-176.27C564.22,-163.72 602.01,-145.54 624.28,-134.82"/>
<polygon fill="#63b8ff" stroke="#63b8ff" points="536.96,-172.95 529.47,-180.44 540,-179.26 536.96,-172.95"/>
</g>
<!-- Node11&#45;&gt;Node9 -->
<g id="edge11" class="edge">
<title>Node11&#45;&gt;Node9</title>
<path fill="none" stroke="#63b8ff" d="M250.2,-45.93C257.56,-37.06 266.19,-26.67 272.19,-19.44"/>
<polygon fill="#63b8ff" stroke="#63b8ff" points="247.54,-43.65 243.84,-53.58 252.92,-48.13 247.54,-43.65"/>
</g>
<!-- Node12&#45;&gt;Node11 -->
<g id="edge13" class="edge">
<title>Node12&#45;&gt;Node11</title>
<path fill="none" stroke="#63b8ff" d="M215.7,-99.77C220.97,-90.69 226.64,-80.94 230.57,-74.18"/>
<polygon fill="#63b8ff" stroke="#63b8ff" points="212.78,-97.83 210.78,-108.23 218.83,-101.34 212.78,-97.83"/>
</g>
<!-- Node13&#45;&gt;Node8 -->
<g id="edge15" class="edge">
<title>Node13&#45;&gt;Node8</title>
<path fill="none" stroke="#63b8ff" d="M1082.33,-111.69C1117.35,-100.56 1168.09,-84.42 1199.4,-74.47"/>
<polygon fill="#63b8ff" stroke="#63b8ff" points="1081.47,-108.29 1073,-114.66 1083.59,-114.96 1081.47,-108.29"/>
</g>
<!-- Node14 -->
<g id="node14" class="node">
<title>Node14</title>
<g id="a_node14"><a xlink:href="OTA__Update__Callback_8cpp.html" target="_top" xlink:title=" ">
<polygon fill="white" stroke="#666666" points="1127.11,-74 976.11,-74 976.11,-55 1127.11,-55 1127.11,-74"/>
<text text-anchor="middle" x="1051.61" y="-62" font-family="Helvetica,sans-Serif" font-size="10.00">src/OTA_Update_Callback.cpp</text>
</a>
</g>
</g>
<!-- Node13&#45;&gt;Node14 -->
<g id="edge16" class="edge">
<title>Node13&#45;&gt;Node14</title>
<path fill="none" stroke="#63b8ff" d="M1046.32,-104.16C1047.72,-93.95 1049.35,-82.04 1050.43,-74.17"/>
<polygon fill="#63b8ff" stroke="#63b8ff" points="1042.88,-103.49 1045,-113.87 1049.82,-104.43 1042.88,-103.49"/>
</g>
<!-- Node16 -->
<g id="node16" class="node">
<title>Node16</title>
<g id="a_node16"><a xlink:href="Provision_8h.html" target="_top" xlink:title=" ">
<polygon fill="white" stroke="#666666" points="433.11,-74 352.11,-74 352.11,-55 433.11,-55 433.11,-74"/>
<text text-anchor="middle" x="392.61" y="-62" font-family="Helvetica,sans-Serif" font-size="10.00">src/Provision.h</text>
</a>
</g>
</g>
<!-- Node15&#45;&gt;Node16 -->
<g id="edge18" class="edge">
<title>Node15&#45;&gt;Node16</title>
<path fill="none" stroke="#63b8ff" d="M465.25,-109.31C447.08,-98.35 422.85,-83.74 407.48,-74.47"/>
<polygon fill="#63b8ff" stroke="#63b8ff" points="463.21,-112.17 473.58,-114.33 466.83,-106.17 463.21,-112.17"/>
</g>
<!-- Node17 -->
<g id="node17" class="node">
<title>Node17</title>
<g id="a_node17"><a xlink:href="Provision__Callback_8cpp.html" target="_top" xlink:title=" ">
<polygon fill="white" stroke="#666666" points="585.61,-74 451.61,-74 451.61,-55 585.61,-55 585.61,-74"/>
<text text-anchor="middle" x="518.61" y="-62" font-family="Helvetica,sans-Serif" font-size="10.00">src/Provision_Callback.cpp</text>
</a>
</g>
</g>
<!-- Node15&#45;&gt;Node17 -->
<g id="edge19" class="edge">
<title>Node15&#45;&gt;Node17</title>
<path fill="none" stroke="#63b8ff" d="M498.95,-105.16C504.11,-94.74 510.28,-82.3 514.31,-74.17"/>
<polygon fill="#63b8ff" stroke="#63b8ff" points="495.87,-103.5 494.56,-114.01 502.14,-106.61 495.87,-103.5"/>
</g>
<!-- Node19 -->
<g id="node19" class="node">
<title>Node19</title>
<g id="a_node19"><a xlink:href="Client__Side__RPC_8h.html" target="_top" xlink:title=" ">
<polygon fill="white" stroke="#666666" points="957.61,-74 841.61,-74 841.61,-55 957.61,-55 957.61,-74"/>
<text text-anchor="middle" x="899.61" y="-62" font-family="Helvetica,sans-Serif" font-size="10.00">src/Client_Side_RPC.h</text>
</a>
</g>
</g>
<!-- Node18&#45;&gt;Node19 -->
<g id="edge21" class="edge">
<title>Node18&#45;&gt;Node19</title>
<path fill="none" stroke="#63b8ff" d="M830.21,-109.16C847.6,-98.22 870.69,-83.69 885.35,-74.47"/>
<polygon fill="#63b8ff" stroke="#63b8ff" points="828.62,-106.02 822.02,-114.31 832.35,-111.95 828.62,-106.02"/>
</g>
<!-- Node20 -->
<g id="node20" class="node">
<title>Node20</title>
<g id="a_node20"><a xlink:href="RPC__Request__Callback_8cpp.html" target="_top" xlink:title=" ">
<polygon fill="white" stroke="#666666" points="823.11,-74 668.11,-74 668.11,-55 823.11,-55 823.11,-74"/>
<text text-anchor="middle" x="745.61" y="-62" font-family="Helvetica,sans-Serif" font-size="10.00">src/RPC_Request_Callback.cpp</text>
</a>
</g>
</g>
<!-- Node18&#45;&gt;Node20 -->
<g id="edge22" class="edge">
<title>Node18&#45;&gt;Node20</title>
<path fill="none" stroke="#63b8ff" d="M789.18,-107.28C778.04,-96.6 764.04,-83.17 754.96,-74.47"/>
<polygon fill="#63b8ff" stroke="#63b8ff" points="786.61,-109.67 796.25,-114.07 791.46,-104.62 786.61,-109.67"/>
</g>
<!-- Node22&#45;&gt;Node9 -->
<g id="edge27" class="edge">
<title>Node22&#45;&gt;Node9</title>
<path fill="none" stroke="#63b8ff" d="M357.42,-236.37C349.3,-199.86 329.9,-119.36 303.61,-55 298.37,-42.16 290.45,-28.22 285.16,-19.43"/>
<polygon fill="#63b8ff" stroke="#63b8ff" points="353.94,-236.85 359.49,-245.88 360.78,-235.36 353.94,-236.85"/>
</g>
<!-- Node22&#45;&gt;Node11 -->
<g id="edge25" class="edge">
<title>Node22&#45;&gt;Node11</title>
<path fill="none" stroke="#63b8ff" d="M341.5,-239.87C331.03,-230.74 318.58,-218.64 309.61,-206 282.44,-167.73 288.58,-150.93 265.61,-110 258.41,-97.16 248.67,-83.22 242.27,-74.43"/>
<polygon fill="#63b8ff" stroke="#63b8ff" points="338.99,-242.34 348.89,-246.1 343.5,-236.98 338.99,-242.34"/>
</g>
<!-- Node22&#45;&gt;Node16 -->
<g id="edge28" class="edge">
<title>Node22&#45;&gt;Node16</title>
<path fill="none" stroke="#63b8ff" d="M364.89,-235.88C371.57,-194.82 386.53,-102.85 391.2,-74.19"/>
<polygon fill="#63b8ff" stroke="#63b8ff" points="361.46,-235.14 363.31,-245.57 368.37,-236.27 361.46,-235.14"/>
</g>
<!-- Node22&#45;&gt;Node19 -->
<g id="edge26" class="edge">
<title>Node22&#45;&gt;Node19</title>
<path fill="none" stroke="#63b8ff" d="M413.57,-244.59C459,-234.57 526.72,-219.53 585.61,-206 642.14,-193.02 655.98,-188.51 712.61,-176 790.15,-158.87 832.69,-197.35 887.61,-140 904.83,-122.02 903.1,-89.69 901.06,-74.22"/>
<polygon fill="#63b8ff" stroke="#63b8ff" points="413.01,-241.13 404,-246.7 414.52,-247.97 413.01,-241.13"/>
</g>
<!-- Node23 -->
<g id="node23" class="node">
<title>Node23</title>
<g id="a_node23"><a xlink:href="Server__Side__RPC_8h.html" target="_top" xlink:title=" ">
<polygon fill="white" stroke="#666666" points="257.11,-200.5 138.11,-200.5 138.11,-181.5 257.11,-181.5 257.11,-200.5"/>
<text text-anchor="middle" x="197.61" y="-188.5" font-family="Helvetica,sans-Serif" font-size="10.00">src/Server_Side_RPC.h</text>
</a>
</g>
</g>
<!-- Node22&#45;&gt;Node23 -->
<g id="edge29" class="edge">
<title>Node22&#45;&gt;Node23</title>
<path fill="none" stroke="#63b8ff" d="M328.16,-242.95C296.07,-230.42 248.47,-211.85 220.48,-200.93"/>
<polygon fill="#63b8ff" stroke="#63b8ff" points="326.81,-246.18 337.4,-246.55 329.35,-239.65 326.81,-246.18"/>
</g>
<!-- Node24 -->
<g id="node24" class="node">
<title>Node24</title>
<g id="a_node24"><a xlink:href="Shared__Attribute__Update_8h.html" target="_top" xlink:title=" ">
<polygon fill="white" stroke="#666666" points="119.61,-206 13.61,-206 13.61,-176 119.61,-176 119.61,-206"/>
<text text-anchor="start" x="21.61" y="-194" font-family="Helvetica,sans-Serif" font-size="10.00">src/Shared_Attribute</text>
<text text-anchor="middle" x="66.61" y="-183" font-family="Helvetica,sans-Serif" font-size="10.00">_Update.h</text>
</a>
</g>
</g>
<!-- Node22&#45;&gt;Node24 -->
<g id="edge30" class="edge">
<title>Node22&#45;&gt;Node24</title>
<path fill="none" stroke="#63b8ff" d="M307.87,-244.64C260.62,-234.61 190.01,-219.52 128.61,-206 125.81,-205.38 122.94,-204.75 120.04,-204.1"/>
<polygon fill="#63b8ff" stroke="#63b8ff" points="307.08,-248.05 317.58,-246.7 308.53,-241.2 307.08,-248.05"/>
</g>
<!-- Node25 -->
<g id="node25" class="node">
<title>Node25</title>
<g id="a_node25"><a xlink:href="ThingsBoard_8h.html" target="_top" xlink:title=" ">
<polygon fill="white" stroke="#666666" points="888.11,-200.5 793.11,-200.5 793.11,-181.5 888.11,-181.5 888.11,-200.5"/>
<text text-anchor="middle" x="840.61" y="-188.5" font-family="Helvetica,sans-Serif" font-size="10.00">src/ThingsBoard.h</text>
</a>
</g>
</g>
<!-- Node22&#45;&gt;Node25 -->
<g id="edge32" class="edge">
<title>Node22&#45;&gt;Node25</title>
<path fill="none" stroke="#63b8ff" d="M418.21,-245.05C424.41,-243.97 430.64,-242.93 436.61,-242 564.94,-222.1 717.19,-205.01 792.9,-196.94"/>
<polygon fill="#63b8ff" stroke="#63b8ff" points="417.86,-241.56 408.64,-246.77 419.1,-248.45 417.86,-241.56"/>
</g>
<!-- Node24&#45;&gt;Node9 -->
<g id="edge31" class="edge">
<title>Node24&#45;&gt;Node9</title>
<path fill="none" stroke="#63b8ff" d="M79.02,-165.74C95.38,-135.91 126.83,-85.51 166.61,-55 189.03,-37.81 218.94,-26.42 242.36,-19.47"/>
<polygon fill="#63b8ff" stroke="#63b8ff" points="76.02,-163.92 74.4,-174.39 82.2,-167.22 76.02,-163.92"/>
</g>
<!-- Node26&#45;&gt;Node25 -->
<g id="edge34" class="edge">
<title>Node26&#45;&gt;Node25</title>
<path fill="none" stroke="#63b8ff" d="M745.75,-241.76C769.63,-229.24 803.64,-211.39 823.79,-200.82"/>
<polygon fill="#63b8ff" stroke="#63b8ff" points="744.14,-238.65 736.92,-246.4 747.4,-244.85 744.14,-238.65"/>
</g>
<!-- Node27&#45;&gt;Node23 -->
<g id="edge37" class="edge">
<title>Node27&#45;&gt;Node23</title>
<path fill="none" stroke="#63b8ff" d="M217.21,-236.8C211.98,-224.85 205.51,-210.06 201.47,-200.82"/>
<polygon fill="#63b8ff" stroke="#63b8ff" points="213.9,-237.96 221.11,-245.71 220.31,-235.15 213.9,-237.96"/>
</g>
<!-- Node28&#45;&gt;Node24 -->
<g id="edge39" class="edge">
<title>Node28&#45;&gt;Node24</title>
<path fill="none" stroke="#63b8ff" d="M89.01,-231.83C84.14,-223.17 78.82,-213.7 74.58,-206.16"/>
<polygon fill="#63b8ff" stroke="#63b8ff" points="85.93,-233.48 93.88,-240.48 92.03,-230.05 85.93,-233.48"/>
</g>
<!-- Node29&#45;&gt;Node12 -->
<g id="edge41" class="edge">
<title>Node29&#45;&gt;Node12</title>
<path fill="none" stroke="#63b8ff" d="M307.59,-314.81C227.66,-311.35 82.8,-301.15 40.61,-272 13.12,-253.01 12.87,-238.38 4.61,-206 1.32,-193.08 -3.58,-186.52 4.61,-176 21.84,-153.86 93.66,-139.93 145.61,-132.56"/>
<polygon fill="#63b8ff" stroke="#63b8ff" points="307.24,-318.29 317.38,-315.21 307.53,-311.3 307.24,-318.29"/>
</g>
<!-- Node29&#45;&gt;Node22 -->
<g id="edge42" class="edge">
<title>Node29&#45;&gt;Node22</title>
<path fill="none" stroke="#63b8ff" d="M361.61,-296.66C361.61,-286.45 361.61,-274.54 361.61,-266.67"/>
<polygon fill="#63b8ff" stroke="#63b8ff" points="358.11,-296.35 361.61,-306.35 365.11,-296.35 358.11,-296.35"/>
</g>
<!-- Node29&#45;&gt;Node25 -->
<g id="edge45" class="edge">
<title>Node29&#45;&gt;Node25</title>
<path fill="none" stroke="#63b8ff" d="M415.56,-308.25C460.49,-300.75 525.89,-288.36 581.61,-272 616.85,-261.65 623.75,-253.55 658.61,-242 708.23,-225.57 766.67,-210.2 803.67,-200.95"/>
<polygon fill="#63b8ff" stroke="#63b8ff" points="415.11,-304.78 405.81,-309.85 416.24,-311.69 415.11,-304.78"/>
</g>
<!-- Node29&#45;&gt;Node27 -->
<g id="edge43" class="edge">
<title>Node29&#45;&gt;Node27</title>
<path fill="none" stroke="#63b8ff" d="M330.61,-303.16C304.85,-292.08 268.91,-276.62 246.46,-266.97"/>
<polygon fill="#63b8ff" stroke="#63b8ff" points="329,-306.28 339.57,-307.02 331.76,-299.85 329,-306.28"/>
</g>
<!-- Node29&#45;&gt;Node28 -->
<g id="edge44" class="edge">
<title>Node29&#45;&gt;Node28</title>
<path fill="none" stroke="#63b8ff" d="M310.79,-305.02C266.04,-294.91 201.11,-280.25 155.7,-269.99"/>
<polygon fill="#63b8ff" stroke="#63b8ff" points="309.99,-308.43 320.52,-307.22 311.53,-301.6 309.99,-308.43"/>
</g>
<!-- Node30 -->
<g id="node30" class="node">
<title>Node30</title>
<g id="a_node30"><a xlink:href="ThingsBoardHttp_8h.html" target="_top" xlink:title=" ">
<polygon fill="white" stroke="#666666" points="1035.61,-266.5 921.61,-266.5 921.61,-247.5 1035.61,-247.5 1035.61,-266.5"/>
<text text-anchor="middle" x="978.61" y="-254.5" font-family="Helvetica,sans-Serif" font-size="10.00">src/ThingsBoardHttp.h</text>
</a>
</g>
</g>
<!-- Node29&#45;&gt;Node30 -->
<g id="edge46" class="edge">
<title>Node29&#45;&gt;Node30</title>
<path fill="none" stroke="#63b8ff" d="M415.82,-313.01C535.2,-305.19 817.72,-285.84 912.61,-272 921.65,-270.68 931.31,-268.87 940.37,-266.98"/>
<polygon fill="#63b8ff" stroke="#63b8ff" points="415.71,-309.51 405.96,-313.66 416.17,-316.5 415.71,-309.51"/>
</g>
<!-- Node33&#45;&gt;Node8 -->
<g id="edge51" class="edge">
<title>Node33&#45;&gt;Node8</title>
<path fill="none" stroke="#63b8ff" d="M1312.68,-428.49C1326.62,-419.93 1342.59,-407.86 1352.61,-393 1371.71,-364.67 1371.61,-352.67 1371.61,-318.5 1371.61,-318.5 1371.61,-318.5 1371.61,-190 1371.61,-128.36 1295.19,-90.46 1253.69,-74.42"/>
<polygon fill="#63b8ff" stroke="#63b8ff" points="1311.21,-425.3 1304.31,-433.33 1314.71,-431.36 1311.21,-425.3"/>
</g>
<!-- Node34 -->
<g id="node34" class="node">
<title>Node34</title>
<g id="a_node34"><a xlink:href="HashGenerator_8cpp.html" target="_top" xlink:title=" ">
<polygon fill="white" stroke="#666666" points="1343.11,-387.5 1226.11,-387.5 1226.11,-368.5 1343.11,-368.5 1343.11,-387.5"/>
<text text-anchor="middle" x="1284.61" y="-375.5" font-family="Helvetica,sans-Serif" font-size="10.00">src/HashGenerator.cpp</text>
</a>
</g>
</g>
<!-- Node33&#45;&gt;Node34 -->
<g id="edge50" class="edge">
<title>Node33&#45;&gt;Node34</title>
<path fill="none" stroke="#63b8ff" d="M1284.61,-422.68C1284.61,-410.94 1284.61,-396.77 1284.61,-387.82"/>
<polygon fill="#63b8ff" stroke="#63b8ff" points="1281.11,-422.59 1284.61,-432.59 1288.11,-422.59 1281.11,-422.59"/>
</g>
<!-- Node35&#45;&gt;Node8 -->
<g id="edge64" class="edge">
<title>Node35&#45;&gt;Node8</title>
<path fill="none" stroke="#63b8ff" d="M1014.2,-429.16C1062.96,-405.18 1156.69,-350.8 1194.61,-272 1228.46,-201.66 1228.73,-103.82 1227.95,-74.28"/>
<polygon fill="#63b8ff" stroke="#63b8ff" points="1012.81,-425.94 1005.31,-433.42 1015.84,-432.25 1012.81,-425.94"/>
</g>
<!-- Node35&#45;&gt;Node30 -->
<g id="edge65" class="edge">
<title>Node35&#45;&gt;Node30</title>
<path fill="none" stroke="#63b8ff" d="M998.04,-425.17C1009.87,-408.23 1022.83,-382.53 1010.61,-363 991.21,-331.99 956.01,-358.01 936.61,-327 923.22,-305.6 949.43,-280.18 966.16,-266.97"/>
<polygon fill="#63b8ff" stroke="#63b8ff" points="995.52,-422.7 992.32,-432.8 1001.12,-426.9 995.52,-422.7"/>
</g>
<!-- Node36 -->
<g id="node36" class="node">
<title>Node36</title>
<g id="a_node36"><a xlink:href="Container_8h.html" target="_top" xlink:title=" ">
<polygon fill="white" stroke="#666666" points="827.61,-387.5 745.61,-387.5 745.61,-368.5 827.61,-368.5 827.61,-387.5"/>
<text text-anchor="middle" x="786.61" y="-375.5" font-family="Helvetica,sans-Serif" font-size="10.00">src/Container.h</text>
</a>
</g>
</g>
<!-- Node35&#45;&gt;Node36 -->
<g id="edge53" class="edge">
<title>Node35&#45;&gt;Node36</title>
<path fill="none" stroke="#63b8ff" d="M945.43,-430.6C906.88,-418.07 848.29,-399.04 814.09,-387.93"/>
<polygon fill="#63b8ff" stroke="#63b8ff" points="944.19,-433.87 954.78,-433.63 946.35,-427.21 944.19,-433.87"/>
</g>
<!-- Node37 -->
<g id="node37" class="node">
<title>Node37</title>
<g id="a_node37"><a xlink:href="DefaultLogger_8h.html" target="_top" xlink:title=" ">
<polygon fill="white" stroke="#666666" points="827.11,-327 726.11,-327 726.11,-308 827.11,-308 827.11,-327"/>
<text text-anchor="middle" x="776.61" y="-315" font-family="Helvetica,sans-Serif" font-size="10.00">src/DefaultLogger.h</text>
</a>
</g>
</g>
<!-- Node35&#45;&gt;Node37 -->
<g id="edge55" class="edge">
<title>Node35&#45;&gt;Node37</title>
<path fill="none" stroke="#63b8ff" d="M958.96,-428.17C915.49,-402.03 826.51,-348.51 791.36,-327.37"/>
<polygon fill="#63b8ff" stroke="#63b8ff" points="957.05,-431.11 967.43,-433.27 960.66,-425.11 957.05,-431.11"/>
</g>
<!-- Node40 -->
<g id="node40" class="node">
<title>Node40</title>
<g id="a_node40"><a xlink:href="Helper_8cpp.html" target="_top" xlink:title=" ">
<polygon fill="white" stroke="#666666" points="1001.61,-387.5 921.61,-387.5 921.61,-368.5 1001.61,-368.5 1001.61,-387.5"/>
<text text-anchor="middle" x="961.61" y="-375.5" font-family="Helvetica,sans-Serif" font-size="10.00">src/Helper.cpp</text>
</a>
</g>
</g>
<!-- Node35&#45;&gt;Node40 -->
<g id="edge63" class="edge">
<title>Node35&#45;&gt;Node40</title>
<path fill="none" stroke="#63b8ff" d="M976.88,-423.43C972.8,-411.55 967.79,-396.96 964.64,-387.82"/>
<polygon fill="#63b8ff" stroke="#63b8ff" points="973.5,-424.35 980.06,-432.67 980.12,-422.08 973.5,-424.35"/>
</g>
<!-- Node36&#45;&gt;Node6 -->
<g id="edge54" class="edge">
<title>Node36&#45;&gt;Node6</title>
<path fill="none" stroke="#63b8ff" d="M743.56,-365.12C703.17,-353.98 643.66,-337.55 607.11,-327.47"/>
<polygon fill="#63b8ff" stroke="#63b8ff" points="742.38,-368.43 752.95,-367.71 744.25,-361.68 742.38,-368.43"/>
</g>
<!-- Node37&#45;&gt;Node22 -->
<g id="edge56" class="edge">
<title>Node37&#45;&gt;Node22</title>
<path fill="none" stroke="#63b8ff" d="M714.4,-309.39C646.12,-301.34 533.32,-287.34 436.61,-272 427.19,-270.51 417.14,-268.74 407.55,-266.98"/>
<polygon fill="#63b8ff" stroke="#63b8ff" points="713.95,-312.86 724.29,-310.55 714.77,-305.91 713.95,-312.86"/>
</g>
<!-- Node37&#45;&gt;Node25 -->
<g id="edge61" class="edge">
<title>Node37&#45;&gt;Node25</title>
<path fill="none" stroke="#63b8ff" d="M786.29,-297.67C800.31,-270.4 825.71,-220.98 836.05,-200.87"/>
<polygon fill="#63b8ff" stroke="#63b8ff" points="783.37,-295.71 781.91,-306.2 789.59,-298.91 783.37,-295.71"/>
</g>
<!-- Node37&#45;&gt;Node26 -->
<g id="edge57" class="edge">
<title>Node37&#45;&gt;Node26</title>
<path fill="none" stroke="#63b8ff" d="M760.2,-299.95C749.47,-289.12 735.87,-275.41 727.2,-266.67"/>
<polygon fill="#63b8ff" stroke="#63b8ff" points="757.46,-302.16 766.99,-306.79 762.43,-297.23 757.46,-302.16"/>
</g>
<!-- Node37&#45;&gt;Node30 -->
<g id="edge62" class="edge">
<title>Node37&#45;&gt;Node30</title>
<path fill="none" stroke="#63b8ff" d="M818.12,-304.48C856.6,-293.34 912.97,-277.01 947.64,-266.97"/>
<polygon fill="#63b8ff" stroke="#63b8ff" points="817.38,-301.05 808.74,-307.19 819.32,-307.77 817.38,-301.05"/>
</g>
<!-- Node37&#45;&gt;Node38 -->
<g id="edge58" class="edge">
<title>Node37&#45;&gt;Node38</title>
<path fill="none" stroke="#63b8ff" d="M799.4,-301.35C815.81,-290.44 837.37,-276.11 851.12,-266.97"/>
<polygon fill="#63b8ff" stroke="#63b8ff" points="797.63,-298.33 791.24,-306.78 801.5,-304.16 797.63,-298.33"/>
</g>
<!-- Node38&#45;&gt;Node13 -->
<g id="edge59" class="edge">
<title>Node38&#45;&gt;Node13</title>
<path fill="none" stroke="#63b8ff" d="M886.03,-240.44C923.81,-213.01 1001.11,-156.86 1031.22,-135"/>
<polygon fill="#63b8ff" stroke="#63b8ff" points="884.17,-237.47 878.14,-246.18 888.29,-243.13 884.17,-237.47"/>
</g>
<!-- Node38&#45;&gt;Node39 -->
<g id="edge60" class="edge">
<title>Node38&#45;&gt;Node39</title>
<path fill="none" stroke="#63b8ff" d="M904.79,-244.05C907.43,-243.33 910.05,-242.64 912.61,-242 977.33,-225.7 1052.95,-210.24 1100.56,-200.94"/>
<polygon fill="#63b8ff" stroke="#63b8ff" points="904.11,-240.6 895.42,-246.66 905.99,-247.34 904.11,-240.6"/>
</g>
<!-- Node41&#45;&gt;Node30 -->
<g id="edge67" class="edge">
<title>Node41&#45;&gt;Node30</title>
<path fill="none" stroke="#63b8ff" d="M989.94,-296.99C986.96,-286.72 983.44,-274.63 981.13,-266.67"/>
<polygon fill="#63b8ff" stroke="#63b8ff" points="986.53,-297.79 992.68,-306.41 993.25,-295.84 986.53,-297.79"/>
</g>
<!-- Node42&#45;&gt;Node25 -->
<g id="edge73" class="edge">
<title>Node42&#45;&gt;Node25</title>
<path fill="none" stroke="#63b8ff" d="M1095.33,-298.08C1084.8,-280.96 1066.86,-256.03 1044.61,-242 996.8,-211.86 932.1,-199.88 888.49,-195.13"/>
<polygon fill="#63b8ff" stroke="#63b8ff" points="1092.05,-299.42 1100.13,-306.27 1098.09,-295.87 1092.05,-299.42"/>
</g>
<!-- Node42&#45;&gt;Node30 -->
<g id="edge74" class="edge">
<title>Node42&#45;&gt;Node30</title>
<path fill="none" stroke="#63b8ff" d="M1076.01,-302.87C1052.01,-291.81 1018.85,-276.54 998.08,-266.97"/>
<polygon fill="#63b8ff" stroke="#63b8ff" points="1074.4,-305.98 1084.95,-306.98 1077.33,-299.62 1074.4,-305.98"/>
</g>
<!-- Node43 -->
<g id="node43" class="node">
<title>Node43</title>
<g id="a_node43"><a xlink:href="Telemetry_8cpp.html" target="_top" xlink:title=" ">
<polygon fill="white" stroke="#666666" points="1185.61,-266.5 1091.61,-266.5 1091.61,-247.5 1185.61,-247.5 1185.61,-266.5"/>
<text text-anchor="middle" x="1138.61" y="-254.5" font-family="Helvetica,sans-Serif" font-size="10.00">src/Telemetry.cpp</text>
</a>
</g>
</g>
<!-- Node42&#45;&gt;Node43 -->
<g id="edge72" class="edge">
<title>Node42&#45;&gt;Node43</title>
<path fill="none" stroke="#63b8ff" d="M1116.05,-297.99C1121.97,-287.51 1129.08,-274.89 1133.72,-266.67"/>
<polygon fill="#63b8ff" stroke="#63b8ff" points="1113.09,-296.12 1111.22,-306.55 1119.19,-299.56 1113.09,-296.12"/>
</g>
</g>
</svg>
        <g id="navigator" transform="translate(0 0)" fill="#404254">
                <rect fill="#f2f5e9" fill-opacity="0.5" stroke="#606060" stroke-width=".5" x="0" y="0" width="60" height="60"/>
                <use id="zoomplus" xlink:href="#zoomPlus" x="17" y="9" onmousedown="handleZoom(evt,'in')"/>
                <use id="zoomminus" xlink:href="#zoomMin" x="42" y="9" onmousedown="handleZoom(evt,'out')"/>
                <use id="reset" xlink:href="#resetDef" x="30" y="36" onmousedown="handleReset()"/>
                <g id="arrowUp" xlink:href="#dirArrow" transform="translate(30 24)" onmousedown="handlePan(0,-1)">
                  <use xlink:href="#rim" fill="#404040">
                        <set attributeName="fill" to="#808080" begin="arrowUp.mouseover" end="arrowUp.mouseout"/>
                  </use>
                  <path fill="none" stroke="white" stroke-width="1.5" d="M0,-3.0v7 M-2.5,-0.5L0,-3.0L2.5,-0.5"/>
                </g>
                <g id="arrowRight" xlink:href="#dirArrow" transform="rotate(90) translate(36 -43)" onmousedown="handlePan(1,0)">
                  <use xlink:href="#rim" fill="#404040">
                        <set attributeName="fill" to="#808080" begin="arrowRight.mouseover" end="arrowRight.mouseout"/>
                  </use>
                  <path fill="none" stroke="white" stroke-width="1.5" d="M0,-3.0v7 M-2.5,-0.5L0,-3.0L2.5,-0.5"/>
                </g>
                <g id="arrowDown" xlink:href="#dirArrow" transform="rotate(180) translate(-30 -48)" onmousedown="handlePan(0,1)">
                  <use xlink:href="#rim" fill="#404040">
                        <set attributeName="fill" to="#808080" begin="arrowDown.mouseover" end="arrowDown.mouseout"/>
                  </use>
                  <path fill="none" stroke="white" stroke-width="1.5" d="M0,-3.0v7 M-2.5,-0.5L0,-3.0L2.5,-0.5"/>
                </g>
                <g id="arrowLeft" xlink:href="#dirArrow" transform="rotate(270) translate(-36 17)" onmousedown="handlePan(-1,0)">
                  <use xlink:href="#rim" fill="#404040">
                        <set attributeName="fill" to="#808080" begin="arrowLeft.mouseover" end="arrowLeft.mouseout"/>
                  </use>
                  <path fill="none" stroke="white" stroke-width="1.5" d="M0,-3.0v7 M-2.5,-0.5L0,-3.0L2.5,-0.5"/>
                </g>
        </g>
        <svg viewBox="0 0 15 15" width="100%" height="30px" preserveAspectRatio="xMaxYMin meet">
         <g id="arrow_out" transform="scale(0.3 0.3)">
          <a xlink:href="Configuration_8h__dep__incl_org.svg" target="_base">
           <rect id="button" ry="5" rx="5" y="6" x="6" height="38" width="38"
                fill="#f2f5e9" fill-opacity="0.5" stroke="#606060" stroke-width="1.0"/>
           <path id="arrow"
             d="M 11.500037,31.436501 C 11.940474,20.09759 22.043105,11.32322 32.158766,21.979434 L 37.068811,17.246167 C 37.068811,17.246167 37.088388,32 37.088388,32 L 22.160133,31.978069 C 22.160133,31.978069 26.997745,27.140456 26.997745,27.140456 C 18.528582,18.264221 13.291696,25.230495 11.500037,31.436501 z"
             style="fill:#404040;"/>
          </a>
         </g>
        </svg>
</svg>
