<?xml version="1.0" encoding="UTF-8" standalone="no"?>
<!DOCTYPE svg PUBLIC "-//W3C//DTD SVG 1.1//EN"
 "http://www.w3.org/Graphics/SVG/1.1/DTD/svg11.dtd">
<!-- Generated by graphviz version 7.0.5 (20221223.1930)
 -->
<!-- Title: src/Configuration.h Pages: 1 -->
<!--zoomable 456 -->
<svg id="main" version="1.1" xmlns="http://www.w3.org/2000/svg" xmlns:xlink="http://www.w3.org/1999/xlink" xml:space="preserve" onload="init(evt)">
<style type="text/css"><![CDATA[
.edge:hover path { stroke: red; }
.edge:hover polygon { stroke: red; fill: red; }
]]></style>
<script type="text/javascript"><![CDATA[
var edges = document.getElementsByTagName('g');
if (edges && edges.length) {
  for (var i=0;i<edges.length;i++) {
    if (edges[i].id.substr(0,4)=='edge') {
      edges[i].setAttribute('class','edge');
    }
  }
}
]]></script>
        <defs>
                <circle id="rim" cx="0" cy="0" r="7"/>
                <circle id="rim2" cx="0" cy="0" r="3.5"/>
                <g id="zoomPlus">
                        <use xlink:href="#rim" fill="#404040">
                                <set attributeName="fill" to="#808080" begin="zoomplus.mouseover" end="zoomplus.mouseout"/>
                        </use>
                        <path d="M-4,0h8M0,-4v8" fill="none" stroke="white" stroke-width="1.5" pointer-events="none"/>
                </g>
                <g id="zoomMin">
                        <use xlink:href="#rim" fill="#404040">
                                <set attributeName="fill" to="#808080" begin="zoomminus.mouseover" end="zoomminus.mouseout"/>
                        </use>
                        <path d="M-4,0h8" fill="none" stroke="white" stroke-width="1.5" pointer-events="none"/>
                </g>
                <g id="dirArrow">
                        <path fill="none" stroke="white" stroke-width="1.5" d="M0,-3.0v7 M-2.5,-0.5L0,-3.0L2.5,-0.5"/>
                </g>
               <g id="resetDef">
                       <use xlink:href="#rim2" fill="#404040">
                               <set attributeName="fill" to="#808080" begin="reset.mouseover" end="reset.mouseout"/>
                       </use>
               </g>
        </defs>

<script type="text/javascript">
var viewWidth = 1716;
var viewHeight = 456;
var sectionId = 'dynsection-0';
</script>
<script xlink:href="svgpan.js"/>
<svg id="graph" class="graph">
<g id="viewport">
<title>src/Configuration.h</title>
<!-- Node1 -->
<g id="node1" class="node">
<title>Node1</title>
<g id="a_node1"><a xlink:title=" ">
<polygon fill="#999999" stroke="#666666" points="1035.5,-448 938.5,-448 938.5,-429 1035.5,-429 1035.5,-448"/>
<text text-anchor="middle" x="987" y="-436" font-family="Helvetica,sans-Serif" font-size="10.00">src/Configuration.h</text>
</a>
</g>
</g>
<!-- Node2 -->
<g id="node2" class="node">
<title>Node2</title>
<g id="a_node2"><a xlink:href="Arduino__ESP32__Updater_8h.html" target="_top" xlink:title=" ">
<polygon fill="white" stroke="#666666" points="316.5,-387.5 167.5,-387.5 167.5,-368.5 316.5,-368.5 316.5,-387.5"/>
<text text-anchor="middle" x="242" y="-375.5" font-family="Helvetica,sans-Serif" font-size="10.00">src/Arduino_ESP32_Updater.h</text>
</a>
</g>
</g>
<!-- Node1&#45;&gt;Node2 -->
<g id="edge1" class="edge">
<title>Node1&#45;&gt;Node2</title>
<path fill="none" stroke="#63b8ff" d="M926.9,-434.15C815.28,-427.73 568.44,-412.56 361,-393 345.67,-391.55 329.27,-389.77 313.68,-387.98"/>
<polygon fill="#63b8ff" stroke="#63b8ff" points="926.54,-437.64 936.72,-434.72 926.94,-430.65 926.54,-437.64"/>
</g>
<!-- Node4 -->
<g id="node4" class="node">
<title>Node4</title>
<g id="a_node4"><a xlink:href="Arduino__ESP8266__Updater_8h.html" target="_top" xlink:title=" ">
<polygon fill="white" stroke="#666666" points="482,-393 370,-393 370,-363 482,-363 482,-393"/>
<text text-anchor="start" x="378" y="-381" font-family="Helvetica,sans-Serif" font-size="10.00">src/Arduino_ESP8266</text>
<text text-anchor="middle" x="426" y="-370" font-family="Helvetica,sans-Serif" font-size="10.00">_Updater.h</text>
</a>
</g>
</g>
<!-- Node1&#45;&gt;Node4 -->
<g id="edge3" class="edge">
<title>Node1&#45;&gt;Node4</title>
<path fill="none" stroke="#63b8ff" d="M926.87,-433.08C836.89,-426.19 661.97,-411.71 514,-393 503.72,-391.7 492.79,-390.12 482.26,-388.5"/>
<polygon fill="#63b8ff" stroke="#63b8ff" points="926.46,-436.56 936.69,-433.83 926.99,-429.58 926.46,-436.56"/>
</g>
<!-- Node6 -->
<g id="node6" class="node">
<title>Node6</title>
<g id="a_node6"><a xlink:href="Callback_8h.html" target="_top" xlink:title=" ">
<polygon fill="white" stroke="#666666" points="682,-261 604,-261 604,-242 682,-242 682,-261"/>
<text text-anchor="middle" x="643" y="-249" font-family="Helvetica,sans-Serif" font-size="10.00">src/Callback.h</text>
</a>
</g>
</g>
<!-- Node1&#45;&gt;Node6 -->
<g id="edge5" class="edge">
<title>Node1&#45;&gt;Node6</title>
<path fill="none" stroke="#63b8ff" d="M926.98,-431.06C879.35,-424.75 811.59,-413.08 755,-393 696.53,-372.25 663.85,-380.24 632,-327 619.51,-306.13 630.98,-276.26 638.18,-261.48"/>
<polygon fill="#63b8ff" stroke="#63b8ff" points="926.47,-434.52 936.83,-432.32 927.36,-427.58 926.47,-434.52"/>
</g>
<!-- Node11 -->
<g id="node11" class="node">
<title>Node11</title>
<g id="a_node11"><a xlink:href="OTA__Handler_8h.html" target="_top" xlink:title=" ">
<polygon fill="white" stroke="#666666" points="1261,-134.5 1161,-134.5 1161,-115.5 1261,-115.5 1261,-134.5"/>
<text text-anchor="middle" x="1211" y="-122.5" font-family="Helvetica,sans-Serif" font-size="10.00">src/OTA_Handler.h</text>
</a>
</g>
</g>
<!-- Node1&#45;&gt;Node11 -->
<g id="edge66" class="edge">
<title>Node1&#45;&gt;Node11</title>
<path fill="none" stroke="#63b8ff" d="M1047.42,-434.53C1135.72,-429.43 1295.17,-417.16 1347,-393 1394.32,-370.95 1433,-365.2 1433,-313 1433,-313 1433,-313 1433,-250.5 1433,-172.29 1326.87,-142.71 1261.38,-131.91"/>
<polygon fill="#63b8ff" stroke="#63b8ff" points="1047.27,-431.03 1037.48,-435.09 1047.66,-438.02 1047.27,-431.03"/>
</g>
<!-- Node27 -->
<g id="node27" class="node">
<title>Node27</title>
<g id="a_node27"><a xlink:href="Constants_8h.html" target="_top" xlink:title=" ">
<polygon fill="white" stroke="#666666" points="533.5,-321.5 448.5,-321.5 448.5,-302.5 533.5,-302.5 533.5,-321.5"/>
<text text-anchor="middle" x="491" y="-309.5" font-family="Helvetica,sans-Serif" font-size="10.00">src/Constants.h</text>
</a>
</g>
</g>
<!-- Node1&#45;&gt;Node27 -->
<g id="edge36" class="edge">
<title>Node1&#45;&gt;Node27</title>
<path fill="none" stroke="#63b8ff" d="M926.72,-436.57C824.75,-434.13 623.22,-425.24 561,-393 529.21,-376.53 505.4,-339.08 495.73,-321.91"/>
<polygon fill="#63b8ff" stroke="#63b8ff" points="926.47,-440.07 936.54,-436.8 926.62,-433.07 926.47,-440.07"/>
</g>
<!-- Node30 -->
<g id="node30" class="node">
<title>Node30</title>
<g id="a_node30"><a xlink:href="Espressif__MQTT__Client_8h.html" target="_top" xlink:title=" ">
<polygon fill="white" stroke="#666666" points="1568.5,-393 1461.5,-393 1461.5,-363 1568.5,-363 1568.5,-393"/>
<text text-anchor="start" x="1469.5" y="-381" font-family="Helvetica,sans-Serif" font-size="10.00">src/Espressif_MQTT</text>
<text text-anchor="middle" x="1515" y="-370" font-family="Helvetica,sans-Serif" font-size="10.00">_Client.h</text>
</a>
</g>
</g>
<!-- Node1&#45;&gt;Node30 -->
<g id="edge44" class="edge">
<title>Node1&#45;&gt;Node30</title>
<path fill="none" stroke="#63b8ff" d="M1047.26,-433.73C1135.39,-427.75 1304.45,-414.51 1447,-393 1451.65,-392.3 1456.46,-391.49 1461.27,-390.61"/>
<polygon fill="#63b8ff" stroke="#63b8ff" points="1047.14,-430.23 1037.4,-434.39 1047.61,-437.21 1047.14,-430.23"/>
</g>
<!-- Node31 -->
<g id="node31" class="node">
<title>Node31</title>
<g id="a_node31"><a xlink:href="Espressif__Updater_8h.html" target="_top" xlink:title=" ">
<polygon fill="white" stroke="#666666" points="1707.5,-387.5 1586.5,-387.5 1586.5,-368.5 1707.5,-368.5 1707.5,-387.5"/>
<text text-anchor="middle" x="1647" y="-375.5" font-family="Helvetica,sans-Serif" font-size="10.00">src/Espressif_Updater.h</text>
</a>
</g>
</g>
<!-- Node1&#45;&gt;Node31 -->
<g id="edge45" class="edge">
<title>Node1&#45;&gt;Node31</title>
<path fill="none" stroke="#63b8ff" d="M1047.08,-435.46C1154.19,-431.27 1385.01,-419.74 1578,-393 1587.44,-391.69 1597.54,-389.88 1607.01,-388"/>
<polygon fill="#63b8ff" stroke="#63b8ff" points="1047.24,-431.95 1037.38,-435.83 1047.51,-438.94 1047.24,-431.95"/>
</g>
<!-- Node32 -->
<g id="node32" class="node">
<title>Node32</title>
<g id="a_node32"><a xlink:href="HashGenerator_8h.html" target="_top" xlink:title=" ">
<polygon fill="white" stroke="#666666" points="1337.5,-387.5 1230.5,-387.5 1230.5,-368.5 1337.5,-368.5 1337.5,-387.5"/>
<text text-anchor="middle" x="1284" y="-375.5" font-family="Helvetica,sans-Serif" font-size="10.00">src/HashGenerator.h</text>
</a>
</g>
</g>
<!-- Node1&#45;&gt;Node32 -->
<g id="edge46" class="edge">
<title>Node1&#45;&gt;Node32</title>
<path fill="none" stroke="#63b8ff" d="M1044.99,-426.42C1091.3,-417.52 1157.85,-404.64 1216,-393 1224.04,-391.39 1232.6,-389.65 1240.85,-387.96"/>
<polygon fill="#63b8ff" stroke="#63b8ff" points="1044.61,-422.93 1035.44,-428.25 1045.93,-429.8 1044.61,-422.93"/>
</g>
<!-- Node34 -->
<g id="node34" class="node">
<title>Node34</title>
<g id="a_node34"><a xlink:href="Helper_8h.html" target="_top" xlink:title=" ">
<polygon fill="white" stroke="#666666" points="833.5,-387.5 764.5,-387.5 764.5,-368.5 833.5,-368.5 833.5,-387.5"/>
<text text-anchor="middle" x="799" y="-375.5" font-family="Helvetica,sans-Serif" font-size="10.00">src/Helper.h</text>
</a>
</g>
</g>
<!-- Node1&#45;&gt;Node34 -->
<g id="edge49" class="edge">
<title>Node1&#45;&gt;Node34</title>
<path fill="none" stroke="#63b8ff" d="M947.9,-425.33C912.11,-414.2 859.96,-397.97 827.82,-387.97"/>
<polygon fill="#63b8ff" stroke="#63b8ff" points="946.41,-428.54 957,-428.17 948.49,-421.85 946.41,-428.54"/>
</g>
<!-- Node37 -->
<g id="node37" class="node">
<title>Node37</title>
<g id="a_node37"><a xlink:href="IUpdater_8h.html" target="_top" xlink:title=" ">
<polygon fill="white" stroke="#666666" points="1174,-261 1096,-261 1096,-242 1174,-242 1174,-261"/>
<text text-anchor="middle" x="1135" y="-249" font-family="Helvetica,sans-Serif" font-size="10.00">src/IUpdater.h</text>
</a>
</g>
</g>
<!-- Node1&#45;&gt;Node37 -->
<g id="edge65" class="edge">
<title>Node1&#45;&gt;Node37</title>
<path fill="none" stroke="#63b8ff" d="M1001.03,-419.96C1031.93,-381.34 1104.93,-290.08 1127.93,-261.33"/>
<polygon fill="#63b8ff" stroke="#63b8ff" points="998.6,-417.4 995.08,-427.4 1004.06,-421.77 998.6,-417.4"/>
</g>
<!-- Node38 -->
<g id="node38" class="node">
<title>Node38</title>
<g id="a_node38"><a xlink:href="SDCard__Updater_8h.html" target="_top" xlink:title=" ">
<polygon fill="white" stroke="#666666" points="1212,-200.5 1098,-200.5 1098,-181.5 1212,-181.5 1212,-200.5"/>
<text text-anchor="middle" x="1155" y="-188.5" font-family="Helvetica,sans-Serif" font-size="10.00">src/SDCard_Updater.h</text>
</a>
</g>
</g>
<!-- Node1&#45;&gt;Node38 -->
<g id="edge67" class="edge">
<title>Node1&#45;&gt;Node38</title>
<path fill="none" stroke="#63b8ff" d="M1014.83,-423.16C1060.59,-397.76 1149.93,-339.99 1183,-261 1191.99,-239.53 1174.49,-214.14 1163.31,-200.96"/>
<polygon fill="#63b8ff" stroke="#63b8ff" points="1013.17,-420.08 1006.05,-427.92 1016.51,-426.23 1013.17,-420.08"/>
</g>
<!-- Node39 -->
<g id="node39" class="node">
<title>Node39</title>
<g id="a_node39"><a xlink:href="IHTTP__Client_8h.html" target="_top" xlink:title=" ">
<polygon fill="white" stroke="#666666" points="959,-387.5 859,-387.5 859,-368.5 959,-368.5 959,-387.5"/>
<text text-anchor="middle" x="909" y="-375.5" font-family="Helvetica,sans-Serif" font-size="10.00">src/IHTTP_Client.h</text>
</a>
</g>
</g>
<!-- Node1&#45;&gt;Node39 -->
<g id="edge63" class="edge">
<title>Node1&#45;&gt;Node39</title>
<path fill="none" stroke="#63b8ff" d="M965.97,-421.73C951.54,-410.9 932.91,-396.93 920.96,-387.97"/>
<polygon fill="#63b8ff" stroke="#63b8ff" points="963.84,-424.51 973.94,-427.71 968.04,-418.91 963.84,-424.51"/>
</g>
<!-- Node40 -->
<g id="node40" class="node">
<title>Node40</title>
<g id="a_node40"><a xlink:href="Telemetry_8h.html" target="_top" xlink:title=" ">
<polygon fill="white" stroke="#666666" points="1024.5,-321.5 941.5,-321.5 941.5,-302.5 1024.5,-302.5 1024.5,-321.5"/>
<text text-anchor="middle" x="983" y="-309.5" font-family="Helvetica,sans-Serif" font-size="10.00">src/Telemetry.h</text>
</a>
</g>
</g>
<!-- Node1&#45;&gt;Node40 -->
<g id="edge68" class="edge">
<title>Node1&#45;&gt;Node40</title>
<path fill="none" stroke="#63b8ff" d="M986.35,-417.2C985.46,-389.65 983.92,-341.63 983.29,-321.87"/>
<polygon fill="#63b8ff" stroke="#63b8ff" points="982.84,-417.15 986.66,-427.03 989.84,-416.93 982.84,-417.15"/>
</g>
<!-- Node3 -->
<g id="node3" class="node">
<title>Node3</title>
<g id="a_node3"><a xlink:href="Arduino__ESP32__Updater_8cpp.html" target="_top" xlink:title=" ">
<polygon fill="white" stroke="#666666" points="299.5,-321.5 140.5,-321.5 140.5,-302.5 299.5,-302.5 299.5,-321.5"/>
<text text-anchor="middle" x="220" y="-309.5" font-family="Helvetica,sans-Serif" font-size="10.00">src/Arduino_ESP32_Updater.cpp</text>
</a>
</g>
</g>
<!-- Node2&#45;&gt;Node3 -->
<g id="edge2" class="edge">
<title>Node2&#45;&gt;Node3</title>
<path fill="none" stroke="#63b8ff" d="M235.27,-357.43C231.19,-345.55 226.18,-330.96 223.03,-321.82"/>
<polygon fill="#63b8ff" stroke="#63b8ff" points="231.89,-358.35 238.45,-366.67 238.51,-356.08 231.89,-358.35"/>
</g>
<!-- Node5 -->
<g id="node5" class="node">
<title>Node5</title>
<g id="a_node5"><a xlink:href="Arduino__ESP8266__Updater_8cpp.html" target="_top" xlink:title=" ">
<polygon fill="white" stroke="#666666" points="430,-327 318,-327 318,-297 430,-297 430,-327"/>
<text text-anchor="start" x="326" y="-315" font-family="Helvetica,sans-Serif" font-size="10.00">src/Arduino_ESP8266</text>
<text text-anchor="middle" x="374" y="-304" font-family="Helvetica,sans-Serif" font-size="10.00">_Updater.cpp</text>
</a>
</g>
</g>
<!-- Node4&#45;&gt;Node5 -->
<g id="edge4" class="edge">
<title>Node4&#45;&gt;Node5</title>
<path fill="none" stroke="#63b8ff" d="M407.28,-353.96C400,-345 391.9,-335.03 385.51,-327.16"/>
<polygon fill="#63b8ff" stroke="#63b8ff" points="404.48,-356.07 413.51,-361.62 409.92,-351.65 404.48,-356.07"/>
</g>
<!-- Node7 -->
<g id="node7" class="node">
<title>Node7</title>
<g id="a_node7"><a xlink:href="Callback__Watchdog_8h.html" target="_top" xlink:title=" ">
<polygon fill="white" stroke="#666666" points="651.5,-200.5 524.5,-200.5 524.5,-181.5 651.5,-181.5 651.5,-200.5"/>
<text text-anchor="middle" x="588" y="-188.5" font-family="Helvetica,sans-Serif" font-size="10.00">src/Callback_Watchdog.h</text>
</a>
</g>
</g>
<!-- Node6&#45;&gt;Node7 -->
<g id="edge6" class="edge">
<title>Node6&#45;&gt;Node7</title>
<path fill="none" stroke="#63b8ff" d="M627.14,-233.63C617,-222.85 604.29,-209.32 596.15,-200.67"/>
<polygon fill="#63b8ff" stroke="#63b8ff" points="624.45,-235.88 633.85,-240.77 629.55,-231.08 624.45,-235.88"/>
</g>
<!-- Node18 -->
<g id="node18" class="node">
<title>Node18</title>
<g id="a_node18"><a xlink:href="IAPI__Implementation_8h.html" target="_top" xlink:title=" ">
<polygon fill="white" stroke="#666666" points="506,-200.5 374,-200.5 374,-181.5 506,-181.5 506,-200.5"/>
<text text-anchor="middle" x="440" y="-188.5" font-family="Helvetica,sans-Serif" font-size="10.00">src/IAPI_Implementation.h</text>
</a>
</g>
</g>
<!-- Node6&#45;&gt;Node18 -->
<g id="edge18" class="edge">
<title>Node6&#45;&gt;Node18</title>
<path fill="none" stroke="#63b8ff" d="M601.28,-238.48C562.62,-227.34 505.97,-211.01 471.12,-200.97"/>
<polygon fill="#63b8ff" stroke="#63b8ff" points="600.14,-241.79 610.71,-241.2 602.07,-235.06 600.14,-241.79"/>
</g>
<!-- Node22 -->
<g id="node22" class="node">
<title>Node22</title>
<g id="a_node22"><a xlink:href="IMQTT__Client_8h.html" target="_top" xlink:title=" ">
<polygon fill="white" stroke="#666666" points="809.5,-200.5 708.5,-200.5 708.5,-181.5 809.5,-181.5 809.5,-200.5"/>
<text text-anchor="middle" x="759" y="-188.5" font-family="Helvetica,sans-Serif" font-size="10.00">src/IMQTT_Client.h</text>
</a>
</g>
</g>
<!-- Node6&#45;&gt;Node22 -->
<g id="edge27" class="edge">
<title>Node6&#45;&gt;Node22</title>
<path fill="none" stroke="#63b8ff" d="M670.63,-236.57C692.51,-225.53 722.41,-210.45 741.22,-200.97"/>
<polygon fill="#63b8ff" stroke="#63b8ff" points="669.32,-233.31 661.97,-240.93 672.47,-239.56 669.32,-233.31"/>
</g>
<!-- Node23 -->
<g id="node23" class="node">
<title>Node23</title>
<g id="a_node23"><a xlink:href="OTA__Update__Callback_8h.html" target="_top" xlink:title=" ">
<polygon fill="white" stroke="#666666" points="1080,-200.5 940,-200.5 940,-181.5 1080,-181.5 1080,-200.5"/>
<text text-anchor="middle" x="1010" y="-188.5" font-family="Helvetica,sans-Serif" font-size="10.00">src/OTA_Update_Callback.h</text>
</a>
</g>
</g>
<!-- Node6&#45;&gt;Node23 -->
<g id="edge29" class="edge">
<title>Node6&#45;&gt;Node23</title>
<path fill="none" stroke="#63b8ff" d="M693.55,-242.44C761.72,-231.58 882.71,-212.29 953.7,-200.97"/>
<polygon fill="#63b8ff" stroke="#63b8ff" points="693.09,-238.97 683.77,-244 694.2,-245.88 693.09,-238.97"/>
</g>
<!-- Node25 -->
<g id="node25" class="node">
<title>Node25</title>
<g id="a_node25"><a xlink:href="RPC__Callback_8h.html" target="_top" xlink:title=" ">
<polygon fill="white" stroke="#666666" points="356,-200.5 252,-200.5 252,-181.5 356,-181.5 356,-200.5"/>
<text text-anchor="middle" x="304" y="-188.5" font-family="Helvetica,sans-Serif" font-size="10.00">src/RPC_Callback.h</text>
</a>
</g>
</g>
<!-- Node6&#45;&gt;Node25 -->
<g id="edge32" class="edge">
<title>Node6&#45;&gt;Node25</title>
<path fill="none" stroke="#63b8ff" d="M592.65,-241.65C491.05,-225 463.12,-224.92 365,-206 357.21,-204.5 348.9,-202.72 341.01,-200.93"/>
<polygon fill="#63b8ff" stroke="#63b8ff" points="591.79,-245.05 602.23,-243.23 592.93,-238.15 591.79,-245.05"/>
</g>
<!-- Node26 -->
<g id="node26" class="node">
<title>Node26</title>
<g id="a_node26"><a xlink:href="Shared__Attribute__Callback_8h.html" target="_top" xlink:title=" ">
<polygon fill="white" stroke="#666666" points="234,-206 128,-206 128,-176 234,-176 234,-206"/>
<text text-anchor="start" x="136" y="-194" font-family="Helvetica,sans-Serif" font-size="10.00">src/Shared_Attribute</text>
<text text-anchor="middle" x="181" y="-183" font-family="Helvetica,sans-Serif" font-size="10.00">_Callback.h</text>
</a>
</g>
</g>
<!-- Node6&#45;&gt;Node26 -->
<g id="edge34" class="edge">
<title>Node6&#45;&gt;Node26</title>
<path fill="none" stroke="#63b8ff" d="M592.38,-241.74C437.26,-220.77 394.56,-230.77 243,-206 240.17,-205.54 237.27,-205.02 234.35,-204.48"/>
<polygon fill="#63b8ff" stroke="#63b8ff" points="591.86,-245.2 602.25,-243.1 592.82,-238.27 591.86,-245.2"/>
</g>
<!-- Node8 -->
<g id="node8" class="node">
<title>Node8</title>
<g id="a_node8"><a xlink:href="Attribute__Request__Callback_8h.html" target="_top" xlink:title=" ">
<polygon fill="white" stroke="#666666" points="411.5,-140 300.5,-140 300.5,-110 411.5,-110 411.5,-140"/>
<text text-anchor="start" x="308.5" y="-128" font-family="Helvetica,sans-Serif" font-size="10.00">src/Attribute_Request</text>
<text text-anchor="middle" x="356" y="-117" font-family="Helvetica,sans-Serif" font-size="10.00">_Callback.h</text>
</a>
</g>
</g>
<!-- Node7&#45;&gt;Node8 -->
<g id="edge7" class="edge">
<title>Node7&#45;&gt;Node8</title>
<path fill="none" stroke="#63b8ff" d="M544.88,-178.1C506.31,-167.46 449.67,-151.84 408.48,-140.48"/>
<polygon fill="#63b8ff" stroke="#63b8ff" points="543.71,-181.41 554.28,-180.7 545.57,-174.67 543.71,-181.41"/>
</g>
<!-- Node7&#45;&gt;Node11 -->
<g id="edge10" class="edge">
<title>Node7&#45;&gt;Node11</title>
<path fill="none" stroke="#63b8ff" d="M663.26,-180.09C675.21,-178.64 687.44,-177.22 699,-176 886.64,-156.19 934.69,-162.67 1122,-140 1134.58,-138.48 1148.11,-136.52 1160.72,-134.55"/>
<polygon fill="#63b8ff" stroke="#63b8ff" points="662.93,-176.6 653.43,-181.3 663.78,-183.55 662.93,-176.6"/>
</g>
<!-- Node12 -->
<g id="node12" class="node">
<title>Node12</title>
<g id="a_node12"><a xlink:href="Provision__Callback_8h.html" target="_top" xlink:title=" ">
<polygon fill="white" stroke="#666666" points="630,-134.5 506,-134.5 506,-115.5 630,-115.5 630,-134.5"/>
<text text-anchor="middle" x="568" y="-122.5" font-family="Helvetica,sans-Serif" font-size="10.00">src/Provision_Callback.h</text>
</a>
</g>
</g>
<!-- Node7&#45;&gt;Node12 -->
<g id="edge12" class="edge">
<title>Node7&#45;&gt;Node12</title>
<path fill="none" stroke="#63b8ff" d="M581.88,-170.43C578.17,-158.55 573.61,-143.96 570.76,-134.82"/>
<polygon fill="#63b8ff" stroke="#63b8ff" points="578.44,-171.16 584.77,-179.66 585.13,-169.07 578.44,-171.16"/>
</g>
<!-- Node15 -->
<g id="node15" class="node">
<title>Node15</title>
<g id="a_node15"><a xlink:href="RPC__Request__Callback_8h.html" target="_top" xlink:title=" ">
<polygon fill="white" stroke="#666666" points="831.5,-134.5 686.5,-134.5 686.5,-115.5 831.5,-115.5 831.5,-134.5"/>
<text text-anchor="middle" x="759" y="-122.5" font-family="Helvetica,sans-Serif" font-size="10.00">src/RPC_Request_Callback.h</text>
</a>
</g>
</g>
<!-- Node7&#45;&gt;Node15 -->
<g id="edge15" class="edge">
<title>Node7&#45;&gt;Node15</title>
<path fill="none" stroke="#63b8ff" d="M622.44,-177.11C655.91,-164.58 705.85,-145.89 735.15,-134.93"/>
<polygon fill="#63b8ff" stroke="#63b8ff" points="621.33,-173.79 613.19,-180.57 623.79,-180.34 621.33,-173.79"/>
</g>
<!-- Node9 -->
<g id="node9" class="node">
<title>Node9</title>
<g id="a_node9"><a xlink:href="Attribute__Request_8h.html" target="_top" xlink:title=" ">
<polygon fill="white" stroke="#666666" points="401.5,-74 282.5,-74 282.5,-55 401.5,-55 401.5,-74"/>
<text text-anchor="middle" x="342" y="-62" font-family="Helvetica,sans-Serif" font-size="10.00">src/Attribute_Request.h</text>
</a>
</g>
</g>
<!-- Node8&#45;&gt;Node9 -->
<g id="edge8" class="edge">
<title>Node8&#45;&gt;Node9</title>
<path fill="none" stroke="#63b8ff" d="M349.92,-98.59C347.83,-89.85 345.63,-80.65 344.08,-74.18"/>
<polygon fill="#63b8ff" stroke="#63b8ff" points="346.46,-99.16 352.19,-108.07 353.26,-97.53 346.46,-99.16"/>
</g>
<!-- Node10 -->
<g id="node10" class="node">
<title>Node10</title>
<g id="a_node10"><a xlink:href="OTA__Firmware__Update_8h.html" target="_top" xlink:title=" ">
<polygon fill="white" stroke="#666666" points="457.5,-19 314.5,-19 314.5,0 457.5,0 457.5,-19"/>
<text text-anchor="middle" x="386" y="-7" font-family="Helvetica,sans-Serif" font-size="10.00">src/OTA_Firmware_Update.h</text>
</a>
</g>
</g>
<!-- Node9&#45;&gt;Node10 -->
<g id="edge9" class="edge">
<title>Node9&#45;&gt;Node10</title>
<path fill="none" stroke="#63b8ff" d="M356.58,-45.93C363.95,-37.06 372.58,-26.67 378.58,-19.44"/>
<polygon fill="#63b8ff" stroke="#63b8ff" points="353.93,-43.65 350.23,-53.58 359.31,-48.13 353.93,-43.65"/>
</g>
<!-- Node11&#45;&gt;Node10 -->
<g id="edge11" class="edge">
<title>Node11&#45;&gt;Node10</title>
<path fill="none" stroke="#63b8ff" d="M1180,-110.67C1140.76,-94.45 1070.73,-67.69 1008,-55 811.69,-15.3 574.28,-9.74 457.69,-9.71"/>
<polygon fill="#63b8ff" stroke="#63b8ff" points="1178.47,-113.83 1189.05,-114.46 1181.18,-107.37 1178.47,-113.83"/>
</g>
<!-- Node13 -->
<g id="node13" class="node">
<title>Node13</title>
<g id="a_node13"><a xlink:href="Provision_8h.html" target="_top" xlink:title=" ">
<polygon fill="white" stroke="#666666" points="539.5,-74 458.5,-74 458.5,-55 539.5,-55 539.5,-74"/>
<text text-anchor="middle" x="499" y="-62" font-family="Helvetica,sans-Serif" font-size="10.00">src/Provision.h</text>
</a>
</g>
</g>
<!-- Node12&#45;&gt;Node13 -->
<g id="edge13" class="edge">
<title>Node12&#45;&gt;Node13</title>
<path fill="none" stroke="#63b8ff" d="M549.03,-107.91C536.31,-97.14 520.05,-83.35 509.58,-74.47"/>
<polygon fill="#63b8ff" stroke="#63b8ff" points="546.47,-110.34 556.37,-114.14 551,-105 546.47,-110.34"/>
</g>
<!-- Node14 -->
<g id="node14" class="node">
<title>Node14</title>
<g id="a_node14"><a xlink:href="Provision__Callback_8cpp.html" target="_top" xlink:title=" ">
<polygon fill="white" stroke="#666666" points="692,-74 558,-74 558,-55 692,-55 692,-74"/>
<text text-anchor="middle" x="625" y="-62" font-family="Helvetica,sans-Serif" font-size="10.00">src/Provision_Callback.cpp</text>
</a>
</g>
</g>
<!-- Node12&#45;&gt;Node14 -->
<g id="edge14" class="edge">
<title>Node12&#45;&gt;Node14</title>
<path fill="none" stroke="#63b8ff" d="M584.44,-107.13C594.94,-96.35 608.12,-82.82 616.55,-74.17"/>
<polygon fill="#63b8ff" stroke="#63b8ff" points="581.94,-104.68 577.47,-114.28 586.95,-109.56 581.94,-104.68"/>
</g>
<!-- Node16 -->
<g id="node16" class="node">
<title>Node16</title>
<g id="a_node16"><a xlink:href="Client__Side__RPC_8h.html" target="_top" xlink:title=" ">
<polygon fill="white" stroke="#666666" points="826,-74 710,-74 710,-55 826,-55 826,-74"/>
<text text-anchor="middle" x="768" y="-62" font-family="Helvetica,sans-Serif" font-size="10.00">src/Client_Side_RPC.h</text>
</a>
</g>
</g>
<!-- Node15&#45;&gt;Node16 -->
<g id="edge16" class="edge">
<title>Node15&#45;&gt;Node16</title>
<path fill="none" stroke="#63b8ff" d="M762.05,-104.16C763.62,-93.95 765.45,-82.04 766.67,-74.17"/>
<polygon fill="#63b8ff" stroke="#63b8ff" points="758.62,-103.46 760.56,-113.87 765.54,-104.52 758.62,-103.46"/>
</g>
<!-- Node17 -->
<g id="node17" class="node">
<title>Node17</title>
<g id="a_node17"><a xlink:href="RPC__Request__Callback_8cpp.html" target="_top" xlink:title=" ">
<polygon fill="white" stroke="#666666" points="999.5,-74 844.5,-74 844.5,-55 999.5,-55 999.5,-74"/>
<text text-anchor="middle" x="922" y="-62" font-family="Helvetica,sans-Serif" font-size="10.00">src/RPC_Request_Callback.cpp</text>
</a>
</g>
</g>
<!-- Node15&#45;&gt;Node17 -->
<g id="edge17" class="edge">
<title>Node15&#45;&gt;Node17</title>
<path fill="none" stroke="#63b8ff" d="M794.52,-111.25C825.49,-100.14 869.63,-84.3 897.01,-74.47"/>
<polygon fill="#63b8ff" stroke="#63b8ff" points="793.41,-107.93 785.18,-114.6 795.78,-114.52 793.41,-107.93"/>
</g>
<!-- Node18&#45;&gt;Node9 -->
<g id="edge19" class="edge">
<title>Node18&#45;&gt;Node9</title>
<path fill="none" stroke="#63b8ff" d="M384.75,-178.53C347.19,-169.48 302.35,-155.78 291,-140 283.21,-129.18 285.48,-122.14 291,-110 298.1,-94.38 313.69,-82.1 325.78,-74.44"/>
<polygon fill="#63b8ff" stroke="#63b8ff" points="383.61,-181.85 394.15,-180.72 385.21,-175.04 383.61,-181.85"/>
</g>
<!-- Node18&#45;&gt;Node10 -->
<g id="edge21" class="edge">
<title>Node18&#45;&gt;Node10</title>
<path fill="none" stroke="#63b8ff" d="M437.32,-169.98C433.33,-143.17 424.7,-94.44 410,-55 405.16,-42 397.15,-28.1 391.73,-19.36"/>
<polygon fill="#63b8ff" stroke="#63b8ff" points="433.83,-170.32 438.69,-179.74 440.76,-169.34 433.83,-170.32"/>
</g>
<!-- Node18&#45;&gt;Node13 -->
<g id="edge22" class="edge">
<title>Node18&#45;&gt;Node13</title>
<path fill="none" stroke="#63b8ff" d="M449.1,-170.81C462.05,-143.46 485.31,-94.39 494.8,-74.37"/>
<polygon fill="#63b8ff" stroke="#63b8ff" points="446.01,-169.14 444.89,-179.68 452.34,-172.14 446.01,-169.14"/>
</g>
<!-- Node18&#45;&gt;Node16 -->
<g id="edge20" class="edge">
<title>Node18&#45;&gt;Node16</title>
<path fill="none" stroke="#63b8ff" d="M496.09,-178.66C545.75,-168.12 614.09,-152.26 639,-140 658.31,-130.5 658.79,-121.46 677,-110 699.78,-95.67 727.83,-82.58 746.72,-74.36"/>
<polygon fill="#63b8ff" stroke="#63b8ff" points="495.41,-175.23 486.34,-180.71 496.85,-182.08 495.41,-175.23"/>
</g>
<!-- Node19 -->
<g id="node19" class="node">
<title>Node19</title>
<g id="a_node19"><a xlink:href="Server__Side__RPC_8h.html" target="_top" xlink:title=" ">
<polygon fill="white" stroke="#666666" points="243.5,-134.5 124.5,-134.5 124.5,-115.5 243.5,-115.5 243.5,-134.5"/>
<text text-anchor="middle" x="184" y="-122.5" font-family="Helvetica,sans-Serif" font-size="10.00">src/Server_Side_RPC.h</text>
</a>
</g>
</g>
<!-- Node18&#45;&gt;Node19 -->
<g id="edge23" class="edge">
<title>Node18&#45;&gt;Node19</title>
<path fill="none" stroke="#63b8ff" d="M392.98,-178.24C342.92,-165.73 264.83,-146.21 219.62,-134.91"/>
<polygon fill="#63b8ff" stroke="#63b8ff" points="392.12,-181.64 402.67,-180.67 393.81,-174.85 392.12,-181.64"/>
</g>
<!-- Node20 -->
<g id="node20" class="node">
<title>Node20</title>
<g id="a_node20"><a xlink:href="Shared__Attribute__Update_8h.html" target="_top" xlink:title=" ">
<polygon fill="white" stroke="#666666" points="106,-140 0,-140 0,-110 106,-110 106,-140"/>
<text text-anchor="start" x="8" y="-128" font-family="Helvetica,sans-Serif" font-size="10.00">src/Shared_Attribute</text>
<text text-anchor="middle" x="53" y="-117" font-family="Helvetica,sans-Serif" font-size="10.00">_Update.h</text>
</a>
</g>
</g>
<!-- Node18&#45;&gt;Node20 -->
<g id="edge24" class="edge">
<title>Node18&#45;&gt;Node20</title>
<path fill="none" stroke="#63b8ff" d="M382.42,-179C376.54,-177.95 370.65,-176.93 365,-176 254.25,-157.7 225.39,-160.38 115,-140 112.18,-139.48 109.29,-138.92 106.38,-138.33"/>
<polygon fill="#63b8ff" stroke="#63b8ff" points="381.69,-182.43 392.15,-180.77 382.94,-175.54 381.69,-182.43"/>
</g>
<!-- Node21 -->
<g id="node21" class="node">
<title>Node21</title>
<g id="a_node21"><a xlink:href="ThingsBoard_8h.html" target="_top" xlink:title=" ">
<polygon fill="white" stroke="#666666" points="944.5,-134.5 849.5,-134.5 849.5,-115.5 944.5,-115.5 944.5,-134.5"/>
<text text-anchor="middle" x="897" y="-122.5" font-family="Helvetica,sans-Serif" font-size="10.00">src/ThingsBoard.h</text>
</a>
</g>
</g>
<!-- Node18&#45;&gt;Node21 -->
<g id="edge26" class="edge">
<title>Node18&#45;&gt;Node21</title>
<path fill="none" stroke="#63b8ff" d="M496.34,-179.02C502.62,-177.93 508.94,-176.9 515,-176 658.75,-154.65 696.91,-165.39 840,-140 847.73,-138.63 855.96,-136.82 863.7,-134.95"/>
<polygon fill="#63b8ff" stroke="#63b8ff" points="495.84,-175.55 486.61,-180.75 497.07,-182.44 495.84,-175.55"/>
</g>
<!-- Node20&#45;&gt;Node10 -->
<g id="edge25" class="edge">
<title>Node20&#45;&gt;Node10</title>
<path fill="none" stroke="#63b8ff" d="M106.23,-105.86C178.69,-81.16 305.6,-37.9 360.02,-19.36"/>
<polygon fill="#63b8ff" stroke="#63b8ff" points="105.28,-102.48 96.95,-109.02 107.54,-109.11 105.28,-102.48"/>
</g>
<!-- Node22&#45;&gt;Node21 -->
<g id="edge28" class="edge">
<title>Node22&#45;&gt;Node21</title>
<path fill="none" stroke="#63b8ff" d="M788.61,-176.27C815.66,-163.72 854.88,-145.54 877.97,-134.82"/>
<polygon fill="#63b8ff" stroke="#63b8ff" points="787.16,-173.08 779.56,-180.46 790.11,-179.43 787.16,-173.08"/>
</g>
<!-- Node23&#45;&gt;Node11 -->
<g id="edge30" class="edge">
<title>Node23&#45;&gt;Node11</title>
<path fill="none" stroke="#63b8ff" d="M1048.7,-177.68C1088.03,-165.15 1148,-146.06 1182.97,-134.93"/>
<polygon fill="#63b8ff" stroke="#63b8ff" points="1047.86,-174.27 1039.39,-180.64 1049.98,-180.94 1047.86,-174.27"/>
</g>
<!-- Node24 -->
<g id="node24" class="node">
<title>Node24</title>
<g id="a_node24"><a xlink:href="OTA__Update__Callback_8cpp.html" target="_top" xlink:title=" ">
<polygon fill="white" stroke="#666666" points="1113.5,-134.5 962.5,-134.5 962.5,-115.5 1113.5,-115.5 1113.5,-134.5"/>
<text text-anchor="middle" x="1038" y="-122.5" font-family="Helvetica,sans-Serif" font-size="10.00">src/OTA_Update_Callback.cpp</text>
</a>
</g>
</g>
<!-- Node23&#45;&gt;Node24 -->
<g id="edge31" class="edge">
<title>Node23&#45;&gt;Node24</title>
<path fill="none" stroke="#63b8ff" d="M1018.4,-170.8C1023.63,-158.85 1030.1,-144.06 1034.14,-134.82"/>
<polygon fill="#63b8ff" stroke="#63b8ff" points="1015.3,-169.15 1014.5,-179.71 1021.71,-171.96 1015.3,-169.15"/>
</g>
<!-- Node25&#45;&gt;Node19 -->
<g id="edge33" class="edge">
<title>Node25&#45;&gt;Node19</title>
<path fill="none" stroke="#63b8ff" d="M277.31,-175.76C253.82,-163.24 220.36,-145.39 200.54,-134.82"/>
<polygon fill="#63b8ff" stroke="#63b8ff" points="275.51,-178.77 285.98,-180.39 278.8,-172.59 275.51,-178.77"/>
</g>
<!-- Node26&#45;&gt;Node20 -->
<g id="edge35" class="edge">
<title>Node26&#45;&gt;Node20</title>
<path fill="none" stroke="#63b8ff" d="M142.18,-170.59C122.68,-160.84 99.48,-149.24 81.63,-140.31"/>
<polygon fill="#63b8ff" stroke="#63b8ff" points="140.41,-173.62 150.92,-174.96 143.54,-167.36 140.41,-173.62"/>
</g>
<!-- Node27&#45;&gt;Node8 -->
<g id="edge37" class="edge">
<title>Node27&#45;&gt;Node8</title>
<path fill="none" stroke="#63b8ff" d="M447.28,-299.02C349.51,-272.2 121.54,-209.36 119,-206 110.95,-195.37 110.6,-186.36 119,-176 130.41,-161.94 233.76,-144.16 300.16,-134.04"/>
<polygon fill="#63b8ff" stroke="#63b8ff" points="446.23,-302.37 456.8,-301.63 448.08,-295.61 446.23,-302.37"/>
</g>
<!-- Node27&#45;&gt;Node18 -->
<g id="edge39" class="edge">
<title>Node27&#45;&gt;Node18</title>
<path fill="none" stroke="#63b8ff" d="M479.83,-292.03C474.65,-282.84 468.64,-271.53 464,-261 454.69,-239.88 446.49,-213.91 442.52,-200.67"/>
<polygon fill="#63b8ff" stroke="#63b8ff" points="476.79,-293.78 484.82,-300.69 482.86,-290.28 476.79,-293.78"/>
</g>
<!-- Node27&#45;&gt;Node21 -->
<g id="edge42" class="edge">
<title>Node27&#45;&gt;Node21</title>
<path fill="none" stroke="#63b8ff" d="M486.93,-290.82C485.1,-275.59 485.48,-255.14 497,-242 545.92,-186.23 592.77,-237.37 660,-206 679.82,-196.75 679.32,-185.54 699,-176 702.69,-174.21 804.45,-148.9 860.61,-134.99"/>
<polygon fill="#63b8ff" stroke="#63b8ff" points="483.47,-291.32 488.55,-300.62 490.37,-290.19 483.47,-291.32"/>
</g>
<!-- Node27&#45;&gt;Node25 -->
<g id="edge40" class="edge">
<title>Node27&#45;&gt;Node25</title>
<path fill="none" stroke="#63b8ff" d="M467.35,-295.95C427.87,-270.83 349.76,-221.12 317.96,-200.89"/>
<polygon fill="#63b8ff" stroke="#63b8ff" points="465.35,-298.83 475.67,-301.24 469.11,-292.92 465.35,-298.83"/>
</g>
<!-- Node27&#45;&gt;Node26 -->
<g id="edge41" class="edge">
<title>Node27&#45;&gt;Node26</title>
<path fill="none" stroke="#63b8ff" d="M457.21,-298.03C398.86,-275.63 279.64,-229.87 218.7,-206.47"/>
<polygon fill="#63b8ff" stroke="#63b8ff" points="455.7,-301.2 466.29,-301.51 458.21,-294.66 455.7,-301.2"/>
</g>
<!-- Node28 -->
<g id="node28" class="node">
<title>Node28</title>
<g id="a_node28"><a xlink:href="Helper_8cpp.html" target="_top" xlink:title=" ">
<polygon fill="white" stroke="#666666" points="586,-261 506,-261 506,-242 586,-242 586,-261"/>
<text text-anchor="middle" x="546" y="-249" font-family="Helvetica,sans-Serif" font-size="10.00">src/Helper.cpp</text>
</a>
</g>
</g>
<!-- Node27&#45;&gt;Node28 -->
<g id="edge38" class="edge">
<title>Node27&#45;&gt;Node28</title>
<path fill="none" stroke="#63b8ff" d="M506.86,-294.13C517,-283.35 529.71,-269.82 537.85,-261.17"/>
<polygon fill="#63b8ff" stroke="#63b8ff" points="504.45,-291.58 500.15,-301.27 509.55,-296.38 504.45,-291.58"/>
</g>
<!-- Node29 -->
<g id="node29" class="node">
<title>Node29</title>
<g id="a_node29"><a xlink:href="ThingsBoardHttp_8h.html" target="_top" xlink:title=" ">
<polygon fill="white" stroke="#666666" points="928,-261 814,-261 814,-242 928,-242 928,-261"/>
<text text-anchor="middle" x="871" y="-249" font-family="Helvetica,sans-Serif" font-size="10.00">src/ThingsBoardHttp.h</text>
</a>
</g>
</g>
<!-- Node27&#45;&gt;Node29 -->
<g id="edge43" class="edge">
<title>Node27&#45;&gt;Node29</title>
<path fill="none" stroke="#63b8ff" d="M544.8,-302.72C615.99,-291.76 740.95,-272.52 813.8,-261.31"/>
<polygon fill="#63b8ff" stroke="#63b8ff" points="544.7,-299.19 535.35,-304.17 545.76,-306.11 544.7,-299.19"/>
</g>
<!-- Node32&#45;&gt;Node11 -->
<g id="edge48" class="edge">
<title>Node32&#45;&gt;Node11</title>
<path fill="none" stroke="#63b8ff" d="M1281.28,-356.68C1274.61,-307.26 1257.75,-184.19 1254,-176 1246.38,-159.34 1231.49,-143.98 1221.39,-134.79"/>
<polygon fill="#63b8ff" stroke="#63b8ff" points="1277.8,-357.09 1282.6,-366.53 1284.74,-356.16 1277.8,-357.09"/>
</g>
<!-- Node33 -->
<g id="node33" class="node">
<title>Node33</title>
<g id="a_node33"><a xlink:href="HashGenerator_8cpp.html" target="_top" xlink:title=" ">
<polygon fill="white" stroke="#666666" points="1404.5,-321.5 1287.5,-321.5 1287.5,-302.5 1404.5,-302.5 1404.5,-321.5"/>
<text text-anchor="middle" x="1346" y="-309.5" font-family="Helvetica,sans-Serif" font-size="10.00">src/HashGenerator.cpp</text>
</a>
</g>
</g>
<!-- Node32&#45;&gt;Node33 -->
<g id="edge47" class="edge">
<title>Node32&#45;&gt;Node33</title>
<path fill="none" stroke="#63b8ff" d="M1300.49,-359.98C1312.38,-347.7 1327.95,-331.63 1337.45,-321.82"/>
<polygon fill="#63b8ff" stroke="#63b8ff" points="1298.12,-357.4 1293.67,-367.01 1303.15,-362.27 1298.12,-357.4"/>
</g>
<!-- Node34&#45;&gt;Node11 -->
<g id="edge61" class="edge">
<title>Node34&#45;&gt;Node11</title>
<path fill="none" stroke="#63b8ff" d="M841.07,-365.19C844.08,-364.42 847.08,-363.69 850,-363 1000.67,-327.55 1063.66,-359.57 1183,-261 1205.91,-242.08 1212.15,-234.36 1221,-206 1228.83,-180.88 1219.77,-149.51 1214.4,-134.62"/>
<polygon fill="#63b8ff" stroke="#63b8ff" points="840.44,-361.74 831.66,-367.66 842.22,-368.51 840.44,-361.74"/>
</g>
<!-- Node34&#45;&gt;Node28 -->
<g id="edge60" class="edge">
<title>Node34&#45;&gt;Node28</title>
<path fill="none" stroke="#63b8ff" d="M752.83,-368.67C718.09,-361.14 670.13,-347.95 632,-327 599.11,-308.93 567.67,-276.64 553.64,-261.2"/>
<polygon fill="#63b8ff" stroke="#63b8ff" points="752.08,-372.09 762.58,-370.71 753.51,-365.24 752.08,-372.09"/>
</g>
<!-- Node34&#45;&gt;Node29 -->
<g id="edge62" class="edge">
<title>Node34&#45;&gt;Node29</title>
<path fill="none" stroke="#63b8ff" d="M820.39,-361.1C831.01,-352.17 843.21,-340.18 851,-327 863.67,-305.55 868.49,-275.94 870.17,-261.35"/>
<polygon fill="#63b8ff" stroke="#63b8ff" points="818.41,-358.2 812.78,-367.17 822.78,-363.67 818.41,-358.2"/>
</g>
<!-- Node35 -->
<g id="node35" class="node">
<title>Node35</title>
<g id="a_node35"><a xlink:href="Container_8h.html" target="_top" xlink:title=" ">
<polygon fill="white" stroke="#666666" points="723,-321.5 641,-321.5 641,-302.5 723,-302.5 723,-321.5"/>
<text text-anchor="middle" x="682" y="-309.5" font-family="Helvetica,sans-Serif" font-size="10.00">src/Container.h</text>
</a>
</g>
</g>
<!-- Node34&#45;&gt;Node35 -->
<g id="edge50" class="edge">
<title>Node34&#45;&gt;Node35</title>
<path fill="none" stroke="#63b8ff" d="M772.67,-362.59C749.78,-350.08 717.36,-332.34 698.13,-321.82"/>
<polygon fill="#63b8ff" stroke="#63b8ff" points="770.95,-365.65 781.4,-367.37 774.31,-359.51 770.95,-365.65"/>
</g>
<!-- Node36 -->
<g id="node36" class="node">
<title>Node36</title>
<g id="a_node36"><a xlink:href="DefaultLogger_8h.html" target="_top" xlink:title=" ">
<polygon fill="white" stroke="#666666" points="842.5,-321.5 741.5,-321.5 741.5,-302.5 842.5,-302.5 842.5,-321.5"/>
<text text-anchor="middle" x="792" y="-309.5" font-family="Helvetica,sans-Serif" font-size="10.00">src/DefaultLogger.h</text>
</a>
</g>
</g>
<!-- Node34&#45;&gt;Node36 -->
<g id="edge52" class="edge">
<title>Node34&#45;&gt;Node36</title>
<path fill="none" stroke="#63b8ff" d="M796.78,-356.68C795.49,-344.94 793.94,-330.77 792.97,-321.82"/>
<polygon fill="#63b8ff" stroke="#63b8ff" points="793.3,-357.04 797.86,-366.6 800.25,-356.28 793.3,-357.04"/>
</g>
<!-- Node35&#45;&gt;Node6 -->
<g id="edge51" class="edge">
<title>Node35&#45;&gt;Node6</title>
<path fill="none" stroke="#63b8ff" d="M669.88,-292.82C662.85,-282.28 654.32,-269.48 648.78,-261.17"/>
<polygon fill="#63b8ff" stroke="#63b8ff" points="666.95,-294.73 675.41,-301.11 672.77,-290.85 666.95,-294.73"/>
</g>
<!-- Node36&#45;&gt;Node18 -->
<g id="edge53" class="edge">
<title>Node36&#45;&gt;Node18</title>
<path fill="none" stroke="#63b8ff" d="M773.25,-294.72C753.93,-278.82 722.32,-255.17 691,-242 681.64,-238.07 557.73,-214.27 487.59,-200.97"/>
<polygon fill="#63b8ff" stroke="#63b8ff" points="770.86,-297.28 780.76,-301.04 775.37,-291.93 770.86,-297.28"/>
</g>
<!-- Node36&#45;&gt;Node21 -->
<g id="edge58" class="edge">
<title>Node36&#45;&gt;Node21</title>
<path fill="none" stroke="#63b8ff" d="M793.24,-290.7C794.72,-276.52 797.94,-257.45 805,-242 825.82,-196.41 868.3,-152.97 887.37,-134.85"/>
<polygon fill="#63b8ff" stroke="#63b8ff" points="789.76,-290.34 792.44,-300.59 796.74,-290.9 789.76,-290.34"/>
</g>
<!-- Node36&#45;&gt;Node22 -->
<g id="edge54" class="edge">
<title>Node36&#45;&gt;Node22</title>
<path fill="none" stroke="#63b8ff" d="M783.39,-292.01C779.48,-282.79 775.05,-271.48 772,-261 765.8,-239.7 761.84,-213.81 760.08,-200.62"/>
<polygon fill="#63b8ff" stroke="#63b8ff" points="780.09,-293.2 787.32,-300.95 786.5,-290.38 780.09,-293.2"/>
</g>
<!-- Node36&#45;&gt;Node29 -->
<g id="edge59" class="edge">
<title>Node36&#45;&gt;Node29</title>
<path fill="none" stroke="#63b8ff" d="M812.88,-295.54C827.55,-284.67 846.67,-270.52 858.89,-261.47"/>
<polygon fill="#63b8ff" stroke="#63b8ff" points="811.17,-292.45 805.21,-301.21 815.33,-298.08 811.17,-292.45"/>
</g>
<!-- Node36&#45;&gt;Node37 -->
<g id="edge55" class="edge">
<title>Node36&#45;&gt;Node37</title>
<path fill="none" stroke="#63b8ff" d="M854.04,-300.62C913.75,-290.6 1006.58,-274.94 1087,-261 1089.84,-260.51 1092.76,-260 1095.71,-259.48"/>
<polygon fill="#63b8ff" stroke="#63b8ff" points="853.69,-297.13 844.41,-302.24 854.85,-304.03 853.69,-297.13"/>
</g>
<!-- Node37&#45;&gt;Node23 -->
<g id="edge56" class="edge">
<title>Node37&#45;&gt;Node23</title>
<path fill="none" stroke="#63b8ff" d="M1105.87,-236.87C1082.24,-225.81 1049.61,-210.54 1029.16,-200.97"/>
<polygon fill="#63b8ff" stroke="#63b8ff" points="1104.1,-239.9 1114.64,-240.97 1107.07,-233.56 1104.1,-239.9"/>
</g>
<!-- Node37&#45;&gt;Node38 -->
<g id="edge57" class="edge">
<title>Node37&#45;&gt;Node38</title>
<path fill="none" stroke="#63b8ff" d="M1141.67,-230.99C1145.18,-220.72 1149.31,-208.63 1152.04,-200.67"/>
<polygon fill="#63b8ff" stroke="#63b8ff" points="1138.36,-229.84 1138.44,-240.44 1144.99,-232.11 1138.36,-229.84"/>
</g>
<!-- Node39&#45;&gt;Node29 -->
<g id="edge64" class="edge">
<title>Node39&#45;&gt;Node29</title>
<path fill="none" stroke="#63b8ff" d="M903.18,-357.32C898.36,-341.12 891.31,-317.54 885,-297 881.19,-284.61 876.68,-270.33 873.82,-261.35"/>
<polygon fill="#63b8ff" stroke="#63b8ff" points="899.75,-358.07 905.94,-366.66 906.46,-356.08 899.75,-358.07"/>
</g>
<!-- Node40&#45;&gt;Node21 -->
<g id="edge70" class="edge">
<title>Node40&#45;&gt;Node21</title>
<path fill="none" stroke="#63b8ff" d="M973.18,-292.01C962.47,-271.1 944.98,-236.41 931,-206 919.28,-180.5 906.64,-149.82 900.61,-134.95"/>
<polygon fill="#63b8ff" stroke="#63b8ff" points="969.99,-293.46 977.68,-300.75 976.21,-290.26 969.99,-293.46"/>
</g>
<!-- Node40&#45;&gt;Node29 -->
<g id="edge71" class="edge">
<title>Node40&#45;&gt;Node29</title>
<path fill="none" stroke="#63b8ff" d="M956.04,-296.92C934.94,-285.9 906.24,-270.91 888.17,-261.47"/>
<polygon fill="#63b8ff" stroke="#63b8ff" points="954.16,-299.89 964.65,-301.41 957.4,-293.68 954.16,-299.89"/>
</g>
<!-- Node41 -->
<g id="node41" class="node">
<title>Node41</title>
<g id="a_node41"><a xlink:href="Telemetry_8cpp.html" target="_top" xlink:title=" ">
<polygon fill="white" stroke="#666666" points="1078,-261 984,-261 984,-242 1078,-242 1078,-261"/>
<text text-anchor="middle" x="1031" y="-249" font-family="Helvetica,sans-Serif" font-size="10.00">src/Telemetry.cpp</text>
</a>
</g>
</g>
<!-- Node40&#45;&gt;Node41 -->
<g id="edge69" class="edge">
<title>Node40&#45;&gt;Node41</title>
<path fill="none" stroke="#63b8ff" d="M997.38,-293.48C1006.13,-282.81 1016.93,-269.65 1023.89,-261.17"/>
<polygon fill="#63b8ff" stroke="#63b8ff" points="994.68,-291.25 991.04,-301.2 1000.09,-295.69 994.68,-291.25"/>
</g>
</g>
</svg>
        <g id="navigator" transform="translate(0 0)" fill="#404254">
                <rect fill="#f2f5e9" fill-opacity="0.5" stroke="#606060" stroke-width=".5" x="0" y="0" width="60" height="60"/>
                <use id="zoomplus" xlink:href="#zoomPlus" x="17" y="9" onmousedown="handleZoom(evt,'in')"/>
                <use id="zoomminus" xlink:href="#zoomMin" x="42" y="9" onmousedown="handleZoom(evt,'out')"/>
                <use id="reset" xlink:href="#resetDef" x="30" y="36" onmousedown="handleReset()"/>
                <g id="arrowUp" xlink:href="#dirArrow" transform="translate(30 24)" onmousedown="handlePan(0,-1)">
                  <use xlink:href="#rim" fill="#404040">
                        <set attributeName="fill" to="#808080" begin="arrowUp.mouseover" end="arrowUp.mouseout"/>
                  </use>
                  <path fill="none" stroke="white" stroke-width="1.5" d="M0,-3.0v7 M-2.5,-0.5L0,-3.0L2.5,-0.5"/>
                </g>
                <g id="arrowRight" xlink:href="#dirArrow" transform="rotate(90) translate(36 -43)" onmousedown="handlePan(1,0)">
                  <use xlink:href="#rim" fill="#404040">
                        <set attributeName="fill" to="#808080" begin="arrowRight.mouseover" end="arrowRight.mouseout"/>
                  </use>
                  <path fill="none" stroke="white" stroke-width="1.5" d="M0,-3.0v7 M-2.5,-0.5L0,-3.0L2.5,-0.5"/>
                </g>
                <g id="arrowDown" xlink:href="#dirArrow" transform="rotate(180) translate(-30 -48)" onmousedown="handlePan(0,1)">
                  <use xlink:href="#rim" fill="#404040">
                        <set attributeName="fill" to="#808080" begin="arrowDown.mouseover" end="arrowDown.mouseout"/>
                  </use>
                  <path fill="none" stroke="white" stroke-width="1.5" d="M0,-3.0v7 M-2.5,-0.5L0,-3.0L2.5,-0.5"/>
                </g>
                <g id="arrowLeft" xlink:href="#dirArrow" transform="rotate(270) translate(-36 17)" onmousedown="handlePan(-1,0)">
                  <use xlink:href="#rim" fill="#404040">
                        <set attributeName="fill" to="#808080" begin="arrowLeft.mouseover" end="arrowLeft.mouseout"/>
                  </use>
                  <path fill="none" stroke="white" stroke-width="1.5" d="M0,-3.0v7 M-2.5,-0.5L0,-3.0L2.5,-0.5"/>
                </g>
        </g>
        <svg viewBox="0 0 15 15" width="100%" height="30px" preserveAspectRatio="xMaxYMin meet">
         <g id="arrow_out" transform="scale(0.3 0.3)">
          <a xlink:href="Configuration_8h__dep__incl_org.svg" target="_base">
           <rect id="button" ry="5" rx="5" y="6" x="6" height="38" width="38"
                fill="#f2f5e9" fill-opacity="0.5" stroke="#606060" stroke-width="1.0"/>
           <path id="arrow"
             d="M 11.500037,31.436501 C 11.940474,20.09759 22.043105,11.32322 32.158766,21.979434 L 37.068811,17.246167 C 37.068811,17.246167 37.088388,32 37.088388,32 L 22.160133,31.978069 C 22.160133,31.978069 26.997745,27.140456 26.997745,27.140456 C 18.528582,18.264221 13.291696,25.230495 11.500037,31.436501 z"
             style="fill:#404040;"/>
          </a>
         </g>
        </svg>
</svg>
