<?xml version="1.0" encoding="UTF-8" standalone="no"?>
<!DOCTYPE svg PUBLIC "-//W3C//DTD SVG 1.1//EN"
 "http://www.w3.org/Graphics/SVG/1.1/DTD/svg11.dtd">
<!-- Generated by graphviz version 7.0.5 (20221223.1930)
 -->
<!-- Title: src/Container.h Pages: 1 -->
<svg width="1387pt" height="390pt"
 viewBox="0.00 0.00 1387.00 390.00" xmlns="http://www.w3.org/2000/svg" xmlns:xlink="http://www.w3.org/1999/xlink">
<g id="graph0" class="graph" transform="scale(1 1) rotate(0) translate(4 386)">
<title>src/Container.h</title>
<!-- Node1 -->
<g id="node1" class="node">
<title>Node1</title>
<g id="a_node1"><a xlink:title=" ">
<polygon fill="#999999" stroke="#666666" points="1074.5,-382 992.5,-382 992.5,-363 1074.5,-363 1074.5,-382"/>
<text text-anchor="middle" x="1033.5" y="-370" font-family="Helvetica,sans-Serif" font-size="10.00">src/Container.h</text>
</a>
</g>
</g>
<!-- Node2 -->
<g id="node2" class="node">
<title>Node2</title>
<g id="a_node2"><a xlink:href="Callback_8h.html" target="_top" xlink:title=" ">
<polygon fill="white" stroke="#666666" points="1072.5,-327 994.5,-327 994.5,-308 1072.5,-308 1072.5,-327"/>
<text text-anchor="middle" x="1033.5" y="-315" font-family="Helvetica,sans-Serif" font-size="10.00">src/Callback.h</text>
</a>
</g>
</g>
<!-- Node1&#45;&gt;Node2 -->
<g id="edge1" class="edge">
<title>Node1&#45;&gt;Node2</title>
<path fill="none" stroke="#63b8ff" d="M1033.5,-351.35C1033.5,-343.1 1033.5,-333.97 1033.5,-327.44"/>
<polygon fill="#63b8ff" stroke="#63b8ff" points="1030,-351.23 1033.5,-361.23 1037,-351.23 1030,-351.23"/>
</g>
<!-- Node3 -->
<g id="node3" class="node">
<title>Node3</title>
<g id="a_node3"><a xlink:href="Callback__Watchdog_8h.html" target="_top" xlink:title=" ">
<polygon fill="white" stroke="#666666" points="653,-266.5 526,-266.5 526,-247.5 653,-247.5 653,-266.5"/>
<text text-anchor="middle" x="589.5" y="-254.5" font-family="Helvetica,sans-Serif" font-size="10.00">src/Callback_Watchdog.h</text>
</a>
</g>
</g>
<!-- Node2&#45;&gt;Node3 -->
<g id="edge2" class="edge">
<title>Node2&#45;&gt;Node3</title>
<path fill="none" stroke="#63b8ff" d="M983.18,-309.87C901.97,-299.17 742.17,-278.12 653.16,-266.39"/>
<polygon fill="#63b8ff" stroke="#63b8ff" points="982.23,-313.27 992.6,-311.11 983.14,-306.33 982.23,-313.27"/>
</g>
<!-- Node9 -->
<g id="node9" class="node">
<title>Node9</title>
<g id="a_node9"><a xlink:href="OTA__Update__Callback_8h.html" target="_top" xlink:title=" ">
<polygon fill="white" stroke="#666666" points="236.5,-145.5 96.5,-145.5 96.5,-126.5 236.5,-126.5 236.5,-145.5"/>
<text text-anchor="middle" x="166.5" y="-133.5" font-family="Helvetica,sans-Serif" font-size="10.00">src/OTA_Update_Callback.h</text>
</a>
</g>
</g>
<!-- Node2&#45;&gt;Node9 -->
<g id="edge31" class="edge">
<title>Node2&#45;&gt;Node9</title>
<path fill="none" stroke="#63b8ff" d="M982.62,-316.84C889.08,-316.43 684.01,-310.69 516.5,-272 383.88,-241.37 234.52,-170.77 184.15,-145.88"/>
<polygon fill="#63b8ff" stroke="#63b8ff" points="982.48,-320.34 992.49,-316.86 982.5,-313.34 982.48,-320.34"/>
</g>
<!-- Node18 -->
<g id="node18" class="node">
<title>Node18</title>
<g id="a_node18"><a xlink:href="IAPI__Implementation_8h.html" target="_top" xlink:title=" ">
<polygon fill="white" stroke="#666666" points="1062.5,-145.5 930.5,-145.5 930.5,-126.5 1062.5,-126.5 1062.5,-145.5"/>
<text text-anchor="middle" x="996.5" y="-133.5" font-family="Helvetica,sans-Serif" font-size="10.00">src/IAPI_Implementation.h</text>
</a>
</g>
</g>
<!-- Node2&#45;&gt;Node18 -->
<g id="edge20" class="edge">
<title>Node2&#45;&gt;Node18</title>
<path fill="none" stroke="#63b8ff" d="M1022.91,-297.57C1019.04,-289.86 1015,-280.72 1012.5,-272 999.22,-225.72 996.94,-167.47 996.57,-145.72"/>
<polygon fill="#63b8ff" stroke="#63b8ff" points="1019.76,-299.11 1027.55,-306.3 1025.95,-295.82 1019.76,-299.11"/>
</g>
<!-- Node22 -->
<g id="node22" class="node">
<title>Node22</title>
<g id="a_node22"><a xlink:href="IMQTT__Client_8h.html" target="_top" xlink:title=" ">
<polygon fill="white" stroke="#666666" points="1247,-266.5 1146,-266.5 1146,-247.5 1247,-247.5 1247,-266.5"/>
<text text-anchor="middle" x="1196.5" y="-254.5" font-family="Helvetica,sans-Serif" font-size="10.00">src/IMQTT_Client.h</text>
</a>
</g>
</g>
<!-- Node2&#45;&gt;Node22 -->
<g id="edge29" class="edge">
<title>Node2&#45;&gt;Node22</title>
<path fill="none" stroke="#63b8ff" d="M1069.02,-303.75C1099.99,-292.64 1144.13,-276.8 1171.51,-266.97"/>
<polygon fill="#63b8ff" stroke="#63b8ff" points="1067.91,-300.43 1059.68,-307.1 1070.28,-307.02 1067.91,-300.43"/>
</g>
<!-- Node23 -->
<g id="node23" class="node">
<title>Node23</title>
<g id="a_node23"><a xlink:href="RPC__Callback_8h.html" target="_top" xlink:title=" ">
<polygon fill="white" stroke="#666666" points="1339.5,-206 1235.5,-206 1235.5,-187 1339.5,-187 1339.5,-206"/>
<text text-anchor="middle" x="1287.5" y="-194" font-family="Helvetica,sans-Serif" font-size="10.00">src/RPC_Callback.h</text>
</a>
</g>
</g>
<!-- Node2&#45;&gt;Node23 -->
<g id="edge32" class="edge">
<title>Node2&#45;&gt;Node23</title>
<path fill="none" stroke="#63b8ff" d="M1083.98,-311.94C1141.43,-305.82 1230.65,-293.19 1256.5,-272 1277.08,-255.12 1284.19,-222.26 1286.49,-206.44"/>
<polygon fill="#63b8ff" stroke="#63b8ff" points="1083.69,-308.45 1074.1,-312.96 1084.4,-315.41 1083.69,-308.45"/>
</g>
<!-- Node24 -->
<g id="node24" class="node">
<title>Node24</title>
<g id="a_node24"><a xlink:href="Shared__Attribute__Callback_8h.html" target="_top" xlink:title=" ">
<polygon fill="white" stroke="#666666" points="1127.5,-272 1021.5,-272 1021.5,-242 1127.5,-242 1127.5,-272"/>
<text text-anchor="start" x="1029.5" y="-260" font-family="Helvetica,sans-Serif" font-size="10.00">src/Shared_Attribute</text>
<text text-anchor="middle" x="1074.5" y="-249" font-family="Helvetica,sans-Serif" font-size="10.00">_Callback.h</text>
</a>
</g>
</g>
<!-- Node2&#45;&gt;Node24 -->
<g id="edge34" class="edge">
<title>Node2&#45;&gt;Node24</title>
<path fill="none" stroke="#63b8ff" d="M1046.12,-298.5C1052.06,-290.01 1059.05,-280.04 1064.61,-272.11"/>
<polygon fill="#63b8ff" stroke="#63b8ff" points="1043.29,-296.43 1040.42,-306.63 1049.02,-300.45 1043.29,-296.43"/>
</g>
<!-- Node4 -->
<g id="node4" class="node">
<title>Node4</title>
<g id="a_node4"><a xlink:href="OTA__Handler_8h.html" target="_top" xlink:title=" ">
<polygon fill="white" stroke="#666666" points="269.5,-79.5 169.5,-79.5 169.5,-60.5 269.5,-60.5 269.5,-79.5"/>
<text text-anchor="middle" x="219.5" y="-67.5" font-family="Helvetica,sans-Serif" font-size="10.00">src/OTA_Handler.h</text>
</a>
</g>
</g>
<!-- Node3&#45;&gt;Node4 -->
<g id="edge3" class="edge">
<title>Node3&#45;&gt;Node4</title>
<path fill="none" stroke="#63b8ff" d="M524.54,-244.78C459.04,-231.05 357.31,-202.95 283.5,-151 255.57,-131.34 233.54,-96.17 224.26,-79.81"/>
<polygon fill="#63b8ff" stroke="#63b8ff" points="523.56,-248.15 534.05,-246.72 524.95,-241.29 523.56,-248.15"/>
</g>
<!-- Node6 -->
<g id="node6" class="node">
<title>Node6</title>
<g id="a_node6"><a xlink:href="Timeoutable__Request_8h.html" target="_top" xlink:title=" ">
<polygon fill="white" stroke="#666666" points="657,-206 522,-206 522,-187 657,-187 657,-206"/>
<text text-anchor="middle" x="589.5" y="-194" font-family="Helvetica,sans-Serif" font-size="10.00">src/Timeoutable_Request.h</text>
</a>
</g>
</g>
<!-- Node3&#45;&gt;Node6 -->
<g id="edge5" class="edge">
<title>Node3&#45;&gt;Node6</title>
<path fill="none" stroke="#63b8ff" d="M589.5,-236.16C589.5,-225.95 589.5,-214.04 589.5,-206.17"/>
<polygon fill="#63b8ff" stroke="#63b8ff" points="586,-235.85 589.5,-245.85 593,-235.85 586,-235.85"/>
</g>
<!-- Node5 -->
<g id="node5" class="node">
<title>Node5</title>
<g id="a_node5"><a xlink:href="OTA__Firmware__Update_8h.html" target="_top" xlink:title=" ">
<polygon fill="white" stroke="#666666" points="1022,-19 879,-19 879,0 1022,0 1022,-19"/>
<text text-anchor="middle" x="950.5" y="-7" font-family="Helvetica,sans-Serif" font-size="10.00">src/OTA_Firmware_Update.h</text>
</a>
</g>
</g>
<!-- Node4&#45;&gt;Node5 -->
<g id="edge4" class="edge">
<title>Node4&#45;&gt;Node5</title>
<path fill="none" stroke="#63b8ff" d="M264.12,-57.58C268.95,-56.6 273.82,-55.71 278.5,-55 495.57,-22.29 755.69,-13.62 878.96,-11.33"/>
<polygon fill="#63b8ff" stroke="#63b8ff" points="263.5,-54.14 254.49,-59.7 265,-60.97 263.5,-54.14"/>
</g>
<!-- Node7 -->
<g id="node7" class="node">
<title>Node7</title>
<g id="a_node7"><a xlink:href="Attribute__Request_8h.html" target="_top" xlink:title=" ">
<polygon fill="white" stroke="#666666" points="966,-79.5 847,-79.5 847,-60.5 966,-60.5 966,-79.5"/>
<text text-anchor="middle" x="906.5" y="-67.5" font-family="Helvetica,sans-Serif" font-size="10.00">src/Attribute_Request.h</text>
</a>
</g>
</g>
<!-- Node6&#45;&gt;Node7 -->
<g id="edge6" class="edge">
<title>Node6&#45;&gt;Node7</title>
<path fill="none" stroke="#63b8ff" d="M653.15,-184.15C684.16,-177.14 721.38,-166.46 752.5,-151 772.08,-141.27 772.66,-132.11 791.5,-121 820.94,-103.64 857.52,-88.76 881.42,-79.86"/>
<polygon fill="#63b8ff" stroke="#63b8ff" points="652.54,-180.71 643.51,-186.25 654.02,-187.55 652.54,-180.71"/>
</g>
<!-- Node8 -->
<g id="node8" class="node">
<title>Node8</title>
<g id="a_node8"><a xlink:href="Attribute__Request__Callback_8h.html" target="_top" xlink:title=" ">
<polygon fill="white" stroke="#666666" points="912,-151 801,-151 801,-121 912,-121 912,-151"/>
<text text-anchor="start" x="809" y="-139" font-family="Helvetica,sans-Serif" font-size="10.00">src/Attribute_Request</text>
<text text-anchor="middle" x="856.5" y="-128" font-family="Helvetica,sans-Serif" font-size="10.00">_Callback.h</text>
</a>
</g>
</g>
<!-- Node6&#45;&gt;Node8 -->
<g id="edge8" class="edge">
<title>Node6&#45;&gt;Node8</title>
<path fill="none" stroke="#63b8ff" d="M641.52,-184.1C687.34,-174.06 753.9,-159.48 800.8,-149.2"/>
<polygon fill="#63b8ff" stroke="#63b8ff" points="640.84,-180.67 631.82,-186.23 642.34,-187.51 640.84,-180.67"/>
</g>
<!-- Node6&#45;&gt;Node9 -->
<g id="edge10" class="edge">
<title>Node6&#45;&gt;Node9</title>
<path fill="none" stroke="#63b8ff" d="M513.76,-185.03C433.36,-173.91 307.62,-156.52 231.55,-146"/>
<polygon fill="#63b8ff" stroke="#63b8ff" points="512.91,-188.44 523.3,-186.34 513.87,-181.51 512.91,-188.44"/>
</g>
<!-- Node11 -->
<g id="node11" class="node">
<title>Node11</title>
<g id="a_node11"><a xlink:href="Provision__Callback_8h.html" target="_top" xlink:title=" ">
<polygon fill="white" stroke="#666666" points="416.5,-145.5 292.5,-145.5 292.5,-126.5 416.5,-126.5 416.5,-145.5"/>
<text text-anchor="middle" x="354.5" y="-133.5" font-family="Helvetica,sans-Serif" font-size="10.00">src/Provision_Callback.h</text>
</a>
</g>
</g>
<!-- Node6&#45;&gt;Node11 -->
<g id="edge13" class="edge">
<title>Node6&#45;&gt;Node11</title>
<path fill="none" stroke="#63b8ff" d="M542.66,-183.84C497.84,-172.68 431.22,-156.1 390.44,-145.95"/>
<polygon fill="#63b8ff" stroke="#63b8ff" points="541.53,-187.17 552.08,-186.19 543.23,-180.37 541.53,-187.17"/>
</g>
<!-- Node14 -->
<g id="node14" class="node">
<title>Node14</title>
<g id="a_node14"><a xlink:href="RPC__Request__Callback_8h.html" target="_top" xlink:title=" ">
<polygon fill="white" stroke="#666666" points="744,-145.5 599,-145.5 599,-126.5 744,-126.5 744,-145.5"/>
<text text-anchor="middle" x="671.5" y="-133.5" font-family="Helvetica,sans-Serif" font-size="10.00">src/RPC_Request_Callback.h</text>
</a>
</g>
</g>
<!-- Node6&#45;&gt;Node14 -->
<g id="edge16" class="edge">
<title>Node6&#45;&gt;Node14</title>
<path fill="none" stroke="#63b8ff" d="M611.17,-180.04C626.4,-169.17 646.24,-155.02 658.93,-145.97"/>
<polygon fill="#63b8ff" stroke="#63b8ff" points="609.29,-177.08 603.19,-185.74 613.36,-182.78 609.29,-177.08"/>
</g>
<!-- Node17 -->
<g id="node17" class="node">
<title>Node17</title>
<g id="a_node17"><a xlink:href="Timeoutable__Request_8cpp.html" target="_top" xlink:title=" ">
<polygon fill="white" stroke="#666666" points="580.5,-145.5 434.5,-145.5 434.5,-126.5 580.5,-126.5 580.5,-145.5"/>
<text text-anchor="middle" x="507.5" y="-133.5" font-family="Helvetica,sans-Serif" font-size="10.00">src/Timeoutable_Request.cpp</text>
</a>
</g>
</g>
<!-- Node6&#45;&gt;Node17 -->
<g id="edge19" class="edge">
<title>Node6&#45;&gt;Node17</title>
<path fill="none" stroke="#63b8ff" d="M567.83,-180.04C552.6,-169.17 532.76,-155.02 520.07,-145.97"/>
<polygon fill="#63b8ff" stroke="#63b8ff" points="565.64,-182.78 575.81,-185.74 569.71,-177.08 565.64,-182.78"/>
</g>
<!-- Node7&#45;&gt;Node5 -->
<g id="edge7" class="edge">
<title>Node7&#45;&gt;Node5</title>
<path fill="none" stroke="#63b8ff" d="M919.68,-51.48C927.7,-40.81 937.6,-27.65 943.98,-19.17"/>
<polygon fill="#63b8ff" stroke="#63b8ff" points="917.12,-49.06 913.9,-59.16 922.71,-53.27 917.12,-49.06"/>
</g>
<!-- Node8&#45;&gt;Node7 -->
<g id="edge9" class="edge">
<title>Node8&#45;&gt;Node7</title>
<path fill="none" stroke="#63b8ff" d="M874.51,-111.95C883.21,-100.81 893.13,-88.11 899.59,-79.84"/>
<polygon fill="#63b8ff" stroke="#63b8ff" points="871.93,-109.57 868.53,-119.6 877.44,-113.88 871.93,-109.57"/>
</g>
<!-- Node9&#45;&gt;Node4 -->
<g id="edge11" class="edge">
<title>Node9&#45;&gt;Node4</title>
<path fill="none" stroke="#63b8ff" d="M181.19,-117.26C191.28,-105.08 204.23,-89.44 212.19,-79.82"/>
<polygon fill="#63b8ff" stroke="#63b8ff" points="178.52,-115 174.83,-124.94 183.91,-119.47 178.52,-115"/>
</g>
<!-- Node10 -->
<g id="node10" class="node">
<title>Node10</title>
<g id="a_node10"><a xlink:href="OTA__Update__Callback_8cpp.html" target="_top" xlink:title=" ">
<polygon fill="white" stroke="#666666" points="151,-79.5 0,-79.5 0,-60.5 151,-60.5 151,-79.5"/>
<text text-anchor="middle" x="75.5" y="-67.5" font-family="Helvetica,sans-Serif" font-size="10.00">src/OTA_Update_Callback.cpp</text>
</a>
</g>
</g>
<!-- Node9&#45;&gt;Node10 -->
<g id="edge12" class="edge">
<title>Node9&#45;&gt;Node10</title>
<path fill="none" stroke="#63b8ff" d="M144.8,-119.74C127.08,-107.28 102.67,-90.11 88.05,-79.82"/>
<polygon fill="#63b8ff" stroke="#63b8ff" points="142.42,-122.34 152.61,-125.23 146.44,-116.61 142.42,-122.34"/>
</g>
<!-- Node12 -->
<g id="node12" class="node">
<title>Node12</title>
<g id="a_node12"><a xlink:href="Provision_8h.html" target="_top" xlink:title=" ">
<polygon fill="white" stroke="#666666" points="694,-79.5 613,-79.5 613,-60.5 694,-60.5 694,-79.5"/>
<text text-anchor="middle" x="653.5" y="-67.5" font-family="Helvetica,sans-Serif" font-size="10.00">src/Provision.h</text>
</a>
</g>
</g>
<!-- Node11&#45;&gt;Node12 -->
<g id="edge14" class="edge">
<title>Node11&#45;&gt;Node12</title>
<path fill="none" stroke="#63b8ff" d="M410.53,-123.86C481.04,-109.82 594.11,-87.25 603.5,-85 609.81,-83.49 616.53,-81.71 622.92,-79.95"/>
<polygon fill="#63b8ff" stroke="#63b8ff" points="410.22,-120.35 401.09,-125.74 411.58,-127.22 410.22,-120.35"/>
</g>
<!-- Node13 -->
<g id="node13" class="node">
<title>Node13</title>
<g id="a_node13"><a xlink:href="Provision__Callback_8cpp.html" target="_top" xlink:title=" ">
<polygon fill="white" stroke="#666666" points="421.5,-79.5 287.5,-79.5 287.5,-60.5 421.5,-60.5 421.5,-79.5"/>
<text text-anchor="middle" x="354.5" y="-67.5" font-family="Helvetica,sans-Serif" font-size="10.00">src/Provision_Callback.cpp</text>
</a>
</g>
</g>
<!-- Node11&#45;&gt;Node13 -->
<g id="edge15" class="edge">
<title>Node11&#45;&gt;Node13</title>
<path fill="none" stroke="#63b8ff" d="M354.5,-114.68C354.5,-102.94 354.5,-88.77 354.5,-79.82"/>
<polygon fill="#63b8ff" stroke="#63b8ff" points="351,-114.59 354.5,-124.59 358,-114.59 351,-114.59"/>
</g>
<!-- Node15 -->
<g id="node15" class="node">
<title>Node15</title>
<g id="a_node15"><a xlink:href="Client__Side__RPC_8h.html" target="_top" xlink:title=" ">
<polygon fill="white" stroke="#666666" points="828.5,-79.5 712.5,-79.5 712.5,-60.5 828.5,-60.5 828.5,-79.5"/>
<text text-anchor="middle" x="770.5" y="-67.5" font-family="Helvetica,sans-Serif" font-size="10.00">src/Client_Side_RPC.h</text>
</a>
</g>
</g>
<!-- Node14&#45;&gt;Node15 -->
<g id="edge17" class="edge">
<title>Node14&#45;&gt;Node15</title>
<path fill="none" stroke="#63b8ff" d="M694.84,-119.91C714.14,-107.44 740.87,-90.15 756.85,-79.82"/>
<polygon fill="#63b8ff" stroke="#63b8ff" points="693.03,-116.91 686.54,-125.28 696.83,-122.79 693.03,-116.91"/>
</g>
<!-- Node16 -->
<g id="node16" class="node">
<title>Node16</title>
<g id="a_node16"><a xlink:href="RPC__Request__Callback_8cpp.html" target="_top" xlink:title=" ">
<polygon fill="white" stroke="#666666" points="595,-79.5 440,-79.5 440,-60.5 595,-60.5 595,-79.5"/>
<text text-anchor="middle" x="517.5" y="-67.5" font-family="Helvetica,sans-Serif" font-size="10.00">src/RPC_Request_Callback.cpp</text>
</a>
</g>
</g>
<!-- Node14&#45;&gt;Node16 -->
<g id="edge18" class="edge">
<title>Node14&#45;&gt;Node16</title>
<path fill="none" stroke="#63b8ff" d="M639.66,-121.77C609.44,-109.21 564.85,-90.68 538.73,-79.82"/>
<polygon fill="#63b8ff" stroke="#63b8ff" points="638.11,-124.91 648.69,-125.52 640.8,-118.45 638.11,-124.91"/>
</g>
<!-- Node18&#45;&gt;Node5 -->
<g id="edge23" class="edge">
<title>Node18&#45;&gt;Node5</title>
<path fill="none" stroke="#63b8ff" d="M992.43,-115.46C988.7,-99.01 982.53,-75.03 974.5,-55 969.34,-42.13 961.4,-28.19 956.09,-19.41"/>
<polygon fill="#63b8ff" stroke="#63b8ff" points="988.94,-115.88 994.48,-124.91 995.78,-114.39 988.94,-115.88"/>
</g>
<!-- Node18&#45;&gt;Node7 -->
<g id="edge21" class="edge">
<title>Node18&#45;&gt;Node7</title>
<path fill="none" stroke="#63b8ff" d="M975.04,-119.74C957.52,-107.28 933.37,-90.11 918.91,-79.82"/>
<polygon fill="#63b8ff" stroke="#63b8ff" points="972.57,-122.28 982.75,-125.22 976.63,-116.58 972.57,-122.28"/>
</g>
<!-- Node18&#45;&gt;Node12 -->
<g id="edge24" class="edge">
<title>Node18&#45;&gt;Node12</title>
<path fill="none" stroke="#63b8ff" d="M937.62,-124.05C931.84,-123 926.06,-121.97 920.5,-121 824.2,-104.14 798.93,-106.21 703.5,-85 696.99,-83.55 690.06,-81.77 683.51,-79.97"/>
<polygon fill="#63b8ff" stroke="#63b8ff" points="936.73,-127.44 947.19,-125.79 937.98,-120.56 936.73,-127.44"/>
</g>
<!-- Node18&#45;&gt;Node15 -->
<g id="edge22" class="edge">
<title>Node18&#45;&gt;Node15</title>
<path fill="none" stroke="#63b8ff" d="M954.12,-123C909.92,-110.48 841.68,-91.16 802.02,-79.93"/>
<polygon fill="#63b8ff" stroke="#63b8ff" points="953.04,-126.33 963.62,-125.69 954.95,-119.6 953.04,-126.33"/>
</g>
<!-- Node19 -->
<g id="node19" class="node">
<title>Node19</title>
<g id="a_node19"><a xlink:href="Server__Side__RPC_8h.html" target="_top" xlink:title=" ">
<polygon fill="white" stroke="#666666" points="1379,-79.5 1260,-79.5 1260,-60.5 1379,-60.5 1379,-79.5"/>
<text text-anchor="middle" x="1319.5" y="-67.5" font-family="Helvetica,sans-Serif" font-size="10.00">src/Server_Side_RPC.h</text>
</a>
</g>
</g>
<!-- Node18&#45;&gt;Node19 -->
<g id="edge25" class="edge">
<title>Node18&#45;&gt;Node19</title>
<path fill="none" stroke="#63b8ff" d="M1054.32,-123.82C1106.03,-113.79 1183.86,-98.59 1251.5,-85 1259.54,-83.39 1268.1,-81.64 1276.35,-79.95"/>
<polygon fill="#63b8ff" stroke="#63b8ff" points="1053.69,-120.38 1044.54,-125.72 1055.03,-127.25 1053.69,-120.38"/>
</g>
<!-- Node20 -->
<g id="node20" class="node">
<title>Node20</title>
<g id="a_node20"><a xlink:href="Shared__Attribute__Update_8h.html" target="_top" xlink:title=" ">
<polygon fill="white" stroke="#666666" points="1128.5,-85 1022.5,-85 1022.5,-55 1128.5,-55 1128.5,-85"/>
<text text-anchor="start" x="1030.5" y="-73" font-family="Helvetica,sans-Serif" font-size="10.00">src/Shared_Attribute</text>
<text text-anchor="middle" x="1075.5" y="-62" font-family="Helvetica,sans-Serif" font-size="10.00">_Update.h</text>
</a>
</g>
</g>
<!-- Node18&#45;&gt;Node20 -->
<g id="edge26" class="edge">
<title>Node18&#45;&gt;Node20</title>
<path fill="none" stroke="#63b8ff" d="M1016.35,-118.92C1029.04,-108.64 1045.35,-95.43 1057.63,-85.48"/>
<polygon fill="#63b8ff" stroke="#63b8ff" points="1014.23,-116.13 1008.66,-125.15 1018.63,-121.57 1014.23,-116.13"/>
</g>
<!-- Node21 -->
<g id="node21" class="node">
<title>Node21</title>
<g id="a_node21"><a xlink:href="ThingsBoard_8h.html" target="_top" xlink:title=" ">
<polygon fill="white" stroke="#666666" points="1242,-79.5 1147,-79.5 1147,-60.5 1242,-60.5 1242,-79.5"/>
<text text-anchor="middle" x="1194.5" y="-67.5" font-family="Helvetica,sans-Serif" font-size="10.00">src/ThingsBoard.h</text>
</a>
</g>
</g>
<!-- Node18&#45;&gt;Node21 -->
<g id="edge28" class="edge">
<title>Node18&#45;&gt;Node21</title>
<path fill="none" stroke="#63b8ff" d="M1034.87,-122.6C1073.62,-110.07 1132.51,-91.04 1166.88,-79.93"/>
<polygon fill="#63b8ff" stroke="#63b8ff" points="1033.91,-119.23 1025.47,-125.64 1036.06,-125.89 1033.91,-119.23"/>
</g>
<!-- Node20&#45;&gt;Node5 -->
<g id="edge27" class="edge">
<title>Node20&#45;&gt;Node5</title>
<path fill="none" stroke="#63b8ff" d="M1034.23,-49.69C1012.35,-39.44 986.53,-27.36 969.4,-19.35"/>
<polygon fill="#63b8ff" stroke="#63b8ff" points="1032.69,-52.83 1043.23,-53.9 1035.66,-46.49 1032.69,-52.83"/>
</g>
<!-- Node22&#45;&gt;Node21 -->
<g id="edge30" class="edge">
<title>Node22&#45;&gt;Node21</title>
<path fill="none" stroke="#63b8ff" d="M1196.28,-235.68C1195.85,-195.62 1194.9,-107.91 1194.6,-79.83"/>
<polygon fill="#63b8ff" stroke="#63b8ff" points="1192.78,-235.6 1196.39,-245.56 1199.78,-235.53 1192.78,-235.6"/>
</g>
<!-- Node23&#45;&gt;Node19 -->
<g id="edge33" class="edge">
<title>Node23&#45;&gt;Node19</title>
<path fill="none" stroke="#63b8ff" d="M1292.62,-175.57C1299.69,-148.09 1312.12,-99.72 1317.22,-79.87"/>
<polygon fill="#63b8ff" stroke="#63b8ff" points="1289.28,-174.52 1290.18,-185.08 1296.06,-176.27 1289.28,-174.52"/>
</g>
<!-- Node24&#45;&gt;Node20 -->
<g id="edge35" class="edge">
<title>Node24&#45;&gt;Node20</title>
<path fill="none" stroke="#63b8ff" d="M1074.64,-230.28C1074.85,-190.75 1075.25,-116.38 1075.42,-85.26"/>
<polygon fill="#63b8ff" stroke="#63b8ff" points="1071.14,-230.26 1074.59,-240.28 1078.14,-230.3 1071.14,-230.26"/>
</g>
</g>
</svg>
