<?xml version="1.0" encoding="UTF-8" standalone="no"?>
<!DOCTYPE svg PUBLIC "-//W3C//DTD SVG 1.1//EN"
 "http://www.w3.org/Graphics/SVG/1.1/DTD/svg11.dtd">
<!-- Generated by graphviz version 7.0.5 (20221223.1930)
 -->
<!-- Title: src/DefaultLogger.h Pages: 1 -->
<svg width="1118pt" height="258pt"
 viewBox="0.00 0.00 1117.50 258.00" xmlns="http://www.w3.org/2000/svg" xmlns:xlink="http://www.w3.org/1999/xlink">
<g id="graph0" class="graph" transform="scale(1 1) rotate(0) translate(4 254)">
<title>src/DefaultLogger.h</title>
<!-- Node1 -->
<g id="node1" class="node">
<title>Node1</title>
<g id="a_node1"><a xlink:title=" ">
<polygon fill="#999999" stroke="#666666" points="731,-250 630,-250 630,-231 731,-231 731,-250"/>
<text text-anchor="middle" x="680.5" y="-238" font-family="Helvetica,sans-Serif" font-size="10.00">src/DefaultLogger.h</text>
</a>
</g>
</g>
<!-- Node2 -->
<g id="node2" class="node">
<title>Node2</title>
<g id="a_node2"><a xlink:href="IAPI__Implementation_8h.html" target="_top" xlink:title=" ">
<polygon fill="white" stroke="#666666" points="475.5,-195 343.5,-195 343.5,-176 475.5,-176 475.5,-195"/>
<text text-anchor="middle" x="409.5" y="-183" font-family="Helvetica,sans-Serif" font-size="10.00">src/IAPI_Implementation.h</text>
</a>
</g>
</g>
<!-- Node1&#45;&gt;Node2 -->
<g id="edge1" class="edge">
<title>Node1&#45;&gt;Node2</title>
<path fill="none" stroke="#63b8ff" d="M623.25,-228.3C573.22,-218.52 501.53,-204.5 455.24,-195.45"/>
<polygon fill="#63b8ff" stroke="#63b8ff" points="622.56,-231.73 633.04,-230.22 623.9,-224.86 622.56,-231.73"/>
</g>
<!-- Node9 -->
<g id="node9" class="node">
<title>Node9</title>
<g id="a_node9"><a xlink:href="ThingsBoard_8h.html" target="_top" xlink:title=" ">
<polygon fill="white" stroke="#666666" points="680,-140 585,-140 585,-121 680,-121 680,-140"/>
<text text-anchor="middle" x="632.5" y="-128" font-family="Helvetica,sans-Serif" font-size="10.00">src/ThingsBoard.h</text>
</a>
</g>
</g>
<!-- Node1&#45;&gt;Node9 -->
<g id="edge20" class="edge">
<title>Node1&#45;&gt;Node9</title>
<path fill="none" stroke="#63b8ff" d="M650.91,-224.88C639.54,-217.59 627.78,-207.61 621.5,-195 612.52,-176.97 621.61,-152.9 627.79,-140.2"/>
<polygon fill="#63b8ff" stroke="#63b8ff" points="648.95,-227.79 659.35,-229.82 652.49,-221.75 648.95,-227.79"/>
</g>
<!-- Node10 -->
<g id="node10" class="node">
<title>Node10</title>
<g id="a_node10"><a xlink:href="IMQTT__Client_8h.html" target="_top" xlink:title=" ">
<polygon fill="white" stroke="#666666" points="731,-195 630,-195 630,-176 731,-176 731,-195"/>
<text text-anchor="middle" x="680.5" y="-183" font-family="Helvetica,sans-Serif" font-size="10.00">src/IMQTT_Client.h</text>
</a>
</g>
</g>
<!-- Node1&#45;&gt;Node10 -->
<g id="edge11" class="edge">
<title>Node1&#45;&gt;Node10</title>
<path fill="none" stroke="#63b8ff" d="M680.5,-219.35C680.5,-211.1 680.5,-201.97 680.5,-195.44"/>
<polygon fill="#63b8ff" stroke="#63b8ff" points="677,-219.23 680.5,-229.23 684,-219.23 677,-219.23"/>
</g>
<!-- Node11 -->
<g id="node11" class="node">
<title>Node11</title>
<g id="a_node11"><a xlink:href="IUpdater_8h.html" target="_top" xlink:title=" ">
<polygon fill="white" stroke="#666666" points="827.5,-195 749.5,-195 749.5,-176 827.5,-176 827.5,-195"/>
<text text-anchor="middle" x="788.5" y="-183" font-family="Helvetica,sans-Serif" font-size="10.00">src/IUpdater.h</text>
</a>
</g>
</g>
<!-- Node1&#45;&gt;Node11 -->
<g id="edge13" class="edge">
<title>Node1&#45;&gt;Node11</title>
<path fill="none" stroke="#63b8ff" d="M708.96,-225.53C728.44,-215.97 753.68,-203.59 770.45,-195.36"/>
<polygon fill="#63b8ff" stroke="#63b8ff" points="707.61,-222.29 700.18,-229.84 710.7,-228.58 707.61,-222.29"/>
</g>
<!-- Node17 -->
<g id="node17" class="node">
<title>Node17</title>
<g id="a_node17"><a xlink:href="ThingsBoardHttp_8h.html" target="_top" xlink:title=" ">
<polygon fill="white" stroke="#666666" points="959.5,-195 845.5,-195 845.5,-176 959.5,-176 959.5,-195"/>
<text text-anchor="middle" x="902.5" y="-183" font-family="Helvetica,sans-Serif" font-size="10.00">src/ThingsBoardHttp.h</text>
</a>
</g>
</g>
<!-- Node1&#45;&gt;Node17 -->
<g id="edge21" class="edge">
<title>Node1&#45;&gt;Node17</title>
<path fill="none" stroke="#63b8ff" d="M729.22,-227.87C770.11,-218.11 827.67,-204.37 865.03,-195.45"/>
<polygon fill="#63b8ff" stroke="#63b8ff" points="728.55,-224.43 719.63,-230.16 730.17,-231.24 728.55,-224.43"/>
</g>
<!-- Node3 -->
<g id="node3" class="node">
<title>Node3</title>
<g id="a_node3"><a xlink:href="Attribute__Request_8h.html" target="_top" xlink:title=" ">
<polygon fill="white" stroke="#666666" points="119,-79.5 0,-79.5 0,-60.5 119,-60.5 119,-79.5"/>
<text text-anchor="middle" x="59.5" y="-67.5" font-family="Helvetica,sans-Serif" font-size="10.00">src/Attribute_Request.h</text>
</a>
</g>
</g>
<!-- Node2&#45;&gt;Node3 -->
<g id="edge2" class="edge">
<title>Node2&#45;&gt;Node3</title>
<path fill="none" stroke="#63b8ff" d="M332.05,-183.98C274.62,-180.82 195.83,-170.5 133.5,-140 103.84,-125.48 77.83,-95.08 66.11,-79.95"/>
<polygon fill="#63b8ff" stroke="#63b8ff" points="331.57,-187.46 341.73,-184.44 331.91,-180.46 331.57,-187.46"/>
</g>
<!-- Node4 -->
<g id="node4" class="node">
<title>Node4</title>
<g id="a_node4"><a xlink:href="OTA__Firmware__Update_8h.html" target="_top" xlink:title=" ">
<polygon fill="white" stroke="#666666" points="341,-19 198,-19 198,0 341,0 341,-19"/>
<text text-anchor="middle" x="269.5" y="-7" font-family="Helvetica,sans-Serif" font-size="10.00">src/OTA_Firmware_Update.h</text>
</a>
</g>
</g>
<!-- Node2&#45;&gt;Node4 -->
<g id="edge5" class="edge">
<title>Node2&#45;&gt;Node4</title>
<path fill="none" stroke="#63b8ff" d="M331.96,-180.82C269,-176.01 187.35,-165.02 166.5,-140 129.35,-95.43 214.96,-40.57 252.73,-19.41"/>
<polygon fill="#63b8ff" stroke="#63b8ff" points="331.34,-184.29 341.57,-181.51 331.85,-177.3 331.34,-184.29"/>
</g>
<!-- Node5 -->
<g id="node5" class="node">
<title>Node5</title>
<g id="a_node5"><a xlink:href="Client__Side__RPC_8h.html" target="_top" xlink:title=" ">
<polygon fill="white" stroke="#666666" points="291.5,-140 175.5,-140 175.5,-121 291.5,-121 291.5,-140"/>
<text text-anchor="middle" x="233.5" y="-128" font-family="Helvetica,sans-Serif" font-size="10.00">src/Client_Side_RPC.h</text>
</a>
</g>
</g>
<!-- Node2&#45;&gt;Node5 -->
<g id="edge4" class="edge">
<title>Node2&#45;&gt;Node5</title>
<path fill="none" stroke="#63b8ff" d="M368.78,-172.24C336.52,-162.52 292.19,-149.18 263.21,-140.45"/>
<polygon fill="#63b8ff" stroke="#63b8ff" points="367.61,-175.54 378.19,-175.07 369.63,-168.84 367.61,-175.54"/>
</g>
<!-- Node6 -->
<g id="node6" class="node">
<title>Node6</title>
<g id="a_node6"><a xlink:href="Provision_8h.html" target="_top" xlink:title=" ">
<polygon fill="white" stroke="#666666" points="391,-140 310,-140 310,-121 391,-121 391,-140"/>
<text text-anchor="middle" x="350.5" y="-128" font-family="Helvetica,sans-Serif" font-size="10.00">src/Provision.h</text>
</a>
</g>
</g>
<!-- Node2&#45;&gt;Node6 -->
<g id="edge6" class="edge">
<title>Node2&#45;&gt;Node6</title>
<path fill="none" stroke="#63b8ff" d="M391.23,-168.09C381.04,-158.94 368.76,-147.9 360.36,-140.36"/>
<polygon fill="#63b8ff" stroke="#63b8ff" points="388.59,-170.42 398.37,-174.5 393.27,-165.21 388.59,-170.42"/>
</g>
<!-- Node7 -->
<g id="node7" class="node">
<title>Node7</title>
<g id="a_node7"><a xlink:href="Server__Side__RPC_8h.html" target="_top" xlink:title=" ">
<polygon fill="white" stroke="#666666" points="528,-140 409,-140 409,-121 528,-121 528,-140"/>
<text text-anchor="middle" x="468.5" y="-128" font-family="Helvetica,sans-Serif" font-size="10.00">src/Server_Side_RPC.h</text>
</a>
</g>
</g>
<!-- Node2&#45;&gt;Node7 -->
<g id="edge7" class="edge">
<title>Node2&#45;&gt;Node7</title>
<path fill="none" stroke="#63b8ff" d="M427.77,-168.09C437.96,-158.94 450.24,-147.9 458.64,-140.36"/>
<polygon fill="#63b8ff" stroke="#63b8ff" points="425.73,-165.21 420.63,-174.5 430.41,-170.42 425.73,-165.21"/>
</g>
<!-- Node8 -->
<g id="node8" class="node">
<title>Node8</title>
<g id="a_node8"><a xlink:href="Shared__Attribute__Update_8h.html" target="_top" xlink:title=" ">
<polygon fill="white" stroke="#666666" points="445.5,-85 339.5,-85 339.5,-55 445.5,-55 445.5,-85"/>
<text text-anchor="start" x="347.5" y="-73" font-family="Helvetica,sans-Serif" font-size="10.00">src/Shared_Attribute</text>
<text text-anchor="middle" x="392.5" y="-62" font-family="Helvetica,sans-Serif" font-size="10.00">_Update.h</text>
</a>
</g>
</g>
<!-- Node2&#45;&gt;Node8 -->
<g id="edge8" class="edge">
<title>Node2&#45;&gt;Node8</title>
<path fill="none" stroke="#63b8ff" d="M483.41,-173.12C521.6,-163.84 556.59,-147.77 537.5,-121 516.79,-91.95 478.03,-79.61 445.79,-74.45"/>
<polygon fill="#63b8ff" stroke="#63b8ff" points="483.06,-169.61 474.08,-175.22 484.6,-176.44 483.06,-169.61"/>
</g>
<!-- Node2&#45;&gt;Node9 -->
<g id="edge10" class="edge">
<title>Node2&#45;&gt;Node9</title>
<path fill="none" stroke="#63b8ff" d="M458.44,-172.87C499.51,-163.11 557.33,-149.37 594.86,-140.45"/>
<polygon fill="#63b8ff" stroke="#63b8ff" points="457.72,-169.44 448.8,-175.16 459.34,-176.25 457.72,-169.44"/>
</g>
<!-- Node3&#45;&gt;Node4 -->
<g id="edge3" class="edge">
<title>Node3&#45;&gt;Node4</title>
<path fill="none" stroke="#63b8ff" d="M102.4,-57.05C142.4,-45.91 201.18,-29.53 237.31,-19.47"/>
<polygon fill="#63b8ff" stroke="#63b8ff" points="101.55,-53.65 92.85,-59.71 103.42,-60.4 101.55,-53.65"/>
</g>
<!-- Node8&#45;&gt;Node4 -->
<g id="edge9" class="edge">
<title>Node8&#45;&gt;Node4</title>
<path fill="none" stroke="#63b8ff" d="M351.89,-49.69C330.36,-39.44 304.95,-27.36 288.1,-19.35"/>
<polygon fill="#63b8ff" stroke="#63b8ff" points="350.19,-52.75 360.73,-53.89 353.2,-46.43 350.19,-52.75"/>
</g>
<!-- Node10&#45;&gt;Node9 -->
<g id="edge12" class="edge">
<title>Node10&#45;&gt;Node9</title>
<path fill="none" stroke="#63b8ff" d="M664.85,-167.22C656.75,-158.28 647.21,-147.74 640.6,-140.44"/>
<polygon fill="#63b8ff" stroke="#63b8ff" points="662.25,-169.56 671.56,-174.63 667.44,-164.86 662.25,-169.56"/>
</g>
<!-- Node12 -->
<g id="node12" class="node">
<title>Node12</title>
<g id="a_node12"><a xlink:href="Espressif__Updater_8h.html" target="_top" xlink:title=" ">
<polygon fill="white" stroke="#666666" points="819,-140 698,-140 698,-121 819,-121 819,-140"/>
<text text-anchor="middle" x="758.5" y="-128" font-family="Helvetica,sans-Serif" font-size="10.00">src/Espressif_Updater.h</text>
</a>
</g>
</g>
<!-- Node11&#45;&gt;Node12 -->
<g id="edge14" class="edge">
<title>Node11&#45;&gt;Node12</title>
<path fill="none" stroke="#63b8ff" d="M777.91,-165.79C773.03,-157.18 767.48,-147.36 763.56,-140.44"/>
<polygon fill="#63b8ff" stroke="#63b8ff" points="774.83,-167.45 782.8,-174.43 780.92,-164 774.83,-167.45"/>
</g>
<!-- Node13 -->
<g id="node13" class="node">
<title>Node13</title>
<g id="a_node13"><a xlink:href="OTA__Update__Callback_8h.html" target="_top" xlink:title=" ">
<polygon fill="white" stroke="#666666" points="977.5,-140 837.5,-140 837.5,-121 977.5,-121 977.5,-140"/>
<text text-anchor="middle" x="907.5" y="-128" font-family="Helvetica,sans-Serif" font-size="10.00">src/OTA_Update_Callback.h</text>
</a>
</g>
</g>
<!-- Node11&#45;&gt;Node13 -->
<g id="edge15" class="edge">
<title>Node11&#45;&gt;Node13</title>
<path fill="none" stroke="#63b8ff" d="M818.97,-170.93C840.55,-161.32 868.88,-148.7 887.61,-140.36"/>
<polygon fill="#63b8ff" stroke="#63b8ff" points="817.78,-167.63 810.07,-174.89 820.63,-174.02 817.78,-167.63"/>
</g>
<!-- Node16 -->
<g id="node16" class="node">
<title>Node16</title>
<g id="a_node16"><a xlink:href="SDCard__Updater_8h.html" target="_top" xlink:title=" ">
<polygon fill="white" stroke="#666666" points="1109.5,-140 995.5,-140 995.5,-121 1109.5,-121 1109.5,-140"/>
<text text-anchor="middle" x="1052.5" y="-128" font-family="Helvetica,sans-Serif" font-size="10.00">src/SDCard_Updater.h</text>
</a>
</g>
</g>
<!-- Node11&#45;&gt;Node16 -->
<g id="edge19" class="edge">
<title>Node11&#45;&gt;Node16</title>
<path fill="none" stroke="#63b8ff" d="M838.98,-174.37C887.77,-164.57 960.98,-149.87 1007.74,-140.49"/>
<polygon fill="#63b8ff" stroke="#63b8ff" points="838.34,-170.92 829.22,-176.32 839.72,-177.79 838.34,-170.92"/>
</g>
<!-- Node14 -->
<g id="node14" class="node">
<title>Node14</title>
<g id="a_node14"><a xlink:href="OTA__Handler_8h.html" target="_top" xlink:title=" ">
<polygon fill="white" stroke="#666666" points="688.5,-79.5 588.5,-79.5 588.5,-60.5 688.5,-60.5 688.5,-79.5"/>
<text text-anchor="middle" x="638.5" y="-67.5" font-family="Helvetica,sans-Serif" font-size="10.00">src/OTA_Handler.h</text>
</a>
</g>
</g>
<!-- Node13&#45;&gt;Node14 -->
<g id="edge16" class="edge">
<title>Node13&#45;&gt;Node14</title>
<path fill="none" stroke="#63b8ff" d="M855.18,-118.12C803.88,-106.97 726.71,-90.18 679.64,-79.95"/>
<polygon fill="#63b8ff" stroke="#63b8ff" points="854.36,-121.52 864.87,-120.23 855.85,-114.68 854.36,-121.52"/>
</g>
<!-- Node15 -->
<g id="node15" class="node">
<title>Node15</title>
<g id="a_node15"><a xlink:href="OTA__Update__Callback_8cpp.html" target="_top" xlink:title=" ">
<polygon fill="white" stroke="#666666" points="983,-79.5 832,-79.5 832,-60.5 983,-60.5 983,-79.5"/>
<text text-anchor="middle" x="907.5" y="-67.5" font-family="Helvetica,sans-Serif" font-size="10.00">src/OTA_Update_Callback.cpp</text>
</a>
</g>
</g>
<!-- Node13&#45;&gt;Node15 -->
<g id="edge18" class="edge">
<title>Node13&#45;&gt;Node15</title>
<path fill="none" stroke="#63b8ff" d="M907.5,-109.66C907.5,-99.45 907.5,-87.54 907.5,-79.67"/>
<polygon fill="#63b8ff" stroke="#63b8ff" points="904,-109.35 907.5,-119.35 911,-109.35 904,-109.35"/>
</g>
<!-- Node14&#45;&gt;Node4 -->
<g id="edge17" class="edge">
<title>Node14&#45;&gt;Node4</title>
<path fill="none" stroke="#63b8ff" d="M577.1,-59.27C507.23,-48.19 394.05,-30.25 326.2,-19.49"/>
<polygon fill="#63b8ff" stroke="#63b8ff" points="576.43,-62.7 586.86,-60.81 577.53,-55.79 576.43,-62.7"/>
</g>
</g>
</svg>
