<?xml version="1.0" encoding="UTF-8" standalone="no"?>
<!DOCTYPE svg PUBLIC "-//W3C//DTD SVG 1.1//EN"
 "http://www.w3.org/Graphics/SVG/1.1/DTD/svg11.dtd">
<!-- Generated by graphviz version 7.0.5 (20221223.1930)
 -->
<!-- Title: src/Helper.h Pages: 1 -->
<svg width="1403pt" height="445pt"
 viewBox="0.00 0.00 1403.00 445.00" xmlns="http://www.w3.org/2000/svg" xmlns:xlink="http://www.w3.org/1999/xlink">
<g id="graph0" class="graph" transform="scale(1 1) rotate(0) translate(4 441)">
<title>src/Helper.h</title>
<!-- Node1 -->
<g id="node1" class="node">
<title>Node1</title>
<g id="a_node1"><a xlink:title=" ">
<polygon fill="#999999" stroke="#666666" points="1151.5,-437 1082.5,-437 1082.5,-418 1151.5,-418 1151.5,-437"/>
<text text-anchor="middle" x="1117" y="-425" font-family="Helvetica,sans-Serif" font-size="10.00">src/Helper.h</text>
</a>
</g>
</g>
<!-- Node2 -->
<g id="node2" class="node">
<title>Node2</title>
<g id="a_node2"><a xlink:href="Container_8h.html" target="_top" xlink:title=" ">
<polygon fill="white" stroke="#666666" points="994,-382 912,-382 912,-363 994,-363 994,-382"/>
<text text-anchor="middle" x="953" y="-370" font-family="Helvetica,sans-Serif" font-size="10.00">src/Container.h</text>
</a>
</g>
</g>
<!-- Node1&#45;&gt;Node2 -->
<g id="edge1" class="edge">
<title>Node1&#45;&gt;Node2</title>
<path fill="none" stroke="#63b8ff" d="M1078.27,-413.98C1048.27,-404.29 1007.46,-391.1 980.68,-382.45"/>
<polygon fill="#63b8ff" stroke="#63b8ff" points="1077.15,-417.3 1087.74,-417.04 1079.3,-410.64 1077.15,-417.3"/>
</g>
<!-- Node5 -->
<g id="node5" class="node">
<title>Node5</title>
<g id="a_node5"><a xlink:href="OTA__Handler_8h.html" target="_top" xlink:title=" ">
<polygon fill="white" stroke="#666666" points="100,-74 0,-74 0,-55 100,-55 100,-74"/>
<text text-anchor="middle" x="50" y="-62" font-family="Helvetica,sans-Serif" font-size="10.00">src/OTA_Handler.h</text>
</a>
</g>
</g>
<!-- Node1&#45;&gt;Node5 -->
<g id="edge46" class="edge">
<title>Node1&#45;&gt;Node5</title>
<path fill="none" stroke="#63b8ff" d="M1070.55,-426.92C860.53,-428.23 10,-426.83 10,-318.5 10,-318.5 10,-318.5 10,-190 10,-144.59 34.41,-94.15 45.1,-74.25"/>
<polygon fill="#63b8ff" stroke="#63b8ff" points="1070.55,-430.42 1080.53,-426.85 1070.5,-423.42 1070.55,-430.42"/>
</g>
<!-- Node26 -->
<g id="node26" class="node">
<title>Node26</title>
<g id="a_node26"><a xlink:href="DefaultLogger_8h.html" target="_top" xlink:title=" ">
<polygon fill="white" stroke="#666666" points="1167.5,-327 1066.5,-327 1066.5,-308 1167.5,-308 1167.5,-327"/>
<text text-anchor="middle" x="1117" y="-315" font-family="Helvetica,sans-Serif" font-size="10.00">src/DefaultLogger.h</text>
</a>
</g>
</g>
<!-- Node1&#45;&gt;Node26 -->
<g id="edge37" class="edge">
<title>Node1&#45;&gt;Node26</title>
<path fill="none" stroke="#63b8ff" d="M1117,-406.24C1117,-382.63 1117,-344.65 1117,-327.46"/>
<polygon fill="#63b8ff" stroke="#63b8ff" points="1113.5,-406.15 1117,-416.15 1120.5,-406.15 1113.5,-406.15"/>
</g>
<!-- Node29 -->
<g id="node29" class="node">
<title>Node29</title>
<g id="a_node29"><a xlink:href="ThingsBoardHttp_8h.html" target="_top" xlink:title=" ">
<polygon fill="white" stroke="#666666" points="1395,-266.5 1281,-266.5 1281,-247.5 1395,-247.5 1395,-266.5"/>
<text text-anchor="middle" x="1338" y="-254.5" font-family="Helvetica,sans-Serif" font-size="10.00">src/ThingsBoardHttp.h</text>
</a>
</g>
</g>
<!-- Node1&#45;&gt;Node29 -->
<g id="edge47" class="edge">
<title>Node1&#45;&gt;Node29</title>
<path fill="none" stroke="#63b8ff" d="M1137.5,-410.87C1182.87,-376.28 1290.58,-294.16 1326.28,-266.94"/>
<polygon fill="#63b8ff" stroke="#63b8ff" points="1135.6,-407.91 1129.77,-416.76 1139.85,-413.48 1135.6,-407.91"/>
</g>
<!-- Node30 -->
<g id="node30" class="node">
<title>Node30</title>
<g id="a_node30"><a xlink:href="Helper_8cpp.html" target="_top" xlink:title=" ">
<polygon fill="white" stroke="#666666" points="1304,-382 1224,-382 1224,-363 1304,-363 1304,-382"/>
<text text-anchor="middle" x="1264" y="-370" font-family="Helvetica,sans-Serif" font-size="10.00">src/Helper.cpp</text>
</a>
</g>
</g>
<!-- Node1&#45;&gt;Node30 -->
<g id="edge45" class="edge">
<title>Node1&#45;&gt;Node30</title>
<path fill="none" stroke="#63b8ff" d="M1152.47,-413.71C1179.37,-404.01 1215.66,-390.93 1239.43,-382.36"/>
<polygon fill="#63b8ff" stroke="#63b8ff" points="1151.58,-410.31 1143.36,-417 1153.95,-416.9 1151.58,-410.31"/>
</g>
<!-- Node3 -->
<g id="node3" class="node">
<title>Node3</title>
<g id="a_node3"><a xlink:href="Callback_8h.html" target="_top" xlink:title=" ">
<polygon fill="white" stroke="#666666" points="858,-327 780,-327 780,-308 858,-308 858,-327"/>
<text text-anchor="middle" x="819" y="-315" font-family="Helvetica,sans-Serif" font-size="10.00">src/Callback.h</text>
</a>
</g>
</g>
<!-- Node2&#45;&gt;Node3 -->
<g id="edge2" class="edge">
<title>Node2&#45;&gt;Node3</title>
<path fill="none" stroke="#63b8ff" d="M919.69,-358.32C895.27,-348.67 862.78,-335.82 841.4,-327.36"/>
<polygon fill="#63b8ff" stroke="#63b8ff" points="918.27,-361.53 928.86,-361.95 920.85,-355.02 918.27,-361.53"/>
</g>
<!-- Node4 -->
<g id="node4" class="node">
<title>Node4</title>
<g id="a_node4"><a xlink:href="Callback__Watchdog_8h.html" target="_top" xlink:title=" ">
<polygon fill="white" stroke="#666666" points="335.5,-266.5 208.5,-266.5 208.5,-247.5 335.5,-247.5 335.5,-266.5"/>
<text text-anchor="middle" x="272" y="-254.5" font-family="Helvetica,sans-Serif" font-size="10.00">src/Callback_Watchdog.h</text>
</a>
</g>
</g>
<!-- Node3&#45;&gt;Node4 -->
<g id="edge3" class="edge">
<title>Node3&#45;&gt;Node4</title>
<path fill="none" stroke="#63b8ff" d="M768.38,-313.08C682.22,-306.95 501.65,-292.77 350,-272 339.78,-270.6 328.85,-268.82 318.51,-267"/>
<polygon fill="#63b8ff" stroke="#63b8ff" points="767.92,-316.56 778.14,-313.77 768.41,-309.57 767.92,-316.56"/>
</g>
<!-- Node10 -->
<g id="node10" class="node">
<title>Node10</title>
<g id="a_node10"><a xlink:href="OTA__Update__Callback_8h.html" target="_top" xlink:title=" ">
<polygon fill="white" stroke="#666666" points="380,-134.5 240,-134.5 240,-115.5 380,-115.5 380,-134.5"/>
<text text-anchor="middle" x="310" y="-122.5" font-family="Helvetica,sans-Serif" font-size="10.00">src/OTA_Update_Callback.h</text>
</a>
</g>
</g>
<!-- Node3&#45;&gt;Node10 -->
<g id="edge32" class="edge">
<title>Node3&#45;&gt;Node10</title>
<path fill="none" stroke="#63b8ff" d="M768.22,-313.92C682.57,-307.45 506.74,-284.81 384,-206 353.43,-186.37 327.09,-151.19 315.83,-134.82"/>
<polygon fill="#63b8ff" stroke="#63b8ff" points="767.96,-317.41 778.18,-314.63 768.45,-310.43 767.96,-317.41"/>
</g>
<!-- Node19 -->
<g id="node19" class="node">
<title>Node19</title>
<g id="a_node19"><a xlink:href="IAPI__Implementation_8h.html" target="_top" xlink:title=" ">
<polygon fill="white" stroke="#666666" points="885,-266.5 753,-266.5 753,-247.5 885,-247.5 885,-266.5"/>
<text text-anchor="middle" x="819" y="-254.5" font-family="Helvetica,sans-Serif" font-size="10.00">src/IAPI_Implementation.h</text>
</a>
</g>
</g>
<!-- Node3&#45;&gt;Node19 -->
<g id="edge21" class="edge">
<title>Node3&#45;&gt;Node19</title>
<path fill="none" stroke="#63b8ff" d="M819,-296.66C819,-286.45 819,-274.54 819,-266.67"/>
<polygon fill="#63b8ff" stroke="#63b8ff" points="815.5,-296.35 819,-306.35 822.5,-296.35 815.5,-296.35"/>
</g>
<!-- Node23 -->
<g id="node23" class="node">
<title>Node23</title>
<g id="a_node23"><a xlink:href="IMQTT__Client_8h.html" target="_top" xlink:title=" ">
<polygon fill="white" stroke="#666666" points="1128.5,-266.5 1027.5,-266.5 1027.5,-247.5 1128.5,-247.5 1128.5,-266.5"/>
<text text-anchor="middle" x="1078" y="-254.5" font-family="Helvetica,sans-Serif" font-size="10.00">src/IMQTT_Client.h</text>
</a>
</g>
</g>
<!-- Node3&#45;&gt;Node23 -->
<g id="edge30" class="edge">
<title>Node3&#45;&gt;Node23</title>
<path fill="none" stroke="#63b8ff" d="M869.42,-305.36C909.66,-296.44 967.48,-283.54 1018,-272 1025.09,-270.38 1032.65,-268.63 1039.92,-266.94"/>
<polygon fill="#63b8ff" stroke="#63b8ff" points="868.78,-301.92 859.77,-307.5 870.29,-308.75 868.78,-301.92"/>
</g>
<!-- Node24 -->
<g id="node24" class="node">
<title>Node24</title>
<g id="a_node24"><a xlink:href="RPC__Callback_8h.html" target="_top" xlink:title=" ">
<polygon fill="white" stroke="#666666" points="698,-266.5 594,-266.5 594,-247.5 698,-247.5 698,-266.5"/>
<text text-anchor="middle" x="646" y="-254.5" font-family="Helvetica,sans-Serif" font-size="10.00">src/RPC_Callback.h</text>
</a>
</g>
</g>
<!-- Node3&#45;&gt;Node24 -->
<g id="edge33" class="edge">
<title>Node3&#45;&gt;Node24</title>
<path fill="none" stroke="#63b8ff" d="M782.17,-304.05C749.26,-292.92 701.84,-276.88 672.52,-266.97"/>
<polygon fill="#63b8ff" stroke="#63b8ff" points="780.7,-307.24 791.29,-307.13 782.94,-300.61 780.7,-307.24"/>
</g>
<!-- Node25 -->
<g id="node25" class="node">
<title>Node25</title>
<g id="a_node25"><a xlink:href="Shared__Attribute__Callback_8h.html" target="_top" xlink:title=" ">
<polygon fill="white" stroke="#666666" points="1009,-272 903,-272 903,-242 1009,-242 1009,-272"/>
<text text-anchor="start" x="911" y="-260" font-family="Helvetica,sans-Serif" font-size="10.00">src/Shared_Attribute</text>
<text text-anchor="middle" x="956" y="-249" font-family="Helvetica,sans-Serif" font-size="10.00">_Callback.h</text>
</a>
</g>
</g>
<!-- Node3&#45;&gt;Node25 -->
<g id="edge35" class="edge">
<title>Node3&#45;&gt;Node25</title>
<path fill="none" stroke="#63b8ff" d="M850.32,-303.13C871.78,-293.96 900.21,-281.82 922.18,-272.44"/>
<polygon fill="#63b8ff" stroke="#63b8ff" points="849.02,-299.87 841.2,-307.02 851.77,-306.31 849.02,-299.87"/>
</g>
<!-- Node4&#45;&gt;Node5 -->
<g id="edge4" class="edge">
<title>Node4&#45;&gt;Node5</title>
<path fill="none" stroke="#63b8ff" d="M229.38,-243.44C182.28,-227.31 107.7,-194.65 67,-140 52.1,-120 49.92,-89.19 49.81,-74.24"/>
<polygon fill="#63b8ff" stroke="#63b8ff" points="228.12,-246.71 238.71,-246.53 230.32,-240.07 228.12,-246.71"/>
</g>
<!-- Node7 -->
<g id="node7" class="node">
<title>Node7</title>
<g id="a_node7"><a xlink:href="Timeoutable__Request_8h.html" target="_top" xlink:title=" ">
<polygon fill="white" stroke="#666666" points="527.5,-200.5 392.5,-200.5 392.5,-181.5 527.5,-181.5 527.5,-200.5"/>
<text text-anchor="middle" x="460" y="-188.5" font-family="Helvetica,sans-Serif" font-size="10.00">src/Timeoutable_Request.h</text>
</a>
</g>
</g>
<!-- Node4&#45;&gt;Node7 -->
<g id="edge6" class="edge">
<title>Node4&#45;&gt;Node7</title>
<path fill="none" stroke="#63b8ff" d="M308.91,-243.43C345.7,-230.91 401.28,-211.99 433.78,-200.93"/>
<polygon fill="#63b8ff" stroke="#63b8ff" points="307.91,-240.08 299.57,-246.61 310.17,-246.7 307.91,-240.08"/>
</g>
<!-- Node6 -->
<g id="node6" class="node">
<title>Node6</title>
<g id="a_node6"><a xlink:href="OTA__Firmware__Update_8h.html" target="_top" xlink:title=" ">
<polygon fill="white" stroke="#666666" points="869.5,-19 726.5,-19 726.5,0 869.5,0 869.5,-19"/>
<text text-anchor="middle" x="798" y="-7" font-family="Helvetica,sans-Serif" font-size="10.00">src/OTA_Firmware_Update.h</text>
</a>
</g>
</g>
<!-- Node5&#45;&gt;Node6 -->
<g id="edge5" class="edge">
<title>Node5&#45;&gt;Node6</title>
<path fill="none" stroke="#63b8ff" d="M111.59,-55.05C343.38,-31.76 602.98,-18.77 726.15,-13.41"/>
<polygon fill="#63b8ff" stroke="#63b8ff" points="111.33,-51.56 101.74,-56.05 112.04,-58.52 111.33,-51.56"/>
</g>
<!-- Node8 -->
<g id="node8" class="node">
<title>Node8</title>
<g id="a_node8"><a xlink:href="Attribute__Request_8h.html" target="_top" xlink:title=" ">
<polygon fill="white" stroke="#666666" points="660.5,-74 541.5,-74 541.5,-55 660.5,-55 660.5,-74"/>
<text text-anchor="middle" x="601" y="-62" font-family="Helvetica,sans-Serif" font-size="10.00">src/Attribute_Request.h</text>
</a>
</g>
</g>
<!-- Node7&#45;&gt;Node8 -->
<g id="edge7" class="edge">
<title>Node7&#45;&gt;Node8</title>
<path fill="none" stroke="#63b8ff" d="M484.06,-174.83C498.25,-165.46 516.25,-152.81 531,-140 555.93,-118.36 581.58,-88.84 593.75,-74.31"/>
<polygon fill="#63b8ff" stroke="#63b8ff" points="482.26,-171.83 475.77,-180.2 486.07,-177.7 482.26,-171.83"/>
</g>
<!-- Node9 -->
<g id="node9" class="node">
<title>Node9</title>
<g id="a_node9"><a xlink:href="Attribute__Request__Callback_8h.html" target="_top" xlink:title=" ">
<polygon fill="white" stroke="#666666" points="727.5,-140 616.5,-140 616.5,-110 727.5,-110 727.5,-140"/>
<text text-anchor="start" x="624.5" y="-128" font-family="Helvetica,sans-Serif" font-size="10.00">src/Attribute_Request</text>
<text text-anchor="middle" x="672" y="-117" font-family="Helvetica,sans-Serif" font-size="10.00">_Callback.h</text>
</a>
</g>
</g>
<!-- Node7&#45;&gt;Node9 -->
<g id="edge9" class="edge">
<title>Node7&#45;&gt;Node9</title>
<path fill="none" stroke="#63b8ff" d="M500.31,-177.83C535.54,-167.2 586.73,-151.74 624.04,-140.48"/>
<polygon fill="#63b8ff" stroke="#63b8ff" points="499.49,-174.42 490.93,-180.66 501.51,-181.12 499.49,-174.42"/>
</g>
<!-- Node7&#45;&gt;Node10 -->
<g id="edge11" class="edge">
<title>Node7&#45;&gt;Node10</title>
<path fill="none" stroke="#63b8ff" d="M428.6,-176.6C399.17,-164.04 356.01,-145.63 330.68,-134.82"/>
<polygon fill="#63b8ff" stroke="#63b8ff" points="427.18,-179.8 437.75,-180.51 429.93,-173.36 427.18,-179.8"/>
</g>
<!-- Node12 -->
<g id="node12" class="node">
<title>Node12</title>
<g id="a_node12"><a xlink:href="Provision__Callback_8h.html" target="_top" xlink:title=" ">
<polygon fill="white" stroke="#666666" points="522,-134.5 398,-134.5 398,-115.5 522,-115.5 522,-134.5"/>
<text text-anchor="middle" x="460" y="-122.5" font-family="Helvetica,sans-Serif" font-size="10.00">src/Provision_Callback.h</text>
</a>
</g>
</g>
<!-- Node7&#45;&gt;Node12 -->
<g id="edge14" class="edge">
<title>Node7&#45;&gt;Node12</title>
<path fill="none" stroke="#63b8ff" d="M460,-169.68C460,-157.94 460,-143.77 460,-134.82"/>
<polygon fill="#63b8ff" stroke="#63b8ff" points="456.5,-169.59 460,-179.59 463.5,-169.59 456.5,-169.59"/>
</g>
<!-- Node15 -->
<g id="node15" class="node">
<title>Node15</title>
<g id="a_node15"><a xlink:href="RPC__Request__Callback_8h.html" target="_top" xlink:title=" ">
<polygon fill="white" stroke="#666666" points="929.5,-134.5 784.5,-134.5 784.5,-115.5 929.5,-115.5 929.5,-134.5"/>
<text text-anchor="middle" x="857" y="-122.5" font-family="Helvetica,sans-Serif" font-size="10.00">src/RPC_Request_Callback.h</text>
</a>
</g>
</g>
<!-- Node7&#45;&gt;Node15 -->
<g id="edge17" class="edge">
<title>Node7&#45;&gt;Node15</title>
<path fill="none" stroke="#63b8ff" d="M519.65,-179C525.51,-177.97 531.37,-176.95 537,-176 627.23,-160.75 732.07,-144.68 796.47,-135"/>
<polygon fill="#63b8ff" stroke="#63b8ff" points="519.16,-175.54 509.93,-180.74 520.39,-182.43 519.16,-175.54"/>
</g>
<!-- Node18 -->
<g id="node18" class="node">
<title>Node18</title>
<g id="a_node18"><a xlink:href="Timeoutable__Request_8cpp.html" target="_top" xlink:title=" ">
<polygon fill="white" stroke="#666666" points="222,-134.5 76,-134.5 76,-115.5 222,-115.5 222,-134.5"/>
<text text-anchor="middle" x="149" y="-122.5" font-family="Helvetica,sans-Serif" font-size="10.00">src/Timeoutable_Request.cpp</text>
</a>
</g>
</g>
<!-- Node7&#45;&gt;Node18 -->
<g id="edge20" class="edge">
<title>Node7&#45;&gt;Node18</title>
<path fill="none" stroke="#63b8ff" d="M405.18,-178.72C344.57,-166.25 248.18,-146.41 192.53,-134.96"/>
<polygon fill="#63b8ff" stroke="#63b8ff" points="404.45,-182.14 414.95,-180.73 405.86,-175.28 404.45,-182.14"/>
</g>
<!-- Node8&#45;&gt;Node6 -->
<g id="edge8" class="edge">
<title>Node8&#45;&gt;Node6</title>
<path fill="none" stroke="#63b8ff" d="M645.17,-51.62C681.39,-41.87 731.88,-28.29 764.75,-19.45"/>
<polygon fill="#63b8ff" stroke="#63b8ff" points="644.63,-48.14 635.88,-54.12 646.45,-54.9 644.63,-48.14"/>
</g>
<!-- Node9&#45;&gt;Node8 -->
<g id="edge10" class="edge">
<title>Node9&#45;&gt;Node8</title>
<path fill="none" stroke="#63b8ff" d="M645.76,-102.38C633.89,-92.6 620.54,-81.6 611.53,-74.18"/>
<polygon fill="#63b8ff" stroke="#63b8ff" points="643.34,-104.92 653.28,-108.58 647.79,-99.52 643.34,-104.92"/>
</g>
<!-- Node10&#45;&gt;Node5 -->
<g id="edge12" class="edge">
<title>Node10&#45;&gt;Node5</title>
<path fill="none" stroke="#63b8ff" d="M259.12,-112.55C209.53,-101.39 135.16,-84.66 89.77,-74.45"/>
<polygon fill="#63b8ff" stroke="#63b8ff" points="258.23,-115.94 268.75,-114.72 259.76,-109.11 258.23,-115.94"/>
</g>
<!-- Node11 -->
<g id="node11" class="node">
<title>Node11</title>
<g id="a_node11"><a xlink:href="OTA__Update__Callback_8cpp.html" target="_top" xlink:title=" ">
<polygon fill="white" stroke="#666666" points="271.5,-74 120.5,-74 120.5,-55 271.5,-55 271.5,-74"/>
<text text-anchor="middle" x="196" y="-62" font-family="Helvetica,sans-Serif" font-size="10.00">src/OTA_Update_Callback.cpp</text>
</a>
</g>
</g>
<!-- Node10&#45;&gt;Node11 -->
<g id="edge13" class="edge">
<title>Node10&#45;&gt;Node11</title>
<path fill="none" stroke="#63b8ff" d="M282.55,-109.92C261.08,-98.9 231.87,-83.91 213.48,-74.47"/>
<polygon fill="#63b8ff" stroke="#63b8ff" points="280.84,-112.97 291.34,-114.42 284.04,-106.74 280.84,-112.97"/>
</g>
<!-- Node13 -->
<g id="node13" class="node">
<title>Node13</title>
<g id="a_node13"><a xlink:href="Provision_8h.html" target="_top" xlink:title=" ">
<polygon fill="white" stroke="#666666" points="523.5,-74 442.5,-74 442.5,-55 523.5,-55 523.5,-74"/>
<text text-anchor="middle" x="483" y="-62" font-family="Helvetica,sans-Serif" font-size="10.00">src/Provision.h</text>
</a>
</g>
</g>
<!-- Node12&#45;&gt;Node13 -->
<g id="edge15" class="edge">
<title>Node12&#45;&gt;Node13</title>
<path fill="none" stroke="#63b8ff" d="M467.54,-104.83C471.61,-94.48 476.43,-82.22 479.59,-74.17"/>
<polygon fill="#63b8ff" stroke="#63b8ff" points="464.35,-103.37 463.95,-113.96 470.86,-105.93 464.35,-103.37"/>
</g>
<!-- Node14 -->
<g id="node14" class="node">
<title>Node14</title>
<g id="a_node14"><a xlink:href="Provision__Callback_8cpp.html" target="_top" xlink:title=" ">
<polygon fill="white" stroke="#666666" points="424,-74 290,-74 290,-55 424,-55 424,-74"/>
<text text-anchor="middle" x="357" y="-62" font-family="Helvetica,sans-Serif" font-size="10.00">src/Provision_Callback.cpp</text>
</a>
</g>
</g>
<!-- Node12&#45;&gt;Node14 -->
<g id="edge16" class="edge">
<title>Node12&#45;&gt;Node14</title>
<path fill="none" stroke="#63b8ff" d="M434.4,-109.46C415.08,-98.49 389.18,-83.78 372.79,-74.47"/>
<polygon fill="#63b8ff" stroke="#63b8ff" points="432.62,-112.47 443.04,-114.37 436.07,-106.39 432.62,-112.47"/>
</g>
<!-- Node16 -->
<g id="node16" class="node">
<title>Node16</title>
<g id="a_node16"><a xlink:href="Client__Side__RPC_8h.html" target="_top" xlink:title=" ">
<polygon fill="white" stroke="#666666" points="968,-74 852,-74 852,-55 968,-55 968,-74"/>
<text text-anchor="middle" x="910" y="-62" font-family="Helvetica,sans-Serif" font-size="10.00">src/Client_Side_RPC.h</text>
</a>
</g>
</g>
<!-- Node15&#45;&gt;Node16 -->
<g id="edge18" class="edge">
<title>Node15&#45;&gt;Node16</title>
<path fill="none" stroke="#63b8ff" d="M872.29,-107.13C882.05,-96.35 894.31,-82.82 902.15,-74.17"/>
<polygon fill="#63b8ff" stroke="#63b8ff" points="869.96,-104.49 865.84,-114.25 875.14,-109.19 869.96,-104.49"/>
</g>
<!-- Node17 -->
<g id="node17" class="node">
<title>Node17</title>
<g id="a_node17"><a xlink:href="RPC__Request__Callback_8cpp.html" target="_top" xlink:title=" ">
<polygon fill="white" stroke="#666666" points="833.5,-74 678.5,-74 678.5,-55 833.5,-55 833.5,-74"/>
<text text-anchor="middle" x="756" y="-62" font-family="Helvetica,sans-Serif" font-size="10.00">src/RPC_Request_Callback.cpp</text>
</a>
</g>
</g>
<!-- Node15&#45;&gt;Node17 -->
<g id="edge19" class="edge">
<title>Node15&#45;&gt;Node17</title>
<path fill="none" stroke="#63b8ff" d="M831.9,-109.46C812.95,-98.49 787.56,-83.78 771.48,-74.47"/>
<polygon fill="#63b8ff" stroke="#63b8ff" points="829.94,-112.37 840.35,-114.36 833.45,-106.32 829.94,-112.37"/>
</g>
<!-- Node19&#45;&gt;Node6 -->
<g id="edge24" class="edge">
<title>Node19&#45;&gt;Node6</title>
<path fill="none" stroke="#63b8ff" d="M856.66,-242.93C876.39,-234.67 899.92,-222.42 917,-206 969.05,-155.95 1021.48,-111.89 977,-55 963.54,-37.78 913.54,-26.27 869.8,-19.28"/>
<polygon fill="#63b8ff" stroke="#63b8ff" points="855.56,-239.6 847.57,-246.55 858.15,-246.1 855.56,-239.6"/>
</g>
<!-- Node19&#45;&gt;Node8 -->
<g id="edge22" class="edge">
<title>Node19&#45;&gt;Node8</title>
<path fill="none" stroke="#63b8ff" d="M813.23,-236.61C802.98,-205.44 778.65,-144.21 737,-110 714.73,-91.71 684.72,-80.86 658.55,-74.46"/>
<polygon fill="#63b8ff" stroke="#63b8ff" points="809.8,-237.36 816.13,-245.86 816.48,-235.27 809.8,-237.36"/>
</g>
<!-- Node19&#45;&gt;Node13 -->
<g id="edge25" class="edge">
<title>Node19&#45;&gt;Node13</title>
<path fill="none" stroke="#63b8ff" d="M793.17,-241.7C764.19,-225.67 715.76,-198.91 674,-176 644.71,-159.93 637.02,-156.56 608,-140 567.62,-116.97 520.71,-88.56 497.52,-74.4"/>
<polygon fill="#63b8ff" stroke="#63b8ff" points="791.15,-244.58 801.6,-246.36 794.54,-238.46 791.15,-244.58"/>
</g>
<!-- Node19&#45;&gt;Node16 -->
<g id="edge23" class="edge">
<title>Node19&#45;&gt;Node16</title>
<path fill="none" stroke="#63b8ff" d="M843.58,-241.16C872.69,-221.99 919.67,-185.58 939,-140 948.97,-116.49 929.63,-88.29 917.96,-74.29"/>
<polygon fill="#63b8ff" stroke="#63b8ff" points="841.92,-238.07 835.38,-246.4 845.69,-243.97 841.92,-238.07"/>
</g>
<!-- Node20 -->
<g id="node20" class="node">
<title>Node20</title>
<g id="a_node20"><a xlink:href="Server__Side__RPC_8h.html" target="_top" xlink:title=" ">
<polygon fill="white" stroke="#666666" points="664.5,-200.5 545.5,-200.5 545.5,-181.5 664.5,-181.5 664.5,-200.5"/>
<text text-anchor="middle" x="605" y="-188.5" font-family="Helvetica,sans-Serif" font-size="10.00">src/Server_Side_RPC.h</text>
</a>
</g>
</g>
<!-- Node19&#45;&gt;Node20 -->
<g id="edge26" class="edge">
<title>Node19&#45;&gt;Node20</title>
<path fill="none" stroke="#63b8ff" d="M778.33,-243.84C736.47,-231.32 672.24,-212.11 634.85,-200.93"/>
<polygon fill="#63b8ff" stroke="#63b8ff" points="777.21,-247.16 787.79,-246.67 779.22,-240.45 777.21,-247.16"/>
</g>
<!-- Node21 -->
<g id="node21" class="node">
<title>Node21</title>
<g id="a_node21"><a xlink:href="Shared__Attribute__Update_8h.html" target="_top" xlink:title=" ">
<polygon fill="white" stroke="#666666" points="1087,-206 981,-206 981,-176 1087,-176 1087,-206"/>
<text text-anchor="start" x="989" y="-194" font-family="Helvetica,sans-Serif" font-size="10.00">src/Shared_Attribute</text>
<text text-anchor="middle" x="1034" y="-183" font-family="Helvetica,sans-Serif" font-size="10.00">_Update.h</text>
</a>
</g>
</g>
<!-- Node19&#45;&gt;Node21 -->
<g id="edge27" class="edge">
<title>Node19&#45;&gt;Node21</title>
<path fill="none" stroke="#63b8ff" d="M859.88,-243.83C895.6,-233.2 947.52,-217.74 985.36,-206.48"/>
<polygon fill="#63b8ff" stroke="#63b8ff" points="858.93,-240.46 850.35,-246.67 860.93,-247.17 858.93,-240.46"/>
</g>
<!-- Node22 -->
<g id="node22" class="node">
<title>Node22</title>
<g id="a_node22"><a xlink:href="ThingsBoard_8h.html" target="_top" xlink:title=" ">
<polygon fill="white" stroke="#666666" points="1200.5,-200.5 1105.5,-200.5 1105.5,-181.5 1200.5,-181.5 1200.5,-200.5"/>
<text text-anchor="middle" x="1153" y="-188.5" font-family="Helvetica,sans-Serif" font-size="10.00">src/ThingsBoard.h</text>
</a>
</g>
</g>
<!-- Node19&#45;&gt;Node22 -->
<g id="edge29" class="edge">
<title>Node19&#45;&gt;Node22</title>
<path fill="none" stroke="#63b8ff" d="M877.79,-244.98C883.27,-243.97 888.74,-242.96 894,-242 983.71,-225.63 1006.78,-224.89 1096,-206 1103.18,-204.48 1110.83,-202.71 1118.11,-200.95"/>
<polygon fill="#63b8ff" stroke="#63b8ff" points="877.28,-241.51 868.09,-246.78 878.56,-248.4 877.28,-241.51"/>
</g>
<!-- Node21&#45;&gt;Node6 -->
<g id="edge28" class="edge">
<title>Node21&#45;&gt;Node6</title>
<path fill="none" stroke="#63b8ff" d="M1037.21,-164.64C1039.52,-134.35 1038.25,-84.14 1010,-55 990.73,-35.12 923.49,-23.39 869.83,-17.01"/>
<polygon fill="#63b8ff" stroke="#63b8ff" points="1033.75,-164.12 1036.26,-174.41 1040.71,-164.79 1033.75,-164.12"/>
</g>
<!-- Node23&#45;&gt;Node22 -->
<g id="edge31" class="edge">
<title>Node23&#45;&gt;Node22</title>
<path fill="none" stroke="#63b8ff" d="M1097.12,-239.69C1111.6,-227.33 1130.94,-210.82 1142.66,-200.82"/>
<polygon fill="#63b8ff" stroke="#63b8ff" points="1094.91,-236.96 1089.58,-246.12 1099.46,-242.29 1094.91,-236.96"/>
</g>
<!-- Node24&#45;&gt;Node20 -->
<g id="edge34" class="edge">
<title>Node24&#45;&gt;Node20</title>
<path fill="none" stroke="#63b8ff" d="M634.17,-237.53C626.44,-225.46 616.69,-210.25 610.65,-200.82"/>
<polygon fill="#63b8ff" stroke="#63b8ff" points="631.14,-239.29 639.48,-245.83 637.04,-235.52 631.14,-239.29"/>
</g>
<!-- Node25&#45;&gt;Node21 -->
<g id="edge36" class="edge">
<title>Node25&#45;&gt;Node21</title>
<path fill="none" stroke="#63b8ff" d="M981.96,-234.7C993.3,-225.4 1006.3,-214.73 1016.47,-206.39"/>
<polygon fill="#63b8ff" stroke="#63b8ff" points="979.99,-231.79 974.48,-240.84 984.43,-237.2 979.99,-231.79"/>
</g>
<!-- Node26&#45;&gt;Node19 -->
<g id="edge38" class="edge">
<title>Node26&#45;&gt;Node19</title>
<path fill="none" stroke="#63b8ff" d="M1060.47,-305.4C1003.65,-294.25 917.16,-277.27 864.58,-266.95"/>
<polygon fill="#63b8ff" stroke="#63b8ff" points="1059.44,-308.77 1069.93,-307.26 1060.79,-301.9 1059.44,-308.77"/>
</g>
<!-- Node26&#45;&gt;Node22 -->
<g id="edge43" class="edge">
<title>Node26&#45;&gt;Node22</title>
<path fill="none" stroke="#63b8ff" d="M1127.29,-297.48C1131.12,-289.75 1135.21,-280.63 1138,-272 1146.18,-246.73 1150.44,-215.43 1152.12,-200.59"/>
<polygon fill="#63b8ff" stroke="#63b8ff" points="1124.25,-295.74 1122.75,-306.23 1130.46,-298.97 1124.25,-295.74"/>
</g>
<!-- Node26&#45;&gt;Node23 -->
<g id="edge39" class="edge">
<title>Node26&#45;&gt;Node23</title>
<path fill="none" stroke="#63b8ff" d="M1104.88,-298.32C1097.85,-287.78 1089.32,-274.98 1083.78,-266.67"/>
<polygon fill="#63b8ff" stroke="#63b8ff" points="1101.95,-300.23 1110.41,-306.61 1107.77,-296.35 1101.95,-300.23"/>
</g>
<!-- Node27 -->
<g id="node27" class="node">
<title>Node27</title>
<g id="a_node27"><a xlink:href="IUpdater_8h.html" target="_top" xlink:title=" ">
<polygon fill="white" stroke="#666666" points="1263,-266.5 1185,-266.5 1185,-247.5 1263,-247.5 1263,-266.5"/>
<text text-anchor="middle" x="1224" y="-254.5" font-family="Helvetica,sans-Serif" font-size="10.00">src/IUpdater.h</text>
</a>
</g>
</g>
<!-- Node26&#45;&gt;Node27 -->
<g id="edge40" class="edge">
<title>Node26&#45;&gt;Node27</title>
<path fill="none" stroke="#63b8ff" d="M1143.31,-302.11C1163.42,-291.12 1190.49,-276.32 1207.6,-266.97"/>
<polygon fill="#63b8ff" stroke="#63b8ff" points="1141.67,-299.02 1134.58,-306.89 1145.03,-305.16 1141.67,-299.02"/>
</g>
<!-- Node26&#45;&gt;Node29 -->
<g id="edge44" class="edge">
<title>Node26&#45;&gt;Node29</title>
<path fill="none" stroke="#63b8ff" d="M1161.61,-304.69C1203.71,-293.55 1265.94,-277.08 1304.12,-266.97"/>
<polygon fill="#63b8ff" stroke="#63b8ff" points="1160.8,-301.29 1152.03,-307.23 1162.59,-308.05 1160.8,-301.29"/>
</g>
<!-- Node27&#45;&gt;Node10 -->
<g id="edge41" class="edge">
<title>Node27&#45;&gt;Node10</title>
<path fill="none" stroke="#63b8ff" d="M1226.81,-235.85C1228.13,-217.32 1226.61,-190.59 1210,-176 1175.7,-145.87 434.38,-144.99 389,-140 377.79,-138.77 365.76,-136.91 354.56,-134.95"/>
<polygon fill="#63b8ff" stroke="#63b8ff" points="1223.35,-235.29 1225.75,-245.61 1230.3,-236.04 1223.35,-235.29"/>
</g>
<!-- Node28 -->
<g id="node28" class="node">
<title>Node28</title>
<g id="a_node28"><a xlink:href="SDCard__Updater_8h.html" target="_top" xlink:title=" ">
<polygon fill="white" stroke="#666666" points="1371,-200.5 1257,-200.5 1257,-181.5 1371,-181.5 1371,-200.5"/>
<text text-anchor="middle" x="1314" y="-188.5" font-family="Helvetica,sans-Serif" font-size="10.00">src/SDCard_Updater.h</text>
</a>
</g>
</g>
<!-- Node27&#45;&gt;Node28 -->
<g id="edge42" class="edge">
<title>Node27&#45;&gt;Node28</title>
<path fill="none" stroke="#63b8ff" d="M1245.46,-240.74C1262.98,-228.28 1287.13,-211.11 1301.59,-200.82"/>
<polygon fill="#63b8ff" stroke="#63b8ff" points="1243.87,-237.58 1237.75,-246.22 1247.93,-243.28 1243.87,-237.58"/>
</g>
</g>
</svg>
