<?xml version="1.0" encoding="UTF-8" standalone="no"?>
<!DOCTYPE svg PUBLIC "-//W3C//DTD SVG 1.1//EN"
 "http://www.w3.org/Graphics/SVG/1.1/DTD/svg11.dtd">
<!-- Generated by graphviz version 7.0.5 (20221223.1930)
 -->
<!-- Title: src/Helper.h Pages: 1 -->
<!--zoomable 379 -->
<svg id="main" version="1.1" xmlns="http://www.w3.org/2000/svg" xmlns:xlink="http://www.w3.org/1999/xlink" xml:space="preserve" onload="init(evt)">
<style type="text/css"><![CDATA[
.edge:hover path { stroke: red; }
.edge:hover polygon { stroke: red; fill: red; }
]]></style>
<script type="text/javascript"><![CDATA[
var edges = document.getElementsByTagName('g');
if (edges && edges.length) {
  for (var i=0;i<edges.length;i++) {
    if (edges[i].id.substr(0,4)=='edge') {
      edges[i].setAttribute('class','edge');
    }
  }
}
]]></script>
        <defs>
                <circle id="rim" cx="0" cy="0" r="7"/>
                <circle id="rim2" cx="0" cy="0" r="3.5"/>
                <g id="zoomPlus">
                        <use xlink:href="#rim" fill="#404040">
                                <set attributeName="fill" to="#808080" begin="zoomplus.mouseover" end="zoomplus.mouseout"/>
                        </use>
                        <path d="M-4,0h8M0,-4v8" fill="none" stroke="white" stroke-width="1.5" pointer-events="none"/>
                </g>
                <g id="zoomMin">
                        <use xlink:href="#rim" fill="#404040">
                                <set attributeName="fill" to="#808080" begin="zoomminus.mouseover" end="zoomminus.mouseout"/>
                        </use>
                        <path d="M-4,0h8" fill="none" stroke="white" stroke-width="1.5" pointer-events="none"/>
                </g>
                <g id="dirArrow">
                        <path fill="none" stroke="white" stroke-width="1.5" d="M0,-3.0v7 M-2.5,-0.5L0,-3.0L2.5,-0.5"/>
                </g>
               <g id="resetDef">
                       <use xlink:href="#rim2" fill="#404040">
                               <set attributeName="fill" to="#808080" begin="reset.mouseover" end="reset.mouseout"/>
                       </use>
               </g>
        </defs>

<script type="text/javascript">
var viewWidth = 1667;
var viewHeight = 379;
var sectionId = 'dynsection-1';
</script>
<script xlink:href="svgpan.js"/>
<svg id="graph" class="graph">
<g id="viewport">
<title>src/Helper.h</title>
<!-- Node1 -->
<g id="node1" class="node">
<title>Node1</title>
<g id="a_node1"><a xlink:title=" ">
<polygon fill="#999999" stroke="#666666" points="1265,-371 1196,-371 1196,-352 1265,-352 1265,-371"/>
<text text-anchor="middle" x="1230.5" y="-359" font-family="Helvetica,sans-Serif" font-size="10.00">src/Helper.h</text>
</a>
</g>
</g>
<!-- Node2 -->
<g id="node2" class="node">
<title>Node2</title>
<g id="a_node2"><a xlink:href="Container_8h.html" target="_top" xlink:title=" ">
<polygon fill="white" stroke="#666666" points="1022.5,-316 940.5,-316 940.5,-297 1022.5,-297 1022.5,-316"/>
<text text-anchor="middle" x="981.5" y="-304" font-family="Helvetica,sans-Serif" font-size="10.00">src/Container.h</text>
</a>
</g>
</g>
<!-- Node1&#45;&gt;Node2 -->
<g id="edge1" class="edge">
<title>Node1&#45;&gt;Node2</title>
<path fill="none" stroke="#63b8ff" d="M1184.39,-350.69C1138.06,-340.82 1067.31,-325.77 1022.78,-316.29"/>
<polygon fill="#63b8ff" stroke="#63b8ff" points="1183.63,-354.1 1194.14,-352.76 1185.08,-347.25 1183.63,-354.1"/>
</g>
<!-- Node8 -->
<g id="node8" class="node">
<title>Node8</title>
<g id="a_node8"><a xlink:href="OTA__Handler_8h.html" target="_top" xlink:title=" ">
<polygon fill="white" stroke="#666666" points="269.5,-134.5 169.5,-134.5 169.5,-115.5 269.5,-115.5 269.5,-134.5"/>
<text text-anchor="middle" x="219.5" y="-122.5" font-family="Helvetica,sans-Serif" font-size="10.00">src/OTA_Handler.h</text>
</a>
</g>
</g>
<!-- Node1&#45;&gt;Node8 -->
<g id="edge43" class="edge">
<title>Node1&#45;&gt;Node8</title>
<path fill="none" stroke="#63b8ff" d="M1184.83,-354.03C1126.14,-345.64 1021.13,-330.37 931.5,-316 646.52,-270.31 544.21,-345.41 291.5,-206 259.92,-188.58 235.04,-151.96 224.7,-134.99"/>
<polygon fill="#63b8ff" stroke="#63b8ff" points="1184.04,-357.45 1194.43,-355.4 1185.03,-350.52 1184.04,-357.45"/>
</g>
<!-- Node24 -->
<g id="node24" class="node">
<title>Node24</title>
<g id="a_node24"><a xlink:href="DefaultLogger_8h.html" target="_top" xlink:title=" ">
<polygon fill="white" stroke="#666666" points="1281,-316 1180,-316 1180,-297 1281,-297 1281,-316"/>
<text text-anchor="middle" x="1230.5" y="-304" font-family="Helvetica,sans-Serif" font-size="10.00">src/DefaultLogger.h</text>
</a>
</g>
</g>
<!-- Node1&#45;&gt;Node24 -->
<g id="edge33" class="edge">
<title>Node1&#45;&gt;Node24</title>
<path fill="none" stroke="#63b8ff" d="M1230.5,-340.35C1230.5,-332.1 1230.5,-322.97 1230.5,-316.44"/>
<polygon fill="#63b8ff" stroke="#63b8ff" points="1227,-340.23 1230.5,-350.23 1234,-340.23 1227,-340.23"/>
</g>
<!-- Node28 -->
<g id="node28" class="node">
<title>Node28</title>
<g id="a_node28"><a xlink:href="ThingsBoardHttp_8h.html" target="_top" xlink:title=" ">
<polygon fill="white" stroke="#666666" points="1658.5,-261 1544.5,-261 1544.5,-242 1658.5,-242 1658.5,-261"/>
<text text-anchor="middle" x="1601.5" y="-249" font-family="Helvetica,sans-Serif" font-size="10.00">src/ThingsBoardHttp.h</text>
</a>
</g>
</g>
<!-- Node1&#45;&gt;Node28 -->
<g id="edge44" class="edge">
<title>Node1&#45;&gt;Node28</title>
<path fill="none" stroke="#63b8ff" d="M1249.62,-344.65C1268.47,-329.89 1298.7,-308.5 1328.5,-297 1348.24,-289.38 1470.2,-271.16 1544.27,-260.55"/>
<polygon fill="#63b8ff" stroke="#63b8ff" points="1247.65,-341.74 1242.04,-350.72 1252.03,-347.2 1247.65,-341.74"/>
</g>
<!-- Node29 -->
<g id="node29" class="node">
<title>Node29</title>
<g id="a_node29"><a xlink:href="Helper_8cpp.html" target="_top" xlink:title=" ">
<polygon fill="white" stroke="#666666" points="1417.5,-316 1337.5,-316 1337.5,-297 1417.5,-297 1417.5,-316"/>
<text text-anchor="middle" x="1377.5" y="-304" font-family="Helvetica,sans-Serif" font-size="10.00">src/Helper.cpp</text>
</a>
</g>
</g>
<!-- Node1&#45;&gt;Node29 -->
<g id="edge42" class="edge">
<title>Node1&#45;&gt;Node29</title>
<path fill="none" stroke="#63b8ff" d="M1265.97,-347.71C1292.87,-338.01 1329.16,-324.93 1352.93,-316.36"/>
<polygon fill="#63b8ff" stroke="#63b8ff" points="1265.08,-344.31 1256.86,-351 1267.45,-350.9 1265.08,-344.31"/>
</g>
<!-- Node3 -->
<g id="node3" class="node">
<title>Node3</title>
<g id="a_node3"><a xlink:href="Callback_8h.html" target="_top" xlink:title=" ">
<polygon fill="white" stroke="#666666" points="946.5,-261 868.5,-261 868.5,-242 946.5,-242 946.5,-261"/>
<text text-anchor="middle" x="907.5" y="-249" font-family="Helvetica,sans-Serif" font-size="10.00">src/Callback.h</text>
</a>
</g>
</g>
<!-- Node2&#45;&gt;Node3 -->
<g id="edge2" class="edge">
<title>Node2&#45;&gt;Node3</title>
<path fill="none" stroke="#63b8ff" d="M959.74,-289.92C946.75,-280.61 930.72,-269.13 919.87,-261.36"/>
<polygon fill="#63b8ff" stroke="#63b8ff" points="957.55,-292.65 967.72,-295.63 961.62,-286.96 957.55,-292.65"/>
</g>
<!-- Node4 -->
<g id="node4" class="node">
<title>Node4</title>
<g id="a_node4"><a xlink:href="Callback__Watchdog_8h.html" target="_top" xlink:title=" ">
<polygon fill="white" stroke="#666666" points="604,-200.5 477,-200.5 477,-181.5 604,-181.5 604,-200.5"/>
<text text-anchor="middle" x="540.5" y="-188.5" font-family="Helvetica,sans-Serif" font-size="10.00">src/Callback_Watchdog.h</text>
</a>
</g>
</g>
<!-- Node3&#45;&gt;Node4 -->
<g id="edge3" class="edge">
<title>Node3&#45;&gt;Node4</title>
<path fill="none" stroke="#63b8ff" d="M856.95,-242.44C788.78,-231.58 667.79,-212.29 596.8,-200.97"/>
<polygon fill="#63b8ff" stroke="#63b8ff" points="856.3,-245.88 866.73,-244 857.41,-238.97 856.3,-245.88"/>
</g>
<!-- Node15 -->
<g id="node15" class="node">
<title>Node15</title>
<g id="a_node15"><a xlink:href="IAPI__Implementation_8h.html" target="_top" xlink:title=" ">
<polygon fill="white" stroke="#666666" points="973.5,-200.5 841.5,-200.5 841.5,-181.5 973.5,-181.5 973.5,-200.5"/>
<text text-anchor="middle" x="907.5" y="-188.5" font-family="Helvetica,sans-Serif" font-size="10.00">src/IAPI_Implementation.h</text>
</a>
</g>
</g>
<!-- Node3&#45;&gt;Node15 -->
<g id="edge15" class="edge">
<title>Node3&#45;&gt;Node15</title>
<path fill="none" stroke="#63b8ff" d="M907.5,-230.66C907.5,-220.45 907.5,-208.54 907.5,-200.67"/>
<polygon fill="#63b8ff" stroke="#63b8ff" points="904,-230.35 907.5,-240.35 911,-230.35 904,-230.35"/>
</g>
<!-- Node19 -->
<g id="node19" class="node">
<title>Node19</title>
<g id="a_node19"><a xlink:href="IMQTT__Client_8h.html" target="_top" xlink:title=" ">
<polygon fill="white" stroke="#666666" points="1217,-200.5 1116,-200.5 1116,-181.5 1217,-181.5 1217,-200.5"/>
<text text-anchor="middle" x="1166.5" y="-188.5" font-family="Helvetica,sans-Serif" font-size="10.00">src/IMQTT_Client.h</text>
</a>
</g>
</g>
<!-- Node3&#45;&gt;Node19 -->
<g id="edge24" class="edge">
<title>Node3&#45;&gt;Node19</title>
<path fill="none" stroke="#63b8ff" d="M957.92,-239.36C998.16,-230.44 1055.98,-217.54 1106.5,-206 1113.59,-204.38 1121.15,-202.63 1128.42,-200.94"/>
<polygon fill="#63b8ff" stroke="#63b8ff" points="957.28,-235.92 948.27,-241.5 958.79,-242.75 957.28,-235.92"/>
</g>
<!-- Node20 -->
<g id="node20" class="node">
<title>Node20</title>
<g id="a_node20"><a xlink:href="OTA__Update__Callback_8h.html" target="_top" xlink:title=" ">
<polygon fill="white" stroke="#666666" points="440.5,-200.5 300.5,-200.5 300.5,-181.5 440.5,-181.5 440.5,-200.5"/>
<text text-anchor="middle" x="370.5" y="-188.5" font-family="Helvetica,sans-Serif" font-size="10.00">src/OTA_Update_Callback.h</text>
</a>
</g>
</g>
<!-- Node3&#45;&gt;Node20 -->
<g id="edge26" class="edge">
<title>Node3&#45;&gt;Node20</title>
<path fill="none" stroke="#63b8ff" d="M856.83,-246.08C774.88,-238.78 608.23,-223.26 467.5,-206 455.34,-204.51 442.35,-202.75 429.95,-200.99"/>
<polygon fill="#63b8ff" stroke="#63b8ff" points="856.52,-249.57 866.79,-246.97 857.14,-242.59 856.52,-249.57"/>
</g>
<!-- Node22 -->
<g id="node22" class="node">
<title>Node22</title>
<g id="a_node22"><a xlink:href="RPC__Callback_8h.html" target="_top" xlink:title=" ">
<polygon fill="white" stroke="#666666" points="823.5,-200.5 719.5,-200.5 719.5,-181.5 823.5,-181.5 823.5,-200.5"/>
<text text-anchor="middle" x="771.5" y="-188.5" font-family="Helvetica,sans-Serif" font-size="10.00">src/RPC_Callback.h</text>
</a>
</g>
</g>
<!-- Node3&#45;&gt;Node22 -->
<g id="edge29" class="edge">
<title>Node3&#45;&gt;Node22</title>
<path fill="none" stroke="#63b8ff" d="M876.5,-237.16C850.74,-226.08 814.79,-210.62 792.35,-200.97"/>
<polygon fill="#63b8ff" stroke="#63b8ff" points="874.88,-240.28 885.45,-241.02 877.65,-233.85 874.88,-240.28"/>
</g>
<!-- Node23 -->
<g id="node23" class="node">
<title>Node23</title>
<g id="a_node23"><a xlink:href="Shared__Attribute__Callback_8h.html" target="_top" xlink:title=" ">
<polygon fill="white" stroke="#666666" points="1097.5,-206 991.5,-206 991.5,-176 1097.5,-176 1097.5,-206"/>
<text text-anchor="start" x="999.5" y="-194" font-family="Helvetica,sans-Serif" font-size="10.00">src/Shared_Attribute</text>
<text text-anchor="middle" x="1044.5" y="-183" font-family="Helvetica,sans-Serif" font-size="10.00">_Callback.h</text>
</a>
</g>
</g>
<!-- Node3&#45;&gt;Node23 -->
<g id="edge31" class="edge">
<title>Node3&#45;&gt;Node23</title>
<path fill="none" stroke="#63b8ff" d="M938.82,-237.13C960.28,-227.96 988.71,-215.82 1010.68,-206.44"/>
<polygon fill="#63b8ff" stroke="#63b8ff" points="937.52,-233.87 929.7,-241.02 940.27,-240.31 937.52,-233.87"/>
</g>
<!-- Node5 -->
<g id="node5" class="node">
<title>Node5</title>
<g id="a_node5"><a xlink:href="Attribute__Request__Callback_8h.html" target="_top" xlink:title=" ">
<polygon fill="white" stroke="#666666" points="742,-140 631,-140 631,-110 742,-110 742,-140"/>
<text text-anchor="start" x="639" y="-128" font-family="Helvetica,sans-Serif" font-size="10.00">src/Attribute_Request</text>
<text text-anchor="middle" x="686.5" y="-117" font-family="Helvetica,sans-Serif" font-size="10.00">_Callback.h</text>
</a>
</g>
</g>
<!-- Node4&#45;&gt;Node5 -->
<g id="edge4" class="edge">
<title>Node4&#45;&gt;Node5</title>
<path fill="none" stroke="#63b8ff" d="M571.15,-176.57C595.25,-166 628.78,-151.3 653.47,-140.48"/>
<polygon fill="#63b8ff" stroke="#63b8ff" points="569.94,-173.27 562.19,-180.49 572.75,-179.68 569.94,-173.27"/>
</g>
<!-- Node4&#45;&gt;Node8 -->
<g id="edge7" class="edge">
<title>Node4&#45;&gt;Node8</title>
<path fill="none" stroke="#63b8ff" d="M478.86,-179.03C425.67,-169.38 346.84,-154.62 278.5,-140 271.29,-138.46 263.62,-136.71 256.27,-134.99"/>
<polygon fill="#63b8ff" stroke="#63b8ff" points="478.19,-182.47 488.65,-180.81 479.43,-175.58 478.19,-182.47"/>
</g>
<!-- Node9 -->
<g id="node9" class="node">
<title>Node9</title>
<g id="a_node9"><a xlink:href="Provision__Callback_8h.html" target="_top" xlink:title=" ">
<polygon fill="white" stroke="#666666" points="411.5,-134.5 287.5,-134.5 287.5,-115.5 411.5,-115.5 411.5,-134.5"/>
<text text-anchor="middle" x="349.5" y="-122.5" font-family="Helvetica,sans-Serif" font-size="10.00">src/Provision_Callback.h</text>
</a>
</g>
</g>
<!-- Node4&#45;&gt;Node9 -->
<g id="edge9" class="edge">
<title>Node4&#45;&gt;Node9</title>
<path fill="none" stroke="#63b8ff" d="M503.48,-177.6C466.11,-165.07 409.3,-146.04 376.14,-134.93"/>
<polygon fill="#63b8ff" stroke="#63b8ff" points="501.91,-180.76 512.51,-180.62 504.14,-174.12 501.91,-180.76"/>
</g>
<!-- Node12 -->
<g id="node12" class="node">
<title>Node12</title>
<g id="a_node12"><a xlink:href="RPC__Request__Callback_8h.html" target="_top" xlink:title=" ">
<polygon fill="white" stroke="#666666" points="613,-134.5 468,-134.5 468,-115.5 613,-115.5 613,-134.5"/>
<text text-anchor="middle" x="540.5" y="-122.5" font-family="Helvetica,sans-Serif" font-size="10.00">src/RPC_Request_Callback.h</text>
</a>
</g>
</g>
<!-- Node4&#45;&gt;Node12 -->
<g id="edge12" class="edge">
<title>Node4&#45;&gt;Node12</title>
<path fill="none" stroke="#63b8ff" d="M540.5,-169.68C540.5,-157.94 540.5,-143.77 540.5,-134.82"/>
<polygon fill="#63b8ff" stroke="#63b8ff" points="537,-169.59 540.5,-179.59 544,-169.59 537,-169.59"/>
</g>
<!-- Node6 -->
<g id="node6" class="node">
<title>Node6</title>
<g id="a_node6"><a xlink:href="Attribute__Request_8h.html" target="_top" xlink:title=" ">
<polygon fill="white" stroke="#666666" points="955,-74 836,-74 836,-55 955,-55 955,-74"/>
<text text-anchor="middle" x="895.5" y="-62" font-family="Helvetica,sans-Serif" font-size="10.00">src/Attribute_Request.h</text>
</a>
</g>
</g>
<!-- Node5&#45;&gt;Node6 -->
<g id="edge5" class="edge">
<title>Node5&#45;&gt;Node6</title>
<path fill="none" stroke="#63b8ff" d="M749.06,-106.49C786.78,-95.93 833.25,-82.92 863.59,-74.43"/>
<polygon fill="#63b8ff" stroke="#63b8ff" points="748.31,-103.07 739.62,-109.13 750.19,-109.81 748.31,-103.07"/>
</g>
<!-- Node7 -->
<g id="node7" class="node">
<title>Node7</title>
<g id="a_node7"><a xlink:href="OTA__Firmware__Update_8h.html" target="_top" xlink:title=" ">
<polygon fill="white" stroke="#666666" points="1011,-19 868,-19 868,0 1011,0 1011,-19"/>
<text text-anchor="middle" x="939.5" y="-7" font-family="Helvetica,sans-Serif" font-size="10.00">src/OTA_Firmware_Update.h</text>
</a>
</g>
</g>
<!-- Node6&#45;&gt;Node7 -->
<g id="edge6" class="edge">
<title>Node6&#45;&gt;Node7</title>
<path fill="none" stroke="#63b8ff" d="M910.08,-45.93C917.45,-37.06 926.08,-26.67 932.08,-19.44"/>
<polygon fill="#63b8ff" stroke="#63b8ff" points="907.43,-43.65 903.73,-53.58 912.81,-48.13 907.43,-43.65"/>
</g>
<!-- Node8&#45;&gt;Node7 -->
<g id="edge8" class="edge">
<title>Node8&#45;&gt;Node7</title>
<path fill="none" stroke="#63b8ff" d="M219.17,-103.83C220.09,-87.95 224.2,-66.63 238.5,-55 286.49,-15.98 698.66,-10.86 867.66,-10.41"/>
<polygon fill="#63b8ff" stroke="#63b8ff" points="215.67,-103.53 219,-113.59 222.67,-103.65 215.67,-103.53"/>
</g>
<!-- Node10 -->
<g id="node10" class="node">
<title>Node10</title>
<g id="a_node10"><a xlink:href="Provision_8h.html" target="_top" xlink:title=" ">
<polygon fill="white" stroke="#666666" points="481,-74 400,-74 400,-55 481,-55 481,-74"/>
<text text-anchor="middle" x="440.5" y="-62" font-family="Helvetica,sans-Serif" font-size="10.00">src/Provision.h</text>
</a>
</g>
</g>
<!-- Node9&#45;&gt;Node10 -->
<g id="edge10" class="edge">
<title>Node9&#45;&gt;Node10</title>
<path fill="none" stroke="#63b8ff" d="M372.59,-109.16C389.61,-98.22 412.2,-83.69 426.55,-74.47"/>
<polygon fill="#63b8ff" stroke="#63b8ff" points="371.11,-105.94 364.59,-114.3 374.9,-111.83 371.11,-105.94"/>
</g>
<!-- Node11 -->
<g id="node11" class="node">
<title>Node11</title>
<g id="a_node11"><a xlink:href="Provision__Callback_8cpp.html" target="_top" xlink:title=" ">
<polygon fill="white" stroke="#666666" points="381.5,-74 247.5,-74 247.5,-55 381.5,-55 381.5,-74"/>
<text text-anchor="middle" x="314.5" y="-62" font-family="Helvetica,sans-Serif" font-size="10.00">src/Provision_Callback.cpp</text>
</a>
</g>
</g>
<!-- Node9&#45;&gt;Node11 -->
<g id="edge11" class="edge">
<title>Node9&#45;&gt;Node11</title>
<path fill="none" stroke="#63b8ff" d="M338.43,-105.49C332.16,-95.01 324.6,-82.39 319.69,-74.17"/>
<polygon fill="#63b8ff" stroke="#63b8ff" points="335.42,-107.28 343.56,-114.07 341.43,-103.69 335.42,-107.28"/>
</g>
<!-- Node13 -->
<g id="node13" class="node">
<title>Node13</title>
<g id="a_node13"><a xlink:href="Client__Side__RPC_8h.html" target="_top" xlink:title=" ">
<polygon fill="white" stroke="#666666" points="803.5,-74 687.5,-74 687.5,-55 803.5,-55 803.5,-74"/>
<text text-anchor="middle" x="745.5" y="-62" font-family="Helvetica,sans-Serif" font-size="10.00">src/Client_Side_RPC.h</text>
</a>
</g>
</g>
<!-- Node12&#45;&gt;Node13 -->
<g id="edge13" class="edge">
<title>Node12&#45;&gt;Node13</title>
<path fill="none" stroke="#63b8ff" d="M582.63,-111.98C621.67,-100.84 678.88,-84.51 714.07,-74.47"/>
<polygon fill="#63b8ff" stroke="#63b8ff" points="581.75,-108.59 573.09,-114.7 583.67,-115.32 581.75,-108.59"/>
</g>
<!-- Node14 -->
<g id="node14" class="node">
<title>Node14</title>
<g id="a_node14"><a xlink:href="RPC__Request__Callback_8cpp.html" target="_top" xlink:title=" ">
<polygon fill="white" stroke="#666666" points="654,-74 499,-74 499,-55 654,-55 654,-74"/>
<text text-anchor="middle" x="576.5" y="-62" font-family="Helvetica,sans-Serif" font-size="10.00">src/RPC_Request_Callback.cpp</text>
</a>
</g>
</g>
<!-- Node12&#45;&gt;Node14 -->
<g id="edge14" class="edge">
<title>Node12&#45;&gt;Node14</title>
<path fill="none" stroke="#63b8ff" d="M551.69,-105.82C558.18,-95.28 566.05,-82.48 571.17,-74.17"/>
<polygon fill="#63b8ff" stroke="#63b8ff" points="548.87,-103.73 546.61,-114.08 554.83,-107.4 548.87,-103.73"/>
</g>
<!-- Node15&#45;&gt;Node6 -->
<g id="edge16" class="edge">
<title>Node15&#45;&gt;Node6</title>
<path fill="none" stroke="#63b8ff" d="M915.59,-170.6C921.3,-154.27 927.01,-130.37 921.5,-110 917.85,-96.53 909,-82.95 902.63,-74.4"/>
<polygon fill="#63b8ff" stroke="#63b8ff" points="912.46,-169 912.15,-179.59 919,-171.51 912.46,-169"/>
</g>
<!-- Node15&#45;&gt;Node7 -->
<g id="edge18" class="edge">
<title>Node15&#45;&gt;Node7</title>
<path fill="none" stroke="#63b8ff" d="M919.99,-171.89C934.23,-149.93 956.44,-111.2 963.5,-74 965.08,-65.7 965.57,-63.19 963.5,-55 960.15,-41.72 951.97,-28.1 946.09,-19.49"/>
<polygon fill="#63b8ff" stroke="#63b8ff" points="917.22,-169.73 914.58,-179.99 923.05,-173.62 917.22,-169.73"/>
</g>
<!-- Node15&#45;&gt;Node10 -->
<g id="edge19" class="edge">
<title>Node15&#45;&gt;Node10</title>
<path fill="none" stroke="#63b8ff" d="M852.17,-179.1C845.56,-177.97 838.89,-176.9 832.5,-176 749.82,-164.33 521.56,-194.73 458.5,-140 439.41,-123.43 438.74,-90.42 439.67,-74.5"/>
<polygon fill="#63b8ff" stroke="#63b8ff" points="851.24,-182.49 861.7,-180.79 852.46,-175.6 851.24,-182.49"/>
</g>
<!-- Node15&#45;&gt;Node13 -->
<g id="edge17" class="edge">
<title>Node15&#45;&gt;Node13</title>
<path fill="none" stroke="#63b8ff" d="M907.72,-169.83C906.82,-151.9 902.67,-126.09 887.5,-110 865.88,-87.07 832.61,-75.89 803.71,-70.46"/>
<polygon fill="#63b8ff" stroke="#63b8ff" points="904.22,-169.8 907.89,-179.74 911.22,-169.68 904.22,-169.8"/>
</g>
<!-- Node16 -->
<g id="node16" class="node">
<title>Node16</title>
<g id="a_node16"><a xlink:href="Server__Side__RPC_8h.html" target="_top" xlink:title=" ">
<polygon fill="white" stroke="#666666" points="879,-134.5 760,-134.5 760,-115.5 879,-115.5 879,-134.5"/>
<text text-anchor="middle" x="819.5" y="-122.5" font-family="Helvetica,sans-Serif" font-size="10.00">src/Server_Side_RPC.h</text>
</a>
</g>
</g>
<!-- Node15&#45;&gt;Node16 -->
<g id="edge20" class="edge">
<title>Node15&#45;&gt;Node16</title>
<path fill="none" stroke="#63b8ff" d="M886.04,-174.39C868.95,-161.96 845.64,-145.01 831.63,-134.82"/>
<polygon fill="#63b8ff" stroke="#63b8ff" points="883.89,-177.16 894.04,-180.21 888.01,-171.5 883.89,-177.16"/>
</g>
<!-- Node17 -->
<g id="node17" class="node">
<title>Node17</title>
<g id="a_node17"><a xlink:href="Shared__Attribute__Update_8h.html" target="_top" xlink:title=" ">
<polygon fill="white" stroke="#666666" points="1117.5,-140 1011.5,-140 1011.5,-110 1117.5,-110 1117.5,-140"/>
<text text-anchor="start" x="1019.5" y="-128" font-family="Helvetica,sans-Serif" font-size="10.00">src/Shared_Attribute</text>
<text text-anchor="middle" x="1064.5" y="-117" font-family="Helvetica,sans-Serif" font-size="10.00">_Update.h</text>
</a>
</g>
</g>
<!-- Node15&#45;&gt;Node17 -->
<g id="edge21" class="edge">
<title>Node15&#45;&gt;Node17</title>
<path fill="none" stroke="#63b8ff" d="M939.76,-176.85C965.73,-166.26 1002.19,-151.4 1028.98,-140.48"/>
<polygon fill="#63b8ff" stroke="#63b8ff" points="938.67,-173.51 930.73,-180.53 941.31,-180 938.67,-173.51"/>
</g>
<!-- Node18 -->
<g id="node18" class="node">
<title>Node18</title>
<g id="a_node18"><a xlink:href="ThingsBoard_8h.html" target="_top" xlink:title=" ">
<polygon fill="white" stroke="#666666" points="1231,-134.5 1136,-134.5 1136,-115.5 1231,-115.5 1231,-134.5"/>
<text text-anchor="middle" x="1183.5" y="-122.5" font-family="Helvetica,sans-Serif" font-size="10.00">src/ThingsBoard.h</text>
</a>
</g>
</g>
<!-- Node15&#45;&gt;Node18 -->
<g id="edge23" class="edge">
<title>Node15&#45;&gt;Node18</title>
<path fill="none" stroke="#63b8ff" d="M958.6,-178.58C1003.02,-168.6 1069.07,-153.61 1126.5,-140 1133.24,-138.4 1140.42,-136.67 1147.34,-134.98"/>
<polygon fill="#63b8ff" stroke="#63b8ff" points="957.98,-175.14 948.98,-180.74 959.51,-181.97 957.98,-175.14"/>
</g>
<!-- Node17&#45;&gt;Node7 -->
<g id="edge22" class="edge">
<title>Node17&#45;&gt;Node7</title>
<path fill="none" stroke="#63b8ff" d="M1043.94,-101.19C1031.07,-87.34 1013.87,-69.57 997.5,-55 982.52,-41.67 963.94,-27.84 951.91,-19.21"/>
<polygon fill="#63b8ff" stroke="#63b8ff" points="1041.35,-103.55 1050.7,-108.55 1046.51,-98.82 1041.35,-103.55"/>
</g>
<!-- Node19&#45;&gt;Node18 -->
<g id="edge25" class="edge">
<title>Node19&#45;&gt;Node18</title>
<path fill="none" stroke="#63b8ff" d="M1171.8,-170.05C1174.94,-158.24 1178.75,-143.87 1181.16,-134.82"/>
<polygon fill="#63b8ff" stroke="#63b8ff" points="1168.44,-169.07 1169.25,-179.64 1175.2,-170.87 1168.44,-169.07"/>
</g>
<!-- Node20&#45;&gt;Node8 -->
<g id="edge27" class="edge">
<title>Node20&#45;&gt;Node8</title>
<path fill="none" stroke="#63b8ff" d="M339.28,-176.77C309.64,-164.21 265.93,-145.68 240.32,-134.82"/>
<polygon fill="#63b8ff" stroke="#63b8ff" points="337.54,-179.83 348.11,-180.51 340.27,-173.39 337.54,-179.83"/>
</g>
<!-- Node21 -->
<g id="node21" class="node">
<title>Node21</title>
<g id="a_node21"><a xlink:href="OTA__Update__Callback_8cpp.html" target="_top" xlink:title=" ">
<polygon fill="white" stroke="#666666" points="151,-134.5 0,-134.5 0,-115.5 151,-115.5 151,-134.5"/>
<text text-anchor="middle" x="75.5" y="-122.5" font-family="Helvetica,sans-Serif" font-size="10.00">src/OTA_Update_Callback.cpp</text>
</a>
</g>
</g>
<!-- Node20&#45;&gt;Node21 -->
<g id="edge28" class="edge">
<title>Node20&#45;&gt;Node21</title>
<path fill="none" stroke="#63b8ff" d="M318.12,-178.64C260.53,-166.14 169.19,-146.33 116.55,-134.91"/>
<polygon fill="#63b8ff" stroke="#63b8ff" points="317.18,-182.01 327.69,-180.71 318.66,-175.17 317.18,-182.01"/>
</g>
<!-- Node22&#45;&gt;Node16 -->
<g id="edge30" class="edge">
<title>Node22&#45;&gt;Node16</title>
<path fill="none" stroke="#63b8ff" d="M785.08,-171.9C794.17,-159.77 805.74,-144.34 812.88,-134.82"/>
<polygon fill="#63b8ff" stroke="#63b8ff" points="782.28,-169.79 779.08,-179.89 787.88,-173.99 782.28,-169.79"/>
</g>
<!-- Node23&#45;&gt;Node17 -->
<g id="edge32" class="edge">
<title>Node23&#45;&gt;Node17</title>
<path fill="none" stroke="#63b8ff" d="M1052.32,-164.97C1054.95,-156.55 1057.8,-147.45 1060.07,-140.16"/>
<polygon fill="#63b8ff" stroke="#63b8ff" points="1049.03,-163.76 1049.39,-174.35 1055.71,-165.85 1049.03,-163.76"/>
</g>
<!-- Node24&#45;&gt;Node15 -->
<g id="edge34" class="edge">
<title>Node24&#45;&gt;Node15</title>
<path fill="none" stroke="#63b8ff" d="M1194.46,-292.84C1128.45,-269.64 989.69,-220.88 932.73,-200.86"/>
<polygon fill="#63b8ff" stroke="#63b8ff" points="1193.13,-296.08 1203.73,-296.09 1195.45,-289.47 1193.13,-296.08"/>
</g>
<!-- Node24&#45;&gt;Node18 -->
<g id="edge40" class="edge">
<title>Node24&#45;&gt;Node18</title>
<path fill="none" stroke="#63b8ff" d="M1281.11,-293.9C1351.23,-276.68 1472.19,-242.45 1497.5,-206 1505.11,-195.05 1506.16,-186.14 1497.5,-176 1463.86,-136.58 1310.67,-128.09 1231.38,-126.36"/>
<polygon fill="#63b8ff" stroke="#63b8ff" points="1280.68,-290.4 1271.78,-296.15 1282.33,-297.2 1280.68,-290.4"/>
</g>
<!-- Node24&#45;&gt;Node19 -->
<g id="edge35" class="edge">
<title>Node24&#45;&gt;Node19</title>
<path fill="none" stroke="#63b8ff" d="M1219.84,-286.59C1205.85,-261.78 1181.85,-219.23 1171.5,-200.86"/>
<polygon fill="#63b8ff" stroke="#63b8ff" points="1216.77,-288.28 1224.73,-295.28 1222.87,-284.85 1216.77,-288.28"/>
</g>
<!-- Node25 -->
<g id="node25" class="node">
<title>Node25</title>
<g id="a_node25"><a xlink:href="IUpdater_8h.html" target="_top" xlink:title=" ">
<polygon fill="white" stroke="#666666" points="1303.5,-261 1225.5,-261 1225.5,-242 1303.5,-242 1303.5,-261"/>
<text text-anchor="middle" x="1264.5" y="-249" font-family="Helvetica,sans-Serif" font-size="10.00">src/IUpdater.h</text>
</a>
</g>
</g>
<!-- Node24&#45;&gt;Node25 -->
<g id="edge36" class="edge">
<title>Node24&#45;&gt;Node25</title>
<path fill="none" stroke="#63b8ff" d="M1242.32,-287.08C1247.89,-278.4 1254.28,-268.44 1258.76,-261.44"/>
<polygon fill="#63b8ff" stroke="#63b8ff" points="1239.39,-285.17 1236.93,-295.47 1245.28,-288.95 1239.39,-285.17"/>
</g>
<!-- Node24&#45;&gt;Node28 -->
<g id="edge41" class="edge">
<title>Node24&#45;&gt;Node28</title>
<path fill="none" stroke="#63b8ff" d="M1292.6,-296.63C1362.71,-286.61 1475.85,-270.45 1544,-260.71"/>
<polygon fill="#63b8ff" stroke="#63b8ff" points="1292.21,-293.15 1282.81,-298.03 1293.2,-300.08 1292.21,-293.15"/>
</g>
<!-- Node25&#45;&gt;Node20 -->
<g id="edge38" class="edge">
<title>Node25&#45;&gt;Node20</title>
<path fill="none" stroke="#63b8ff" d="M1213.81,-249.21C1087.5,-245.66 748.65,-234.08 467.5,-206 454.29,-204.68 440.13,-202.87 426.82,-200.98"/>
<polygon fill="#63b8ff" stroke="#63b8ff" points="1213.41,-252.7 1223.5,-249.48 1213.6,-245.7 1213.41,-252.7"/>
</g>
<!-- Node26 -->
<g id="node26" class="node">
<title>Node26</title>
<g id="a_node26"><a xlink:href="Espressif__Updater_8h.html" target="_top" xlink:title=" ">
<polygon fill="white" stroke="#666666" points="1356,-200.5 1235,-200.5 1235,-181.5 1356,-181.5 1356,-200.5"/>
<text text-anchor="middle" x="1295.5" y="-188.5" font-family="Helvetica,sans-Serif" font-size="10.00">src/Espressif_Updater.h</text>
</a>
</g>
</g>
<!-- Node25&#45;&gt;Node26 -->
<g id="edge37" class="edge">
<title>Node25&#45;&gt;Node26</title>
<path fill="none" stroke="#63b8ff" d="M1274.31,-231.99C1279.86,-221.51 1286.55,-208.89 1290.91,-200.67"/>
<polygon fill="#63b8ff" stroke="#63b8ff" points="1271.37,-230.06 1269.78,-240.53 1277.56,-233.33 1271.37,-230.06"/>
</g>
<!-- Node27 -->
<g id="node27" class="node">
<title>Node27</title>
<g id="a_node27"><a xlink:href="SDCard__Updater_8h.html" target="_top" xlink:title=" ">
<polygon fill="white" stroke="#666666" points="1488.5,-200.5 1374.5,-200.5 1374.5,-181.5 1488.5,-181.5 1488.5,-200.5"/>
<text text-anchor="middle" x="1431.5" y="-188.5" font-family="Helvetica,sans-Serif" font-size="10.00">src/SDCard_Updater.h</text>
</a>
</g>
</g>
<!-- Node25&#45;&gt;Node27 -->
<g id="edge39" class="edge">
<title>Node25&#45;&gt;Node27</title>
<path fill="none" stroke="#63b8ff" d="M1300.47,-237.9C1332.22,-226.78 1377.72,-210.84 1405.9,-200.97"/>
<polygon fill="#63b8ff" stroke="#63b8ff" points="1299.57,-234.51 1291.29,-241.11 1301.89,-241.11 1299.57,-234.51"/>
</g>
</g>
</svg>
        <g id="navigator" transform="translate(0 0)" fill="#404254">
                <rect fill="#f2f5e9" fill-opacity="0.5" stroke="#606060" stroke-width=".5" x="0" y="0" width="60" height="60"/>
                <use id="zoomplus" xlink:href="#zoomPlus" x="17" y="9" onmousedown="handleZoom(evt,'in')"/>
                <use id="zoomminus" xlink:href="#zoomMin" x="42" y="9" onmousedown="handleZoom(evt,'out')"/>
                <use id="reset" xlink:href="#resetDef" x="30" y="36" onmousedown="handleReset()"/>
                <g id="arrowUp" xlink:href="#dirArrow" transform="translate(30 24)" onmousedown="handlePan(0,-1)">
                  <use xlink:href="#rim" fill="#404040">
                        <set attributeName="fill" to="#808080" begin="arrowUp.mouseover" end="arrowUp.mouseout"/>
                  </use>
                  <path fill="none" stroke="white" stroke-width="1.5" d="M0,-3.0v7 M-2.5,-0.5L0,-3.0L2.5,-0.5"/>
                </g>
                <g id="arrowRight" xlink:href="#dirArrow" transform="rotate(90) translate(36 -43)" onmousedown="handlePan(1,0)">
                  <use xlink:href="#rim" fill="#404040">
                        <set attributeName="fill" to="#808080" begin="arrowRight.mouseover" end="arrowRight.mouseout"/>
                  </use>
                  <path fill="none" stroke="white" stroke-width="1.5" d="M0,-3.0v7 M-2.5,-0.5L0,-3.0L2.5,-0.5"/>
                </g>
                <g id="arrowDown" xlink:href="#dirArrow" transform="rotate(180) translate(-30 -48)" onmousedown="handlePan(0,1)">
                  <use xlink:href="#rim" fill="#404040">
                        <set attributeName="fill" to="#808080" begin="arrowDown.mouseover" end="arrowDown.mouseout"/>
                  </use>
                  <path fill="none" stroke="white" stroke-width="1.5" d="M0,-3.0v7 M-2.5,-0.5L0,-3.0L2.5,-0.5"/>
                </g>
                <g id="arrowLeft" xlink:href="#dirArrow" transform="rotate(270) translate(-36 17)" onmousedown="handlePan(-1,0)">
                  <use xlink:href="#rim" fill="#404040">
                        <set attributeName="fill" to="#808080" begin="arrowLeft.mouseover" end="arrowLeft.mouseout"/>
                  </use>
                  <path fill="none" stroke="white" stroke-width="1.5" d="M0,-3.0v7 M-2.5,-0.5L0,-3.0L2.5,-0.5"/>
                </g>
        </g>
        <svg viewBox="0 0 15 15" width="100%" height="30px" preserveAspectRatio="xMaxYMin meet">
         <g id="arrow_out" transform="scale(0.3 0.3)">
          <a xlink:href="Helper_8h__dep__incl_org.svg" target="_base">
           <rect id="button" ry="5" rx="5" y="6" x="6" height="38" width="38"
                fill="#f2f5e9" fill-opacity="0.5" stroke="#606060" stroke-width="1.0"/>
           <path id="arrow"
             d="M 11.500037,31.436501 C 11.940474,20.09759 22.043105,11.32322 32.158766,21.979434 L 37.068811,17.246167 C 37.068811,17.246167 37.088388,32 37.088388,32 L 22.160133,31.978069 C 22.160133,31.978069 26.997745,27.140456 26.997745,27.140456 C 18.528582,18.264221 13.291696,25.230495 11.500037,31.436501 z"
             style="fill:#404040;"/>
          </a>
         </g>
        </svg>
</svg>
