<?xml version="1.0" encoding="UTF-8" standalone="no"?>
<!DOCTYPE svg PUBLIC "-//W3C//DTD SVG 1.1//EN"
 "http://www.w3.org/Graphics/SVG/1.1/DTD/svg11.dtd">
<!-- Generated by graphviz version 7.0.5 (20221223.1930)
 -->
<!-- Title: src/IAPI_Implementation.h Pages: 1 -->
<!--zoomable 247 -->
<svg id="main" version="1.1" xmlns="http://www.w3.org/2000/svg" xmlns:xlink="http://www.w3.org/1999/xlink" xml:space="preserve" onload="init(evt)">
<style type="text/css"><![CDATA[
.edge:hover path { stroke: red; }
.edge:hover polygon { stroke: red; fill: red; }
]]></style>
<script type="text/javascript"><![CDATA[
var edges = document.getElementsByTagName('g');
if (edges && edges.length) {
  for (var i=0;i<edges.length;i++) {
    if (edges[i].id.substr(0,4)=='edge') {
      edges[i].setAttribute('class','edge');
    }
  }
}
]]></script>
        <defs>
                <circle id="rim" cx="0" cy="0" r="7"/>
                <circle id="rim2" cx="0" cy="0" r="3.5"/>
                <g id="zoomPlus">
                        <use xlink:href="#rim" fill="#404040">
                                <set attributeName="fill" to="#808080" begin="zoomplus.mouseover" end="zoomplus.mouseout"/>
                        </use>
                        <path d="M-4,0h8M0,-4v8" fill="none" stroke="white" stroke-width="1.5" pointer-events="none"/>
                </g>
                <g id="zoomMin">
                        <use xlink:href="#rim" fill="#404040">
                                <set attributeName="fill" to="#808080" begin="zoomminus.mouseover" end="zoomminus.mouseout"/>
                        </use>
                        <path d="M-4,0h8" fill="none" stroke="white" stroke-width="1.5" pointer-events="none"/>
                </g>
                <g id="dirArrow">
                        <path fill="none" stroke="white" stroke-width="1.5" d="M0,-3.0v7 M-2.5,-0.5L0,-3.0L2.5,-0.5"/>
                </g>
               <g id="resetDef">
                       <use xlink:href="#rim2" fill="#404040">
                               <set attributeName="fill" to="#808080" begin="reset.mouseover" end="reset.mouseout"/>
                       </use>
               </g>
        </defs>

<script type="text/javascript">
var viewWidth = 623;
var viewHeight = 247;
var sectionId = 'dynsection-0';
</script>
<script xlink:href="svgpan.js"/>
<svg id="graph" class="graph">
<g id="viewport">
<title>src/IAPI_Implementation.h</title>
<!-- Node1 -->
<g id="node1" class="node">
<title>Node1</title>
<g id="a_node1"><a xlink:title=" ">
<polygon fill="#999999" stroke="#666666" points="447,-239 315,-239 315,-220 447,-220 447,-239"/>
<text text-anchor="middle" x="381" y="-227" font-family="Helvetica,sans-Serif" font-size="10.00">src/IAPI_Implementation.h</text>
</a>
</g>
</g>
<!-- Node2 -->
<g id="node2" class="node">
<title>Node2</title>
<g id="a_node2"><a xlink:href="Callback_8h.html" target="_top" xlink:title=" ">
<polygon fill="white" stroke="#666666" points="318,-184 256,-184 256,-165 318,-165 318,-184"/>
<text text-anchor="middle" x="287" y="-172" font-family="Helvetica,sans-Serif" font-size="10.00">Callback.h</text>
</a>
</g>
</g>
<!-- Node1&#45;&gt;Node2 -->
<g id="edge1" class="edge">
<title>Node1&#45;&gt;Node2</title>
<path fill="none" stroke="#63b8ff" d="M365.05,-219.51C350.65,-211.39 329.21,-199.3 312.44,-189.85"/>
<polygon fill="#63b8ff" stroke="#63b8ff" points="314.46,-186.96 304.03,-185.1 311.02,-193.06 314.46,-186.96"/>
</g>
<!-- Node13 -->
<g id="node13" class="node">
<title>Node13</title>
<g id="a_node13"><a xlink:href="Constants_8h.html" target="_top" xlink:title=" ">
<polygon fill="white" stroke="#666666" points="415,-184 347,-184 347,-165 415,-165 415,-184"/>
<text text-anchor="middle" x="381" y="-172" font-family="Helvetica,sans-Serif" font-size="10.00">Constants.h</text>
</a>
</g>
</g>
<!-- Node1&#45;&gt;Node13 -->
<g id="edge15" class="edge">
<title>Node1&#45;&gt;Node13</title>
<path fill="none" stroke="#63b8ff" d="M381,-219.75C381,-213.27 381,-204.16 381,-195.9"/>
<polygon fill="#63b8ff" stroke="#63b8ff" points="384.5,-195.96 381,-185.96 377.5,-195.96 384.5,-195.96"/>
</g>
<!-- Node15 -->
<g id="node15" class="node">
<title>Node15</title>
<g id="a_node15"><a xlink:href="DefaultLogger_8h.html" target="_top" xlink:title=" ">
<polygon fill="white" stroke="#666666" points="107.5,-129 22.5,-129 22.5,-110 107.5,-110 107.5,-129"/>
<text text-anchor="middle" x="65" y="-117" font-family="Helvetica,sans-Serif" font-size="10.00">DefaultLogger.h</text>
</a>
</g>
</g>
<!-- Node1&#45;&gt;Node15 -->
<g id="edge18" class="edge">
<title>Node1&#45;&gt;Node15</title>
<path fill="none" stroke="#63b8ff" d="M353.5,-219.5C326.38,-210.6 283.78,-196.52 247,-184 196.18,-166.7 137.59,-146.15 100.92,-133.21"/>
<polygon fill="#63b8ff" stroke="#63b8ff" points="102.3,-129.99 91.71,-129.96 99.97,-136.59 102.3,-129.99"/>
</g>
<!-- Node16 -->
<g id="node16" class="node">
<title>Node16</title>
<g id="a_node16"><a xlink:href="API__Process__Type_8h.html" target="_top" xlink:title=" ">
<polygon fill="white" stroke="#666666" points="541,-184 433,-184 433,-165 541,-165 541,-184"/>
<text text-anchor="middle" x="487" y="-172" font-family="Helvetica,sans-Serif" font-size="10.00">API_Process_Type.h</text>
</a>
</g>
</g>
<!-- Node1&#45;&gt;Node16 -->
<g id="edge20" class="edge">
<title>Node1&#45;&gt;Node16</title>
<path fill="none" stroke="#63b8ff" d="M398.98,-219.51C415.45,-211.27 440.09,-198.96 459.11,-189.45"/>
<polygon fill="#63b8ff" stroke="#63b8ff" points="460.55,-192.64 467.93,-185.03 457.42,-186.38 460.55,-192.64"/>
</g>
<!-- Node17 -->
<g id="node17" class="node">
<title>Node17</title>
<g id="a_node17"><a xlink:title=" ">
<polygon fill="#e0e0e0" stroke="#999999" points="615,-184 559,-184 559,-165 615,-165 615,-184"/>
<text text-anchor="middle" x="587" y="-172" font-family="Helvetica,sans-Serif" font-size="10.00">algorithm</text>
</a>
</g>
</g>
<!-- Node1&#45;&gt;Node17 -->
<g id="edge22" class="edge">
<title>Node1&#45;&gt;Node17</title>
<path fill="none" stroke="#63b8ff" d="M415.95,-219.51C452.51,-210.1 509.79,-195.36 547.86,-185.57"/>
<polygon fill="#63b8ff" stroke="#63b8ff" points="548.25,-189.08 557.06,-183.2 546.51,-182.3 548.25,-189.08"/>
</g>
<!-- Node3 -->
<g id="node3" class="node">
<title>Node3</title>
<g id="a_node3"><a xlink:href="Configuration_8h.html" target="_top" xlink:title=" ">
<polygon fill="white" stroke="#666666" points="443,-19 363,-19 363,0 443,0 443,-19"/>
<text text-anchor="middle" x="403" y="-7" font-family="Helvetica,sans-Serif" font-size="10.00">Configuration.h</text>
</a>
</g>
</g>
<!-- Node2&#45;&gt;Node3 -->
<g id="edge2" class="edge">
<title>Node2&#45;&gt;Node3</title>
<path fill="none" stroke="#63b8ff" d="M318.11,-165.91C338.17,-159.41 363.19,-148 378,-129 400.34,-100.33 403.91,-56.35 403.87,-30.8"/>
<polygon fill="#63b8ff" stroke="#63b8ff" points="407.37,-30.73 403.64,-20.82 400.37,-30.9 407.37,-30.73"/>
</g>
<!-- Node4 -->
<g id="node4" class="node">
<title>Node4</title>
<g id="a_node4"><a xlink:href="Container_8h.html" target="_top" xlink:title=" ">
<polygon fill="white" stroke="#666666" points="229.5,-129 164.5,-129 164.5,-110 229.5,-110 229.5,-129"/>
<text text-anchor="middle" x="197" y="-117" font-family="Helvetica,sans-Serif" font-size="10.00">Container.h</text>
</a>
</g>
</g>
<!-- Node2&#45;&gt;Node4 -->
<g id="edge3" class="edge">
<title>Node2&#45;&gt;Node4</title>
<path fill="none" stroke="#63b8ff" d="M271.73,-164.51C258.07,-156.47 237.8,-144.53 221.82,-135.11"/>
<polygon fill="#63b8ff" stroke="#63b8ff" points="223.74,-132.18 213.35,-130.13 220.19,-138.22 223.74,-132.18"/>
</g>
<!-- Node6 -->
<g id="node6" class="node">
<title>Node6</title>
<g id="a_node6"><a xlink:title=" ">
<polygon fill="#e0e0e0" stroke="#999999" points="78,-19 0,-19 0,0 78,0 78,-19"/>
<text text-anchor="middle" x="39" y="-7" font-family="Helvetica,sans-Serif" font-size="10.00">ArduinoJson.h</text>
</a>
</g>
</g>
<!-- Node2&#45;&gt;Node6 -->
<g id="edge12" class="edge">
<title>Node2&#45;&gt;Node6</title>
<path fill="none" stroke="#63b8ff" d="M255.58,-167.3C227.63,-160.8 186.44,-148.74 155,-129 111.09,-101.43 71.55,-54.01 51.97,-28.31"/>
<polygon fill="#63b8ff" stroke="#63b8ff" points="54.95,-26.45 46.16,-20.53 49.34,-30.64 54.95,-26.45"/>
</g>
<!-- Node11 -->
<g id="node11" class="node">
<title>Node11</title>
<g id="a_node11"><a xlink:title=" ">
<polygon fill="#e0e0e0" stroke="#999999" points="306.5,-129 247.5,-129 247.5,-110 306.5,-110 306.5,-129"/>
<text text-anchor="middle" x="277" y="-117" font-family="Helvetica,sans-Serif" font-size="10.00">functional</text>
</a>
</g>
</g>
<!-- Node2&#45;&gt;Node11 -->
<g id="edge13" class="edge">
<title>Node2&#45;&gt;Node11</title>
<path fill="none" stroke="#63b8ff" d="M285.35,-164.75C284.11,-158.19 282.37,-148.95 280.79,-140.6"/>
<polygon fill="#63b8ff" stroke="#63b8ff" points="284.26,-140.11 278.97,-130.93 277.38,-141.4 284.26,-140.11"/>
</g>
<!-- Node12 -->
<g id="node12" class="node">
<title>Node12</title>
<g id="a_node12"><a xlink:title=" ">
<polygon fill="#e0e0e0" stroke="#999999" points="369,-129 325,-129 325,-110 369,-110 369,-129"/>
<text text-anchor="middle" x="347" y="-117" font-family="Helvetica,sans-Serif" font-size="10.00">vector</text>
</a>
</g>
</g>
<!-- Node2&#45;&gt;Node12 -->
<g id="edge14" class="edge">
<title>Node2&#45;&gt;Node12</title>
<path fill="none" stroke="#63b8ff" d="M297.18,-164.51C305.76,-156.93 318.27,-145.88 328.6,-136.75"/>
<polygon fill="#63b8ff" stroke="#63b8ff" points="330.66,-139.6 335.84,-130.36 326.03,-134.36 330.66,-139.6"/>
</g>
<!-- Node5 -->
<g id="node5" class="node">
<title>Node5</title>
<g id="a_node5"><a xlink:href="Helper_8h.html" target="_top" xlink:title=" ">
<polygon fill="white" stroke="#666666" points="220.5,-74 167.5,-74 167.5,-55 220.5,-55 220.5,-74"/>
<text text-anchor="middle" x="194" y="-62" font-family="Helvetica,sans-Serif" font-size="10.00">Helper.h</text>
</a>
</g>
</g>
<!-- Node4&#45;&gt;Node5 -->
<g id="edge4" class="edge">
<title>Node4&#45;&gt;Node5</title>
<path fill="none" stroke="#63b8ff" d="M196.5,-109.75C196.14,-103.27 195.62,-94.16 195.15,-85.9"/>
<polygon fill="#63b8ff" stroke="#63b8ff" points="198.65,-85.74 194.59,-75.95 191.66,-86.13 198.65,-85.74"/>
</g>
<!-- Node8 -->
<g id="node8" class="node">
<title>Node8</title>
<g id="a_node8"><a xlink:title=" ">
<polygon fill="#e0e0e0" stroke="#999999" points="344.5,-19 293.5,-19 293.5,0 344.5,0 344.5,-19"/>
<text text-anchor="middle" x="319" y="-7" font-family="Helvetica,sans-Serif" font-size="10.00">assert.h</text>
</a>
</g>
</g>
<!-- Node4&#45;&gt;Node8 -->
<g id="edge11" class="edge">
<title>Node4&#45;&gt;Node8</title>
<path fill="none" stroke="#63b8ff" d="M206.98,-109.66C227.45,-91.55 274.42,-49.96 300.57,-26.81"/>
<polygon fill="#63b8ff" stroke="#63b8ff" points="302.58,-29.71 307.74,-20.46 297.94,-24.47 302.58,-29.71"/>
</g>
<!-- Node5&#45;&gt;Node3 -->
<g id="edge5" class="edge">
<title>Node5&#45;&gt;Node3</title>
<path fill="none" stroke="#63b8ff" d="M220.9,-56.68C255.23,-47.97 315.18,-32.77 356.87,-22.2"/>
<polygon fill="#63b8ff" stroke="#63b8ff" points="357.55,-25.64 366.38,-19.79 355.82,-18.85 357.55,-25.64"/>
</g>
<!-- Node5&#45;&gt;Node6 -->
<g id="edge6" class="edge">
<title>Node5&#45;&gt;Node6</title>
<path fill="none" stroke="#63b8ff" d="M167.71,-54.51C142.47,-45.88 104.11,-32.76 75.84,-23.1"/>
<polygon fill="#63b8ff" stroke="#63b8ff" points="77.19,-19.86 66.6,-19.94 74.93,-26.48 77.19,-19.86"/>
</g>
<!-- Node7 -->
<g id="node7" class="node">
<title>Node7</title>
<g id="a_node7"><a xlink:title=" ">
<polygon fill="#e0e0e0" stroke="#999999" points="275.5,-19 228.5,-19 228.5,0 275.5,0 275.5,-19"/>
<text text-anchor="middle" x="252" y="-7" font-family="Helvetica,sans-Serif" font-size="10.00">iterator</text>
</a>
</g>
</g>
<!-- Node5&#45;&gt;Node7 -->
<g id="edge7" class="edge">
<title>Node5&#45;&gt;Node7</title>
<path fill="none" stroke="#63b8ff" d="M203.84,-54.51C212.05,-47 223.98,-36.1 233.91,-27.03"/>
<polygon fill="#63b8ff" stroke="#63b8ff" points="236.17,-29.71 241.19,-20.38 231.45,-24.54 236.17,-29.71"/>
</g>
<!-- Node5&#45;&gt;Node8 -->
<g id="edge8" class="edge">
<title>Node5&#45;&gt;Node8</title>
<path fill="none" stroke="#63b8ff" d="M215.2,-54.51C235.08,-46.08 265.03,-33.38 287.66,-23.79"/>
<polygon fill="#63b8ff" stroke="#63b8ff" points="288.87,-27.07 296.72,-19.95 286.14,-20.63 288.87,-27.07"/>
</g>
<!-- Node9 -->
<g id="node9" class="node">
<title>Node9</title>
<g id="a_node9"><a xlink:title=" ">
<polygon fill="#e0e0e0" stroke="#999999" points="147.5,-19 96.5,-19 96.5,0 147.5,0 147.5,-19"/>
<text text-anchor="middle" x="122" y="-7" font-family="Helvetica,sans-Serif" font-size="10.00">stdarg.h</text>
</a>
</g>
</g>
<!-- Node5&#45;&gt;Node9 -->
<g id="edge9" class="edge">
<title>Node5&#45;&gt;Node9</title>
<path fill="none" stroke="#63b8ff" d="M181.79,-54.51C171.17,-46.7 155.56,-35.21 142.96,-25.93"/>
<polygon fill="#63b8ff" stroke="#63b8ff" points="145.38,-23.36 135.25,-20.26 141.23,-29 145.38,-23.36"/>
</g>
<!-- Node10 -->
<g id="node10" class="node">
<title>Node10</title>
<g id="a_node10"><a xlink:title=" ">
<polygon fill="#e0e0e0" stroke="#999999" points="210.5,-19 165.5,-19 165.5,0 210.5,0 210.5,-19"/>
<text text-anchor="middle" x="188" y="-7" font-family="Helvetica,sans-Serif" font-size="10.00">stdio.h</text>
</a>
</g>
</g>
<!-- Node5&#45;&gt;Node10 -->
<g id="edge10" class="edge">
<title>Node5&#45;&gt;Node10</title>
<path fill="none" stroke="#63b8ff" d="M193.01,-54.75C192.27,-48.19 191.22,-38.95 190.28,-30.6"/>
<polygon fill="#63b8ff" stroke="#63b8ff" points="193.79,-30.49 189.18,-20.95 186.83,-31.28 193.79,-30.49"/>
</g>
<!-- Node13&#45;&gt;Node3 -->
<g id="edge16" class="edge">
<title>Node13&#45;&gt;Node3</title>
<path fill="none" stroke="#63b8ff" d="M389.21,-164.8C396.54,-156.38 406.75,-142.9 411,-129 421.22,-95.57 414.39,-54.45 408.62,-30.48"/>
<polygon fill="#63b8ff" stroke="#63b8ff" points="412.01,-29.62 406.09,-20.83 405.24,-31.39 412.01,-29.62"/>
</g>
<!-- Node14 -->
<g id="node14" class="node">
<title>Node14</title>
<g id="a_node14"><a xlink:title=" ">
<polygon fill="#e0e0e0" stroke="#999999" points="511,-129 463,-129 463,-110 511,-110 511,-129"/>
<text text-anchor="middle" x="487" y="-117" font-family="Helvetica,sans-Serif" font-size="10.00">stdint.h</text>
</a>
</g>
</g>
<!-- Node13&#45;&gt;Node14 -->
<g id="edge17" class="edge">
<title>Node13&#45;&gt;Node14</title>
<path fill="none" stroke="#63b8ff" d="M398.98,-164.51C415.45,-156.27 440.09,-143.96 459.11,-134.45"/>
<polygon fill="#63b8ff" stroke="#63b8ff" points="460.55,-137.64 467.93,-130.03 457.42,-131.38 460.55,-137.64"/>
</g>
<!-- Node15&#45;&gt;Node5 -->
<g id="edge19" class="edge">
<title>Node15&#45;&gt;Node5</title>
<path fill="none" stroke="#63b8ff" d="M86.88,-109.51C107.49,-101.04 138.59,-88.27 161.98,-78.66"/>
<polygon fill="#63b8ff" stroke="#63b8ff" points="163.12,-81.97 171.04,-74.93 160.46,-75.5 163.12,-81.97"/>
</g>
<!-- Node16&#45;&gt;Node14 -->
<g id="edge21" class="edge">
<title>Node16&#45;&gt;Node14</title>
<path fill="none" stroke="#63b8ff" d="M487,-164.75C487,-158.27 487,-149.16 487,-140.9"/>
<polygon fill="#63b8ff" stroke="#63b8ff" points="490.5,-140.96 487,-130.96 483.5,-140.96 490.5,-140.96"/>
</g>
</g>
</svg>
        <g id="navigator" transform="translate(0 0)" fill="#404254">
                <rect fill="#f2f5e9" fill-opacity="0.5" stroke="#606060" stroke-width=".5" x="0" y="0" width="60" height="60"/>
                <use id="zoomplus" xlink:href="#zoomPlus" x="17" y="9" onmousedown="handleZoom(evt,'in')"/>
                <use id="zoomminus" xlink:href="#zoomMin" x="42" y="9" onmousedown="handleZoom(evt,'out')"/>
                <use id="reset" xlink:href="#resetDef" x="30" y="36" onmousedown="handleReset()"/>
                <g id="arrowUp" xlink:href="#dirArrow" transform="translate(30 24)" onmousedown="handlePan(0,-1)">
                  <use xlink:href="#rim" fill="#404040">
                        <set attributeName="fill" to="#808080" begin="arrowUp.mouseover" end="arrowUp.mouseout"/>
                  </use>
                  <path fill="none" stroke="white" stroke-width="1.5" d="M0,-3.0v7 M-2.5,-0.5L0,-3.0L2.5,-0.5"/>
                </g>
                <g id="arrowRight" xlink:href="#dirArrow" transform="rotate(90) translate(36 -43)" onmousedown="handlePan(1,0)">
                  <use xlink:href="#rim" fill="#404040">
                        <set attributeName="fill" to="#808080" begin="arrowRight.mouseover" end="arrowRight.mouseout"/>
                  </use>
                  <path fill="none" stroke="white" stroke-width="1.5" d="M0,-3.0v7 M-2.5,-0.5L0,-3.0L2.5,-0.5"/>
                </g>
                <g id="arrowDown" xlink:href="#dirArrow" transform="rotate(180) translate(-30 -48)" onmousedown="handlePan(0,1)">
                  <use xlink:href="#rim" fill="#404040">
                        <set attributeName="fill" to="#808080" begin="arrowDown.mouseover" end="arrowDown.mouseout"/>
                  </use>
                  <path fill="none" stroke="white" stroke-width="1.5" d="M0,-3.0v7 M-2.5,-0.5L0,-3.0L2.5,-0.5"/>
                </g>
                <g id="arrowLeft" xlink:href="#dirArrow" transform="rotate(270) translate(-36 17)" onmousedown="handlePan(-1,0)">
                  <use xlink:href="#rim" fill="#404040">
                        <set attributeName="fill" to="#808080" begin="arrowLeft.mouseover" end="arrowLeft.mouseout"/>
                  </use>
                  <path fill="none" stroke="white" stroke-width="1.5" d="M0,-3.0v7 M-2.5,-0.5L0,-3.0L2.5,-0.5"/>
                </g>
        </g>
        <svg viewBox="0 0 15 15" width="100%" height="30px" preserveAspectRatio="xMaxYMin meet">
         <g id="arrow_out" transform="scale(0.3 0.3)">
          <a xlink:href="IAPI__Implementation_8h__incl_org.svg" target="_base">
           <rect id="button" ry="5" rx="5" y="6" x="6" height="38" width="38"
                fill="#f2f5e9" fill-opacity="0.5" stroke="#606060" stroke-width="1.0"/>
           <path id="arrow"
             d="M 11.500037,31.436501 C 11.940474,20.09759 22.043105,11.32322 32.158766,21.979434 L 37.068811,17.246167 C 37.068811,17.246167 37.088388,32 37.088388,32 L 22.160133,31.978069 C 22.160133,31.978069 26.997745,27.140456 26.997745,27.140456 C 18.528582,18.264221 13.291696,25.230495 11.500037,31.436501 z"
             style="fill:#404040;"/>
          </a>
         </g>
        </svg>
</svg>
