<?xml version="1.0" encoding="UTF-8" standalone="no"?>
<!DOCTYPE svg PUBLIC "-//W3C//DTD SVG 1.1//EN"
 "http://www.w3.org/Graphics/SVG/1.1/DTD/svg11.dtd">
<!-- Generated by graphviz version 7.0.5 (20221223.1930)
 -->
<!-- Title: src/IMQTT_Client.h Pages: 1 -->
<svg width="651pt" height="247pt"
 viewBox="0.00 0.00 650.50 247.00" xmlns="http://www.w3.org/2000/svg" xmlns:xlink="http://www.w3.org/1999/xlink">
<g id="graph0" class="graph" transform="scale(1 1) rotate(0) translate(4 243)">
<title>src/IMQTT_Client.h</title>
<!-- Node1 -->
<g id="node1" class="node">
<title>Node1</title>
<g id="a_node1"><a xlink:title=" ">
<polygon fill="#999999" stroke="#666666" points="466.5,-239 365.5,-239 365.5,-220 466.5,-220 466.5,-239"/>
<text text-anchor="middle" x="416" y="-227" font-family="Helvetica,sans-Serif" font-size="10.00">src/IMQTT_Client.h</text>
</a>
</g>
</g>
<!-- Node2 -->
<g id="node2" class="node">
<title>Node2</title>
<g id="a_node2"><a xlink:href="Callback_8h.html" target="_top" xlink:title=" ">
<polygon fill="white" stroke="#666666" points="283,-184 221,-184 221,-165 283,-165 283,-184"/>
<text text-anchor="middle" x="252" y="-172" font-family="Helvetica,sans-Serif" font-size="10.00">Callback.h</text>
</a>
</g>
</g>
<!-- Node1&#45;&gt;Node2 -->
<g id="edge1" class="edge">
<title>Node1&#45;&gt;Node2</title>
<path fill="none" stroke="#63b8ff" d="M388.18,-219.51C361.36,-210.84 320.54,-197.65 290.58,-187.97"/>
<polygon fill="#63b8ff" stroke="#63b8ff" points="291.71,-184.66 281.12,-184.91 289.56,-191.32 291.71,-184.66"/>
</g>
<!-- Node14 -->
<g id="node14" class="node">
<title>Node14</title>
<g id="a_node14"><a xlink:href="DefaultLogger_8h.html" target="_top" xlink:title=" ">
<polygon fill="white" stroke="#666666" points="423.5,-184 338.5,-184 338.5,-165 423.5,-165 423.5,-184"/>
<text text-anchor="middle" x="381" y="-172" font-family="Helvetica,sans-Serif" font-size="10.00">DefaultLogger.h</text>
</a>
</g>
</g>
<!-- Node1&#45;&gt;Node14 -->
<g id="edge16" class="edge">
<title>Node1&#45;&gt;Node14</title>
<path fill="none" stroke="#63b8ff" d="M410.22,-219.75C405.59,-212.73 398.93,-202.64 393.13,-193.87"/>
<polygon fill="#63b8ff" stroke="#63b8ff" points="396.17,-192.12 387.74,-185.71 390.33,-195.98 396.17,-192.12"/>
</g>
<!-- Node15 -->
<g id="node15" class="node">
<title>Node15</title>
<g id="a_node15"><a xlink:href="MQTT__Connection__State_8h.html" target="_top" xlink:title=" ">
<polygon fill="white" stroke="#666666" points="493,-74 359,-74 359,-55 493,-55 493,-74"/>
<text text-anchor="middle" x="426" y="-62" font-family="Helvetica,sans-Serif" font-size="10.00">MQTT_Connection_State.h</text>
</a>
</g>
</g>
<!-- Node1&#45;&gt;Node15 -->
<g id="edge18" class="edge">
<title>Node1&#45;&gt;Node15</title>
<path fill="none" stroke="#63b8ff" d="M420.52,-219.58C424.71,-210.79 430.63,-196.85 433,-184 439.31,-149.8 434.26,-109.2 430.08,-85.49"/>
<polygon fill="#63b8ff" stroke="#63b8ff" points="433.53,-84.87 428.22,-75.7 426.65,-86.18 433.53,-84.87"/>
</g>
<!-- Node16 -->
<g id="node16" class="node">
<title>Node16</title>
<g id="a_node16"><a xlink:href="MQTT__Connection__Error_8h.html" target="_top" xlink:title=" ">
<polygon fill="white" stroke="#666666" points="642.5,-74 511.5,-74 511.5,-55 642.5,-55 642.5,-74"/>
<text text-anchor="middle" x="577" y="-62" font-family="Helvetica,sans-Serif" font-size="10.00">MQTT_Connection_Error.h</text>
</a>
</g>
</g>
<!-- Node1&#45;&gt;Node16 -->
<g id="edge20" class="edge">
<title>Node1&#45;&gt;Node16</title>
<path fill="none" stroke="#63b8ff" d="M424.66,-219.74C450.32,-193.76 526.3,-116.83 560.27,-82.44"/>
<polygon fill="#63b8ff" stroke="#63b8ff" points="562.7,-84.96 567.24,-75.38 557.72,-80.04 562.7,-84.96"/>
</g>
<!-- Node3 -->
<g id="node3" class="node">
<title>Node3</title>
<g id="a_node3"><a xlink:href="Configuration_8h.html" target="_top" xlink:title=" ">
<polygon fill="white" stroke="#666666" points="80,-19 0,-19 0,0 80,0 80,-19"/>
<text text-anchor="middle" x="40" y="-7" font-family="Helvetica,sans-Serif" font-size="10.00">Configuration.h</text>
</a>
</g>
</g>
<!-- Node2&#45;&gt;Node3 -->
<g id="edge2" class="edge">
<title>Node2&#45;&gt;Node3</title>
<path fill="none" stroke="#63b8ff" d="M220.62,-165.18C197.46,-158.04 165.94,-146.17 142,-129 102.63,-100.76 68.57,-54.29 51.56,-28.74"/>
<polygon fill="#63b8ff" stroke="#63b8ff" points="54.56,-26.93 46.17,-20.46 48.69,-30.75 54.56,-26.93"/>
</g>
<!-- Node4 -->
<g id="node4" class="node">
<title>Node4</title>
<g id="a_node4"><a xlink:title=" ">
<polygon fill="#e0e0e0" stroke="#999999" points="176,-19 98,-19 98,0 176,0 176,-19"/>
<text text-anchor="middle" x="137" y="-7" font-family="Helvetica,sans-Serif" font-size="10.00">ArduinoJson.h</text>
</a>
</g>
</g>
<!-- Node2&#45;&gt;Node4 -->
<g id="edge3" class="edge">
<title>Node2&#45;&gt;Node4</title>
<path fill="none" stroke="#63b8ff" d="M220.75,-167.13C199.17,-161.06 171.63,-149.65 156,-129 134.16,-100.15 133.21,-55.91 134.86,-30.44"/>
<polygon fill="#63b8ff" stroke="#63b8ff" points="138.31,-31.07 135.69,-20.81 131.34,-30.46 138.31,-31.07"/>
</g>
<!-- Node5 -->
<g id="node5" class="node">
<title>Node5</title>
<g id="a_node5"><a xlink:title=" ">
<polygon fill="#e0e0e0" stroke="#999999" points="307.5,-129 248.5,-129 248.5,-110 307.5,-110 307.5,-129"/>
<text text-anchor="middle" x="278" y="-117" font-family="Helvetica,sans-Serif" font-size="10.00">functional</text>
</a>
</g>
</g>
<!-- Node2&#45;&gt;Node5 -->
<g id="edge4" class="edge">
<title>Node2&#45;&gt;Node5</title>
<path fill="none" stroke="#63b8ff" d="M256.29,-164.75C259.62,-157.96 264.36,-148.3 268.56,-139.73"/>
<polygon fill="#63b8ff" stroke="#63b8ff" points="271.68,-141.32 272.95,-130.8 265.4,-138.24 271.68,-141.32"/>
</g>
<!-- Node6 -->
<g id="node6" class="node">
<title>Node6</title>
<g id="a_node6"><a xlink:title=" ">
<polygon fill="#e0e0e0" stroke="#999999" points="370,-129 326,-129 326,-110 370,-110 370,-129"/>
<text text-anchor="middle" x="348" y="-117" font-family="Helvetica,sans-Serif" font-size="10.00">vector</text>
</a>
</g>
</g>
<!-- Node2&#45;&gt;Node6 -->
<g id="edge5" class="edge">
<title>Node2&#45;&gt;Node6</title>
<path fill="none" stroke="#63b8ff" d="M268.29,-164.51C282.99,-156.39 304.89,-144.3 322.02,-134.85"/>
<polygon fill="#63b8ff" stroke="#63b8ff" points="323.57,-137.99 330.63,-130.09 320.18,-131.86 323.57,-137.99"/>
</g>
<!-- Node7 -->
<g id="node7" class="node">
<title>Node7</title>
<g id="a_node7"><a xlink:href="Container_8h.html" target="_top" xlink:title=" ">
<polygon fill="white" stroke="#666666" points="230.5,-129 165.5,-129 165.5,-110 230.5,-110 230.5,-129"/>
<text text-anchor="middle" x="198" y="-117" font-family="Helvetica,sans-Serif" font-size="10.00">Container.h</text>
</a>
</g>
</g>
<!-- Node2&#45;&gt;Node7 -->
<g id="edge6" class="edge">
<title>Node2&#45;&gt;Node7</title>
<path fill="none" stroke="#63b8ff" d="M243.08,-164.75C235.55,-157.35 224.53,-146.54 215.27,-137.45"/>
<polygon fill="#63b8ff" stroke="#63b8ff" points="217.78,-135.01 208.19,-130.5 212.88,-140 217.78,-135.01"/>
</g>
<!-- Node8 -->
<g id="node8" class="node">
<title>Node8</title>
<g id="a_node8"><a xlink:href="Helper_8h.html" target="_top" xlink:title=" ">
<polygon fill="white" stroke="#666666" points="315.5,-74 262.5,-74 262.5,-55 315.5,-55 315.5,-74"/>
<text text-anchor="middle" x="289" y="-62" font-family="Helvetica,sans-Serif" font-size="10.00">Helper.h</text>
</a>
</g>
</g>
<!-- Node7&#45;&gt;Node8 -->
<g id="edge7" class="edge">
<title>Node7&#45;&gt;Node8</title>
<path fill="none" stroke="#63b8ff" d="M213.44,-109.51C227.25,-101.47 247.75,-89.53 263.91,-80.11"/>
<polygon fill="#63b8ff" stroke="#63b8ff" points="265.6,-83.18 272.48,-75.12 262.08,-77.13 265.6,-83.18"/>
</g>
<!-- Node11 -->
<g id="node11" class="node">
<title>Node11</title>
<g id="a_node11"><a xlink:title=" ">
<polygon fill="#e0e0e0" stroke="#999999" points="245.5,-19 194.5,-19 194.5,0 245.5,0 245.5,-19"/>
<text text-anchor="middle" x="220" y="-7" font-family="Helvetica,sans-Serif" font-size="10.00">assert.h</text>
</a>
</g>
</g>
<!-- Node7&#45;&gt;Node11 -->
<g id="edge15" class="edge">
<title>Node7&#45;&gt;Node11</title>
<path fill="none" stroke="#63b8ff" d="M199.8,-109.66C203.3,-92.5 211.09,-54.26 215.91,-30.6"/>
<polygon fill="#63b8ff" stroke="#63b8ff" points="219.31,-31.44 217.87,-20.94 212.45,-30.04 219.31,-31.44"/>
</g>
<!-- Node8&#45;&gt;Node3 -->
<g id="edge8" class="edge">
<title>Node8&#45;&gt;Node3</title>
<path fill="none" stroke="#63b8ff" d="M262.35,-57.83C221.68,-49.17 143.36,-32.5 91.38,-21.44"/>
<polygon fill="#63b8ff" stroke="#63b8ff" points="92.38,-18.07 81.87,-19.41 90.92,-24.92 92.38,-18.07"/>
</g>
<!-- Node8&#45;&gt;Node4 -->
<g id="edge9" class="edge">
<title>Node8&#45;&gt;Node4</title>
<path fill="none" stroke="#63b8ff" d="M263.22,-54.51C238.57,-45.92 201.19,-32.88 173.49,-23.22"/>
<polygon fill="#63b8ff" stroke="#63b8ff" points="174.68,-19.93 164.09,-19.94 172.38,-26.54 174.68,-19.93"/>
</g>
<!-- Node9 -->
<g id="node9" class="node">
<title>Node9</title>
<g id="a_node9"><a xlink:title=" ">
<polygon fill="#e0e0e0" stroke="#999999" points="442.5,-19 395.5,-19 395.5,0 442.5,0 442.5,-19"/>
<text text-anchor="middle" x="419" y="-7" font-family="Helvetica,sans-Serif" font-size="10.00">iterator</text>
</a>
</g>
</g>
<!-- Node8&#45;&gt;Node9 -->
<g id="edge10" class="edge">
<title>Node8&#45;&gt;Node9</title>
<path fill="none" stroke="#63b8ff" d="M311.05,-54.51C331.81,-46.04 363.16,-33.27 386.73,-23.66"/>
<polygon fill="#63b8ff" stroke="#63b8ff" points="387.93,-26.95 395.87,-19.93 385.29,-20.46 387.93,-26.95"/>
</g>
<!-- Node10 -->
<g id="node10" class="node">
<title>Node10</title>
<g id="a_node10"><a xlink:title=" ">
<polygon fill="#e0e0e0" stroke="#999999" points="509,-19 461,-19 461,0 509,0 509,-19"/>
<text text-anchor="middle" x="485" y="-7" font-family="Helvetica,sans-Serif" font-size="10.00">stdint.h</text>
</a>
</g>
</g>
<!-- Node8&#45;&gt;Node10 -->
<g id="edge11" class="edge">
<title>Node8&#45;&gt;Node10</title>
<path fill="none" stroke="#63b8ff" d="M315.84,-56.24C350.67,-46.82 411.52,-30.37 449.96,-19.98"/>
<polygon fill="#63b8ff" stroke="#63b8ff" points="450.44,-23.47 459.18,-17.48 448.61,-16.71 450.44,-23.47"/>
</g>
<!-- Node8&#45;&gt;Node11 -->
<g id="edge12" class="edge">
<title>Node8&#45;&gt;Node11</title>
<path fill="none" stroke="#63b8ff" d="M277.3,-54.51C267.22,-46.77 252.46,-35.43 240.44,-26.2"/>
<polygon fill="#63b8ff" stroke="#63b8ff" points="242.79,-23.6 232.73,-20.28 238.53,-29.15 242.79,-23.6"/>
</g>
<!-- Node12 -->
<g id="node12" class="node">
<title>Node12</title>
<g id="a_node12"><a xlink:title=" ">
<polygon fill="#e0e0e0" stroke="#999999" points="314.5,-19 263.5,-19 263.5,0 314.5,0 314.5,-19"/>
<text text-anchor="middle" x="289" y="-7" font-family="Helvetica,sans-Serif" font-size="10.00">stdarg.h</text>
</a>
</g>
</g>
<!-- Node8&#45;&gt;Node12 -->
<g id="edge13" class="edge">
<title>Node8&#45;&gt;Node12</title>
<path fill="none" stroke="#63b8ff" d="M289,-54.75C289,-48.27 289,-39.16 289,-30.9"/>
<polygon fill="#63b8ff" stroke="#63b8ff" points="292.5,-30.96 289,-20.96 285.5,-30.96 292.5,-30.96"/>
</g>
<!-- Node13 -->
<g id="node13" class="node">
<title>Node13</title>
<g id="a_node13"><a xlink:title=" ">
<polygon fill="#e0e0e0" stroke="#999999" points="377.5,-19 332.5,-19 332.5,0 377.5,0 377.5,-19"/>
<text text-anchor="middle" x="355" y="-7" font-family="Helvetica,sans-Serif" font-size="10.00">stdio.h</text>
</a>
</g>
</g>
<!-- Node8&#45;&gt;Node13 -->
<g id="edge14" class="edge">
<title>Node8&#45;&gt;Node13</title>
<path fill="none" stroke="#63b8ff" d="M300.2,-54.51C309.74,-46.85 323.67,-35.66 335.11,-26.47"/>
<polygon fill="#63b8ff" stroke="#63b8ff" points="337.18,-29.3 342.79,-20.31 332.8,-23.84 337.18,-29.3"/>
</g>
<!-- Node14&#45;&gt;Node8 -->
<g id="edge17" class="edge">
<title>Node14&#45;&gt;Node8</title>
<path fill="none" stroke="#63b8ff" d="M383.32,-164.88C386.29,-151.86 389.86,-126.88 379,-110 367.26,-91.74 345.63,-80.71 326.53,-74.21"/>
<polygon fill="#63b8ff" stroke="#63b8ff" points="327.7,-70.9 317.11,-71.32 325.64,-77.6 327.7,-70.9"/>
</g>
<!-- Node15&#45;&gt;Node10 -->
<g id="edge19" class="edge">
<title>Node15&#45;&gt;Node10</title>
<path fill="none" stroke="#63b8ff" d="M436.01,-54.51C444.37,-47 456.5,-36.1 466.6,-27.03"/>
<polygon fill="#63b8ff" stroke="#63b8ff" points="468.91,-29.66 474.01,-20.37 464.24,-24.45 468.91,-29.66"/>
</g>
<!-- Node16&#45;&gt;Node10 -->
<g id="edge21" class="edge">
<title>Node16&#45;&gt;Node10</title>
<path fill="none" stroke="#63b8ff" d="M561.39,-54.51C547.3,-46.39 526.31,-34.3 509.9,-24.85"/>
<polygon fill="#63b8ff" stroke="#63b8ff" points="512.1,-22.07 501.69,-20.11 508.61,-28.14 512.1,-22.07"/>
</g>
</g>
</svg>
