<?xml version="1.0" encoding="UTF-8" standalone="no"?>
<!DOCTYPE svg PUBLIC "-//W3C//DTD SVG 1.1//EN"
 "http://www.w3.org/Graphics/SVG/1.1/DTD/svg11.dtd">
<!-- Generated by graphviz version 7.0.5 (20221223.1930)
 -->
<!-- Title: src/IMQTT_Client.h Pages: 1 -->
<svg width="625pt" height="247pt"
 viewBox="0.00 0.00 624.50 247.00" xmlns="http://www.w3.org/2000/svg" xmlns:xlink="http://www.w3.org/1999/xlink">
<g id="graph0" class="graph" transform="scale(1 1) rotate(0) translate(4 243)">
<title>src/IMQTT_Client.h</title>
<!-- Node1 -->
<g id="node1" class="node">
<title>Node1</title>
<g id="a_node1"><a xlink:title=" ">
<polygon fill="#999999" stroke="#666666" points="418.5,-239 317.5,-239 317.5,-220 418.5,-220 418.5,-239"/>
<text text-anchor="middle" x="368" y="-227" font-family="Helvetica,sans-Serif" font-size="10.00">src/IMQTT_Client.h</text>
</a>
</g>
</g>
<!-- Node2 -->
<g id="node2" class="node">
<title>Node2</title>
<g id="a_node2"><a xlink:href="Callback_8h.html" target="_top" xlink:title=" ">
<polygon fill="white" stroke="#666666" points="199,-184 137,-184 137,-165 199,-165 199,-184"/>
<text text-anchor="middle" x="168" y="-172" font-family="Helvetica,sans-Serif" font-size="10.00">Callback.h</text>
</a>
</g>
</g>
<!-- Node1&#45;&gt;Node2 -->
<g id="edge1" class="edge">
<title>Node1&#45;&gt;Node2</title>
<path fill="none" stroke="#63b8ff" d="M334.07,-219.51C299.94,-210.46 247.2,-196.49 210.34,-186.72"/>
<polygon fill="#63b8ff" stroke="#63b8ff" points="211.48,-183.4 200.92,-184.22 209.69,-190.17 211.48,-183.4"/>
</g>
<!-- Node14 -->
<g id="node14" class="node">
<title>Node14</title>
<g id="a_node14"><a xlink:href="DefaultLogger_8h.html" target="_top" xlink:title=" ">
<polygon fill="white" stroke="#666666" points="375.5,-184 290.5,-184 290.5,-165 375.5,-165 375.5,-184"/>
<text text-anchor="middle" x="333" y="-172" font-family="Helvetica,sans-Serif" font-size="10.00">DefaultLogger.h</text>
</a>
</g>
</g>
<!-- Node1&#45;&gt;Node14 -->
<g id="edge16" class="edge">
<title>Node1&#45;&gt;Node14</title>
<path fill="none" stroke="#63b8ff" d="M362.22,-219.75C357.59,-212.73 350.93,-202.64 345.13,-193.87"/>
<polygon fill="#63b8ff" stroke="#63b8ff" points="348.17,-192.12 339.74,-185.71 342.33,-195.98 348.17,-192.12"/>
</g>
<!-- Node15 -->
<g id="node15" class="node">
<title>Node15</title>
<g id="a_node15"><a xlink:href="MQTT__Connection__State_8h.html" target="_top" xlink:title=" ">
<polygon fill="white" stroke="#666666" points="467,-74 333,-74 333,-55 467,-55 467,-74"/>
<text text-anchor="middle" x="400" y="-62" font-family="Helvetica,sans-Serif" font-size="10.00">MQTT_Connection_State.h</text>
</a>
</g>
</g>
<!-- Node1&#45;&gt;Node15 -->
<g id="edge18" class="edge">
<title>Node1&#45;&gt;Node15</title>
<path fill="none" stroke="#63b8ff" d="M371.75,-219.8C375.41,-210.95 380.88,-196.76 384,-184 392.32,-149.97 396.62,-109.31 398.59,-85.55"/>
<polygon fill="#63b8ff" stroke="#63b8ff" points="402.07,-85.99 399.34,-75.75 395.09,-85.45 402.07,-85.99"/>
</g>
<!-- Node16 -->
<g id="node16" class="node">
<title>Node16</title>
<g id="a_node16"><a xlink:href="MQTT__Connection__Error_8h.html" target="_top" xlink:title=" ">
<polygon fill="white" stroke="#666666" points="616.5,-74 485.5,-74 485.5,-55 616.5,-55 616.5,-74"/>
<text text-anchor="middle" x="551" y="-62" font-family="Helvetica,sans-Serif" font-size="10.00">MQTT_Connection_Error.h</text>
</a>
</g>
</g>
<!-- Node1&#45;&gt;Node16 -->
<g id="edge20" class="edge">
<title>Node1&#45;&gt;Node16</title>
<path fill="none" stroke="#63b8ff" d="M378.1,-219.5C407.79,-193.06 495.08,-115.31 533.03,-81.5"/>
<polygon fill="#63b8ff" stroke="#63b8ff" points="534.89,-84.54 540.02,-75.28 530.23,-79.31 534.89,-84.54"/>
</g>
<!-- Node3 -->
<g id="node3" class="node">
<title>Node3</title>
<g id="a_node3"><a xlink:href="Configuration_8h.html" target="_top" xlink:title=" ">
<polygon fill="white" stroke="#666666" points="80,-19 0,-19 0,0 80,0 80,-19"/>
<text text-anchor="middle" x="40" y="-7" font-family="Helvetica,sans-Serif" font-size="10.00">Configuration.h</text>
</a>
</g>
</g>
<!-- Node2&#45;&gt;Node3 -->
<g id="edge2" class="edge">
<title>Node2&#45;&gt;Node3</title>
<path fill="none" stroke="#63b8ff" d="M161.12,-164.74C140.89,-138.98 81.33,-63.13 54,-28.33"/>
<polygon fill="#63b8ff" stroke="#63b8ff" points="56.78,-26.2 47.85,-20.5 51.27,-30.52 56.78,-26.2"/>
</g>
<!-- Node4 -->
<g id="node4" class="node">
<title>Node4</title>
<g id="a_node4"><a xlink:href="Container_8h.html" target="_top" xlink:title=" ">
<polygon fill="white" stroke="#666666" points="230.5,-129 165.5,-129 165.5,-110 230.5,-110 230.5,-129"/>
<text text-anchor="middle" x="198" y="-117" font-family="Helvetica,sans-Serif" font-size="10.00">Container.h</text>
</a>
</g>
</g>
<!-- Node2&#45;&gt;Node4 -->
<g id="edge3" class="edge">
<title>Node2&#45;&gt;Node4</title>
<path fill="none" stroke="#63b8ff" d="M172.95,-164.75C176.84,-157.88 182.39,-148.08 187.28,-139.45"/>
<polygon fill="#63b8ff" stroke="#63b8ff" points="190.31,-141.19 192.19,-130.76 184.22,-137.74 190.31,-141.19"/>
</g>
<!-- Node6 -->
<g id="node6" class="node">
<title>Node6</title>
<g id="a_node6"><a xlink:title=" ">
<polygon fill="#e0e0e0" stroke="#999999" points="176,-19 98,-19 98,0 176,0 176,-19"/>
<text text-anchor="middle" x="137" y="-7" font-family="Helvetica,sans-Serif" font-size="10.00">ArduinoJson.h</text>
</a>
</g>
</g>
<!-- Node2&#45;&gt;Node6 -->
<g id="edge13" class="edge">
<title>Node2&#45;&gt;Node6</title>
<path fill="none" stroke="#63b8ff" d="M165.34,-164.7C162.7,-155.77 158.68,-141.52 156,-129 148.67,-94.79 142.78,-54.48 139.6,-30.79"/>
<polygon fill="#63b8ff" stroke="#63b8ff" points="143.08,-30.44 138.31,-20.98 136.14,-31.35 143.08,-30.44"/>
</g>
<!-- Node12 -->
<g id="node12" class="node">
<title>Node12</title>
<g id="a_node12"><a xlink:title=" ">
<polygon fill="#e0e0e0" stroke="#999999" points="307.5,-129 248.5,-129 248.5,-110 307.5,-110 307.5,-129"/>
<text text-anchor="middle" x="278" y="-117" font-family="Helvetica,sans-Serif" font-size="10.00">functional</text>
</a>
</g>
</g>
<!-- Node2&#45;&gt;Node12 -->
<g id="edge14" class="edge">
<title>Node2&#45;&gt;Node12</title>
<path fill="none" stroke="#63b8ff" d="M186.66,-164.51C203.83,-156.24 229.55,-143.84 249.33,-134.31"/>
<polygon fill="#63b8ff" stroke="#63b8ff" points="250.76,-137.51 258.25,-130.01 247.72,-131.2 250.76,-137.51"/>
</g>
<!-- Node13 -->
<g id="node13" class="node">
<title>Node13</title>
<g id="a_node13"><a xlink:title=" ">
<polygon fill="#e0e0e0" stroke="#999999" points="71,-129 27,-129 27,-110 71,-110 71,-129"/>
<text text-anchor="middle" x="49" y="-117" font-family="Helvetica,sans-Serif" font-size="10.00">vector</text>
</a>
</g>
</g>
<!-- Node2&#45;&gt;Node13 -->
<g id="edge15" class="edge">
<title>Node2&#45;&gt;Node13</title>
<path fill="none" stroke="#63b8ff" d="M147.81,-164.51C128.98,-156.12 100.63,-143.5 79.13,-133.92"/>
<polygon fill="#63b8ff" stroke="#63b8ff" points="80.83,-130.85 70.27,-129.97 77.98,-137.24 80.83,-130.85"/>
</g>
<!-- Node5 -->
<g id="node5" class="node">
<title>Node5</title>
<g id="a_node5"><a xlink:href="Helper_8h.html" target="_top" xlink:title=" ">
<polygon fill="white" stroke="#666666" points="312.5,-74 259.5,-74 259.5,-55 312.5,-55 312.5,-74"/>
<text text-anchor="middle" x="286" y="-62" font-family="Helvetica,sans-Serif" font-size="10.00">Helper.h</text>
</a>
</g>
</g>
<!-- Node4&#45;&gt;Node5 -->
<g id="edge4" class="edge">
<title>Node4&#45;&gt;Node5</title>
<path fill="none" stroke="#63b8ff" d="M212.93,-109.51C226.28,-101.47 246.11,-89.53 261.74,-80.11"/>
<polygon fill="#63b8ff" stroke="#63b8ff" points="263.24,-83.3 270,-75.14 259.62,-77.3 263.24,-83.3"/>
</g>
<!-- Node9 -->
<g id="node9" class="node">
<title>Node9</title>
<g id="a_node9"><a xlink:title=" ">
<polygon fill="#e0e0e0" stroke="#999999" points="245.5,-19 194.5,-19 194.5,0 245.5,0 245.5,-19"/>
<text text-anchor="middle" x="220" y="-7" font-family="Helvetica,sans-Serif" font-size="10.00">assert.h</text>
</a>
</g>
</g>
<!-- Node4&#45;&gt;Node9 -->
<g id="edge12" class="edge">
<title>Node4&#45;&gt;Node9</title>
<path fill="none" stroke="#63b8ff" d="M199.8,-109.66C203.3,-92.5 211.09,-54.26 215.91,-30.6"/>
<polygon fill="#63b8ff" stroke="#63b8ff" points="219.31,-31.44 217.87,-20.94 212.45,-30.04 219.31,-31.44"/>
</g>
<!-- Node5&#45;&gt;Node3 -->
<g id="edge5" class="edge">
<title>Node5&#45;&gt;Node3</title>
<path fill="none" stroke="#63b8ff" d="M259.21,-57.73C219.03,-49.07 142.46,-32.57 91.3,-21.55"/>
<polygon fill="#63b8ff" stroke="#63b8ff" points="92.15,-18.16 81.64,-19.47 90.68,-25 92.15,-18.16"/>
</g>
<!-- Node5&#45;&gt;Node6 -->
<g id="edge6" class="edge">
<title>Node5&#45;&gt;Node6</title>
<path fill="none" stroke="#63b8ff" d="M260.72,-54.51C236.5,-45.89 199.7,-32.8 172.53,-23.14"/>
<polygon fill="#63b8ff" stroke="#63b8ff" points="173.92,-19.92 163.33,-19.87 171.58,-26.51 173.92,-19.92"/>
</g>
<!-- Node7 -->
<g id="node7" class="node">
<title>Node7</title>
<g id="a_node7"><a xlink:title=" ">
<polygon fill="#e0e0e0" stroke="#999999" points="373.5,-19 326.5,-19 326.5,0 373.5,0 373.5,-19"/>
<text text-anchor="middle" x="350" y="-7" font-family="Helvetica,sans-Serif" font-size="10.00">iterator</text>
</a>
</g>
</g>
<!-- Node5&#45;&gt;Node7 -->
<g id="edge7" class="edge">
<title>Node5&#45;&gt;Node7</title>
<path fill="none" stroke="#63b8ff" d="M296.86,-54.51C306.11,-46.85 319.62,-35.66 330.71,-26.47"/>
<polygon fill="#63b8ff" stroke="#63b8ff" points="332.67,-29.4 338.14,-20.32 328.2,-24.01 332.67,-29.4"/>
</g>
<!-- Node8 -->
<g id="node8" class="node">
<title>Node8</title>
<g id="a_node8"><a xlink:title=" ">
<polygon fill="#e0e0e0" stroke="#999999" points="509,-19 461,-19 461,0 509,0 509,-19"/>
<text text-anchor="middle" x="485" y="-7" font-family="Helvetica,sans-Serif" font-size="10.00">stdint.h</text>
</a>
</g>
</g>
<!-- Node5&#45;&gt;Node8 -->
<g id="edge8" class="edge">
<title>Node5&#45;&gt;Node8</title>
<path fill="none" stroke="#63b8ff" d="M312.84,-56.35C348.2,-46.93 410.48,-30.35 449.65,-19.92"/>
<polygon fill="#63b8ff" stroke="#63b8ff" points="450.54,-23.3 459.3,-17.34 448.74,-16.54 450.54,-23.3"/>
</g>
<!-- Node5&#45;&gt;Node9 -->
<g id="edge9" class="edge">
<title>Node5&#45;&gt;Node9</title>
<path fill="none" stroke="#63b8ff" d="M274.8,-54.51C265.26,-46.85 251.33,-35.66 239.89,-26.47"/>
<polygon fill="#63b8ff" stroke="#63b8ff" points="242.2,-23.84 232.21,-20.31 237.82,-29.3 242.2,-23.84"/>
</g>
<!-- Node10 -->
<g id="node10" class="node">
<title>Node10</title>
<g id="a_node10"><a xlink:title=" ">
<polygon fill="#e0e0e0" stroke="#999999" points="442.5,-19 391.5,-19 391.5,0 442.5,0 442.5,-19"/>
<text text-anchor="middle" x="417" y="-7" font-family="Helvetica,sans-Serif" font-size="10.00">stdarg.h</text>
</a>
</g>
</g>
<!-- Node5&#45;&gt;Node10 -->
<g id="edge10" class="edge">
<title>Node5&#45;&gt;Node10</title>
<path fill="none" stroke="#63b8ff" d="M308.22,-54.51C329.14,-46.04 360.73,-33.27 384.48,-23.66"/>
<polygon fill="#63b8ff" stroke="#63b8ff" points="385.75,-26.92 393.7,-19.93 383.12,-20.43 385.75,-26.92"/>
</g>
<!-- Node11 -->
<g id="node11" class="node">
<title>Node11</title>
<g id="a_node11"><a xlink:title=" ">
<polygon fill="#e0e0e0" stroke="#999999" points="308.5,-19 263.5,-19 263.5,0 308.5,0 308.5,-19"/>
<text text-anchor="middle" x="286" y="-7" font-family="Helvetica,sans-Serif" font-size="10.00">stdio.h</text>
</a>
</g>
</g>
<!-- Node5&#45;&gt;Node11 -->
<g id="edge11" class="edge">
<title>Node5&#45;&gt;Node11</title>
<path fill="none" stroke="#63b8ff" d="M286,-54.75C286,-48.27 286,-39.16 286,-30.9"/>
<polygon fill="#63b8ff" stroke="#63b8ff" points="289.5,-30.96 286,-20.96 282.5,-30.96 289.5,-30.96"/>
</g>
<!-- Node14&#45;&gt;Node5 -->
<g id="edge17" class="edge">
<title>Node14&#45;&gt;Node5</title>
<path fill="none" stroke="#63b8ff" d="M331.57,-164.56C329.35,-151.97 324.42,-128.49 316,-110 311.76,-100.68 305.63,-91.17 300.02,-83.34"/>
<polygon fill="#63b8ff" stroke="#63b8ff" points="302.85,-81.29 294.05,-75.39 297.26,-85.49 302.85,-81.29"/>
</g>
<!-- Node15&#45;&gt;Node8 -->
<g id="edge19" class="edge">
<title>Node15&#45;&gt;Node8</title>
<path fill="none" stroke="#63b8ff" d="M414.42,-54.51C427.2,-46.54 446.1,-34.75 461.13,-25.38"/>
<polygon fill="#63b8ff" stroke="#63b8ff" points="462.88,-28.42 469.51,-20.16 459.17,-22.48 462.88,-28.42"/>
</g>
<!-- Node16&#45;&gt;Node8 -->
<g id="edge21" class="edge">
<title>Node16&#45;&gt;Node8</title>
<path fill="none" stroke="#63b8ff" d="M539.8,-54.51C530.26,-46.85 516.33,-35.66 504.89,-26.47"/>
<polygon fill="#63b8ff" stroke="#63b8ff" points="507.2,-23.84 497.21,-20.31 502.82,-29.3 507.2,-23.84"/>
</g>
</g>
</svg>
