<?xml version="1.0" encoding="UTF-8" standalone="no"?>
<!DOCTYPE svg PUBLIC "-//W3C//DTD SVG 1.1//EN"
 "http://www.w3.org/Graphics/SVG/1.1/DTD/svg11.dtd">
<!-- Generated by graphviz version 7.0.5 (20221223.1930)
 -->
<!-- Title: src/IMQTT_Client.h Pages: 1 -->
<svg width="698pt" height="247pt"
 viewBox="0.00 0.00 697.50 247.00" xmlns="http://www.w3.org/2000/svg" xmlns:xlink="http://www.w3.org/1999/xlink">
<g id="graph0" class="graph" transform="scale(1 1) rotate(0) translate(4 243)">
<title>src/IMQTT_Client.h</title>
<!-- Node1 -->
<g id="node1" class="node">
<title>Node1</title>
<g id="a_node1"><a xlink:title=" ">
<polygon fill="#999999" stroke="#666666" points="459.5,-239 358.5,-239 358.5,-220 459.5,-220 459.5,-239"/>
<text text-anchor="middle" x="409" y="-227" font-family="Helvetica,sans-Serif" font-size="10.00">src/IMQTT_Client.h</text>
</a>
</g>
</g>
<!-- Node2 -->
<g id="node2" class="node">
<title>Node2</title>
<g id="a_node2"><a xlink:href="Callback_8h.html" target="_top" xlink:title=" ">
<polygon fill="white" stroke="#666666" points="282,-184 220,-184 220,-165 282,-165 282,-184"/>
<text text-anchor="middle" x="251" y="-172" font-family="Helvetica,sans-Serif" font-size="10.00">Callback.h</text>
</a>
</g>
</g>
<!-- Node1&#45;&gt;Node2 -->
<g id="edge1" class="edge">
<title>Node1&#45;&gt;Node2</title>
<path fill="none" stroke="#63b8ff" d="M382.2,-219.51C356.47,-210.88 317.37,-197.76 288.55,-188.1"/>
<polygon fill="#63b8ff" stroke="#63b8ff" points="289.7,-184.79 279.1,-184.93 287.47,-191.43 289.7,-184.79"/>
</g>
<!-- Node13 -->
<g id="node13" class="node">
<title>Node13</title>
<g id="a_node13"><a xlink:href="DefaultLogger_8h.html" target="_top" xlink:title=" ">
<polygon fill="white" stroke="#666666" points="387.5,-184 302.5,-184 302.5,-165 387.5,-165 387.5,-184"/>
<text text-anchor="middle" x="345" y="-172" font-family="Helvetica,sans-Serif" font-size="10.00">DefaultLogger.h</text>
</a>
</g>
</g>
<!-- Node1&#45;&gt;Node13 -->
<g id="edge15" class="edge">
<title>Node1&#45;&gt;Node13</title>
<path fill="none" stroke="#63b8ff" d="M398.14,-219.51C388.89,-211.85 375.38,-200.66 364.29,-191.47"/>
<polygon fill="#63b8ff" stroke="#63b8ff" points="366.8,-189.01 356.86,-185.32 362.33,-194.4 366.8,-189.01"/>
</g>
<!-- Node14 -->
<g id="node14" class="node">
<title>Node14</title>
<g id="a_node14"><a xlink:href="MQTT__Connection__State_8h.html" target="_top" xlink:title=" ">
<polygon fill="white" stroke="#666666" points="540,-184 406,-184 406,-165 540,-165 540,-184"/>
<text text-anchor="middle" x="473" y="-172" font-family="Helvetica,sans-Serif" font-size="10.00">MQTT_Connection_State.h</text>
</a>
</g>
</g>
<!-- Node1&#45;&gt;Node14 -->
<g id="edge17" class="edge">
<title>Node1&#45;&gt;Node14</title>
<path fill="none" stroke="#63b8ff" d="M419.86,-219.51C429.11,-211.85 442.62,-200.66 453.71,-191.47"/>
<polygon fill="#63b8ff" stroke="#63b8ff" points="455.67,-194.4 461.14,-185.32 451.2,-189.01 455.67,-194.4"/>
</g>
<!-- Node16 -->
<g id="node16" class="node">
<title>Node16</title>
<g id="a_node16"><a xlink:href="MQTT__Connection__Error_8h.html" target="_top" xlink:title=" ">
<polygon fill="white" stroke="#666666" points="689.5,-184 558.5,-184 558.5,-165 689.5,-165 689.5,-184"/>
<text text-anchor="middle" x="624" y="-172" font-family="Helvetica,sans-Serif" font-size="10.00">MQTT_Connection_Error.h</text>
</a>
</g>
</g>
<!-- Node1&#45;&gt;Node16 -->
<g id="edge19" class="edge">
<title>Node1&#45;&gt;Node16</title>
<path fill="none" stroke="#63b8ff" d="M445.47,-219.51C481.64,-210.59 537.23,-196.89 576.76,-187.15"/>
<polygon fill="#63b8ff" stroke="#63b8ff" points="577.37,-190.6 586.24,-184.81 575.69,-183.8 577.37,-190.6"/>
</g>
<!-- Node3 -->
<g id="node3" class="node">
<title>Node3</title>
<g id="a_node3"><a xlink:href="Configuration_8h.html" target="_top" xlink:title=" ">
<polygon fill="white" stroke="#666666" points="80,-19 0,-19 0,0 80,0 80,-19"/>
<text text-anchor="middle" x="40" y="-7" font-family="Helvetica,sans-Serif" font-size="10.00">Configuration.h</text>
</a>
</g>
</g>
<!-- Node2&#45;&gt;Node3 -->
<g id="edge2" class="edge">
<title>Node2&#45;&gt;Node3</title>
<path fill="none" stroke="#63b8ff" d="M219.74,-164.88C197.06,-157.66 166.39,-145.8 143,-129 103.68,-100.75 69.34,-54.65 51.99,-29.08"/>
<polygon fill="#63b8ff" stroke="#63b8ff" points="54.92,-27.15 46.47,-20.74 49.08,-31.01 54.92,-27.15"/>
</g>
<!-- Node4 -->
<g id="node4" class="node">
<title>Node4</title>
<g id="a_node4"><a xlink:href="Container_8h.html" target="_top" xlink:title=" ">
<polygon fill="white" stroke="#666666" points="217.5,-129 152.5,-129 152.5,-110 217.5,-110 217.5,-129"/>
<text text-anchor="middle" x="185" y="-117" font-family="Helvetica,sans-Serif" font-size="10.00">Container.h</text>
</a>
</g>
</g>
<!-- Node2&#45;&gt;Node4 -->
<g id="edge3" class="edge">
<title>Node2&#45;&gt;Node4</title>
<path fill="none" stroke="#63b8ff" d="M239.8,-164.51C230.26,-156.85 216.33,-145.66 204.89,-136.47"/>
<polygon fill="#63b8ff" stroke="#63b8ff" points="207.2,-133.84 197.21,-130.31 202.82,-139.3 207.2,-133.84"/>
</g>
<!-- Node6 -->
<g id="node6" class="node">
<title>Node6</title>
<g id="a_node6"><a xlink:title=" ">
<polygon fill="#e0e0e0" stroke="#999999" points="443,-19 365,-19 365,0 443,0 443,-19"/>
<text text-anchor="middle" x="404" y="-7" font-family="Helvetica,sans-Serif" font-size="10.00">ArduinoJson.h</text>
</a>
</g>
</g>
<!-- Node2&#45;&gt;Node6 -->
<g id="edge12" class="edge">
<title>Node2&#45;&gt;Node6</title>
<path fill="none" stroke="#63b8ff" d="M251.01,-164.52C251.43,-151.46 253.81,-126.96 265,-110 291.65,-69.61 340.75,-40.3 372.88,-24.35"/>
<polygon fill="#63b8ff" stroke="#63b8ff" points="374.21,-27.59 381.71,-20.11 371.18,-21.28 374.21,-27.59"/>
</g>
<!-- Node11 -->
<g id="node11" class="node">
<title>Node11</title>
<g id="a_node11"><a xlink:title=" ">
<polygon fill="#e0e0e0" stroke="#999999" points="333.5,-129 274.5,-129 274.5,-110 333.5,-110 333.5,-129"/>
<text text-anchor="middle" x="304" y="-117" font-family="Helvetica,sans-Serif" font-size="10.00">functional</text>
</a>
</g>
</g>
<!-- Node2&#45;&gt;Node11 -->
<g id="edge13" class="edge">
<title>Node2&#45;&gt;Node11</title>
<path fill="none" stroke="#63b8ff" d="M259.75,-164.75C267.15,-157.35 277.96,-146.54 287.05,-137.45"/>
<polygon fill="#63b8ff" stroke="#63b8ff" points="289.39,-140.06 293.99,-130.51 284.44,-135.11 289.39,-140.06"/>
</g>
<!-- Node12 -->
<g id="node12" class="node">
<title>Node12</title>
<g id="a_node12"><a xlink:title=" ">
<polygon fill="#e0e0e0" stroke="#999999" points="396,-129 352,-129 352,-110 396,-110 396,-129"/>
<text text-anchor="middle" x="374" y="-117" font-family="Helvetica,sans-Serif" font-size="10.00">vector</text>
</a>
</g>
</g>
<!-- Node2&#45;&gt;Node12 -->
<g id="edge14" class="edge">
<title>Node2&#45;&gt;Node12</title>
<path fill="none" stroke="#63b8ff" d="M271.87,-164.51C291.42,-156.08 320.9,-143.38 343.17,-133.79"/>
<polygon fill="#63b8ff" stroke="#63b8ff" points="344.25,-137.13 352.05,-129.96 341.48,-130.7 344.25,-137.13"/>
</g>
<!-- Node5 -->
<g id="node5" class="node">
<title>Node5</title>
<g id="a_node5"><a xlink:href="Helper_8h.html" target="_top" xlink:title=" ">
<polygon fill="white" stroke="#666666" points="217.5,-74 164.5,-74 164.5,-55 217.5,-55 217.5,-74"/>
<text text-anchor="middle" x="191" y="-62" font-family="Helvetica,sans-Serif" font-size="10.00">Helper.h</text>
</a>
</g>
</g>
<!-- Node4&#45;&gt;Node5 -->
<g id="edge4" class="edge">
<title>Node4&#45;&gt;Node5</title>
<path fill="none" stroke="#63b8ff" d="M185.99,-109.75C186.73,-103.19 187.78,-93.95 188.72,-85.6"/>
<polygon fill="#63b8ff" stroke="#63b8ff" points="192.17,-86.28 189.82,-75.95 185.21,-85.49 192.17,-86.28"/>
</g>
<!-- Node8 -->
<g id="node8" class="node">
<title>Node8</title>
<g id="a_node8"><a xlink:title=" ">
<polygon fill="#e0e0e0" stroke="#999999" points="149.5,-19 98.5,-19 98.5,0 149.5,0 149.5,-19"/>
<text text-anchor="middle" x="124" y="-7" font-family="Helvetica,sans-Serif" font-size="10.00">assert.h</text>
</a>
</g>
</g>
<!-- Node4&#45;&gt;Node8 -->
<g id="edge11" class="edge">
<title>Node4&#45;&gt;Node8</title>
<path fill="none" stroke="#63b8ff" d="M178.41,-109.53C172.06,-100.71 162.36,-86.75 155,-74 146.64,-59.52 138.4,-42.46 132.51,-29.67"/>
<polygon fill="#63b8ff" stroke="#63b8ff" points="135.77,-28.38 128.46,-20.71 129.39,-31.26 135.77,-28.38"/>
</g>
<!-- Node5&#45;&gt;Node3 -->
<g id="edge5" class="edge">
<title>Node5&#45;&gt;Node3</title>
<path fill="none" stroke="#63b8ff" d="M165.38,-54.51C140.91,-45.92 103.76,-32.88 76.25,-23.22"/>
<polygon fill="#63b8ff" stroke="#63b8ff" points="77.51,-19.96 66.92,-19.95 75.19,-26.56 77.51,-19.96"/>
</g>
<!-- Node5&#45;&gt;Node6 -->
<g id="edge6" class="edge">
<title>Node5&#45;&gt;Node6</title>
<path fill="none" stroke="#63b8ff" d="M217.98,-56.79C252.92,-48.09 314.38,-32.8 357.05,-22.18"/>
<polygon fill="#63b8ff" stroke="#63b8ff" points="357.68,-25.63 366.54,-19.82 355.99,-18.84 357.68,-25.63"/>
</g>
<!-- Node7 -->
<g id="node7" class="node">
<title>Node7</title>
<g id="a_node7"><a xlink:title=" ">
<polygon fill="#e0e0e0" stroke="#999999" points="214.5,-19 167.5,-19 167.5,0 214.5,0 214.5,-19"/>
<text text-anchor="middle" x="191" y="-7" font-family="Helvetica,sans-Serif" font-size="10.00">iterator</text>
</a>
</g>
</g>
<!-- Node5&#45;&gt;Node7 -->
<g id="edge7" class="edge">
<title>Node5&#45;&gt;Node7</title>
<path fill="none" stroke="#63b8ff" d="M191,-54.75C191,-48.27 191,-39.16 191,-30.9"/>
<polygon fill="#63b8ff" stroke="#63b8ff" points="194.5,-30.96 191,-20.96 187.5,-30.96 194.5,-30.96"/>
</g>
<!-- Node5&#45;&gt;Node8 -->
<g id="edge8" class="edge">
<title>Node5&#45;&gt;Node8</title>
<path fill="none" stroke="#63b8ff" d="M179.63,-54.51C169.95,-46.85 155.8,-35.66 144.19,-26.47"/>
<polygon fill="#63b8ff" stroke="#63b8ff" points="146.4,-23.76 136.38,-20.3 142.06,-29.25 146.4,-23.76"/>
</g>
<!-- Node9 -->
<g id="node9" class="node">
<title>Node9</title>
<g id="a_node9"><a xlink:title=" ">
<polygon fill="#e0e0e0" stroke="#999999" points="283.5,-19 232.5,-19 232.5,0 283.5,0 283.5,-19"/>
<text text-anchor="middle" x="258" y="-7" font-family="Helvetica,sans-Serif" font-size="10.00">stdarg.h</text>
</a>
</g>
</g>
<!-- Node5&#45;&gt;Node9 -->
<g id="edge9" class="edge">
<title>Node5&#45;&gt;Node9</title>
<path fill="none" stroke="#63b8ff" d="M202.37,-54.51C212.05,-46.85 226.2,-35.66 237.81,-26.47"/>
<polygon fill="#63b8ff" stroke="#63b8ff" points="239.94,-29.25 245.62,-20.3 235.6,-23.76 239.94,-29.25"/>
</g>
<!-- Node10 -->
<g id="node10" class="node">
<title>Node10</title>
<g id="a_node10"><a xlink:title=" ">
<polygon fill="#e0e0e0" stroke="#999999" points="346.5,-19 301.5,-19 301.5,0 346.5,0 346.5,-19"/>
<text text-anchor="middle" x="324" y="-7" font-family="Helvetica,sans-Serif" font-size="10.00">stdio.h</text>
</a>
</g>
</g>
<!-- Node5&#45;&gt;Node10 -->
<g id="edge10" class="edge">
<title>Node5&#45;&gt;Node10</title>
<path fill="none" stroke="#63b8ff" d="M213.56,-54.51C234.9,-46.01 267.16,-33.15 291.31,-23.53"/>
<polygon fill="#63b8ff" stroke="#63b8ff" points="292.37,-26.87 300.37,-19.92 289.78,-20.37 292.37,-26.87"/>
</g>
<!-- Node13&#45;&gt;Node5 -->
<g id="edge16" class="edge">
<title>Node13&#45;&gt;Node5</title>
<path fill="none" stroke="#63b8ff" d="M364.25,-164.64C387.56,-152.7 421.75,-130.59 405,-110 383.25,-83.26 284.6,-72.06 229.15,-67.81"/>
<polygon fill="#63b8ff" stroke="#63b8ff" points="229.42,-64.32 219.19,-67.1 228.92,-71.31 229.42,-64.32"/>
</g>
<!-- Node15 -->
<g id="node15" class="node">
<title>Node15</title>
<g id="a_node15"><a xlink:title=" ">
<polygon fill="#e0e0e0" stroke="#999999" points="574,-129 526,-129 526,-110 574,-110 574,-129"/>
<text text-anchor="middle" x="550" y="-117" font-family="Helvetica,sans-Serif" font-size="10.00">stdint.h</text>
</a>
</g>
</g>
<!-- Node14&#45;&gt;Node15 -->
<g id="edge18" class="edge">
<title>Node14&#45;&gt;Node15</title>
<path fill="none" stroke="#63b8ff" d="M486.06,-164.51C497.52,-156.62 514.43,-144.98 527.98,-135.65"/>
<polygon fill="#63b8ff" stroke="#63b8ff" points="529.63,-138.77 535.88,-130.22 525.66,-133 529.63,-138.77"/>
</g>
<!-- Node16&#45;&gt;Node15 -->
<g id="edge20" class="edge">
<title>Node16&#45;&gt;Node15</title>
<path fill="none" stroke="#63b8ff" d="M611.45,-164.51C600.54,-156.7 584.5,-145.21 571.54,-135.93"/>
<polygon fill="#63b8ff" stroke="#63b8ff" points="573.77,-133.22 563.6,-130.24 569.69,-138.91 573.77,-133.22"/>
</g>
</g>
</svg>
