<?xml version="1.0" encoding="UTF-8" standalone="no"?>
<!DOCTYPE svg PUBLIC "-//W3C//DTD SVG 1.1//EN"
 "http://www.w3.org/Graphics/SVG/1.1/DTD/svg11.dtd">
<!-- Generated by graphviz version 7.0.5 (20221223.1930)
 -->
<!-- Title: Graphical Class Hierarchy Pages: 1 -->
<svg width="235pt" height="76pt"
 viewBox="0.00 0.00 235.00 75.50" xmlns="http://www.w3.org/2000/svg" xmlns:xlink="http://www.w3.org/1999/xlink">
<g id="graph0" class="graph" transform="scale(1 1) rotate(0) translate(4 71.5)">
<title>Graphical Class Hierarchy</title>
<!-- Node0 -->
<g id="node1" class="node">
<title>Node0</title>
<g id="a_node1"><a xlink:href="classIUpdater.html" target="_top" xlink:title="Updater interface that contains the method that a class that can be used to flash given binary data o...">
<polygon fill="white" stroke="#666666" points="54,-40 0,-40 0,-21 54,-21 54,-40"/>
<text text-anchor="middle" x="27" y="-28" font-family="Helvetica,sans-Serif" font-size="10.00">IUpdater</text>
</a>
</g>
</g>
<!-- Node1 -->
<g id="node2" class="node">
<title>Node1</title>
<g id="a_node2"><a xlink:href="classEspressif__Updater.html" target="_top" xlink:title="IUpdater implementation that uses the Over the Air Update API from Espressif (https://docs....">
<polygon fill="white" stroke="#666666" points="210,-67.5 107,-67.5 107,-37.5 210,-37.5 210,-67.5"/>
<text text-anchor="start" x="115" y="-55.5" font-family="Helvetica,sans-Serif" font-size="10.00">Espressif_Updater&lt;</text>
<text text-anchor="middle" x="158.5" y="-44.5" font-family="Helvetica,sans-Serif" font-size="10.00"> Logger &gt;</text>
</a>
</g>
</g>
<!-- Node0&#45;&gt;Node1 -->
<g id="edge1" class="edge">
<title>Node0&#45;&gt;Node1</title>
<path fill="none" stroke="#63b8ff" d="M65.45,-36.86C78.32,-39.05 92.95,-41.53 106.7,-43.87"/>
<polygon fill="#63b8ff" stroke="#63b8ff" points="66.14,-33.43 55.7,-35.21 64.97,-40.33 66.14,-33.43"/>
</g>
<!-- Node2 -->
<g id="node3" class="node">
<title>Node2</title>
<g id="a_node3"><a xlink:href="classSDCard__Updater.html" target="_top" xlink:title="IUpdater implementation that uses the c fopen function (https://cplusplus.com/reference/cstdio/fopen/...">
<polygon fill="white" stroke="#666666" points="227,-19 90,-19 90,0 227,0 227,-19"/>
<text text-anchor="middle" x="158.5" y="-7" font-family="Helvetica,sans-Serif" font-size="10.00">SDCard_Updater&lt; Logger &gt;</text>
</a>
</g>
</g>
<!-- Node0&#45;&gt;Node2 -->
<g id="edge2" class="edge">
<title>Node0&#45;&gt;Node2</title>
<path fill="none" stroke="#63b8ff" d="M65.35,-24.44C74.95,-22.89 85.54,-21.17 96.01,-19.47"/>
<polygon fill="#63b8ff" stroke="#63b8ff" points="65.01,-20.95 55.7,-26.01 66.13,-27.86 65.01,-20.95"/>
</g>
</g>
</svg>
