<?xml version="1.0" encoding="UTF-8" standalone="no"?>
<!DOCTYPE svg PUBLIC "-//W3C//DTD SVG 1.1//EN"
 "http://www.w3.org/Graphics/SVG/1.1/DTD/svg11.dtd">
<!-- Generated by graphviz version 7.0.5 (20221223.1930)
 -->
<!-- Title: src/IUpdater.h Pages: 1 -->
<svg width="517pt" height="192pt"
 viewBox="0.00 0.00 517.00 192.00" xmlns="http://www.w3.org/2000/svg" xmlns:xlink="http://www.w3.org/1999/xlink">
<g id="graph0" class="graph" transform="scale(1 1) rotate(0) translate(4 188)">
<title>src/IUpdater.h</title>
<!-- Node1 -->
<g id="node1" class="node">
<title>Node1</title>
<g id="a_node1"><a xlink:title=" ">
<polygon fill="#999999" stroke="#666666" points="359,-184 281,-184 281,-165 359,-165 359,-184"/>
<text text-anchor="middle" x="320" y="-172" font-family="Helvetica,sans-Serif" font-size="10.00">src/IUpdater.h</text>
</a>
</g>
</g>
<!-- Node2 -->
<g id="node2" class="node">
<title>Node2</title>
<g id="a_node2"><a xlink:href="Configuration_8h.html" target="_top" xlink:title=" ">
<polygon fill="white" stroke="#666666" points="80,-19 0,-19 0,0 80,0 80,-19"/>
<text text-anchor="middle" x="40" y="-7" font-family="Helvetica,sans-Serif" font-size="10.00">Configuration.h</text>
</a>
</g>
</g>
<!-- Node1&#45;&gt;Node2 -->
<g id="edge1" class="edge">
<title>Node1&#45;&gt;Node2</title>
<path fill="none" stroke="#63b8ff" d="M301.45,-164.53C283.68,-155.82 256.22,-142.04 233,-129 170.28,-93.78 98.64,-48.38 62.86,-25.34"/>
<polygon fill="#63b8ff" stroke="#63b8ff" points="64.93,-22.51 54.63,-20.02 61.13,-28.39 64.93,-22.51"/>
</g>
<!-- Node3 -->
<g id="node3" class="node">
<title>Node3</title>
<g id="a_node3"><a xlink:href="DefaultLogger_8h.html" target="_top" xlink:title=" ">
<polygon fill="white" stroke="#666666" points="327.5,-129 242.5,-129 242.5,-110 327.5,-110 327.5,-129"/>
<text text-anchor="middle" x="285" y="-117" font-family="Helvetica,sans-Serif" font-size="10.00">DefaultLogger.h</text>
</a>
</g>
</g>
<!-- Node1&#45;&gt;Node3 -->
<g id="edge2" class="edge">
<title>Node1&#45;&gt;Node3</title>
<path fill="none" stroke="#63b8ff" d="M314.22,-164.75C309.59,-157.73 302.93,-147.64 297.13,-138.87"/>
<polygon fill="#63b8ff" stroke="#63b8ff" points="300.17,-137.12 291.74,-130.71 294.33,-140.98 300.17,-137.12"/>
</g>
<!-- Node7 -->
<g id="node7" class="node">
<title>Node7</title>
<g id="a_node7"><a xlink:title=" ">
<polygon fill="#e0e0e0" stroke="#999999" points="509,-19 461,-19 461,0 509,0 509,-19"/>
<text text-anchor="middle" x="485" y="-7" font-family="Helvetica,sans-Serif" font-size="10.00">stdint.h</text>
</a>
</g>
</g>
<!-- Node1&#45;&gt;Node7 -->
<g id="edge12" class="edge">
<title>Node1&#45;&gt;Node7</title>
<path fill="none" stroke="#63b8ff" d="M327.32,-164.6C337.75,-152.07 357.66,-128.66 376,-110 406.18,-79.3 443.69,-46.04 465.91,-26.81"/>
<polygon fill="#63b8ff" stroke="#63b8ff" points="467.99,-29.63 473.29,-20.46 463.43,-24.33 467.99,-29.63"/>
</g>
<!-- Node11 -->
<g id="node11" class="node">
<title>Node11</title>
<g id="a_node11"><a xlink:title=" ">
<polygon fill="#e0e0e0" stroke="#999999" points="435.5,-129 384.5,-129 384.5,-110 435.5,-110 435.5,-129"/>
<text text-anchor="middle" x="410" y="-117" font-family="Helvetica,sans-Serif" font-size="10.00">stddef.h</text>
</a>
</g>
</g>
<!-- Node1&#45;&gt;Node11 -->
<g id="edge11" class="edge">
<title>Node1&#45;&gt;Node11</title>
<path fill="none" stroke="#63b8ff" d="M335.27,-164.51C348.93,-156.47 369.2,-144.53 385.18,-135.11"/>
<polygon fill="#63b8ff" stroke="#63b8ff" points="386.81,-138.22 393.65,-130.13 383.26,-132.18 386.81,-138.22"/>
</g>
<!-- Node4 -->
<g id="node4" class="node">
<title>Node4</title>
<g id="a_node4"><a xlink:href="Helper_8h.html" target="_top" xlink:title=" ">
<polygon fill="white" stroke="#666666" points="311.5,-74 258.5,-74 258.5,-55 311.5,-55 311.5,-74"/>
<text text-anchor="middle" x="285" y="-62" font-family="Helvetica,sans-Serif" font-size="10.00">Helper.h</text>
</a>
</g>
</g>
<!-- Node3&#45;&gt;Node4 -->
<g id="edge3" class="edge">
<title>Node3&#45;&gt;Node4</title>
<path fill="none" stroke="#63b8ff" d="M285,-109.75C285,-103.27 285,-94.16 285,-85.9"/>
<polygon fill="#63b8ff" stroke="#63b8ff" points="288.5,-85.96 285,-75.96 281.5,-85.96 288.5,-85.96"/>
</g>
<!-- Node4&#45;&gt;Node2 -->
<g id="edge4" class="edge">
<title>Node4&#45;&gt;Node2</title>
<path fill="none" stroke="#63b8ff" d="M258.31,-57.73C218.42,-49.1 142.48,-32.67 91.54,-21.65"/>
<polygon fill="#63b8ff" stroke="#63b8ff" points="92.43,-18.26 81.91,-19.57 90.95,-25.1 92.43,-18.26"/>
</g>
<!-- Node5 -->
<g id="node5" class="node">
<title>Node5</title>
<g id="a_node5"><a xlink:title=" ">
<polygon fill="#e0e0e0" stroke="#999999" points="176,-19 98,-19 98,0 176,0 176,-19"/>
<text text-anchor="middle" x="137" y="-7" font-family="Helvetica,sans-Serif" font-size="10.00">ArduinoJson.h</text>
</a>
</g>
</g>
<!-- Node4&#45;&gt;Node5 -->
<g id="edge5" class="edge">
<title>Node4&#45;&gt;Node5</title>
<path fill="none" stroke="#63b8ff" d="M259.89,-54.51C235.83,-45.89 199.28,-32.8 172.29,-23.14"/>
<polygon fill="#63b8ff" stroke="#63b8ff" points="173.75,-19.94 163.16,-19.87 171.39,-26.53 173.75,-19.94"/>
</g>
<!-- Node6 -->
<g id="node6" class="node">
<title>Node6</title>
<g id="a_node6"><a xlink:title=" ">
<polygon fill="#e0e0e0" stroke="#999999" points="241.5,-19 194.5,-19 194.5,0 241.5,0 241.5,-19"/>
<text text-anchor="middle" x="218" y="-7" font-family="Helvetica,sans-Serif" font-size="10.00">iterator</text>
</a>
</g>
</g>
<!-- Node4&#45;&gt;Node6 -->
<g id="edge6" class="edge">
<title>Node4&#45;&gt;Node6</title>
<path fill="none" stroke="#63b8ff" d="M273.63,-54.51C263.95,-46.85 249.8,-35.66 238.19,-26.47"/>
<polygon fill="#63b8ff" stroke="#63b8ff" points="240.4,-23.76 230.38,-20.3 236.06,-29.25 240.4,-23.76"/>
</g>
<!-- Node4&#45;&gt;Node7 -->
<g id="edge7" class="edge">
<title>Node4&#45;&gt;Node7</title>
<path fill="none" stroke="#63b8ff" d="M311.97,-56.35C347.59,-46.91 410.38,-30.28 449.72,-19.85"/>
<polygon fill="#63b8ff" stroke="#63b8ff" points="450.41,-23.29 459.18,-17.34 448.62,-16.52 450.41,-23.29"/>
</g>
<!-- Node8 -->
<g id="node8" class="node">
<title>Node8</title>
<g id="a_node8"><a xlink:title=" ">
<polygon fill="#e0e0e0" stroke="#999999" points="310.5,-19 259.5,-19 259.5,0 310.5,0 310.5,-19"/>
<text text-anchor="middle" x="285" y="-7" font-family="Helvetica,sans-Serif" font-size="10.00">assert.h</text>
</a>
</g>
</g>
<!-- Node4&#45;&gt;Node8 -->
<g id="edge8" class="edge">
<title>Node4&#45;&gt;Node8</title>
<path fill="none" stroke="#63b8ff" d="M285,-54.75C285,-48.27 285,-39.16 285,-30.9"/>
<polygon fill="#63b8ff" stroke="#63b8ff" points="288.5,-30.96 285,-20.96 281.5,-30.96 288.5,-30.96"/>
</g>
<!-- Node9 -->
<g id="node9" class="node">
<title>Node9</title>
<g id="a_node9"><a xlink:title=" ">
<polygon fill="#e0e0e0" stroke="#999999" points="379.5,-19 328.5,-19 328.5,0 379.5,0 379.5,-19"/>
<text text-anchor="middle" x="354" y="-7" font-family="Helvetica,sans-Serif" font-size="10.00">stdarg.h</text>
</a>
</g>
</g>
<!-- Node4&#45;&gt;Node9 -->
<g id="edge9" class="edge">
<title>Node4&#45;&gt;Node9</title>
<path fill="none" stroke="#63b8ff" d="M296.7,-54.51C306.78,-46.77 321.54,-35.43 333.56,-26.2"/>
<polygon fill="#63b8ff" stroke="#63b8ff" points="335.47,-29.15 341.27,-20.28 331.21,-23.6 335.47,-29.15"/>
</g>
<!-- Node10 -->
<g id="node10" class="node">
<title>Node10</title>
<g id="a_node10"><a xlink:title=" ">
<polygon fill="#e0e0e0" stroke="#999999" points="442.5,-19 397.5,-19 397.5,0 442.5,0 442.5,-19"/>
<text text-anchor="middle" x="420" y="-7" font-family="Helvetica,sans-Serif" font-size="10.00">stdio.h</text>
</a>
</g>
</g>
<!-- Node4&#45;&gt;Node10 -->
<g id="edge10" class="edge">
<title>Node4&#45;&gt;Node10</title>
<path fill="none" stroke="#63b8ff" d="M307.9,-54.51C329.56,-46.01 362.31,-33.15 386.82,-23.53"/>
<polygon fill="#63b8ff" stroke="#63b8ff" points="388,-26.82 396.03,-19.91 385.44,-20.31 388,-26.82"/>
</g>
</g>
</svg>
