<?xml version="1.0" encoding="UTF-8" standalone="no"?>
<!DOCTYPE svg PUBLIC "-//W3C//DTD SVG 1.1//EN"
 "http://www.w3.org/Graphics/SVG/1.1/DTD/svg11.dtd">
<!-- Generated by graphviz version 7.0.5 (20221223.1930)
 -->
<!-- Title: src/OTA_Handler.h Pages: 1 -->
<!--zoomable 302 -->
<svg id="main" version="1.1" xmlns="http://www.w3.org/2000/svg" xmlns:xlink="http://www.w3.org/1999/xlink" xml:space="preserve" onload="init(evt)">
<style type="text/css"><![CDATA[
.edge:hover path { stroke: red; }
.edge:hover polygon { stroke: red; fill: red; }
]]></style>
<script type="text/javascript"><![CDATA[
var edges = document.getElementsByTagName('g');
if (edges && edges.length) {
  for (var i=0;i<edges.length;i++) {
    if (edges[i].id.substr(0,4)=='edge') {
      edges[i].setAttribute('class','edge');
    }
  }
}
]]></script>
        <defs>
                <circle id="rim" cx="0" cy="0" r="7"/>
                <circle id="rim2" cx="0" cy="0" r="3.5"/>
                <g id="zoomPlus">
                        <use xlink:href="#rim" fill="#404040">
                                <set attributeName="fill" to="#808080" begin="zoomplus.mouseover" end="zoomplus.mouseout"/>
                        </use>
                        <path d="M-4,0h8M0,-4v8" fill="none" stroke="white" stroke-width="1.5" pointer-events="none"/>
                </g>
                <g id="zoomMin">
                        <use xlink:href="#rim" fill="#404040">
                                <set attributeName="fill" to="#808080" begin="zoomminus.mouseover" end="zoomminus.mouseout"/>
                        </use>
                        <path d="M-4,0h8" fill="none" stroke="white" stroke-width="1.5" pointer-events="none"/>
                </g>
                <g id="dirArrow">
                        <path fill="none" stroke="white" stroke-width="1.5" d="M0,-3.0v7 M-2.5,-0.5L0,-3.0L2.5,-0.5"/>
                </g>
               <g id="resetDef">
                       <use xlink:href="#rim2" fill="#404040">
                               <set attributeName="fill" to="#808080" begin="reset.mouseover" end="reset.mouseout"/>
                       </use>
               </g>
        </defs>

<script type="text/javascript">
var viewWidth = 935;
var viewHeight = 302;
var sectionId = 'dynsection-0';
</script>
<script xlink:href="svgpan.js"/>
<svg id="graph" class="graph">
<g id="viewport">
<title>src/OTA_Handler.h</title>
<!-- Node1 -->
<g id="node1" class="node">
<title>Node1</title>
<g id="a_node1"><a xlink:title=" ">
<polygon fill="#999999" stroke="#666666" points="531,-294 431,-294 431,-275 531,-275 531,-294"/>
<text text-anchor="middle" x="481" y="-282" font-family="Helvetica,sans-Serif" font-size="10.00">src/OTA_Handler.h</text>
</a>
</g>
</g>
<!-- Node2 -->
<g id="node2" class="node">
<title>Node2</title>
<g id="a_node2"><a xlink:href="Configuration_8h.html" target="_top" xlink:title=" ">
<polygon fill="white" stroke="#666666" points="521,-19 441,-19 441,0 521,0 521,-19"/>
<text text-anchor="middle" x="481" y="-7" font-family="Helvetica,sans-Serif" font-size="10.00">Configuration.h</text>
</a>
</g>
</g>
<!-- Node1&#45;&gt;Node2 -->
<g id="edge1" class="edge">
<title>Node1&#45;&gt;Node2</title>
<path fill="none" stroke="#63b8ff" d="M481,-274.54C481,-256.03 481,-212.25 481,-175.5 481,-175.5 481,-175.5 481,-118.5 481,-87.92 481,-52.48 481,-30.77"/>
<polygon fill="#63b8ff" stroke="#63b8ff" points="484.5,-30.97 481,-20.97 477.5,-30.97 484.5,-30.97"/>
</g>
<!-- Node3 -->
<g id="node3" class="node">
<title>Node3</title>
<g id="a_node3"><a xlink:href="Callback__Watchdog_8h.html" target="_top" xlink:title=" ">
<polygon fill="white" stroke="#666666" points="311,-239 201,-239 201,-220 311,-220 311,-239"/>
<text text-anchor="middle" x="256" y="-227" font-family="Helvetica,sans-Serif" font-size="10.00">Callback_Watchdog.h</text>
</a>
</g>
</g>
<!-- Node1&#45;&gt;Node3 -->
<g id="edge2" class="edge">
<title>Node1&#45;&gt;Node3</title>
<path fill="none" stroke="#63b8ff" d="M442.83,-274.51C404.9,-265.57 346.56,-251.83 305.17,-242.08"/>
<polygon fill="#63b8ff" stroke="#63b8ff" points="305.99,-238.68 295.45,-239.79 304.38,-245.49 305.99,-238.68"/>
</g>
<!-- Node6 -->
<g id="node6" class="node">
<title>Node6</title>
<g id="a_node6"><a xlink:href="Helper_8h.html" target="_top" xlink:title=" ">
<polygon fill="white" stroke="#666666" points="246.5,-74 193.5,-74 193.5,-55 246.5,-55 246.5,-74"/>
<text text-anchor="middle" x="220" y="-62" font-family="Helvetica,sans-Serif" font-size="10.00">Helper.h</text>
</a>
</g>
</g>
<!-- Node1&#45;&gt;Node6 -->
<g id="edge34" class="edge">
<title>Node1&#45;&gt;Node6</title>
<path fill="none" stroke="#63b8ff" d="M430.65,-282.41C357.17,-279.76 225.62,-270.59 192,-239 150.04,-199.57 159.39,-163.77 180,-110 184.11,-99.29 192.11,-89.54 199.89,-81.91"/>
<polygon fill="#63b8ff" stroke="#63b8ff" points="202.16,-84.58 207.23,-75.28 197.47,-79.39 202.16,-84.58"/>
</g>
<!-- Node16 -->
<g id="node16" class="node">
<title>Node16</title>
<g id="a_node16"><a xlink:href="HashGenerator_8h.html" target="_top" xlink:title=" ">
<polygon fill="white" stroke="#666666" points="710,-184 620,-184 620,-165 710,-165 710,-184"/>
<text text-anchor="middle" x="665" y="-172" font-family="Helvetica,sans-Serif" font-size="10.00">HashGenerator.h</text>
</a>
</g>
</g>
<!-- Node1&#45;&gt;Node16 -->
<g id="edge19" class="edge">
<title>Node1&#45;&gt;Node16</title>
<path fill="none" stroke="#63b8ff" d="M496.06,-274.66C527.73,-256.07 601.51,-212.77 640.24,-190.03"/>
<polygon fill="#63b8ff" stroke="#63b8ff" points="641.58,-193.31 648.43,-185.23 638.03,-187.27 641.58,-193.31"/>
</g>
<!-- Node19 -->
<g id="node19" class="node">
<title>Node19</title>
<g id="a_node19"><a xlink:href="OTA__Update__Callback_8h.html" target="_top" xlink:title=" ">
<polygon fill="white" stroke="#666666" points="453,-239 329,-239 329,-220 453,-220 453,-239"/>
<text text-anchor="middle" x="391" y="-227" font-family="Helvetica,sans-Serif" font-size="10.00">OTA_Update_Callback.h</text>
</a>
</g>
</g>
<!-- Node1&#45;&gt;Node19 -->
<g id="edge24" class="edge">
<title>Node1&#45;&gt;Node19</title>
<path fill="none" stroke="#63b8ff" d="M465.73,-274.51C452.07,-266.47 431.8,-254.53 415.82,-245.11"/>
<polygon fill="#63b8ff" stroke="#63b8ff" points="417.74,-242.18 407.35,-240.13 414.19,-248.22 417.74,-242.18"/>
</g>
<!-- Node22 -->
<g id="node22" class="node">
<title>Node22</title>
<g id="a_node22"><a xlink:href="OTA__Failure__Response_8h.html" target="_top" xlink:title=" ">
<polygon fill="white" stroke="#666666" points="887,-74 759,-74 759,-55 887,-55 887,-74"/>
<text text-anchor="middle" x="823" y="-62" font-family="Helvetica,sans-Serif" font-size="10.00">OTA_Failure_Response.h</text>
</a>
</g>
</g>
<!-- Node1&#45;&gt;Node22 -->
<g id="edge32" class="edge">
<title>Node1&#45;&gt;Node22</title>
<path fill="none" stroke="#63b8ff" d="M531.3,-278.63C611.63,-267.79 766.51,-233.71 832,-129 840.22,-115.86 836.84,-98.23 832.04,-84.88"/>
<polygon fill="#63b8ff" stroke="#63b8ff" points="835.37,-83.76 828.3,-75.87 828.9,-86.45 835.37,-83.76"/>
</g>
<!-- Node23 -->
<g id="node23" class="node">
<title>Node23</title>
<g id="a_node23"><a xlink:title=" ">
<polygon fill="#e0e0e0" stroke="#999999" points="927,-239 879,-239 879,-220 927,-220 927,-239"/>
<text text-anchor="middle" x="903" y="-227" font-family="Helvetica,sans-Serif" font-size="10.00">string.h</text>
</a>
</g>
</g>
<!-- Node1&#45;&gt;Node23 -->
<g id="edge35" class="edge">
<title>Node1&#45;&gt;Node23</title>
<path fill="none" stroke="#63b8ff" d="M531.25,-279.37C604.83,-272.94 746.06,-259.14 865,-239 865.82,-238.86 866.66,-238.71 867.5,-238.56"/>
<polygon fill="#63b8ff" stroke="#63b8ff" points="867.94,-242.04 877.06,-236.66 866.57,-235.18 867.94,-242.04"/>
</g>
<!-- Node4 -->
<g id="node4" class="node">
<title>Node4</title>
<g id="a_node4"><a xlink:href="Callback_8h.html" target="_top" xlink:title=" ">
<polygon fill="white" stroke="#666666" points="349,-184 287,-184 287,-165 349,-165 349,-184"/>
<text text-anchor="middle" x="318" y="-172" font-family="Helvetica,sans-Serif" font-size="10.00">Callback.h</text>
</a>
</g>
</g>
<!-- Node3&#45;&gt;Node4 -->
<g id="edge3" class="edge">
<title>Node3&#45;&gt;Node4</title>
<path fill="none" stroke="#63b8ff" d="M266.52,-219.51C275.39,-211.93 288.31,-200.88 298.99,-191.75"/>
<polygon fill="#63b8ff" stroke="#63b8ff" points="301.16,-194.5 306.49,-185.34 296.61,-189.18 301.16,-194.5"/>
</g>
<!-- Node15 -->
<g id="node15" class="node">
<title>Node15</title>
<g id="a_node15"><a xlink:title=" ">
<polygon fill="#e0e0e0" stroke="#999999" points="269,-184 189,-184 189,-165 269,-165 269,-184"/>
<text text-anchor="middle" x="229" y="-172" font-family="Helvetica,sans-Serif" font-size="10.00">arduino&#45;timer.h</text>
</a>
</g>
</g>
<!-- Node3&#45;&gt;Node15 -->
<g id="edge18" class="edge">
<title>Node3&#45;&gt;Node15</title>
<path fill="none" stroke="#63b8ff" d="M251.54,-219.75C248.05,-212.88 243.05,-203.08 238.65,-194.45"/>
<polygon fill="#63b8ff" stroke="#63b8ff" points="241.9,-193.11 234.24,-185.79 235.66,-196.29 241.9,-193.11"/>
</g>
<!-- Node4&#45;&gt;Node2 -->
<g id="edge4" class="edge">
<title>Node4&#45;&gt;Node2</title>
<path fill="none" stroke="#63b8ff" d="M322.53,-164.69C329.38,-151.84 343.25,-127.6 359,-110 389.41,-76.02 432.01,-44.06 457.98,-25.93"/>
<polygon fill="#63b8ff" stroke="#63b8ff" points="459.88,-28.88 466.14,-20.33 455.91,-23.11 459.88,-28.88"/>
</g>
<!-- Node5 -->
<g id="node5" class="node">
<title>Node5</title>
<g id="a_node5"><a xlink:href="Container_8h.html" target="_top" xlink:title=" ">
<polygon fill="white" stroke="#666666" points="132.5,-129 67.5,-129 67.5,-110 132.5,-110 132.5,-129"/>
<text text-anchor="middle" x="100" y="-117" font-family="Helvetica,sans-Serif" font-size="10.00">Container.h</text>
</a>
</g>
</g>
<!-- Node4&#45;&gt;Node5 -->
<g id="edge5" class="edge">
<title>Node4&#45;&gt;Node5</title>
<path fill="none" stroke="#63b8ff" d="M286.77,-165.91C249.34,-156.81 186.4,-141.51 144.05,-131.21"/>
<polygon fill="#63b8ff" stroke="#63b8ff" points="144.97,-127.83 134.43,-128.87 143.32,-134.63 144.97,-127.83"/>
</g>
<!-- Node7 -->
<g id="node7" class="node">
<title>Node7</title>
<g id="a_node7"><a xlink:title=" ">
<polygon fill="#e0e0e0" stroke="#999999" points="78,-19 0,-19 0,0 78,0 78,-19"/>
<text text-anchor="middle" x="39" y="-7" font-family="Helvetica,sans-Serif" font-size="10.00">ArduinoJson.h</text>
</a>
</g>
</g>
<!-- Node4&#45;&gt;Node7 -->
<g id="edge15" class="edge">
<title>Node4&#45;&gt;Node7</title>
<path fill="none" stroke="#63b8ff" d="M286.59,-166.68C283.69,-166.09 280.79,-165.52 278,-165 229.31,-155.85 92.97,-164.09 58,-129 32.21,-103.13 32.83,-57.12 35.79,-30.69"/>
<polygon fill="#63b8ff" stroke="#63b8ff" points="39.23,-31.34 37.11,-20.96 32.3,-30.39 39.23,-31.34"/>
</g>
<!-- Node13 -->
<g id="node13" class="node">
<title>Node13</title>
<g id="a_node13"><a xlink:title=" ">
<polygon fill="#e0e0e0" stroke="#999999" points="248.5,-129 189.5,-129 189.5,-110 248.5,-110 248.5,-129"/>
<text text-anchor="middle" x="219" y="-117" font-family="Helvetica,sans-Serif" font-size="10.00">functional</text>
</a>
</g>
</g>
<!-- Node4&#45;&gt;Node13 -->
<g id="edge16" class="edge">
<title>Node4&#45;&gt;Node13</title>
<path fill="none" stroke="#63b8ff" d="M301.21,-164.51C285.9,-156.31 263.03,-144.07 245.3,-134.58"/>
<polygon fill="#63b8ff" stroke="#63b8ff" points="247.35,-131.71 236.88,-130.07 244.04,-137.88 247.35,-131.71"/>
</g>
<!-- Node14 -->
<g id="node14" class="node">
<title>Node14</title>
<g id="a_node14"><a xlink:title=" ">
<polygon fill="#e0e0e0" stroke="#999999" points="311,-129 267,-129 267,-110 311,-110 311,-129"/>
<text text-anchor="middle" x="289" y="-117" font-family="Helvetica,sans-Serif" font-size="10.00">vector</text>
</a>
</g>
</g>
<!-- Node4&#45;&gt;Node14 -->
<g id="edge17" class="edge">
<title>Node4&#45;&gt;Node14</title>
<path fill="none" stroke="#63b8ff" d="M313.21,-164.75C309.46,-157.88 304.09,-148.08 299.37,-139.45"/>
<polygon fill="#63b8ff" stroke="#63b8ff" points="302.49,-137.86 294.62,-130.77 296.35,-141.22 302.49,-137.86"/>
</g>
<!-- Node5&#45;&gt;Node6 -->
<g id="edge6" class="edge">
<title>Node5&#45;&gt;Node6</title>
<path fill="none" stroke="#63b8ff" d="M120.36,-109.51C139.35,-101.12 167.93,-88.5 189.62,-78.92"/>
<polygon fill="#63b8ff" stroke="#63b8ff" points="190.83,-82.21 198.56,-74.97 188,-75.81 190.83,-82.21"/>
</g>
<!-- Node10 -->
<g id="node10" class="node">
<title>Node10</title>
<g id="a_node10"><a xlink:title=" ">
<polygon fill="#e0e0e0" stroke="#999999" points="147.5,-19 96.5,-19 96.5,0 147.5,0 147.5,-19"/>
<text text-anchor="middle" x="122" y="-7" font-family="Helvetica,sans-Serif" font-size="10.00">assert.h</text>
</a>
</g>
</g>
<!-- Node5&#45;&gt;Node10 -->
<g id="edge14" class="edge">
<title>Node5&#45;&gt;Node10</title>
<path fill="none" stroke="#63b8ff" d="M101.8,-109.66C105.3,-92.5 113.09,-54.26 117.91,-30.6"/>
<polygon fill="#63b8ff" stroke="#63b8ff" points="121.31,-31.44 119.87,-20.94 114.45,-30.04 121.31,-31.44"/>
</g>
<!-- Node6&#45;&gt;Node2 -->
<g id="edge7" class="edge">
<title>Node6&#45;&gt;Node2</title>
<path fill="none" stroke="#63b8ff" d="M246.95,-58.03C289.87,-49.31 374.51,-32.12 429.38,-20.98"/>
<polygon fill="#63b8ff" stroke="#63b8ff" points="430.02,-24.42 439.12,-19 428.63,-17.56 430.02,-24.42"/>
</g>
<!-- Node6&#45;&gt;Node7 -->
<g id="edge8" class="edge">
<title>Node6&#45;&gt;Node7</title>
<path fill="none" stroke="#63b8ff" d="M193.29,-55.68C163.48,-46.95 114.87,-32.72 80.18,-22.56"/>
<polygon fill="#63b8ff" stroke="#63b8ff" points="81.48,-19.29 70.9,-19.84 79.51,-26.01 81.48,-19.29"/>
</g>
<!-- Node8 -->
<g id="node8" class="node">
<title>Node8</title>
<g id="a_node8"><a xlink:title=" ">
<polygon fill="#e0e0e0" stroke="#999999" points="275.5,-19 228.5,-19 228.5,0 275.5,0 275.5,-19"/>
<text text-anchor="middle" x="252" y="-7" font-family="Helvetica,sans-Serif" font-size="10.00">iterator</text>
</a>
</g>
</g>
<!-- Node6&#45;&gt;Node8 -->
<g id="edge9" class="edge">
<title>Node6&#45;&gt;Node8</title>
<path fill="none" stroke="#63b8ff" d="M225.28,-54.75C229.47,-47.81 235.48,-37.86 240.73,-29.16"/>
<polygon fill="#63b8ff" stroke="#63b8ff" points="243.65,-31.11 245.82,-20.74 237.65,-27.49 243.65,-31.11"/>
</g>
<!-- Node9 -->
<g id="node9" class="node">
<title>Node9</title>
<g id="a_node9"><a xlink:title=" ">
<polygon fill="#e0e0e0" stroke="#999999" points="691,-19 643,-19 643,0 691,0 691,-19"/>
<text text-anchor="middle" x="667" y="-7" font-family="Helvetica,sans-Serif" font-size="10.00">stdint.h</text>
</a>
</g>
</g>
<!-- Node6&#45;&gt;Node9 -->
<g id="edge10" class="edge">
<title>Node6&#45;&gt;Node9</title>
<path fill="none" stroke="#63b8ff" d="M246.96,-60.3C323.84,-51.19 544.26,-25.05 631.16,-14.75"/>
<polygon fill="#63b8ff" stroke="#63b8ff" points="631.49,-18.24 641,-13.58 630.66,-11.28 631.49,-18.24"/>
</g>
<!-- Node6&#45;&gt;Node10 -->
<g id="edge11" class="edge">
<title>Node6&#45;&gt;Node10</title>
<path fill="none" stroke="#63b8ff" d="M203.38,-54.51C188.22,-46.31 165.58,-34.07 148.03,-24.58"/>
<polygon fill="#63b8ff" stroke="#63b8ff" points="150.17,-21.76 139.71,-20.08 146.84,-27.91 150.17,-21.76"/>
</g>
<!-- Node11 -->
<g id="node11" class="node">
<title>Node11</title>
<g id="a_node11"><a xlink:title=" ">
<polygon fill="#e0e0e0" stroke="#999999" points="344.5,-19 293.5,-19 293.5,0 344.5,0 344.5,-19"/>
<text text-anchor="middle" x="319" y="-7" font-family="Helvetica,sans-Serif" font-size="10.00">stdarg.h</text>
</a>
</g>
</g>
<!-- Node6&#45;&gt;Node11 -->
<g id="edge12" class="edge">
<title>Node6&#45;&gt;Node11</title>
<path fill="none" stroke="#63b8ff" d="M236.79,-54.51C252.1,-46.31 274.97,-34.07 292.7,-24.58"/>
<polygon fill="#63b8ff" stroke="#63b8ff" points="293.96,-27.88 301.12,-20.07 290.65,-21.71 293.96,-27.88"/>
</g>
<!-- Node12 -->
<g id="node12" class="node">
<title>Node12</title>
<g id="a_node12"><a xlink:title=" ">
<polygon fill="#e0e0e0" stroke="#999999" points="210.5,-19 165.5,-19 165.5,0 210.5,0 210.5,-19"/>
<text text-anchor="middle" x="188" y="-7" font-family="Helvetica,sans-Serif" font-size="10.00">stdio.h</text>
</a>
</g>
</g>
<!-- Node6&#45;&gt;Node12 -->
<g id="edge13" class="edge">
<title>Node6&#45;&gt;Node12</title>
<path fill="none" stroke="#63b8ff" d="M214.72,-54.75C210.53,-47.81 204.52,-37.86 199.27,-29.16"/>
<polygon fill="#63b8ff" stroke="#63b8ff" points="202.35,-27.49 194.18,-20.74 196.35,-31.11 202.35,-27.49"/>
</g>
<!-- Node16&#45;&gt;Node2 -->
<g id="edge20" class="edge">
<title>Node16&#45;&gt;Node2</title>
<path fill="none" stroke="#63b8ff" d="M664.37,-164.8C663.02,-151.66 658.83,-126.55 646,-110 612.8,-67.17 555.54,-38.7 517.97,-23.57"/>
<polygon fill="#63b8ff" stroke="#63b8ff" points="519.46,-20.39 508.87,-20.03 516.92,-26.92 519.46,-20.39"/>
</g>
<!-- Node16&#45;&gt;Node9 -->
<g id="edge22" class="edge">
<title>Node16&#45;&gt;Node9</title>
<path fill="none" stroke="#63b8ff" d="M668.6,-164.82C672.06,-155.99 677.03,-141.81 679,-129 684.3,-94.52 677.4,-54.03 672.08,-30.42"/>
<polygon fill="#63b8ff" stroke="#63b8ff" points="675.54,-29.84 669.8,-20.93 668.74,-31.47 675.54,-29.84"/>
</g>
<!-- Node17 -->
<g id="node17" class="node">
<title>Node17</title>
<g id="a_node17"><a xlink:title=" ">
<polygon fill="#e0e0e0" stroke="#999999" points="823,-129 731,-129 731,-110 823,-110 823,-129"/>
<text text-anchor="middle" x="777" y="-117" font-family="Helvetica,sans-Serif" font-size="10.00">Seeed_mbedtls.h</text>
</a>
</g>
</g>
<!-- Node16&#45;&gt;Node17 -->
<g id="edge21" class="edge">
<title>Node16&#45;&gt;Node17</title>
<path fill="none" stroke="#63b8ff" d="M684,-164.51C701.56,-156.2 727.92,-143.73 748.09,-134.18"/>
<polygon fill="#63b8ff" stroke="#63b8ff" points="749.37,-137.45 756.91,-130.01 746.38,-131.12 749.37,-137.45"/>
</g>
<!-- Node18 -->
<g id="node18" class="node">
<title>Node18</title>
<g id="a_node18"><a xlink:title=" ">
<polygon fill="#e0e0e0" stroke="#999999" points="636.5,-129 585.5,-129 585.5,-110 636.5,-110 636.5,-129"/>
<text text-anchor="middle" x="611" y="-117" font-family="Helvetica,sans-Serif" font-size="10.00">stddef.h</text>
</a>
</g>
</g>
<!-- Node16&#45;&gt;Node18 -->
<g id="edge23" class="edge">
<title>Node16&#45;&gt;Node18</title>
<path fill="none" stroke="#63b8ff" d="M656.08,-164.75C648.55,-157.35 637.53,-146.54 628.27,-137.45"/>
<polygon fill="#63b8ff" stroke="#63b8ff" points="630.78,-135.01 621.19,-130.5 625.88,-140 630.78,-135.01"/>
</g>
<!-- Node19&#45;&gt;Node4 -->
<g id="edge25" class="edge">
<title>Node19&#45;&gt;Node4</title>
<path fill="none" stroke="#63b8ff" d="M378.62,-219.51C367.85,-211.7 352.03,-200.21 339.25,-190.93"/>
<polygon fill="#63b8ff" stroke="#63b8ff" points="341.57,-188.29 331.43,-185.25 337.46,-193.95 341.57,-188.29"/>
</g>
<!-- Node20 -->
<g id="node20" class="node">
<title>Node20</title>
<g id="a_node20"><a xlink:href="IUpdater_8h.html" target="_top" xlink:title=" ">
<polygon fill="white" stroke="#666666" points="571,-184 509,-184 509,-165 571,-165 571,-184"/>
<text text-anchor="middle" x="540" y="-172" font-family="Helvetica,sans-Serif" font-size="10.00">IUpdater.h</text>
</a>
</g>
</g>
<!-- Node19&#45;&gt;Node20 -->
<g id="edge26" class="edge">
<title>Node19&#45;&gt;Node20</title>
<path fill="none" stroke="#63b8ff" d="M416.28,-219.51C440.5,-210.89 477.3,-197.8 504.47,-188.14"/>
<polygon fill="#63b8ff" stroke="#63b8ff" points="505.42,-191.51 513.67,-184.87 503.08,-184.92 505.42,-191.51"/>
</g>
<!-- Node20&#45;&gt;Node2 -->
<g id="edge27" class="edge">
<title>Node20&#45;&gt;Node2</title>
<path fill="none" stroke="#63b8ff" d="M536.83,-164.74C527.62,-139.31 500.75,-65.08 487.95,-29.69"/>
<polygon fill="#63b8ff" stroke="#63b8ff" points="491.4,-28.94 484.7,-20.73 484.82,-31.32 491.4,-28.94"/>
</g>
<!-- Node20&#45;&gt;Node9 -->
<g id="edge31" class="edge">
<title>Node20&#45;&gt;Node9</title>
<path fill="none" stroke="#63b8ff" d="M544.48,-164.51C550.94,-151.87 563.59,-128.33 577,-110 599.79,-78.84 630.8,-46.32 649.83,-27.26"/>
<polygon fill="#63b8ff" stroke="#63b8ff" points="652.17,-29.87 656.81,-20.34 647.24,-24.89 652.17,-29.87"/>
</g>
<!-- Node20&#45;&gt;Node18 -->
<g id="edge30" class="edge">
<title>Node20&#45;&gt;Node18</title>
<path fill="none" stroke="#63b8ff" d="M552.04,-164.51C562.41,-156.77 577.6,-145.43 589.97,-136.2"/>
<polygon fill="#63b8ff" stroke="#63b8ff" points="592,-139.05 597.92,-130.26 587.81,-133.44 592,-139.05"/>
</g>
<!-- Node21 -->
<g id="node21" class="node">
<title>Node21</title>
<g id="a_node21"><a xlink:href="DefaultLogger_8h.html" target="_top" xlink:title=" ">
<polygon fill="white" stroke="#666666" points="452.5,-129 367.5,-129 367.5,-110 452.5,-110 452.5,-129"/>
<text text-anchor="middle" x="410" y="-117" font-family="Helvetica,sans-Serif" font-size="10.00">DefaultLogger.h</text>
</a>
</g>
</g>
<!-- Node20&#45;&gt;Node21 -->
<g id="edge28" class="edge">
<title>Node20&#45;&gt;Node21</title>
<path fill="none" stroke="#63b8ff" d="M517.95,-164.51C497.19,-156.04 465.84,-143.27 442.27,-133.66"/>
<polygon fill="#63b8ff" stroke="#63b8ff" points="443.71,-130.46 433.13,-129.93 441.07,-136.95 443.71,-130.46"/>
</g>
<!-- Node21&#45;&gt;Node6 -->
<g id="edge29" class="edge">
<title>Node21&#45;&gt;Node6</title>
<path fill="none" stroke="#63b8ff" d="M377.77,-109.51C344.52,-100.24 292.71,-85.78 257.61,-75.99"/>
<polygon fill="#63b8ff" stroke="#63b8ff" points="258.88,-72.71 248.31,-73.4 257,-79.45 258.88,-72.71"/>
</g>
<!-- Node22&#45;&gt;Node9 -->
<g id="edge33" class="edge">
<title>Node22&#45;&gt;Node9</title>
<path fill="none" stroke="#63b8ff" d="M796.54,-54.51C770.52,-45.67 730.66,-32.13 702.03,-22.4"/>
<polygon fill="#63b8ff" stroke="#63b8ff" points="703.31,-19.14 692.71,-19.24 701.06,-25.77 703.31,-19.14"/>
</g>
</g>
</svg>
        <g id="navigator" transform="translate(0 0)" fill="#404254">
                <rect fill="#f2f5e9" fill-opacity="0.5" stroke="#606060" stroke-width=".5" x="0" y="0" width="60" height="60"/>
                <use id="zoomplus" xlink:href="#zoomPlus" x="17" y="9" onmousedown="handleZoom(evt,'in')"/>
                <use id="zoomminus" xlink:href="#zoomMin" x="42" y="9" onmousedown="handleZoom(evt,'out')"/>
                <use id="reset" xlink:href="#resetDef" x="30" y="36" onmousedown="handleReset()"/>
                <g id="arrowUp" xlink:href="#dirArrow" transform="translate(30 24)" onmousedown="handlePan(0,-1)">
                  <use xlink:href="#rim" fill="#404040">
                        <set attributeName="fill" to="#808080" begin="arrowUp.mouseover" end="arrowUp.mouseout"/>
                  </use>
                  <path fill="none" stroke="white" stroke-width="1.5" d="M0,-3.0v7 M-2.5,-0.5L0,-3.0L2.5,-0.5"/>
                </g>
                <g id="arrowRight" xlink:href="#dirArrow" transform="rotate(90) translate(36 -43)" onmousedown="handlePan(1,0)">
                  <use xlink:href="#rim" fill="#404040">
                        <set attributeName="fill" to="#808080" begin="arrowRight.mouseover" end="arrowRight.mouseout"/>
                  </use>
                  <path fill="none" stroke="white" stroke-width="1.5" d="M0,-3.0v7 M-2.5,-0.5L0,-3.0L2.5,-0.5"/>
                </g>
                <g id="arrowDown" xlink:href="#dirArrow" transform="rotate(180) translate(-30 -48)" onmousedown="handlePan(0,1)">
                  <use xlink:href="#rim" fill="#404040">
                        <set attributeName="fill" to="#808080" begin="arrowDown.mouseover" end="arrowDown.mouseout"/>
                  </use>
                  <path fill="none" stroke="white" stroke-width="1.5" d="M0,-3.0v7 M-2.5,-0.5L0,-3.0L2.5,-0.5"/>
                </g>
                <g id="arrowLeft" xlink:href="#dirArrow" transform="rotate(270) translate(-36 17)" onmousedown="handlePan(-1,0)">
                  <use xlink:href="#rim" fill="#404040">
                        <set attributeName="fill" to="#808080" begin="arrowLeft.mouseover" end="arrowLeft.mouseout"/>
                  </use>
                  <path fill="none" stroke="white" stroke-width="1.5" d="M0,-3.0v7 M-2.5,-0.5L0,-3.0L2.5,-0.5"/>
                </g>
        </g>
        <svg viewBox="0 0 15 15" width="100%" height="30px" preserveAspectRatio="xMaxYMin meet">
         <g id="arrow_out" transform="scale(0.3 0.3)">
          <a xlink:href="OTA__Handler_8h__incl_org.svg" target="_base">
           <rect id="button" ry="5" rx="5" y="6" x="6" height="38" width="38"
                fill="#f2f5e9" fill-opacity="0.5" stroke="#606060" stroke-width="1.0"/>
           <path id="arrow"
             d="M 11.500037,31.436501 C 11.940474,20.09759 22.043105,11.32322 32.158766,21.979434 L 37.068811,17.246167 C 37.068811,17.246167 37.088388,32 37.088388,32 L 22.160133,31.978069 C 22.160133,31.978069 26.997745,27.140456 26.997745,27.140456 C 18.528582,18.264221 13.291696,25.230495 11.500037,31.436501 z"
             style="fill:#404040;"/>
          </a>
         </g>
        </svg>
</svg>
