<?xml version="1.0" encoding="UTF-8" standalone="no"?>
<!DOCTYPE svg PUBLIC "-//W3C//DTD SVG 1.1//EN"
 "http://www.w3.org/Graphics/SVG/1.1/DTD/svg11.dtd">
<!-- Generated by graphviz version 7.0.5 (20221223.1930)
 -->
<!-- Title: src/OTA_Handler.h Pages: 1 -->
<svg width="891pt" height="412pt"
 viewBox="0.00 0.00 891.00 412.00" xmlns="http://www.w3.org/2000/svg" xmlns:xlink="http://www.w3.org/1999/xlink">
<g id="graph0" class="graph" transform="scale(1 1) rotate(0) translate(4 408)">
<title>src/OTA_Handler.h</title>
<!-- Node1 -->
<g id="node1" class="node">
<title>Node1</title>
<g id="a_node1"><a xlink:title=" ">
<polygon fill="#999999" stroke="#666666" points="484,-404 384,-404 384,-385 484,-385 484,-404"/>
<text text-anchor="middle" x="434" y="-392" font-family="Helvetica,sans-Serif" font-size="10.00">src/OTA_Handler.h</text>
</a>
</g>
</g>
<!-- Node2 -->
<g id="node2" class="node">
<title>Node2</title>
<g id="a_node2"><a xlink:href="Configuration_8h.html" target="_top" xlink:title=" ">
<polygon fill="white" stroke="#666666" points="444,-19 364,-19 364,0 444,0 444,-19"/>
<text text-anchor="middle" x="404" y="-7" font-family="Helvetica,sans-Serif" font-size="10.00">Configuration.h</text>
</a>
</g>
</g>
<!-- Node1&#45;&gt;Node2 -->
<g id="edge1" class="edge">
<title>Node1&#45;&gt;Node2</title>
<path fill="none" stroke="#63b8ff" d="M383.57,-384.8C331.56,-372.59 258,-344.83 258,-285.5 258,-285.5 258,-285.5 258,-173.5 258,-144.04 260.4,-134.34 277,-110 284.36,-99.21 348.45,-51.29 382.67,-26.1"/>
<polygon fill="#63b8ff" stroke="#63b8ff" points="384.64,-29 390.63,-20.26 380.5,-23.35 384.64,-29"/>
</g>
<!-- Node3 -->
<g id="node3" class="node">
<title>Node3</title>
<g id="a_node3"><a xlink:href="Callback__Watchdog_8h.html" target="_top" xlink:title=" ">
<polygon fill="white" stroke="#666666" points="578,-239 468,-239 468,-220 578,-220 578,-239"/>
<text text-anchor="middle" x="523" y="-227" font-family="Helvetica,sans-Serif" font-size="10.00">Callback_Watchdog.h</text>
</a>
</g>
</g>
<!-- Node1&#45;&gt;Node3 -->
<g id="edge2" class="edge">
<title>Node1&#45;&gt;Node3</title>
<path fill="none" stroke="#63b8ff" d="M433.2,-384.6C431.77,-363.63 430.81,-310.19 454,-275 462.66,-261.85 476.7,-251.76 489.86,-244.54"/>
<polygon fill="#63b8ff" stroke="#63b8ff" points="491.4,-247.68 498.75,-240.05 488.25,-241.44 491.4,-247.68"/>
</g>
<!-- Node9 -->
<g id="node9" class="node">
<title>Node9</title>
<g id="a_node9"><a xlink:href="Helper_8h.html" target="_top" xlink:title=" ">
<polygon fill="white" stroke="#666666" points="673.5,-74 620.5,-74 620.5,-55 673.5,-55 673.5,-74"/>
<text text-anchor="middle" x="647" y="-62" font-family="Helvetica,sans-Serif" font-size="10.00">Helper.h</text>
</a>
</g>
</g>
<!-- Node1&#45;&gt;Node9 -->
<g id="edge36" class="edge">
<title>Node1&#45;&gt;Node9</title>
<path fill="none" stroke="#63b8ff" d="M484.3,-389.52C586.12,-380.06 807,-351.91 807,-285.5 807,-285.5 807,-285.5 807,-173.5 807,-143.91 807.89,-130.95 787,-110 760.01,-82.94 716.65,-72.31 685.33,-68.15"/>
<polygon fill="#63b8ff" stroke="#63b8ff" points="685.81,-64.68 675.48,-67.02 685.01,-71.64 685.81,-64.68"/>
</g>
<!-- Node16 -->
<g id="node16" class="node">
<title>Node16</title>
<g id="a_node16"><a xlink:href="HashGenerator_8h.html" target="_top" xlink:title=" ">
<polygon fill="white" stroke="#666666" points="230,-184 140,-184 140,-165 230,-165 230,-184"/>
<text text-anchor="middle" x="185" y="-172" font-family="Helvetica,sans-Serif" font-size="10.00">HashGenerator.h</text>
</a>
</g>
</g>
<!-- Node1&#45;&gt;Node16 -->
<g id="edge19" class="edge">
<title>Node1&#45;&gt;Node16</title>
<path fill="none" stroke="#63b8ff" d="M383.73,-387.3C334.58,-380.28 264.27,-367.38 244,-349 199.08,-308.27 188.34,-232.02 185.79,-195.71"/>
<polygon fill="#63b8ff" stroke="#63b8ff" points="189.29,-195.59 185.25,-185.8 182.3,-195.97 189.29,-195.59"/>
</g>
<!-- Node19 -->
<g id="node19" class="node">
<title>Node19</title>
<g id="a_node19"><a xlink:href="OTA__Update__Callback_8h.html" target="_top" xlink:title=" ">
<polygon fill="white" stroke="#666666" points="586,-349 462,-349 462,-330 586,-330 586,-349"/>
<text text-anchor="middle" x="524" y="-337" font-family="Helvetica,sans-Serif" font-size="10.00">OTA_Update_Callback.h</text>
</a>
</g>
</g>
<!-- Node1&#45;&gt;Node19 -->
<g id="edge24" class="edge">
<title>Node1&#45;&gt;Node19</title>
<path fill="none" stroke="#63b8ff" d="M449.27,-384.51C462.93,-376.47 483.2,-364.53 499.18,-355.11"/>
<polygon fill="#63b8ff" stroke="#63b8ff" points="500.81,-358.22 507.65,-350.13 497.26,-352.18 500.81,-358.22"/>
</g>
<!-- Node23 -->
<g id="node23" class="node">
<title>Node23</title>
<g id="a_node23"><a xlink:href="OTA__Failure__Response_8h.html" target="_top" xlink:title=" ">
<polygon fill="white" stroke="#666666" points="128,-294 0,-294 0,-275 128,-275 128,-294"/>
<text text-anchor="middle" x="64" y="-282" font-family="Helvetica,sans-Serif" font-size="10.00">OTA_Failure_Response.h</text>
</a>
</g>
</g>
<!-- Node1&#45;&gt;Node23 -->
<g id="edge34" class="edge">
<title>Node1&#45;&gt;Node23</title>
<path fill="none" stroke="#63b8ff" d="M383.66,-388.68C333.37,-382.87 254.35,-371.01 189,-349 152.03,-336.55 112.35,-314.8 87.85,-300.27"/>
<polygon fill="#63b8ff" stroke="#63b8ff" points="89.7,-297.3 79.33,-295.13 86.08,-303.29 89.7,-297.3"/>
</g>
<!-- Node24 -->
<g id="node24" class="node">
<title>Node24</title>
<g id="a_node24"><a xlink:title=" ">
<polygon fill="#e0e0e0" stroke="#999999" points="883,-349 835,-349 835,-330 883,-330 883,-349"/>
<text text-anchor="middle" x="859" y="-337" font-family="Helvetica,sans-Serif" font-size="10.00">string.h</text>
</a>
</g>
</g>
<!-- Node1&#45;&gt;Node24 -->
<g id="edge37" class="edge">
<title>Node1&#45;&gt;Node24</title>
<path fill="none" stroke="#63b8ff" d="M484.33,-389.42C558.4,-383.03 700.96,-369.27 821,-349 821.82,-348.86 822.66,-348.72 823.5,-348.56"/>
<polygon fill="#63b8ff" stroke="#63b8ff" points="823.93,-352.05 833.06,-346.66 822.57,-345.18 823.93,-352.05"/>
</g>
<!-- Node4 -->
<g id="node4" class="node">
<title>Node4</title>
<g id="a_node4"><a xlink:href="Callback_8h.html" target="_top" xlink:title=" ">
<polygon fill="white" stroke="#666666" points="643,-184 581,-184 581,-165 643,-165 643,-184"/>
<text text-anchor="middle" x="612" y="-172" font-family="Helvetica,sans-Serif" font-size="10.00">Callback.h</text>
</a>
</g>
</g>
<!-- Node3&#45;&gt;Node4 -->
<g id="edge3" class="edge">
<title>Node3&#45;&gt;Node4</title>
<path fill="none" stroke="#63b8ff" d="M538.1,-219.51C551.6,-211.47 571.65,-199.53 587.46,-190.11"/>
<polygon fill="#63b8ff" stroke="#63b8ff" points="589.02,-193.26 595.82,-185.13 585.44,-187.24 589.02,-193.26"/>
</g>
<!-- Node15 -->
<g id="node15" class="node">
<title>Node15</title>
<g id="a_node15"><a xlink:title=" ">
<polygon fill="#e0e0e0" stroke="#999999" points="563,-184 483,-184 483,-165 563,-165 563,-184"/>
<text text-anchor="middle" x="523" y="-172" font-family="Helvetica,sans-Serif" font-size="10.00">arduino&#45;timer.h</text>
</a>
</g>
</g>
<!-- Node3&#45;&gt;Node15 -->
<g id="edge18" class="edge">
<title>Node3&#45;&gt;Node15</title>
<path fill="none" stroke="#63b8ff" d="M523,-219.75C523,-213.27 523,-204.16 523,-195.9"/>
<polygon fill="#63b8ff" stroke="#63b8ff" points="526.5,-195.96 523,-185.96 519.5,-195.96 526.5,-195.96"/>
</g>
<!-- Node4&#45;&gt;Node2 -->
<g id="edge4" class="edge">
<title>Node4&#45;&gt;Node2</title>
<path fill="none" stroke="#63b8ff" d="M580.72,-165.73C539.26,-155.21 470.24,-136.85 461,-129 444.95,-115.36 422.43,-59.83 411.1,-29.87"/>
<polygon fill="#63b8ff" stroke="#63b8ff" points="414.52,-29.02 407.75,-20.87 407.96,-31.46 414.52,-29.02"/>
</g>
<!-- Node5 -->
<g id="node5" class="node">
<title>Node5</title>
<g id="a_node5"><a xlink:title=" ">
<polygon fill="#e0e0e0" stroke="#999999" points="876,-19 798,-19 798,0 876,0 876,-19"/>
<text text-anchor="middle" x="837" y="-7" font-family="Helvetica,sans-Serif" font-size="10.00">ArduinoJson.h</text>
</a>
</g>
</g>
<!-- Node4&#45;&gt;Node5 -->
<g id="edge5" class="edge">
<title>Node4&#45;&gt;Node5</title>
<path fill="none" stroke="#63b8ff" d="M643.29,-173.61C681.55,-172.11 746.24,-164.06 787,-129 816.83,-103.35 829.28,-56.88 834.15,-30.4"/>
<polygon fill="#63b8ff" stroke="#63b8ff" points="837.58,-31.11 835.73,-20.68 830.67,-29.98 837.58,-31.11"/>
</g>
<!-- Node6 -->
<g id="node6" class="node">
<title>Node6</title>
<g id="a_node6"><a xlink:title=" ">
<polygon fill="#e0e0e0" stroke="#999999" points="632.5,-129 573.5,-129 573.5,-110 632.5,-110 632.5,-129"/>
<text text-anchor="middle" x="603" y="-117" font-family="Helvetica,sans-Serif" font-size="10.00">functional</text>
</a>
</g>
</g>
<!-- Node4&#45;&gt;Node6 -->
<g id="edge6" class="edge">
<title>Node4&#45;&gt;Node6</title>
<path fill="none" stroke="#63b8ff" d="M610.51,-164.75C609.4,-158.19 607.83,-148.95 606.41,-140.6"/>
<polygon fill="#63b8ff" stroke="#63b8ff" points="609.9,-140.21 604.77,-130.93 603,-141.38 609.9,-140.21"/>
</g>
<!-- Node7 -->
<g id="node7" class="node">
<title>Node7</title>
<g id="a_node7"><a xlink:title=" ">
<polygon fill="#e0e0e0" stroke="#999999" points="695,-129 651,-129 651,-110 695,-110 695,-129"/>
<text text-anchor="middle" x="673" y="-117" font-family="Helvetica,sans-Serif" font-size="10.00">vector</text>
</a>
</g>
</g>
<!-- Node4&#45;&gt;Node7 -->
<g id="edge7" class="edge">
<title>Node4&#45;&gt;Node7</title>
<path fill="none" stroke="#63b8ff" d="M622.35,-164.51C631.08,-156.93 643.79,-145.88 654.3,-136.75"/>
<polygon fill="#63b8ff" stroke="#63b8ff" points="656.41,-139.55 661.66,-130.35 651.82,-134.27 656.41,-139.55"/>
</g>
<!-- Node8 -->
<g id="node8" class="node">
<title>Node8</title>
<g id="a_node8"><a xlink:href="Container_8h.html" target="_top" xlink:title=" ">
<polygon fill="white" stroke="#666666" points="778.5,-129 713.5,-129 713.5,-110 778.5,-110 778.5,-129"/>
<text text-anchor="middle" x="746" y="-117" font-family="Helvetica,sans-Serif" font-size="10.00">Container.h</text>
</a>
</g>
</g>
<!-- Node4&#45;&gt;Node8 -->
<g id="edge8" class="edge">
<title>Node4&#45;&gt;Node8</title>
<path fill="none" stroke="#63b8ff" d="M634.73,-164.51C656.23,-156.01 688.73,-143.15 713.07,-133.53"/>
<polygon fill="#63b8ff" stroke="#63b8ff" points="714.19,-136.85 722.2,-129.91 711.61,-130.34 714.19,-136.85"/>
</g>
<!-- Node8&#45;&gt;Node9 -->
<g id="edge9" class="edge">
<title>Node8&#45;&gt;Node9</title>
<path fill="none" stroke="#63b8ff" d="M729.21,-109.51C713.9,-101.31 691.03,-89.07 673.3,-79.58"/>
<polygon fill="#63b8ff" stroke="#63b8ff" points="675.35,-76.71 664.88,-75.07 672.04,-82.88 675.35,-76.71"/>
</g>
<!-- Node12 -->
<g id="node12" class="node">
<title>Node12</title>
<g id="a_node12"><a xlink:title=" ">
<polygon fill="#e0e0e0" stroke="#999999" points="771.5,-19 720.5,-19 720.5,0 771.5,0 771.5,-19"/>
<text text-anchor="middle" x="746" y="-7" font-family="Helvetica,sans-Serif" font-size="10.00">assert.h</text>
</a>
</g>
</g>
<!-- Node8&#45;&gt;Node12 -->
<g id="edge17" class="edge">
<title>Node8&#45;&gt;Node12</title>
<path fill="none" stroke="#63b8ff" d="M746,-109.66C746,-92.57 746,-54.61 746,-30.92"/>
<polygon fill="#63b8ff" stroke="#63b8ff" points="749.5,-30.97 746,-20.97 742.5,-30.97 749.5,-30.97"/>
</g>
<!-- Node9&#45;&gt;Node2 -->
<g id="edge10" class="edge">
<title>Node9&#45;&gt;Node2</title>
<path fill="none" stroke="#63b8ff" d="M620.07,-57.63C580.43,-48.98 505.66,-32.67 455.33,-21.7"/>
<polygon fill="#63b8ff" stroke="#63b8ff" points="456.35,-18.34 445.84,-19.63 454.86,-25.18 456.35,-18.34"/>
</g>
<!-- Node9&#45;&gt;Node5 -->
<g id="edge11" class="edge">
<title>Node9&#45;&gt;Node5</title>
<path fill="none" stroke="#63b8ff" d="M673.82,-56.02C705.06,-47.3 757.09,-32.79 794,-22.5"/>
<polygon fill="#63b8ff" stroke="#63b8ff" points="794.77,-25.91 803.46,-19.85 792.89,-19.17 794.77,-25.91"/>
</g>
<!-- Node10 -->
<g id="node10" class="node">
<title>Node10</title>
<g id="a_node10"><a xlink:title=" ">
<polygon fill="#e0e0e0" stroke="#999999" points="570.5,-19 523.5,-19 523.5,0 570.5,0 570.5,-19"/>
<text text-anchor="middle" x="547" y="-7" font-family="Helvetica,sans-Serif" font-size="10.00">iterator</text>
</a>
</g>
</g>
<!-- Node9&#45;&gt;Node10 -->
<g id="edge12" class="edge">
<title>Node9&#45;&gt;Node10</title>
<path fill="none" stroke="#63b8ff" d="M630.04,-54.51C614.64,-46.35 591.69,-34.19 573.81,-24.71"/>
<polygon fill="#63b8ff" stroke="#63b8ff" points="575.53,-21.66 565.05,-20.07 572.25,-27.84 575.53,-21.66"/>
</g>
<!-- Node11 -->
<g id="node11" class="node">
<title>Node11</title>
<g id="a_node11"><a xlink:title=" ">
<polygon fill="#e0e0e0" stroke="#999999" points="276,-19 228,-19 228,0 276,0 276,-19"/>
<text text-anchor="middle" x="252" y="-7" font-family="Helvetica,sans-Serif" font-size="10.00">stdint.h</text>
</a>
</g>
</g>
<!-- Node9&#45;&gt;Node11 -->
<g id="edge13" class="edge">
<title>Node9&#45;&gt;Node11</title>
<path fill="none" stroke="#63b8ff" d="M620.16,-59.9C550.79,-50.59 365.54,-25.73 287.47,-15.26"/>
<polygon fill="#63b8ff" stroke="#63b8ff" points="288.2,-11.83 277.83,-13.97 287.27,-18.76 288.2,-11.83"/>
</g>
<!-- Node9&#45;&gt;Node12 -->
<g id="edge14" class="edge">
<title>Node9&#45;&gt;Node12</title>
<path fill="none" stroke="#63b8ff" d="M663.79,-54.51C679.1,-46.31 701.97,-34.07 719.7,-24.58"/>
<polygon fill="#63b8ff" stroke="#63b8ff" points="720.96,-27.88 728.12,-20.07 717.65,-21.71 720.96,-27.88"/>
</g>
<!-- Node13 -->
<g id="node13" class="node">
<title>Node13</title>
<g id="a_node13"><a xlink:title=" ">
<polygon fill="#e0e0e0" stroke="#999999" points="639.5,-19 588.5,-19 588.5,0 639.5,0 639.5,-19"/>
<text text-anchor="middle" x="614" y="-7" font-family="Helvetica,sans-Serif" font-size="10.00">stdarg.h</text>
</a>
</g>
</g>
<!-- Node9&#45;&gt;Node13 -->
<g id="edge15" class="edge">
<title>Node9&#45;&gt;Node13</title>
<path fill="none" stroke="#63b8ff" d="M641.55,-54.75C637.23,-47.81 631.04,-37.86 625.62,-29.16"/>
<polygon fill="#63b8ff" stroke="#63b8ff" points="628.62,-27.37 620.37,-20.73 622.68,-31.07 628.62,-27.37"/>
</g>
<!-- Node14 -->
<g id="node14" class="node">
<title>Node14</title>
<g id="a_node14"><a xlink:title=" ">
<polygon fill="#e0e0e0" stroke="#999999" points="702.5,-19 657.5,-19 657.5,0 702.5,0 702.5,-19"/>
<text text-anchor="middle" x="680" y="-7" font-family="Helvetica,sans-Serif" font-size="10.00">stdio.h</text>
</a>
</g>
</g>
<!-- Node9&#45;&gt;Node14 -->
<g id="edge16" class="edge">
<title>Node9&#45;&gt;Node14</title>
<path fill="none" stroke="#63b8ff" d="M652.45,-54.75C656.77,-47.81 662.96,-37.86 668.38,-29.16"/>
<polygon fill="#63b8ff" stroke="#63b8ff" points="671.32,-31.07 673.63,-20.73 665.38,-27.37 671.32,-31.07"/>
</g>
<!-- Node16&#45;&gt;Node2 -->
<g id="edge20" class="edge">
<title>Node16&#45;&gt;Node2</title>
<path fill="none" stroke="#63b8ff" d="M192.19,-164.83C202.89,-152.17 223.89,-128.14 244,-110 274.16,-82.79 282.57,-76.55 317,-55 335.34,-43.52 357,-32.44 374.12,-24.2"/>
<polygon fill="#63b8ff" stroke="#63b8ff" points="375.21,-27.55 382.75,-20.11 372.22,-21.23 375.21,-27.55"/>
</g>
<!-- Node16&#45;&gt;Node11 -->
<g id="edge22" class="edge">
<title>Node16&#45;&gt;Node11</title>
<path fill="none" stroke="#63b8ff" d="M184.76,-164.58C184.58,-143.98 186.28,-92.08 206,-55 211.88,-43.93 221.52,-33.98 230.45,-26.3"/>
<polygon fill="#63b8ff" stroke="#63b8ff" points="232.53,-29.12 238.14,-20.13 228.15,-23.66 232.53,-29.12"/>
</g>
<!-- Node17 -->
<g id="node17" class="node">
<title>Node17</title>
<g id="a_node17"><a xlink:title=" ">
<polygon fill="#e0e0e0" stroke="#999999" points="154,-129 62,-129 62,-110 154,-110 154,-129"/>
<text text-anchor="middle" x="108" y="-117" font-family="Helvetica,sans-Serif" font-size="10.00">Seeed_mbedtls.h</text>
</a>
</g>
</g>
<!-- Node16&#45;&gt;Node17 -->
<g id="edge21" class="edge">
<title>Node16&#45;&gt;Node17</title>
<path fill="none" stroke="#63b8ff" d="M171.94,-164.51C160.48,-156.62 143.57,-144.98 130.02,-135.65"/>
<polygon fill="#63b8ff" stroke="#63b8ff" points="132.34,-133 122.12,-130.22 128.37,-138.77 132.34,-133"/>
</g>
<!-- Node18 -->
<g id="node18" class="node">
<title>Node18</title>
<g id="a_node18"><a xlink:title=" ">
<polygon fill="#e0e0e0" stroke="#999999" points="337.5,-129 286.5,-129 286.5,-110 337.5,-110 337.5,-129"/>
<text text-anchor="middle" x="312" y="-117" font-family="Helvetica,sans-Serif" font-size="10.00">stddef.h</text>
</a>
</g>
</g>
<!-- Node16&#45;&gt;Node18 -->
<g id="edge23" class="edge">
<title>Node16&#45;&gt;Node18</title>
<path fill="none" stroke="#63b8ff" d="M206.54,-164.51C226.74,-156.08 257.17,-143.38 280.16,-133.79"/>
<polygon fill="#63b8ff" stroke="#63b8ff" points="281.5,-137.02 289.38,-129.94 278.8,-130.56 281.5,-137.02"/>
</g>
<!-- Node19&#45;&gt;Node4 -->
<g id="edge25" class="edge">
<title>Node19&#45;&gt;Node4</title>
<path fill="none" stroke="#63b8ff" d="M545.88,-329.6C560.98,-322.3 580.21,-310.47 591,-294 610.69,-263.94 613.4,-220.77 613.06,-195.69"/>
<polygon fill="#63b8ff" stroke="#63b8ff" points="616.57,-195.77 612.73,-185.89 609.57,-196.01 616.57,-195.77"/>
</g>
<!-- Node20 -->
<g id="node20" class="node">
<title>Node20</title>
<g id="a_node20"><a xlink:href="IUpdater_8h.html" target="_top" xlink:title=" ">
<polygon fill="white" stroke="#666666" points="427,-184 365,-184 365,-165 427,-165 427,-184"/>
<text text-anchor="middle" x="396" y="-172" font-family="Helvetica,sans-Serif" font-size="10.00">IUpdater.h</text>
</a>
</g>
</g>
<!-- Node19&#45;&gt;Node20 -->
<g id="edge26" class="edge">
<title>Node19&#45;&gt;Node20</title>
<path fill="none" stroke="#63b8ff" d="M504.1,-329.59C488.82,-321.94 468.02,-309.67 454,-294 427.49,-264.37 410.26,-220.43 401.92,-195.22"/>
<polygon fill="#63b8ff" stroke="#63b8ff" points="405.34,-194.42 398.99,-185.93 398.66,-196.52 405.34,-194.42"/>
</g>
<!-- Node22 -->
<g id="node22" class="node">
<title>Node22</title>
<g id="a_node22"><a xlink:href="Timeoutable__Request_8h.html" target="_top" xlink:title=" ">
<polygon fill="white" stroke="#666666" points="582.5,-294 463.5,-294 463.5,-275 582.5,-275 582.5,-294"/>
<text text-anchor="middle" x="523" y="-282" font-family="Helvetica,sans-Serif" font-size="10.00">Timeoutable_Request.h</text>
</a>
</g>
</g>
<!-- Node19&#45;&gt;Node22 -->
<g id="edge32" class="edge">
<title>Node19&#45;&gt;Node22</title>
<path fill="none" stroke="#63b8ff" d="M523.83,-329.75C523.71,-323.27 523.54,-314.16 523.38,-305.9"/>
<polygon fill="#63b8ff" stroke="#63b8ff" points="526.89,-305.89 523.2,-295.96 519.89,-306.02 526.89,-305.89"/>
</g>
<!-- Node20&#45;&gt;Node2 -->
<g id="edge27" class="edge">
<title>Node20&#45;&gt;Node2</title>
<path fill="none" stroke="#63b8ff" d="M396.43,-164.74C397.67,-139.53 401.26,-66.36 403.01,-30.62"/>
<polygon fill="#63b8ff" stroke="#63b8ff" points="406.5,-30.98 403.49,-20.82 399.51,-30.64 406.5,-30.98"/>
</g>
<!-- Node20&#45;&gt;Node11 -->
<g id="edge31" class="edge">
<title>Node20&#45;&gt;Node11</title>
<path fill="none" stroke="#63b8ff" d="M389.45,-164.67C380.12,-152.22 362.32,-128.91 346,-110 320.13,-80.03 288.12,-46.92 268.92,-27.46"/>
<polygon fill="#63b8ff" stroke="#63b8ff" points="271.42,-25.02 261.9,-20.38 266.45,-29.94 271.42,-25.02"/>
</g>
<!-- Node20&#45;&gt;Node18 -->
<g id="edge30" class="edge">
<title>Node20&#45;&gt;Node18</title>
<path fill="none" stroke="#63b8ff" d="M381.75,-164.51C369.12,-156.54 350.44,-144.75 335.59,-135.38"/>
<polygon fill="#63b8ff" stroke="#63b8ff" points="337.64,-132.54 327.32,-130.17 333.91,-138.46 337.64,-132.54"/>
</g>
<!-- Node21 -->
<g id="node21" class="node">
<title>Node21</title>
<g id="a_node21"><a xlink:href="DefaultLogger_8h.html" target="_top" xlink:title=" ">
<polygon fill="white" stroke="#666666" points="555.5,-129 470.5,-129 470.5,-110 555.5,-110 555.5,-129"/>
<text text-anchor="middle" x="513" y="-117" font-family="Helvetica,sans-Serif" font-size="10.00">DefaultLogger.h</text>
</a>
</g>
</g>
<!-- Node20&#45;&gt;Node21 -->
<g id="edge28" class="edge">
<title>Node20&#45;&gt;Node21</title>
<path fill="none" stroke="#63b8ff" d="M415.85,-164.51C434.28,-156.16 461.98,-143.61 483.09,-134.05"/>
<polygon fill="#63b8ff" stroke="#63b8ff" points="484.4,-137.3 492.07,-129.98 481.51,-130.92 484.4,-137.3"/>
</g>
<!-- Node21&#45;&gt;Node9 -->
<g id="edge29" class="edge">
<title>Node21&#45;&gt;Node9</title>
<path fill="none" stroke="#63b8ff" d="M535.73,-109.51C557.23,-101.01 589.73,-88.15 614.07,-78.53"/>
<polygon fill="#63b8ff" stroke="#63b8ff" points="615.19,-81.85 623.2,-74.91 612.61,-75.34 615.19,-81.85"/>
</g>
<!-- Node22&#45;&gt;Node3 -->
<g id="edge33" class="edge">
<title>Node22&#45;&gt;Node3</title>
<path fill="none" stroke="#63b8ff" d="M523,-274.75C523,-268.27 523,-259.16 523,-250.9"/>
<polygon fill="#63b8ff" stroke="#63b8ff" points="526.5,-250.96 523,-240.96 519.5,-250.96 526.5,-250.96"/>
</g>
<!-- Node23&#45;&gt;Node11 -->
<g id="edge35" class="edge">
<title>Node23&#45;&gt;Node11</title>
<path fill="none" stroke="#63b8ff" d="M59.83,-274.77C51.59,-256.69 34,-213.64 34,-175.5 34,-175.5 34,-175.5 34,-118.5 34,-37.95 154.98,-17.48 216.69,-12.27"/>
<polygon fill="#63b8ff" stroke="#63b8ff" points="216.61,-15.79 226.33,-11.56 216.1,-8.81 216.61,-15.79"/>
</g>
</g>
</svg>
