<?xml version="1.0" encoding="UTF-8" standalone="no"?>
<!DOCTYPE svg PUBLIC "-//W3C//DTD SVG 1.1//EN"
 "http://www.w3.org/Graphics/SVG/1.1/DTD/svg11.dtd">
<!-- Generated by graphviz version 7.0.5 (20221223.1930)
 -->
<!-- Title: src/OTA_Update_Callback.h Pages: 1 -->
<svg width="544pt" height="247pt"
 viewBox="0.00 0.00 544.36 247.00" xmlns="http://www.w3.org/2000/svg" xmlns:xlink="http://www.w3.org/1999/xlink">
<g id="graph0" class="graph" transform="scale(1 1) rotate(0) translate(4 243)">
<title>src/OTA_Update_Callback.h</title>
<!-- Node1 -->
<g id="node1" class="node">
<title>Node1</title>
<g id="a_node1"><a xlink:title=" ">
<polygon fill="#999999" stroke="#666666" points="371.5,-239 231.5,-239 231.5,-220 371.5,-220 371.5,-239"/>
<text text-anchor="middle" x="301.5" y="-227" font-family="Helvetica,sans-Serif" font-size="10.00">src/OTA_Update_Callback.h</text>
</a>
</g>
</g>
<!-- Node2 -->
<g id="node2" class="node">
<title>Node2</title>
<g id="a_node2"><a xlink:href="Callback_8h.html" target="_top" xlink:title=" ">
<polygon fill="white" stroke="#666666" points="205.5,-184 143.5,-184 143.5,-165 205.5,-165 205.5,-184"/>
<text text-anchor="middle" x="174.5" y="-172" font-family="Helvetica,sans-Serif" font-size="10.00">Callback.h</text>
</a>
</g>
</g>
<!-- Node1&#45;&gt;Node2 -->
<g id="edge1" class="edge">
<title>Node1&#45;&gt;Node2</title>
<path fill="none" stroke="#63b8ff" d="M279.96,-219.51C259.76,-211.08 229.33,-198.38 206.34,-188.79"/>
<polygon fill="#63b8ff" stroke="#63b8ff" points="207.7,-185.56 197.12,-184.94 205,-192.02 207.7,-185.56"/>
</g>
<!-- Node13 -->
<g id="node13" class="node">
<title>Node13</title>
<g id="a_node13"><a xlink:href="IUpdater_8h.html" target="_top" xlink:title=" ">
<polygon fill="white" stroke="#666666" points="459.5,-184 397.5,-184 397.5,-165 459.5,-165 459.5,-184"/>
<text text-anchor="middle" x="428.5" y="-172" font-family="Helvetica,sans-Serif" font-size="10.00">IUpdater.h</text>
</a>
</g>
</g>
<!-- Node1&#45;&gt;Node13 -->
<g id="edge15" class="edge">
<title>Node1&#45;&gt;Node13</title>
<path fill="none" stroke="#63b8ff" d="M323.04,-219.51C343.24,-211.08 373.67,-198.38 396.66,-188.79"/>
<polygon fill="#63b8ff" stroke="#63b8ff" points="398,-192.02 405.88,-184.94 395.3,-185.56 398,-192.02"/>
</g>
<!-- Node3 -->
<g id="node3" class="node">
<title>Node3</title>
<g id="a_node3"><a xlink:href="Configuration_8h.html" target="_top" xlink:title=" ">
<polygon fill="white" stroke="#666666" points="474.5,-19 394.5,-19 394.5,0 474.5,0 474.5,-19"/>
<text text-anchor="middle" x="434.5" y="-7" font-family="Helvetica,sans-Serif" font-size="10.00">Configuration.h</text>
</a>
</g>
</g>
<!-- Node2&#45;&gt;Node3 -->
<g id="edge2" class="edge">
<title>Node2&#45;&gt;Node3</title>
<path fill="none" stroke="#63b8ff" d="M190.57,-164.53C206.24,-155.7 230.69,-141.74 251.5,-129 310.01,-93.18 377.4,-48.68 411.77,-25.75"/>
<polygon fill="#63b8ff" stroke="#63b8ff" points="413.7,-28.67 420.07,-20.2 409.81,-22.85 413.7,-28.67"/>
</g>
<!-- Node4 -->
<g id="node4" class="node">
<title>Node4</title>
<g id="a_node4"><a xlink:href="Container_8h.html" target="_top" xlink:title=" ">
<polygon fill="white" stroke="#666666" points="243,-129 178,-129 178,-110 243,-110 243,-129"/>
<text text-anchor="middle" x="210.5" y="-117" font-family="Helvetica,sans-Serif" font-size="10.00">Container.h</text>
</a>
</g>
</g>
<!-- Node2&#45;&gt;Node4 -->
<g id="edge3" class="edge">
<title>Node2&#45;&gt;Node4</title>
<path fill="none" stroke="#63b8ff" d="M180.44,-164.75C185.21,-157.73 192.06,-147.64 198.02,-138.87"/>
<polygon fill="#63b8ff" stroke="#63b8ff" points="200.85,-140.93 203.58,-130.69 195.06,-137 200.85,-140.93"/>
</g>
<!-- Node6 -->
<g id="node6" class="node">
<title>Node6</title>
<g id="a_node6"><a xlink:title=" ">
<polygon fill="#e0e0e0" stroke="#999999" points="109.5,-19 31.5,-19 31.5,0 109.5,0 109.5,-19"/>
<text text-anchor="middle" x="70.5" y="-7" font-family="Helvetica,sans-Serif" font-size="10.00">ArduinoJson.h</text>
</a>
</g>
</g>
<!-- Node2&#45;&gt;Node6 -->
<g id="edge12" class="edge">
<title>Node2&#45;&gt;Node6</title>
<path fill="none" stroke="#63b8ff" d="M153.52,-164.58C138.4,-157.14 118.6,-145.14 106.5,-129 84.32,-99.4 75.69,-56.08 72.42,-30.84"/>
<polygon fill="#63b8ff" stroke="#63b8ff" points="75.91,-30.51 71.32,-20.96 68.95,-31.28 75.91,-30.51"/>
</g>
<!-- Node11 -->
<g id="node11" class="node">
<title>Node11</title>
<g id="a_node11"><a xlink:title=" ">
<polygon fill="#e0e0e0" stroke="#999999" points="59,-129 0,-129 0,-110 59,-110 59,-129"/>
<text text-anchor="middle" x="29.5" y="-117" font-family="Helvetica,sans-Serif" font-size="10.00">functional</text>
</a>
</g>
</g>
<!-- Node2&#45;&gt;Node11 -->
<g id="edge13" class="edge">
<title>Node2&#45;&gt;Node11</title>
<path fill="none" stroke="#63b8ff" d="M149.9,-164.51C126.43,-155.93 90.83,-142.92 64.43,-133.27"/>
<polygon fill="#63b8ff" stroke="#63b8ff" points="65.75,-130.02 55.16,-129.88 63.35,-136.6 65.75,-130.02"/>
</g>
<!-- Node12 -->
<g id="node12" class="node">
<title>Node12</title>
<g id="a_node12"><a xlink:title=" ">
<polygon fill="#e0e0e0" stroke="#999999" points="159.5,-129 115.5,-129 115.5,-110 159.5,-110 159.5,-129"/>
<text text-anchor="middle" x="137.5" y="-117" font-family="Helvetica,sans-Serif" font-size="10.00">vector</text>
</a>
</g>
</g>
<!-- Node2&#45;&gt;Node12 -->
<g id="edge14" class="edge">
<title>Node2&#45;&gt;Node12</title>
<path fill="none" stroke="#63b8ff" d="M168.39,-164.75C163.49,-157.73 156.45,-147.64 150.33,-138.87"/>
<polygon fill="#63b8ff" stroke="#63b8ff" points="153.2,-136.88 144.61,-130.68 147.46,-140.89 153.2,-136.88"/>
</g>
<!-- Node5 -->
<g id="node5" class="node">
<title>Node5</title>
<g id="a_node5"><a xlink:href="Helper_8h.html" target="_top" xlink:title=" ">
<polygon fill="white" stroke="#666666" points="243,-74 190,-74 190,-55 243,-55 243,-74"/>
<text text-anchor="middle" x="216.5" y="-62" font-family="Helvetica,sans-Serif" font-size="10.00">Helper.h</text>
</a>
</g>
</g>
<!-- Node4&#45;&gt;Node5 -->
<g id="edge4" class="edge">
<title>Node4&#45;&gt;Node5</title>
<path fill="none" stroke="#63b8ff" d="M211.49,-109.75C212.23,-103.19 213.28,-93.95 214.22,-85.6"/>
<polygon fill="#63b8ff" stroke="#63b8ff" points="217.67,-86.28 215.32,-75.95 210.71,-85.49 217.67,-86.28"/>
</g>
<!-- Node8 -->
<g id="node8" class="node">
<title>Node8</title>
<g id="a_node8"><a xlink:title=" ">
<polygon fill="#e0e0e0" stroke="#999999" points="179,-19 128,-19 128,0 179,0 179,-19"/>
<text text-anchor="middle" x="153.5" y="-7" font-family="Helvetica,sans-Serif" font-size="10.00">assert.h</text>
</a>
</g>
</g>
<!-- Node4&#45;&gt;Node8 -->
<g id="edge11" class="edge">
<title>Node4&#45;&gt;Node8</title>
<path fill="none" stroke="#63b8ff" d="M203.77,-109.62C197.31,-100.86 187.53,-86.94 180.5,-74 172.71,-59.65 165.56,-42.59 160.58,-29.76"/>
<polygon fill="#63b8ff" stroke="#63b8ff" points="164,-28.91 157.19,-20.79 157.45,-31.38 164,-28.91"/>
</g>
<!-- Node5&#45;&gt;Node3 -->
<g id="edge5" class="edge">
<title>Node5&#45;&gt;Node3</title>
<path fill="none" stroke="#63b8ff" d="M243.23,-57C278.9,-48.33 342.66,-32.83 386.7,-22.12"/>
<polygon fill="#63b8ff" stroke="#63b8ff" points="387.36,-25.56 396.25,-19.8 385.71,-18.76 387.36,-25.56"/>
</g>
<!-- Node5&#45;&gt;Node6 -->
<g id="edge6" class="edge">
<title>Node5&#45;&gt;Node6</title>
<path fill="none" stroke="#63b8ff" d="M191.73,-54.51C168.1,-45.93 132.26,-32.92 105.67,-23.27"/>
<polygon fill="#63b8ff" stroke="#63b8ff" points="106.92,-20 96.32,-19.87 104.53,-26.58 106.92,-20"/>
</g>
<!-- Node7 -->
<g id="node7" class="node">
<title>Node7</title>
<g id="a_node7"><a xlink:title=" ">
<polygon fill="#e0e0e0" stroke="#999999" points="307,-19 260,-19 260,0 307,0 307,-19"/>
<text text-anchor="middle" x="283.5" y="-7" font-family="Helvetica,sans-Serif" font-size="10.00">iterator</text>
</a>
</g>
</g>
<!-- Node5&#45;&gt;Node7 -->
<g id="edge7" class="edge">
<title>Node5&#45;&gt;Node7</title>
<path fill="none" stroke="#63b8ff" d="M227.87,-54.51C237.55,-46.85 251.7,-35.66 263.31,-26.47"/>
<polygon fill="#63b8ff" stroke="#63b8ff" points="265.44,-29.25 271.12,-20.3 261.1,-23.76 265.44,-29.25"/>
</g>
<!-- Node5&#45;&gt;Node8 -->
<g id="edge8" class="edge">
<title>Node5&#45;&gt;Node8</title>
<path fill="none" stroke="#63b8ff" d="M205.81,-54.51C196.8,-46.93 183.67,-35.88 172.82,-26.75"/>
<polygon fill="#63b8ff" stroke="#63b8ff" points="175.09,-24.09 165.19,-20.33 170.59,-29.45 175.09,-24.09"/>
</g>
<!-- Node9 -->
<g id="node9" class="node">
<title>Node9</title>
<g id="a_node9"><a xlink:title=" ">
<polygon fill="#e0e0e0" stroke="#999999" points="376,-19 325,-19 325,0 376,0 376,-19"/>
<text text-anchor="middle" x="350.5" y="-7" font-family="Helvetica,sans-Serif" font-size="10.00">stdarg.h</text>
</a>
</g>
</g>
<!-- Node5&#45;&gt;Node9 -->
<g id="edge9" class="edge">
<title>Node5&#45;&gt;Node9</title>
<path fill="none" stroke="#63b8ff" d="M239.23,-54.51C260.73,-46.01 293.23,-33.15 317.57,-23.53"/>
<polygon fill="#63b8ff" stroke="#63b8ff" points="318.69,-26.85 326.7,-19.91 316.11,-20.34 318.69,-26.85"/>
</g>
<!-- Node10 -->
<g id="node10" class="node">
<title>Node10</title>
<g id="a_node10"><a xlink:title=" ">
<polygon fill="#e0e0e0" stroke="#999999" points="242,-19 197,-19 197,0 242,0 242,-19"/>
<text text-anchor="middle" x="219.5" y="-7" font-family="Helvetica,sans-Serif" font-size="10.00">stdio.h</text>
</a>
</g>
</g>
<!-- Node5&#45;&gt;Node10 -->
<g id="edge10" class="edge">
<title>Node5&#45;&gt;Node10</title>
<path fill="none" stroke="#63b8ff" d="M217,-54.75C217.36,-48.27 217.88,-39.16 218.35,-30.9"/>
<polygon fill="#63b8ff" stroke="#63b8ff" points="221.84,-31.13 218.91,-20.95 214.85,-30.74 221.84,-31.13"/>
</g>
<!-- Node13&#45;&gt;Node3 -->
<g id="edge16" class="edge">
<title>Node13&#45;&gt;Node3</title>
<path fill="none" stroke="#63b8ff" d="M459.95,-168.89C483.52,-163.61 514.22,-152.43 529.5,-129 555.5,-89.13 497.59,-46.56 461.18,-24.93"/>
<polygon fill="#63b8ff" stroke="#63b8ff" points="463.3,-22.11 452.88,-20.16 459.81,-28.18 463.3,-22.11"/>
</g>
<!-- Node14 -->
<g id="node14" class="node">
<title>Node14</title>
<g id="a_node14"><a xlink:href="DefaultLogger_8h.html" target="_top" xlink:title=" ">
<polygon fill="white" stroke="#666666" points="385,-129 300,-129 300,-110 385,-110 385,-129"/>
<text text-anchor="middle" x="342.5" y="-117" font-family="Helvetica,sans-Serif" font-size="10.00">DefaultLogger.h</text>
</a>
</g>
</g>
<!-- Node13&#45;&gt;Node14 -->
<g id="edge17" class="edge">
<title>Node13&#45;&gt;Node14</title>
<path fill="none" stroke="#63b8ff" d="M413.91,-164.51C400.98,-156.54 381.86,-144.75 366.65,-135.38"/>
<polygon fill="#63b8ff" stroke="#63b8ff" points="368.51,-132.42 358.16,-130.15 364.84,-138.38 368.51,-132.42"/>
</g>
<!-- Node15 -->
<g id="node15" class="node">
<title>Node15</title>
<g id="a_node15"><a xlink:title=" ">
<polygon fill="#e0e0e0" stroke="#999999" points="454,-129 403,-129 403,-110 454,-110 454,-129"/>
<text text-anchor="middle" x="428.5" y="-117" font-family="Helvetica,sans-Serif" font-size="10.00">stddef.h</text>
</a>
</g>
</g>
<!-- Node13&#45;&gt;Node15 -->
<g id="edge19" class="edge">
<title>Node13&#45;&gt;Node15</title>
<path fill="none" stroke="#63b8ff" d="M428.5,-164.75C428.5,-158.27 428.5,-149.16 428.5,-140.9"/>
<polygon fill="#63b8ff" stroke="#63b8ff" points="432,-140.96 428.5,-130.96 425,-140.96 432,-140.96"/>
</g>
<!-- Node16 -->
<g id="node16" class="node">
<title>Node16</title>
<g id="a_node16"><a xlink:title=" ">
<polygon fill="#e0e0e0" stroke="#999999" points="520.5,-129 472.5,-129 472.5,-110 520.5,-110 520.5,-129"/>
<text text-anchor="middle" x="496.5" y="-117" font-family="Helvetica,sans-Serif" font-size="10.00">stdint.h</text>
</a>
</g>
</g>
<!-- Node13&#45;&gt;Node16 -->
<g id="edge20" class="edge">
<title>Node13&#45;&gt;Node16</title>
<path fill="none" stroke="#63b8ff" d="M440.04,-164.51C449.96,-156.77 464.51,-145.43 476.36,-136.2"/>
<polygon fill="#63b8ff" stroke="#63b8ff" points="478.21,-139.2 483.94,-130.29 473.9,-133.68 478.21,-139.2"/>
</g>
<!-- Node14&#45;&gt;Node5 -->
<g id="edge18" class="edge">
<title>Node14&#45;&gt;Node5</title>
<path fill="none" stroke="#63b8ff" d="M321.13,-109.51C301.09,-101.08 270.9,-88.38 248.09,-78.79"/>
<polygon fill="#63b8ff" stroke="#63b8ff" points="249.53,-75.6 238.95,-74.94 246.81,-82.05 249.53,-75.6"/>
</g>
</g>
</svg>
