<?xml version="1.0" encoding="UTF-8" standalone="no"?>
<!DOCTYPE svg PUBLIC "-//W3C//DTD SVG 1.1//EN"
 "http://www.w3.org/Graphics/SVG/1.1/DTD/svg11.dtd">
<!-- Generated by graphviz version 7.0.5 (20221223.1930)
 -->
<!-- Title: src/OTA_Update_Callback.h Pages: 1 -->
<!--zoomable 247 -->
<svg id="main" version="1.1" xmlns="http://www.w3.org/2000/svg" xmlns:xlink="http://www.w3.org/1999/xlink" xml:space="preserve" onload="init(evt)">
<style type="text/css"><![CDATA[
.edge:hover path { stroke: red; }
.edge:hover polygon { stroke: red; fill: red; }
]]></style>
<script type="text/javascript"><![CDATA[
var edges = document.getElementsByTagName('g');
if (edges && edges.length) {
  for (var i=0;i<edges.length;i++) {
    if (edges[i].id.substr(0,4)=='edge') {
      edges[i].setAttribute('class','edge');
    }
  }
}
]]></script>
        <defs>
                <circle id="rim" cx="0" cy="0" r="7"/>
                <circle id="rim2" cx="0" cy="0" r="3.5"/>
                <g id="zoomPlus">
                        <use xlink:href="#rim" fill="#404040">
                                <set attributeName="fill" to="#808080" begin="zoomplus.mouseover" end="zoomplus.mouseout"/>
                        </use>
                        <path d="M-4,0h8M0,-4v8" fill="none" stroke="white" stroke-width="1.5" pointer-events="none"/>
                </g>
                <g id="zoomMin">
                        <use xlink:href="#rim" fill="#404040">
                                <set attributeName="fill" to="#808080" begin="zoomminus.mouseover" end="zoomminus.mouseout"/>
                        </use>
                        <path d="M-4,0h8" fill="none" stroke="white" stroke-width="1.5" pointer-events="none"/>
                </g>
                <g id="dirArrow">
                        <path fill="none" stroke="white" stroke-width="1.5" d="M0,-3.0v7 M-2.5,-0.5L0,-3.0L2.5,-0.5"/>
                </g>
               <g id="resetDef">
                       <use xlink:href="#rim2" fill="#404040">
                               <set attributeName="fill" to="#808080" begin="reset.mouseover" end="reset.mouseout"/>
                       </use>
               </g>
        </defs>

<script type="text/javascript">
var viewWidth = 552;
var viewHeight = 247;
var sectionId = 'dynsection-0';
</script>
<script xlink:href="svgpan.js"/>
<svg id="graph" class="graph">
<g id="viewport">
<title>src/OTA_Update_Callback.h</title>
<!-- Node1 -->
<g id="node1" class="node">
<title>Node1</title>
<g id="a_node1"><a xlink:title=" ">
<polygon fill="#999999" stroke="#666666" points="389,-239 249,-239 249,-220 389,-220 389,-239"/>
<text text-anchor="middle" x="319" y="-227" font-family="Helvetica,sans-Serif" font-size="10.00">src/OTA_Update_Callback.h</text>
</a>
</g>
</g>
<!-- Node2 -->
<g id="node2" class="node">
<title>Node2</title>
<g id="a_node2"><a xlink:href="Callback_8h.html" target="_top" xlink:title=" ">
<polygon fill="white" stroke="#666666" points="243,-184 181,-184 181,-165 243,-165 243,-184"/>
<text text-anchor="middle" x="212" y="-172" font-family="Helvetica,sans-Serif" font-size="10.00">Callback.h</text>
</a>
</g>
</g>
<!-- Node1&#45;&gt;Node2 -->
<g id="edge1" class="edge">
<title>Node1&#45;&gt;Node2</title>
<path fill="none" stroke="#63b8ff" d="M300.85,-219.51C284.22,-211.27 259.36,-198.96 240.15,-189.45"/>
<polygon fill="#63b8ff" stroke="#63b8ff" points="241.75,-186.33 231.24,-185.03 238.65,-192.6 241.75,-186.33"/>
</g>
<!-- Node14 -->
<g id="node14" class="node">
<title>Node14</title>
<g id="a_node14"><a xlink:href="IUpdater_8h.html" target="_top" xlink:title=" ">
<polygon fill="white" stroke="#666666" points="493,-184 431,-184 431,-165 493,-165 493,-184"/>
<text text-anchor="middle" x="462" y="-172" font-family="Helvetica,sans-Serif" font-size="10.00">IUpdater.h</text>
</a>
</g>
</g>
<!-- Node1&#45;&gt;Node14 -->
<g id="edge16" class="edge">
<title>Node1&#45;&gt;Node14</title>
<path fill="none" stroke="#63b8ff" d="M343.26,-219.51C366.41,-210.93 401.51,-197.92 427.56,-188.27"/>
<polygon fill="#63b8ff" stroke="#63b8ff" points="428.52,-191.64 436.68,-184.88 426.09,-185.08 428.52,-191.64"/>
</g>
<!-- Node3 -->
<g id="node3" class="node">
<title>Node3</title>
<g id="a_node3"><a xlink:href="Configuration_8h.html" target="_top" xlink:title=" ">
<polygon fill="white" stroke="#666666" points="443,-19 363,-19 363,0 443,0 443,-19"/>
<text text-anchor="middle" x="403" y="-7" font-family="Helvetica,sans-Serif" font-size="10.00">Configuration.h</text>
</a>
</g>
</g>
<!-- Node2&#45;&gt;Node3 -->
<g id="edge2" class="edge">
<title>Node2&#45;&gt;Node3</title>
<path fill="none" stroke="#63b8ff" d="M229.54,-164.57C245.06,-156.31 267.97,-143.18 286,-129 326.52,-97.12 367.36,-52.15 388.41,-27.8"/>
<polygon fill="#63b8ff" stroke="#63b8ff" points="390.88,-30.3 394.72,-20.42 385.56,-25.75 390.88,-30.3"/>
</g>
<!-- Node4 -->
<g id="node4" class="node">
<title>Node4</title>
<g id="a_node4"><a xlink:href="Container_8h.html" target="_top" xlink:title=" ">
<polygon fill="white" stroke="#666666" points="136.5,-129 71.5,-129 71.5,-110 136.5,-110 136.5,-129"/>
<text text-anchor="middle" x="104" y="-117" font-family="Helvetica,sans-Serif" font-size="10.00">Container.h</text>
</a>
</g>
</g>
<!-- Node2&#45;&gt;Node4 -->
<g id="edge3" class="edge">
<title>Node2&#45;&gt;Node4</title>
<path fill="none" stroke="#63b8ff" d="M193.68,-164.51C176.82,-156.24 151.57,-143.84 132.15,-134.31"/>
<polygon fill="#63b8ff" stroke="#63b8ff" points="133.93,-131.29 123.41,-130.02 130.84,-137.57 133.93,-131.29"/>
</g>
<!-- Node6 -->
<g id="node6" class="node">
<title>Node6</title>
<g id="a_node6"><a xlink:title=" ">
<polygon fill="#e0e0e0" stroke="#999999" points="78,-19 0,-19 0,0 78,0 78,-19"/>
<text text-anchor="middle" x="39" y="-7" font-family="Helvetica,sans-Serif" font-size="10.00">ArduinoJson.h</text>
</a>
</g>
</g>
<!-- Node2&#45;&gt;Node6 -->
<g id="edge13" class="edge">
<title>Node2&#45;&gt;Node6</title>
<path fill="none" stroke="#63b8ff" d="M180.65,-173.25C146.38,-171.19 92.31,-162.39 62,-129 37.42,-101.92 35.66,-56.69 37.04,-30.64"/>
<polygon fill="#63b8ff" stroke="#63b8ff" points="40.52,-31.01 37.79,-20.77 33.54,-30.48 40.52,-31.01"/>
</g>
<!-- Node12 -->
<g id="node12" class="node">
<title>Node12</title>
<g id="a_node12"><a xlink:title=" ">
<polygon fill="#e0e0e0" stroke="#999999" points="276.5,-129 217.5,-129 217.5,-110 276.5,-110 276.5,-129"/>
<text text-anchor="middle" x="247" y="-117" font-family="Helvetica,sans-Serif" font-size="10.00">functional</text>
</a>
</g>
</g>
<!-- Node2&#45;&gt;Node12 -->
<g id="edge14" class="edge">
<title>Node2&#45;&gt;Node12</title>
<path fill="none" stroke="#63b8ff" d="M217.78,-164.75C222.41,-157.73 229.07,-147.64 234.87,-138.87"/>
<polygon fill="#63b8ff" stroke="#63b8ff" points="237.67,-140.98 240.26,-130.71 231.83,-137.12 237.67,-140.98"/>
</g>
<!-- Node13 -->
<g id="node13" class="node">
<title>Node13</title>
<g id="a_node13"><a xlink:title=" ">
<polygon fill="#e0e0e0" stroke="#999999" points="199,-129 155,-129 155,-110 199,-110 199,-129"/>
<text text-anchor="middle" x="177" y="-117" font-family="Helvetica,sans-Serif" font-size="10.00">vector</text>
</a>
</g>
</g>
<!-- Node2&#45;&gt;Node13 -->
<g id="edge15" class="edge">
<title>Node2&#45;&gt;Node13</title>
<path fill="none" stroke="#63b8ff" d="M206.22,-164.75C201.59,-157.73 194.93,-147.64 189.13,-138.87"/>
<polygon fill="#63b8ff" stroke="#63b8ff" points="192.17,-137.12 183.74,-130.71 186.33,-140.98 192.17,-137.12"/>
</g>
<!-- Node5 -->
<g id="node5" class="node">
<title>Node5</title>
<g id="a_node5"><a xlink:href="Helper_8h.html" target="_top" xlink:title=" ">
<polygon fill="white" stroke="#666666" points="276.5,-74 223.5,-74 223.5,-55 276.5,-55 276.5,-74"/>
<text text-anchor="middle" x="250" y="-62" font-family="Helvetica,sans-Serif" font-size="10.00">Helper.h</text>
</a>
</g>
</g>
<!-- Node4&#45;&gt;Node5 -->
<g id="edge4" class="edge">
<title>Node4&#45;&gt;Node5</title>
<path fill="none" stroke="#63b8ff" d="M128.77,-109.51C152.4,-100.93 188.24,-87.92 214.83,-78.27"/>
<polygon fill="#63b8ff" stroke="#63b8ff" points="215.97,-81.58 224.18,-74.87 213.58,-75 215.97,-81.58"/>
</g>
<!-- Node9 -->
<g id="node9" class="node">
<title>Node9</title>
<g id="a_node9"><a xlink:title=" ">
<polygon fill="#e0e0e0" stroke="#999999" points="147.5,-19 96.5,-19 96.5,0 147.5,0 147.5,-19"/>
<text text-anchor="middle" x="122" y="-7" font-family="Helvetica,sans-Serif" font-size="10.00">assert.h</text>
</a>
</g>
</g>
<!-- Node4&#45;&gt;Node9 -->
<g id="edge12" class="edge">
<title>Node4&#45;&gt;Node9</title>
<path fill="none" stroke="#63b8ff" d="M105.47,-109.66C108.33,-92.5 114.71,-54.26 118.65,-30.6"/>
<polygon fill="#63b8ff" stroke="#63b8ff" points="122.07,-31.39 120.26,-20.95 115.16,-30.24 122.07,-31.39"/>
</g>
<!-- Node5&#45;&gt;Node3 -->
<g id="edge5" class="edge">
<title>Node5&#45;&gt;Node3</title>
<path fill="none" stroke="#63b8ff" d="M275.95,-54.51C300.87,-45.88 338.73,-32.76 366.64,-23.1"/>
<polygon fill="#63b8ff" stroke="#63b8ff" points="367.44,-26.52 375.74,-19.94 365.15,-19.91 367.44,-26.52"/>
</g>
<!-- Node5&#45;&gt;Node6 -->
<g id="edge6" class="edge">
<title>Node5&#45;&gt;Node6</title>
<path fill="none" stroke="#63b8ff" d="M223.28,-56.79C188.74,-48.11 128.03,-32.86 85.78,-22.25"/>
<polygon fill="#63b8ff" stroke="#63b8ff" points="86.67,-18.87 76.12,-19.82 84.97,-25.65 86.67,-18.87"/>
</g>
<!-- Node7 -->
<g id="node7" class="node">
<title>Node7</title>
<g id="a_node7"><a xlink:title=" ">
<polygon fill="#e0e0e0" stroke="#999999" points="275.5,-19 228.5,-19 228.5,0 275.5,0 275.5,-19"/>
<text text-anchor="middle" x="252" y="-7" font-family="Helvetica,sans-Serif" font-size="10.00">iterator</text>
</a>
</g>
</g>
<!-- Node5&#45;&gt;Node7 -->
<g id="edge7" class="edge">
<title>Node5&#45;&gt;Node7</title>
<path fill="none" stroke="#63b8ff" d="M250.33,-54.75C250.57,-48.27 250.92,-39.16 251.23,-30.9"/>
<polygon fill="#63b8ff" stroke="#63b8ff" points="254.73,-31.08 251.61,-20.95 247.73,-30.82 254.73,-31.08"/>
</g>
<!-- Node8 -->
<g id="node8" class="node">
<title>Node8</title>
<g id="a_node8"><a xlink:title=" ">
<polygon fill="#e0e0e0" stroke="#999999" points="544,-19 496,-19 496,0 544,0 544,-19"/>
<text text-anchor="middle" x="520" y="-7" font-family="Helvetica,sans-Serif" font-size="10.00">stdint.h</text>
</a>
</g>
</g>
<!-- Node5&#45;&gt;Node8 -->
<g id="edge8" class="edge">
<title>Node5&#45;&gt;Node8</title>
<path fill="none" stroke="#63b8ff" d="M276.88,-58.22C325.84,-48.61 429.56,-28.25 484.35,-17.5"/>
<polygon fill="#63b8ff" stroke="#63b8ff" points="484.96,-20.94 494.1,-15.58 483.61,-14.08 484.96,-20.94"/>
</g>
<!-- Node5&#45;&gt;Node9 -->
<g id="edge9" class="edge">
<title>Node5&#45;&gt;Node9</title>
<path fill="none" stroke="#63b8ff" d="M228.29,-54.51C207.84,-46.04 176.98,-33.27 153.77,-23.66"/>
<polygon fill="#63b8ff" stroke="#63b8ff" points="155.37,-20.53 144.79,-19.94 152.69,-27 155.37,-20.53"/>
</g>
<!-- Node10 -->
<g id="node10" class="node">
<title>Node10</title>
<g id="a_node10"><a xlink:title=" ">
<polygon fill="#e0e0e0" stroke="#999999" points="344.5,-19 293.5,-19 293.5,0 344.5,0 344.5,-19"/>
<text text-anchor="middle" x="319" y="-7" font-family="Helvetica,sans-Serif" font-size="10.00">stdarg.h</text>
</a>
</g>
</g>
<!-- Node5&#45;&gt;Node10 -->
<g id="edge10" class="edge">
<title>Node5&#45;&gt;Node10</title>
<path fill="none" stroke="#63b8ff" d="M261.7,-54.51C271.78,-46.77 286.54,-35.43 298.56,-26.2"/>
<polygon fill="#63b8ff" stroke="#63b8ff" points="300.47,-29.15 306.27,-20.28 296.21,-23.6 300.47,-29.15"/>
</g>
<!-- Node11 -->
<g id="node11" class="node">
<title>Node11</title>
<g id="a_node11"><a xlink:title=" ">
<polygon fill="#e0e0e0" stroke="#999999" points="210.5,-19 165.5,-19 165.5,0 210.5,0 210.5,-19"/>
<text text-anchor="middle" x="188" y="-7" font-family="Helvetica,sans-Serif" font-size="10.00">stdio.h</text>
</a>
</g>
</g>
<!-- Node5&#45;&gt;Node11 -->
<g id="edge11" class="edge">
<title>Node5&#45;&gt;Node11</title>
<path fill="none" stroke="#63b8ff" d="M239.48,-54.51C230.61,-46.93 217.69,-35.88 207.01,-26.75"/>
<polygon fill="#63b8ff" stroke="#63b8ff" points="209.39,-24.18 199.51,-20.34 204.84,-29.5 209.39,-24.18"/>
</g>
<!-- Node14&#45;&gt;Node3 -->
<g id="edge17" class="edge">
<title>Node14&#45;&gt;Node3</title>
<path fill="none" stroke="#63b8ff" d="M472.52,-164.8C485.57,-152.88 505.19,-130.59 497,-110 482.63,-73.87 448.23,-43.28 425.27,-25.9"/>
<polygon fill="#63b8ff" stroke="#63b8ff" points="427.59,-23.26 417.45,-20.18 423.46,-28.91 427.59,-23.26"/>
</g>
<!-- Node14&#45;&gt;Node8 -->
<g id="edge21" class="edge">
<title>Node14&#45;&gt;Node8</title>
<path fill="none" stroke="#63b8ff" d="M486.46,-164.61C501.98,-157.55 520.81,-146 530,-129 546.97,-97.62 536.47,-54.61 527.86,-29.97"/>
<polygon fill="#63b8ff" stroke="#63b8ff" points="531.13,-28.73 524.33,-20.61 524.58,-31.2 531.13,-28.73"/>
</g>
<!-- Node15 -->
<g id="node15" class="node">
<title>Node15</title>
<g id="a_node15"><a xlink:href="DefaultLogger_8h.html" target="_top" xlink:title=" ">
<polygon fill="white" stroke="#666666" points="418.5,-129 333.5,-129 333.5,-110 418.5,-110 418.5,-129"/>
<text text-anchor="middle" x="376" y="-117" font-family="Helvetica,sans-Serif" font-size="10.00">DefaultLogger.h</text>
</a>
</g>
</g>
<!-- Node14&#45;&gt;Node15 -->
<g id="edge18" class="edge">
<title>Node14&#45;&gt;Node15</title>
<path fill="none" stroke="#63b8ff" d="M447.41,-164.51C434.48,-156.54 415.36,-144.75 400.15,-135.38"/>
<polygon fill="#63b8ff" stroke="#63b8ff" points="402.01,-132.42 391.66,-130.15 398.34,-138.38 402.01,-132.42"/>
</g>
<!-- Node16 -->
<g id="node16" class="node">
<title>Node16</title>
<g id="a_node16"><a xlink:title=" ">
<polygon fill="#e0e0e0" stroke="#999999" points="487.5,-129 436.5,-129 436.5,-110 487.5,-110 487.5,-129"/>
<text text-anchor="middle" x="462" y="-117" font-family="Helvetica,sans-Serif" font-size="10.00">stddef.h</text>
</a>
</g>
</g>
<!-- Node14&#45;&gt;Node16 -->
<g id="edge20" class="edge">
<title>Node14&#45;&gt;Node16</title>
<path fill="none" stroke="#63b8ff" d="M462,-164.75C462,-158.27 462,-149.16 462,-140.9"/>
<polygon fill="#63b8ff" stroke="#63b8ff" points="465.5,-140.96 462,-130.96 458.5,-140.96 465.5,-140.96"/>
</g>
<!-- Node15&#45;&gt;Node5 -->
<g id="edge19" class="edge">
<title>Node15&#45;&gt;Node5</title>
<path fill="none" stroke="#63b8ff" d="M354.63,-109.51C334.59,-101.08 304.4,-88.38 281.59,-78.79"/>
<polygon fill="#63b8ff" stroke="#63b8ff" points="283.03,-75.6 272.45,-74.94 280.31,-82.05 283.03,-75.6"/>
</g>
</g>
</svg>
        <g id="navigator" transform="translate(0 0)" fill="#404254">
                <rect fill="#f2f5e9" fill-opacity="0.5" stroke="#606060" stroke-width=".5" x="0" y="0" width="60" height="60"/>
                <use id="zoomplus" xlink:href="#zoomPlus" x="17" y="9" onmousedown="handleZoom(evt,'in')"/>
                <use id="zoomminus" xlink:href="#zoomMin" x="42" y="9" onmousedown="handleZoom(evt,'out')"/>
                <use id="reset" xlink:href="#resetDef" x="30" y="36" onmousedown="handleReset()"/>
                <g id="arrowUp" xlink:href="#dirArrow" transform="translate(30 24)" onmousedown="handlePan(0,-1)">
                  <use xlink:href="#rim" fill="#404040">
                        <set attributeName="fill" to="#808080" begin="arrowUp.mouseover" end="arrowUp.mouseout"/>
                  </use>
                  <path fill="none" stroke="white" stroke-width="1.5" d="M0,-3.0v7 M-2.5,-0.5L0,-3.0L2.5,-0.5"/>
                </g>
                <g id="arrowRight" xlink:href="#dirArrow" transform="rotate(90) translate(36 -43)" onmousedown="handlePan(1,0)">
                  <use xlink:href="#rim" fill="#404040">
                        <set attributeName="fill" to="#808080" begin="arrowRight.mouseover" end="arrowRight.mouseout"/>
                  </use>
                  <path fill="none" stroke="white" stroke-width="1.5" d="M0,-3.0v7 M-2.5,-0.5L0,-3.0L2.5,-0.5"/>
                </g>
                <g id="arrowDown" xlink:href="#dirArrow" transform="rotate(180) translate(-30 -48)" onmousedown="handlePan(0,1)">
                  <use xlink:href="#rim" fill="#404040">
                        <set attributeName="fill" to="#808080" begin="arrowDown.mouseover" end="arrowDown.mouseout"/>
                  </use>
                  <path fill="none" stroke="white" stroke-width="1.5" d="M0,-3.0v7 M-2.5,-0.5L0,-3.0L2.5,-0.5"/>
                </g>
                <g id="arrowLeft" xlink:href="#dirArrow" transform="rotate(270) translate(-36 17)" onmousedown="handlePan(-1,0)">
                  <use xlink:href="#rim" fill="#404040">
                        <set attributeName="fill" to="#808080" begin="arrowLeft.mouseover" end="arrowLeft.mouseout"/>
                  </use>
                  <path fill="none" stroke="white" stroke-width="1.5" d="M0,-3.0v7 M-2.5,-0.5L0,-3.0L2.5,-0.5"/>
                </g>
        </g>
        <svg viewBox="0 0 15 15" width="100%" height="30px" preserveAspectRatio="xMaxYMin meet">
         <g id="arrow_out" transform="scale(0.3 0.3)">
          <a xlink:href="OTA__Update__Callback_8h__incl_org.svg" target="_base">
           <rect id="button" ry="5" rx="5" y="6" x="6" height="38" width="38"
                fill="#f2f5e9" fill-opacity="0.5" stroke="#606060" stroke-width="1.0"/>
           <path id="arrow"
             d="M 11.500037,31.436501 C 11.940474,20.09759 22.043105,11.32322 32.158766,21.979434 L 37.068811,17.246167 C 37.068811,17.246167 37.088388,32 37.088388,32 L 22.160133,31.978069 C 22.160133,31.978069 26.997745,27.140456 26.997745,27.140456 C 18.528582,18.264221 13.291696,25.230495 11.500037,31.436501 z"
             style="fill:#404040;"/>
          </a>
         </g>
        </svg>
</svg>
