<?xml version="1.0" encoding="UTF-8" standalone="no"?>
<!DOCTYPE svg PUBLIC "-//W3C//DTD SVG 1.1//EN"
 "http://www.w3.org/Graphics/SVG/1.1/DTD/svg11.dtd">
<!-- Generated by graphviz version 7.0.5 (20221223.1930)
 -->
<!-- Title: src/OTA_Update_Callback.cpp Pages: 1 -->
<svg width="552pt" height="302pt"
 viewBox="0.00 0.00 552.00 302.00" xmlns="http://www.w3.org/2000/svg" xmlns:xlink="http://www.w3.org/1999/xlink">
<g id="graph0" class="graph" transform="scale(1 1) rotate(0) translate(4 298)">
<title>src/OTA_Update_Callback.cpp</title>
<!-- Node1 -->
<g id="node1" class="node">
<title>Node1</title>
<g id="a_node1"><a xlink:title=" ">
<polygon fill="#999999" stroke="#666666" points="394.5,-294 243.5,-294 243.5,-275 394.5,-275 394.5,-294"/>
<text text-anchor="middle" x="319" y="-282" font-family="Helvetica,sans-Serif" font-size="10.00">src/OTA_Update_Callback.cpp</text>
</a>
</g>
</g>
<!-- Node2 -->
<g id="node2" class="node">
<title>Node2</title>
<g id="a_node2"><a xlink:href="OTA__Update__Callback_8h.html" target="_top" xlink:title=" ">
<polygon fill="white" stroke="#666666" points="381,-239 257,-239 257,-220 381,-220 381,-239"/>
<text text-anchor="middle" x="319" y="-227" font-family="Helvetica,sans-Serif" font-size="10.00">OTA_Update_Callback.h</text>
</a>
</g>
</g>
<!-- Node1&#45;&gt;Node2 -->
<g id="edge1" class="edge">
<title>Node1&#45;&gt;Node2</title>
<path fill="none" stroke="#63b8ff" d="M319,-274.75C319,-268.27 319,-259.16 319,-250.9"/>
<polygon fill="#63b8ff" stroke="#63b8ff" points="322.5,-250.96 319,-240.96 315.5,-250.96 322.5,-250.96"/>
</g>
<!-- Node3 -->
<g id="node3" class="node">
<title>Node3</title>
<g id="a_node3"><a xlink:href="Callback_8h.html" target="_top" xlink:title=" ">
<polygon fill="white" stroke="#666666" points="243,-184 181,-184 181,-165 243,-165 243,-184"/>
<text text-anchor="middle" x="212" y="-172" font-family="Helvetica,sans-Serif" font-size="10.00">Callback.h</text>
</a>
</g>
</g>
<!-- Node2&#45;&gt;Node3 -->
<g id="edge2" class="edge">
<title>Node2&#45;&gt;Node3</title>
<path fill="none" stroke="#63b8ff" d="M300.85,-219.51C284.22,-211.27 259.36,-198.96 240.15,-189.45"/>
<polygon fill="#63b8ff" stroke="#63b8ff" points="241.75,-186.33 231.24,-185.03 238.65,-192.6 241.75,-186.33"/>
</g>
<!-- Node15 -->
<g id="node15" class="node">
<title>Node15</title>
<g id="a_node15"><a xlink:href="IUpdater_8h.html" target="_top" xlink:title=" ">
<polygon fill="white" stroke="#666666" points="493,-184 431,-184 431,-165 493,-165 493,-184"/>
<text text-anchor="middle" x="462" y="-172" font-family="Helvetica,sans-Serif" font-size="10.00">IUpdater.h</text>
</a>
</g>
</g>
<!-- Node2&#45;&gt;Node15 -->
<g id="edge17" class="edge">
<title>Node2&#45;&gt;Node15</title>
<path fill="none" stroke="#63b8ff" d="M343.26,-219.51C366.41,-210.93 401.51,-197.92 427.56,-188.27"/>
<polygon fill="#63b8ff" stroke="#63b8ff" points="428.52,-191.64 436.68,-184.88 426.09,-185.08 428.52,-191.64"/>
</g>
<!-- Node4 -->
<g id="node4" class="node">
<title>Node4</title>
<g id="a_node4"><a xlink:href="Configuration_8h.html" target="_top" xlink:title=" ">
<polygon fill="white" stroke="#666666" points="443,-19 363,-19 363,0 443,0 443,-19"/>
<text text-anchor="middle" x="403" y="-7" font-family="Helvetica,sans-Serif" font-size="10.00">Configuration.h</text>
</a>
</g>
</g>
<!-- Node3&#45;&gt;Node4 -->
<g id="edge3" class="edge">
<title>Node3&#45;&gt;Node4</title>
<path fill="none" stroke="#63b8ff" d="M229.54,-164.57C245.06,-156.31 267.97,-143.18 286,-129 326.52,-97.12 367.36,-52.15 388.41,-27.8"/>
<polygon fill="#63b8ff" stroke="#63b8ff" points="390.88,-30.3 394.72,-20.42 385.56,-25.75 390.88,-30.3"/>
</g>
<!-- Node5 -->
<g id="node5" class="node">
<title>Node5</title>
<g id="a_node5"><a xlink:href="Container_8h.html" target="_top" xlink:title=" ">
<polygon fill="white" stroke="#666666" points="136.5,-129 71.5,-129 71.5,-110 136.5,-110 136.5,-129"/>
<text text-anchor="middle" x="104" y="-117" font-family="Helvetica,sans-Serif" font-size="10.00">Container.h</text>
</a>
</g>
</g>
<!-- Node3&#45;&gt;Node5 -->
<g id="edge4" class="edge">
<title>Node3&#45;&gt;Node5</title>
<path fill="none" stroke="#63b8ff" d="M193.68,-164.51C176.82,-156.24 151.57,-143.84 132.15,-134.31"/>
<polygon fill="#63b8ff" stroke="#63b8ff" points="133.93,-131.29 123.41,-130.02 130.84,-137.57 133.93,-131.29"/>
</g>
<!-- Node7 -->
<g id="node7" class="node">
<title>Node7</title>
<g id="a_node7"><a xlink:title=" ">
<polygon fill="#e0e0e0" stroke="#999999" points="78,-19 0,-19 0,0 78,0 78,-19"/>
<text text-anchor="middle" x="39" y="-7" font-family="Helvetica,sans-Serif" font-size="10.00">ArduinoJson.h</text>
</a>
</g>
</g>
<!-- Node3&#45;&gt;Node7 -->
<g id="edge14" class="edge">
<title>Node3&#45;&gt;Node7</title>
<path fill="none" stroke="#63b8ff" d="M180.65,-173.25C146.38,-171.19 92.31,-162.39 62,-129 37.42,-101.92 35.66,-56.69 37.04,-30.64"/>
<polygon fill="#63b8ff" stroke="#63b8ff" points="40.52,-31.01 37.79,-20.77 33.54,-30.48 40.52,-31.01"/>
</g>
<!-- Node13 -->
<g id="node13" class="node">
<title>Node13</title>
<g id="a_node13"><a xlink:title=" ">
<polygon fill="#e0e0e0" stroke="#999999" points="276.5,-129 217.5,-129 217.5,-110 276.5,-110 276.5,-129"/>
<text text-anchor="middle" x="247" y="-117" font-family="Helvetica,sans-Serif" font-size="10.00">functional</text>
</a>
</g>
</g>
<!-- Node3&#45;&gt;Node13 -->
<g id="edge15" class="edge">
<title>Node3&#45;&gt;Node13</title>
<path fill="none" stroke="#63b8ff" d="M217.78,-164.75C222.41,-157.73 229.07,-147.64 234.87,-138.87"/>
<polygon fill="#63b8ff" stroke="#63b8ff" points="237.67,-140.98 240.26,-130.71 231.83,-137.12 237.67,-140.98"/>
</g>
<!-- Node14 -->
<g id="node14" class="node">
<title>Node14</title>
<g id="a_node14"><a xlink:title=" ">
<polygon fill="#e0e0e0" stroke="#999999" points="199,-129 155,-129 155,-110 199,-110 199,-129"/>
<text text-anchor="middle" x="177" y="-117" font-family="Helvetica,sans-Serif" font-size="10.00">vector</text>
</a>
</g>
</g>
<!-- Node3&#45;&gt;Node14 -->
<g id="edge16" class="edge">
<title>Node3&#45;&gt;Node14</title>
<path fill="none" stroke="#63b8ff" d="M206.22,-164.75C201.59,-157.73 194.93,-147.64 189.13,-138.87"/>
<polygon fill="#63b8ff" stroke="#63b8ff" points="192.17,-137.12 183.74,-130.71 186.33,-140.98 192.17,-137.12"/>
</g>
<!-- Node6 -->
<g id="node6" class="node">
<title>Node6</title>
<g id="a_node6"><a xlink:href="Helper_8h.html" target="_top" xlink:title=" ">
<polygon fill="white" stroke="#666666" points="276.5,-74 223.5,-74 223.5,-55 276.5,-55 276.5,-74"/>
<text text-anchor="middle" x="250" y="-62" font-family="Helvetica,sans-Serif" font-size="10.00">Helper.h</text>
</a>
</g>
</g>
<!-- Node5&#45;&gt;Node6 -->
<g id="edge5" class="edge">
<title>Node5&#45;&gt;Node6</title>
<path fill="none" stroke="#63b8ff" d="M128.77,-109.51C152.4,-100.93 188.24,-87.92 214.83,-78.27"/>
<polygon fill="#63b8ff" stroke="#63b8ff" points="215.97,-81.58 224.18,-74.87 213.58,-75 215.97,-81.58"/>
</g>
<!-- Node10 -->
<g id="node10" class="node">
<title>Node10</title>
<g id="a_node10"><a xlink:title=" ">
<polygon fill="#e0e0e0" stroke="#999999" points="147.5,-19 96.5,-19 96.5,0 147.5,0 147.5,-19"/>
<text text-anchor="middle" x="122" y="-7" font-family="Helvetica,sans-Serif" font-size="10.00">assert.h</text>
</a>
</g>
</g>
<!-- Node5&#45;&gt;Node10 -->
<g id="edge13" class="edge">
<title>Node5&#45;&gt;Node10</title>
<path fill="none" stroke="#63b8ff" d="M105.47,-109.66C108.33,-92.5 114.71,-54.26 118.65,-30.6"/>
<polygon fill="#63b8ff" stroke="#63b8ff" points="122.07,-31.39 120.26,-20.95 115.16,-30.24 122.07,-31.39"/>
</g>
<!-- Node6&#45;&gt;Node4 -->
<g id="edge6" class="edge">
<title>Node6&#45;&gt;Node4</title>
<path fill="none" stroke="#63b8ff" d="M275.95,-54.51C300.87,-45.88 338.73,-32.76 366.64,-23.1"/>
<polygon fill="#63b8ff" stroke="#63b8ff" points="367.44,-26.52 375.74,-19.94 365.15,-19.91 367.44,-26.52"/>
</g>
<!-- Node6&#45;&gt;Node7 -->
<g id="edge7" class="edge">
<title>Node6&#45;&gt;Node7</title>
<path fill="none" stroke="#63b8ff" d="M223.28,-56.79C188.74,-48.11 128.03,-32.86 85.78,-22.25"/>
<polygon fill="#63b8ff" stroke="#63b8ff" points="86.67,-18.87 76.12,-19.82 84.97,-25.65 86.67,-18.87"/>
</g>
<!-- Node8 -->
<g id="node8" class="node">
<title>Node8</title>
<g id="a_node8"><a xlink:title=" ">
<polygon fill="#e0e0e0" stroke="#999999" points="275.5,-19 228.5,-19 228.5,0 275.5,0 275.5,-19"/>
<text text-anchor="middle" x="252" y="-7" font-family="Helvetica,sans-Serif" font-size="10.00">iterator</text>
</a>
</g>
</g>
<!-- Node6&#45;&gt;Node8 -->
<g id="edge8" class="edge">
<title>Node6&#45;&gt;Node8</title>
<path fill="none" stroke="#63b8ff" d="M250.33,-54.75C250.57,-48.27 250.92,-39.16 251.23,-30.9"/>
<polygon fill="#63b8ff" stroke="#63b8ff" points="254.73,-31.08 251.61,-20.95 247.73,-30.82 254.73,-31.08"/>
</g>
<!-- Node9 -->
<g id="node9" class="node">
<title>Node9</title>
<g id="a_node9"><a xlink:title=" ">
<polygon fill="#e0e0e0" stroke="#999999" points="544,-19 496,-19 496,0 544,0 544,-19"/>
<text text-anchor="middle" x="520" y="-7" font-family="Helvetica,sans-Serif" font-size="10.00">stdint.h</text>
</a>
</g>
</g>
<!-- Node6&#45;&gt;Node9 -->
<g id="edge9" class="edge">
<title>Node6&#45;&gt;Node9</title>
<path fill="none" stroke="#63b8ff" d="M276.88,-58.22C325.84,-48.61 429.56,-28.25 484.35,-17.5"/>
<polygon fill="#63b8ff" stroke="#63b8ff" points="484.96,-20.94 494.1,-15.58 483.61,-14.08 484.96,-20.94"/>
</g>
<!-- Node6&#45;&gt;Node10 -->
<g id="edge10" class="edge">
<title>Node6&#45;&gt;Node10</title>
<path fill="none" stroke="#63b8ff" d="M228.29,-54.51C207.84,-46.04 176.98,-33.27 153.77,-23.66"/>
<polygon fill="#63b8ff" stroke="#63b8ff" points="155.37,-20.53 144.79,-19.94 152.69,-27 155.37,-20.53"/>
</g>
<!-- Node11 -->
<g id="node11" class="node">
<title>Node11</title>
<g id="a_node11"><a xlink:title=" ">
<polygon fill="#e0e0e0" stroke="#999999" points="344.5,-19 293.5,-19 293.5,0 344.5,0 344.5,-19"/>
<text text-anchor="middle" x="319" y="-7" font-family="Helvetica,sans-Serif" font-size="10.00">stdarg.h</text>
</a>
</g>
</g>
<!-- Node6&#45;&gt;Node11 -->
<g id="edge11" class="edge">
<title>Node6&#45;&gt;Node11</title>
<path fill="none" stroke="#63b8ff" d="M261.7,-54.51C271.78,-46.77 286.54,-35.43 298.56,-26.2"/>
<polygon fill="#63b8ff" stroke="#63b8ff" points="300.47,-29.15 306.27,-20.28 296.21,-23.6 300.47,-29.15"/>
</g>
<!-- Node12 -->
<g id="node12" class="node">
<title>Node12</title>
<g id="a_node12"><a xlink:title=" ">
<polygon fill="#e0e0e0" stroke="#999999" points="210.5,-19 165.5,-19 165.5,0 210.5,0 210.5,-19"/>
<text text-anchor="middle" x="188" y="-7" font-family="Helvetica,sans-Serif" font-size="10.00">stdio.h</text>
</a>
</g>
</g>
<!-- Node6&#45;&gt;Node12 -->
<g id="edge12" class="edge">
<title>Node6&#45;&gt;Node12</title>
<path fill="none" stroke="#63b8ff" d="M239.48,-54.51C230.61,-46.93 217.69,-35.88 207.01,-26.75"/>
<polygon fill="#63b8ff" stroke="#63b8ff" points="209.39,-24.18 199.51,-20.34 204.84,-29.5 209.39,-24.18"/>
</g>
<!-- Node15&#45;&gt;Node4 -->
<g id="edge18" class="edge">
<title>Node15&#45;&gt;Node4</title>
<path fill="none" stroke="#63b8ff" d="M472.52,-164.8C485.57,-152.88 505.19,-130.59 497,-110 482.63,-73.87 448.23,-43.28 425.27,-25.9"/>
<polygon fill="#63b8ff" stroke="#63b8ff" points="427.59,-23.26 417.45,-20.18 423.46,-28.91 427.59,-23.26"/>
</g>
<!-- Node15&#45;&gt;Node9 -->
<g id="edge22" class="edge">
<title>Node15&#45;&gt;Node9</title>
<path fill="none" stroke="#63b8ff" d="M486.46,-164.61C501.98,-157.55 520.81,-146 530,-129 546.97,-97.62 536.47,-54.61 527.86,-29.97"/>
<polygon fill="#63b8ff" stroke="#63b8ff" points="531.13,-28.73 524.33,-20.61 524.58,-31.2 531.13,-28.73"/>
</g>
<!-- Node16 -->
<g id="node16" class="node">
<title>Node16</title>
<g id="a_node16"><a xlink:href="DefaultLogger_8h.html" target="_top" xlink:title=" ">
<polygon fill="white" stroke="#666666" points="418.5,-129 333.5,-129 333.5,-110 418.5,-110 418.5,-129"/>
<text text-anchor="middle" x="376" y="-117" font-family="Helvetica,sans-Serif" font-size="10.00">DefaultLogger.h</text>
</a>
</g>
</g>
<!-- Node15&#45;&gt;Node16 -->
<g id="edge19" class="edge">
<title>Node15&#45;&gt;Node16</title>
<path fill="none" stroke="#63b8ff" d="M447.41,-164.51C434.48,-156.54 415.36,-144.75 400.15,-135.38"/>
<polygon fill="#63b8ff" stroke="#63b8ff" points="402.01,-132.42 391.66,-130.15 398.34,-138.38 402.01,-132.42"/>
</g>
<!-- Node17 -->
<g id="node17" class="node">
<title>Node17</title>
<g id="a_node17"><a xlink:title=" ">
<polygon fill="#e0e0e0" stroke="#999999" points="487.5,-129 436.5,-129 436.5,-110 487.5,-110 487.5,-129"/>
<text text-anchor="middle" x="462" y="-117" font-family="Helvetica,sans-Serif" font-size="10.00">stddef.h</text>
</a>
</g>
</g>
<!-- Node15&#45;&gt;Node17 -->
<g id="edge21" class="edge">
<title>Node15&#45;&gt;Node17</title>
<path fill="none" stroke="#63b8ff" d="M462,-164.75C462,-158.27 462,-149.16 462,-140.9"/>
<polygon fill="#63b8ff" stroke="#63b8ff" points="465.5,-140.96 462,-130.96 458.5,-140.96 465.5,-140.96"/>
</g>
<!-- Node16&#45;&gt;Node6 -->
<g id="edge20" class="edge">
<title>Node16&#45;&gt;Node6</title>
<path fill="none" stroke="#63b8ff" d="M354.63,-109.51C334.59,-101.08 304.4,-88.38 281.59,-78.79"/>
<polygon fill="#63b8ff" stroke="#63b8ff" points="283.03,-75.6 272.45,-74.94 280.31,-82.05 283.03,-75.6"/>
</g>
</g>
</svg>
