<?xml version="1.0" encoding="UTF-8" standalone="no"?>
<!DOCTYPE svg PUBLIC "-//W3C//DTD SVG 1.1//EN"
 "http://www.w3.org/Graphics/SVG/1.1/DTD/svg11.dtd">
<!-- Generated by graphviz version 7.0.5 (20221223.1930)
 -->
<!-- Title: src/OTA_Firmware_Update.h Pages: 1 -->
<svg width="1029pt" height="412pt"
 viewBox="0.00 0.00 1029.00 412.00" xmlns="http://www.w3.org/2000/svg" xmlns:xlink="http://www.w3.org/1999/xlink">
<g id="graph0" class="graph" transform="scale(1 1) rotate(0) translate(4 408)">
<title>src/OTA_Firmware_Update.h</title>
<!-- Node1 -->
<g id="node1" class="node">
<title>Node1</title>
<g id="a_node1"><a xlink:title=" ">
<polygon fill="#999999" stroke="#666666" points="415.5,-404 272.5,-404 272.5,-385 415.5,-385 415.5,-404"/>
<text text-anchor="middle" x="344" y="-392" font-family="Helvetica,sans-Serif" font-size="10.00">src/OTA_Firmware_Update.h</text>
</a>
</g>
</g>
<!-- Node2 -->
<g id="node2" class="node">
<title>Node2</title>
<g id="a_node2"><a xlink:href="Attribute__Request_8h.html" target="_top" xlink:title=" ">
<polygon fill="white" stroke="#666666" points="435,-349 333,-349 333,-330 435,-330 435,-349"/>
<text text-anchor="middle" x="384" y="-337" font-family="Helvetica,sans-Serif" font-size="10.00">Attribute_Request.h</text>
</a>
</g>
</g>
<!-- Node1&#45;&gt;Node2 -->
<g id="edge1" class="edge">
<title>Node1&#45;&gt;Node2</title>
<path fill="none" stroke="#63b8ff" d="M350.61,-384.75C355.96,-377.66 363.68,-367.42 370.35,-358.59"/>
<polygon fill="#63b8ff" stroke="#63b8ff" points="373.11,-360.74 376.34,-350.65 367.52,-356.52 373.11,-360.74"/>
</g>
<!-- Node19 -->
<g id="node19" class="node">
<title>Node19</title>
<g id="a_node19"><a xlink:href="IAPI__Implementation_8h.html" target="_top" xlink:title=" ">
<polygon fill="white" stroke="#666666" points="230,-239 114,-239 114,-220 230,-220 230,-239"/>
<text text-anchor="middle" x="172" y="-227" font-family="Helvetica,sans-Serif" font-size="10.00">IAPI_Implementation.h</text>
</a>
</g>
</g>
<!-- Node1&#45;&gt;Node19 -->
<g id="edge55" class="edge">
<title>Node1&#45;&gt;Node19</title>
<path fill="none" stroke="#63b8ff" d="M325.77,-384.52C296.56,-369.37 238.93,-336.21 203,-294 191.81,-280.85 183.55,-262.96 178.38,-249.52"/>
<polygon fill="#63b8ff" stroke="#63b8ff" points="181.82,-248.75 175.16,-240.51 175.23,-251.11 181.82,-248.75"/>
</g>
<!-- Node23 -->
<g id="node23" class="node">
<title>Node23</title>
<g id="a_node23"><a xlink:href="Shared__Attribute__Update_8h.html" target="_top" xlink:title=" ">
<polygon fill="white" stroke="#666666" points="372,-294 238,-294 238,-275 372,-275 372,-294"/>
<text text-anchor="middle" x="305" y="-282" font-family="Helvetica,sans-Serif" font-size="10.00">Shared_Attribute_Update.h</text>
</a>
</g>
</g>
<!-- Node1&#45;&gt;Node23 -->
<g id="edge31" class="edge">
<title>Node1&#45;&gt;Node23</title>
<path fill="none" stroke="#63b8ff" d="M339.67,-384.78C335.36,-375.91 328.73,-361.7 324,-349 318.64,-334.6 313.7,-317.95 310.2,-305.32"/>
<polygon fill="#63b8ff" stroke="#63b8ff" points="313.6,-304.46 307.62,-295.71 306.84,-306.27 313.6,-304.46"/>
</g>
<!-- Node25 -->
<g id="node25" class="node">
<title>Node25</title>
<g id="a_node25"><a xlink:href="OTA__Handler_8h.html" target="_top" xlink:title=" ">
<polygon fill="white" stroke="#666666" points="758.5,-294 675.5,-294 675.5,-275 758.5,-275 758.5,-294"/>
<text text-anchor="middle" x="717" y="-282" font-family="Helvetica,sans-Serif" font-size="10.00">OTA_Handler.h</text>
</a>
</g>
</g>
<!-- Node1&#45;&gt;Node25 -->
<g id="edge36" class="edge">
<title>Node1&#45;&gt;Node25</title>
<path fill="none" stroke="#63b8ff" d="M374.84,-384.57C441.58,-365.25 599.47,-319.53 675.14,-297.62"/>
<polygon fill="#63b8ff" stroke="#63b8ff" points="676.04,-301 684.67,-294.86 674.09,-294.28 676.04,-301"/>
</g>
<!-- Node3 -->
<g id="node3" class="node">
<title>Node3</title>
<g id="a_node3"><a xlink:href="Attribute__Request__Callback_8h.html" target="_top" xlink:title=" ">
<polygon fill="white" stroke="#666666" points="535.5,-294 390.5,-294 390.5,-275 535.5,-275 535.5,-294"/>
<text text-anchor="middle" x="463" y="-282" font-family="Helvetica,sans-Serif" font-size="10.00">Attribute_Request_Callback.h</text>
</a>
</g>
</g>
<!-- Node2&#45;&gt;Node3 -->
<g id="edge2" class="edge">
<title>Node2&#45;&gt;Node3</title>
<path fill="none" stroke="#63b8ff" d="M397.4,-329.51C409.16,-321.62 426.51,-309.98 440.41,-300.65"/>
<polygon fill="#63b8ff" stroke="#63b8ff" points="442.19,-303.68 448.54,-295.2 438.29,-297.87 442.19,-303.68"/>
</g>
<!-- Node2&#45;&gt;Node19 -->
<g id="edge23" class="edge">
<title>Node2&#45;&gt;Node19</title>
<path fill="none" stroke="#63b8ff" d="M332.54,-331.17C300.86,-324.92 260.44,-313.69 229,-294 210.41,-282.36 194.26,-262.94 183.94,-248.64"/>
<polygon fill="#63b8ff" stroke="#63b8ff" points="186.93,-246.8 178.37,-240.56 181.16,-250.78 186.93,-246.8"/>
</g>
<!-- Node4 -->
<g id="node4" class="node">
<title>Node4</title>
<g id="a_node4"><a xlink:href="Callback__Watchdog_8h.html" target="_top" xlink:title=" ">
<polygon fill="white" stroke="#666666" points="554,-239 444,-239 444,-220 554,-220 554,-239"/>
<text text-anchor="middle" x="499" y="-227" font-family="Helvetica,sans-Serif" font-size="10.00">Callback_Watchdog.h</text>
</a>
</g>
</g>
<!-- Node3&#45;&gt;Node4 -->
<g id="edge3" class="edge">
<title>Node3&#45;&gt;Node4</title>
<path fill="none" stroke="#63b8ff" d="M468.94,-274.75C473.71,-267.73 480.56,-257.64 486.52,-248.87"/>
<polygon fill="#63b8ff" stroke="#63b8ff" points="489.35,-250.93 492.08,-240.69 483.56,-247 489.35,-250.93"/>
</g>
<!-- Node18 -->
<g id="node18" class="node">
<title>Node18</title>
<g id="a_node18"><a xlink:href="Constants_8h.html" target="_top" xlink:title=" ">
<polygon fill="white" stroke="#666666" points="376,-184 308,-184 308,-165 376,-165 376,-184"/>
<text text-anchor="middle" x="342" y="-172" font-family="Helvetica,sans-Serif" font-size="10.00">Constants.h</text>
</a>
</g>
</g>
<!-- Node3&#45;&gt;Node18 -->
<g id="edge20" class="edge">
<title>Node3&#45;&gt;Node18</title>
<path fill="none" stroke="#63b8ff" d="M390.42,-275.39C344.52,-268.6 291.24,-257.05 277,-239 262.27,-220.34 287.41,-201.64 310.58,-189.42"/>
<polygon fill="#63b8ff" stroke="#63b8ff" points="311.85,-192.7 319.25,-185.11 308.73,-186.43 311.85,-192.7"/>
</g>
<!-- Node5 -->
<g id="node5" class="node">
<title>Node5</title>
<g id="a_node5"><a xlink:href="Callback_8h.html" target="_top" xlink:title=" ">
<polygon fill="white" stroke="#666666" points="456,-184 394,-184 394,-165 456,-165 456,-184"/>
<text text-anchor="middle" x="425" y="-172" font-family="Helvetica,sans-Serif" font-size="10.00">Callback.h</text>
</a>
</g>
</g>
<!-- Node4&#45;&gt;Node5 -->
<g id="edge4" class="edge">
<title>Node4&#45;&gt;Node5</title>
<path fill="none" stroke="#63b8ff" d="M486.45,-219.51C475.54,-211.7 459.5,-200.21 446.54,-190.93"/>
<polygon fill="#63b8ff" stroke="#63b8ff" points="448.77,-188.22 438.6,-185.24 444.69,-193.91 448.77,-188.22"/>
</g>
<!-- Node17 -->
<g id="node17" class="node">
<title>Node17</title>
<g id="a_node17"><a xlink:title=" ">
<polygon fill="#e0e0e0" stroke="#999999" points="554,-184 474,-184 474,-165 554,-165 554,-184"/>
<text text-anchor="middle" x="514" y="-172" font-family="Helvetica,sans-Serif" font-size="10.00">arduino&#45;timer.h</text>
</a>
</g>
</g>
<!-- Node4&#45;&gt;Node17 -->
<g id="edge19" class="edge">
<title>Node4&#45;&gt;Node17</title>
<path fill="none" stroke="#63b8ff" d="M501.48,-219.75C503.35,-213.11 506.01,-203.73 508.39,-195.31"/>
<polygon fill="#63b8ff" stroke="#63b8ff" points="511.7,-196.47 511.06,-185.9 504.97,-194.57 511.7,-196.47"/>
</g>
<!-- Node6 -->
<g id="node6" class="node">
<title>Node6</title>
<g id="a_node6"><a xlink:href="Configuration_8h.html" target="_top" xlink:title=" ">
<polygon fill="white" stroke="#666666" points="767,-19 687,-19 687,0 767,0 767,-19"/>
<text text-anchor="middle" x="727" y="-7" font-family="Helvetica,sans-Serif" font-size="10.00">Configuration.h</text>
</a>
</g>
</g>
<!-- Node5&#45;&gt;Node6 -->
<g id="edge5" class="edge">
<title>Node5&#45;&gt;Node6</title>
<path fill="none" stroke="#63b8ff" d="M456.4,-164.83C483.39,-156.91 523.04,-144.14 556,-129 599.63,-108.95 609.6,-101.46 649,-74 670.35,-59.12 693.29,-40.04 708.72,-26.69"/>
<polygon fill="#63b8ff" stroke="#63b8ff" points="710.91,-29.43 716.14,-20.21 706.3,-24.16 710.91,-29.43"/>
</g>
<!-- Node7 -->
<g id="node7" class="node">
<title>Node7</title>
<g id="a_node7"><a xlink:href="Container_8h.html" target="_top" xlink:title=" ">
<polygon fill="white" stroke="#666666" points="148.5,-129 83.5,-129 83.5,-110 148.5,-110 148.5,-129"/>
<text text-anchor="middle" x="116" y="-117" font-family="Helvetica,sans-Serif" font-size="10.00">Container.h</text>
</a>
</g>
</g>
<!-- Node5&#45;&gt;Node7 -->
<g id="edge6" class="edge">
<title>Node5&#45;&gt;Node7</title>
<path fill="none" stroke="#63b8ff" d="M393.59,-166.66C390.69,-166.08 387.79,-165.52 385,-165 288.09,-147.03 260.45,-147.11 160.24,-129.33"/>
<polygon fill="#63b8ff" stroke="#63b8ff" points="160.94,-125.9 150.48,-127.58 159.71,-132.79 160.94,-125.9"/>
</g>
<!-- Node9 -->
<g id="node9" class="node">
<title>Node9</title>
<g id="a_node9"><a xlink:title=" ">
<polygon fill="#e0e0e0" stroke="#999999" points="78,-19 0,-19 0,0 78,0 78,-19"/>
<text text-anchor="middle" x="39" y="-7" font-family="Helvetica,sans-Serif" font-size="10.00">ArduinoJson.h</text>
</a>
</g>
</g>
<!-- Node5&#45;&gt;Node9 -->
<g id="edge16" class="edge">
<title>Node5&#45;&gt;Node9</title>
<path fill="none" stroke="#63b8ff" d="M393.61,-166.54C390.71,-165.98 387.8,-165.46 385,-165 316.34,-153.76 127.24,-173.79 74,-129 45.08,-104.67 39.39,-57.71 38.65,-30.78"/>
<polygon fill="#63b8ff" stroke="#63b8ff" points="42.15,-30.86 38.61,-20.88 35.15,-30.89 42.15,-30.86"/>
</g>
<!-- Node15 -->
<g id="node15" class="node">
<title>Node15</title>
<g id="a_node15"><a xlink:title=" ">
<polygon fill="#e0e0e0" stroke="#999999" points="484.5,-129 425.5,-129 425.5,-110 484.5,-110 484.5,-129"/>
<text text-anchor="middle" x="455" y="-117" font-family="Helvetica,sans-Serif" font-size="10.00">functional</text>
</a>
</g>
</g>
<!-- Node5&#45;&gt;Node15 -->
<g id="edge17" class="edge">
<title>Node5&#45;&gt;Node15</title>
<path fill="none" stroke="#63b8ff" d="M429.95,-164.75C433.84,-157.88 439.39,-148.08 444.28,-139.45"/>
<polygon fill="#63b8ff" stroke="#63b8ff" points="447.31,-141.19 449.19,-130.76 441.22,-137.74 447.31,-141.19"/>
</g>
<!-- Node16 -->
<g id="node16" class="node">
<title>Node16</title>
<g id="a_node16"><a xlink:title=" ">
<polygon fill="#e0e0e0" stroke="#999999" points="547,-129 503,-129 503,-110 547,-110 547,-129"/>
<text text-anchor="middle" x="525" y="-117" font-family="Helvetica,sans-Serif" font-size="10.00">vector</text>
</a>
</g>
</g>
<!-- Node5&#45;&gt;Node16 -->
<g id="edge18" class="edge">
<title>Node5&#45;&gt;Node16</title>
<path fill="none" stroke="#63b8ff" d="M441.96,-164.51C457.36,-156.35 480.31,-144.19 498.19,-134.71"/>
<polygon fill="#63b8ff" stroke="#63b8ff" points="499.75,-137.84 506.95,-130.07 496.47,-131.66 499.75,-137.84"/>
</g>
<!-- Node8 -->
<g id="node8" class="node">
<title>Node8</title>
<g id="a_node8"><a xlink:href="Helper_8h.html" target="_top" xlink:title=" ">
<polygon fill="white" stroke="#666666" points="217.5,-74 164.5,-74 164.5,-55 217.5,-55 217.5,-74"/>
<text text-anchor="middle" x="191" y="-62" font-family="Helvetica,sans-Serif" font-size="10.00">Helper.h</text>
</a>
</g>
</g>
<!-- Node7&#45;&gt;Node8 -->
<g id="edge7" class="edge">
<title>Node7&#45;&gt;Node8</title>
<path fill="none" stroke="#63b8ff" d="M128.72,-109.51C139.78,-101.7 156.04,-90.21 169.17,-80.93"/>
<polygon fill="#63b8ff" stroke="#63b8ff" points="171.08,-83.86 177.23,-75.23 167.04,-78.14 171.08,-83.86"/>
</g>
<!-- Node12 -->
<g id="node12" class="node">
<title>Node12</title>
<g id="a_node12"><a xlink:title=" ">
<polygon fill="#e0e0e0" stroke="#999999" points="147.5,-19 96.5,-19 96.5,0 147.5,0 147.5,-19"/>
<text text-anchor="middle" x="122" y="-7" font-family="Helvetica,sans-Serif" font-size="10.00">assert.h</text>
</a>
</g>
</g>
<!-- Node7&#45;&gt;Node12 -->
<g id="edge15" class="edge">
<title>Node7&#45;&gt;Node12</title>
<path fill="none" stroke="#63b8ff" d="M116.49,-109.66C117.44,-92.57 119.55,-54.61 120.87,-30.92"/>
<polygon fill="#63b8ff" stroke="#63b8ff" points="124.36,-31.15 121.42,-20.97 117.37,-30.76 124.36,-31.15"/>
</g>
<!-- Node8&#45;&gt;Node6 -->
<g id="edge8" class="edge">
<title>Node8&#45;&gt;Node6</title>
<path fill="none" stroke="#63b8ff" d="M217.65,-56.76C220.79,-56.1 223.96,-55.49 227,-55 389.36,-28.75 584.08,-17.02 675.2,-12.66"/>
<polygon fill="#63b8ff" stroke="#63b8ff" points="675.24,-16.17 685.06,-12.2 674.91,-9.17 675.24,-16.17"/>
</g>
<!-- Node8&#45;&gt;Node9 -->
<g id="edge9" class="edge">
<title>Node8&#45;&gt;Node9</title>
<path fill="none" stroke="#63b8ff" d="M165.22,-54.51C140.57,-45.92 103.19,-32.88 75.49,-23.22"/>
<polygon fill="#63b8ff" stroke="#63b8ff" points="76.68,-19.93 66.09,-19.94 74.38,-26.54 76.68,-19.93"/>
</g>
<!-- Node10 -->
<g id="node10" class="node">
<title>Node10</title>
<g id="a_node10"><a xlink:title=" ">
<polygon fill="#e0e0e0" stroke="#999999" points="344.5,-19 297.5,-19 297.5,0 344.5,0 344.5,-19"/>
<text text-anchor="middle" x="321" y="-7" font-family="Helvetica,sans-Serif" font-size="10.00">iterator</text>
</a>
</g>
</g>
<!-- Node8&#45;&gt;Node10 -->
<g id="edge10" class="edge">
<title>Node8&#45;&gt;Node10</title>
<path fill="none" stroke="#63b8ff" d="M213.05,-54.51C233.81,-46.04 265.16,-33.27 288.73,-23.66"/>
<polygon fill="#63b8ff" stroke="#63b8ff" points="289.93,-26.95 297.87,-19.93 287.29,-20.46 289.93,-26.95"/>
</g>
<!-- Node11 -->
<g id="node11" class="node">
<title>Node11</title>
<g id="a_node11"><a xlink:title=" ">
<polygon fill="#e0e0e0" stroke="#999999" points="441,-19 393,-19 393,0 441,0 441,-19"/>
<text text-anchor="middle" x="417" y="-7" font-family="Helvetica,sans-Serif" font-size="10.00">stdint.h</text>
</a>
</g>
</g>
<!-- Node8&#45;&gt;Node11 -->
<g id="edge11" class="edge">
<title>Node8&#45;&gt;Node11</title>
<path fill="none" stroke="#63b8ff" d="M217.74,-57.18C220.86,-56.45 224,-55.71 227,-55 280.95,-42.31 343.53,-27.67 381.68,-18.75"/>
<polygon fill="#63b8ff" stroke="#63b8ff" points="382.29,-22.2 391.23,-16.52 380.69,-15.39 382.29,-22.2"/>
</g>
<!-- Node8&#45;&gt;Node12 -->
<g id="edge12" class="edge">
<title>Node8&#45;&gt;Node12</title>
<path fill="none" stroke="#63b8ff" d="M179.3,-54.51C169.22,-46.77 154.46,-35.43 142.44,-26.2"/>
<polygon fill="#63b8ff" stroke="#63b8ff" points="144.79,-23.6 134.73,-20.28 140.53,-29.15 144.79,-23.6"/>
</g>
<!-- Node13 -->
<g id="node13" class="node">
<title>Node13</title>
<g id="a_node13"><a xlink:title=" ">
<polygon fill="#e0e0e0" stroke="#999999" points="216.5,-19 165.5,-19 165.5,0 216.5,0 216.5,-19"/>
<text text-anchor="middle" x="191" y="-7" font-family="Helvetica,sans-Serif" font-size="10.00">stdarg.h</text>
</a>
</g>
</g>
<!-- Node8&#45;&gt;Node13 -->
<g id="edge13" class="edge">
<title>Node8&#45;&gt;Node13</title>
<path fill="none" stroke="#63b8ff" d="M191,-54.75C191,-48.27 191,-39.16 191,-30.9"/>
<polygon fill="#63b8ff" stroke="#63b8ff" points="194.5,-30.96 191,-20.96 187.5,-30.96 194.5,-30.96"/>
</g>
<!-- Node14 -->
<g id="node14" class="node">
<title>Node14</title>
<g id="a_node14"><a xlink:title=" ">
<polygon fill="#e0e0e0" stroke="#999999" points="279.5,-19 234.5,-19 234.5,0 279.5,0 279.5,-19"/>
<text text-anchor="middle" x="257" y="-7" font-family="Helvetica,sans-Serif" font-size="10.00">stdio.h</text>
</a>
</g>
</g>
<!-- Node8&#45;&gt;Node14 -->
<g id="edge14" class="edge">
<title>Node8&#45;&gt;Node14</title>
<path fill="none" stroke="#63b8ff" d="M202.2,-54.51C211.74,-46.85 225.67,-35.66 237.11,-26.47"/>
<polygon fill="#63b8ff" stroke="#63b8ff" points="239.18,-29.3 244.79,-20.31 234.8,-23.84 239.18,-29.3"/>
</g>
<!-- Node18&#45;&gt;Node6 -->
<g id="edge21" class="edge">
<title>Node18&#45;&gt;Node6</title>
<path fill="none" stroke="#63b8ff" d="M349.86,-164.7C362.6,-150.97 389.16,-124.51 417,-110 472.44,-81.09 493.35,-92.74 553,-74 602.69,-58.39 659.16,-37.11 693.93,-23.59"/>
<polygon fill="#63b8ff" stroke="#63b8ff" points="694.98,-26.94 703.02,-20.04 692.43,-20.42 694.98,-26.94"/>
</g>
<!-- Node18&#45;&gt;Node11 -->
<g id="edge22" class="edge">
<title>Node18&#45;&gt;Node11</title>
<path fill="none" stroke="#63b8ff" d="M346.03,-164.74C357.73,-139.31 391.89,-65.08 408.17,-29.69"/>
<polygon fill="#63b8ff" stroke="#63b8ff" points="411.31,-31.23 412.32,-20.68 404.96,-28.3 411.31,-31.23"/>
</g>
<!-- Node19&#45;&gt;Node5 -->
<g id="edge24" class="edge">
<title>Node19&#45;&gt;Node5</title>
<path fill="none" stroke="#63b8ff" d="M215.25,-219.51C255.94,-211.04 318.87,-197.92 382.51,-184.52"/>
<polygon fill="#63b8ff" stroke="#63b8ff" points="383.01,-187.99 392.08,-182.5 381.57,-181.14 383.01,-187.99"/>
</g>
<!-- Node19&#45;&gt;Node18 -->
<g id="edge25" class="edge">
<title>Node19&#45;&gt;Node18</title>
<path fill="none" stroke="#63b8ff" d="M200.84,-219.51C228.76,-210.8 271.33,-197.53 302.42,-187.84"/>
<polygon fill="#63b8ff" stroke="#63b8ff" points="303.35,-191.21 311.86,-184.9 301.27,-184.53 303.35,-191.21"/>
</g>
<!-- Node20 -->
<g id="node20" class="node">
<title>Node20</title>
<g id="a_node20"><a xlink:href="DefaultLogger_8h.html" target="_top" xlink:title=" ">
<polygon fill="white" stroke="#666666" points="251.5,-129 166.5,-129 166.5,-110 251.5,-110 251.5,-129"/>
<text text-anchor="middle" x="209" y="-117" font-family="Helvetica,sans-Serif" font-size="10.00">DefaultLogger.h</text>
</a>
</g>
</g>
<!-- Node19&#45;&gt;Node20 -->
<g id="edge26" class="edge">
<title>Node19&#45;&gt;Node20</title>
<path fill="none" stroke="#63b8ff" d="M173.43,-219.69C175.59,-207.26 180.17,-183.97 187,-165 190.1,-156.39 194.41,-147.27 198.4,-139.54"/>
<polygon fill="#63b8ff" stroke="#63b8ff" points="201.46,-141.24 203.11,-130.77 195.29,-137.93 201.46,-141.24"/>
</g>
<!-- Node21 -->
<g id="node21" class="node">
<title>Node21</title>
<g id="a_node21"><a xlink:href="API__Process__Type_8h.html" target="_top" xlink:title=" ">
<polygon fill="white" stroke="#666666" points="344,-74 236,-74 236,-55 344,-55 344,-74"/>
<text text-anchor="middle" x="290" y="-62" font-family="Helvetica,sans-Serif" font-size="10.00">API_Process_Type.h</text>
</a>
</g>
</g>
<!-- Node19&#45;&gt;Node21 -->
<g id="edge28" class="edge">
<title>Node19&#45;&gt;Node21</title>
<path fill="none" stroke="#63b8ff" d="M205.28,-219.53C224.26,-212.75 246.99,-201.55 261,-184 283.84,-155.38 289.06,-111.38 290.04,-85.82"/>
<polygon fill="#63b8ff" stroke="#63b8ff" points="293.54,-85.89 290.21,-75.83 286.54,-85.77 293.54,-85.89"/>
</g>
<!-- Node22 -->
<g id="node22" class="node">
<title>Node22</title>
<g id="a_node22"><a xlink:title=" ">
<polygon fill="#e0e0e0" stroke="#999999" points="252,-184 196,-184 196,-165 252,-165 252,-184"/>
<text text-anchor="middle" x="224" y="-172" font-family="Helvetica,sans-Serif" font-size="10.00">algorithm</text>
</a>
</g>
</g>
<!-- Node19&#45;&gt;Node22 -->
<g id="edge30" class="edge">
<title>Node19&#45;&gt;Node22</title>
<path fill="none" stroke="#63b8ff" d="M180.59,-219.75C187.84,-212.35 198.45,-201.54 207.37,-192.45"/>
<polygon fill="#63b8ff" stroke="#63b8ff" points="209.66,-195.11 214.17,-185.52 204.66,-190.21 209.66,-195.11"/>
</g>
<!-- Node20&#45;&gt;Node8 -->
<g id="edge27" class="edge">
<title>Node20&#45;&gt;Node8</title>
<path fill="none" stroke="#63b8ff" d="M206.03,-109.75C203.77,-103.11 200.59,-93.73 197.73,-85.31"/>
<polygon fill="#63b8ff" stroke="#63b8ff" points="201.05,-84.22 194.52,-75.88 194.43,-86.47 201.05,-84.22"/>
</g>
<!-- Node21&#45;&gt;Node11 -->
<g id="edge29" class="edge">
<title>Node21&#45;&gt;Node11</title>
<path fill="none" stroke="#63b8ff" d="M311.54,-54.51C331.74,-46.08 362.17,-33.38 385.16,-23.79"/>
<polygon fill="#63b8ff" stroke="#63b8ff" points="386.5,-27.02 394.38,-19.94 383.8,-20.56 386.5,-27.02"/>
</g>
<!-- Node23&#45;&gt;Node19 -->
<g id="edge35" class="edge">
<title>Node23&#45;&gt;Node19</title>
<path fill="none" stroke="#63b8ff" d="M282.44,-274.51C261.1,-266.01 228.84,-253.15 204.69,-243.53"/>
<polygon fill="#63b8ff" stroke="#63b8ff" points="206.22,-240.37 195.63,-239.92 203.63,-246.87 206.22,-240.37"/>
</g>
<!-- Node24 -->
<g id="node24" class="node">
<title>Node24</title>
<g id="a_node24"><a xlink:href="Shared__Attribute__Callback_8h.html" target="_top" xlink:title=" ">
<polygon fill="white" stroke="#666666" points="426,-239 286,-239 286,-220 426,-220 426,-239"/>
<text text-anchor="middle" x="356" y="-227" font-family="Helvetica,sans-Serif" font-size="10.00">Shared_Attribute_Callback.h</text>
</a>
</g>
</g>
<!-- Node23&#45;&gt;Node24 -->
<g id="edge32" class="edge">
<title>Node23&#45;&gt;Node24</title>
<path fill="none" stroke="#63b8ff" d="M313.42,-274.75C320.47,-267.43 330.73,-256.76 339.41,-247.74"/>
<polygon fill="#63b8ff" stroke="#63b8ff" points="341.93,-250.17 346.35,-240.53 336.89,-245.31 341.93,-250.17"/>
</g>
<!-- Node24&#45;&gt;Node5 -->
<g id="edge33" class="edge">
<title>Node24&#45;&gt;Node5</title>
<path fill="none" stroke="#63b8ff" d="M367.7,-219.51C377.78,-211.77 392.54,-200.43 404.56,-191.2"/>
<polygon fill="#63b8ff" stroke="#63b8ff" points="406.47,-194.15 412.27,-185.28 402.21,-188.6 406.47,-194.15"/>
</g>
<!-- Node24&#45;&gt;Node18 -->
<g id="edge34" class="edge">
<title>Node24&#45;&gt;Node18</title>
<path fill="none" stroke="#63b8ff" d="M353.69,-219.75C351.94,-213.11 349.46,-203.73 347.23,-195.31"/>
<polygon fill="#63b8ff" stroke="#63b8ff" points="350.69,-194.68 344.75,-185.91 343.92,-196.47 350.69,-194.68"/>
</g>
<!-- Node25&#45;&gt;Node4 -->
<g id="edge38" class="edge">
<title>Node25&#45;&gt;Node4</title>
<path fill="none" stroke="#63b8ff" d="M680.02,-274.51C643.34,-265.59 586.98,-251.89 546.9,-242.15"/>
<polygon fill="#63b8ff" stroke="#63b8ff" points="547.81,-238.77 537.27,-239.8 546.16,-245.57 547.81,-238.77"/>
</g>
<!-- Node25&#45;&gt;Node6 -->
<g id="edge37" class="edge">
<title>Node25&#45;&gt;Node6</title>
<path fill="none" stroke="#63b8ff" d="M758.95,-277.58C842.35,-264.62 1021,-230.46 1021,-175.5 1021,-175.5 1021,-175.5 1021,-118.5 1021,-67.42 862.67,-33.15 778.39,-18.52"/>
<polygon fill="#63b8ff" stroke="#63b8ff" points="779.2,-15.11 768.76,-16.89 778.03,-22.01 779.2,-15.11"/>
</g>
<!-- Node25&#45;&gt;Node8 -->
<g id="edge53" class="edge">
<title>Node25&#45;&gt;Node8</title>
<path fill="none" stroke="#63b8ff" d="M675.11,-276.54C650.59,-270.46 620.67,-259.28 601,-239 558.73,-195.41 603.52,-147.81 556,-110 500.92,-66.18 316.32,-84.69 228.84,-73.83"/>
<polygon fill="#63b8ff" stroke="#63b8ff" points="229.56,-70.4 219.16,-72.4 228.54,-77.32 229.56,-70.4"/>
</g>
<!-- Node26 -->
<g id="node26" class="node">
<title>Node26</title>
<g id="a_node26"><a xlink:href="HashGenerator_8h.html" target="_top" xlink:title=" ">
<polygon fill="white" stroke="#666666" points="911,-184 821,-184 821,-165 911,-165 911,-184"/>
<text text-anchor="middle" x="866" y="-172" font-family="Helvetica,sans-Serif" font-size="10.00">HashGenerator.h</text>
</a>
</g>
</g>
<!-- Node25&#45;&gt;Node26 -->
<g id="edge39" class="edge">
<title>Node25&#45;&gt;Node26</title>
<path fill="none" stroke="#63b8ff" d="M758.93,-279.14C787.4,-274.05 823.93,-262.99 847,-239 858.24,-227.32 862.86,-209.26 864.75,-195.39"/>
<polygon fill="#63b8ff" stroke="#63b8ff" points="868.21,-195.92 865.68,-185.63 861.24,-195.25 868.21,-195.92"/>
</g>
<!-- Node29 -->
<g id="node29" class="node">
<title>Node29</title>
<g id="a_node29"><a xlink:href="OTA__Update__Callback_8h.html" target="_top" xlink:title=" ">
<polygon fill="white" stroke="#666666" points="734,-239 610,-239 610,-220 734,-220 734,-239"/>
<text text-anchor="middle" x="672" y="-227" font-family="Helvetica,sans-Serif" font-size="10.00">OTA_Update_Callback.h</text>
</a>
</g>
</g>
<!-- Node25&#45;&gt;Node29 -->
<g id="edge44" class="edge">
<title>Node25&#45;&gt;Node29</title>
<path fill="none" stroke="#63b8ff" d="M709.57,-274.75C703.42,-267.5 694.49,-256.98 686.87,-248.02"/>
<polygon fill="#63b8ff" stroke="#63b8ff" points="689.71,-245.95 680.57,-240.6 684.38,-250.48 689.71,-245.95"/>
</g>
<!-- Node31 -->
<g id="node31" class="node">
<title>Node31</title>
<g id="a_node31"><a xlink:href="OTA__Failure__Response_8h.html" target="_top" xlink:title=" ">
<polygon fill="white" stroke="#666666" points="544,-74 416,-74 416,-55 544,-55 544,-74"/>
<text text-anchor="middle" x="480" y="-62" font-family="Helvetica,sans-Serif" font-size="10.00">OTA_Failure_Response.h</text>
</a>
</g>
</g>
<!-- Node25&#45;&gt;Node31 -->
<g id="edge51" class="edge">
<title>Node25&#45;&gt;Node31</title>
<path fill="none" stroke="#63b8ff" d="M725.8,-274.65C737.53,-261.76 755.44,-237.47 743,-220 714.63,-180.16 677.79,-213.79 639,-184 607.52,-159.82 619.81,-135.02 589,-110 571.05,-95.42 547.67,-85.03 527.16,-77.98"/>
<polygon fill="#63b8ff" stroke="#63b8ff" points="528.47,-74.73 517.88,-74.97 526.31,-81.38 528.47,-74.73"/>
</g>
<!-- Node32 -->
<g id="node32" class="node">
<title>Node32</title>
<g id="a_node32"><a xlink:title=" ">
<polygon fill="#e0e0e0" stroke="#999999" points="838,-239 790,-239 790,-220 838,-220 838,-239"/>
<text text-anchor="middle" x="814" y="-227" font-family="Helvetica,sans-Serif" font-size="10.00">string.h</text>
</a>
</g>
</g>
<!-- Node25&#45;&gt;Node32 -->
<g id="edge54" class="edge">
<title>Node25&#45;&gt;Node32</title>
<path fill="none" stroke="#63b8ff" d="M733.45,-274.51C748.32,-266.39 770.44,-254.3 787.75,-244.85"/>
<polygon fill="#63b8ff" stroke="#63b8ff" points="789.36,-247.95 796.46,-240.08 786.01,-241.81 789.36,-247.95"/>
</g>
<!-- Node26&#45;&gt;Node6 -->
<g id="edge40" class="edge">
<title>Node26&#45;&gt;Node6</title>
<path fill="none" stroke="#63b8ff" d="M865.34,-164.59C864.03,-151.64 860.16,-127.25 849,-110 824.65,-72.35 781.41,-42.1 753.49,-25.22"/>
<polygon fill="#63b8ff" stroke="#63b8ff" points="755.31,-22.23 744.92,-20.18 751.77,-28.27 755.31,-22.23"/>
</g>
<!-- Node26&#45;&gt;Node11 -->
<g id="edge42" class="edge">
<title>Node26&#45;&gt;Node11</title>
<path fill="none" stroke="#63b8ff" d="M861.5,-164.58C854.02,-150.69 837.68,-124.02 816,-110 698.17,-33.79 526.06,-15.95 452.49,-11.78"/>
<polygon fill="#63b8ff" stroke="#63b8ff" points="452.82,-8.29 442.65,-11.28 452.46,-15.28 452.82,-8.29"/>
</g>
<!-- Node27 -->
<g id="node27" class="node">
<title>Node27</title>
<g id="a_node27"><a xlink:title=" ">
<polygon fill="#e0e0e0" stroke="#999999" points="993,-129 901,-129 901,-110 993,-110 993,-129"/>
<text text-anchor="middle" x="947" y="-117" font-family="Helvetica,sans-Serif" font-size="10.00">Seeed_mbedtls.h</text>
</a>
</g>
</g>
<!-- Node26&#45;&gt;Node27 -->
<g id="edge41" class="edge">
<title>Node26&#45;&gt;Node27</title>
<path fill="none" stroke="#63b8ff" d="M879.74,-164.51C891.8,-156.62 909.59,-144.98 923.84,-135.65"/>
<polygon fill="#63b8ff" stroke="#63b8ff" points="925.74,-138.59 932.2,-130.19 921.91,-132.73 925.74,-138.59"/>
</g>
<!-- Node28 -->
<g id="node28" class="node">
<title>Node28</title>
<g id="a_node28"><a xlink:title=" ">
<polygon fill="#e0e0e0" stroke="#999999" points="806.5,-129 755.5,-129 755.5,-110 806.5,-110 806.5,-129"/>
<text text-anchor="middle" x="781" y="-117" font-family="Helvetica,sans-Serif" font-size="10.00">stddef.h</text>
</a>
</g>
</g>
<!-- Node26&#45;&gt;Node28 -->
<g id="edge43" class="edge">
<title>Node26&#45;&gt;Node28</title>
<path fill="none" stroke="#63b8ff" d="M851.58,-164.51C838.8,-156.54 819.9,-144.75 804.87,-135.38"/>
<polygon fill="#63b8ff" stroke="#63b8ff" points="806.83,-132.48 796.49,-130.16 803.12,-138.42 806.83,-132.48"/>
</g>
<!-- Node29&#45;&gt;Node5 -->
<g id="edge45" class="edge">
<title>Node29&#45;&gt;Node5</title>
<path fill="none" stroke="#63b8ff" d="M630.1,-219.51C584.77,-209.78 512.9,-194.36 467.38,-184.59"/>
<polygon fill="#63b8ff" stroke="#63b8ff" points="468.12,-181.17 457.61,-182.5 466.65,-188.02 468.12,-181.17"/>
</g>
<!-- Node30 -->
<g id="node30" class="node">
<title>Node30</title>
<g id="a_node30"><a xlink:href="IUpdater_8h.html" target="_top" xlink:title=" ">
<polygon fill="white" stroke="#666666" points="710,-184 648,-184 648,-165 710,-165 710,-184"/>
<text text-anchor="middle" x="679" y="-172" font-family="Helvetica,sans-Serif" font-size="10.00">IUpdater.h</text>
</a>
</g>
</g>
<!-- Node29&#45;&gt;Node30 -->
<g id="edge46" class="edge">
<title>Node29&#45;&gt;Node30</title>
<path fill="none" stroke="#63b8ff" d="M673.16,-219.75C674.02,-213.19 675.24,-203.95 676.34,-195.6"/>
<polygon fill="#63b8ff" stroke="#63b8ff" points="679.78,-196.31 677.62,-185.94 672.84,-195.4 679.78,-196.31"/>
</g>
<!-- Node30&#45;&gt;Node6 -->
<g id="edge47" class="edge">
<title>Node30&#45;&gt;Node6</title>
<path fill="none" stroke="#63b8ff" d="M684.78,-164.66C690.24,-155.94 698.28,-142.04 703,-129 715.11,-95.54 721.71,-54.43 724.78,-30.47"/>
<polygon fill="#63b8ff" stroke="#63b8ff" points="728.22,-31.21 725.93,-20.87 721.27,-30.38 728.22,-31.21"/>
</g>
<!-- Node30&#45;&gt;Node11 -->
<g id="edge50" class="edge">
<title>Node30&#45;&gt;Node11</title>
<path fill="none" stroke="#63b8ff" d="M672.88,-164.71C663.73,-151.91 645.56,-127.7 627,-110 597.35,-81.71 589.39,-73.84 553,-55 520.52,-38.19 480.42,-25.99 452.21,-18.67"/>
<polygon fill="#63b8ff" stroke="#63b8ff" points="453.29,-15.33 442.74,-16.29 451.59,-22.12 453.29,-15.33"/>
</g>
<!-- Node30&#45;&gt;Node20 -->
<g id="edge48" class="edge">
<title>Node30&#45;&gt;Node20</title>
<path fill="none" stroke="#63b8ff" d="M647.8,-169.98C569.11,-161.11 361.82,-137.73 262.95,-126.58"/>
<polygon fill="#63b8ff" stroke="#63b8ff" points="263.57,-123.13 253.24,-125.49 262.78,-130.09 263.57,-123.13"/>
</g>
<!-- Node30&#45;&gt;Node28 -->
<g id="edge49" class="edge">
<title>Node30&#45;&gt;Node28</title>
<path fill="none" stroke="#63b8ff" d="M696.3,-164.51C712.08,-156.31 735.64,-144.07 753.91,-134.58"/>
<polygon fill="#63b8ff" stroke="#63b8ff" points="755.35,-137.77 762.61,-130.06 752.12,-131.56 755.35,-137.77"/>
</g>
<!-- Node31&#45;&gt;Node11 -->
<g id="edge52" class="edge">
<title>Node31&#45;&gt;Node11</title>
<path fill="none" stroke="#63b8ff" d="M469.31,-54.51C460.3,-46.93 447.17,-35.88 436.32,-26.75"/>
<polygon fill="#63b8ff" stroke="#63b8ff" points="438.59,-24.09 428.69,-20.33 434.09,-29.45 438.59,-24.09"/>
</g>
</g>
</svg>
