<?xml version="1.0" encoding="UTF-8" standalone="no"?>
<!DOCTYPE svg PUBLIC "-//W3C//DTD SVG 1.1//EN"
 "http://www.w3.org/Graphics/SVG/1.1/DTD/svg11.dtd">
<!-- Generated by graphviz version 7.0.5 (20221223.1930)
 -->
<!-- Title: src/OTA_Update_Callback.cpp Pages: 1 -->
<svg width="575pt" height="412pt"
 viewBox="0.00 0.00 574.50 412.00" xmlns="http://www.w3.org/2000/svg" xmlns:xlink="http://www.w3.org/1999/xlink">
<g id="graph0" class="graph" transform="scale(1 1) rotate(0) translate(4 408)">
<title>src/OTA_Update_Callback.cpp</title>
<!-- Node1 -->
<g id="node1" class="node">
<title>Node1</title>
<g id="a_node1"><a xlink:title=" ">
<polygon fill="#999999" stroke="#666666" points="384,-404 233,-404 233,-385 384,-385 384,-404"/>
<text text-anchor="middle" x="308.5" y="-392" font-family="Helvetica,sans-Serif" font-size="10.00">src/OTA_Update_Callback.cpp</text>
</a>
</g>
</g>
<!-- Node2 -->
<g id="node2" class="node">
<title>Node2</title>
<g id="a_node2"><a xlink:href="OTA__Update__Callback_8h.html" target="_top" xlink:title=" ">
<polygon fill="white" stroke="#666666" points="370.5,-349 246.5,-349 246.5,-330 370.5,-330 370.5,-349"/>
<text text-anchor="middle" x="308.5" y="-337" font-family="Helvetica,sans-Serif" font-size="10.00">OTA_Update_Callback.h</text>
</a>
</g>
</g>
<!-- Node1&#45;&gt;Node2 -->
<g id="edge1" class="edge">
<title>Node1&#45;&gt;Node2</title>
<path fill="none" stroke="#63b8ff" d="M308.5,-384.75C308.5,-378.27 308.5,-369.16 308.5,-360.9"/>
<polygon fill="#63b8ff" stroke="#63b8ff" points="312,-360.96 308.5,-350.96 305,-360.96 312,-360.96"/>
</g>
<!-- Node3 -->
<g id="node3" class="node">
<title>Node3</title>
<g id="a_node3"><a xlink:href="Callback_8h.html" target="_top" xlink:title=" ">
<polygon fill="white" stroke="#666666" points="383.5,-184 321.5,-184 321.5,-165 383.5,-165 383.5,-184"/>
<text text-anchor="middle" x="352.5" y="-172" font-family="Helvetica,sans-Serif" font-size="10.00">Callback.h</text>
</a>
</g>
</g>
<!-- Node2&#45;&gt;Node3 -->
<g id="edge2" class="edge">
<title>Node2&#45;&gt;Node3</title>
<path fill="none" stroke="#63b8ff" d="M309.6,-329.71C312.23,-309.81 319.65,-259.97 332.5,-220 335.25,-211.44 339.16,-202.33 342.79,-194.59"/>
<polygon fill="#63b8ff" stroke="#63b8ff" points="345.83,-196.35 347.09,-185.83 339.54,-193.27 345.83,-196.35"/>
</g>
<!-- Node15 -->
<g id="node15" class="node">
<title>Node15</title>
<g id="a_node15"><a xlink:href="IUpdater_8h.html" target="_top" xlink:title=" ">
<polygon fill="white" stroke="#666666" points="148.5,-184 86.5,-184 86.5,-165 148.5,-165 148.5,-184"/>
<text text-anchor="middle" x="117.5" y="-172" font-family="Helvetica,sans-Serif" font-size="10.00">IUpdater.h</text>
</a>
</g>
</g>
<!-- Node2&#45;&gt;Node15 -->
<g id="edge17" class="edge">
<title>Node2&#45;&gt;Node15</title>
<path fill="none" stroke="#63b8ff" d="M297.96,-329.5C266.97,-303.06 175.87,-225.31 136.25,-191.5"/>
<polygon fill="#63b8ff" stroke="#63b8ff" points="138.81,-189.08 128.93,-185.25 134.26,-194.41 138.81,-189.08"/>
</g>
<!-- Node18 -->
<g id="node18" class="node">
<title>Node18</title>
<g id="a_node18"><a xlink:href="Timeoutable__Request_8h.html" target="_top" xlink:title=" ">
<polygon fill="white" stroke="#666666" points="456,-294 337,-294 337,-275 456,-275 456,-294"/>
<text text-anchor="middle" x="396.5" y="-282" font-family="Helvetica,sans-Serif" font-size="10.00">Timeoutable_Request.h</text>
</a>
</g>
</g>
<!-- Node2&#45;&gt;Node18 -->
<g id="edge23" class="edge">
<title>Node2&#45;&gt;Node18</title>
<path fill="none" stroke="#63b8ff" d="M323.43,-329.51C336.78,-321.47 356.61,-309.53 372.24,-300.11"/>
<polygon fill="#63b8ff" stroke="#63b8ff" points="373.74,-303.3 380.5,-295.14 370.12,-297.3 373.74,-303.3"/>
</g>
<!-- Node4 -->
<g id="node4" class="node">
<title>Node4</title>
<g id="a_node4"><a xlink:href="Configuration_8h.html" target="_top" xlink:title=" ">
<polygon fill="white" stroke="#666666" points="203.5,-19 123.5,-19 123.5,0 203.5,0 203.5,-19"/>
<text text-anchor="middle" x="163.5" y="-7" font-family="Helvetica,sans-Serif" font-size="10.00">Configuration.h</text>
</a>
</g>
</g>
<!-- Node3&#45;&gt;Node4 -->
<g id="edge3" class="edge">
<title>Node3&#45;&gt;Node4</title>
<path fill="none" stroke="#63b8ff" d="M334.93,-164.61C319.39,-156.37 296.47,-143.26 278.5,-129 238.46,-97.22 198.4,-52.21 177.78,-27.83"/>
<polygon fill="#63b8ff" stroke="#63b8ff" points="180.71,-25.88 171.61,-20.45 175.34,-30.37 180.71,-25.88"/>
</g>
<!-- Node5 -->
<g id="node5" class="node">
<title>Node5</title>
<g id="a_node5"><a xlink:title=" ">
<polygon fill="#e0e0e0" stroke="#999999" points="566.5,-19 488.5,-19 488.5,0 566.5,0 566.5,-19"/>
<text text-anchor="middle" x="527.5" y="-7" font-family="Helvetica,sans-Serif" font-size="10.00">ArduinoJson.h</text>
</a>
</g>
</g>
<!-- Node3&#45;&gt;Node5 -->
<g id="edge4" class="edge">
<title>Node3&#45;&gt;Node5</title>
<path fill="none" stroke="#63b8ff" d="M383.86,-166.01C425.38,-155.83 494.33,-137.86 502.5,-129 527.38,-102.03 529.96,-56.76 529.08,-30.68"/>
<polygon fill="#63b8ff" stroke="#63b8ff" points="532.58,-30.57 528.51,-20.79 525.59,-30.97 532.58,-30.57"/>
</g>
<!-- Node6 -->
<g id="node6" class="node">
<title>Node6</title>
<g id="a_node6"><a xlink:title=" ">
<polygon fill="#e0e0e0" stroke="#999999" points="347,-129 288,-129 288,-110 347,-110 347,-129"/>
<text text-anchor="middle" x="317.5" y="-117" font-family="Helvetica,sans-Serif" font-size="10.00">functional</text>
</a>
</g>
</g>
<!-- Node3&#45;&gt;Node6 -->
<g id="edge5" class="edge">
<title>Node3&#45;&gt;Node6</title>
<path fill="none" stroke="#63b8ff" d="M346.72,-164.75C342.09,-157.73 335.43,-147.64 329.63,-138.87"/>
<polygon fill="#63b8ff" stroke="#63b8ff" points="332.67,-137.12 324.24,-130.71 326.83,-140.98 332.67,-137.12"/>
</g>
<!-- Node7 -->
<g id="node7" class="node">
<title>Node7</title>
<g id="a_node7"><a xlink:title=" ">
<polygon fill="#e0e0e0" stroke="#999999" points="409.5,-129 365.5,-129 365.5,-110 409.5,-110 409.5,-129"/>
<text text-anchor="middle" x="387.5" y="-117" font-family="Helvetica,sans-Serif" font-size="10.00">vector</text>
</a>
</g>
</g>
<!-- Node3&#45;&gt;Node7 -->
<g id="edge6" class="edge">
<title>Node3&#45;&gt;Node7</title>
<path fill="none" stroke="#63b8ff" d="M358.28,-164.75C362.91,-157.73 369.57,-147.64 375.37,-138.87"/>
<polygon fill="#63b8ff" stroke="#63b8ff" points="378.17,-140.98 380.76,-130.71 372.33,-137.12 378.17,-140.98"/>
</g>
<!-- Node8 -->
<g id="node8" class="node">
<title>Node8</title>
<g id="a_node8"><a xlink:href="Container_8h.html" target="_top" xlink:title=" ">
<polygon fill="white" stroke="#666666" points="493,-129 428,-129 428,-110 493,-110 493,-129"/>
<text text-anchor="middle" x="460.5" y="-117" font-family="Helvetica,sans-Serif" font-size="10.00">Container.h</text>
</a>
</g>
</g>
<!-- Node3&#45;&gt;Node8 -->
<g id="edge7" class="edge">
<title>Node3&#45;&gt;Node8</title>
<path fill="none" stroke="#63b8ff" d="M370.82,-164.51C387.68,-156.24 412.93,-143.84 432.35,-134.31"/>
<polygon fill="#63b8ff" stroke="#63b8ff" points="433.66,-137.57 441.09,-130.02 430.57,-131.29 433.66,-137.57"/>
</g>
<!-- Node9 -->
<g id="node9" class="node">
<title>Node9</title>
<g id="a_node9"><a xlink:href="Helper_8h.html" target="_top" xlink:title=" ">
<polygon fill="white" stroke="#666666" points="341,-74 288,-74 288,-55 341,-55 341,-74"/>
<text text-anchor="middle" x="314.5" y="-62" font-family="Helvetica,sans-Serif" font-size="10.00">Helper.h</text>
</a>
</g>
</g>
<!-- Node8&#45;&gt;Node9 -->
<g id="edge8" class="edge">
<title>Node8&#45;&gt;Node9</title>
<path fill="none" stroke="#63b8ff" d="M435.73,-109.51C412.1,-100.93 376.26,-87.92 349.67,-78.27"/>
<polygon fill="#63b8ff" stroke="#63b8ff" points="350.92,-75 340.32,-74.87 348.53,-81.58 350.92,-75"/>
</g>
<!-- Node12 -->
<g id="node12" class="node">
<title>Node12</title>
<g id="a_node12"><a xlink:title=" ">
<polygon fill="#e0e0e0" stroke="#999999" points="470,-19 419,-19 419,0 470,0 470,-19"/>
<text text-anchor="middle" x="444.5" y="-7" font-family="Helvetica,sans-Serif" font-size="10.00">assert.h</text>
</a>
</g>
</g>
<!-- Node8&#45;&gt;Node12 -->
<g id="edge16" class="edge">
<title>Node8&#45;&gt;Node12</title>
<path fill="none" stroke="#63b8ff" d="M459.19,-109.66C456.65,-92.5 450.98,-54.26 447.48,-30.6"/>
<polygon fill="#63b8ff" stroke="#63b8ff" points="450.98,-30.34 446.05,-20.96 444.05,-31.36 450.98,-30.34"/>
</g>
<!-- Node9&#45;&gt;Node4 -->
<g id="edge9" class="edge">
<title>Node9&#45;&gt;Node4</title>
<path fill="none" stroke="#63b8ff" d="M288.88,-54.51C264.41,-45.92 227.26,-32.88 199.75,-23.22"/>
<polygon fill="#63b8ff" stroke="#63b8ff" points="201.01,-19.96 190.42,-19.95 198.69,-26.56 201.01,-19.96"/>
</g>
<!-- Node9&#45;&gt;Node5 -->
<g id="edge10" class="edge">
<title>Node9&#45;&gt;Node5</title>
<path fill="none" stroke="#63b8ff" d="M341.48,-56.79C376.42,-48.09 437.88,-32.8 480.55,-22.18"/>
<polygon fill="#63b8ff" stroke="#63b8ff" points="481.18,-25.63 490.04,-19.82 479.49,-18.84 481.18,-25.63"/>
</g>
<!-- Node10 -->
<g id="node10" class="node">
<title>Node10</title>
<g id="a_node10"><a xlink:title=" ">
<polygon fill="#e0e0e0" stroke="#999999" points="401,-19 354,-19 354,0 401,0 401,-19"/>
<text text-anchor="middle" x="377.5" y="-7" font-family="Helvetica,sans-Serif" font-size="10.00">iterator</text>
</a>
</g>
</g>
<!-- Node9&#45;&gt;Node10 -->
<g id="edge11" class="edge">
<title>Node9&#45;&gt;Node10</title>
<path fill="none" stroke="#63b8ff" d="M325.19,-54.51C334.2,-46.93 347.33,-35.88 358.18,-26.75"/>
<polygon fill="#63b8ff" stroke="#63b8ff" points="360.41,-29.45 365.81,-20.33 355.91,-24.09 360.41,-29.45"/>
</g>
<!-- Node11 -->
<g id="node11" class="node">
<title>Node11</title>
<g id="a_node11"><a xlink:title=" ">
<polygon fill="#e0e0e0" stroke="#999999" points="104.5,-19 56.5,-19 56.5,0 104.5,0 104.5,-19"/>
<text text-anchor="middle" x="80.5" y="-7" font-family="Helvetica,sans-Serif" font-size="10.00">stdint.h</text>
</a>
</g>
</g>
<!-- Node9&#45;&gt;Node11 -->
<g id="edge12" class="edge">
<title>Node9&#45;&gt;Node11</title>
<path fill="none" stroke="#63b8ff" d="M287.6,-57.75C251.1,-49.89 183.61,-35.19 115.86,-19.27"/>
<polygon fill="#63b8ff" stroke="#63b8ff" points="117.01,-15.94 106.47,-17.05 115.4,-22.76 117.01,-15.94"/>
</g>
<!-- Node9&#45;&gt;Node12 -->
<g id="edge13" class="edge">
<title>Node9&#45;&gt;Node12</title>
<path fill="none" stroke="#63b8ff" d="M336.55,-54.51C357.31,-46.04 388.66,-33.27 412.23,-23.66"/>
<polygon fill="#63b8ff" stroke="#63b8ff" points="413.43,-26.95 421.37,-19.93 410.79,-20.46 413.43,-26.95"/>
</g>
<!-- Node13 -->
<g id="node13" class="node">
<title>Node13</title>
<g id="a_node13"><a xlink:title=" ">
<polygon fill="#e0e0e0" stroke="#999999" points="273,-19 222,-19 222,0 273,0 273,-19"/>
<text text-anchor="middle" x="247.5" y="-7" font-family="Helvetica,sans-Serif" font-size="10.00">stdarg.h</text>
</a>
</g>
</g>
<!-- Node9&#45;&gt;Node13 -->
<g id="edge14" class="edge">
<title>Node9&#45;&gt;Node13</title>
<path fill="none" stroke="#63b8ff" d="M303.13,-54.51C293.45,-46.85 279.3,-35.66 267.69,-26.47"/>
<polygon fill="#63b8ff" stroke="#63b8ff" points="269.9,-23.76 259.88,-20.3 265.56,-29.25 269.9,-23.76"/>
</g>
<!-- Node14 -->
<g id="node14" class="node">
<title>Node14</title>
<g id="a_node14"><a xlink:title=" ">
<polygon fill="#e0e0e0" stroke="#999999" points="336,-19 291,-19 291,0 336,0 336,-19"/>
<text text-anchor="middle" x="313.5" y="-7" font-family="Helvetica,sans-Serif" font-size="10.00">stdio.h</text>
</a>
</g>
</g>
<!-- Node9&#45;&gt;Node14 -->
<g id="edge15" class="edge">
<title>Node9&#45;&gt;Node14</title>
<path fill="none" stroke="#63b8ff" d="M314.33,-54.75C314.21,-48.27 314.04,-39.16 313.88,-30.9"/>
<polygon fill="#63b8ff" stroke="#63b8ff" points="317.39,-30.89 313.7,-20.96 310.39,-31.02 317.39,-30.89"/>
</g>
<!-- Node15&#45;&gt;Node4 -->
<g id="edge18" class="edge">
<title>Node15&#45;&gt;Node4</title>
<path fill="none" stroke="#63b8ff" d="M119.97,-164.74C127.12,-139.42 147.92,-65.72 157.95,-30.16"/>
<polygon fill="#63b8ff" stroke="#63b8ff" points="161.26,-31.34 160.6,-20.76 154.52,-29.44 161.26,-31.34"/>
</g>
<!-- Node15&#45;&gt;Node11 -->
<g id="edge22" class="edge">
<title>Node15&#45;&gt;Node11</title>
<path fill="none" stroke="#63b8ff" d="M114.41,-164.72C111.36,-155.8 106.68,-141.56 103.5,-129 94.85,-94.89 87.66,-54.55 83.72,-30.82"/>
<polygon fill="#63b8ff" stroke="#63b8ff" points="87.19,-30.3 82.13,-20.99 80.28,-31.42 87.19,-30.3"/>
</g>
<!-- Node16 -->
<g id="node16" class="node">
<title>Node16</title>
<g id="a_node16"><a xlink:href="DefaultLogger_8h.html" target="_top" xlink:title=" ">
<polygon fill="white" stroke="#666666" points="231,-129 146,-129 146,-110 231,-110 231,-129"/>
<text text-anchor="middle" x="188.5" y="-117" font-family="Helvetica,sans-Serif" font-size="10.00">DefaultLogger.h</text>
</a>
</g>
</g>
<!-- Node15&#45;&gt;Node16 -->
<g id="edge19" class="edge">
<title>Node15&#45;&gt;Node16</title>
<path fill="none" stroke="#63b8ff" d="M129.54,-164.51C139.91,-156.77 155.1,-145.43 167.47,-136.2"/>
<polygon fill="#63b8ff" stroke="#63b8ff" points="169.5,-139.05 175.42,-130.26 165.31,-133.44 169.5,-139.05"/>
</g>
<!-- Node17 -->
<g id="node17" class="node">
<title>Node17</title>
<g id="a_node17"><a xlink:title=" ">
<polygon fill="#e0e0e0" stroke="#999999" points="51,-129 0,-129 0,-110 51,-110 51,-129"/>
<text text-anchor="middle" x="25.5" y="-117" font-family="Helvetica,sans-Serif" font-size="10.00">stddef.h</text>
</a>
</g>
</g>
<!-- Node15&#45;&gt;Node17 -->
<g id="edge21" class="edge">
<title>Node15&#45;&gt;Node17</title>
<path fill="none" stroke="#63b8ff" d="M101.89,-164.51C87.8,-156.39 66.81,-144.3 50.4,-134.85"/>
<polygon fill="#63b8ff" stroke="#63b8ff" points="52.6,-132.07 42.19,-130.11 49.11,-138.14 52.6,-132.07"/>
</g>
<!-- Node16&#45;&gt;Node9 -->
<g id="edge20" class="edge">
<title>Node16&#45;&gt;Node9</title>
<path fill="none" stroke="#63b8ff" d="M209.87,-109.51C229.91,-101.08 260.1,-88.38 282.91,-78.79"/>
<polygon fill="#63b8ff" stroke="#63b8ff" points="284.19,-82.05 292.05,-74.94 281.47,-75.6 284.19,-82.05"/>
</g>
<!-- Node19 -->
<g id="node19" class="node">
<title>Node19</title>
<g id="a_node19"><a xlink:href="Callback__Watchdog_8h.html" target="_top" xlink:title=" ">
<polygon fill="white" stroke="#666666" points="451.5,-239 341.5,-239 341.5,-220 451.5,-220 451.5,-239"/>
<text text-anchor="middle" x="396.5" y="-227" font-family="Helvetica,sans-Serif" font-size="10.00">Callback_Watchdog.h</text>
</a>
</g>
</g>
<!-- Node18&#45;&gt;Node19 -->
<g id="edge24" class="edge">
<title>Node18&#45;&gt;Node19</title>
<path fill="none" stroke="#63b8ff" d="M396.5,-274.75C396.5,-268.27 396.5,-259.16 396.5,-250.9"/>
<polygon fill="#63b8ff" stroke="#63b8ff" points="400,-250.96 396.5,-240.96 393,-250.96 400,-250.96"/>
</g>
<!-- Node19&#45;&gt;Node3 -->
<g id="edge25" class="edge">
<title>Node19&#45;&gt;Node3</title>
<path fill="none" stroke="#63b8ff" d="M389.23,-219.75C383.22,-212.5 374.49,-201.98 367.04,-193.02"/>
<polygon fill="#63b8ff" stroke="#63b8ff" points="369.97,-191.07 360.89,-185.61 364.58,-195.54 369.97,-191.07"/>
</g>
<!-- Node20 -->
<g id="node20" class="node">
<title>Node20</title>
<g id="a_node20"><a xlink:title=" ">
<polygon fill="#e0e0e0" stroke="#999999" points="481.5,-184 401.5,-184 401.5,-165 481.5,-165 481.5,-184"/>
<text text-anchor="middle" x="441.5" y="-172" font-family="Helvetica,sans-Serif" font-size="10.00">arduino&#45;timer.h</text>
</a>
</g>
</g>
<!-- Node19&#45;&gt;Node20 -->
<g id="edge26" class="edge">
<title>Node19&#45;&gt;Node20</title>
<path fill="none" stroke="#63b8ff" d="M403.93,-219.75C410.08,-212.5 419.01,-201.98 426.63,-193.02"/>
<polygon fill="#63b8ff" stroke="#63b8ff" points="429.12,-195.48 432.93,-185.6 423.79,-190.95 429.12,-195.48"/>
</g>
</g>
</svg>
