<?xml version="1.0" encoding="UTF-8" standalone="no"?>
<!DOCTYPE svg PUBLIC "-//W3C//DTD SVG 1.1//EN"
 "http://www.w3.org/Graphics/SVG/1.1/DTD/svg11.dtd">
<!-- Generated by graphviz version 7.0.5 (20221223.1930)
 -->
<!-- Title: src/OTA_Handler.h Pages: 1 -->
<svg width="885pt" height="302pt"
 viewBox="0.00 0.00 885.00 302.00" xmlns="http://www.w3.org/2000/svg" xmlns:xlink="http://www.w3.org/1999/xlink">
<g id="graph0" class="graph" transform="scale(1 1) rotate(0) translate(4 298)">
<title>src/OTA_Handler.h</title>
<!-- Node1 -->
<g id="node1" class="node">
<title>Node1</title>
<g id="a_node1"><a xlink:title=" ">
<polygon fill="#999999" stroke="#666666" points="596,-294 496,-294 496,-275 596,-275 596,-294"/>
<text text-anchor="middle" x="546" y="-282" font-family="Helvetica,sans-Serif" font-size="10.00">src/OTA_Handler.h</text>
</a>
</g>
</g>
<!-- Node2 -->
<g id="node2" class="node">
<title>Node2</title>
<g id="a_node2"><a xlink:href="Configuration_8h.html" target="_top" xlink:title=" ">
<polygon fill="white" stroke="#666666" points="519,-19 439,-19 439,0 519,0 519,-19"/>
<text text-anchor="middle" x="479" y="-7" font-family="Helvetica,sans-Serif" font-size="10.00">Configuration.h</text>
</a>
</g>
</g>
<!-- Node1&#45;&gt;Node2 -->
<g id="edge1" class="edge">
<title>Node1&#45;&gt;Node2</title>
<path fill="none" stroke="#63b8ff" d="M596.38,-283.63C670.69,-280.87 801,-263.48 801,-175.5 801,-175.5 801,-175.5 801,-118.5 801,-62.17 621.61,-29.76 530.62,-16.95"/>
<polygon fill="#63b8ff" stroke="#63b8ff" points="531.34,-13.51 520.95,-15.62 530.38,-20.45 531.34,-13.51"/>
</g>
<!-- Node3 -->
<g id="node3" class="node">
<title>Node3</title>
<g id="a_node3"><a xlink:href="Callback__Watchdog_8h.html" target="_top" xlink:title=" ">
<polygon fill="white" stroke="#666666" points="322,-239 212,-239 212,-220 322,-220 322,-239"/>
<text text-anchor="middle" x="267" y="-227" font-family="Helvetica,sans-Serif" font-size="10.00">Callback_Watchdog.h</text>
</a>
</g>
</g>
<!-- Node1&#45;&gt;Node3 -->
<g id="edge2" class="edge">
<title>Node1&#45;&gt;Node3</title>
<path fill="none" stroke="#63b8ff" d="M498.67,-274.51C450.83,-265.42 376.81,-251.36 325.36,-241.59"/>
<polygon fill="#63b8ff" stroke="#63b8ff" points="326.06,-238.16 315.58,-239.73 324.75,-245.03 326.06,-238.16"/>
</g>
<!-- Node6 -->
<g id="node6" class="node">
<title>Node6</title>
<g id="a_node6"><a xlink:href="Helper_8h.html" target="_top" xlink:title=" ">
<polygon fill="white" stroke="#666666" points="221.5,-74 168.5,-74 168.5,-55 221.5,-55 221.5,-74"/>
<text text-anchor="middle" x="195" y="-62" font-family="Helvetica,sans-Serif" font-size="10.00">Helper.h</text>
</a>
</g>
</g>
<!-- Node1&#45;&gt;Node6 -->
<g id="edge33" class="edge">
<title>Node1&#45;&gt;Node6</title>
<path fill="none" stroke="#63b8ff" d="M495.66,-280.18C413.58,-274.23 254.84,-260.35 203,-239 133.6,-210.42 53,-172.87 94,-110 107.97,-88.58 134.82,-77.4 157.33,-71.6"/>
<polygon fill="#63b8ff" stroke="#63b8ff" points="157.83,-75.08 166.81,-69.44 156.28,-68.25 157.83,-75.08"/>
</g>
<!-- Node15 -->
<g id="node15" class="node">
<title>Node15</title>
<g id="a_node15"><a xlink:href="HashGenerator_8h.html" target="_top" xlink:title=" ">
<polygon fill="white" stroke="#666666" points="683,-184 593,-184 593,-165 683,-165 683,-184"/>
<text text-anchor="middle" x="638" y="-172" font-family="Helvetica,sans-Serif" font-size="10.00">HashGenerator.h</text>
</a>
</g>
</g>
<!-- Node1&#45;&gt;Node15 -->
<g id="edge18" class="edge">
<title>Node1&#45;&gt;Node15</title>
<path fill="none" stroke="#63b8ff" d="M569.56,-274.5C585.67,-267.22 606.31,-255.45 619,-239 628.69,-226.43 633.46,-208.98 635.79,-195.55"/>
<polygon fill="#63b8ff" stroke="#63b8ff" points="639.25,-196.08 637.15,-185.69 632.31,-195.12 639.25,-196.08"/>
</g>
<!-- Node19 -->
<g id="node19" class="node">
<title>Node19</title>
<g id="a_node19"><a xlink:href="OTA__Update__Callback_8h.html" target="_top" xlink:title=" ">
<polygon fill="white" stroke="#666666" points="464,-239 340,-239 340,-220 464,-220 464,-239"/>
<text text-anchor="middle" x="402" y="-227" font-family="Helvetica,sans-Serif" font-size="10.00">OTA_Update_Callback.h</text>
</a>
</g>
</g>
<!-- Node1&#45;&gt;Node19 -->
<g id="edge23" class="edge">
<title>Node1&#45;&gt;Node19</title>
<path fill="none" stroke="#63b8ff" d="M521.57,-274.51C498.26,-265.93 462.91,-252.92 436.69,-243.27"/>
<polygon fill="#63b8ff" stroke="#63b8ff" points="438.08,-240.05 427.49,-239.88 435.66,-246.62 438.08,-240.05"/>
</g>
<!-- Node22 -->
<g id="node22" class="node">
<title>Node22</title>
<g id="a_node22"><a xlink:href="OTA__Failure__Response_8h.html" target="_top" xlink:title=" ">
<polygon fill="white" stroke="#666666" points="610,-239 482,-239 482,-220 610,-220 610,-239"/>
<text text-anchor="middle" x="546" y="-227" font-family="Helvetica,sans-Serif" font-size="10.00">OTA_Failure_Response.h</text>
</a>
</g>
</g>
<!-- Node1&#45;&gt;Node22 -->
<g id="edge31" class="edge">
<title>Node1&#45;&gt;Node22</title>
<path fill="none" stroke="#63b8ff" d="M546,-274.75C546,-268.27 546,-259.16 546,-250.9"/>
<polygon fill="#63b8ff" stroke="#63b8ff" points="549.5,-250.96 546,-240.96 542.5,-250.96 549.5,-250.96"/>
</g>
<!-- Node23 -->
<g id="node23" class="node">
<title>Node23</title>
<g id="a_node23"><a xlink:title=" ">
<polygon fill="#e0e0e0" stroke="#999999" points="877,-239 829,-239 829,-220 877,-220 877,-239"/>
<text text-anchor="middle" x="853" y="-227" font-family="Helvetica,sans-Serif" font-size="10.00">string.h</text>
</a>
</g>
</g>
<!-- Node1&#45;&gt;Node23 -->
<g id="edge34" class="edge">
<title>Node1&#45;&gt;Node23</title>
<path fill="none" stroke="#63b8ff" d="M596.22,-276.05C650.37,-267.82 739.03,-253.77 815,-239 815.82,-238.84 816.65,-238.68 817.49,-238.51"/>
<polygon fill="#63b8ff" stroke="#63b8ff" points="817.97,-241.98 827.03,-236.5 816.53,-235.13 817.97,-241.98"/>
</g>
<!-- Node4 -->
<g id="node4" class="node">
<title>Node4</title>
<g id="a_node4"><a xlink:href="Callback_8h.html" target="_top" xlink:title=" ">
<polygon fill="white" stroke="#666666" points="300,-184 238,-184 238,-165 300,-165 300,-184"/>
<text text-anchor="middle" x="269" y="-172" font-family="Helvetica,sans-Serif" font-size="10.00">Callback.h</text>
</a>
</g>
</g>
<!-- Node3&#45;&gt;Node4 -->
<g id="edge3" class="edge">
<title>Node3&#45;&gt;Node4</title>
<path fill="none" stroke="#63b8ff" d="M267.33,-219.75C267.57,-213.27 267.92,-204.16 268.23,-195.9"/>
<polygon fill="#63b8ff" stroke="#63b8ff" points="271.73,-196.08 268.61,-185.95 264.73,-195.82 271.73,-196.08"/>
</g>
<!-- Node14 -->
<g id="node14" class="node">
<title>Node14</title>
<g id="a_node14"><a xlink:title=" ">
<polygon fill="#e0e0e0" stroke="#999999" points="220,-184 140,-184 140,-165 220,-165 220,-184"/>
<text text-anchor="middle" x="180" y="-172" font-family="Helvetica,sans-Serif" font-size="10.00">arduino&#45;timer.h</text>
</a>
</g>
</g>
<!-- Node3&#45;&gt;Node14 -->
<g id="edge17" class="edge">
<title>Node3&#45;&gt;Node14</title>
<path fill="none" stroke="#63b8ff" d="M252.24,-219.51C239.04,-211.47 219.44,-199.53 203.99,-190.11"/>
<polygon fill="#63b8ff" stroke="#63b8ff" points="206.19,-187.36 195.83,-185.15 202.55,-193.34 206.19,-187.36"/>
</g>
<!-- Node4&#45;&gt;Node2 -->
<g id="edge4" class="edge">
<title>Node4&#45;&gt;Node2</title>
<path fill="none" stroke="#63b8ff" d="M280.59,-164.5C314.65,-138.07 414.78,-60.35 458.35,-26.53"/>
<polygon fill="#63b8ff" stroke="#63b8ff" points="460.5,-29.29 466.25,-20.4 456.2,-23.76 460.5,-29.29"/>
</g>
<!-- Node5 -->
<g id="node5" class="node">
<title>Node5</title>
<g id="a_node5"><a xlink:href="Container_8h.html" target="_top" xlink:title=" ">
<polygon fill="white" stroke="#666666" points="168.5,-129 103.5,-129 103.5,-110 168.5,-110 168.5,-129"/>
<text text-anchor="middle" x="136" y="-117" font-family="Helvetica,sans-Serif" font-size="10.00">Container.h</text>
</a>
</g>
</g>
<!-- Node4&#45;&gt;Node5 -->
<g id="edge5" class="edge">
<title>Node4&#45;&gt;Node5</title>
<path fill="none" stroke="#63b8ff" d="M246.44,-164.51C225.1,-156.01 192.84,-143.15 168.69,-133.53"/>
<polygon fill="#63b8ff" stroke="#63b8ff" points="170.22,-130.37 159.63,-129.92 167.63,-136.87 170.22,-130.37"/>
</g>
<!-- Node7 -->
<g id="node7" class="node">
<title>Node7</title>
<g id="a_node7"><a xlink:title=" ">
<polygon fill="#e0e0e0" stroke="#999999" points="78,-19 0,-19 0,0 78,0 78,-19"/>
<text text-anchor="middle" x="39" y="-7" font-family="Helvetica,sans-Serif" font-size="10.00">ArduinoJson.h</text>
</a>
</g>
</g>
<!-- Node4&#45;&gt;Node7 -->
<g id="edge14" class="edge">
<title>Node4&#45;&gt;Node7</title>
<path fill="none" stroke="#63b8ff" d="M237.77,-166.29C188.97,-154.92 99.59,-133.64 94,-129 63.25,-103.48 48.78,-56.97 42.74,-30.44"/>
<polygon fill="#63b8ff" stroke="#63b8ff" points="46.17,-29.77 40.72,-20.68 39.32,-31.18 46.17,-29.77"/>
</g>
<!-- Node12 -->
<g id="node12" class="node">
<title>Node12</title>
<g id="a_node12"><a xlink:title=" ">
<polygon fill="#e0e0e0" stroke="#999999" points="308.5,-129 249.5,-129 249.5,-110 308.5,-110 308.5,-129"/>
<text text-anchor="middle" x="279" y="-117" font-family="Helvetica,sans-Serif" font-size="10.00">functional</text>
</a>
</g>
</g>
<!-- Node4&#45;&gt;Node12 -->
<g id="edge15" class="edge">
<title>Node4&#45;&gt;Node12</title>
<path fill="none" stroke="#63b8ff" d="M270.65,-164.75C271.89,-158.19 273.63,-148.95 275.21,-140.6"/>
<polygon fill="#63b8ff" stroke="#63b8ff" points="278.62,-141.4 277.03,-130.93 271.74,-140.11 278.62,-141.4"/>
</g>
<!-- Node13 -->
<g id="node13" class="node">
<title>Node13</title>
<g id="a_node13"><a xlink:title=" ">
<polygon fill="#e0e0e0" stroke="#999999" points="231,-129 187,-129 187,-110 231,-110 231,-129"/>
<text text-anchor="middle" x="209" y="-117" font-family="Helvetica,sans-Serif" font-size="10.00">vector</text>
</a>
</g>
</g>
<!-- Node4&#45;&gt;Node13 -->
<g id="edge16" class="edge">
<title>Node4&#45;&gt;Node13</title>
<path fill="none" stroke="#63b8ff" d="M258.82,-164.51C250.24,-156.93 237.73,-145.88 227.4,-136.75"/>
<polygon fill="#63b8ff" stroke="#63b8ff" points="229.97,-134.36 220.16,-130.36 225.34,-139.6 229.97,-134.36"/>
</g>
<!-- Node5&#45;&gt;Node6 -->
<g id="edge6" class="edge">
<title>Node5&#45;&gt;Node6</title>
<path fill="none" stroke="#63b8ff" d="M146.01,-109.51C154.37,-102 166.5,-91.1 176.6,-82.03"/>
<polygon fill="#63b8ff" stroke="#63b8ff" points="178.91,-84.66 184.01,-75.37 174.24,-79.45 178.91,-84.66"/>
</g>
<!-- Node9 -->
<g id="node9" class="node">
<title>Node9</title>
<g id="a_node9"><a xlink:title=" ">
<polygon fill="#e0e0e0" stroke="#999999" points="151.5,-19 100.5,-19 100.5,0 151.5,0 151.5,-19"/>
<text text-anchor="middle" x="126" y="-7" font-family="Helvetica,sans-Serif" font-size="10.00">assert.h</text>
</a>
</g>
</g>
<!-- Node5&#45;&gt;Node9 -->
<g id="edge13" class="edge">
<title>Node5&#45;&gt;Node9</title>
<path fill="none" stroke="#63b8ff" d="M135.18,-109.66C133.6,-92.57 130.08,-54.61 127.89,-30.92"/>
<polygon fill="#63b8ff" stroke="#63b8ff" points="131.38,-30.6 126.97,-20.97 124.41,-31.25 131.38,-30.6"/>
</g>
<!-- Node6&#45;&gt;Node2 -->
<g id="edge7" class="edge">
<title>Node6&#45;&gt;Node2</title>
<path fill="none" stroke="#63b8ff" d="M221.97,-58.47C269.06,-49.68 366.99,-31.4 427.45,-20.12"/>
<polygon fill="#63b8ff" stroke="#63b8ff" points="427.97,-23.58 437.16,-18.31 426.69,-16.7 427.97,-23.58"/>
</g>
<!-- Node6&#45;&gt;Node7 -->
<g id="edge8" class="edge">
<title>Node6&#45;&gt;Node7</title>
<path fill="none" stroke="#63b8ff" d="M168.54,-54.51C143.14,-45.88 104.53,-32.76 76.08,-23.1"/>
<polygon fill="#63b8ff" stroke="#63b8ff" points="77.36,-19.84 66.77,-19.93 75.11,-26.46 77.36,-19.84"/>
</g>
<!-- Node8 -->
<g id="node8" class="node">
<title>Node8</title>
<g id="a_node8"><a xlink:title=" ">
<polygon fill="#e0e0e0" stroke="#999999" points="348.5,-19 301.5,-19 301.5,0 348.5,0 348.5,-19"/>
<text text-anchor="middle" x="325" y="-7" font-family="Helvetica,sans-Serif" font-size="10.00">iterator</text>
</a>
</g>
</g>
<!-- Node6&#45;&gt;Node8 -->
<g id="edge9" class="edge">
<title>Node6&#45;&gt;Node8</title>
<path fill="none" stroke="#63b8ff" d="M217.05,-54.51C237.81,-46.04 269.16,-33.27 292.73,-23.66"/>
<polygon fill="#63b8ff" stroke="#63b8ff" points="293.93,-26.95 301.87,-19.93 291.29,-20.46 293.93,-26.95"/>
</g>
<!-- Node6&#45;&gt;Node9 -->
<g id="edge10" class="edge">
<title>Node6&#45;&gt;Node9</title>
<path fill="none" stroke="#63b8ff" d="M183.3,-54.51C173.22,-46.77 158.46,-35.43 146.44,-26.2"/>
<polygon fill="#63b8ff" stroke="#63b8ff" points="148.79,-23.6 138.73,-20.28 144.53,-29.15 148.79,-23.6"/>
</g>
<!-- Node10 -->
<g id="node10" class="node">
<title>Node10</title>
<g id="a_node10"><a xlink:title=" ">
<polygon fill="#e0e0e0" stroke="#999999" points="220.5,-19 169.5,-19 169.5,0 220.5,0 220.5,-19"/>
<text text-anchor="middle" x="195" y="-7" font-family="Helvetica,sans-Serif" font-size="10.00">stdarg.h</text>
</a>
</g>
</g>
<!-- Node6&#45;&gt;Node10 -->
<g id="edge11" class="edge">
<title>Node6&#45;&gt;Node10</title>
<path fill="none" stroke="#63b8ff" d="M195,-54.75C195,-48.27 195,-39.16 195,-30.9"/>
<polygon fill="#63b8ff" stroke="#63b8ff" points="198.5,-30.96 195,-20.96 191.5,-30.96 198.5,-30.96"/>
</g>
<!-- Node11 -->
<g id="node11" class="node">
<title>Node11</title>
<g id="a_node11"><a xlink:title=" ">
<polygon fill="#e0e0e0" stroke="#999999" points="283.5,-19 238.5,-19 238.5,0 283.5,0 283.5,-19"/>
<text text-anchor="middle" x="261" y="-7" font-family="Helvetica,sans-Serif" font-size="10.00">stdio.h</text>
</a>
</g>
</g>
<!-- Node6&#45;&gt;Node11 -->
<g id="edge12" class="edge">
<title>Node6&#45;&gt;Node11</title>
<path fill="none" stroke="#63b8ff" d="M206.2,-54.51C215.74,-46.85 229.67,-35.66 241.11,-26.47"/>
<polygon fill="#63b8ff" stroke="#63b8ff" points="243.18,-29.3 248.79,-20.31 238.8,-23.84 243.18,-29.3"/>
</g>
<!-- Node15&#45;&gt;Node2 -->
<g id="edge19" class="edge">
<title>Node15&#45;&gt;Node2</title>
<path fill="none" stroke="#63b8ff" d="M639.82,-164.57C641.96,-151.57 644.08,-127.14 634,-110 608.11,-65.97 554.19,-38.15 517.29,-23.45"/>
<polygon fill="#63b8ff" stroke="#63b8ff" points="518.91,-20.32 508.32,-20.02 516.41,-26.86 518.91,-20.32"/>
</g>
<!-- Node16 -->
<g id="node16" class="node">
<title>Node16</title>
<g id="a_node16"><a xlink:title=" ">
<polygon fill="#e0e0e0" stroke="#999999" points="773,-129 681,-129 681,-110 773,-110 773,-129"/>
<text text-anchor="middle" x="727" y="-117" font-family="Helvetica,sans-Serif" font-size="10.00">Seeed_mbedtls.h</text>
</a>
</g>
</g>
<!-- Node15&#45;&gt;Node16 -->
<g id="edge20" class="edge">
<title>Node15&#45;&gt;Node16</title>
<path fill="none" stroke="#63b8ff" d="M653.1,-164.51C666.6,-156.47 686.65,-144.53 702.46,-135.11"/>
<polygon fill="#63b8ff" stroke="#63b8ff" points="704.02,-138.26 710.82,-130.13 700.44,-132.24 704.02,-138.26"/>
</g>
<!-- Node17 -->
<g id="node17" class="node">
<title>Node17</title>
<g id="a_node17"><a xlink:title=" ">
<polygon fill="#e0e0e0" stroke="#999999" points="555,-129 507,-129 507,-110 555,-110 555,-129"/>
<text text-anchor="middle" x="531" y="-117" font-family="Helvetica,sans-Serif" font-size="10.00">stdint.h</text>
</a>
</g>
</g>
<!-- Node15&#45;&gt;Node17 -->
<g id="edge21" class="edge">
<title>Node15&#45;&gt;Node17</title>
<path fill="none" stroke="#63b8ff" d="M619.85,-164.51C603.22,-156.27 578.36,-143.96 559.15,-134.45"/>
<polygon fill="#63b8ff" stroke="#63b8ff" points="560.75,-131.33 550.24,-130.03 557.65,-137.6 560.75,-131.33"/>
</g>
<!-- Node18 -->
<g id="node18" class="node">
<title>Node18</title>
<g id="a_node18"><a xlink:title=" ">
<polygon fill="#e0e0e0" stroke="#999999" points="624.5,-129 573.5,-129 573.5,-110 624.5,-110 624.5,-129"/>
<text text-anchor="middle" x="599" y="-117" font-family="Helvetica,sans-Serif" font-size="10.00">stddef.h</text>
</a>
</g>
</g>
<!-- Node15&#45;&gt;Node18 -->
<g id="edge22" class="edge">
<title>Node15&#45;&gt;Node18</title>
<path fill="none" stroke="#63b8ff" d="M631.56,-164.75C626.34,-157.66 618.81,-147.42 612.31,-138.59"/>
<polygon fill="#63b8ff" stroke="#63b8ff" points="615.22,-136.64 606.48,-130.66 609.58,-140.79 615.22,-136.64"/>
</g>
<!-- Node19&#45;&gt;Node4 -->
<g id="edge24" class="edge">
<title>Node19&#45;&gt;Node4</title>
<path fill="none" stroke="#63b8ff" d="M379.44,-219.51C358.1,-211.01 325.84,-198.15 301.69,-188.53"/>
<polygon fill="#63b8ff" stroke="#63b8ff" points="303.22,-185.37 292.63,-184.92 300.63,-191.87 303.22,-185.37"/>
</g>
<!-- Node20 -->
<g id="node20" class="node">
<title>Node20</title>
<g id="a_node20"><a xlink:href="IUpdater_8h.html" target="_top" xlink:title=" ">
<polygon fill="white" stroke="#666666" points="510,-184 448,-184 448,-165 510,-165 510,-184"/>
<text text-anchor="middle" x="479" y="-172" font-family="Helvetica,sans-Serif" font-size="10.00">IUpdater.h</text>
</a>
</g>
</g>
<!-- Node19&#45;&gt;Node20 -->
<g id="edge25" class="edge">
<title>Node19&#45;&gt;Node20</title>
<path fill="none" stroke="#63b8ff" d="M415.06,-219.51C426.52,-211.62 443.43,-199.98 456.98,-190.65"/>
<polygon fill="#63b8ff" stroke="#63b8ff" points="458.63,-193.77 464.88,-185.22 454.66,-188 458.63,-193.77"/>
</g>
<!-- Node20&#45;&gt;Node2 -->
<g id="edge26" class="edge">
<title>Node20&#45;&gt;Node2</title>
<path fill="none" stroke="#63b8ff" d="M479,-164.74C479,-139.53 479,-66.36 479,-30.62"/>
<polygon fill="#63b8ff" stroke="#63b8ff" points="482.5,-30.82 479,-20.82 475.5,-30.82 482.5,-30.82"/>
</g>
<!-- Node20&#45;&gt;Node17 -->
<g id="edge30" class="edge">
<title>Node20&#45;&gt;Node17</title>
<path fill="none" stroke="#63b8ff" d="M487.59,-164.75C494.84,-157.35 505.45,-146.54 514.37,-137.45"/>
<polygon fill="#63b8ff" stroke="#63b8ff" points="516.66,-140.11 521.17,-130.52 511.66,-135.21 516.66,-140.11"/>
</g>
<!-- Node20&#45;&gt;Node18 -->
<g id="edge29" class="edge">
<title>Node20&#45;&gt;Node18</title>
<path fill="none" stroke="#63b8ff" d="M499.36,-164.51C518.35,-156.12 546.93,-143.5 568.62,-133.92"/>
<polygon fill="#63b8ff" stroke="#63b8ff" points="569.83,-137.21 577.56,-129.97 567,-130.81 569.83,-137.21"/>
</g>
<!-- Node21 -->
<g id="node21" class="node">
<title>Node21</title>
<g id="a_node21"><a xlink:href="DefaultLogger_8h.html" target="_top" xlink:title=" ">
<polygon fill="white" stroke="#666666" points="450.5,-129 365.5,-129 365.5,-110 450.5,-110 450.5,-129"/>
<text text-anchor="middle" x="408" y="-117" font-family="Helvetica,sans-Serif" font-size="10.00">DefaultLogger.h</text>
</a>
</g>
</g>
<!-- Node20&#45;&gt;Node21 -->
<g id="edge27" class="edge">
<title>Node20&#45;&gt;Node21</title>
<path fill="none" stroke="#63b8ff" d="M466.96,-164.51C456.59,-156.77 441.4,-145.43 429.03,-136.2"/>
<polygon fill="#63b8ff" stroke="#63b8ff" points="431.19,-133.44 421.08,-130.26 427,-139.05 431.19,-133.44"/>
</g>
<!-- Node21&#45;&gt;Node6 -->
<g id="edge28" class="edge">
<title>Node21&#45;&gt;Node6</title>
<path fill="none" stroke="#63b8ff" d="M371.87,-109.51C333.19,-99.89 272.11,-84.69 232.81,-74.91"/>
<polygon fill="#63b8ff" stroke="#63b8ff" points="233.86,-71.56 223.31,-72.55 232.17,-78.36 233.86,-71.56"/>
</g>
<!-- Node22&#45;&gt;Node17 -->
<g id="edge32" class="edge">
<title>Node22&#45;&gt;Node17</title>
<path fill="none" stroke="#63b8ff" d="M544.77,-219.66C542.39,-202.5 537.08,-164.26 533.79,-140.6"/>
<polygon fill="#63b8ff" stroke="#63b8ff" points="537.3,-140.38 532.45,-130.96 530.36,-141.35 537.3,-140.38"/>
</g>
</g>
</svg>
