<?xml version="1.0" encoding="UTF-8" standalone="no"?>
<!DOCTYPE svg PUBLIC "-//W3C//DTD SVG 1.1//EN"
 "http://www.w3.org/Graphics/SVG/1.1/DTD/svg11.dtd">
<!-- Generated by graphviz version 7.0.5 (20221223.1930)
 -->
<!-- Title: src/OTA_Firmware_Update.h Pages: 1 -->
<svg width="1085pt" height="467pt"
 viewBox="0.00 0.00 1085.00 467.00" xmlns="http://www.w3.org/2000/svg" xmlns:xlink="http://www.w3.org/1999/xlink">
<g id="graph0" class="graph" transform="scale(1 1) rotate(0) translate(4 463)">
<title>src/OTA_Firmware_Update.h</title>
<!-- Node1 -->
<g id="node1" class="node">
<title>Node1</title>
<g id="a_node1"><a xlink:title=" ">
<polygon fill="#999999" stroke="#666666" points="319.5,-459 176.5,-459 176.5,-440 319.5,-440 319.5,-459"/>
<text text-anchor="middle" x="248" y="-447" font-family="Helvetica,sans-Serif" font-size="10.00">src/OTA_Firmware_Update.h</text>
</a>
</g>
</g>
<!-- Node2 -->
<g id="node2" class="node">
<title>Node2</title>
<g id="a_node2"><a xlink:href="Attribute__Request_8h.html" target="_top" xlink:title=" ">
<polygon fill="white" stroke="#666666" points="330,-404 228,-404 228,-385 330,-385 330,-404"/>
<text text-anchor="middle" x="279" y="-392" font-family="Helvetica,sans-Serif" font-size="10.00">Attribute_Request.h</text>
</a>
</g>
</g>
<!-- Node1&#45;&gt;Node2 -->
<g id="edge1" class="edge">
<title>Node1&#45;&gt;Node2</title>
<path fill="none" stroke="#63b8ff" d="M253.12,-439.75C257.18,-432.81 262.99,-422.86 268.09,-414.16"/>
<polygon fill="#63b8ff" stroke="#63b8ff" points="270.98,-416.15 273.01,-405.75 264.94,-412.61 270.98,-416.15"/>
</g>
<!-- Node20 -->
<g id="node20" class="node">
<title>Node20</title>
<g id="a_node20"><a xlink:href="IAPI__Implementation_8h.html" target="_top" xlink:title=" ">
<polygon fill="white" stroke="#666666" points="208,-239 92,-239 92,-220 208,-220 208,-239"/>
<text text-anchor="middle" x="150" y="-227" font-family="Helvetica,sans-Serif" font-size="10.00">IAPI_Implementation.h</text>
</a>
</g>
</g>
<!-- Node1&#45;&gt;Node20 -->
<g id="edge58" class="edge">
<title>Node1&#45;&gt;Node20</title>
<path fill="none" stroke="#63b8ff" d="M222.02,-439.59C173.16,-421.25 68.75,-374.13 27,-294 12.41,-265.99 45.2,-250.01 80.58,-241.08"/>
<polygon fill="#63b8ff" stroke="#63b8ff" points="81.17,-244.54 90.12,-238.87 79.59,-237.72 81.17,-244.54"/>
</g>
<!-- Node24 -->
<g id="node24" class="node">
<title>Node24</title>
<g id="a_node24"><a xlink:href="Shared__Attribute__Update_8h.html" target="_top" xlink:title=" ">
<polygon fill="white" stroke="#666666" points="170,-294 36,-294 36,-275 170,-275 170,-294"/>
<text text-anchor="middle" x="103" y="-282" font-family="Helvetica,sans-Serif" font-size="10.00">Shared_Attribute_Update.h</text>
</a>
</g>
</g>
<!-- Node1&#45;&gt;Node24 -->
<g id="edge33" class="edge">
<title>Node1&#45;&gt;Node24</title>
<path fill="none" stroke="#63b8ff" d="M240.2,-439.74C217.19,-413.87 149.24,-337.48 118.46,-302.88"/>
<polygon fill="#63b8ff" stroke="#63b8ff" points="121.1,-300.58 111.84,-295.44 115.87,-305.24 121.1,-300.58"/>
</g>
<!-- Node26 -->
<g id="node26" class="node">
<title>Node26</title>
<g id="a_node26"><a xlink:href="OTA__Handler_8h.html" target="_top" xlink:title=" ">
<polygon fill="white" stroke="#666666" points="723.5,-404 640.5,-404 640.5,-385 723.5,-385 723.5,-404"/>
<text text-anchor="middle" x="682" y="-392" font-family="Helvetica,sans-Serif" font-size="10.00">OTA_Handler.h</text>
</a>
</g>
</g>
<!-- Node1&#45;&gt;Node26 -->
<g id="edge38" class="edge">
<title>Node1&#45;&gt;Node26</title>
<path fill="none" stroke="#63b8ff" d="M319.67,-439.75C406.57,-429.14 551.04,-411.49 628.7,-402.01"/>
<polygon fill="#63b8ff" stroke="#63b8ff" points="629.11,-405.48 638.62,-400.8 628.27,-398.54 629.11,-405.48"/>
</g>
<!-- Node3 -->
<g id="node3" class="node">
<title>Node3</title>
<g id="a_node3"><a xlink:href="Attribute__Request__Callback_8h.html" target="_top" xlink:title=" ">
<polygon fill="white" stroke="#666666" points="409.5,-349 264.5,-349 264.5,-330 409.5,-330 409.5,-349"/>
<text text-anchor="middle" x="337" y="-337" font-family="Helvetica,sans-Serif" font-size="10.00">Attribute_Request_Callback.h</text>
</a>
</g>
</g>
<!-- Node2&#45;&gt;Node3 -->
<g id="edge2" class="edge">
<title>Node2&#45;&gt;Node3</title>
<path fill="none" stroke="#63b8ff" d="M288.84,-384.51C297.05,-377 308.98,-366.1 318.91,-357.03"/>
<polygon fill="#63b8ff" stroke="#63b8ff" points="321.17,-359.71 326.19,-350.38 316.45,-354.54 321.17,-359.71"/>
</g>
<!-- Node4 -->
<g id="node4" class="node">
<title>Node4</title>
<g id="a_node4"><a xlink:href="Timeoutable__Request_8h.html" target="_top" xlink:title=" ">
<polygon fill="white" stroke="#666666" points="464.5,-294 345.5,-294 345.5,-275 464.5,-275 464.5,-294"/>
<text text-anchor="middle" x="405" y="-282" font-family="Helvetica,sans-Serif" font-size="10.00">Timeoutable_Request.h</text>
</a>
</g>
</g>
<!-- Node2&#45;&gt;Node4 -->
<g id="edge32" class="edge">
<title>Node2&#45;&gt;Node4</title>
<path fill="none" stroke="#63b8ff" d="M330.32,-391.45C361.11,-387.25 398.06,-376.32 418,-349 427.43,-336.08 422.38,-317.92 416.02,-304.33"/>
<polygon fill="#63b8ff" stroke="#63b8ff" points="419.14,-302.74 411.37,-295.54 412.95,-306.02 419.14,-302.74"/>
</g>
<!-- Node2&#45;&gt;Node20 -->
<g id="edge24" class="edge">
<title>Node2&#45;&gt;Node20</title>
<path fill="none" stroke="#63b8ff" d="M264.63,-384.56C252.29,-376.37 234.54,-363.38 222,-349 197,-320.33 198.95,-307.39 179,-275 173.62,-266.26 167.44,-256.72 162.17,-248.71"/>
<polygon fill="#63b8ff" stroke="#63b8ff" points="165.19,-246.94 156.75,-240.54 159.36,-250.81 165.19,-246.94"/>
</g>
<!-- Node3&#45;&gt;Node4 -->
<g id="edge3" class="edge">
<title>Node3&#45;&gt;Node4</title>
<path fill="none" stroke="#63b8ff" d="M348.54,-329.51C358.46,-321.77 373.01,-310.43 384.86,-301.2"/>
<polygon fill="#63b8ff" stroke="#63b8ff" points="386.71,-304.2 392.44,-295.29 382.4,-298.68 386.71,-304.2"/>
</g>
<!-- Node19 -->
<g id="node19" class="node">
<title>Node19</title>
<g id="a_node19"><a xlink:href="Constants_8h.html" target="_top" xlink:title=" ">
<polygon fill="white" stroke="#666666" points="330,-184 262,-184 262,-165 330,-165 330,-184"/>
<text text-anchor="middle" x="296" y="-172" font-family="Helvetica,sans-Serif" font-size="10.00">Constants.h</text>
</a>
</g>
</g>
<!-- Node3&#45;&gt;Node19 -->
<g id="edge21" class="edge">
<title>Node3&#45;&gt;Node19</title>
<path fill="none" stroke="#63b8ff" d="M334.8,-329.74C328.43,-304.42 309.89,-230.72 300.94,-195.16"/>
<polygon fill="#63b8ff" stroke="#63b8ff" points="304.42,-194.62 298.58,-185.77 297.63,-196.33 304.42,-194.62"/>
</g>
<!-- Node5 -->
<g id="node5" class="node">
<title>Node5</title>
<g id="a_node5"><a xlink:href="Callback__Watchdog_8h.html" target="_top" xlink:title=" ">
<polygon fill="white" stroke="#666666" points="631,-239 521,-239 521,-220 631,-220 631,-239"/>
<text text-anchor="middle" x="576" y="-227" font-family="Helvetica,sans-Serif" font-size="10.00">Callback_Watchdog.h</text>
</a>
</g>
</g>
<!-- Node4&#45;&gt;Node5 -->
<g id="edge4" class="edge">
<title>Node4&#45;&gt;Node5</title>
<path fill="none" stroke="#63b8ff" d="M434.01,-274.51C462.1,-265.8 504.91,-252.53 536.19,-242.84"/>
<polygon fill="#63b8ff" stroke="#63b8ff" points="537.17,-246.2 545.69,-239.89 535.1,-239.51 537.17,-246.2"/>
</g>
<!-- Node6 -->
<g id="node6" class="node">
<title>Node6</title>
<g id="a_node6"><a xlink:href="Callback_8h.html" target="_top" xlink:title=" ">
<polygon fill="white" stroke="#666666" points="513,-184 451,-184 451,-165 513,-165 513,-184"/>
<text text-anchor="middle" x="482" y="-172" font-family="Helvetica,sans-Serif" font-size="10.00">Callback.h</text>
</a>
</g>
</g>
<!-- Node5&#45;&gt;Node6 -->
<g id="edge5" class="edge">
<title>Node5&#45;&gt;Node6</title>
<path fill="none" stroke="#63b8ff" d="M560.05,-219.51C545.65,-211.39 524.21,-199.3 507.44,-189.85"/>
<polygon fill="#63b8ff" stroke="#63b8ff" points="509.46,-186.96 499.03,-185.1 506.02,-193.06 509.46,-186.96"/>
</g>
<!-- Node18 -->
<g id="node18" class="node">
<title>Node18</title>
<g id="a_node18"><a xlink:title=" ">
<polygon fill="#e0e0e0" stroke="#999999" points="612,-184 532,-184 532,-165 612,-165 612,-184"/>
<text text-anchor="middle" x="572" y="-172" font-family="Helvetica,sans-Serif" font-size="10.00">arduino&#45;timer.h</text>
</a>
</g>
</g>
<!-- Node5&#45;&gt;Node18 -->
<g id="edge20" class="edge">
<title>Node5&#45;&gt;Node18</title>
<path fill="none" stroke="#63b8ff" d="M575.34,-219.75C574.85,-213.27 574.16,-204.16 573.54,-195.9"/>
<polygon fill="#63b8ff" stroke="#63b8ff" points="577.03,-195.66 572.79,-185.95 570.05,-196.19 577.03,-195.66"/>
</g>
<!-- Node7 -->
<g id="node7" class="node">
<title>Node7</title>
<g id="a_node7"><a xlink:href="Configuration_8h.html" target="_top" xlink:title=" ">
<polygon fill="white" stroke="#666666" points="864,-19 784,-19 784,0 864,0 864,-19"/>
<text text-anchor="middle" x="824" y="-7" font-family="Helvetica,sans-Serif" font-size="10.00">Configuration.h</text>
</a>
</g>
</g>
<!-- Node6&#45;&gt;Node7 -->
<g id="edge6" class="edge">
<title>Node6&#45;&gt;Node7</title>
<path fill="none" stroke="#63b8ff" d="M513.32,-166.92C516.59,-166.26 519.86,-165.61 523,-165 610.8,-147.92 643.27,-173.25 721,-129 763.68,-104.7 797.3,-55.91 813.48,-29.13"/>
<polygon fill="#63b8ff" stroke="#63b8ff" points="816.35,-31.15 818.38,-20.75 810.31,-27.61 816.35,-31.15"/>
</g>
<!-- Node8 -->
<g id="node8" class="node">
<title>Node8</title>
<g id="a_node8"><a xlink:title=" ">
<polygon fill="#e0e0e0" stroke="#999999" points="499,-19 421,-19 421,0 499,0 499,-19"/>
<text text-anchor="middle" x="460" y="-7" font-family="Helvetica,sans-Serif" font-size="10.00">ArduinoJson.h</text>
</a>
</g>
</g>
<!-- Node6&#45;&gt;Node8 -->
<g id="edge7" class="edge">
<title>Node6&#45;&gt;Node8</title>
<path fill="none" stroke="#63b8ff" d="M480.82,-164.74C477.42,-139.53 467.54,-66.36 462.72,-30.62"/>
<polygon fill="#63b8ff" stroke="#63b8ff" points="466.2,-30.25 461.39,-20.81 459.26,-31.19 466.2,-30.25"/>
</g>
<!-- Node9 -->
<g id="node9" class="node">
<title>Node9</title>
<g id="a_node9"><a xlink:title=" ">
<polygon fill="#e0e0e0" stroke="#999999" points="377.5,-129 318.5,-129 318.5,-110 377.5,-110 377.5,-129"/>
<text text-anchor="middle" x="348" y="-117" font-family="Helvetica,sans-Serif" font-size="10.00">functional</text>
</a>
</g>
</g>
<!-- Node6&#45;&gt;Node9 -->
<g id="edge8" class="edge">
<title>Node6&#45;&gt;Node9</title>
<path fill="none" stroke="#63b8ff" d="M459.27,-164.51C437.77,-156.01 405.27,-143.15 380.93,-133.53"/>
<polygon fill="#63b8ff" stroke="#63b8ff" points="382.39,-130.34 371.8,-129.91 379.81,-136.85 382.39,-130.34"/>
</g>
<!-- Node10 -->
<g id="node10" class="node">
<title>Node10</title>
<g id="a_node10"><a xlink:title=" ">
<polygon fill="#e0e0e0" stroke="#999999" points="300,-129 256,-129 256,-110 300,-110 300,-129"/>
<text text-anchor="middle" x="278" y="-117" font-family="Helvetica,sans-Serif" font-size="10.00">vector</text>
</a>
</g>
</g>
<!-- Node6&#45;&gt;Node10 -->
<g id="edge9" class="edge">
<title>Node6&#45;&gt;Node10</title>
<path fill="none" stroke="#63b8ff" d="M450.71,-165.61C418.19,-157.38 365.56,-143.95 311.22,-129.56"/>
<polygon fill="#63b8ff" stroke="#63b8ff" points="312.37,-126.24 301.8,-127.06 310.57,-133.01 312.37,-126.24"/>
</g>
<!-- Node11 -->
<g id="node11" class="node">
<title>Node11</title>
<g id="a_node11"><a xlink:href="Container_8h.html" target="_top" xlink:title=" ">
<polygon fill="white" stroke="#666666" points="575.5,-129 510.5,-129 510.5,-110 575.5,-110 575.5,-129"/>
<text text-anchor="middle" x="543" y="-117" font-family="Helvetica,sans-Serif" font-size="10.00">Container.h</text>
</a>
</g>
</g>
<!-- Node6&#45;&gt;Node11 -->
<g id="edge10" class="edge">
<title>Node6&#45;&gt;Node11</title>
<path fill="none" stroke="#63b8ff" d="M492.35,-164.51C501.08,-156.93 513.79,-145.88 524.3,-136.75"/>
<polygon fill="#63b8ff" stroke="#63b8ff" points="526.41,-139.55 531.66,-130.35 521.82,-134.27 526.41,-139.55"/>
</g>
<!-- Node12 -->
<g id="node12" class="node">
<title>Node12</title>
<g id="a_node12"><a xlink:href="Helper_8h.html" target="_top" xlink:title=" ">
<polygon fill="white" stroke="#666666" points="649.5,-74 596.5,-74 596.5,-55 649.5,-55 649.5,-74"/>
<text text-anchor="middle" x="623" y="-62" font-family="Helvetica,sans-Serif" font-size="10.00">Helper.h</text>
</a>
</g>
</g>
<!-- Node11&#45;&gt;Node12 -->
<g id="edge11" class="edge">
<title>Node11&#45;&gt;Node12</title>
<path fill="none" stroke="#63b8ff" d="M556.57,-109.51C568.48,-101.62 586.05,-89.98 600.13,-80.65"/>
<polygon fill="#63b8ff" stroke="#63b8ff" points="601.96,-83.63 608.37,-75.19 598.1,-77.8 601.96,-83.63"/>
</g>
<!-- Node15 -->
<g id="node15" class="node">
<title>Node15</title>
<g id="a_node15"><a xlink:title=" ">
<polygon fill="#e0e0e0" stroke="#999999" points="568.5,-19 517.5,-19 517.5,0 568.5,0 568.5,-19"/>
<text text-anchor="middle" x="543" y="-7" font-family="Helvetica,sans-Serif" font-size="10.00">assert.h</text>
</a>
</g>
</g>
<!-- Node11&#45;&gt;Node15 -->
<g id="edge19" class="edge">
<title>Node11&#45;&gt;Node15</title>
<path fill="none" stroke="#63b8ff" d="M543,-109.66C543,-92.57 543,-54.61 543,-30.92"/>
<polygon fill="#63b8ff" stroke="#63b8ff" points="546.5,-30.97 543,-20.97 539.5,-30.97 546.5,-30.97"/>
</g>
<!-- Node12&#45;&gt;Node7 -->
<g id="edge12" class="edge">
<title>Node12&#45;&gt;Node7</title>
<path fill="none" stroke="#63b8ff" d="M649.69,-56.46C682.71,-47.76 739.42,-32.8 779.17,-22.32"/>
<polygon fill="#63b8ff" stroke="#63b8ff" points="779.9,-25.75 788.68,-19.81 778.12,-18.98 779.9,-25.75"/>
</g>
<!-- Node12&#45;&gt;Node8 -->
<g id="edge13" class="edge">
<title>Node12&#45;&gt;Node8</title>
<path fill="none" stroke="#63b8ff" d="M596.08,-54.75C569.46,-46.09 528.47,-32.76 498.43,-22.99"/>
<polygon fill="#63b8ff" stroke="#63b8ff" points="499.53,-19.67 488.94,-19.91 497.37,-26.33 499.53,-19.67"/>
</g>
<!-- Node13 -->
<g id="node13" class="node">
<title>Node13</title>
<g id="a_node13"><a xlink:title=" ">
<polygon fill="#e0e0e0" stroke="#999999" points="696.5,-19 649.5,-19 649.5,0 696.5,0 696.5,-19"/>
<text text-anchor="middle" x="673" y="-7" font-family="Helvetica,sans-Serif" font-size="10.00">iterator</text>
</a>
</g>
</g>
<!-- Node12&#45;&gt;Node13 -->
<g id="edge14" class="edge">
<title>Node12&#45;&gt;Node13</title>
<path fill="none" stroke="#63b8ff" d="M631.26,-54.75C638.16,-47.43 648.22,-36.76 656.74,-27.74"/>
<polygon fill="#63b8ff" stroke="#63b8ff" points="659.21,-30.22 663.53,-20.54 654.12,-25.42 659.21,-30.22"/>
</g>
<!-- Node14 -->
<g id="node14" class="node">
<title>Node14</title>
<g id="a_node14"><a xlink:title=" ">
<polygon fill="#e0e0e0" stroke="#999999" points="355,-19 307,-19 307,0 355,0 355,-19"/>
<text text-anchor="middle" x="331" y="-7" font-family="Helvetica,sans-Serif" font-size="10.00">stdint.h</text>
</a>
</g>
</g>
<!-- Node12&#45;&gt;Node14 -->
<g id="edge15" class="edge">
<title>Node12&#45;&gt;Node14</title>
<path fill="none" stroke="#63b8ff" d="M596.05,-58.61C543.11,-49 425.53,-27.66 366.4,-16.93"/>
<polygon fill="#63b8ff" stroke="#63b8ff" points="367.35,-13.54 356.88,-15.2 366.1,-20.43 367.35,-13.54"/>
</g>
<!-- Node12&#45;&gt;Node15 -->
<g id="edge16" class="edge">
<title>Node12&#45;&gt;Node15</title>
<path fill="none" stroke="#63b8ff" d="M609.43,-54.51C597.52,-46.62 579.95,-34.98 565.87,-25.65"/>
<polygon fill="#63b8ff" stroke="#63b8ff" points="567.9,-22.8 557.63,-20.19 564.04,-28.63 567.9,-22.8"/>
</g>
<!-- Node16 -->
<g id="node16" class="node">
<title>Node16</title>
<g id="a_node16"><a xlink:title=" ">
<polygon fill="#e0e0e0" stroke="#999999" points="765.5,-19 714.5,-19 714.5,0 765.5,0 765.5,-19"/>
<text text-anchor="middle" x="740" y="-7" font-family="Helvetica,sans-Serif" font-size="10.00">stdarg.h</text>
</a>
</g>
</g>
<!-- Node12&#45;&gt;Node16 -->
<g id="edge17" class="edge">
<title>Node12&#45;&gt;Node16</title>
<path fill="none" stroke="#63b8ff" d="M642.85,-54.51C661.28,-46.16 688.98,-33.61 710.09,-24.05"/>
<polygon fill="#63b8ff" stroke="#63b8ff" points="711.4,-27.3 719.07,-19.98 708.51,-20.92 711.4,-27.3"/>
</g>
<!-- Node17 -->
<g id="node17" class="node">
<title>Node17</title>
<g id="a_node17"><a xlink:title=" ">
<polygon fill="#e0e0e0" stroke="#999999" points="631.5,-19 586.5,-19 586.5,0 631.5,0 631.5,-19"/>
<text text-anchor="middle" x="609" y="-7" font-family="Helvetica,sans-Serif" font-size="10.00">stdio.h</text>
</a>
</g>
</g>
<!-- Node12&#45;&gt;Node17 -->
<g id="edge18" class="edge">
<title>Node12&#45;&gt;Node17</title>
<path fill="none" stroke="#63b8ff" d="M620.69,-54.75C618.94,-48.11 616.46,-38.73 614.23,-30.31"/>
<polygon fill="#63b8ff" stroke="#63b8ff" points="617.69,-29.68 611.75,-20.91 610.92,-31.47 617.69,-29.68"/>
</g>
<!-- Node19&#45;&gt;Node7 -->
<g id="edge22" class="edge">
<title>Node19&#45;&gt;Node7</title>
<path fill="none" stroke="#63b8ff" d="M330.35,-170.78C419.85,-163.52 655.6,-143.27 688,-129 715.39,-116.94 777.69,-56.83 807.5,-27.15"/>
<polygon fill="#63b8ff" stroke="#63b8ff" points="809.66,-29.94 814.25,-20.39 804.71,-24.99 809.66,-29.94"/>
</g>
<!-- Node19&#45;&gt;Node14 -->
<g id="edge23" class="edge">
<title>Node19&#45;&gt;Node14</title>
<path fill="none" stroke="#63b8ff" d="M280.87,-164.73C269.19,-156.99 253.88,-144.55 247,-129 243.58,-121.28 244.1,-117.93 247,-110 259.66,-75.39 290.26,-44.5 310.82,-26.64"/>
<polygon fill="#63b8ff" stroke="#63b8ff" points="312.89,-29.47 318.3,-20.36 308.39,-24.11 312.89,-29.47"/>
</g>
<!-- Node20&#45;&gt;Node6 -->
<g id="edge25" class="edge">
<title>Node20&#45;&gt;Node6</title>
<path fill="none" stroke="#63b8ff" d="M206.32,-219.51C272.4,-208.96 380.45,-191.71 439.75,-182.24"/>
<polygon fill="#63b8ff" stroke="#63b8ff" points="440.12,-185.73 449.44,-180.7 439.02,-178.82 440.12,-185.73"/>
</g>
<!-- Node20&#45;&gt;Node19 -->
<g id="edge26" class="edge">
<title>Node20&#45;&gt;Node19</title>
<path fill="none" stroke="#63b8ff" d="M174.77,-219.51C198.4,-210.93 234.24,-197.92 260.83,-188.27"/>
<polygon fill="#63b8ff" stroke="#63b8ff" points="261.97,-191.58 270.18,-184.87 259.58,-185 261.97,-191.58"/>
</g>
<!-- Node21 -->
<g id="node21" class="node">
<title>Node21</title>
<g id="a_node21"><a xlink:href="DefaultLogger_8h.html" target="_top" xlink:title=" ">
<polygon fill="white" stroke="#666666" points="678.5,-129 593.5,-129 593.5,-110 678.5,-110 678.5,-129"/>
<text text-anchor="middle" x="636" y="-117" font-family="Helvetica,sans-Serif" font-size="10.00">DefaultLogger.h</text>
</a>
</g>
</g>
<!-- Node20&#45;&gt;Node21 -->
<g id="edge27" class="edge">
<title>Node20&#45;&gt;Node21</title>
<path fill="none" stroke="#63b8ff" d="M160.6,-219.7C178.41,-205.45 216.04,-177.67 253,-165 389.97,-118.05 435.73,-147.68 582,-129.29"/>
<polygon fill="#63b8ff" stroke="#63b8ff" points="582.22,-132.79 591.67,-128.02 581.3,-125.85 582.22,-132.79"/>
</g>
<!-- Node22 -->
<g id="node22" class="node">
<title>Node22</title>
<g id="a_node22"><a xlink:href="API__Process__Type_8h.html" target="_top" xlink:title=" ">
<polygon fill="white" stroke="#666666" points="108,-74 0,-74 0,-55 108,-55 108,-74"/>
<text text-anchor="middle" x="54" y="-62" font-family="Helvetica,sans-Serif" font-size="10.00">API_Process_Type.h</text>
</a>
</g>
</g>
<!-- Node20&#45;&gt;Node22 -->
<g id="edge29" class="edge">
<title>Node20&#45;&gt;Node22</title>
<path fill="none" stroke="#63b8ff" d="M148.47,-219.9C146.01,-207.33 140.47,-183.42 131,-165 114.69,-133.26 87.83,-101.5 70.53,-82.68"/>
<polygon fill="#63b8ff" stroke="#63b8ff" points="73.11,-80.31 63.72,-75.41 68.01,-85.1 73.11,-80.31"/>
</g>
<!-- Node23 -->
<g id="node23" class="node">
<title>Node23</title>
<g id="a_node23"><a xlink:title=" ">
<polygon fill="#e0e0e0" stroke="#999999" points="122,-184 66,-184 66,-165 122,-165 122,-184"/>
<text text-anchor="middle" x="94" y="-172" font-family="Helvetica,sans-Serif" font-size="10.00">algorithm</text>
</a>
</g>
</g>
<!-- Node20&#45;&gt;Node23 -->
<g id="edge31" class="edge">
<title>Node20&#45;&gt;Node23</title>
<path fill="none" stroke="#63b8ff" d="M140.5,-219.51C132.57,-212 121.05,-201.1 111.46,-192.03"/>
<polygon fill="#63b8ff" stroke="#63b8ff" points="114.13,-189.73 104.46,-185.4 109.32,-194.81 114.13,-189.73"/>
</g>
<!-- Node21&#45;&gt;Node12 -->
<g id="edge28" class="edge">
<title>Node21&#45;&gt;Node12</title>
<path fill="none" stroke="#63b8ff" d="M633.85,-109.75C632.24,-103.19 629.98,-93.95 627.93,-85.6"/>
<polygon fill="#63b8ff" stroke="#63b8ff" points="631.34,-84.79 625.55,-75.91 624.54,-86.46 631.34,-84.79"/>
</g>
<!-- Node22&#45;&gt;Node14 -->
<g id="edge30" class="edge">
<title>Node22&#45;&gt;Node14</title>
<path fill="none" stroke="#63b8ff" d="M100.99,-54.51C156.01,-43.98 245.89,-26.78 295.43,-17.3"/>
<polygon fill="#63b8ff" stroke="#63b8ff" points="295.88,-20.78 305.05,-15.47 294.57,-13.91 295.88,-20.78"/>
</g>
<!-- Node24&#45;&gt;Node20 -->
<g id="edge37" class="edge">
<title>Node24&#45;&gt;Node20</title>
<path fill="none" stroke="#63b8ff" d="M110.76,-274.75C117.19,-267.5 126.51,-256.98 134.46,-248.02"/>
<polygon fill="#63b8ff" stroke="#63b8ff" points="137.05,-250.38 141.07,-240.57 131.81,-245.73 137.05,-250.38"/>
</g>
<!-- Node25 -->
<g id="node25" class="node">
<title>Node25</title>
<g id="a_node25"><a xlink:href="Shared__Attribute__Callback_8h.html" target="_top" xlink:title=" ">
<polygon fill="white" stroke="#666666" points="464,-239 324,-239 324,-220 464,-220 464,-239"/>
<text text-anchor="middle" x="394" y="-227" font-family="Helvetica,sans-Serif" font-size="10.00">Shared_Attribute_Callback.h</text>
</a>
</g>
</g>
<!-- Node24&#45;&gt;Node25 -->
<g id="edge34" class="edge">
<title>Node24&#45;&gt;Node25</title>
<path fill="none" stroke="#63b8ff" d="M152.36,-274.51C202.47,-265.38 280.12,-251.24 333.81,-241.46"/>
<polygon fill="#63b8ff" stroke="#63b8ff" points="334.18,-244.95 343.39,-239.72 332.93,-238.07 334.18,-244.95"/>
</g>
<!-- Node25&#45;&gt;Node6 -->
<g id="edge35" class="edge">
<title>Node25&#45;&gt;Node6</title>
<path fill="none" stroke="#63b8ff" d="M408.93,-219.51C422.28,-211.47 442.11,-199.53 457.74,-190.11"/>
<polygon fill="#63b8ff" stroke="#63b8ff" points="459.24,-193.3 466,-185.14 455.62,-187.3 459.24,-193.3"/>
</g>
<!-- Node25&#45;&gt;Node19 -->
<g id="edge36" class="edge">
<title>Node25&#45;&gt;Node19</title>
<path fill="none" stroke="#63b8ff" d="M377.38,-219.51C362.22,-211.31 339.58,-199.07 322.03,-189.58"/>
<polygon fill="#63b8ff" stroke="#63b8ff" points="324.17,-186.76 313.71,-185.08 320.84,-192.91 324.17,-186.76"/>
</g>
<!-- Node26&#45;&gt;Node5 -->
<g id="edge40" class="edge">
<title>Node26&#45;&gt;Node5</title>
<path fill="none" stroke="#63b8ff" d="M676.3,-384.74C659.62,-359.09 610.65,-283.78 587.89,-248.78"/>
<polygon fill="#63b8ff" stroke="#63b8ff" points="590.94,-247.05 582.55,-240.58 585.07,-250.87 590.94,-247.05"/>
</g>
<!-- Node26&#45;&gt;Node7 -->
<g id="edge39" class="edge">
<title>Node26&#45;&gt;Node7</title>
<path fill="none" stroke="#63b8ff" d="M723.9,-390.95C825.56,-383.6 1077,-358.1 1077,-285.5 1077,-285.5 1077,-285.5 1077,-118.5 1077,-31.8 949.77,-13.75 875.76,-10.59"/>
<polygon fill="#63b8ff" stroke="#63b8ff" points="875.99,-7.1 865.88,-10.25 875.76,-14.09 875.99,-7.1"/>
</g>
<!-- Node26&#45;&gt;Node12 -->
<g id="edge56" class="edge">
<title>Node26&#45;&gt;Node12</title>
<path fill="none" stroke="#63b8ff" d="M691.57,-384.71C709.19,-367.5 745,-327.39 745,-285.5 745,-285.5 745,-285.5 745,-173.5 745,-126.64 693.92,-95.21 657.86,-78.85"/>
<polygon fill="#63b8ff" stroke="#63b8ff" points="659.65,-75.81 649.08,-75.05 656.87,-82.23 659.65,-75.81"/>
</g>
<!-- Node27 -->
<g id="node27" class="node">
<title>Node27</title>
<g id="a_node27"><a xlink:href="HashGenerator_8h.html" target="_top" xlink:title=" ">
<polygon fill="white" stroke="#666666" points="920,-184 830,-184 830,-165 920,-165 920,-184"/>
<text text-anchor="middle" x="875" y="-172" font-family="Helvetica,sans-Serif" font-size="10.00">HashGenerator.h</text>
</a>
</g>
</g>
<!-- Node26&#45;&gt;Node27 -->
<g id="edge41" class="edge">
<title>Node26&#45;&gt;Node27</title>
<path fill="none" stroke="#63b8ff" d="M702.98,-384.61C719.51,-376.89 742.44,-364.52 759,-349 809.37,-301.82 849,-228.8 865.99,-194.51"/>
<polygon fill="#63b8ff" stroke="#63b8ff" points="868.99,-196.35 870.21,-185.82 862.69,-193.29 868.99,-196.35"/>
</g>
<!-- Node30 -->
<g id="node30" class="node">
<title>Node30</title>
<g id="a_node30"><a xlink:href="OTA__Update__Callback_8h.html" target="_top" xlink:title=" ">
<polygon fill="white" stroke="#666666" points="592,-349 468,-349 468,-330 592,-330 592,-349"/>
<text text-anchor="middle" x="530" y="-337" font-family="Helvetica,sans-Serif" font-size="10.00">OTA_Update_Callback.h</text>
</a>
</g>
</g>
<!-- Node26&#45;&gt;Node30 -->
<g id="edge46" class="edge">
<title>Node26&#45;&gt;Node30</title>
<path fill="none" stroke="#63b8ff" d="M656.22,-384.51C631.57,-375.92 594.19,-362.88 566.49,-353.22"/>
<polygon fill="#63b8ff" stroke="#63b8ff" points="567.68,-349.93 557.09,-349.94 565.38,-356.54 567.68,-349.93"/>
</g>
<!-- Node32 -->
<g id="node32" class="node">
<title>Node32</title>
<g id="a_node32"><a xlink:href="OTA__Failure__Response_8h.html" target="_top" xlink:title=" ">
<polygon fill="white" stroke="#666666" points="254,-74 126,-74 126,-55 254,-55 254,-74"/>
<text text-anchor="middle" x="190" y="-62" font-family="Helvetica,sans-Serif" font-size="10.00">OTA_Failure_Response.h</text>
</a>
</g>
</g>
<!-- Node26&#45;&gt;Node32 -->
<g id="edge54" class="edge">
<title>Node26&#45;&gt;Node32</title>
<path fill="none" stroke="#63b8ff" d="M640.2,-391.87C538.34,-387.53 283.5,-374.23 255,-349 234.88,-331.19 203.28,-147 193.2,-85.42"/>
<polygon fill="#63b8ff" stroke="#63b8ff" points="196.69,-85.05 191.63,-75.74 189.78,-86.17 196.69,-85.05"/>
</g>
<!-- Node33 -->
<g id="node33" class="node">
<title>Node33</title>
<g id="a_node33"><a xlink:title=" ">
<polygon fill="#e0e0e0" stroke="#999999" points="859,-349 811,-349 811,-330 859,-330 859,-349"/>
<text text-anchor="middle" x="835" y="-337" font-family="Helvetica,sans-Serif" font-size="10.00">string.h</text>
</a>
</g>
</g>
<!-- Node26&#45;&gt;Node33 -->
<g id="edge57" class="edge">
<title>Node26&#45;&gt;Node33</title>
<path fill="none" stroke="#63b8ff" d="M707.95,-384.51C733.39,-375.7 772.33,-362.21 800.4,-352.49"/>
<polygon fill="#63b8ff" stroke="#63b8ff" points="801.2,-355.91 809.51,-349.33 798.91,-349.3 801.2,-355.91"/>
</g>
<!-- Node27&#45;&gt;Node7 -->
<g id="edge42" class="edge">
<title>Node27&#45;&gt;Node7</title>
<path fill="none" stroke="#63b8ff" d="M920.47,-170.39C971.63,-164.93 1044.58,-150.05 1020,-110 988.74,-59.07 922.39,-33.22 875.57,-20.82"/>
<polygon fill="#63b8ff" stroke="#63b8ff" points="876.44,-17.43 865.89,-18.39 874.73,-24.22 876.44,-17.43"/>
</g>
<!-- Node27&#45;&gt;Node14 -->
<g id="edge44" class="edge">
<title>Node27&#45;&gt;Node14</title>
<path fill="none" stroke="#63b8ff" d="M829.71,-170.84C743.91,-165.35 561,-151.37 502,-129 439.22,-105.2 377.45,-53.49 348.33,-26.94"/>
<polygon fill="#63b8ff" stroke="#63b8ff" points="350.88,-24.54 341.17,-20.31 346.12,-29.67 350.88,-24.54"/>
</g>
<!-- Node28 -->
<g id="node28" class="node">
<title>Node28</title>
<g id="a_node28"><a xlink:title=" ">
<polygon fill="#e0e0e0" stroke="#999999" points="1011,-129 919,-129 919,-110 1011,-110 1011,-129"/>
<text text-anchor="middle" x="965" y="-117" font-family="Helvetica,sans-Serif" font-size="10.00">Seeed_mbedtls.h</text>
</a>
</g>
</g>
<!-- Node27&#45;&gt;Node28 -->
<g id="edge43" class="edge">
<title>Node27&#45;&gt;Node28</title>
<path fill="none" stroke="#63b8ff" d="M890.27,-164.51C903.93,-156.47 924.2,-144.53 940.18,-135.11"/>
<polygon fill="#63b8ff" stroke="#63b8ff" points="941.81,-138.22 948.65,-130.13 938.26,-132.18 941.81,-138.22"/>
</g>
<!-- Node29 -->
<g id="node29" class="node">
<title>Node29</title>
<g id="a_node29"><a xlink:title=" ">
<polygon fill="#e0e0e0" stroke="#999999" points="900.5,-129 849.5,-129 849.5,-110 900.5,-110 900.5,-129"/>
<text text-anchor="middle" x="875" y="-117" font-family="Helvetica,sans-Serif" font-size="10.00">stddef.h</text>
</a>
</g>
</g>
<!-- Node27&#45;&gt;Node29 -->
<g id="edge45" class="edge">
<title>Node27&#45;&gt;Node29</title>
<path fill="none" stroke="#63b8ff" d="M875,-164.75C875,-158.27 875,-149.16 875,-140.9"/>
<polygon fill="#63b8ff" stroke="#63b8ff" points="878.5,-140.96 875,-130.96 871.5,-140.96 878.5,-140.96"/>
</g>
<!-- Node30&#45;&gt;Node4 -->
<g id="edge53" class="edge">
<title>Node30&#45;&gt;Node4</title>
<path fill="none" stroke="#63b8ff" d="M508.8,-329.51C488.92,-321.08 458.97,-308.38 436.34,-298.79"/>
<polygon fill="#63b8ff" stroke="#63b8ff" points="437.86,-295.63 427.28,-294.95 435.13,-302.07 437.86,-295.63"/>
</g>
<!-- Node30&#45;&gt;Node6 -->
<g id="edge47" class="edge">
<title>Node30&#45;&gt;Node6</title>
<path fill="none" stroke="#63b8ff" d="M527.42,-329.74C519.96,-304.42 498.26,-230.72 487.79,-195.16"/>
<polygon fill="#63b8ff" stroke="#63b8ff" points="491.2,-194.36 485.02,-185.76 484.49,-196.34 491.2,-194.36"/>
</g>
<!-- Node31 -->
<g id="node31" class="node">
<title>Node31</title>
<g id="a_node31"><a xlink:href="IUpdater_8h.html" target="_top" xlink:title=" ">
<polygon fill="white" stroke="#666666" points="692,-184 630,-184 630,-165 692,-165 692,-184"/>
<text text-anchor="middle" x="661" y="-172" font-family="Helvetica,sans-Serif" font-size="10.00">IUpdater.h</text>
</a>
</g>
</g>
<!-- Node30&#45;&gt;Node31 -->
<g id="edge48" class="edge">
<title>Node30&#45;&gt;Node31</title>
<path fill="none" stroke="#63b8ff" d="M543.94,-329.5C567.14,-313.84 613.71,-279.35 640,-239 648.65,-225.73 654.04,-208.57 657.19,-195.44"/>
<polygon fill="#63b8ff" stroke="#63b8ff" points="660.58,-196.33 659.25,-185.82 653.74,-194.87 660.58,-196.33"/>
</g>
<!-- Node31&#45;&gt;Node7 -->
<g id="edge49" class="edge">
<title>Node31&#45;&gt;Node7</title>
<path fill="none" stroke="#63b8ff" d="M692.44,-171.84C723.5,-168.47 770.13,-158.46 797,-129 821.81,-101.79 825.34,-56.61 825.08,-30.6"/>
<polygon fill="#63b8ff" stroke="#63b8ff" points="828.58,-30.64 824.75,-20.76 821.58,-30.87 828.58,-30.64"/>
</g>
<!-- Node31&#45;&gt;Node14 -->
<g id="edge52" class="edge">
<title>Node31&#45;&gt;Node14</title>
<path fill="none" stroke="#63b8ff" d="M629.57,-166.75C626.68,-166.15 623.78,-165.56 621,-165 536.3,-148.02 504.51,-172.71 430,-129 388.52,-104.67 356.57,-56.26 341.15,-29.45"/>
<polygon fill="#63b8ff" stroke="#63b8ff" points="344.23,-27.79 336.31,-20.75 338.11,-31.19 344.23,-27.79"/>
</g>
<!-- Node31&#45;&gt;Node21 -->
<g id="edge50" class="edge">
<title>Node31&#45;&gt;Node21</title>
<path fill="none" stroke="#63b8ff" d="M656.87,-164.75C653.67,-157.96 649.11,-148.3 645.07,-139.73"/>
<polygon fill="#63b8ff" stroke="#63b8ff" points="648.3,-138.36 640.86,-130.81 641.96,-141.35 648.3,-138.36"/>
</g>
<!-- Node31&#45;&gt;Node29 -->
<g id="edge51" class="edge">
<title>Node31&#45;&gt;Node29</title>
<path fill="none" stroke="#63b8ff" d="M692.12,-165.79C730.9,-156.19 797.08,-139.8 838.3,-129.59"/>
<polygon fill="#63b8ff" stroke="#63b8ff" points="838.88,-133.05 847.75,-127.25 837.2,-126.26 838.88,-133.05"/>
</g>
<!-- Node32&#45;&gt;Node14 -->
<g id="edge55" class="edge">
<title>Node32&#45;&gt;Node14</title>
<path fill="none" stroke="#63b8ff" d="M213.92,-54.51C236.64,-45.97 271.05,-33.03 296.69,-23.4"/>
<polygon fill="#63b8ff" stroke="#63b8ff" points="297.89,-26.69 306.02,-19.89 295.43,-20.13 297.89,-26.69"/>
</g>
</g>
</svg>
