<?xml version="1.0" encoding="UTF-8" standalone="no"?>
<!DOCTYPE svg PUBLIC "-//W3C//DTD SVG 1.1//EN"
 "http://www.w3.org/Graphics/SVG/1.1/DTD/svg11.dtd">
<!-- Generated by graphviz version 7.0.5 (20221223.1930)
 -->
<!-- Title: src/OTA_Firmware_Update.h Pages: 1 -->
<!--zoomable 412 -->
<svg id="main" version="1.1" xmlns="http://www.w3.org/2000/svg" xmlns:xlink="http://www.w3.org/1999/xlink" xml:space="preserve" onload="init(evt)">
<style type="text/css"><![CDATA[
.edge:hover path { stroke: red; }
.edge:hover polygon { stroke: red; fill: red; }
]]></style>
<script type="text/javascript"><![CDATA[
var edges = document.getElementsByTagName('g');
if (edges && edges.length) {
  for (var i=0;i<edges.length;i++) {
    if (edges[i].id.substr(0,4)=='edge') {
      edges[i].setAttribute('class','edge');
    }
  }
}
]]></script>
        <defs>
                <circle id="rim" cx="0" cy="0" r="7"/>
                <circle id="rim2" cx="0" cy="0" r="3.5"/>
                <g id="zoomPlus">
                        <use xlink:href="#rim" fill="#404040">
                                <set attributeName="fill" to="#808080" begin="zoomplus.mouseover" end="zoomplus.mouseout"/>
                        </use>
                        <path d="M-4,0h8M0,-4v8" fill="none" stroke="white" stroke-width="1.5" pointer-events="none"/>
                </g>
                <g id="zoomMin">
                        <use xlink:href="#rim" fill="#404040">
                                <set attributeName="fill" to="#808080" begin="zoomminus.mouseover" end="zoomminus.mouseout"/>
                        </use>
                        <path d="M-4,0h8" fill="none" stroke="white" stroke-width="1.5" pointer-events="none"/>
                </g>
                <g id="dirArrow">
                        <path fill="none" stroke="white" stroke-width="1.5" d="M0,-3.0v7 M-2.5,-0.5L0,-3.0L2.5,-0.5"/>
                </g>
               <g id="resetDef">
                       <use xlink:href="#rim2" fill="#404040">
                               <set attributeName="fill" to="#808080" begin="reset.mouseover" end="reset.mouseout"/>
                       </use>
               </g>
        </defs>

<script type="text/javascript">
var viewWidth = 913;
var viewHeight = 412;
var sectionId = 'dynsection-0';
</script>
<script xlink:href="svgpan.js"/>
<svg id="graph" class="graph">
<g id="viewport">
<title>src/OTA_Firmware_Update.h</title>
<!-- Node1 -->
<g id="node1" class="node">
<title>Node1</title>
<g id="a_node1"><a xlink:title=" ">
<polygon fill="#999999" stroke="#666666" points="292,-404 149,-404 149,-385 292,-385 292,-404"/>
<text text-anchor="middle" x="220.5" y="-392" font-family="Helvetica,sans-Serif" font-size="10.00">src/OTA_Firmware_Update.h</text>
</a>
</g>
</g>
<!-- Node2 -->
<g id="node2" class="node">
<title>Node2</title>
<g id="a_node2"><a xlink:href="Attribute__Request_8h.html" target="_top" xlink:title=" ">
<polygon fill="white" stroke="#666666" points="232.5,-349 130.5,-349 130.5,-330 232.5,-330 232.5,-349"/>
<text text-anchor="middle" x="181.5" y="-337" font-family="Helvetica,sans-Serif" font-size="10.00">Attribute_Request.h</text>
</a>
</g>
</g>
<!-- Node1&#45;&gt;Node2 -->
<g id="edge1" class="edge">
<title>Node1&#45;&gt;Node2</title>
<path fill="none" stroke="#63b8ff" d="M214.06,-384.75C208.84,-377.66 201.31,-367.42 194.81,-358.59"/>
<polygon fill="#63b8ff" stroke="#63b8ff" points="197.72,-356.64 188.98,-350.66 192.08,-360.79 197.72,-356.64"/>
</g>
<!-- Node19 -->
<g id="node19" class="node">
<title>Node19</title>
<g id="a_node19"><a xlink:href="IAPI__Implementation_8h.html" target="_top" xlink:title=" ">
<polygon fill="white" stroke="#666666" points="160.5,-239 44.5,-239 44.5,-220 160.5,-220 160.5,-239"/>
<text text-anchor="middle" x="102.5" y="-227" font-family="Helvetica,sans-Serif" font-size="10.00">IAPI_Implementation.h</text>
</a>
</g>
</g>
<!-- Node1&#45;&gt;Node19 -->
<g id="edge54" class="edge">
<title>Node1&#45;&gt;Node19</title>
<path fill="none" stroke="#63b8ff" d="M178.51,-384.53C158.24,-378.03 135.37,-367.1 121.5,-349 99.5,-320.28 98.6,-275.99 100.3,-250.48"/>
<polygon fill="#63b8ff" stroke="#63b8ff" points="103.76,-251.1 101.16,-240.82 96.79,-250.47 103.76,-251.1"/>
</g>
<!-- Node23 -->
<g id="node23" class="node">
<title>Node23</title>
<g id="a_node23"><a xlink:href="Shared__Attribute__Update_8h.html" target="_top" xlink:title=" ">
<polygon fill="white" stroke="#666666" points="309.5,-294 175.5,-294 175.5,-275 309.5,-275 309.5,-294"/>
<text text-anchor="middle" x="242.5" y="-282" font-family="Helvetica,sans-Serif" font-size="10.00">Shared_Attribute_Update.h</text>
</a>
</g>
</g>
<!-- Node1&#45;&gt;Node23 -->
<g id="edge30" class="edge">
<title>Node1&#45;&gt;Node23</title>
<path fill="none" stroke="#63b8ff" d="M226.03,-384.71C231.16,-376.02 238.44,-362.15 241.5,-349 244.83,-334.66 244.96,-318.01 244.32,-305.36"/>
<polygon fill="#63b8ff" stroke="#63b8ff" points="247.84,-305.5 243.62,-295.78 240.86,-306.01 247.84,-305.5"/>
</g>
<!-- Node25 -->
<g id="node25" class="node">
<title>Node25</title>
<g id="a_node25"><a xlink:href="OTA__Handler_8h.html" target="_top" xlink:title=" ">
<polygon fill="white" stroke="#666666" points="658,-294 575,-294 575,-275 658,-275 658,-294"/>
<text text-anchor="middle" x="616.5" y="-282" font-family="Helvetica,sans-Serif" font-size="10.00">OTA_Handler.h</text>
</a>
</g>
</g>
<!-- Node1&#45;&gt;Node25 -->
<g id="edge35" class="edge">
<title>Node1&#45;&gt;Node25</title>
<path fill="none" stroke="#63b8ff" d="M253.24,-384.57C324.39,-365.17 493.1,-319.15 573.05,-297.35"/>
<polygon fill="#63b8ff" stroke="#63b8ff" points="573.53,-300.85 582.26,-294.84 571.69,-294.09 573.53,-300.85"/>
</g>
<!-- Node3 -->
<g id="node3" class="node">
<title>Node3</title>
<g id="a_node3"><a xlink:href="Attribute__Request__Callback_8h.html" target="_top" xlink:title=" ">
<polygon fill="white" stroke="#666666" points="473,-294 328,-294 328,-275 473,-275 473,-294"/>
<text text-anchor="middle" x="400.5" y="-282" font-family="Helvetica,sans-Serif" font-size="10.00">Attribute_Request_Callback.h</text>
</a>
</g>
</g>
<!-- Node2&#45;&gt;Node3 -->
<g id="edge2" class="edge">
<title>Node2&#45;&gt;Node3</title>
<path fill="none" stroke="#63b8ff" d="M218.65,-329.51C255.49,-320.59 312.12,-306.89 352.38,-297.15"/>
<polygon fill="#63b8ff" stroke="#63b8ff" points="353.17,-300.56 362.06,-294.8 351.52,-293.75 353.17,-300.56"/>
</g>
<!-- Node2&#45;&gt;Node19 -->
<g id="edge22" class="edge">
<title>Node2&#45;&gt;Node19</title>
<path fill="none" stroke="#63b8ff" d="M175.04,-329.66C162.13,-312.02 132.95,-272.12 115.79,-248.67"/>
<polygon fill="#63b8ff" stroke="#63b8ff" points="118.68,-246.69 109.95,-240.68 113.03,-250.82 118.68,-246.69"/>
</g>
<!-- Node4 -->
<g id="node4" class="node">
<title>Node4</title>
<g id="a_node4"><a xlink:href="Callback__Watchdog_8h.html" target="_top" xlink:title=" ">
<polygon fill="white" stroke="#666666" points="484.5,-239 374.5,-239 374.5,-220 484.5,-220 484.5,-239"/>
<text text-anchor="middle" x="429.5" y="-227" font-family="Helvetica,sans-Serif" font-size="10.00">Callback_Watchdog.h</text>
</a>
</g>
</g>
<!-- Node3&#45;&gt;Node4 -->
<g id="edge3" class="edge">
<title>Node3&#45;&gt;Node4</title>
<path fill="none" stroke="#63b8ff" d="M405.29,-274.75C409.04,-267.88 414.41,-258.08 419.13,-249.45"/>
<polygon fill="#63b8ff" stroke="#63b8ff" points="422.15,-251.22 423.88,-240.77 416.01,-247.86 422.15,-251.22"/>
</g>
<!-- Node17 -->
<g id="node17" class="node">
<title>Node17</title>
<g id="a_node17"><a xlink:href="Constants_8h.html" target="_top" xlink:title=" ">
<polygon fill="white" stroke="#666666" points="442.5,-184 374.5,-184 374.5,-165 442.5,-165 442.5,-184"/>
<text text-anchor="middle" x="408.5" y="-172" font-family="Helvetica,sans-Serif" font-size="10.00">Constants.h</text>
</a>
</g>
</g>
<!-- Node3&#45;&gt;Node17 -->
<g id="edge19" class="edge">
<title>Node3&#45;&gt;Node17</title>
<path fill="none" stroke="#63b8ff" d="M389.95,-274.79C376.85,-262.85 357.2,-240.54 365.5,-220 369.93,-209.03 378.51,-199.26 386.85,-191.69"/>
<polygon fill="#63b8ff" stroke="#63b8ff" points="389,-194.45 394.43,-185.36 384.51,-189.08 389,-194.45"/>
</g>
<!-- Node5 -->
<g id="node5" class="node">
<title>Node5</title>
<g id="a_node5"><a xlink:href="Callback_8h.html" target="_top" xlink:title=" ">
<polygon fill="white" stroke="#666666" points="230.5,-184 168.5,-184 168.5,-165 230.5,-165 230.5,-184"/>
<text text-anchor="middle" x="199.5" y="-172" font-family="Helvetica,sans-Serif" font-size="10.00">Callback.h</text>
</a>
</g>
</g>
<!-- Node4&#45;&gt;Node5 -->
<g id="edge4" class="edge">
<title>Node4&#45;&gt;Node5</title>
<path fill="none" stroke="#63b8ff" d="M390.48,-219.51C349.28,-210.01 284.51,-195.09 242.02,-185.3"/>
<polygon fill="#63b8ff" stroke="#63b8ff" points="242.94,-181.92 232.41,-183.08 241.37,-188.74 242.94,-181.92"/>
</g>
<!-- Node16 -->
<g id="node16" class="node">
<title>Node16</title>
<g id="a_node16"><a xlink:title=" ">
<polygon fill="#e0e0e0" stroke="#999999" points="540.5,-184 460.5,-184 460.5,-165 540.5,-165 540.5,-184"/>
<text text-anchor="middle" x="500.5" y="-172" font-family="Helvetica,sans-Serif" font-size="10.00">arduino&#45;timer.h</text>
</a>
</g>
</g>
<!-- Node4&#45;&gt;Node16 -->
<g id="edge18" class="edge">
<title>Node4&#45;&gt;Node16</title>
<path fill="none" stroke="#63b8ff" d="M441.54,-219.51C451.91,-211.77 467.1,-200.43 479.47,-191.2"/>
<polygon fill="#63b8ff" stroke="#63b8ff" points="481.5,-194.05 487.42,-185.26 477.31,-188.44 481.5,-194.05"/>
</g>
<!-- Node6 -->
<g id="node6" class="node">
<title>Node6</title>
<g id="a_node6"><a xlink:href="Configuration_8h.html" target="_top" xlink:title=" ">
<polygon fill="white" stroke="#666666" points="527.5,-19 447.5,-19 447.5,0 527.5,0 527.5,-19"/>
<text text-anchor="middle" x="487.5" y="-7" font-family="Helvetica,sans-Serif" font-size="10.00">Configuration.h</text>
</a>
</g>
</g>
<!-- Node5&#45;&gt;Node6 -->
<g id="edge5" class="edge">
<title>Node5&#45;&gt;Node6</title>
<path fill="none" stroke="#63b8ff" d="M230.58,-166.69C284.73,-154.77 391.01,-131.21 394.5,-129 429.79,-106.62 426.69,-87.87 452.5,-55 459.4,-46.21 467.08,-36.44 473.49,-28.3"/>
<polygon fill="#63b8ff" stroke="#63b8ff" points="476.15,-30.57 479.59,-20.55 470.65,-26.25 476.15,-30.57"/>
</g>
<!-- Node7 -->
<g id="node7" class="node">
<title>Node7</title>
<g id="a_node7"><a xlink:href="Container_8h.html" target="_top" xlink:title=" ">
<polygon fill="white" stroke="#666666" points="104,-129 39,-129 39,-110 104,-110 104,-129"/>
<text text-anchor="middle" x="71.5" y="-117" font-family="Helvetica,sans-Serif" font-size="10.00">Container.h</text>
</a>
</g>
</g>
<!-- Node5&#45;&gt;Node7 -->
<g id="edge6" class="edge">
<title>Node5&#45;&gt;Node7</title>
<path fill="none" stroke="#63b8ff" d="M177.79,-164.51C157.34,-156.04 126.48,-143.27 103.27,-133.66"/>
<polygon fill="#63b8ff" stroke="#63b8ff" points="104.87,-130.53 94.29,-129.94 102.19,-137 104.87,-130.53"/>
</g>
<!-- Node9 -->
<g id="node9" class="node">
<title>Node9</title>
<g id="a_node9"><a xlink:title=" ">
<polygon fill="#e0e0e0" stroke="#999999" points="344.5,-19 266.5,-19 266.5,0 344.5,0 344.5,-19"/>
<text text-anchor="middle" x="305.5" y="-7" font-family="Helvetica,sans-Serif" font-size="10.00">ArduinoJson.h</text>
</a>
</g>
</g>
<!-- Node5&#45;&gt;Node9 -->
<g id="edge15" class="edge">
<title>Node5&#45;&gt;Node9</title>
<path fill="none" stroke="#63b8ff" d="M226.86,-164.64C244.2,-157.65 265.7,-146.16 278.5,-129 300.31,-99.76 304.98,-55.98 305.71,-30.62"/>
<polygon fill="#63b8ff" stroke="#63b8ff" points="309.21,-30.76 305.79,-20.73 302.21,-30.7 309.21,-30.76"/>
</g>
<!-- Node14 -->
<g id="node14" class="node">
<title>Node14</title>
<g id="a_node14"><a xlink:title=" ">
<polygon fill="#e0e0e0" stroke="#999999" points="385,-129 326,-129 326,-110 385,-110 385,-129"/>
<text text-anchor="middle" x="355.5" y="-117" font-family="Helvetica,sans-Serif" font-size="10.00">functional</text>
</a>
</g>
</g>
<!-- Node5&#45;&gt;Node14 -->
<g id="edge16" class="edge">
<title>Node5&#45;&gt;Node14</title>
<path fill="none" stroke="#63b8ff" d="M225.96,-164.51C251.36,-155.88 289.97,-142.76 318.42,-133.1"/>
<polygon fill="#63b8ff" stroke="#63b8ff" points="319.39,-136.46 327.73,-129.93 317.14,-129.84 319.39,-136.46"/>
</g>
<!-- Node15 -->
<g id="node15" class="node">
<title>Node15</title>
<g id="a_node15"><a xlink:title=" ">
<polygon fill="#e0e0e0" stroke="#999999" points="269.5,-129 225.5,-129 225.5,-110 269.5,-110 269.5,-129"/>
<text text-anchor="middle" x="247.5" y="-117" font-family="Helvetica,sans-Serif" font-size="10.00">vector</text>
</a>
</g>
</g>
<!-- Node5&#45;&gt;Node15 -->
<g id="edge17" class="edge">
<title>Node5&#45;&gt;Node15</title>
<path fill="none" stroke="#63b8ff" d="M207.43,-164.75C214.06,-157.43 223.72,-146.76 231.89,-137.74"/>
<polygon fill="#63b8ff" stroke="#63b8ff" points="234.27,-140.33 238.39,-130.56 229.08,-135.63 234.27,-140.33"/>
</g>
<!-- Node8 -->
<g id="node8" class="node">
<title>Node8</title>
<g id="a_node8"><a xlink:href="Helper_8h.html" target="_top" xlink:title=" ">
<polygon fill="white" stroke="#666666" points="182,-74 129,-74 129,-55 182,-55 182,-74"/>
<text text-anchor="middle" x="155.5" y="-62" font-family="Helvetica,sans-Serif" font-size="10.00">Helper.h</text>
</a>
</g>
</g>
<!-- Node7&#45;&gt;Node8 -->
<g id="edge7" class="edge">
<title>Node7&#45;&gt;Node8</title>
<path fill="none" stroke="#63b8ff" d="M85.75,-109.51C98.38,-101.54 117.06,-89.75 131.91,-80.38"/>
<polygon fill="#63b8ff" stroke="#63b8ff" points="133.59,-83.46 140.18,-75.17 129.86,-77.54 133.59,-83.46"/>
</g>
<!-- Node11 -->
<g id="node11" class="node">
<title>Node11</title>
<g id="a_node11"><a xlink:title=" ">
<polygon fill="#e0e0e0" stroke="#999999" points="51,-19 0,-19 0,0 51,0 51,-19"/>
<text text-anchor="middle" x="25.5" y="-7" font-family="Helvetica,sans-Serif" font-size="10.00">assert.h</text>
</a>
</g>
</g>
<!-- Node7&#45;&gt;Node11 -->
<g id="edge14" class="edge">
<title>Node7&#45;&gt;Node11</title>
<path fill="none" stroke="#63b8ff" d="M67.74,-109.66C60.36,-92.34 43.84,-53.55 33.78,-29.95"/>
<polygon fill="#63b8ff" stroke="#63b8ff" points="37.05,-28.68 29.91,-20.85 30.61,-31.42 37.05,-28.68"/>
</g>
<!-- Node8&#45;&gt;Node6 -->
<g id="edge8" class="edge">
<title>Node8&#45;&gt;Node6</title>
<path fill="none" stroke="#63b8ff" d="M182.39,-59.21C237.63,-50.39 364.7,-30.1 436.21,-18.69"/>
<polygon fill="#63b8ff" stroke="#63b8ff" points="436.37,-22.21 445.69,-17.17 435.27,-15.29 436.37,-22.21"/>
</g>
<!-- Node8&#45;&gt;Node9 -->
<g id="edge9" class="edge">
<title>Node8&#45;&gt;Node9</title>
<path fill="none" stroke="#63b8ff" d="M180.95,-54.51C205.26,-45.92 242.16,-32.88 269.49,-23.22"/>
<polygon fill="#63b8ff" stroke="#63b8ff" points="270.49,-26.58 278.75,-19.95 268.16,-19.98 270.49,-26.58"/>
</g>
<!-- Node10 -->
<g id="node10" class="node">
<title>Node10</title>
<g id="a_node10"><a xlink:title=" ">
<polygon fill="#e0e0e0" stroke="#999999" points="179,-19 132,-19 132,0 179,0 179,-19"/>
<text text-anchor="middle" x="155.5" y="-7" font-family="Helvetica,sans-Serif" font-size="10.00">iterator</text>
</a>
</g>
</g>
<!-- Node8&#45;&gt;Node10 -->
<g id="edge10" class="edge">
<title>Node8&#45;&gt;Node10</title>
<path fill="none" stroke="#63b8ff" d="M155.5,-54.75C155.5,-48.27 155.5,-39.16 155.5,-30.9"/>
<polygon fill="#63b8ff" stroke="#63b8ff" points="159,-30.96 155.5,-20.96 152,-30.96 159,-30.96"/>
</g>
<!-- Node8&#45;&gt;Node11 -->
<g id="edge11" class="edge">
<title>Node8&#45;&gt;Node11</title>
<path fill="none" stroke="#63b8ff" d="M133.45,-54.51C112.69,-46.04 81.34,-33.27 57.77,-23.66"/>
<polygon fill="#63b8ff" stroke="#63b8ff" points="59.21,-20.46 48.63,-19.93 56.57,-26.95 59.21,-20.46"/>
</g>
<!-- Node12 -->
<g id="node12" class="node">
<title>Node12</title>
<g id="a_node12"><a xlink:title=" ">
<polygon fill="#e0e0e0" stroke="#999999" points="248,-19 197,-19 197,0 248,0 248,-19"/>
<text text-anchor="middle" x="222.5" y="-7" font-family="Helvetica,sans-Serif" font-size="10.00">stdarg.h</text>
</a>
</g>
</g>
<!-- Node8&#45;&gt;Node12 -->
<g id="edge12" class="edge">
<title>Node8&#45;&gt;Node12</title>
<path fill="none" stroke="#63b8ff" d="M166.87,-54.51C176.55,-46.85 190.7,-35.66 202.31,-26.47"/>
<polygon fill="#63b8ff" stroke="#63b8ff" points="204.44,-29.25 210.12,-20.3 200.1,-23.76 204.44,-29.25"/>
</g>
<!-- Node13 -->
<g id="node13" class="node">
<title>Node13</title>
<g id="a_node13"><a xlink:title=" ">
<polygon fill="#e0e0e0" stroke="#999999" points="114,-19 69,-19 69,0 114,0 114,-19"/>
<text text-anchor="middle" x="91.5" y="-7" font-family="Helvetica,sans-Serif" font-size="10.00">stdio.h</text>
</a>
</g>
</g>
<!-- Node8&#45;&gt;Node13 -->
<g id="edge13" class="edge">
<title>Node8&#45;&gt;Node13</title>
<path fill="none" stroke="#63b8ff" d="M144.64,-54.51C135.39,-46.85 121.88,-35.66 110.79,-26.47"/>
<polygon fill="#63b8ff" stroke="#63b8ff" points="113.3,-24.01 103.36,-20.32 108.83,-29.4 113.3,-24.01"/>
</g>
<!-- Node17&#45;&gt;Node6 -->
<g id="edge20" class="edge">
<title>Node17&#45;&gt;Node6</title>
<path fill="none" stroke="#63b8ff" d="M412.91,-164.65C417.37,-155.68 424.46,-141.39 430.5,-129 447.54,-94.07 467.12,-53.19 478.33,-29.73"/>
<polygon fill="#63b8ff" stroke="#63b8ff" points="481.44,-31.33 482.59,-20.8 475.12,-28.32 481.44,-31.33"/>
</g>
<!-- Node18 -->
<g id="node18" class="node">
<title>Node18</title>
<g id="a_node18"><a xlink:title=" ">
<polygon fill="#e0e0e0" stroke="#999999" points="589.5,-129 541.5,-129 541.5,-110 589.5,-110 589.5,-129"/>
<text text-anchor="middle" x="565.5" y="-117" font-family="Helvetica,sans-Serif" font-size="10.00">stdint.h</text>
</a>
</g>
</g>
<!-- Node17&#45;&gt;Node18 -->
<g id="edge21" class="edge">
<title>Node17&#45;&gt;Node18</title>
<path fill="none" stroke="#63b8ff" d="M435.13,-164.51C461.32,-155.67 501.43,-142.13 530.25,-132.4"/>
<polygon fill="#63b8ff" stroke="#63b8ff" points="531.28,-135.75 539.63,-129.23 529.04,-129.12 531.28,-135.75"/>
</g>
<!-- Node19&#45;&gt;Node5 -->
<g id="edge23" class="edge">
<title>Node19&#45;&gt;Node5</title>
<path fill="none" stroke="#63b8ff" d="M118.95,-219.51C133.82,-211.39 155.94,-199.3 173.25,-189.85"/>
<polygon fill="#63b8ff" stroke="#63b8ff" points="174.86,-192.95 181.96,-185.08 171.51,-186.81 174.86,-192.95"/>
</g>
<!-- Node19&#45;&gt;Node17 -->
<g id="edge24" class="edge">
<title>Node19&#45;&gt;Node17</title>
<path fill="none" stroke="#63b8ff" d="M158.25,-219.52C209.04,-211.24 286.43,-198.37 362.97,-184.42"/>
<polygon fill="#63b8ff" stroke="#63b8ff" points="363.55,-187.87 372.76,-182.63 362.29,-180.99 363.55,-187.87"/>
</g>
<!-- Node20 -->
<g id="node20" class="node">
<title>Node20</title>
<g id="a_node20"><a xlink:href="DefaultLogger_8h.html" target="_top" xlink:title=" ">
<polygon fill="white" stroke="#666666" points="207,-129 122,-129 122,-110 207,-110 207,-129"/>
<text text-anchor="middle" x="164.5" y="-117" font-family="Helvetica,sans-Serif" font-size="10.00">DefaultLogger.h</text>
</a>
</g>
</g>
<!-- Node19&#45;&gt;Node20 -->
<g id="edge25" class="edge">
<title>Node19&#45;&gt;Node20</title>
<path fill="none" stroke="#63b8ff" d="M107.57,-219.66C117.61,-202.18 140.19,-162.84 153.71,-139.3"/>
<polygon fill="#63b8ff" stroke="#63b8ff" points="156.66,-141.19 158.6,-130.77 150.59,-137.7 156.66,-141.19"/>
</g>
<!-- Node21 -->
<g id="node21" class="node">
<title>Node21</title>
<g id="a_node21"><a xlink:href="API__Process__Type_8h.html" target="_top" xlink:title=" ">
<polygon fill="white" stroke="#666666" points="356.5,-184 248.5,-184 248.5,-165 356.5,-165 356.5,-184"/>
<text text-anchor="middle" x="302.5" y="-172" font-family="Helvetica,sans-Serif" font-size="10.00">API_Process_Type.h</text>
</a>
</g>
</g>
<!-- Node19&#45;&gt;Node21 -->
<g id="edge27" class="edge">
<title>Node19&#45;&gt;Node21</title>
<path fill="none" stroke="#63b8ff" d="M136.43,-219.51C169.86,-210.65 221.12,-197.07 257.85,-187.33"/>
<polygon fill="#63b8ff" stroke="#63b8ff" points="258.51,-190.78 267.28,-184.83 256.71,-184.01 258.51,-190.78"/>
</g>
<!-- Node22 -->
<g id="node22" class="node">
<title>Node22</title>
<g id="a_node22"><a xlink:title=" ">
<polygon fill="#e0e0e0" stroke="#999999" points="112.5,-184 56.5,-184 56.5,-165 112.5,-165 112.5,-184"/>
<text text-anchor="middle" x="84.5" y="-172" font-family="Helvetica,sans-Serif" font-size="10.00">algorithm</text>
</a>
</g>
</g>
<!-- Node19&#45;&gt;Node22 -->
<g id="edge29" class="edge">
<title>Node19&#45;&gt;Node22</title>
<path fill="none" stroke="#63b8ff" d="M99.53,-219.75C97.27,-213.11 94.09,-203.73 91.23,-195.31"/>
<polygon fill="#63b8ff" stroke="#63b8ff" points="94.55,-194.22 88.02,-185.88 87.93,-196.47 94.55,-194.22"/>
</g>
<!-- Node20&#45;&gt;Node8 -->
<g id="edge26" class="edge">
<title>Node20&#45;&gt;Node8</title>
<path fill="none" stroke="#63b8ff" d="M163.01,-109.75C161.9,-103.19 160.33,-93.95 158.91,-85.6"/>
<polygon fill="#63b8ff" stroke="#63b8ff" points="162.4,-85.21 157.27,-75.93 155.5,-86.38 162.4,-85.21"/>
</g>
<!-- Node21&#45;&gt;Node18 -->
<g id="edge28" class="edge">
<title>Node21&#45;&gt;Node18</title>
<path fill="none" stroke="#63b8ff" d="M347.11,-164.51C398.72,-154.11 482.65,-137.2 530.03,-127.65"/>
<polygon fill="#63b8ff" stroke="#63b8ff" points="530.64,-131.09 539.76,-125.69 529.26,-124.23 530.64,-131.09"/>
</g>
<!-- Node23&#45;&gt;Node19 -->
<g id="edge34" class="edge">
<title>Node23&#45;&gt;Node19</title>
<path fill="none" stroke="#63b8ff" d="M218.75,-274.51C196.19,-265.97 162.03,-253.03 136.56,-243.4"/>
<polygon fill="#63b8ff" stroke="#63b8ff" points="137.91,-240.16 127.31,-239.89 135.43,-246.71 137.91,-240.16"/>
</g>
<!-- Node24 -->
<g id="node24" class="node">
<title>Node24</title>
<g id="a_node24"><a xlink:href="Shared__Attribute__Callback_8h.html" target="_top" xlink:title=" ">
<polygon fill="white" stroke="#666666" points="318.5,-239 178.5,-239 178.5,-220 318.5,-220 318.5,-239"/>
<text text-anchor="middle" x="248.5" y="-227" font-family="Helvetica,sans-Serif" font-size="10.00">Shared_Attribute_Callback.h</text>
</a>
</g>
</g>
<!-- Node23&#45;&gt;Node24 -->
<g id="edge31" class="edge">
<title>Node23&#45;&gt;Node24</title>
<path fill="none" stroke="#63b8ff" d="M243.49,-274.75C244.23,-268.19 245.28,-258.95 246.22,-250.6"/>
<polygon fill="#63b8ff" stroke="#63b8ff" points="249.67,-251.28 247.32,-240.95 242.71,-250.49 249.67,-251.28"/>
</g>
<!-- Node24&#45;&gt;Node5 -->
<g id="edge32" class="edge">
<title>Node24&#45;&gt;Node5</title>
<path fill="none" stroke="#63b8ff" d="M240.41,-219.75C233.64,-212.43 223.78,-201.76 215.44,-192.74"/>
<polygon fill="#63b8ff" stroke="#63b8ff" points="218.15,-190.52 208.79,-185.55 213.01,-195.27 218.15,-190.52"/>
</g>
<!-- Node24&#45;&gt;Node17 -->
<g id="edge33" class="edge">
<title>Node24&#45;&gt;Node17</title>
<path fill="none" stroke="#63b8ff" d="M275.64,-219.51C301.81,-210.84 341.64,-197.65 370.86,-187.97"/>
<polygon fill="#63b8ff" stroke="#63b8ff" points="371.66,-191.39 380.06,-184.92 369.46,-184.74 371.66,-191.39"/>
</g>
<!-- Node25&#45;&gt;Node4 -->
<g id="edge37" class="edge">
<title>Node25&#45;&gt;Node4</title>
<path fill="none" stroke="#63b8ff" d="M584.78,-274.51C553.66,-265.69 506,-252.18 471.7,-242.46"/>
<polygon fill="#63b8ff" stroke="#63b8ff" points="473.1,-239.22 462.52,-239.86 471.19,-245.95 473.1,-239.22"/>
</g>
<!-- Node25&#45;&gt;Node6 -->
<g id="edge36" class="edge">
<title>Node25&#45;&gt;Node6</title>
<path fill="none" stroke="#63b8ff" d="M658.41,-280.07C720.07,-274.35 831.49,-261.25 864.5,-239 892.16,-220.36 904.5,-208.85 904.5,-175.5 904.5,-175.5 904.5,-175.5 904.5,-118.5 904.5,-43.83 650.79,-19.94 539.16,-13.04"/>
<polygon fill="#63b8ff" stroke="#63b8ff" points="539.56,-9.56 529.37,-12.46 539.15,-16.55 539.56,-9.56"/>
</g>
<!-- Node25&#45;&gt;Node8 -->
<g id="edge52" class="edge">
<title>Node25&#45;&gt;Node8</title>
<path fill="none" stroke="#63b8ff" d="M574.63,-280.66C442.11,-271.62 40.23,-243.83 35.5,-239 -4.64,-197.97 -3.65,-156.86 29.5,-110 49.25,-82.08 88.04,-71.56 117.39,-67.66"/>
<polygon fill="#63b8ff" stroke="#63b8ff" points="117.45,-71.17 127.01,-66.59 116.69,-64.21 117.45,-71.17"/>
</g>
<!-- Node26 -->
<g id="node26" class="node">
<title>Node26</title>
<g id="a_node26"><a xlink:href="HashGenerator_8h.html" target="_top" xlink:title=" ">
<polygon fill="white" stroke="#666666" points="766.5,-184 676.5,-184 676.5,-165 766.5,-165 766.5,-184"/>
<text text-anchor="middle" x="721.5" y="-172" font-family="Helvetica,sans-Serif" font-size="10.00">HashGenerator.h</text>
</a>
</g>
</g>
<!-- Node25&#45;&gt;Node26 -->
<g id="edge38" class="edge">
<title>Node25&#45;&gt;Node26</title>
<path fill="none" stroke="#63b8ff" d="M658.3,-281.62C718.24,-277.94 823.97,-267.5 847.5,-239 871.32,-210.16 821.89,-193.13 778.12,-184.08"/>
<polygon fill="#63b8ff" stroke="#63b8ff" points="778.84,-180.66 768.36,-182.19 777.51,-187.53 778.84,-180.66"/>
</g>
<!-- Node29 -->
<g id="node29" class="node">
<title>Node29</title>
<g id="a_node29"><a xlink:href="OTA__Update__Callback_8h.html" target="_top" xlink:title=" ">
<polygon fill="white" stroke="#666666" points="626.5,-239 502.5,-239 502.5,-220 626.5,-220 626.5,-239"/>
<text text-anchor="middle" x="564.5" y="-227" font-family="Helvetica,sans-Serif" font-size="10.00">OTA_Update_Callback.h</text>
</a>
</g>
</g>
<!-- Node25&#45;&gt;Node29 -->
<g id="edge43" class="edge">
<title>Node25&#45;&gt;Node29</title>
<path fill="none" stroke="#63b8ff" d="M607.91,-274.75C600.66,-267.35 590.05,-256.54 581.13,-247.45"/>
<polygon fill="#63b8ff" stroke="#63b8ff" points="583.84,-245.21 574.33,-240.52 578.84,-250.11 583.84,-245.21"/>
</g>
<!-- Node31 -->
<g id="node31" class="node">
<title>Node31</title>
<g id="a_node31"><a xlink:href="OTA__Failure__Response_8h.html" target="_top" xlink:title=" ">
<polygon fill="white" stroke="#666666" points="838.5,-239 710.5,-239 710.5,-220 838.5,-220 838.5,-239"/>
<text text-anchor="middle" x="774.5" y="-227" font-family="Helvetica,sans-Serif" font-size="10.00">OTA_Failure_Response.h</text>
</a>
</g>
</g>
<!-- Node25&#45;&gt;Node31 -->
<g id="edge50" class="edge">
<title>Node25&#45;&gt;Node31</title>
<path fill="none" stroke="#63b8ff" d="M643.3,-274.51C669.03,-265.88 708.13,-252.76 736.95,-243.1"/>
<polygon fill="#63b8ff" stroke="#63b8ff" points="738.03,-246.43 746.4,-239.93 735.8,-239.79 738.03,-246.43"/>
</g>
<!-- Node32 -->
<g id="node32" class="node">
<title>Node32</title>
<g id="a_node32"><a xlink:title=" ">
<polygon fill="#e0e0e0" stroke="#999999" points="692.5,-239 644.5,-239 644.5,-220 692.5,-220 692.5,-239"/>
<text text-anchor="middle" x="668.5" y="-227" font-family="Helvetica,sans-Serif" font-size="10.00">string.h</text>
</a>
</g>
</g>
<!-- Node25&#45;&gt;Node32 -->
<g id="edge53" class="edge">
<title>Node25&#45;&gt;Node32</title>
<path fill="none" stroke="#63b8ff" d="M625.09,-274.75C632.34,-267.35 642.95,-256.54 651.87,-247.45"/>
<polygon fill="#63b8ff" stroke="#63b8ff" points="654.16,-250.11 658.67,-240.52 649.16,-245.21 654.16,-250.11"/>
</g>
<!-- Node26&#45;&gt;Node6 -->
<g id="edge39" class="edge">
<title>Node26&#45;&gt;Node6</title>
<path fill="none" stroke="#63b8ff" d="M715.83,-164.81C706.95,-151.7 688.67,-126.61 668.5,-110 621.89,-71.62 558.29,-40.68 520.22,-24"/>
<polygon fill="#63b8ff" stroke="#63b8ff" points="521.69,-20.82 511.12,-20.08 518.92,-27.25 521.69,-20.82"/>
</g>
<!-- Node26&#45;&gt;Node18 -->
<g id="edge41" class="edge">
<title>Node26&#45;&gt;Node18</title>
<path fill="none" stroke="#63b8ff" d="M695.04,-164.51C669.02,-155.67 629.16,-142.13 600.53,-132.4"/>
<polygon fill="#63b8ff" stroke="#63b8ff" points="601.81,-129.14 591.21,-129.24 599.56,-135.77 601.81,-129.14"/>
</g>
<!-- Node27 -->
<g id="node27" class="node">
<title>Node27</title>
<g id="a_node27"><a xlink:title=" ">
<polygon fill="#e0e0e0" stroke="#999999" points="807.5,-129 715.5,-129 715.5,-110 807.5,-110 807.5,-129"/>
<text text-anchor="middle" x="761.5" y="-117" font-family="Helvetica,sans-Serif" font-size="10.00">Seeed_mbedtls.h</text>
</a>
</g>
</g>
<!-- Node26&#45;&gt;Node27 -->
<g id="edge40" class="edge">
<title>Node26&#45;&gt;Node27</title>
<path fill="none" stroke="#63b8ff" d="M728.11,-164.75C733.46,-157.66 741.18,-147.42 747.85,-138.59"/>
<polygon fill="#63b8ff" stroke="#63b8ff" points="750.61,-140.74 753.84,-130.65 745.02,-136.52 750.61,-140.74"/>
</g>
<!-- Node28 -->
<g id="node28" class="node">
<title>Node28</title>
<g id="a_node28"><a xlink:title=" ">
<polygon fill="#e0e0e0" stroke="#999999" points="659,-129 608,-129 608,-110 659,-110 659,-129"/>
<text text-anchor="middle" x="633.5" y="-117" font-family="Helvetica,sans-Serif" font-size="10.00">stddef.h</text>
</a>
</g>
</g>
<!-- Node26&#45;&gt;Node28 -->
<g id="edge42" class="edge">
<title>Node26&#45;&gt;Node28</title>
<path fill="none" stroke="#63b8ff" d="M706.57,-164.51C693.22,-156.47 673.39,-144.53 657.76,-135.11"/>
<polygon fill="#63b8ff" stroke="#63b8ff" points="659.88,-132.3 649.5,-130.14 656.26,-138.3 659.88,-132.3"/>
</g>
<!-- Node29&#45;&gt;Node5 -->
<g id="edge44" class="edge">
<title>Node29&#45;&gt;Node5</title>
<path fill="none" stroke="#63b8ff" d="M502.22,-220.53C427.27,-210.84 304.6,-194.68 242.19,-184.33"/>
<polygon fill="#63b8ff" stroke="#63b8ff" points="242.84,-180.89 232.39,-182.65 241.66,-187.79 242.84,-180.89"/>
</g>
<!-- Node30 -->
<g id="node30" class="node">
<title>Node30</title>
<g id="a_node30"><a xlink:href="IUpdater_8h.html" target="_top" xlink:title=" ">
<polygon fill="white" stroke="#666666" points="620.5,-184 558.5,-184 558.5,-165 620.5,-165 620.5,-184"/>
<text text-anchor="middle" x="589.5" y="-172" font-family="Helvetica,sans-Serif" font-size="10.00">IUpdater.h</text>
</a>
</g>
</g>
<!-- Node29&#45;&gt;Node30 -->
<g id="edge45" class="edge">
<title>Node29&#45;&gt;Node30</title>
<path fill="none" stroke="#63b8ff" d="M568.63,-219.75C571.83,-212.96 576.39,-203.3 580.43,-194.73"/>
<polygon fill="#63b8ff" stroke="#63b8ff" points="583.54,-196.35 584.64,-185.81 577.2,-193.36 583.54,-196.35"/>
</g>
<!-- Node30&#45;&gt;Node6 -->
<g id="edge46" class="edge">
<title>Node30&#45;&gt;Node6</title>
<path fill="none" stroke="#63b8ff" d="M573.77,-164.57C561.09,-156.66 543.6,-144.05 532.5,-129 510.03,-98.53 497.44,-55.51 491.6,-30.56"/>
<polygon fill="#63b8ff" stroke="#63b8ff" points="495.02,-29.82 489.46,-20.8 488.18,-31.31 495.02,-29.82"/>
</g>
<!-- Node30&#45;&gt;Node18 -->
<g id="edge49" class="edge">
<title>Node30&#45;&gt;Node18</title>
<path fill="none" stroke="#63b8ff" d="M585.54,-164.75C582.46,-157.96 578.09,-148.3 574.21,-139.73"/>
<polygon fill="#63b8ff" stroke="#63b8ff" points="577.49,-138.49 570.17,-130.82 571.11,-141.37 577.49,-138.49"/>
</g>
<!-- Node30&#45;&gt;Node20 -->
<g id="edge47" class="edge">
<title>Node30&#45;&gt;Node20</title>
<path fill="none" stroke="#63b8ff" d="M558.11,-166.52C555.21,-165.96 552.3,-165.45 549.5,-165 406.09,-142.07 365.95,-148.67 218.59,-129.2"/>
<polygon fill="#63b8ff" stroke="#63b8ff" points="219.2,-125.75 208.82,-127.89 218.27,-132.69 219.2,-125.75"/>
</g>
<!-- Node30&#45;&gt;Node28 -->
<g id="edge48" class="edge">
<title>Node30&#45;&gt;Node28</title>
<path fill="none" stroke="#63b8ff" d="M596.77,-164.75C602.78,-157.5 611.51,-146.98 618.96,-138.02"/>
<polygon fill="#63b8ff" stroke="#63b8ff" points="621.42,-140.54 625.11,-130.61 616.03,-136.07 621.42,-140.54"/>
</g>
<!-- Node31&#45;&gt;Node18 -->
<g id="edge51" class="edge">
<title>Node31&#45;&gt;Node18</title>
<path fill="none" stroke="#63b8ff" d="M749.77,-219.53C727.74,-211.23 694.87,-198.09 667.5,-184 638.94,-169.3 607.84,-149.31 587.58,-135.71"/>
<polygon fill="#63b8ff" stroke="#63b8ff" points="589.8,-132.99 579.56,-130.27 585.87,-138.78 589.8,-132.99"/>
</g>
</g>
</svg>
        <g id="navigator" transform="translate(0 0)" fill="#404254">
                <rect fill="#f2f5e9" fill-opacity="0.5" stroke="#606060" stroke-width=".5" x="0" y="0" width="60" height="60"/>
                <use id="zoomplus" xlink:href="#zoomPlus" x="17" y="9" onmousedown="handleZoom(evt,'in')"/>
                <use id="zoomminus" xlink:href="#zoomMin" x="42" y="9" onmousedown="handleZoom(evt,'out')"/>
                <use id="reset" xlink:href="#resetDef" x="30" y="36" onmousedown="handleReset()"/>
                <g id="arrowUp" xlink:href="#dirArrow" transform="translate(30 24)" onmousedown="handlePan(0,-1)">
                  <use xlink:href="#rim" fill="#404040">
                        <set attributeName="fill" to="#808080" begin="arrowUp.mouseover" end="arrowUp.mouseout"/>
                  </use>
                  <path fill="none" stroke="white" stroke-width="1.5" d="M0,-3.0v7 M-2.5,-0.5L0,-3.0L2.5,-0.5"/>
                </g>
                <g id="arrowRight" xlink:href="#dirArrow" transform="rotate(90) translate(36 -43)" onmousedown="handlePan(1,0)">
                  <use xlink:href="#rim" fill="#404040">
                        <set attributeName="fill" to="#808080" begin="arrowRight.mouseover" end="arrowRight.mouseout"/>
                  </use>
                  <path fill="none" stroke="white" stroke-width="1.5" d="M0,-3.0v7 M-2.5,-0.5L0,-3.0L2.5,-0.5"/>
                </g>
                <g id="arrowDown" xlink:href="#dirArrow" transform="rotate(180) translate(-30 -48)" onmousedown="handlePan(0,1)">
                  <use xlink:href="#rim" fill="#404040">
                        <set attributeName="fill" to="#808080" begin="arrowDown.mouseover" end="arrowDown.mouseout"/>
                  </use>
                  <path fill="none" stroke="white" stroke-width="1.5" d="M0,-3.0v7 M-2.5,-0.5L0,-3.0L2.5,-0.5"/>
                </g>
                <g id="arrowLeft" xlink:href="#dirArrow" transform="rotate(270) translate(-36 17)" onmousedown="handlePan(-1,0)">
                  <use xlink:href="#rim" fill="#404040">
                        <set attributeName="fill" to="#808080" begin="arrowLeft.mouseover" end="arrowLeft.mouseout"/>
                  </use>
                  <path fill="none" stroke="white" stroke-width="1.5" d="M0,-3.0v7 M-2.5,-0.5L0,-3.0L2.5,-0.5"/>
                </g>
        </g>
        <svg viewBox="0 0 15 15" width="100%" height="30px" preserveAspectRatio="xMaxYMin meet">
         <g id="arrow_out" transform="scale(0.3 0.3)">
          <a xlink:href="OTA__Firmware__Update_8h__incl_org.svg" target="_base">
           <rect id="button" ry="5" rx="5" y="6" x="6" height="38" width="38"
                fill="#f2f5e9" fill-opacity="0.5" stroke="#606060" stroke-width="1.0"/>
           <path id="arrow"
             d="M 11.500037,31.436501 C 11.940474,20.09759 22.043105,11.32322 32.158766,21.979434 L 37.068811,17.246167 C 37.068811,17.246167 37.088388,32 37.088388,32 L 22.160133,31.978069 C 22.160133,31.978069 26.997745,27.140456 26.997745,27.140456 C 18.528582,18.264221 13.291696,25.230495 11.500037,31.436501 z"
             style="fill:#404040;"/>
          </a>
         </g>
        </svg>
</svg>
