<?xml version="1.0" encoding="UTF-8" standalone="no"?>
<!DOCTYPE svg PUBLIC "-//W3C//DTD SVG 1.1//EN"
 "http://www.w3.org/Graphics/SVG/1.1/DTD/svg11.dtd">
<!-- Generated by graphviz version 7.0.5 (20221223.1930)
 -->
<!-- Title: src/RPC_Request_Callback.h Pages: 1 -->
<svg width="517pt" height="357pt"
 viewBox="0.00 0.00 516.50 357.00" xmlns="http://www.w3.org/2000/svg" xmlns:xlink="http://www.w3.org/1999/xlink">
<g id="graph0" class="graph" transform="scale(1 1) rotate(0) translate(4 353)">
<title>src/RPC_Request_Callback.h</title>
<!-- Node1 -->
<g id="node1" class="node">
<title>Node1</title>
<g id="a_node1"><a xlink:title=" ">
<polygon fill="#999999" stroke="#666666" points="346.5,-349 201.5,-349 201.5,-330 346.5,-330 346.5,-349"/>
<text text-anchor="middle" x="274" y="-337" font-family="Helvetica,sans-Serif" font-size="10.00">src/RPC_Request_Callback.h</text>
</a>
</g>
</g>
<!-- Node2 -->
<g id="node2" class="node">
<title>Node2</title>
<g id="a_node2"><a xlink:href="Timeoutable__Request_8h.html" target="_top" xlink:title=" ">
<polygon fill="white" stroke="#666666" points="333.5,-294 214.5,-294 214.5,-275 333.5,-275 333.5,-294"/>
<text text-anchor="middle" x="274" y="-282" font-family="Helvetica,sans-Serif" font-size="10.00">Timeoutable_Request.h</text>
</a>
</g>
</g>
<!-- Node1&#45;&gt;Node2 -->
<g id="edge1" class="edge">
<title>Node1&#45;&gt;Node2</title>
<path fill="none" stroke="#63b8ff" d="M274,-329.75C274,-323.27 274,-314.16 274,-305.9"/>
<polygon fill="#63b8ff" stroke="#63b8ff" points="277.5,-305.96 274,-295.96 270.5,-305.96 277.5,-305.96"/>
</g>
<!-- Node3 -->
<g id="node3" class="node">
<title>Node3</title>
<g id="a_node3"><a xlink:href="Callback__Watchdog_8h.html" target="_top" xlink:title=" ">
<polygon fill="white" stroke="#666666" points="329,-239 219,-239 219,-220 329,-220 329,-239"/>
<text text-anchor="middle" x="274" y="-227" font-family="Helvetica,sans-Serif" font-size="10.00">Callback_Watchdog.h</text>
</a>
</g>
</g>
<!-- Node2&#45;&gt;Node3 -->
<g id="edge2" class="edge">
<title>Node2&#45;&gt;Node3</title>
<path fill="none" stroke="#63b8ff" d="M274,-274.75C274,-268.27 274,-259.16 274,-250.9"/>
<polygon fill="#63b8ff" stroke="#63b8ff" points="277.5,-250.96 274,-240.96 270.5,-250.96 277.5,-250.96"/>
</g>
<!-- Node4 -->
<g id="node4" class="node">
<title>Node4</title>
<g id="a_node4"><a xlink:href="Callback_8h.html" target="_top" xlink:title=" ">
<polygon fill="white" stroke="#666666" points="261,-184 199,-184 199,-165 261,-165 261,-184"/>
<text text-anchor="middle" x="230" y="-172" font-family="Helvetica,sans-Serif" font-size="10.00">Callback.h</text>
</a>
</g>
</g>
<!-- Node3&#45;&gt;Node4 -->
<g id="edge3" class="edge">
<title>Node3&#45;&gt;Node4</title>
<path fill="none" stroke="#63b8ff" d="M266.73,-219.75C260.72,-212.5 251.99,-201.98 244.54,-193.02"/>
<polygon fill="#63b8ff" stroke="#63b8ff" points="247.47,-191.07 238.39,-185.61 242.08,-195.54 247.47,-191.07"/>
</g>
<!-- Node16 -->
<g id="node16" class="node">
<title>Node16</title>
<g id="a_node16"><a xlink:title=" ">
<polygon fill="#e0e0e0" stroke="#999999" points="359,-184 279,-184 279,-165 359,-165 359,-184"/>
<text text-anchor="middle" x="319" y="-172" font-family="Helvetica,sans-Serif" font-size="10.00">arduino&#45;timer.h</text>
</a>
</g>
</g>
<!-- Node3&#45;&gt;Node16 -->
<g id="edge18" class="edge">
<title>Node3&#45;&gt;Node16</title>
<path fill="none" stroke="#63b8ff" d="M281.43,-219.75C287.58,-212.5 296.51,-201.98 304.13,-193.02"/>
<polygon fill="#63b8ff" stroke="#63b8ff" points="306.62,-195.48 310.43,-185.6 301.29,-190.95 306.62,-195.48"/>
</g>
<!-- Node5 -->
<g id="node5" class="node">
<title>Node5</title>
<g id="a_node5"><a xlink:href="Configuration_8h.html" target="_top" xlink:title=" ">
<polygon fill="white" stroke="#666666" points="80,-19 0,-19 0,0 80,0 80,-19"/>
<text text-anchor="middle" x="40" y="-7" font-family="Helvetica,sans-Serif" font-size="10.00">Configuration.h</text>
</a>
</g>
</g>
<!-- Node4&#45;&gt;Node5 -->
<g id="edge4" class="edge">
<title>Node4&#45;&gt;Node5</title>
<path fill="none" stroke="#63b8ff" d="M218.7,-164.81C207.29,-155.96 189.22,-141.77 174,-129 131.61,-93.46 83.34,-50.01 57.89,-26.86"/>
<polygon fill="#63b8ff" stroke="#63b8ff" points="60.47,-24.47 50.72,-20.32 55.75,-29.64 60.47,-24.47"/>
</g>
<!-- Node6 -->
<g id="node6" class="node">
<title>Node6</title>
<g id="a_node6"><a xlink:title=" ">
<polygon fill="#e0e0e0" stroke="#999999" points="176,-19 98,-19 98,0 176,0 176,-19"/>
<text text-anchor="middle" x="137" y="-7" font-family="Helvetica,sans-Serif" font-size="10.00">ArduinoJson.h</text>
</a>
</g>
</g>
<!-- Node4&#45;&gt;Node6 -->
<g id="edge5" class="edge">
<title>Node4&#45;&gt;Node6</title>
<path fill="none" stroke="#63b8ff" d="M219.95,-164.77C210.71,-156.34 197.1,-142.85 188,-129 166.85,-96.82 151.1,-54.41 143.04,-30.03"/>
<polygon fill="#63b8ff" stroke="#63b8ff" points="146.47,-29.25 140.09,-20.79 139.8,-31.38 146.47,-29.25"/>
</g>
<!-- Node7 -->
<g id="node7" class="node">
<title>Node7</title>
<g id="a_node7"><a xlink:title=" ">
<polygon fill="#e0e0e0" stroke="#999999" points="339.5,-129 280.5,-129 280.5,-110 339.5,-110 339.5,-129"/>
<text text-anchor="middle" x="310" y="-117" font-family="Helvetica,sans-Serif" font-size="10.00">functional</text>
</a>
</g>
</g>
<!-- Node4&#45;&gt;Node7 -->
<g id="edge6" class="edge">
<title>Node4&#45;&gt;Node7</title>
<path fill="none" stroke="#63b8ff" d="M243.57,-164.51C255.48,-156.62 273.05,-144.98 287.13,-135.65"/>
<polygon fill="#63b8ff" stroke="#63b8ff" points="288.96,-138.63 295.37,-130.19 285.1,-132.8 288.96,-138.63"/>
</g>
<!-- Node8 -->
<g id="node8" class="node">
<title>Node8</title>
<g id="a_node8"><a xlink:title=" ">
<polygon fill="#e0e0e0" stroke="#999999" points="402,-129 358,-129 358,-110 402,-110 402,-129"/>
<text text-anchor="middle" x="380" y="-117" font-family="Helvetica,sans-Serif" font-size="10.00">vector</text>
</a>
</g>
</g>
<!-- Node4&#45;&gt;Node8 -->
<g id="edge7" class="edge">
<title>Node4&#45;&gt;Node8</title>
<path fill="none" stroke="#63b8ff" d="M255.45,-164.51C280.72,-155.58 319.58,-141.85 347.16,-132.1"/>
<polygon fill="#63b8ff" stroke="#63b8ff" points="348.17,-135.46 356.43,-128.83 345.84,-128.86 348.17,-135.46"/>
</g>
<!-- Node9 -->
<g id="node9" class="node">
<title>Node9</title>
<g id="a_node9"><a xlink:href="Container_8h.html" target="_top" xlink:title=" ">
<polygon fill="white" stroke="#666666" points="262.5,-129 197.5,-129 197.5,-110 262.5,-110 262.5,-129"/>
<text text-anchor="middle" x="230" y="-117" font-family="Helvetica,sans-Serif" font-size="10.00">Container.h</text>
</a>
</g>
</g>
<!-- Node4&#45;&gt;Node9 -->
<g id="edge8" class="edge">
<title>Node4&#45;&gt;Node9</title>
<path fill="none" stroke="#63b8ff" d="M230,-164.75C230,-158.27 230,-149.16 230,-140.9"/>
<polygon fill="#63b8ff" stroke="#63b8ff" points="233.5,-140.96 230,-130.96 226.5,-140.96 233.5,-140.96"/>
</g>
<!-- Node10 -->
<g id="node10" class="node">
<title>Node10</title>
<g id="a_node10"><a xlink:href="Helper_8h.html" target="_top" xlink:title=" ">
<polygon fill="white" stroke="#666666" points="278.5,-74 225.5,-74 225.5,-55 278.5,-55 278.5,-74"/>
<text text-anchor="middle" x="252" y="-62" font-family="Helvetica,sans-Serif" font-size="10.00">Helper.h</text>
</a>
</g>
</g>
<!-- Node9&#45;&gt;Node10 -->
<g id="edge9" class="edge">
<title>Node9&#45;&gt;Node10</title>
<path fill="none" stroke="#63b8ff" d="M233.63,-109.75C236.42,-103.04 240.37,-93.52 243.9,-85.02"/>
<polygon fill="#63b8ff" stroke="#63b8ff" points="247.11,-86.42 247.71,-75.84 240.64,-83.73 247.11,-86.42"/>
</g>
<!-- Node13 -->
<g id="node13" class="node">
<title>Node13</title>
<g id="a_node13"><a xlink:title=" ">
<polygon fill="#e0e0e0" stroke="#999999" points="508.5,-19 457.5,-19 457.5,0 508.5,0 508.5,-19"/>
<text text-anchor="middle" x="483" y="-7" font-family="Helvetica,sans-Serif" font-size="10.00">assert.h</text>
</a>
</g>
</g>
<!-- Node9&#45;&gt;Node13 -->
<g id="edge17" class="edge">
<title>Node9&#45;&gt;Node13</title>
<path fill="none" stroke="#63b8ff" d="M250.7,-109.66C295,-90.75 399.17,-46.29 451.64,-23.89"/>
<polygon fill="#63b8ff" stroke="#63b8ff" points="452.79,-27.2 460.62,-20.05 450.05,-20.76 452.79,-27.2"/>
</g>
<!-- Node10&#45;&gt;Node5 -->
<g id="edge10" class="edge">
<title>Node10&#45;&gt;Node5</title>
<path fill="none" stroke="#63b8ff" d="M225.15,-56.79C190.38,-48.09 129.2,-32.8 86.73,-22.18"/>
<polygon fill="#63b8ff" stroke="#63b8ff" points="87.84,-18.85 77.29,-19.82 86.14,-25.64 87.84,-18.85"/>
</g>
<!-- Node10&#45;&gt;Node6 -->
<g id="edge11" class="edge">
<title>Node10&#45;&gt;Node6</title>
<path fill="none" stroke="#63b8ff" d="M232.49,-54.51C214.37,-46.16 187.15,-33.61 166.4,-24.05"/>
<polygon fill="#63b8ff" stroke="#63b8ff" points="168.14,-21 157.59,-19.99 165.21,-27.36 168.14,-21"/>
</g>
<!-- Node11 -->
<g id="node11" class="node">
<title>Node11</title>
<g id="a_node11"><a xlink:title=" ">
<polygon fill="#e0e0e0" stroke="#999999" points="439.5,-19 392.5,-19 392.5,0 439.5,0 439.5,-19"/>
<text text-anchor="middle" x="416" y="-7" font-family="Helvetica,sans-Serif" font-size="10.00">iterator</text>
</a>
</g>
</g>
<!-- Node10&#45;&gt;Node11 -->
<g id="edge12" class="edge">
<title>Node10&#45;&gt;Node11</title>
<path fill="none" stroke="#63b8ff" d="M278.71,-54.87C306.76,-45.8 350.97,-31.52 381.61,-21.61"/>
<polygon fill="#63b8ff" stroke="#63b8ff" points="382.35,-25.05 390.79,-18.65 380.2,-18.39 382.35,-25.05"/>
</g>
<!-- Node12 -->
<g id="node12" class="node">
<title>Node12</title>
<g id="a_node12"><a xlink:title=" ">
<polygon fill="#e0e0e0" stroke="#999999" points="242,-19 194,-19 194,0 242,0 242,-19"/>
<text text-anchor="middle" x="218" y="-7" font-family="Helvetica,sans-Serif" font-size="10.00">stdint.h</text>
</a>
</g>
</g>
<!-- Node10&#45;&gt;Node12 -->
<g id="edge13" class="edge">
<title>Node10&#45;&gt;Node12</title>
<path fill="none" stroke="#63b8ff" d="M246.39,-54.75C241.88,-47.73 235.41,-37.64 229.79,-28.87"/>
<polygon fill="#63b8ff" stroke="#63b8ff" points="232.9,-27.24 224.55,-20.72 227.01,-31.02 232.9,-27.24"/>
</g>
<!-- Node10&#45;&gt;Node13 -->
<g id="edge14" class="edge">
<title>Node10&#45;&gt;Node13</title>
<path fill="none" stroke="#63b8ff" d="M278.81,-57.65C314.76,-49.76 380.83,-35.1 446.13,-19.65"/>
<polygon fill="#63b8ff" stroke="#63b8ff" points="446.63,-23.12 455.55,-17.41 445.02,-16.31 446.63,-23.12"/>
</g>
<!-- Node14 -->
<g id="node14" class="node">
<title>Node14</title>
<g id="a_node14"><a xlink:title=" ">
<polygon fill="#e0e0e0" stroke="#999999" points="311.5,-19 260.5,-19 260.5,0 311.5,0 311.5,-19"/>
<text text-anchor="middle" x="286" y="-7" font-family="Helvetica,sans-Serif" font-size="10.00">stdarg.h</text>
</a>
</g>
</g>
<!-- Node10&#45;&gt;Node14 -->
<g id="edge15" class="edge">
<title>Node10&#45;&gt;Node14</title>
<path fill="none" stroke="#63b8ff" d="M257.61,-54.75C262.12,-47.73 268.59,-37.64 274.21,-28.87"/>
<polygon fill="#63b8ff" stroke="#63b8ff" points="276.99,-31.02 279.45,-20.72 271.1,-27.24 276.99,-31.02"/>
</g>
<!-- Node15 -->
<g id="node15" class="node">
<title>Node15</title>
<g id="a_node15"><a xlink:title=" ">
<polygon fill="#e0e0e0" stroke="#999999" points="374.5,-19 329.5,-19 329.5,0 374.5,0 374.5,-19"/>
<text text-anchor="middle" x="352" y="-7" font-family="Helvetica,sans-Serif" font-size="10.00">stdio.h</text>
</a>
</g>
</g>
<!-- Node10&#45;&gt;Node15 -->
<g id="edge16" class="edge">
<title>Node10&#45;&gt;Node15</title>
<path fill="none" stroke="#63b8ff" d="M268.96,-54.51C284.36,-46.35 307.31,-34.19 325.19,-24.71"/>
<polygon fill="#63b8ff" stroke="#63b8ff" points="326.75,-27.84 333.95,-20.07 323.47,-21.66 326.75,-27.84"/>
</g>
</g>
</svg>
