<?xml version="1.0" encoding="UTF-8" standalone="no"?>
<!DOCTYPE svg PUBLIC "-//W3C//DTD SVG 1.1//EN"
 "http://www.w3.org/Graphics/SVG/1.1/DTD/svg11.dtd">
<!-- Generated by graphviz version 7.0.5 (20221223.1930)
 -->
<!-- Title: src/RPC_Callback.h Pages: 1 -->
<svg width="517pt" height="247pt"
 viewBox="0.00 0.00 517.00 247.00" xmlns="http://www.w3.org/2000/svg" xmlns:xlink="http://www.w3.org/1999/xlink">
<g id="graph0" class="graph" transform="scale(1 1) rotate(0) translate(4 243)">
<title>src/RPC_Callback.h</title>
<!-- Node1 -->
<g id="node1" class="node">
<title>Node1</title>
<g id="a_node1"><a xlink:title=" ">
<polygon fill="#999999" stroke="#666666" points="179,-239 75,-239 75,-220 179,-220 179,-239"/>
<text text-anchor="middle" x="127" y="-227" font-family="Helvetica,sans-Serif" font-size="10.00">src/RPC_Callback.h</text>
</a>
</g>
</g>
<!-- Node2 -->
<g id="node2" class="node">
<title>Node2</title>
<g id="a_node2"><a xlink:href="Callback_8h.html" target="_top" xlink:title=" ">
<polygon fill="white" stroke="#666666" points="247,-184 185,-184 185,-165 247,-165 247,-184"/>
<text text-anchor="middle" x="216" y="-172" font-family="Helvetica,sans-Serif" font-size="10.00">Callback.h</text>
</a>
</g>
</g>
<!-- Node1&#45;&gt;Node2 -->
<g id="edge1" class="edge">
<title>Node1&#45;&gt;Node2</title>
<path fill="none" stroke="#63b8ff" d="M142.1,-219.51C155.6,-211.47 175.65,-199.53 191.46,-190.11"/>
<polygon fill="#63b8ff" stroke="#63b8ff" points="193.02,-193.26 199.82,-185.13 189.44,-187.24 193.02,-193.26"/>
</g>
<!-- Node14 -->
<g id="node14" class="node">
<title>Node14</title>
<g id="a_node14"><a xlink:href="Constants_8h.html" target="_top" xlink:title=" ">
<polygon fill="white" stroke="#666666" points="97,-74 29,-74 29,-55 97,-55 97,-74"/>
<text text-anchor="middle" x="63" y="-62" font-family="Helvetica,sans-Serif" font-size="10.00">Constants.h</text>
</a>
</g>
</g>
<!-- Node1&#45;&gt;Node14 -->
<g id="edge16" class="edge">
<title>Node1&#45;&gt;Node14</title>
<path fill="none" stroke="#63b8ff" d="M122.49,-219.62C113.88,-202.42 94.81,-163.27 82,-129 76.62,-114.61 71.69,-97.96 68.19,-85.32"/>
<polygon fill="#63b8ff" stroke="#63b8ff" points="71.59,-84.46 65.61,-75.71 64.83,-86.28 71.59,-84.46"/>
</g>
<!-- Node3 -->
<g id="node3" class="node">
<title>Node3</title>
<g id="a_node3"><a xlink:href="Configuration_8h.html" target="_top" xlink:title=" ">
<polygon fill="white" stroke="#666666" points="80,-19 0,-19 0,0 80,0 80,-19"/>
<text text-anchor="middle" x="40" y="-7" font-family="Helvetica,sans-Serif" font-size="10.00">Configuration.h</text>
</a>
</g>
</g>
<!-- Node2&#45;&gt;Node3 -->
<g id="edge2" class="edge">
<title>Node2&#45;&gt;Node3</title>
<path fill="none" stroke="#63b8ff" d="M219.96,-164.57C225.07,-151.57 232.17,-127.14 222,-110 193.78,-62.41 133.89,-36.11 90.5,-22.68"/>
<polygon fill="#63b8ff" stroke="#63b8ff" points="91.61,-19.36 81.03,-19.89 89.63,-26.07 91.61,-19.36"/>
</g>
<!-- Node4 -->
<g id="node4" class="node">
<title>Node4</title>
<g id="a_node4"><a xlink:title=" ">
<polygon fill="#e0e0e0" stroke="#999999" points="509,-19 431,-19 431,0 509,0 509,-19"/>
<text text-anchor="middle" x="470" y="-7" font-family="Helvetica,sans-Serif" font-size="10.00">ArduinoJson.h</text>
</a>
</g>
</g>
<!-- Node2&#45;&gt;Node4 -->
<g id="edge3" class="edge">
<title>Node2&#45;&gt;Node4</title>
<path fill="none" stroke="#63b8ff" d="M247.33,-166.54C274.28,-159.66 313.51,-147.47 344,-129 390.46,-100.86 434.17,-53.32 455.82,-27.85"/>
<polygon fill="#63b8ff" stroke="#63b8ff" points="458.31,-30.33 462.03,-20.41 452.94,-25.85 458.31,-30.33"/>
</g>
<!-- Node5 -->
<g id="node5" class="node">
<title>Node5</title>
<g id="a_node5"><a xlink:title=" ">
<polygon fill="#e0e0e0" stroke="#999999" points="150.5,-129 91.5,-129 91.5,-110 150.5,-110 150.5,-129"/>
<text text-anchor="middle" x="121" y="-117" font-family="Helvetica,sans-Serif" font-size="10.00">functional</text>
</a>
</g>
</g>
<!-- Node2&#45;&gt;Node5 -->
<g id="edge4" class="edge">
<title>Node2&#45;&gt;Node5</title>
<path fill="none" stroke="#63b8ff" d="M199.88,-164.51C185.33,-156.39 163.66,-144.3 146.71,-134.85"/>
<polygon fill="#63b8ff" stroke="#63b8ff" points="148.64,-131.91 138.2,-130.1 145.23,-138.02 148.64,-131.91"/>
</g>
<!-- Node6 -->
<g id="node6" class="node">
<title>Node6</title>
<g id="a_node6"><a xlink:title=" ">
<polygon fill="#e0e0e0" stroke="#999999" points="213,-129 169,-129 169,-110 213,-110 213,-129"/>
<text text-anchor="middle" x="191" y="-117" font-family="Helvetica,sans-Serif" font-size="10.00">vector</text>
</a>
</g>
</g>
<!-- Node2&#45;&gt;Node6 -->
<g id="edge5" class="edge">
<title>Node2&#45;&gt;Node6</title>
<path fill="none" stroke="#63b8ff" d="M211.87,-164.75C208.67,-157.96 204.11,-148.3 200.07,-139.73"/>
<polygon fill="#63b8ff" stroke="#63b8ff" points="203.3,-138.36 195.86,-130.81 196.96,-141.35 203.3,-138.36"/>
</g>
<!-- Node7 -->
<g id="node7" class="node">
<title>Node7</title>
<g id="a_node7"><a xlink:href="Container_8h.html" target="_top" xlink:title=" ">
<polygon fill="white" stroke="#666666" points="334.5,-129 269.5,-129 269.5,-110 334.5,-110 334.5,-129"/>
<text text-anchor="middle" x="302" y="-117" font-family="Helvetica,sans-Serif" font-size="10.00">Container.h</text>
</a>
</g>
</g>
<!-- Node2&#45;&gt;Node7 -->
<g id="edge6" class="edge">
<title>Node2&#45;&gt;Node7</title>
<path fill="none" stroke="#63b8ff" d="M230.59,-164.51C243.52,-156.54 262.64,-144.75 277.85,-135.38"/>
<polygon fill="#63b8ff" stroke="#63b8ff" points="279.66,-138.38 286.34,-130.15 275.99,-132.42 279.66,-138.38"/>
</g>
<!-- Node8 -->
<g id="node8" class="node">
<title>Node8</title>
<g id="a_node8"><a xlink:href="Helper_8h.html" target="_top" xlink:title=" ">
<polygon fill="white" stroke="#666666" points="325.5,-74 272.5,-74 272.5,-55 325.5,-55 325.5,-74"/>
<text text-anchor="middle" x="299" y="-62" font-family="Helvetica,sans-Serif" font-size="10.00">Helper.h</text>
</a>
</g>
</g>
<!-- Node7&#45;&gt;Node8 -->
<g id="edge7" class="edge">
<title>Node7&#45;&gt;Node8</title>
<path fill="none" stroke="#63b8ff" d="M301.5,-109.75C301.14,-103.27 300.62,-94.16 300.15,-85.9"/>
<polygon fill="#63b8ff" stroke="#63b8ff" points="303.65,-85.74 299.59,-75.95 296.66,-86.13 303.65,-85.74"/>
</g>
<!-- Node11 -->
<g id="node11" class="node">
<title>Node11</title>
<g id="a_node11"><a xlink:title=" ">
<polygon fill="#e0e0e0" stroke="#999999" points="412.5,-19 361.5,-19 361.5,0 412.5,0 412.5,-19"/>
<text text-anchor="middle" x="387" y="-7" font-family="Helvetica,sans-Serif" font-size="10.00">assert.h</text>
</a>
</g>
</g>
<!-- Node7&#45;&gt;Node11 -->
<g id="edge15" class="edge">
<title>Node7&#45;&gt;Node11</title>
<path fill="none" stroke="#63b8ff" d="M308.96,-109.66C322.9,-91.94 354.52,-51.77 372.95,-28.35"/>
<polygon fill="#63b8ff" stroke="#63b8ff" points="375.58,-30.67 379.01,-20.65 370.08,-26.34 375.58,-30.67"/>
</g>
<!-- Node8&#45;&gt;Node3 -->
<g id="edge8" class="edge">
<title>Node8&#45;&gt;Node3</title>
<path fill="none" stroke="#63b8ff" d="M272.26,-58.03C229.66,-49.31 145.68,-32.12 91.23,-20.98"/>
<polygon fill="#63b8ff" stroke="#63b8ff" points="92.07,-17.58 81.57,-19.01 90.66,-24.44 92.07,-17.58"/>
</g>
<!-- Node8&#45;&gt;Node4 -->
<g id="edge9" class="edge">
<title>Node8&#45;&gt;Node4</title>
<path fill="none" stroke="#63b8ff" d="M325.72,-55.22C353.78,-46.52 398.23,-32.75 430.37,-22.78"/>
<polygon fill="#63b8ff" stroke="#63b8ff" points="431.22,-26.18 439.74,-19.88 429.15,-19.5 431.22,-26.18"/>
</g>
<!-- Node9 -->
<g id="node9" class="node">
<title>Node9</title>
<g id="a_node9"><a xlink:title=" ">
<polygon fill="#e0e0e0" stroke="#999999" points="343.5,-19 296.5,-19 296.5,0 343.5,0 343.5,-19"/>
<text text-anchor="middle" x="320" y="-7" font-family="Helvetica,sans-Serif" font-size="10.00">iterator</text>
</a>
</g>
</g>
<!-- Node8&#45;&gt;Node9 -->
<g id="edge10" class="edge">
<title>Node8&#45;&gt;Node9</title>
<path fill="none" stroke="#63b8ff" d="M302.47,-54.75C305.13,-48.04 308.9,-38.52 312.26,-30.02"/>
<polygon fill="#63b8ff" stroke="#63b8ff" points="315.47,-31.44 315.9,-20.85 308.96,-28.86 315.47,-31.44"/>
</g>
<!-- Node10 -->
<g id="node10" class="node">
<title>Node10</title>
<g id="a_node10"><a xlink:title=" ">
<polygon fill="#e0e0e0" stroke="#999999" points="146,-19 98,-19 98,0 146,0 146,-19"/>
<text text-anchor="middle" x="122" y="-7" font-family="Helvetica,sans-Serif" font-size="10.00">stdint.h</text>
</a>
</g>
</g>
<!-- Node8&#45;&gt;Node10 -->
<g id="edge11" class="edge">
<title>Node8&#45;&gt;Node10</title>
<path fill="none" stroke="#63b8ff" d="M272.12,-55.45C241.36,-46.24 190.89,-31.13 157.06,-21"/>
<polygon fill="#63b8ff" stroke="#63b8ff" points="158.32,-17.72 147.73,-18.21 156.31,-24.43 158.32,-17.72"/>
</g>
<!-- Node8&#45;&gt;Node11 -->
<g id="edge12" class="edge">
<title>Node8&#45;&gt;Node11</title>
<path fill="none" stroke="#63b8ff" d="M313.93,-54.51C327.28,-46.47 347.11,-34.53 362.74,-25.11"/>
<polygon fill="#63b8ff" stroke="#63b8ff" points="364.24,-28.3 371,-20.14 360.62,-22.3 364.24,-28.3"/>
</g>
<!-- Node12 -->
<g id="node12" class="node">
<title>Node12</title>
<g id="a_node12"><a xlink:title=" ">
<polygon fill="#e0e0e0" stroke="#999999" points="215.5,-19 164.5,-19 164.5,0 215.5,0 215.5,-19"/>
<text text-anchor="middle" x="190" y="-7" font-family="Helvetica,sans-Serif" font-size="10.00">stdarg.h</text>
</a>
</g>
</g>
<!-- Node8&#45;&gt;Node12 -->
<g id="edge13" class="edge">
<title>Node8&#45;&gt;Node12</title>
<path fill="none" stroke="#63b8ff" d="M280.51,-54.51C263.5,-46.24 238.01,-33.84 218.41,-24.31"/>
<polygon fill="#63b8ff" stroke="#63b8ff" points="220.1,-21.25 209.58,-20.02 217.04,-27.54 220.1,-21.25"/>
</g>
<!-- Node13 -->
<g id="node13" class="node">
<title>Node13</title>
<g id="a_node13"><a xlink:title=" ">
<polygon fill="#e0e0e0" stroke="#999999" points="278.5,-19 233.5,-19 233.5,0 278.5,0 278.5,-19"/>
<text text-anchor="middle" x="256" y="-7" font-family="Helvetica,sans-Serif" font-size="10.00">stdio.h</text>
</a>
</g>
</g>
<!-- Node8&#45;&gt;Node13 -->
<g id="edge14" class="edge">
<title>Node8&#45;&gt;Node13</title>
<path fill="none" stroke="#63b8ff" d="M291.9,-54.75C286.08,-47.58 277.67,-37.2 270.44,-28.3"/>
<polygon fill="#63b8ff" stroke="#63b8ff" points="273.23,-26.18 264.21,-20.62 267.79,-30.59 273.23,-26.18"/>
</g>
<!-- Node14&#45;&gt;Node3 -->
<g id="edge17" class="edge">
<title>Node14&#45;&gt;Node3</title>
<path fill="none" stroke="#63b8ff" d="M59.2,-54.75C56.26,-47.96 52.06,-38.3 48.35,-29.73"/>
<polygon fill="#63b8ff" stroke="#63b8ff" points="51.67,-28.61 44.48,-20.83 45.25,-31.4 51.67,-28.61"/>
</g>
<!-- Node14&#45;&gt;Node10 -->
<g id="edge18" class="edge">
<title>Node14&#45;&gt;Node10</title>
<path fill="none" stroke="#63b8ff" d="M73.01,-54.51C81.37,-47 93.5,-36.1 103.6,-27.03"/>
<polygon fill="#63b8ff" stroke="#63b8ff" points="105.91,-29.66 111.01,-20.37 101.24,-24.45 105.91,-29.66"/>
</g>
</g>
</svg>
