<?xml version="1.0" encoding="UTF-8" standalone="no"?>
<!DOCTYPE svg PUBLIC "-//W3C//DTD SVG 1.1//EN"
 "http://www.w3.org/Graphics/SVG/1.1/DTD/svg11.dtd">
<!-- Generated by graphviz version 7.0.5 (20221223.1930)
 -->
<!-- Title: src/SDCard_Updater.h Pages: 1 -->
<svg width="517pt" height="247pt"
 viewBox="0.00 0.00 517.00 247.00" xmlns="http://www.w3.org/2000/svg" xmlns:xlink="http://www.w3.org/1999/xlink">
<g id="graph0" class="graph" transform="scale(1 1) rotate(0) translate(4 243)">
<title>src/SDCard_Updater.h</title>
<!-- Node1 -->
<g id="node1" class="node">
<title>Node1</title>
<g id="a_node1"><a xlink:title=" ">
<polygon fill="#999999" stroke="#666666" points="206,-239 92,-239 92,-220 206,-220 206,-239"/>
<text text-anchor="middle" x="149" y="-227" font-family="Helvetica,sans-Serif" font-size="10.00">src/SDCard_Updater.h</text>
</a>
</g>
</g>
<!-- Node2 -->
<g id="node2" class="node">
<title>Node2</title>
<g id="a_node2"><a xlink:href="Configuration_8h.html" target="_top" xlink:title=" ">
<polygon fill="white" stroke="#666666" points="80,-19 0,-19 0,0 80,0 80,-19"/>
<text text-anchor="middle" x="40" y="-7" font-family="Helvetica,sans-Serif" font-size="10.00">Configuration.h</text>
</a>
</g>
</g>
<!-- Node1&#45;&gt;Node2 -->
<g id="edge1" class="edge">
<title>Node1&#45;&gt;Node2</title>
<path fill="none" stroke="#63b8ff" d="M144.59,-219.68C128.4,-187.3 71.96,-74.42 49.41,-29.33"/>
<polygon fill="#63b8ff" stroke="#63b8ff" points="52.62,-27.92 45.02,-20.54 46.36,-31.05 52.62,-27.92"/>
</g>
<!-- Node3 -->
<g id="node3" class="node">
<title>Node3</title>
<g id="a_node3"><a xlink:href="IUpdater_8h.html" target="_top" xlink:title=" ">
<polygon fill="white" stroke="#666666" points="274,-184 212,-184 212,-165 274,-165 274,-184"/>
<text text-anchor="middle" x="243" y="-172" font-family="Helvetica,sans-Serif" font-size="10.00">IUpdater.h</text>
</a>
</g>
</g>
<!-- Node1&#45;&gt;Node3 -->
<g id="edge2" class="edge">
<title>Node1&#45;&gt;Node3</title>
<path fill="none" stroke="#63b8ff" d="M164.95,-219.51C179.35,-211.39 200.79,-199.3 217.56,-189.85"/>
<polygon fill="#63b8ff" stroke="#63b8ff" points="218.98,-193.06 225.97,-185.1 215.54,-186.96 218.98,-193.06"/>
</g>
<!-- Node3&#45;&gt;Node2 -->
<g id="edge3" class="edge">
<title>Node3&#45;&gt;Node2</title>
<path fill="none" stroke="#63b8ff" d="M232.57,-164.71C222.02,-155.8 205.28,-141.55 191,-129 154.13,-96.59 147.98,-84.84 109,-55 94.93,-44.23 78.26,-33.42 64.82,-25.16"/>
<polygon fill="#63b8ff" stroke="#63b8ff" points="66.94,-22.35 56.57,-20.16 63.31,-28.34 66.94,-22.35"/>
</g>
<!-- Node4 -->
<g id="node4" class="node">
<title>Node4</title>
<g id="a_node4"><a xlink:href="DefaultLogger_8h.html" target="_top" xlink:title=" ">
<polygon fill="white" stroke="#666666" points="285.5,-129 200.5,-129 200.5,-110 285.5,-110 285.5,-129"/>
<text text-anchor="middle" x="243" y="-117" font-family="Helvetica,sans-Serif" font-size="10.00">DefaultLogger.h</text>
</a>
</g>
</g>
<!-- Node3&#45;&gt;Node4 -->
<g id="edge4" class="edge">
<title>Node3&#45;&gt;Node4</title>
<path fill="none" stroke="#63b8ff" d="M243,-164.75C243,-158.27 243,-149.16 243,-140.9"/>
<polygon fill="#63b8ff" stroke="#63b8ff" points="246.5,-140.96 243,-130.96 239.5,-140.96 246.5,-140.96"/>
</g>
<!-- Node8 -->
<g id="node8" class="node">
<title>Node8</title>
<g id="a_node8"><a xlink:title=" ">
<polygon fill="#e0e0e0" stroke="#999999" points="509,-19 461,-19 461,0 509,0 509,-19"/>
<text text-anchor="middle" x="485" y="-7" font-family="Helvetica,sans-Serif" font-size="10.00">stdint.h</text>
</a>
</g>
</g>
<!-- Node3&#45;&gt;Node8 -->
<g id="edge14" class="edge">
<title>Node3&#45;&gt;Node8</title>
<path fill="none" stroke="#63b8ff" d="M255.59,-164.56C273.08,-152.17 305.78,-129.14 334,-110 378.86,-79.58 431.89,-44.94 461.67,-25.6"/>
<polygon fill="#63b8ff" stroke="#63b8ff" points="463.42,-28.63 469.91,-20.26 459.61,-22.76 463.42,-28.63"/>
</g>
<!-- Node12 -->
<g id="node12" class="node">
<title>Node12</title>
<g id="a_node12"><a xlink:title=" ">
<polygon fill="#e0e0e0" stroke="#999999" points="393.5,-129 342.5,-129 342.5,-110 393.5,-110 393.5,-129"/>
<text text-anchor="middle" x="368" y="-117" font-family="Helvetica,sans-Serif" font-size="10.00">stddef.h</text>
</a>
</g>
</g>
<!-- Node3&#45;&gt;Node12 -->
<g id="edge13" class="edge">
<title>Node3&#45;&gt;Node12</title>
<path fill="none" stroke="#63b8ff" d="M264.2,-164.51C284.08,-156.08 314.03,-143.38 336.66,-133.79"/>
<polygon fill="#63b8ff" stroke="#63b8ff" points="337.87,-137.07 345.72,-129.95 335.14,-130.63 337.87,-137.07"/>
</g>
<!-- Node5 -->
<g id="node5" class="node">
<title>Node5</title>
<g id="a_node5"><a xlink:href="Helper_8h.html" target="_top" xlink:title=" ">
<polygon fill="white" stroke="#666666" points="277.5,-74 224.5,-74 224.5,-55 277.5,-55 277.5,-74"/>
<text text-anchor="middle" x="251" y="-62" font-family="Helvetica,sans-Serif" font-size="10.00">Helper.h</text>
</a>
</g>
</g>
<!-- Node4&#45;&gt;Node5 -->
<g id="edge5" class="edge">
<title>Node4&#45;&gt;Node5</title>
<path fill="none" stroke="#63b8ff" d="M244.32,-109.75C245.31,-103.19 246.71,-93.95 247.97,-85.6"/>
<polygon fill="#63b8ff" stroke="#63b8ff" points="251.39,-86.35 249.42,-75.94 244.47,-85.3 251.39,-86.35"/>
</g>
<!-- Node5&#45;&gt;Node2 -->
<g id="edge6" class="edge">
<title>Node5&#45;&gt;Node2</title>
<path fill="none" stroke="#63b8ff" d="M224.28,-56.79C189.74,-48.11 129.03,-32.86 86.78,-22.25"/>
<polygon fill="#63b8ff" stroke="#63b8ff" points="87.67,-18.87 77.12,-19.82 85.97,-25.65 87.67,-18.87"/>
</g>
<!-- Node6 -->
<g id="node6" class="node">
<title>Node6</title>
<g id="a_node6"><a xlink:title=" ">
<polygon fill="#e0e0e0" stroke="#999999" points="176,-19 98,-19 98,0 176,0 176,-19"/>
<text text-anchor="middle" x="137" y="-7" font-family="Helvetica,sans-Serif" font-size="10.00">ArduinoJson.h</text>
</a>
</g>
</g>
<!-- Node5&#45;&gt;Node6 -->
<g id="edge7" class="edge">
<title>Node5&#45;&gt;Node6</title>
<path fill="none" stroke="#63b8ff" d="M231.66,-54.51C213.78,-46.2 186.96,-33.73 166.43,-24.18"/>
<polygon fill="#63b8ff" stroke="#63b8ff" points="167.97,-21.04 157.43,-20 165.02,-27.39 167.97,-21.04"/>
</g>
<!-- Node7 -->
<g id="node7" class="node">
<title>Node7</title>
<g id="a_node7"><a xlink:title=" ">
<polygon fill="#e0e0e0" stroke="#999999" points="241.5,-19 194.5,-19 194.5,0 241.5,0 241.5,-19"/>
<text text-anchor="middle" x="218" y="-7" font-family="Helvetica,sans-Serif" font-size="10.00">iterator</text>
</a>
</g>
</g>
<!-- Node5&#45;&gt;Node7 -->
<g id="edge8" class="edge">
<title>Node5&#45;&gt;Node7</title>
<path fill="none" stroke="#63b8ff" d="M245.55,-54.75C241.23,-47.81 235.04,-37.86 229.62,-29.16"/>
<polygon fill="#63b8ff" stroke="#63b8ff" points="232.62,-27.37 224.37,-20.73 226.68,-31.07 232.62,-27.37"/>
</g>
<!-- Node5&#45;&gt;Node8 -->
<g id="edge9" class="edge">
<title>Node5&#45;&gt;Node8</title>
<path fill="none" stroke="#63b8ff" d="M277.73,-57.89C314.34,-50.13 382.41,-35.48 449.72,-19.48"/>
<polygon fill="#63b8ff" stroke="#63b8ff" points="450.13,-22.99 459.04,-17.26 448.5,-16.18 450.13,-22.99"/>
</g>
<!-- Node9 -->
<g id="node9" class="node">
<title>Node9</title>
<g id="a_node9"><a xlink:title=" ">
<polygon fill="#e0e0e0" stroke="#999999" points="310.5,-19 259.5,-19 259.5,0 310.5,0 310.5,-19"/>
<text text-anchor="middle" x="285" y="-7" font-family="Helvetica,sans-Serif" font-size="10.00">assert.h</text>
</a>
</g>
</g>
<!-- Node5&#45;&gt;Node9 -->
<g id="edge10" class="edge">
<title>Node5&#45;&gt;Node9</title>
<path fill="none" stroke="#63b8ff" d="M256.61,-54.75C261.12,-47.73 267.59,-37.64 273.21,-28.87"/>
<polygon fill="#63b8ff" stroke="#63b8ff" points="275.99,-31.02 278.45,-20.72 270.1,-27.24 275.99,-31.02"/>
</g>
<!-- Node10 -->
<g id="node10" class="node">
<title>Node10</title>
<g id="a_node10"><a xlink:title=" ">
<polygon fill="#e0e0e0" stroke="#999999" points="379.5,-19 328.5,-19 328.5,0 379.5,0 379.5,-19"/>
<text text-anchor="middle" x="354" y="-7" font-family="Helvetica,sans-Serif" font-size="10.00">stdarg.h</text>
</a>
</g>
</g>
<!-- Node5&#45;&gt;Node10 -->
<g id="edge11" class="edge">
<title>Node5&#45;&gt;Node10</title>
<path fill="none" stroke="#63b8ff" d="M268.47,-54.51C284.4,-46.31 308.19,-34.07 326.64,-24.58"/>
<polygon fill="#63b8ff" stroke="#63b8ff" points="328.15,-27.74 335.44,-20.05 324.95,-21.51 328.15,-27.74"/>
</g>
<!-- Node11 -->
<g id="node11" class="node">
<title>Node11</title>
<g id="a_node11"><a xlink:title=" ">
<polygon fill="#e0e0e0" stroke="#999999" points="442.5,-19 397.5,-19 397.5,0 442.5,0 442.5,-19"/>
<text text-anchor="middle" x="420" y="-7" font-family="Helvetica,sans-Serif" font-size="10.00">stdio.h</text>
</a>
</g>
</g>
<!-- Node5&#45;&gt;Node11 -->
<g id="edge12" class="edge">
<title>Node5&#45;&gt;Node11</title>
<path fill="none" stroke="#63b8ff" d="M277.78,-55.1C307.25,-45.86 354.67,-30.99 386.56,-20.99"/>
<polygon fill="#63b8ff" stroke="#63b8ff" points="387.2,-24.45 395.7,-18.12 385.11,-17.77 387.2,-24.45"/>
</g>
</g>
</svg>
