<?xml version="1.0" encoding="UTF-8" standalone="no"?>
<!DOCTYPE svg PUBLIC "-//W3C//DTD SVG 1.1//EN"
 "http://www.w3.org/Graphics/SVG/1.1/DTD/svg11.dtd">
<!-- Generated by graphviz version 7.0.5 (20221223.1930)
 -->
<!-- Title: src/Server_Side_RPC.h Pages: 1 -->
<svg width="626pt" height="302pt"
 viewBox="0.00 0.00 626.00 302.00" xmlns="http://www.w3.org/2000/svg" xmlns:xlink="http://www.w3.org/1999/xlink">
<g id="graph0" class="graph" transform="scale(1 1) rotate(0) translate(4 298)">
<title>src/Server_Side_RPC.h</title>
<!-- Node1 -->
<g id="node1" class="node">
<title>Node1</title>
<g id="a_node1"><a xlink:title=" ">
<polygon fill="#999999" stroke="#666666" points="458.5,-294 339.5,-294 339.5,-275 458.5,-275 458.5,-294"/>
<text text-anchor="middle" x="399" y="-282" font-family="Helvetica,sans-Serif" font-size="10.00">src/Server_Side_RPC.h</text>
</a>
</g>
</g>
<!-- Node2 -->
<g id="node2" class="node">
<title>Node2</title>
<g id="a_node2"><a xlink:href="RPC__Callback_8h.html" target="_top" xlink:title=" ">
<polygon fill="white" stroke="#666666" points="382.5,-239 295.5,-239 295.5,-220 382.5,-220 382.5,-239"/>
<text text-anchor="middle" x="339" y="-227" font-family="Helvetica,sans-Serif" font-size="10.00">RPC_Callback.h</text>
</a>
</g>
</g>
<!-- Node1&#45;&gt;Node2 -->
<g id="edge1" class="edge">
<title>Node1&#45;&gt;Node2</title>
<path fill="none" stroke="#63b8ff" d="M388.82,-274.51C380.24,-266.93 367.73,-255.88 357.4,-246.75"/>
<polygon fill="#63b8ff" stroke="#63b8ff" points="359.97,-244.36 350.16,-240.36 355.34,-249.6 359.97,-244.36"/>
</g>
<!-- Node16 -->
<g id="node16" class="node">
<title>Node16</title>
<g id="a_node16"><a xlink:href="IAPI__Implementation_8h.html" target="_top" xlink:title=" ">
<polygon fill="white" stroke="#666666" points="517,-239 401,-239 401,-220 517,-220 517,-239"/>
<text text-anchor="middle" x="459" y="-227" font-family="Helvetica,sans-Serif" font-size="10.00">IAPI_Implementation.h</text>
</a>
</g>
</g>
<!-- Node1&#45;&gt;Node16 -->
<g id="edge20" class="edge">
<title>Node1&#45;&gt;Node16</title>
<path fill="none" stroke="#63b8ff" d="M409.18,-274.51C417.76,-266.93 430.27,-255.88 440.6,-246.75"/>
<polygon fill="#63b8ff" stroke="#63b8ff" points="442.66,-249.6 447.84,-240.36 438.03,-244.36 442.66,-249.6"/>
</g>
<!-- Node3 -->
<g id="node3" class="node">
<title>Node3</title>
<g id="a_node3"><a xlink:href="Callback_8h.html" target="_top" xlink:title=" ">
<polygon fill="white" stroke="#666666" points="258,-184 196,-184 196,-165 258,-165 258,-184"/>
<text text-anchor="middle" x="227" y="-172" font-family="Helvetica,sans-Serif" font-size="10.00">Callback.h</text>
</a>
</g>
</g>
<!-- Node2&#45;&gt;Node3 -->
<g id="edge2" class="edge">
<title>Node2&#45;&gt;Node3</title>
<path fill="none" stroke="#63b8ff" d="M320,-219.51C302.44,-211.2 276.08,-198.73 255.91,-189.18"/>
<polygon fill="#63b8ff" stroke="#63b8ff" points="257.62,-186.12 247.09,-185.01 254.63,-192.45 257.62,-186.12"/>
</g>
<!-- Node15 -->
<g id="node15" class="node">
<title>Node15</title>
<g id="a_node15"><a xlink:href="Constants_8h.html" target="_top" xlink:title=" ">
<polygon fill="white" stroke="#666666" points="437,-74 369,-74 369,-55 437,-55 437,-74"/>
<text text-anchor="middle" x="403" y="-62" font-family="Helvetica,sans-Serif" font-size="10.00">Constants.h</text>
</a>
</g>
</g>
<!-- Node2&#45;&gt;Node15 -->
<g id="edge17" class="edge">
<title>Node2&#45;&gt;Node15</title>
<path fill="none" stroke="#63b8ff" d="M342.44,-219.74C352.42,-194.31 381.57,-120.08 395.46,-84.69"/>
<polygon fill="#63b8ff" stroke="#63b8ff" points="398.59,-86.3 398.99,-75.72 392.08,-83.74 398.59,-86.3"/>
</g>
<!-- Node4 -->
<g id="node4" class="node">
<title>Node4</title>
<g id="a_node4"><a xlink:href="Configuration_8h.html" target="_top" xlink:title=" ">
<polygon fill="white" stroke="#666666" points="443,-19 363,-19 363,0 443,0 443,-19"/>
<text text-anchor="middle" x="403" y="-7" font-family="Helvetica,sans-Serif" font-size="10.00">Configuration.h</text>
</a>
</g>
</g>
<!-- Node3&#45;&gt;Node4 -->
<g id="edge3" class="edge">
<title>Node3&#45;&gt;Node4</title>
<path fill="none" stroke="#63b8ff" d="M195.71,-167.36C157.59,-158.45 100.87,-139.68 123,-110 156.54,-65.02 191,-92.42 244,-74 289.08,-58.33 340.16,-37.33 371.98,-23.86"/>
<polygon fill="#63b8ff" stroke="#63b8ff" points="373.17,-27.16 381,-20.02 370.43,-20.72 373.17,-27.16"/>
</g>
<!-- Node5 -->
<g id="node5" class="node">
<title>Node5</title>
<g id="a_node5"><a xlink:href="Container_8h.html" target="_top" xlink:title=" ">
<polygon fill="white" stroke="#666666" points="259.5,-129 194.5,-129 194.5,-110 259.5,-110 259.5,-129"/>
<text text-anchor="middle" x="227" y="-117" font-family="Helvetica,sans-Serif" font-size="10.00">Container.h</text>
</a>
</g>
</g>
<!-- Node3&#45;&gt;Node5 -->
<g id="edge4" class="edge">
<title>Node3&#45;&gt;Node5</title>
<path fill="none" stroke="#63b8ff" d="M227,-164.75C227,-158.27 227,-149.16 227,-140.9"/>
<polygon fill="#63b8ff" stroke="#63b8ff" points="230.5,-140.96 227,-130.96 223.5,-140.96 230.5,-140.96"/>
</g>
<!-- Node7 -->
<g id="node7" class="node">
<title>Node7</title>
<g id="a_node7"><a xlink:title=" ">
<polygon fill="#e0e0e0" stroke="#999999" points="78,-19 0,-19 0,0 78,0 78,-19"/>
<text text-anchor="middle" x="39" y="-7" font-family="Helvetica,sans-Serif" font-size="10.00">ArduinoJson.h</text>
</a>
</g>
</g>
<!-- Node3&#45;&gt;Node7 -->
<g id="edge14" class="edge">
<title>Node3&#45;&gt;Node7</title>
<path fill="none" stroke="#63b8ff" d="M195.79,-166.67C171.69,-160.17 138.57,-148.43 115,-129 81.64,-101.5 58.09,-55.42 46.73,-29.57"/>
<polygon fill="#63b8ff" stroke="#63b8ff" points="50.07,-28.5 42.96,-20.65 43.63,-31.22 50.07,-28.5"/>
</g>
<!-- Node13 -->
<g id="node13" class="node">
<title>Node13</title>
<g id="a_node13"><a xlink:title=" ">
<polygon fill="#e0e0e0" stroke="#999999" points="336.5,-129 277.5,-129 277.5,-110 336.5,-110 336.5,-129"/>
<text text-anchor="middle" x="307" y="-117" font-family="Helvetica,sans-Serif" font-size="10.00">functional</text>
</a>
</g>
</g>
<!-- Node3&#45;&gt;Node13 -->
<g id="edge15" class="edge">
<title>Node3&#45;&gt;Node13</title>
<path fill="none" stroke="#63b8ff" d="M240.57,-164.51C252.48,-156.62 270.05,-144.98 284.13,-135.65"/>
<polygon fill="#63b8ff" stroke="#63b8ff" points="285.96,-138.63 292.37,-130.19 282.1,-132.8 285.96,-138.63"/>
</g>
<!-- Node14 -->
<g id="node14" class="node">
<title>Node14</title>
<g id="a_node14"><a xlink:title=" ">
<polygon fill="#e0e0e0" stroke="#999999" points="176,-129 132,-129 132,-110 176,-110 176,-129"/>
<text text-anchor="middle" x="154" y="-117" font-family="Helvetica,sans-Serif" font-size="10.00">vector</text>
</a>
</g>
</g>
<!-- Node3&#45;&gt;Node14 -->
<g id="edge16" class="edge">
<title>Node3&#45;&gt;Node14</title>
<path fill="none" stroke="#63b8ff" d="M214.62,-164.51C203.85,-156.7 188.03,-145.21 175.25,-135.93"/>
<polygon fill="#63b8ff" stroke="#63b8ff" points="177.57,-133.29 167.43,-130.25 173.46,-138.95 177.57,-133.29"/>
</g>
<!-- Node6 -->
<g id="node6" class="node">
<title>Node6</title>
<g id="a_node6"><a xlink:href="Helper_8h.html" target="_top" xlink:title=" ">
<polygon fill="white" stroke="#666666" points="234.5,-74 181.5,-74 181.5,-55 234.5,-55 234.5,-74"/>
<text text-anchor="middle" x="208" y="-62" font-family="Helvetica,sans-Serif" font-size="10.00">Helper.h</text>
</a>
</g>
</g>
<!-- Node5&#45;&gt;Node6 -->
<g id="edge5" class="edge">
<title>Node5&#45;&gt;Node6</title>
<path fill="none" stroke="#63b8ff" d="M223.86,-109.75C221.46,-103.04 218.04,-93.52 215,-85.02"/>
<polygon fill="#63b8ff" stroke="#63b8ff" points="218.39,-84.1 211.72,-75.87 211.8,-86.46 218.39,-84.1"/>
</g>
<!-- Node10 -->
<g id="node10" class="node">
<title>Node10</title>
<g id="a_node10"><a xlink:title=" ">
<polygon fill="#e0e0e0" stroke="#999999" points="147.5,-19 96.5,-19 96.5,0 147.5,0 147.5,-19"/>
<text text-anchor="middle" x="122" y="-7" font-family="Helvetica,sans-Serif" font-size="10.00">assert.h</text>
</a>
</g>
</g>
<!-- Node5&#45;&gt;Node10 -->
<g id="edge13" class="edge">
<title>Node5&#45;&gt;Node10</title>
<path fill="none" stroke="#63b8ff" d="M214.54,-109.68C202.94,-101.18 185.46,-87.64 172,-74 157.86,-59.67 143.87,-41.47 134.3,-28.23"/>
<polygon fill="#63b8ff" stroke="#63b8ff" points="137.43,-26.58 128.79,-20.45 131.71,-30.63 137.43,-26.58"/>
</g>
<!-- Node6&#45;&gt;Node4 -->
<g id="edge6" class="edge">
<title>Node6&#45;&gt;Node4</title>
<path fill="none" stroke="#63b8ff" d="M234.71,-56.24C266.79,-47.52 321.08,-32.77 359.3,-22.38"/>
<polygon fill="#63b8ff" stroke="#63b8ff" points="359.92,-25.84 368.66,-19.83 358.09,-19.08 359.92,-25.84"/>
</g>
<!-- Node6&#45;&gt;Node7 -->
<g id="edge7" class="edge">
<title>Node6&#45;&gt;Node7</title>
<path fill="none" stroke="#63b8ff" d="M181.22,-55.1C153.5,-46.41 109.89,-32.73 78.27,-22.82"/>
<polygon fill="#63b8ff" stroke="#63b8ff" points="79.66,-19.58 69.07,-19.93 77.57,-26.26 79.66,-19.58"/>
</g>
<!-- Node8 -->
<g id="node8" class="node">
<title>Node8</title>
<g id="a_node8"><a xlink:title=" ">
<polygon fill="#e0e0e0" stroke="#999999" points="212.5,-19 165.5,-19 165.5,0 212.5,0 212.5,-19"/>
<text text-anchor="middle" x="189" y="-7" font-family="Helvetica,sans-Serif" font-size="10.00">iterator</text>
</a>
</g>
</g>
<!-- Node6&#45;&gt;Node8 -->
<g id="edge8" class="edge">
<title>Node6&#45;&gt;Node8</title>
<path fill="none" stroke="#63b8ff" d="M204.86,-54.75C202.46,-48.04 199.04,-38.52 196,-30.02"/>
<polygon fill="#63b8ff" stroke="#63b8ff" points="199.39,-29.1 192.72,-20.87 192.8,-31.46 199.39,-29.1"/>
</g>
<!-- Node9 -->
<g id="node9" class="node">
<title>Node9</title>
<g id="a_node9"><a xlink:title=" ">
<polygon fill="#e0e0e0" stroke="#999999" points="509,-19 461,-19 461,0 509,0 509,-19"/>
<text text-anchor="middle" x="485" y="-7" font-family="Helvetica,sans-Serif" font-size="10.00">stdint.h</text>
</a>
</g>
</g>
<!-- Node6&#45;&gt;Node9 -->
<g id="edge9" class="edge">
<title>Node6&#45;&gt;Node9</title>
<path fill="none" stroke="#63b8ff" d="M234.84,-59.25C277.98,-52.29 365.61,-37.57 449.29,-19.47"/>
<polygon fill="#63b8ff" stroke="#63b8ff" points="450.04,-22.89 459.06,-17.33 448.54,-16.05 450.04,-22.89"/>
</g>
<!-- Node6&#45;&gt;Node10 -->
<g id="edge10" class="edge">
<title>Node6&#45;&gt;Node10</title>
<path fill="none" stroke="#63b8ff" d="M193.41,-54.51C180.48,-46.54 161.36,-34.75 146.15,-25.38"/>
<polygon fill="#63b8ff" stroke="#63b8ff" points="148.01,-22.42 137.66,-20.15 144.34,-28.38 148.01,-22.42"/>
</g>
<!-- Node11 -->
<g id="node11" class="node">
<title>Node11</title>
<g id="a_node11"><a xlink:title=" ">
<polygon fill="#e0e0e0" stroke="#999999" points="281.5,-19 230.5,-19 230.5,0 281.5,0 281.5,-19"/>
<text text-anchor="middle" x="256" y="-7" font-family="Helvetica,sans-Serif" font-size="10.00">stdarg.h</text>
</a>
</g>
</g>
<!-- Node6&#45;&gt;Node11 -->
<g id="edge11" class="edge">
<title>Node6&#45;&gt;Node11</title>
<path fill="none" stroke="#63b8ff" d="M215.93,-54.75C222.56,-47.43 232.22,-36.76 240.39,-27.74"/>
<polygon fill="#63b8ff" stroke="#63b8ff" points="242.77,-30.33 246.89,-20.56 237.58,-25.63 242.77,-30.33"/>
</g>
<!-- Node12 -->
<g id="node12" class="node">
<title>Node12</title>
<g id="a_node12"><a xlink:title=" ">
<polygon fill="#e0e0e0" stroke="#999999" points="344.5,-19 299.5,-19 299.5,0 344.5,0 344.5,-19"/>
<text text-anchor="middle" x="322" y="-7" font-family="Helvetica,sans-Serif" font-size="10.00">stdio.h</text>
</a>
</g>
</g>
<!-- Node6&#45;&gt;Node12 -->
<g id="edge12" class="edge">
<title>Node6&#45;&gt;Node12</title>
<path fill="none" stroke="#63b8ff" d="M227.34,-54.51C245.22,-46.2 272.04,-33.73 292.57,-24.18"/>
<polygon fill="#63b8ff" stroke="#63b8ff" points="293.98,-27.39 301.57,-20 291.03,-21.04 293.98,-27.39"/>
</g>
<!-- Node15&#45;&gt;Node4 -->
<g id="edge18" class="edge">
<title>Node15&#45;&gt;Node4</title>
<path fill="none" stroke="#63b8ff" d="M403,-54.75C403,-48.27 403,-39.16 403,-30.9"/>
<polygon fill="#63b8ff" stroke="#63b8ff" points="406.5,-30.96 403,-20.96 399.5,-30.96 406.5,-30.96"/>
</g>
<!-- Node15&#45;&gt;Node9 -->
<g id="edge19" class="edge">
<title>Node15&#45;&gt;Node9</title>
<path fill="none" stroke="#63b8ff" d="M416.91,-54.51C429.24,-46.54 447.47,-34.75 461.97,-25.38"/>
<polygon fill="#63b8ff" stroke="#63b8ff" points="463.53,-28.55 470.02,-20.18 459.73,-22.67 463.53,-28.55"/>
</g>
<!-- Node16&#45;&gt;Node3 -->
<g id="edge21" class="edge">
<title>Node16&#45;&gt;Node3</title>
<path fill="none" stroke="#63b8ff" d="M419.64,-219.51C377.96,-209.99 312.38,-195 269.53,-185.21"/>
<polygon fill="#63b8ff" stroke="#63b8ff" points="270.35,-181.81 259.82,-183 268.79,-188.64 270.35,-181.81"/>
</g>
<!-- Node16&#45;&gt;Node15 -->
<g id="edge22" class="edge">
<title>Node16&#45;&gt;Node15</title>
<path fill="none" stroke="#63b8ff" d="M449.11,-219.65C440.49,-211.33 428.4,-198.09 422,-184 407.32,-151.68 403.76,-109.89 403.03,-85.55"/>
<polygon fill="#63b8ff" stroke="#63b8ff" points="406.53,-85.74 402.88,-75.79 399.53,-85.84 406.53,-85.74"/>
</g>
<!-- Node17 -->
<g id="node17" class="node">
<title>Node17</title>
<g id="a_node17"><a xlink:href="DefaultLogger_8h.html" target="_top" xlink:title=" ">
<polygon fill="white" stroke="#666666" points="590.5,-184 505.5,-184 505.5,-165 590.5,-165 590.5,-184"/>
<text text-anchor="middle" x="548" y="-172" font-family="Helvetica,sans-Serif" font-size="10.00">DefaultLogger.h</text>
</a>
</g>
</g>
<!-- Node16&#45;&gt;Node17 -->
<g id="edge23" class="edge">
<title>Node16&#45;&gt;Node17</title>
<path fill="none" stroke="#63b8ff" d="M474.1,-219.51C487.6,-211.47 507.65,-199.53 523.46,-190.11"/>
<polygon fill="#63b8ff" stroke="#63b8ff" points="525.02,-193.26 531.82,-185.13 521.44,-187.24 525.02,-193.26"/>
</g>
<!-- Node18 -->
<g id="node18" class="node">
<title>Node18</title>
<g id="a_node18"><a xlink:href="API__Process__Type_8h.html" target="_top" xlink:title=" ">
<polygon fill="white" stroke="#666666" points="618,-74 510,-74 510,-55 618,-55 618,-74"/>
<text text-anchor="middle" x="564" y="-62" font-family="Helvetica,sans-Serif" font-size="10.00">API_Process_Type.h</text>
</a>
</g>
</g>
<!-- Node16&#45;&gt;Node18 -->
<g id="edge25" class="edge">
<title>Node16&#45;&gt;Node18</title>
<path fill="none" stroke="#63b8ff" d="M517.44,-225.74C547.24,-221 581.11,-209.78 600,-184 622.57,-153.21 596.52,-108.13 578.43,-83.39"/>
<polygon fill="#63b8ff" stroke="#63b8ff" points="581.34,-81.43 572.48,-75.62 575.78,-85.69 581.34,-81.43"/>
</g>
<!-- Node19 -->
<g id="node19" class="node">
<title>Node19</title>
<g id="a_node19"><a xlink:title=" ">
<polygon fill="#e0e0e0" stroke="#999999" points="487,-184 431,-184 431,-165 487,-165 487,-184"/>
<text text-anchor="middle" x="459" y="-172" font-family="Helvetica,sans-Serif" font-size="10.00">algorithm</text>
</a>
</g>
</g>
<!-- Node16&#45;&gt;Node19 -->
<g id="edge27" class="edge">
<title>Node16&#45;&gt;Node19</title>
<path fill="none" stroke="#63b8ff" d="M459,-219.75C459,-213.27 459,-204.16 459,-195.9"/>
<polygon fill="#63b8ff" stroke="#63b8ff" points="462.5,-195.96 459,-185.96 455.5,-195.96 462.5,-195.96"/>
</g>
<!-- Node17&#45;&gt;Node6 -->
<g id="edge24" class="edge">
<title>Node17&#45;&gt;Node6</title>
<path fill="none" stroke="#63b8ff" d="M519.89,-164.57C458.85,-145.18 314.17,-99.23 245.47,-77.4"/>
<polygon fill="#63b8ff" stroke="#63b8ff" points="246.76,-74.14 236.17,-74.45 244.64,-80.81 246.76,-74.14"/>
</g>
<!-- Node18&#45;&gt;Node9 -->
<g id="edge26" class="edge">
<title>Node18&#45;&gt;Node9</title>
<path fill="none" stroke="#63b8ff" d="M550.6,-54.51C538.84,-46.62 521.49,-34.98 507.59,-25.65"/>
<polygon fill="#63b8ff" stroke="#63b8ff" points="509.71,-22.87 499.46,-20.2 505.81,-28.68 509.71,-22.87"/>
</g>
</g>
</svg>
