<?xml version="1.0" encoding="UTF-8" standalone="no"?>
<!DOCTYPE svg PUBLIC "-//W3C//DTD SVG 1.1//EN"
 "http://www.w3.org/Graphics/SVG/1.1/DTD/svg11.dtd">
<!-- Generated by graphviz version 7.0.5 (20221223.1930)
 -->
<!-- Title: src/Server_Side_RPC.h Pages: 1 -->
<svg width="634pt" height="302pt"
 viewBox="0.00 0.00 634.00 302.00" xmlns="http://www.w3.org/2000/svg" xmlns:xlink="http://www.w3.org/1999/xlink">
<g id="graph0" class="graph" transform="scale(1 1) rotate(0) translate(4 298)">
<title>src/Server_Side_RPC.h</title>
<!-- Node1 -->
<g id="node1" class="node">
<title>Node1</title>
<g id="a_node1"><a xlink:title=" ">
<polygon fill="#999999" stroke="#666666" points="391.5,-294 272.5,-294 272.5,-275 391.5,-275 391.5,-294"/>
<text text-anchor="middle" x="332" y="-282" font-family="Helvetica,sans-Serif" font-size="10.00">src/Server_Side_RPC.h</text>
</a>
</g>
</g>
<!-- Node2 -->
<g id="node2" class="node">
<title>Node2</title>
<g id="a_node2"><a xlink:href="RPC__Callback_8h.html" target="_top" xlink:title=" ">
<polygon fill="white" stroke="#666666" points="315.5,-239 228.5,-239 228.5,-220 315.5,-220 315.5,-239"/>
<text text-anchor="middle" x="272" y="-227" font-family="Helvetica,sans-Serif" font-size="10.00">RPC_Callback.h</text>
</a>
</g>
</g>
<!-- Node1&#45;&gt;Node2 -->
<g id="edge1" class="edge">
<title>Node1&#45;&gt;Node2</title>
<path fill="none" stroke="#63b8ff" d="M321.82,-274.51C313.24,-266.93 300.73,-255.88 290.4,-246.75"/>
<polygon fill="#63b8ff" stroke="#63b8ff" points="292.97,-244.36 283.16,-240.36 288.34,-249.6 292.97,-244.36"/>
</g>
<!-- Node16 -->
<g id="node16" class="node">
<title>Node16</title>
<g id="a_node16"><a xlink:href="IAPI__Implementation_8h.html" target="_top" xlink:title=" ">
<polygon fill="white" stroke="#666666" points="450,-239 334,-239 334,-220 450,-220 450,-239"/>
<text text-anchor="middle" x="392" y="-227" font-family="Helvetica,sans-Serif" font-size="10.00">IAPI_Implementation.h</text>
</a>
</g>
</g>
<!-- Node1&#45;&gt;Node16 -->
<g id="edge19" class="edge">
<title>Node1&#45;&gt;Node16</title>
<path fill="none" stroke="#63b8ff" d="M342.18,-274.51C350.76,-266.93 363.27,-255.88 373.6,-246.75"/>
<polygon fill="#63b8ff" stroke="#63b8ff" points="375.66,-249.6 380.84,-240.36 371.03,-244.36 375.66,-249.6"/>
</g>
<!-- Node3 -->
<g id="node3" class="node">
<title>Node3</title>
<g id="a_node3"><a xlink:href="Callback_8h.html" target="_top" xlink:title=" ">
<polygon fill="white" stroke="#666666" points="271,-184 209,-184 209,-165 271,-165 271,-184"/>
<text text-anchor="middle" x="240" y="-172" font-family="Helvetica,sans-Serif" font-size="10.00">Callback.h</text>
</a>
</g>
</g>
<!-- Node2&#45;&gt;Node3 -->
<g id="edge2" class="edge">
<title>Node2&#45;&gt;Node3</title>
<path fill="none" stroke="#63b8ff" d="M266.72,-219.75C262.53,-212.81 256.52,-202.86 251.27,-194.16"/>
<polygon fill="#63b8ff" stroke="#63b8ff" points="254.35,-192.49 246.18,-185.74 248.35,-196.11 254.35,-192.49"/>
</g>
<!-- Node14 -->
<g id="node14" class="node">
<title>Node14</title>
<g id="a_node14"><a xlink:href="Constants_8h.html" target="_top" xlink:title=" ">
<polygon fill="white" stroke="#666666" points="426,-184 358,-184 358,-165 426,-165 426,-184"/>
<text text-anchor="middle" x="392" y="-172" font-family="Helvetica,sans-Serif" font-size="10.00">Constants.h</text>
</a>
</g>
</g>
<!-- Node2&#45;&gt;Node14 -->
<g id="edge16" class="edge">
<title>Node2&#45;&gt;Node14</title>
<path fill="none" stroke="#63b8ff" d="M292.36,-219.51C311.35,-211.12 339.93,-198.5 361.62,-188.92"/>
<polygon fill="#63b8ff" stroke="#63b8ff" points="362.83,-192.21 370.56,-184.97 360,-185.81 362.83,-192.21"/>
</g>
<!-- Node4 -->
<g id="node4" class="node">
<title>Node4</title>
<g id="a_node4"><a xlink:href="Configuration_8h.html" target="_top" xlink:title=" ">
<polygon fill="white" stroke="#666666" points="462,-19 382,-19 382,0 462,0 462,-19"/>
<text text-anchor="middle" x="422" y="-7" font-family="Helvetica,sans-Serif" font-size="10.00">Configuration.h</text>
</a>
</g>
</g>
<!-- Node3&#45;&gt;Node4 -->
<g id="edge3" class="edge">
<title>Node3&#45;&gt;Node4</title>
<path fill="none" stroke="#63b8ff" d="M249.32,-164.81C262.52,-152.51 287.46,-129.39 309,-110 341.81,-80.47 380.5,-46.6 403.04,-26.97"/>
<polygon fill="#63b8ff" stroke="#63b8ff" points="405.26,-29.68 410.51,-20.47 400.67,-24.4 405.26,-29.68"/>
</g>
<!-- Node5 -->
<g id="node5" class="node">
<title>Node5</title>
<g id="a_node5"><a xlink:href="Container_8h.html" target="_top" xlink:title=" ">
<polygon fill="white" stroke="#666666" points="199.5,-129 134.5,-129 134.5,-110 199.5,-110 199.5,-129"/>
<text text-anchor="middle" x="167" y="-117" font-family="Helvetica,sans-Serif" font-size="10.00">Container.h</text>
</a>
</g>
</g>
<!-- Node3&#45;&gt;Node5 -->
<g id="edge4" class="edge">
<title>Node3&#45;&gt;Node5</title>
<path fill="none" stroke="#63b8ff" d="M227.62,-164.51C216.85,-156.7 201.03,-145.21 188.25,-135.93"/>
<polygon fill="#63b8ff" stroke="#63b8ff" points="190.57,-133.29 180.43,-130.25 186.46,-138.95 190.57,-133.29"/>
</g>
<!-- Node7 -->
<g id="node7" class="node">
<title>Node7</title>
<g id="a_node7"><a xlink:title=" ">
<polygon fill="#e0e0e0" stroke="#999999" points="78,-19 0,-19 0,0 78,0 78,-19"/>
<text text-anchor="middle" x="39" y="-7" font-family="Helvetica,sans-Serif" font-size="10.00">ArduinoJson.h</text>
</a>
</g>
</g>
<!-- Node3&#45;&gt;Node7 -->
<g id="edge13" class="edge">
<title>Node3&#45;&gt;Node7</title>
<path fill="none" stroke="#63b8ff" d="M208.64,-170.67C159.7,-165.56 68.62,-153.01 48,-129 24.44,-101.56 28.93,-56.13 34.1,-30.22"/>
<polygon fill="#63b8ff" stroke="#63b8ff" points="37.46,-31.23 36.24,-20.71 30.63,-29.69 37.46,-31.23"/>
</g>
<!-- Node12 -->
<g id="node12" class="node">
<title>Node12</title>
<g id="a_node12"><a xlink:title=" ">
<polygon fill="#e0e0e0" stroke="#999999" points="116.5,-129 57.5,-129 57.5,-110 116.5,-110 116.5,-129"/>
<text text-anchor="middle" x="87" y="-117" font-family="Helvetica,sans-Serif" font-size="10.00">functional</text>
</a>
</g>
</g>
<!-- Node3&#45;&gt;Node12 -->
<g id="edge14" class="edge">
<title>Node3&#45;&gt;Node12</title>
<path fill="none" stroke="#63b8ff" d="M214.05,-164.51C189.13,-155.88 151.27,-142.76 123.36,-133.1"/>
<polygon fill="#63b8ff" stroke="#63b8ff" points="124.85,-129.91 114.26,-129.94 122.56,-136.52 124.85,-129.91"/>
</g>
<!-- Node13 -->
<g id="node13" class="node">
<title>Node13</title>
<g id="a_node13"><a xlink:title=" ">
<polygon fill="#e0e0e0" stroke="#999999" points="262,-129 218,-129 218,-110 262,-110 262,-129"/>
<text text-anchor="middle" x="240" y="-117" font-family="Helvetica,sans-Serif" font-size="10.00">vector</text>
</a>
</g>
</g>
<!-- Node3&#45;&gt;Node13 -->
<g id="edge15" class="edge">
<title>Node3&#45;&gt;Node13</title>
<path fill="none" stroke="#63b8ff" d="M240,-164.75C240,-158.27 240,-149.16 240,-140.9"/>
<polygon fill="#63b8ff" stroke="#63b8ff" points="243.5,-140.96 240,-130.96 236.5,-140.96 243.5,-140.96"/>
</g>
<!-- Node6 -->
<g id="node6" class="node">
<title>Node6</title>
<g id="a_node6"><a xlink:href="Helper_8h.html" target="_top" xlink:title=" ">
<polygon fill="white" stroke="#666666" points="242.5,-74 189.5,-74 189.5,-55 242.5,-55 242.5,-74"/>
<text text-anchor="middle" x="216" y="-62" font-family="Helvetica,sans-Serif" font-size="10.00">Helper.h</text>
</a>
</g>
</g>
<!-- Node5&#45;&gt;Node6 -->
<g id="edge5" class="edge">
<title>Node5&#45;&gt;Node6</title>
<path fill="none" stroke="#63b8ff" d="M175.09,-109.75C181.86,-102.43 191.72,-91.76 200.06,-82.74"/>
<polygon fill="#63b8ff" stroke="#63b8ff" points="202.49,-85.27 206.71,-75.55 197.35,-80.52 202.49,-85.27"/>
</g>
<!-- Node9 -->
<g id="node9" class="node">
<title>Node9</title>
<g id="a_node9"><a xlink:title=" ">
<polygon fill="#e0e0e0" stroke="#999999" points="166.5,-19 115.5,-19 115.5,0 166.5,0 166.5,-19"/>
<text text-anchor="middle" x="141" y="-7" font-family="Helvetica,sans-Serif" font-size="10.00">assert.h</text>
</a>
</g>
</g>
<!-- Node5&#45;&gt;Node9 -->
<g id="edge12" class="edge">
<title>Node5&#45;&gt;Node9</title>
<path fill="none" stroke="#63b8ff" d="M164.87,-109.66C160.74,-92.5 151.53,-54.26 145.84,-30.6"/>
<polygon fill="#63b8ff" stroke="#63b8ff" points="149.25,-29.83 143.51,-20.93 142.45,-31.47 149.25,-29.83"/>
</g>
<!-- Node6&#45;&gt;Node4 -->
<g id="edge6" class="edge">
<title>Node6&#45;&gt;Node4</title>
<path fill="none" stroke="#63b8ff" d="M242.93,-56.57C276.73,-47.88 335.2,-32.83 376.11,-22.31"/>
<polygon fill="#63b8ff" stroke="#63b8ff" points="376.87,-25.73 385.68,-19.84 375.12,-18.95 376.87,-25.73"/>
</g>
<!-- Node6&#45;&gt;Node7 -->
<g id="edge7" class="edge">
<title>Node6&#45;&gt;Node7</title>
<path fill="none" stroke="#63b8ff" d="M189.12,-55.45C160.01,-46.73 113.25,-32.73 79.65,-22.67"/>
<polygon fill="#63b8ff" stroke="#63b8ff" points="80.84,-19.37 70.25,-19.86 78.83,-26.08 80.84,-19.37"/>
</g>
<!-- Node8 -->
<g id="node8" class="node">
<title>Node8</title>
<g id="a_node8"><a xlink:title=" ">
<polygon fill="#e0e0e0" stroke="#999999" points="231.5,-19 184.5,-19 184.5,0 231.5,0 231.5,-19"/>
<text text-anchor="middle" x="208" y="-7" font-family="Helvetica,sans-Serif" font-size="10.00">iterator</text>
</a>
</g>
</g>
<!-- Node6&#45;&gt;Node8 -->
<g id="edge8" class="edge">
<title>Node6&#45;&gt;Node8</title>
<path fill="none" stroke="#63b8ff" d="M214.68,-54.75C213.69,-48.19 212.29,-38.95 211.03,-30.6"/>
<polygon fill="#63b8ff" stroke="#63b8ff" points="214.53,-30.3 209.58,-20.94 207.61,-31.35 214.53,-30.3"/>
</g>
<!-- Node6&#45;&gt;Node9 -->
<g id="edge9" class="edge">
<title>Node6&#45;&gt;Node9</title>
<path fill="none" stroke="#63b8ff" d="M203.28,-54.51C192.22,-46.7 175.96,-35.21 162.83,-25.93"/>
<polygon fill="#63b8ff" stroke="#63b8ff" points="164.96,-23.14 154.77,-20.23 160.92,-28.86 164.96,-23.14"/>
</g>
<!-- Node10 -->
<g id="node10" class="node">
<title>Node10</title>
<g id="a_node10"><a xlink:title=" ">
<polygon fill="#e0e0e0" stroke="#999999" points="300.5,-19 249.5,-19 249.5,0 300.5,0 300.5,-19"/>
<text text-anchor="middle" x="275" y="-7" font-family="Helvetica,sans-Serif" font-size="10.00">stdarg.h</text>
</a>
</g>
</g>
<!-- Node6&#45;&gt;Node10 -->
<g id="edge10" class="edge">
<title>Node6&#45;&gt;Node10</title>
<path fill="none" stroke="#63b8ff" d="M226.01,-54.51C234.37,-47 246.5,-36.1 256.6,-27.03"/>
<polygon fill="#63b8ff" stroke="#63b8ff" points="258.91,-29.66 264.01,-20.37 254.24,-24.45 258.91,-29.66"/>
</g>
<!-- Node11 -->
<g id="node11" class="node">
<title>Node11</title>
<g id="a_node11"><a xlink:title=" ">
<polygon fill="#e0e0e0" stroke="#999999" points="363.5,-19 318.5,-19 318.5,0 363.5,0 363.5,-19"/>
<text text-anchor="middle" x="341" y="-7" font-family="Helvetica,sans-Serif" font-size="10.00">stdio.h</text>
</a>
</g>
</g>
<!-- Node6&#45;&gt;Node11 -->
<g id="edge11" class="edge">
<title>Node6&#45;&gt;Node11</title>
<path fill="none" stroke="#63b8ff" d="M237.2,-54.51C257.08,-46.08 287.03,-33.38 309.66,-23.79"/>
<polygon fill="#63b8ff" stroke="#63b8ff" points="310.87,-27.07 318.72,-19.95 308.14,-20.63 310.87,-27.07"/>
</g>
<!-- Node14&#45;&gt;Node4 -->
<g id="edge17" class="edge">
<title>Node14&#45;&gt;Node4</title>
<path fill="none" stroke="#63b8ff" d="M397.36,-164.67C402.36,-155.94 409.55,-142.05 413,-129 421.9,-95.34 422.97,-54.56 422.68,-30.68"/>
<polygon fill="#63b8ff" stroke="#63b8ff" points="426.18,-30.73 422.45,-20.82 419.18,-30.9 426.18,-30.73"/>
</g>
<!-- Node15 -->
<g id="node15" class="node">
<title>Node15</title>
<g id="a_node15"><a xlink:title=" ">
<polygon fill="#e0e0e0" stroke="#999999" points="552,-129 504,-129 504,-110 552,-110 552,-129"/>
<text text-anchor="middle" x="528" y="-117" font-family="Helvetica,sans-Serif" font-size="10.00">stdint.h</text>
</a>
</g>
</g>
<!-- Node14&#45;&gt;Node15 -->
<g id="edge18" class="edge">
<title>Node14&#45;&gt;Node15</title>
<path fill="none" stroke="#63b8ff" d="M415.07,-164.51C436.89,-156.01 469.88,-143.15 494.58,-133.53"/>
<polygon fill="#63b8ff" stroke="#63b8ff" points="495.81,-136.8 503.86,-129.91 493.27,-130.28 495.81,-136.8"/>
</g>
<!-- Node16&#45;&gt;Node3 -->
<g id="edge20" class="edge">
<title>Node16&#45;&gt;Node3</title>
<path fill="none" stroke="#63b8ff" d="M366.22,-219.51C341.57,-210.92 304.19,-197.88 276.49,-188.22"/>
<polygon fill="#63b8ff" stroke="#63b8ff" points="277.68,-184.93 267.09,-184.94 275.38,-191.54 277.68,-184.93"/>
</g>
<!-- Node16&#45;&gt;Node14 -->
<g id="edge21" class="edge">
<title>Node16&#45;&gt;Node14</title>
<path fill="none" stroke="#63b8ff" d="M392,-219.75C392,-213.27 392,-204.16 392,-195.9"/>
<polygon fill="#63b8ff" stroke="#63b8ff" points="395.5,-195.96 392,-185.96 388.5,-195.96 395.5,-195.96"/>
</g>
<!-- Node17 -->
<g id="node17" class="node">
<title>Node17</title>
<g id="a_node17"><a xlink:href="DefaultLogger_8h.html" target="_top" xlink:title=" ">
<polygon fill="white" stroke="#666666" points="403.5,-129 318.5,-129 318.5,-110 403.5,-110 403.5,-129"/>
<text text-anchor="middle" x="361" y="-117" font-family="Helvetica,sans-Serif" font-size="10.00">DefaultLogger.h</text>
</a>
</g>
</g>
<!-- Node16&#45;&gt;Node17 -->
<g id="edge22" class="edge">
<title>Node16&#45;&gt;Node17</title>
<path fill="none" stroke="#63b8ff" d="M379.09,-219.61C368.76,-211.65 355.04,-198.94 349,-184 343.27,-169.82 347.04,-152.75 351.82,-139.87"/>
<polygon fill="#63b8ff" stroke="#63b8ff" points="354.98,-141.4 355.66,-130.83 348.53,-138.67 354.98,-141.4"/>
</g>
<!-- Node18 -->
<g id="node18" class="node">
<title>Node18</title>
<g id="a_node18"><a xlink:href="API__Process__Type_8h.html" target="_top" xlink:title=" ">
<polygon fill="white" stroke="#666666" points="626,-184 518,-184 518,-165 626,-165 626,-184"/>
<text text-anchor="middle" x="572" y="-172" font-family="Helvetica,sans-Serif" font-size="10.00">API_Process_Type.h</text>
</a>
</g>
</g>
<!-- Node16&#45;&gt;Node18 -->
<g id="edge24" class="edge">
<title>Node16&#45;&gt;Node18</title>
<path fill="none" stroke="#63b8ff" d="M422.53,-219.51C452.36,-210.73 497.96,-197.3 530.95,-187.59"/>
<polygon fill="#63b8ff" stroke="#63b8ff" points="531.56,-191.06 540.16,-184.87 529.58,-184.34 531.56,-191.06"/>
</g>
<!-- Node19 -->
<g id="node19" class="node">
<title>Node19</title>
<g id="a_node19"><a xlink:title=" ">
<polygon fill="#e0e0e0" stroke="#999999" points="500,-184 444,-184 444,-165 500,-165 500,-184"/>
<text text-anchor="middle" x="472" y="-172" font-family="Helvetica,sans-Serif" font-size="10.00">algorithm</text>
</a>
</g>
</g>
<!-- Node16&#45;&gt;Node19 -->
<g id="edge26" class="edge">
<title>Node16&#45;&gt;Node19</title>
<path fill="none" stroke="#63b8ff" d="M405.57,-219.51C417.48,-211.62 435.05,-199.98 449.13,-190.65"/>
<polygon fill="#63b8ff" stroke="#63b8ff" points="450.96,-193.63 457.37,-185.19 447.1,-187.8 450.96,-193.63"/>
</g>
<!-- Node17&#45;&gt;Node6 -->
<g id="edge23" class="edge">
<title>Node17&#45;&gt;Node6</title>
<path fill="none" stroke="#63b8ff" d="M336.4,-109.51C312.93,-100.93 277.33,-87.92 250.93,-78.27"/>
<polygon fill="#63b8ff" stroke="#63b8ff" points="252.25,-75.02 241.66,-74.88 249.85,-81.6 252.25,-75.02"/>
</g>
<!-- Node18&#45;&gt;Node15 -->
<g id="edge25" class="edge">
<title>Node18&#45;&gt;Node15</title>
<path fill="none" stroke="#63b8ff" d="M564.73,-164.75C558.72,-157.5 549.99,-146.98 542.54,-138.02"/>
<polygon fill="#63b8ff" stroke="#63b8ff" points="545.47,-136.07 536.39,-130.61 540.08,-140.54 545.47,-136.07"/>
</g>
</g>
</svg>
