<?xml version="1.0" encoding="UTF-8" standalone="no"?>
<!DOCTYPE svg PUBLIC "-//W3C//DTD SVG 1.1//EN"
 "http://www.w3.org/Graphics/SVG/1.1/DTD/svg11.dtd">
<!-- Generated by graphviz version 7.0.5 (20221223.1930)
 -->
<!-- Title: src/Shared_Attribute_Callback.h Pages: 1 -->
<svg width="487pt" height="258pt"
 viewBox="0.00 0.00 487.00 258.00" xmlns="http://www.w3.org/2000/svg" xmlns:xlink="http://www.w3.org/1999/xlink">
<g id="graph0" class="graph" transform="scale(1 1) rotate(0) translate(4 254)">
<title>src/Shared_Attribute_Callback.h</title>
<!-- Node1 -->
<g id="node1" class="node">
<title>Node1</title>
<g id="a_node1"><a xlink:title=" ">
<polygon fill="#999999" stroke="#666666" points="377,-250 271,-250 271,-220 377,-220 377,-250"/>
<text text-anchor="start" x="279" y="-238" font-family="Helvetica,sans-Serif" font-size="10.00">src/Shared_Attribute</text>
<text text-anchor="middle" x="324" y="-227" font-family="Helvetica,sans-Serif" font-size="10.00">_Callback.h</text>
</a>
</g>
</g>
<!-- Node2 -->
<g id="node2" class="node">
<title>Node2</title>
<g id="a_node2"><a xlink:href="Callback_8h.html" target="_top" xlink:title=" ">
<polygon fill="white" stroke="#666666" points="311,-184 249,-184 249,-165 311,-165 311,-184"/>
<text text-anchor="middle" x="280" y="-172" font-family="Helvetica,sans-Serif" font-size="10.00">Callback.h</text>
</a>
</g>
</g>
<!-- Node1&#45;&gt;Node2 -->
<g id="edge1" class="edge">
<title>Node1&#45;&gt;Node2</title>
<path fill="none" stroke="#63b8ff" d="M313.12,-219.54C307.12,-211.56 299.63,-201.59 293.28,-193.16"/>
<polygon fill="#63b8ff" stroke="#63b8ff" points="296.24,-191.27 287.43,-185.38 290.65,-195.48 296.24,-191.27"/>
</g>
<!-- Node13 -->
<g id="node13" class="node">
<title>Node13</title>
<g id="a_node13"><a xlink:href="Constants_8h.html" target="_top" xlink:title=" ">
<polygon fill="white" stroke="#666666" points="437,-184 369,-184 369,-165 437,-165 437,-184"/>
<text text-anchor="middle" x="403" y="-172" font-family="Helvetica,sans-Serif" font-size="10.00">Constants.h</text>
</a>
</g>
</g>
<!-- Node1&#45;&gt;Node13 -->
<g id="edge15" class="edge">
<title>Node1&#45;&gt;Node13</title>
<path fill="none" stroke="#63b8ff" d="M343.53,-219.54C355.24,-210.87 370.12,-199.85 382.07,-191"/>
<polygon fill="#63b8ff" stroke="#63b8ff" points="384.11,-193.84 390.07,-185.08 379.95,-188.21 384.11,-193.84"/>
</g>
<!-- Node3 -->
<g id="node3" class="node">
<title>Node3</title>
<g id="a_node3"><a xlink:href="Configuration_8h.html" target="_top" xlink:title=" ">
<polygon fill="white" stroke="#666666" points="443,-19 363,-19 363,0 443,0 443,-19"/>
<text text-anchor="middle" x="403" y="-7" font-family="Helvetica,sans-Serif" font-size="10.00">Configuration.h</text>
</a>
</g>
</g>
<!-- Node2&#45;&gt;Node3 -->
<g id="edge2" class="edge">
<title>Node2&#45;&gt;Node3</title>
<path fill="none" stroke="#63b8ff" d="M298.48,-164.53C312.92,-156.76 332.71,-144.37 346,-129 371.92,-99.02 388.9,-55.21 397.14,-30.11"/>
<polygon fill="#63b8ff" stroke="#63b8ff" points="400.38,-31.47 400.03,-20.88 393.7,-29.38 400.38,-31.47"/>
</g>
<!-- Node4 -->
<g id="node4" class="node">
<title>Node4</title>
<g id="a_node4"><a xlink:href="Container_8h.html" target="_top" xlink:title=" ">
<polygon fill="white" stroke="#666666" points="197.5,-129 132.5,-129 132.5,-110 197.5,-110 197.5,-129"/>
<text text-anchor="middle" x="165" y="-117" font-family="Helvetica,sans-Serif" font-size="10.00">Container.h</text>
</a>
</g>
</g>
<!-- Node2&#45;&gt;Node4 -->
<g id="edge3" class="edge">
<title>Node2&#45;&gt;Node4</title>
<path fill="none" stroke="#63b8ff" d="M260.49,-164.51C242.37,-156.16 215.15,-143.61 194.4,-134.05"/>
<polygon fill="#63b8ff" stroke="#63b8ff" points="196.14,-131 185.59,-129.99 193.21,-137.36 196.14,-131"/>
</g>
<!-- Node6 -->
<g id="node6" class="node">
<title>Node6</title>
<g id="a_node6"><a xlink:title=" ">
<polygon fill="#e0e0e0" stroke="#999999" points="78,-19 0,-19 0,0 78,0 78,-19"/>
<text text-anchor="middle" x="39" y="-7" font-family="Helvetica,sans-Serif" font-size="10.00">ArduinoJson.h</text>
</a>
</g>
</g>
<!-- Node2&#45;&gt;Node6 -->
<g id="edge12" class="edge">
<title>Node2&#45;&gt;Node6</title>
<path fill="none" stroke="#63b8ff" d="M248.75,-170.82C215.03,-166.6 161.06,-155.9 123,-129 86.22,-103.01 59.88,-55.62 47.31,-29.33"/>
<polygon fill="#63b8ff" stroke="#63b8ff" points="50.64,-28.18 43.28,-20.56 44.28,-31.11 50.64,-28.18"/>
</g>
<!-- Node11 -->
<g id="node11" class="node">
<title>Node11</title>
<g id="a_node11"><a xlink:title=" ">
<polygon fill="#e0e0e0" stroke="#999999" points="274.5,-129 215.5,-129 215.5,-110 274.5,-110 274.5,-129"/>
<text text-anchor="middle" x="245" y="-117" font-family="Helvetica,sans-Serif" font-size="10.00">functional</text>
</a>
</g>
</g>
<!-- Node2&#45;&gt;Node11 -->
<g id="edge13" class="edge">
<title>Node2&#45;&gt;Node11</title>
<path fill="none" stroke="#63b8ff" d="M274.22,-164.75C269.59,-157.73 262.93,-147.64 257.13,-138.87"/>
<polygon fill="#63b8ff" stroke="#63b8ff" points="260.17,-137.12 251.74,-130.71 254.33,-140.98 260.17,-137.12"/>
</g>
<!-- Node12 -->
<g id="node12" class="node">
<title>Node12</title>
<g id="a_node12"><a xlink:title=" ">
<polygon fill="#e0e0e0" stroke="#999999" points="337,-129 293,-129 293,-110 337,-110 337,-129"/>
<text text-anchor="middle" x="315" y="-117" font-family="Helvetica,sans-Serif" font-size="10.00">vector</text>
</a>
</g>
</g>
<!-- Node2&#45;&gt;Node12 -->
<g id="edge14" class="edge">
<title>Node2&#45;&gt;Node12</title>
<path fill="none" stroke="#63b8ff" d="M285.78,-164.75C290.41,-157.73 297.07,-147.64 302.87,-138.87"/>
<polygon fill="#63b8ff" stroke="#63b8ff" points="305.67,-140.98 308.26,-130.71 299.83,-137.12 305.67,-140.98"/>
</g>
<!-- Node5 -->
<g id="node5" class="node">
<title>Node5</title>
<g id="a_node5"><a xlink:href="Helper_8h.html" target="_top" xlink:title=" ">
<polygon fill="white" stroke="#666666" points="215.5,-74 162.5,-74 162.5,-55 215.5,-55 215.5,-74"/>
<text text-anchor="middle" x="189" y="-62" font-family="Helvetica,sans-Serif" font-size="10.00">Helper.h</text>
</a>
</g>
</g>
<!-- Node4&#45;&gt;Node5 -->
<g id="edge4" class="edge">
<title>Node4&#45;&gt;Node5</title>
<path fill="none" stroke="#63b8ff" d="M168.96,-109.75C172.04,-102.96 176.41,-93.3 180.29,-84.73"/>
<polygon fill="#63b8ff" stroke="#63b8ff" points="183.39,-86.37 184.33,-75.82 177.01,-83.49 183.39,-86.37"/>
</g>
<!-- Node8 -->
<g id="node8" class="node">
<title>Node8</title>
<g id="a_node8"><a xlink:title=" ">
<polygon fill="#e0e0e0" stroke="#999999" points="147.5,-19 96.5,-19 96.5,0 147.5,0 147.5,-19"/>
<text text-anchor="middle" x="122" y="-7" font-family="Helvetica,sans-Serif" font-size="10.00">assert.h</text>
</a>
</g>
</g>
<!-- Node4&#45;&gt;Node8 -->
<g id="edge11" class="edge">
<title>Node4&#45;&gt;Node8</title>
<path fill="none" stroke="#63b8ff" d="M161.48,-109.66C154.58,-92.34 139.14,-53.55 129.74,-29.95"/>
<polygon fill="#63b8ff" stroke="#63b8ff" points="133.08,-28.86 126.13,-20.87 126.57,-31.45 133.08,-28.86"/>
</g>
<!-- Node5&#45;&gt;Node3 -->
<g id="edge5" class="edge">
<title>Node5&#45;&gt;Node3</title>
<path fill="none" stroke="#63b8ff" d="M215.67,-56.89C250.64,-48.23 312.59,-32.89 355.63,-22.23"/>
<polygon fill="#63b8ff" stroke="#63b8ff" points="356.34,-25.66 365.21,-19.86 354.66,-18.87 356.34,-25.66"/>
</g>
<!-- Node5&#45;&gt;Node6 -->
<g id="edge6" class="edge">
<title>Node5&#45;&gt;Node6</title>
<path fill="none" stroke="#63b8ff" d="M163.55,-54.51C139.24,-45.92 102.34,-32.88 75.01,-23.22"/>
<polygon fill="#63b8ff" stroke="#63b8ff" points="76.34,-19.98 65.75,-19.95 74.01,-26.58 76.34,-19.98"/>
</g>
<!-- Node7 -->
<g id="node7" class="node">
<title>Node7</title>
<g id="a_node7"><a xlink:title=" ">
<polygon fill="#e0e0e0" stroke="#999999" points="212.5,-19 165.5,-19 165.5,0 212.5,0 212.5,-19"/>
<text text-anchor="middle" x="189" y="-7" font-family="Helvetica,sans-Serif" font-size="10.00">iterator</text>
</a>
</g>
</g>
<!-- Node5&#45;&gt;Node7 -->
<g id="edge7" class="edge">
<title>Node5&#45;&gt;Node7</title>
<path fill="none" stroke="#63b8ff" d="M189,-54.75C189,-48.27 189,-39.16 189,-30.9"/>
<polygon fill="#63b8ff" stroke="#63b8ff" points="192.5,-30.96 189,-20.96 185.5,-30.96 192.5,-30.96"/>
</g>
<!-- Node5&#45;&gt;Node8 -->
<g id="edge8" class="edge">
<title>Node5&#45;&gt;Node8</title>
<path fill="none" stroke="#63b8ff" d="M177.63,-54.51C167.95,-46.85 153.8,-35.66 142.19,-26.47"/>
<polygon fill="#63b8ff" stroke="#63b8ff" points="144.4,-23.76 134.38,-20.3 140.06,-29.25 144.4,-23.76"/>
</g>
<!-- Node9 -->
<g id="node9" class="node">
<title>Node9</title>
<g id="a_node9"><a xlink:title=" ">
<polygon fill="#e0e0e0" stroke="#999999" points="281.5,-19 230.5,-19 230.5,0 281.5,0 281.5,-19"/>
<text text-anchor="middle" x="256" y="-7" font-family="Helvetica,sans-Serif" font-size="10.00">stdarg.h</text>
</a>
</g>
</g>
<!-- Node5&#45;&gt;Node9 -->
<g id="edge9" class="edge">
<title>Node5&#45;&gt;Node9</title>
<path fill="none" stroke="#63b8ff" d="M200.37,-54.51C210.05,-46.85 224.2,-35.66 235.81,-26.47"/>
<polygon fill="#63b8ff" stroke="#63b8ff" points="237.94,-29.25 243.62,-20.3 233.6,-23.76 237.94,-29.25"/>
</g>
<!-- Node10 -->
<g id="node10" class="node">
<title>Node10</title>
<g id="a_node10"><a xlink:title=" ">
<polygon fill="#e0e0e0" stroke="#999999" points="344.5,-19 299.5,-19 299.5,0 344.5,0 344.5,-19"/>
<text text-anchor="middle" x="322" y="-7" font-family="Helvetica,sans-Serif" font-size="10.00">stdio.h</text>
</a>
</g>
</g>
<!-- Node5&#45;&gt;Node10 -->
<g id="edge10" class="edge">
<title>Node5&#45;&gt;Node10</title>
<path fill="none" stroke="#63b8ff" d="M211.56,-54.51C232.9,-46.01 265.16,-33.15 289.31,-23.53"/>
<polygon fill="#63b8ff" stroke="#63b8ff" points="290.37,-26.87 298.37,-19.92 287.78,-20.37 290.37,-26.87"/>
</g>
<!-- Node13&#45;&gt;Node3 -->
<g id="edge16" class="edge">
<title>Node13&#45;&gt;Node3</title>
<path fill="none" stroke="#63b8ff" d="M403,-164.74C403,-139.53 403,-66.36 403,-30.62"/>
<polygon fill="#63b8ff" stroke="#63b8ff" points="406.5,-30.82 403,-20.82 399.5,-30.82 406.5,-30.82"/>
</g>
<!-- Node14 -->
<g id="node14" class="node">
<title>Node14</title>
<g id="a_node14"><a xlink:title=" ">
<polygon fill="#e0e0e0" stroke="#999999" points="479,-129 431,-129 431,-110 479,-110 479,-129"/>
<text text-anchor="middle" x="455" y="-117" font-family="Helvetica,sans-Serif" font-size="10.00">stdint.h</text>
</a>
</g>
</g>
<!-- Node13&#45;&gt;Node14 -->
<g id="edge17" class="edge">
<title>Node13&#45;&gt;Node14</title>
<path fill="none" stroke="#63b8ff" d="M411.59,-164.75C418.84,-157.35 429.45,-146.54 438.37,-137.45"/>
<polygon fill="#63b8ff" stroke="#63b8ff" points="440.66,-140.11 445.17,-130.52 435.66,-135.21 440.66,-140.11"/>
</g>
</g>
</svg>
