<?xml version="1.0" encoding="UTF-8" standalone="no"?>
<!DOCTYPE svg PUBLIC "-//W3C//DTD SVG 1.1//EN"
 "http://www.w3.org/Graphics/SVG/1.1/DTD/svg11.dtd">
<!-- Generated by graphviz version 7.0.5 (20221223.1930)
 -->
<!-- Title: src/ThingsBoard.h Pages: 1 -->
<svg width="794pt" height="302pt"
 viewBox="0.00 0.00 794.00 302.00" xmlns="http://www.w3.org/2000/svg" xmlns:xlink="http://www.w3.org/1999/xlink">
<g id="graph0" class="graph" transform="scale(1 1) rotate(0) translate(4 298)">
<title>src/ThingsBoard.h</title>
<!-- Node1 -->
<g id="node1" class="node">
<title>Node1</title>
<g id="a_node1"><a xlink:title=" ">
<polygon fill="#999999" stroke="#666666" points="225.5,-294 130.5,-294 130.5,-275 225.5,-275 225.5,-294"/>
<text text-anchor="middle" x="178" y="-282" font-family="Helvetica,sans-Serif" font-size="10.00">src/ThingsBoard.h</text>
</a>
</g>
</g>
<!-- Node2 -->
<g id="node2" class="node">
<title>Node2</title>
<g id="a_node2"><a xlink:href="Constants_8h.html" target="_top" xlink:title=" ">
<polygon fill="white" stroke="#666666" points="177,-74 109,-74 109,-55 177,-55 177,-74"/>
<text text-anchor="middle" x="143" y="-62" font-family="Helvetica,sans-Serif" font-size="10.00">Constants.h</text>
</a>
</g>
</g>
<!-- Node1&#45;&gt;Node2 -->
<g id="edge1" class="edge">
<title>Node1&#45;&gt;Node2</title>
<path fill="none" stroke="#63b8ff" d="M169.63,-274.54C154.93,-258.11 125,-221.44 114,-184 103.79,-149.25 120.16,-108.04 132.16,-84.52"/>
<polygon fill="#63b8ff" stroke="#63b8ff" points="135.18,-86.29 136.84,-75.83 129.02,-82.97 135.18,-86.29"/>
</g>
<!-- Node5 -->
<g id="node5" class="node">
<title>Node5</title>
<g id="a_node5"><a xlink:href="IAPI__Implementation_8h.html" target="_top" xlink:title=" ">
<polygon fill="white" stroke="#666666" points="322,-239 206,-239 206,-220 322,-220 322,-239"/>
<text text-anchor="middle" x="264" y="-227" font-family="Helvetica,sans-Serif" font-size="10.00">IAPI_Implementation.h</text>
</a>
</g>
</g>
<!-- Node1&#45;&gt;Node5 -->
<g id="edge4" class="edge">
<title>Node1&#45;&gt;Node5</title>
<path fill="none" stroke="#63b8ff" d="M192.59,-274.51C205.52,-266.54 224.64,-254.75 239.85,-245.38"/>
<polygon fill="#63b8ff" stroke="#63b8ff" points="241.66,-248.38 248.34,-240.15 237.99,-242.42 241.66,-248.38"/>
</g>
<!-- Node16 -->
<g id="node16" class="node">
<title>Node16</title>
<g id="a_node16"><a xlink:href="DefaultLogger_8h.html" target="_top" xlink:title=" ">
<polygon fill="white" stroke="#666666" points="320.5,-184 235.5,-184 235.5,-165 320.5,-165 320.5,-184"/>
<text text-anchor="middle" x="278" y="-172" font-family="Helvetica,sans-Serif" font-size="10.00">DefaultLogger.h</text>
</a>
</g>
</g>
<!-- Node1&#45;&gt;Node16 -->
<g id="edge33" class="edge">
<title>Node1&#45;&gt;Node16</title>
<path fill="none" stroke="#63b8ff" d="M178.55,-274.73C179.79,-261.51 183.84,-236.29 197,-220 208.14,-206.21 224.76,-196.03 240.04,-188.92"/>
<polygon fill="#63b8ff" stroke="#63b8ff" points="241.15,-192.26 248.94,-185.08 238.37,-185.83 241.15,-192.26"/>
</g>
<!-- Node19 -->
<g id="node19" class="node">
<title>Node19</title>
<g id="a_node19"><a xlink:href="IMQTT__Client_8h.html" target="_top" xlink:title=" ">
<polygon fill="white" stroke="#666666" points="425.5,-239 340.5,-239 340.5,-220 425.5,-220 425.5,-239"/>
<text text-anchor="middle" x="383" y="-227" font-family="Helvetica,sans-Serif" font-size="10.00">IMQTT_Client.h</text>
</a>
</g>
</g>
<!-- Node1&#45;&gt;Node19 -->
<g id="edge26" class="edge">
<title>Node1&#45;&gt;Node19</title>
<path fill="none" stroke="#63b8ff" d="M212.78,-274.51C247.19,-265.61 300.04,-251.95 337.72,-242.21"/>
<polygon fill="#63b8ff" stroke="#63b8ff" points="338.13,-245.72 346.93,-239.83 336.37,-238.94 338.13,-245.72"/>
</g>
<!-- Node22 -->
<g id="node22" class="node">
<title>Node22</title>
<g id="a_node22"><a xlink:href="Telemetry_8h.html" target="_top" xlink:title=" ">
<polygon fill="white" stroke="#666666" points="90.5,-74 23.5,-74 23.5,-55 90.5,-55 90.5,-74"/>
<text text-anchor="middle" x="57" y="-62" font-family="Helvetica,sans-Serif" font-size="10.00">Telemetry.h</text>
</a>
</g>
</g>
<!-- Node1&#45;&gt;Node22 -->
<g id="edge34" class="edge">
<title>Node1&#45;&gt;Node22</title>
<path fill="none" stroke="#63b8ff" d="M164.43,-274.71C152.87,-266.62 136.5,-253.69 126,-239 90.56,-189.43 69.96,-119.11 61.52,-85.24"/>
<polygon fill="#63b8ff" stroke="#63b8ff" points="64.95,-84.55 59.22,-75.63 58.14,-86.17 64.95,-84.55"/>
</g>
<!-- Node3 -->
<g id="node3" class="node">
<title>Node3</title>
<g id="a_node3"><a xlink:href="Configuration_8h.html" target="_top" xlink:title=" ">
<polygon fill="white" stroke="#666666" points="160,-19 80,-19 80,0 160,0 160,-19"/>
<text text-anchor="middle" x="120" y="-7" font-family="Helvetica,sans-Serif" font-size="10.00">Configuration.h</text>
</a>
</g>
</g>
<!-- Node2&#45;&gt;Node3 -->
<g id="edge2" class="edge">
<title>Node2&#45;&gt;Node3</title>
<path fill="none" stroke="#63b8ff" d="M139.2,-54.75C136.26,-47.96 132.06,-38.3 128.35,-29.73"/>
<polygon fill="#63b8ff" stroke="#63b8ff" points="131.67,-28.61 124.48,-20.83 125.25,-31.4 131.67,-28.61"/>
</g>
<!-- Node4 -->
<g id="node4" class="node">
<title>Node4</title>
<g id="a_node4"><a xlink:title=" ">
<polygon fill="#e0e0e0" stroke="#999999" points="589,-19 541,-19 541,0 589,0 589,-19"/>
<text text-anchor="middle" x="565" y="-7" font-family="Helvetica,sans-Serif" font-size="10.00">stdint.h</text>
</a>
</g>
</g>
<!-- Node2&#45;&gt;Node4 -->
<g id="edge3" class="edge">
<title>Node2&#45;&gt;Node4</title>
<path fill="none" stroke="#63b8ff" d="M177.32,-61.18C243.6,-56.34 393.96,-43.72 529.59,-19.21"/>
<polygon fill="#63b8ff" stroke="#63b8ff" points="529.88,-22.71 539.09,-17.47 528.62,-15.83 529.88,-22.71"/>
</g>
<!-- Node5&#45;&gt;Node2 -->
<g id="edge20" class="edge">
<title>Node5&#45;&gt;Node2</title>
<path fill="none" stroke="#63b8ff" d="M256.43,-219.8C248.8,-210.94 236.79,-196.75 227,-184 200.35,-149.32 171.26,-107.24 155.26,-83.7"/>
<polygon fill="#63b8ff" stroke="#63b8ff" points="158.24,-81.86 149.74,-75.54 152.44,-85.79 158.24,-81.86"/>
</g>
<!-- Node6 -->
<g id="node6" class="node">
<title>Node6</title>
<g id="a_node6"><a xlink:href="Callback_8h.html" target="_top" xlink:title=" ">
<polygon fill="white" stroke="#666666" points="401,-184 339,-184 339,-165 401,-165 401,-184"/>
<text text-anchor="middle" x="370" y="-172" font-family="Helvetica,sans-Serif" font-size="10.00">Callback.h</text>
</a>
</g>
</g>
<!-- Node5&#45;&gt;Node6 -->
<g id="edge5" class="edge">
<title>Node5&#45;&gt;Node6</title>
<path fill="none" stroke="#63b8ff" d="M281.98,-219.51C298.45,-211.27 323.09,-198.96 342.11,-189.45"/>
<polygon fill="#63b8ff" stroke="#63b8ff" points="343.55,-192.64 350.93,-185.03 340.42,-186.38 343.55,-192.64"/>
</g>
<!-- Node5&#45;&gt;Node16 -->
<g id="edge21" class="edge">
<title>Node5&#45;&gt;Node16</title>
<path fill="none" stroke="#63b8ff" d="M266.31,-219.75C268.06,-213.11 270.54,-203.73 272.77,-195.31"/>
<polygon fill="#63b8ff" stroke="#63b8ff" points="276.08,-196.47 275.25,-185.91 269.31,-194.68 276.08,-196.47"/>
</g>
<!-- Node17 -->
<g id="node17" class="node">
<title>Node17</title>
<g id="a_node17"><a xlink:href="API__Process__Type_8h.html" target="_top" xlink:title=" ">
<polygon fill="white" stroke="#666666" points="596,-74 488,-74 488,-55 596,-55 596,-74"/>
<text text-anchor="middle" x="542" y="-62" font-family="Helvetica,sans-Serif" font-size="10.00">API_Process_Type.h</text>
</a>
</g>
</g>
<!-- Node5&#45;&gt;Node17 -->
<g id="edge23" class="edge">
<title>Node5&#45;&gt;Node17</title>
<path fill="none" stroke="#63b8ff" d="M298.85,-219.56C362.34,-202.59 493.06,-164.24 523,-129 533.38,-116.78 538.09,-99.05 540.23,-85.43"/>
<polygon fill="#63b8ff" stroke="#63b8ff" points="543.66,-86.2 541.37,-75.85 536.71,-85.36 543.66,-86.2"/>
</g>
<!-- Node18 -->
<g id="node18" class="node">
<title>Node18</title>
<g id="a_node18"><a xlink:title=" ">
<polygon fill="#e0e0e0" stroke="#999999" points="179,-184 123,-184 123,-165 179,-165 179,-184"/>
<text text-anchor="middle" x="151" y="-172" font-family="Helvetica,sans-Serif" font-size="10.00">algorithm</text>
</a>
</g>
</g>
<!-- Node5&#45;&gt;Node18 -->
<g id="edge25" class="edge">
<title>Node5&#45;&gt;Node18</title>
<path fill="none" stroke="#63b8ff" d="M244.83,-219.51C227.11,-211.2 200.52,-198.73 180.17,-189.18"/>
<polygon fill="#63b8ff" stroke="#63b8ff" points="181.8,-186.08 171.26,-185 178.82,-192.42 181.8,-186.08"/>
</g>
<!-- Node6&#45;&gt;Node3 -->
<g id="edge6" class="edge">
<title>Node6&#45;&gt;Node3</title>
<path fill="none" stroke="#63b8ff" d="M348.34,-164.5C329.44,-156.29 301.6,-143.28 279,-129 234.34,-100.79 228.6,-86.23 186,-55 172.11,-44.81 156.09,-33.99 143.32,-25.57"/>
<polygon fill="#63b8ff" stroke="#63b8ff" points="145.42,-22.77 135.14,-20.22 141.59,-28.63 145.42,-22.77"/>
</g>
<!-- Node7 -->
<g id="node7" class="node">
<title>Node7</title>
<g id="a_node7"><a xlink:href="Container_8h.html" target="_top" xlink:title=" ">
<polygon fill="white" stroke="#666666" points="374.5,-129 309.5,-129 309.5,-110 374.5,-110 374.5,-129"/>
<text text-anchor="middle" x="342" y="-117" font-family="Helvetica,sans-Serif" font-size="10.00">Container.h</text>
</a>
</g>
</g>
<!-- Node6&#45;&gt;Node7 -->
<g id="edge7" class="edge">
<title>Node6&#45;&gt;Node7</title>
<path fill="none" stroke="#63b8ff" d="M365.38,-164.75C361.75,-157.88 356.57,-148.08 352.01,-139.45"/>
<polygon fill="#63b8ff" stroke="#63b8ff" points="355.2,-137.99 347.43,-130.78 349.01,-141.26 355.2,-137.99"/>
</g>
<!-- Node9 -->
<g id="node9" class="node">
<title>Node9</title>
<g id="a_node9"><a xlink:title=" ">
<polygon fill="#e0e0e0" stroke="#999999" points="256,-19 178,-19 178,0 256,0 256,-19"/>
<text text-anchor="middle" x="217" y="-7" font-family="Helvetica,sans-Serif" font-size="10.00">ArduinoJson.h</text>
</a>
</g>
</g>
<!-- Node6&#45;&gt;Node9 -->
<g id="edge17" class="edge">
<title>Node6&#45;&gt;Node9</title>
<path fill="none" stroke="#63b8ff" d="M352.25,-164.53C337.48,-156.52 316.45,-143.78 301,-129 269.09,-98.46 241.52,-54.23 227.29,-29.35"/>
<polygon fill="#63b8ff" stroke="#63b8ff" points="230.4,-27.73 222.46,-20.71 224.29,-31.15 230.4,-27.73"/>
</g>
<!-- Node14 -->
<g id="node14" class="node">
<title>Node14</title>
<g id="a_node14"><a xlink:title=" ">
<polygon fill="#e0e0e0" stroke="#999999" points="451.5,-129 392.5,-129 392.5,-110 451.5,-110 451.5,-129"/>
<text text-anchor="middle" x="422" y="-117" font-family="Helvetica,sans-Serif" font-size="10.00">functional</text>
</a>
</g>
</g>
<!-- Node6&#45;&gt;Node14 -->
<g id="edge18" class="edge">
<title>Node6&#45;&gt;Node14</title>
<path fill="none" stroke="#63b8ff" d="M378.59,-164.75C385.84,-157.35 396.45,-146.54 405.37,-137.45"/>
<polygon fill="#63b8ff" stroke="#63b8ff" points="407.66,-140.11 412.17,-130.52 402.66,-135.21 407.66,-140.11"/>
</g>
<!-- Node15 -->
<g id="node15" class="node">
<title>Node15</title>
<g id="a_node15"><a xlink:title=" ">
<polygon fill="#e0e0e0" stroke="#999999" points="514,-129 470,-129 470,-110 514,-110 514,-129"/>
<text text-anchor="middle" x="492" y="-117" font-family="Helvetica,sans-Serif" font-size="10.00">vector</text>
</a>
</g>
</g>
<!-- Node6&#45;&gt;Node15 -->
<g id="edge19" class="edge">
<title>Node6&#45;&gt;Node15</title>
<path fill="none" stroke="#63b8ff" d="M390.7,-164.51C410,-156.12 439.06,-143.5 461.11,-133.92"/>
<polygon fill="#63b8ff" stroke="#63b8ff" points="462.44,-137.16 470.22,-129.96 459.66,-130.74 462.44,-137.16"/>
</g>
<!-- Node8 -->
<g id="node8" class="node">
<title>Node8</title>
<g id="a_node8"><a xlink:href="Helper_8h.html" target="_top" xlink:title=" ">
<polygon fill="white" stroke="#666666" points="368.5,-74 315.5,-74 315.5,-55 368.5,-55 368.5,-74"/>
<text text-anchor="middle" x="342" y="-62" font-family="Helvetica,sans-Serif" font-size="10.00">Helper.h</text>
</a>
</g>
</g>
<!-- Node7&#45;&gt;Node8 -->
<g id="edge8" class="edge">
<title>Node7&#45;&gt;Node8</title>
<path fill="none" stroke="#63b8ff" d="M342,-109.75C342,-103.27 342,-94.16 342,-85.9"/>
<polygon fill="#63b8ff" stroke="#63b8ff" points="345.5,-85.96 342,-75.96 338.5,-85.96 345.5,-85.96"/>
</g>
<!-- Node11 -->
<g id="node11" class="node">
<title>Node11</title>
<g id="a_node11"><a xlink:title=" ">
<polygon fill="#e0e0e0" stroke="#999999" points="522.5,-19 471.5,-19 471.5,0 522.5,0 522.5,-19"/>
<text text-anchor="middle" x="497" y="-7" font-family="Helvetica,sans-Serif" font-size="10.00">assert.h</text>
</a>
</g>
</g>
<!-- Node7&#45;&gt;Node11 -->
<g id="edge16" class="edge">
<title>Node7&#45;&gt;Node11</title>
<path fill="none" stroke="#63b8ff" d="M354.68,-109.66C381.02,-91.31 441.93,-48.87 474.88,-25.91"/>
<polygon fill="#63b8ff" stroke="#63b8ff" points="476.69,-28.91 482.9,-20.33 472.69,-23.17 476.69,-28.91"/>
</g>
<!-- Node8&#45;&gt;Node3 -->
<g id="edge9" class="edge">
<title>Node8&#45;&gt;Node3</title>
<path fill="none" stroke="#63b8ff" d="M315.22,-57.11C278.97,-48.45 213.64,-32.86 168.61,-22.1"/>
<polygon fill="#63b8ff" stroke="#63b8ff" points="169.63,-18.75 159.1,-19.83 168.01,-25.56 169.63,-18.75"/>
</g>
<!-- Node8&#45;&gt;Node4 -->
<g id="edge12" class="edge">
<title>Node8&#45;&gt;Node4</title>
<path fill="none" stroke="#63b8ff" d="M368.79,-57.42C403.61,-49.48 466.56,-34.98 529.57,-19.56"/>
<polygon fill="#63b8ff" stroke="#63b8ff" points="530.16,-23.02 539.04,-17.23 528.49,-16.22 530.16,-23.02"/>
</g>
<!-- Node8&#45;&gt;Node9 -->
<g id="edge10" class="edge">
<title>Node8&#45;&gt;Node9</title>
<path fill="none" stroke="#63b8ff" d="M320.8,-54.51C300.92,-46.08 270.97,-33.38 248.34,-23.79"/>
<polygon fill="#63b8ff" stroke="#63b8ff" points="249.86,-20.63 239.28,-19.95 247.13,-27.07 249.86,-20.63"/>
</g>
<!-- Node10 -->
<g id="node10" class="node">
<title>Node10</title>
<g id="a_node10"><a xlink:title=" ">
<polygon fill="#e0e0e0" stroke="#999999" points="321.5,-19 274.5,-19 274.5,0 321.5,0 321.5,-19"/>
<text text-anchor="middle" x="298" y="-7" font-family="Helvetica,sans-Serif" font-size="10.00">iterator</text>
</a>
</g>
</g>
<!-- Node8&#45;&gt;Node10 -->
<g id="edge11" class="edge">
<title>Node8&#45;&gt;Node10</title>
<path fill="none" stroke="#63b8ff" d="M334.73,-54.75C328.72,-47.5 319.99,-36.98 312.54,-28.02"/>
<polygon fill="#63b8ff" stroke="#63b8ff" points="315.47,-26.07 306.39,-20.61 310.08,-30.54 315.47,-26.07"/>
</g>
<!-- Node8&#45;&gt;Node11 -->
<g id="edge13" class="edge">
<title>Node8&#45;&gt;Node11</title>
<path fill="none" stroke="#63b8ff" d="M368.29,-54.51C393.61,-45.85 432.12,-32.69 460.42,-23.01"/>
<polygon fill="#63b8ff" stroke="#63b8ff" points="461.33,-26.39 469.66,-19.85 459.07,-19.77 461.33,-26.39"/>
</g>
<!-- Node12 -->
<g id="node12" class="node">
<title>Node12</title>
<g id="a_node12"><a xlink:title=" ">
<polygon fill="#e0e0e0" stroke="#999999" points="390.5,-19 339.5,-19 339.5,0 390.5,0 390.5,-19"/>
<text text-anchor="middle" x="365" y="-7" font-family="Helvetica,sans-Serif" font-size="10.00">stdarg.h</text>
</a>
</g>
</g>
<!-- Node8&#45;&gt;Node12 -->
<g id="edge14" class="edge">
<title>Node8&#45;&gt;Node12</title>
<path fill="none" stroke="#63b8ff" d="M345.8,-54.75C348.74,-47.96 352.94,-38.3 356.65,-29.73"/>
<polygon fill="#63b8ff" stroke="#63b8ff" points="359.75,-31.4 360.52,-20.83 353.33,-28.61 359.75,-31.4"/>
</g>
<!-- Node13 -->
<g id="node13" class="node">
<title>Node13</title>
<g id="a_node13"><a xlink:title=" ">
<polygon fill="#e0e0e0" stroke="#999999" points="453.5,-19 408.5,-19 408.5,0 453.5,0 453.5,-19"/>
<text text-anchor="middle" x="431" y="-7" font-family="Helvetica,sans-Serif" font-size="10.00">stdio.h</text>
</a>
</g>
</g>
<!-- Node8&#45;&gt;Node13 -->
<g id="edge15" class="edge">
<title>Node8&#45;&gt;Node13</title>
<path fill="none" stroke="#63b8ff" d="M357.1,-54.51C370.6,-46.47 390.65,-34.53 406.46,-25.11"/>
<polygon fill="#63b8ff" stroke="#63b8ff" points="408.02,-28.26 414.82,-20.13 404.44,-22.24 408.02,-28.26"/>
</g>
<!-- Node16&#45;&gt;Node8 -->
<g id="edge22" class="edge">
<title>Node16&#45;&gt;Node8</title>
<path fill="none" stroke="#63b8ff" d="M279.98,-164.8C283.12,-152.1 290.04,-128.04 301,-110 307.1,-99.95 315.7,-90.19 323.45,-82.38"/>
<polygon fill="#63b8ff" stroke="#63b8ff" points="325.79,-84.99 330.57,-75.53 320.94,-79.94 325.79,-84.99"/>
</g>
<!-- Node17&#45;&gt;Node4 -->
<g id="edge24" class="edge">
<title>Node17&#45;&gt;Node4</title>
<path fill="none" stroke="#63b8ff" d="M545.8,-54.75C548.74,-47.96 552.94,-38.3 556.65,-29.73"/>
<polygon fill="#63b8ff" stroke="#63b8ff" points="559.75,-31.4 560.52,-20.83 553.33,-28.61 559.75,-31.4"/>
</g>
<!-- Node19&#45;&gt;Node6 -->
<g id="edge27" class="edge">
<title>Node19&#45;&gt;Node6</title>
<path fill="none" stroke="#63b8ff" d="M380.85,-219.75C379.24,-213.19 376.98,-203.95 374.93,-195.6"/>
<polygon fill="#63b8ff" stroke="#63b8ff" points="378.34,-194.79 372.55,-185.91 371.54,-196.46 378.34,-194.79"/>
</g>
<!-- Node19&#45;&gt;Node16 -->
<g id="edge28" class="edge">
<title>Node19&#45;&gt;Node16</title>
<path fill="none" stroke="#63b8ff" d="M365.19,-219.51C348.87,-211.27 324.47,-198.96 305.63,-189.45"/>
<polygon fill="#63b8ff" stroke="#63b8ff" points="307.4,-186.42 296.9,-185.04 304.25,-192.67 307.4,-186.42"/>
</g>
<!-- Node20 -->
<g id="node20" class="node">
<title>Node20</title>
<g id="a_node20"><a xlink:href="MQTT__Connection__State_8h.html" target="_top" xlink:title=" ">
<polygon fill="white" stroke="#666666" points="786,-129 652,-129 652,-110 786,-110 786,-129"/>
<text text-anchor="middle" x="719" y="-117" font-family="Helvetica,sans-Serif" font-size="10.00">MQTT_Connection_State.h</text>
</a>
</g>
</g>
<!-- Node19&#45;&gt;Node20 -->
<g id="edge29" class="edge">
<title>Node19&#45;&gt;Node20</title>
<path fill="none" stroke="#63b8ff" d="M425.84,-228.05C502.69,-226.35 659.69,-218.63 700,-184 712.42,-173.33 716.9,-154.9 718.44,-140.63"/>
<polygon fill="#63b8ff" stroke="#63b8ff" points="721.91,-141.18 719.05,-130.98 714.92,-140.74 721.91,-141.18"/>
</g>
<!-- Node21 -->
<g id="node21" class="node">
<title>Node21</title>
<g id="a_node21"><a xlink:href="MQTT__Connection__Error_8h.html" target="_top" xlink:title=" ">
<polygon fill="white" stroke="#666666" points="690.5,-184 559.5,-184 559.5,-165 690.5,-165 690.5,-184"/>
<text text-anchor="middle" x="625" y="-172" font-family="Helvetica,sans-Serif" font-size="10.00">MQTT_Connection_Error.h</text>
</a>
</g>
</g>
<!-- Node19&#45;&gt;Node21 -->
<g id="edge31" class="edge">
<title>Node19&#45;&gt;Node21</title>
<path fill="none" stroke="#63b8ff" d="M424.05,-219.51C465.11,-210.52 528.41,-196.65 572.97,-186.9"/>
<polygon fill="#63b8ff" stroke="#63b8ff" points="573.65,-190.33 582.67,-184.77 572.16,-183.49 573.65,-190.33"/>
</g>
<!-- Node20&#45;&gt;Node4 -->
<g id="edge30" class="edge">
<title>Node20&#45;&gt;Node4</title>
<path fill="none" stroke="#63b8ff" d="M708.56,-109.67C693.41,-97.01 664.29,-73.22 638,-55 622.59,-44.32 604.61,-33.34 590.35,-24.96"/>
<polygon fill="#63b8ff" stroke="#63b8ff" points="592.43,-22.12 582.02,-20.12 588.91,-28.17 592.43,-22.12"/>
</g>
<!-- Node21&#45;&gt;Node4 -->
<g id="edge32" class="edge">
<title>Node21&#45;&gt;Node4</title>
<path fill="none" stroke="#63b8ff" d="M625.15,-164.67C625.16,-144.28 623.23,-92.77 605,-55 599.89,-44.42 591.49,-34.5 583.7,-26.73"/>
<polygon fill="#63b8ff" stroke="#63b8ff" points="586.47,-24.52 576.78,-20.24 581.68,-29.63 586.47,-24.52"/>
</g>
<!-- Node22&#45;&gt;Node3 -->
<g id="edge35" class="edge">
<title>Node22&#45;&gt;Node3</title>
<path fill="none" stroke="#63b8ff" d="M67.69,-54.51C76.7,-46.93 89.83,-35.88 100.68,-26.75"/>
<polygon fill="#63b8ff" stroke="#63b8ff" points="102.91,-29.45 108.31,-20.33 98.41,-24.09 102.91,-29.45"/>
</g>
<!-- Node22&#45;&gt;Node9 -->
<g id="edge36" class="edge">
<title>Node22&#45;&gt;Node9</title>
<path fill="none" stroke="#63b8ff" d="M84.14,-54.51C110.31,-45.84 150.14,-32.65 179.36,-22.97"/>
<polygon fill="#63b8ff" stroke="#63b8ff" points="180.16,-26.39 188.56,-19.92 177.96,-19.74 180.16,-26.39"/>
</g>
<!-- Node23 -->
<g id="node23" class="node">
<title>Node23</title>
<g id="a_node23"><a xlink:title=" ">
<polygon fill="#e0e0e0" stroke="#999999" points="62,-19 0,-19 0,0 62,0 62,-19"/>
<text text-anchor="middle" x="31" y="-7" font-family="Helvetica,sans-Serif" font-size="10.00">type_traits</text>
</a>
</g>
</g>
<!-- Node22&#45;&gt;Node23 -->
<g id="edge37" class="edge">
<title>Node22&#45;&gt;Node23</title>
<path fill="none" stroke="#63b8ff" d="M52.71,-54.75C49.38,-47.96 44.64,-38.3 40.44,-29.73"/>
<polygon fill="#63b8ff" stroke="#63b8ff" points="43.6,-28.24 36.05,-20.8 37.32,-31.32 43.6,-28.24"/>
</g>
</g>
</svg>
