<?xml version="1.0" encoding="UTF-8" standalone="no"?>
<!DOCTYPE svg PUBLIC "-//W3C//DTD SVG 1.1//EN"
 "http://www.w3.org/Graphics/SVG/1.1/DTD/svg11.dtd">
<!-- Generated by graphviz version 7.0.5 (20221223.1930)
 -->
<!-- Title: src/ThingsBoardHttp.h Pages: 1 -->
<svg width="597pt" height="192pt"
 viewBox="0.00 0.00 596.50 192.00" xmlns="http://www.w3.org/2000/svg" xmlns:xlink="http://www.w3.org/1999/xlink">
<g id="graph0" class="graph" transform="scale(1 1) rotate(0) translate(4 188)">
<title>src/ThingsBoardHttp.h</title>
<!-- Node1 -->
<g id="node1" class="node">
<title>Node1</title>
<g id="a_node1"><a xlink:title=" ">
<polygon fill="#999999" stroke="#666666" points="341,-184 227,-184 227,-165 341,-165 341,-184"/>
<text text-anchor="middle" x="284" y="-172" font-family="Helvetica,sans-Serif" font-size="10.00">src/ThingsBoardHttp.h</text>
</a>
</g>
</g>
<!-- Node2 -->
<g id="node2" class="node">
<title>Node2</title>
<g id="a_node2"><a xlink:href="Constants_8h.html" target="_top" xlink:title=" ">
<polygon fill="white" stroke="#666666" points="332,-74 264,-74 264,-55 332,-55 332,-74"/>
<text text-anchor="middle" x="298" y="-62" font-family="Helvetica,sans-Serif" font-size="10.00">Constants.h</text>
</a>
</g>
</g>
<!-- Node1&#45;&gt;Node2 -->
<g id="edge1" class="edge">
<title>Node1&#45;&gt;Node2</title>
<path fill="none" stroke="#63b8ff" d="M285.15,-164.66C287.37,-147.5 292.33,-109.26 295.39,-85.6"/>
<polygon fill="#63b8ff" stroke="#63b8ff" points="298.83,-86.33 296.64,-75.96 291.89,-85.43 298.83,-86.33"/>
</g>
<!-- Node5 -->
<g id="node5" class="node">
<title>Node5</title>
<g id="a_node5"><a xlink:href="Telemetry_8h.html" target="_top" xlink:title=" ">
<polygon fill="white" stroke="#666666" points="147.5,-74 80.5,-74 80.5,-55 147.5,-55 147.5,-74"/>
<text text-anchor="middle" x="114" y="-62" font-family="Helvetica,sans-Serif" font-size="10.00">Telemetry.h</text>
</a>
</g>
</g>
<!-- Node1&#45;&gt;Node5 -->
<g id="edge4" class="edge">
<title>Node1&#45;&gt;Node5</title>
<path fill="none" stroke="#63b8ff" d="M242.82,-164.52C218.01,-157.68 186.73,-146.41 163,-129 146.54,-116.92 132.86,-97.85 124.18,-83.75"/>
<polygon fill="#63b8ff" stroke="#63b8ff" points="127.39,-82.31 119.31,-75.45 121.35,-85.85 127.39,-82.31"/>
</g>
<!-- Node8 -->
<g id="node8" class="node">
<title>Node8</title>
<g id="a_node8"><a xlink:href="Helper_8h.html" target="_top" xlink:title=" ">
<polygon fill="white" stroke="#666666" points="403.5,-74 350.5,-74 350.5,-55 403.5,-55 403.5,-74"/>
<text text-anchor="middle" x="377" y="-62" font-family="Helvetica,sans-Serif" font-size="10.00">Helper.h</text>
</a>
</g>
</g>
<!-- Node1&#45;&gt;Node8 -->
<g id="edge8" class="edge">
<title>Node1&#45;&gt;Node8</title>
<path fill="none" stroke="#63b8ff" d="M341.19,-167.33C365.66,-161.53 392,-150.38 407,-129 417.24,-114.4 405.99,-95.76 394.46,-82.46"/>
<polygon fill="#63b8ff" stroke="#63b8ff" points="397.14,-80.2 387.73,-75.32 392.04,-85 397.14,-80.2"/>
</g>
<!-- Node13 -->
<g id="node13" class="node">
<title>Node13</title>
<g id="a_node13"><a xlink:href="IHTTP__Client_8h.html" target="_top" xlink:title=" ">
<polygon fill="white" stroke="#666666" points="255.5,-129 172.5,-129 172.5,-110 255.5,-110 255.5,-129"/>
<text text-anchor="middle" x="214" y="-117" font-family="Helvetica,sans-Serif" font-size="10.00">IHTTP_Client.h</text>
</a>
</g>
</g>
<!-- Node1&#45;&gt;Node13 -->
<g id="edge16" class="edge">
<title>Node1&#45;&gt;Node13</title>
<path fill="none" stroke="#63b8ff" d="M272.13,-164.51C261.91,-156.77 246.93,-145.43 234.74,-136.2"/>
<polygon fill="#63b8ff" stroke="#63b8ff" points="236.99,-133.52 226.91,-130.27 232.77,-139.1 236.99,-133.52"/>
</g>
<!-- Node15 -->
<g id="node15" class="node">
<title>Node15</title>
<g id="a_node15"><a xlink:href="DefaultLogger_8h.html" target="_top" xlink:title=" ">
<polygon fill="white" stroke="#666666" points="397.5,-129 312.5,-129 312.5,-110 397.5,-110 397.5,-129"/>
<text text-anchor="middle" x="355" y="-117" font-family="Helvetica,sans-Serif" font-size="10.00">DefaultLogger.h</text>
</a>
</g>
</g>
<!-- Node1&#45;&gt;Node15 -->
<g id="edge19" class="edge">
<title>Node1&#45;&gt;Node15</title>
<path fill="none" stroke="#63b8ff" d="M296.04,-164.51C306.41,-156.77 321.6,-145.43 333.97,-136.2"/>
<polygon fill="#63b8ff" stroke="#63b8ff" points="336,-139.05 341.92,-130.26 331.81,-133.44 336,-139.05"/>
</g>
<!-- Node3 -->
<g id="node3" class="node">
<title>Node3</title>
<g id="a_node3"><a xlink:href="Configuration_8h.html" target="_top" xlink:title=" ">
<polygon fill="white" stroke="#666666" points="256,-19 176,-19 176,0 256,0 256,-19"/>
<text text-anchor="middle" x="216" y="-7" font-family="Helvetica,sans-Serif" font-size="10.00">Configuration.h</text>
</a>
</g>
</g>
<!-- Node2&#45;&gt;Node3 -->
<g id="edge2" class="edge">
<title>Node2&#45;&gt;Node3</title>
<path fill="none" stroke="#63b8ff" d="M284.09,-54.51C271.76,-46.54 253.53,-34.75 239.03,-25.38"/>
<polygon fill="#63b8ff" stroke="#63b8ff" points="241.27,-22.67 230.98,-20.18 237.47,-28.55 241.27,-22.67"/>
</g>
<!-- Node4 -->
<g id="node4" class="node">
<title>Node4</title>
<g id="a_node4"><a xlink:title=" ">
<polygon fill="#e0e0e0" stroke="#999999" points="322,-19 274,-19 274,0 322,0 322,-19"/>
<text text-anchor="middle" x="298" y="-7" font-family="Helvetica,sans-Serif" font-size="10.00">stdint.h</text>
</a>
</g>
</g>
<!-- Node2&#45;&gt;Node4 -->
<g id="edge3" class="edge">
<title>Node2&#45;&gt;Node4</title>
<path fill="none" stroke="#63b8ff" d="M298,-54.75C298,-48.27 298,-39.16 298,-30.9"/>
<polygon fill="#63b8ff" stroke="#63b8ff" points="301.5,-30.96 298,-20.96 294.5,-30.96 301.5,-30.96"/>
</g>
<!-- Node5&#45;&gt;Node3 -->
<g id="edge5" class="edge">
<title>Node5&#45;&gt;Node3</title>
<path fill="none" stroke="#63b8ff" d="M131.3,-54.51C147.08,-46.31 170.64,-34.07 188.91,-24.58"/>
<polygon fill="#63b8ff" stroke="#63b8ff" points="190.35,-27.77 197.61,-20.06 187.12,-21.56 190.35,-27.77"/>
</g>
<!-- Node6 -->
<g id="node6" class="node">
<title>Node6</title>
<g id="a_node6"><a xlink:title=" ">
<polygon fill="#e0e0e0" stroke="#999999" points="158,-19 80,-19 80,0 158,0 158,-19"/>
<text text-anchor="middle" x="119" y="-7" font-family="Helvetica,sans-Serif" font-size="10.00">ArduinoJson.h</text>
</a>
</g>
</g>
<!-- Node5&#45;&gt;Node6 -->
<g id="edge6" class="edge">
<title>Node5&#45;&gt;Node6</title>
<path fill="none" stroke="#63b8ff" d="M114.83,-54.75C115.44,-48.27 116.3,-39.16 117.08,-30.9"/>
<polygon fill="#63b8ff" stroke="#63b8ff" points="120.56,-31.23 118.01,-20.95 113.59,-30.58 120.56,-31.23"/>
</g>
<!-- Node7 -->
<g id="node7" class="node">
<title>Node7</title>
<g id="a_node7"><a xlink:title=" ">
<polygon fill="#e0e0e0" stroke="#999999" points="62,-19 0,-19 0,0 62,0 62,-19"/>
<text text-anchor="middle" x="31" y="-7" font-family="Helvetica,sans-Serif" font-size="10.00">type_traits</text>
</a>
</g>
</g>
<!-- Node5&#45;&gt;Node7 -->
<g id="edge7" class="edge">
<title>Node5&#45;&gt;Node7</title>
<path fill="none" stroke="#63b8ff" d="M99.92,-54.51C87.44,-46.54 68.98,-34.75 54.31,-25.38"/>
<polygon fill="#63b8ff" stroke="#63b8ff" points="56.46,-22.6 46.15,-20.17 52.69,-28.5 56.46,-22.6"/>
</g>
<!-- Node8&#45;&gt;Node3 -->
<g id="edge9" class="edge">
<title>Node8&#45;&gt;Node3</title>
<path fill="none" stroke="#63b8ff" d="M350.05,-54.63C323.78,-45.98 283.58,-32.75 254.05,-23.03"/>
<polygon fill="#63b8ff" stroke="#63b8ff" points="255.34,-19.76 244.74,-19.96 253.15,-26.41 255.34,-19.76"/>
</g>
<!-- Node8&#45;&gt;Node4 -->
<g id="edge12" class="edge">
<title>Node8&#45;&gt;Node4</title>
<path fill="none" stroke="#63b8ff" d="M363.6,-54.51C351.84,-46.62 334.49,-34.98 320.59,-25.65"/>
<polygon fill="#63b8ff" stroke="#63b8ff" points="322.71,-22.87 312.46,-20.2 318.81,-28.68 322.71,-22.87"/>
</g>
<!-- Node8&#45;&gt;Node6 -->
<g id="edge10" class="edge">
<title>Node8&#45;&gt;Node6</title>
<path fill="none" stroke="#63b8ff" d="M350.29,-57.09C347.16,-56.37 344.01,-55.66 341,-55 282.35,-42.2 214.68,-28.84 169.62,-20.14"/>
<polygon fill="#63b8ff" stroke="#63b8ff" points="170.35,-16.71 159.87,-18.26 169.03,-23.59 170.35,-16.71"/>
</g>
<!-- Node9 -->
<g id="node9" class="node">
<title>Node9</title>
<g id="a_node9"><a xlink:title=" ">
<polygon fill="#e0e0e0" stroke="#999999" points="387.5,-19 340.5,-19 340.5,0 387.5,0 387.5,-19"/>
<text text-anchor="middle" x="364" y="-7" font-family="Helvetica,sans-Serif" font-size="10.00">iterator</text>
</a>
</g>
</g>
<!-- Node8&#45;&gt;Node9 -->
<g id="edge11" class="edge">
<title>Node8&#45;&gt;Node9</title>
<path fill="none" stroke="#63b8ff" d="M374.85,-54.75C373.24,-48.19 370.98,-38.95 368.93,-30.6"/>
<polygon fill="#63b8ff" stroke="#63b8ff" points="372.34,-29.79 366.55,-20.91 365.54,-31.46 372.34,-29.79"/>
</g>
<!-- Node10 -->
<g id="node10" class="node">
<title>Node10</title>
<g id="a_node10"><a xlink:title=" ">
<polygon fill="#e0e0e0" stroke="#999999" points="456.5,-19 405.5,-19 405.5,0 456.5,0 456.5,-19"/>
<text text-anchor="middle" x="431" y="-7" font-family="Helvetica,sans-Serif" font-size="10.00">assert.h</text>
</a>
</g>
</g>
<!-- Node8&#45;&gt;Node10 -->
<g id="edge13" class="edge">
<title>Node8&#45;&gt;Node10</title>
<path fill="none" stroke="#63b8ff" d="M385.92,-54.75C393.45,-47.35 404.47,-36.54 413.73,-27.45"/>
<polygon fill="#63b8ff" stroke="#63b8ff" points="416.12,-30 420.81,-20.5 411.22,-25.01 416.12,-30"/>
</g>
<!-- Node11 -->
<g id="node11" class="node">
<title>Node11</title>
<g id="a_node11"><a xlink:title=" ">
<polygon fill="#e0e0e0" stroke="#999999" points="525.5,-19 474.5,-19 474.5,0 525.5,0 525.5,-19"/>
<text text-anchor="middle" x="500" y="-7" font-family="Helvetica,sans-Serif" font-size="10.00">stdarg.h</text>
</a>
</g>
</g>
<!-- Node8&#45;&gt;Node11 -->
<g id="edge14" class="edge">
<title>Node8&#45;&gt;Node11</title>
<path fill="none" stroke="#63b8ff" d="M397.87,-54.51C417.42,-46.08 446.9,-33.38 469.17,-23.79"/>
<polygon fill="#63b8ff" stroke="#63b8ff" points="470.25,-27.13 478.05,-19.96 467.48,-20.7 470.25,-27.13"/>
</g>
<!-- Node12 -->
<g id="node12" class="node">
<title>Node12</title>
<g id="a_node12"><a xlink:title=" ">
<polygon fill="#e0e0e0" stroke="#999999" points="588.5,-19 543.5,-19 543.5,0 588.5,0 588.5,-19"/>
<text text-anchor="middle" x="566" y="-7" font-family="Helvetica,sans-Serif" font-size="10.00">stdio.h</text>
</a>
</g>
</g>
<!-- Node8&#45;&gt;Node12 -->
<g id="edge15" class="edge">
<title>Node8&#45;&gt;Node12</title>
<path fill="none" stroke="#63b8ff" d="M403.68,-56.02C437.43,-46.55 495.57,-30.25 532.34,-19.94"/>
<polygon fill="#63b8ff" stroke="#63b8ff" points="532.87,-23.42 541.56,-17.35 530.98,-16.68 532.87,-23.42"/>
</g>
<!-- Node13&#45;&gt;Node3 -->
<g id="edge17" class="edge">
<title>Node13&#45;&gt;Node3</title>
<path fill="none" stroke="#63b8ff" d="M208.3,-109.56C201.21,-97.37 190.57,-74.76 195,-55 196.98,-46.15 200.93,-36.99 204.88,-29.29"/>
<polygon fill="#63b8ff" stroke="#63b8ff" points="207.91,-31.05 209.69,-20.6 201.78,-27.66 207.91,-31.05"/>
</g>
<!-- Node14 -->
<g id="node14" class="node">
<title>Node14</title>
<g id="a_node14"><a xlink:title=" ">
<polygon fill="#e0e0e0" stroke="#999999" points="245.5,-74 204.5,-74 204.5,-55 245.5,-55 245.5,-74"/>
<text text-anchor="middle" x="225" y="-62" font-family="Helvetica,sans-Serif" font-size="10.00">string</text>
</a>
</g>
</g>
<!-- Node13&#45;&gt;Node14 -->
<g id="edge18" class="edge">
<title>Node13&#45;&gt;Node14</title>
<path fill="none" stroke="#63b8ff" d="M215.82,-109.75C217.18,-103.19 219.1,-93.95 220.83,-85.6"/>
<polygon fill="#63b8ff" stroke="#63b8ff" points="224.23,-86.43 222.84,-75.92 217.38,-85 224.23,-86.43"/>
</g>
<!-- Node15&#45;&gt;Node8 -->
<g id="edge20" class="edge">
<title>Node15&#45;&gt;Node8</title>
<path fill="none" stroke="#63b8ff" d="M358.63,-109.75C361.42,-103.04 365.37,-93.52 368.9,-85.02"/>
<polygon fill="#63b8ff" stroke="#63b8ff" points="372.11,-86.42 372.71,-75.84 365.64,-83.73 372.11,-86.42"/>
</g>
</g>
</svg>
