<?xml version="1.0" encoding="UTF-8" standalone="no"?>
<!DOCTYPE svg PUBLIC "-//W3C//DTD SVG 1.1//EN"
 "http://www.w3.org/Graphics/SVG/1.1/DTD/svg11.dtd">
<!-- Generated by graphviz version 7.0.5 (20221223.1930)
 -->
<!-- Title: src/ThingsBoard.h Pages: 1 -->
<svg width="870pt" height="302pt"
 viewBox="0.00 0.00 870.00 302.00" xmlns="http://www.w3.org/2000/svg" xmlns:xlink="http://www.w3.org/1999/xlink">
<g id="graph0" class="graph" transform="scale(1 1) rotate(0) translate(4 298)">
<title>src/ThingsBoard.h</title>
<!-- Node1 -->
<g id="node1" class="node">
<title>Node1</title>
<g id="a_node1"><a xlink:title=" ">
<polygon fill="#999999" stroke="#666666" points="527.5,-294 432.5,-294 432.5,-275 527.5,-275 527.5,-294"/>
<text text-anchor="middle" x="480" y="-282" font-family="Helvetica,sans-Serif" font-size="10.00">src/ThingsBoard.h</text>
</a>
</g>
</g>
<!-- Node2 -->
<g id="node2" class="node">
<title>Node2</title>
<g id="a_node2"><a xlink:href="Constants_8h.html" target="_top" xlink:title=" ">
<polygon fill="white" stroke="#666666" points="649,-74 581,-74 581,-55 649,-55 649,-74"/>
<text text-anchor="middle" x="615" y="-62" font-family="Helvetica,sans-Serif" font-size="10.00">Constants.h</text>
</a>
</g>
</g>
<!-- Node1&#45;&gt;Node2 -->
<g id="edge1" class="edge">
<title>Node1&#45;&gt;Node2</title>
<path fill="none" stroke="#63b8ff" d="M499.16,-274.51C513.85,-266.81 533.78,-254.52 547,-239 586.61,-192.5 604.78,-120.21 611.59,-85.47"/>
<polygon fill="#63b8ff" stroke="#63b8ff" points="614.97,-86.44 613.33,-75.98 608.09,-85.18 614.97,-86.44"/>
</g>
<!-- Node5 -->
<g id="node5" class="node">
<title>Node5</title>
<g id="a_node5"><a xlink:href="IAPI__Implementation_8h.html" target="_top" xlink:title=" ">
<polygon fill="white" stroke="#666666" points="538,-239 422,-239 422,-220 538,-220 538,-239"/>
<text text-anchor="middle" x="480" y="-227" font-family="Helvetica,sans-Serif" font-size="10.00">IAPI_Implementation.h</text>
</a>
</g>
</g>
<!-- Node1&#45;&gt;Node5 -->
<g id="edge4" class="edge">
<title>Node1&#45;&gt;Node5</title>
<path fill="none" stroke="#63b8ff" d="M480,-274.75C480,-268.27 480,-259.16 480,-250.9"/>
<polygon fill="#63b8ff" stroke="#63b8ff" points="483.5,-250.96 480,-240.96 476.5,-250.96 483.5,-250.96"/>
</g>
<!-- Node16 -->
<g id="node16" class="node">
<title>Node16</title>
<g id="a_node16"><a xlink:href="DefaultLogger_8h.html" target="_top" xlink:title=" ">
<polygon fill="white" stroke="#666666" points="430.5,-184 345.5,-184 345.5,-165 430.5,-165 430.5,-184"/>
<text text-anchor="middle" x="388" y="-172" font-family="Helvetica,sans-Serif" font-size="10.00">DefaultLogger.h</text>
</a>
</g>
</g>
<!-- Node1&#45;&gt;Node16 -->
<g id="edge33" class="edge">
<title>Node1&#45;&gt;Node16</title>
<path fill="none" stroke="#63b8ff" d="M460.31,-274.54C445.53,-266.93 425.73,-254.75 413,-239 402.62,-226.16 396.13,-208.49 392.38,-195.04"/>
<polygon fill="#63b8ff" stroke="#63b8ff" points="395.84,-194.47 390.03,-185.62 389.05,-196.16 395.84,-194.47"/>
</g>
<!-- Node19 -->
<g id="node19" class="node">
<title>Node19</title>
<g id="a_node19"><a xlink:href="IMQTT__Client_8h.html" target="_top" xlink:title=" ">
<polygon fill="white" stroke="#666666" points="728.5,-239 643.5,-239 643.5,-220 728.5,-220 728.5,-239"/>
<text text-anchor="middle" x="686" y="-227" font-family="Helvetica,sans-Serif" font-size="10.00">IMQTT_Client.h</text>
</a>
</g>
</g>
<!-- Node1&#45;&gt;Node19 -->
<g id="edge26" class="edge">
<title>Node1&#45;&gt;Node19</title>
<path fill="none" stroke="#63b8ff" d="M514.95,-274.51C549.53,-265.61 602.63,-251.95 640.49,-242.21"/>
<polygon fill="#63b8ff" stroke="#63b8ff" points="640.95,-245.7 649.76,-239.82 639.21,-238.93 640.95,-245.7"/>
</g>
<!-- Node22 -->
<g id="node22" class="node">
<title>Node22</title>
<g id="a_node22"><a xlink:href="Telemetry_8h.html" target="_top" xlink:title=" ">
<polygon fill="white" stroke="#666666" points="157.5,-74 90.5,-74 90.5,-55 157.5,-55 157.5,-74"/>
<text text-anchor="middle" x="124" y="-62" font-family="Helvetica,sans-Serif" font-size="10.00">Telemetry.h</text>
</a>
</g>
</g>
<!-- Node1&#45;&gt;Node22 -->
<g id="edge34" class="edge">
<title>Node1&#45;&gt;Node22</title>
<path fill="none" stroke="#63b8ff" d="M454.64,-274.6C412.73,-259.32 327.2,-225.68 262,-184 213.9,-153.25 164.91,-106.83 140.28,-82.21"/>
<polygon fill="#63b8ff" stroke="#63b8ff" points="142.94,-79.92 133.42,-75.27 137.96,-84.84 142.94,-79.92"/>
</g>
<!-- Node3 -->
<g id="node3" class="node">
<title>Node3</title>
<g id="a_node3"><a xlink:href="Configuration_8h.html" target="_top" xlink:title=" ">
<polygon fill="white" stroke="#666666" points="523,-19 443,-19 443,0 523,0 523,-19"/>
<text text-anchor="middle" x="483" y="-7" font-family="Helvetica,sans-Serif" font-size="10.00">Configuration.h</text>
</a>
</g>
</g>
<!-- Node2&#45;&gt;Node3 -->
<g id="edge2" class="edge">
<title>Node2&#45;&gt;Node3</title>
<path fill="none" stroke="#63b8ff" d="M592.61,-54.51C571.43,-46.01 539.41,-33.15 515.44,-23.53"/>
<polygon fill="#63b8ff" stroke="#63b8ff" points="517.05,-20.4 506.47,-19.92 514.44,-26.9 517.05,-20.4"/>
</g>
<!-- Node4 -->
<g id="node4" class="node">
<title>Node4</title>
<g id="a_node4"><a xlink:title=" ">
<polygon fill="#e0e0e0" stroke="#999999" points="639,-19 591,-19 591,0 639,0 639,-19"/>
<text text-anchor="middle" x="615" y="-7" font-family="Helvetica,sans-Serif" font-size="10.00">stdint.h</text>
</a>
</g>
</g>
<!-- Node2&#45;&gt;Node4 -->
<g id="edge3" class="edge">
<title>Node2&#45;&gt;Node4</title>
<path fill="none" stroke="#63b8ff" d="M615,-54.75C615,-48.27 615,-39.16 615,-30.9"/>
<polygon fill="#63b8ff" stroke="#63b8ff" points="618.5,-30.96 615,-20.96 611.5,-30.96 618.5,-30.96"/>
</g>
<!-- Node5&#45;&gt;Node2 -->
<g id="edge20" class="edge">
<title>Node5&#45;&gt;Node2</title>
<path fill="none" stroke="#63b8ff" d="M493.42,-219.64C505.42,-211.32 523.05,-198.07 536,-184 565.18,-152.28 591.25,-108.82 604.91,-84.31"/>
<polygon fill="#63b8ff" stroke="#63b8ff" points="607.83,-86.27 609.56,-75.82 601.69,-82.91 607.83,-86.27"/>
</g>
<!-- Node6 -->
<g id="node6" class="node">
<title>Node6</title>
<g id="a_node6"><a xlink:href="Callback_8h.html" target="_top" xlink:title=" ">
<polygon fill="white" stroke="#666666" points="511,-184 449,-184 449,-165 511,-165 511,-184"/>
<text text-anchor="middle" x="480" y="-172" font-family="Helvetica,sans-Serif" font-size="10.00">Callback.h</text>
</a>
</g>
</g>
<!-- Node5&#45;&gt;Node6 -->
<g id="edge5" class="edge">
<title>Node5&#45;&gt;Node6</title>
<path fill="none" stroke="#63b8ff" d="M480,-219.75C480,-213.27 480,-204.16 480,-195.9"/>
<polygon fill="#63b8ff" stroke="#63b8ff" points="483.5,-195.96 480,-185.96 476.5,-195.96 483.5,-195.96"/>
</g>
<!-- Node5&#45;&gt;Node16 -->
<g id="edge21" class="edge">
<title>Node5&#45;&gt;Node16</title>
<path fill="none" stroke="#63b8ff" d="M464.39,-219.51C450.3,-211.39 429.31,-199.3 412.9,-189.85"/>
<polygon fill="#63b8ff" stroke="#63b8ff" points="415.1,-187.07 404.69,-185.11 411.61,-193.14 415.1,-187.07"/>
</g>
<!-- Node17 -->
<g id="node17" class="node">
<title>Node17</title>
<g id="a_node17"><a xlink:href="API__Process__Type_8h.html" target="_top" xlink:title=" ">
<polygon fill="white" stroke="#666666" points="563,-74 455,-74 455,-55 563,-55 563,-74"/>
<text text-anchor="middle" x="509" y="-62" font-family="Helvetica,sans-Serif" font-size="10.00">API_Process_Type.h</text>
</a>
</g>
</g>
<!-- Node5&#45;&gt;Node17 -->
<g id="edge23" class="edge">
<title>Node5&#45;&gt;Node17</title>
<path fill="none" stroke="#63b8ff" d="M491.64,-219.73C501.31,-211.67 514.35,-198.74 520,-184 532.6,-151.14 523.56,-109.56 516.11,-85.4"/>
<polygon fill="#63b8ff" stroke="#63b8ff" points="519.43,-84.31 512.95,-75.93 512.79,-86.52 519.43,-84.31"/>
</g>
<!-- Node18 -->
<g id="node18" class="node">
<title>Node18</title>
<g id="a_node18"><a xlink:title=" ">
<polygon fill="#e0e0e0" stroke="#999999" points="327,-184 271,-184 271,-165 327,-165 327,-184"/>
<text text-anchor="middle" x="299" y="-172" font-family="Helvetica,sans-Serif" font-size="10.00">algorithm</text>
</a>
</g>
</g>
<!-- Node5&#45;&gt;Node18 -->
<g id="edge25" class="edge">
<title>Node5&#45;&gt;Node18</title>
<path fill="none" stroke="#63b8ff" d="M449.3,-219.51C418.67,-210.54 371.5,-196.73 338.19,-186.97"/>
<polygon fill="#63b8ff" stroke="#63b8ff" points="339.5,-183.71 328.92,-184.26 337.53,-190.43 339.5,-183.71"/>
</g>
<!-- Node6&#45;&gt;Node3 -->
<g id="edge6" class="edge">
<title>Node6&#45;&gt;Node3</title>
<path fill="none" stroke="#63b8ff" d="M451.64,-164.59C425.36,-155.7 389.14,-141.58 381,-129 376.41,-121.91 377.72,-117.78 381,-110 396.62,-72.93 433.55,-42.81 458.41,-25.77"/>
<polygon fill="#63b8ff" stroke="#63b8ff" points="460.24,-28.75 466.65,-20.32 456.38,-22.92 460.24,-28.75"/>
</g>
<!-- Node7 -->
<g id="node7" class="node">
<title>Node7</title>
<g id="a_node7"><a xlink:title=" ">
<polygon fill="#e0e0e0" stroke="#999999" points="158,-19 80,-19 80,0 158,0 158,-19"/>
<text text-anchor="middle" x="119" y="-7" font-family="Helvetica,sans-Serif" font-size="10.00">ArduinoJson.h</text>
</a>
</g>
</g>
<!-- Node6&#45;&gt;Node7 -->
<g id="edge7" class="edge">
<title>Node6&#45;&gt;Node7</title>
<path fill="none" stroke="#63b8ff" d="M448.57,-166.78C445.67,-166.17 442.78,-165.57 440,-165 359.23,-148.43 332.23,-164.91 258,-129 244.11,-122.28 171.01,-57.3 136.75,-26.52"/>
<polygon fill="#63b8ff" stroke="#63b8ff" points="139.47,-24.25 129.69,-20.16 134.78,-29.45 139.47,-24.25"/>
</g>
<!-- Node8 -->
<g id="node8" class="node">
<title>Node8</title>
<g id="a_node8"><a xlink:title=" ">
<polygon fill="#e0e0e0" stroke="#999999" points="448.5,-129 389.5,-129 389.5,-110 448.5,-110 448.5,-129"/>
<text text-anchor="middle" x="419" y="-117" font-family="Helvetica,sans-Serif" font-size="10.00">functional</text>
</a>
</g>
</g>
<!-- Node6&#45;&gt;Node8 -->
<g id="edge8" class="edge">
<title>Node6&#45;&gt;Node8</title>
<path fill="none" stroke="#63b8ff" d="M469.65,-164.51C460.92,-156.93 448.21,-145.88 437.7,-136.75"/>
<polygon fill="#63b8ff" stroke="#63b8ff" points="440.18,-134.27 430.34,-130.35 435.59,-139.55 440.18,-134.27"/>
</g>
<!-- Node9 -->
<g id="node9" class="node">
<title>Node9</title>
<g id="a_node9"><a xlink:title=" ">
<polygon fill="#e0e0e0" stroke="#999999" points="511,-129 467,-129 467,-110 511,-110 511,-129"/>
<text text-anchor="middle" x="489" y="-117" font-family="Helvetica,sans-Serif" font-size="10.00">vector</text>
</a>
</g>
</g>
<!-- Node6&#45;&gt;Node9 -->
<g id="edge9" class="edge">
<title>Node6&#45;&gt;Node9</title>
<path fill="none" stroke="#63b8ff" d="M481.49,-164.75C482.6,-158.19 484.17,-148.95 485.59,-140.6"/>
<polygon fill="#63b8ff" stroke="#63b8ff" points="489,-141.38 487.23,-130.93 482.1,-140.21 489,-141.38"/>
</g>
<!-- Node10 -->
<g id="node10" class="node">
<title>Node10</title>
<g id="a_node10"><a xlink:href="Container_8h.html" target="_top" xlink:title=" ">
<polygon fill="white" stroke="#666666" points="332.5,-129 267.5,-129 267.5,-110 332.5,-110 332.5,-129"/>
<text text-anchor="middle" x="300" y="-117" font-family="Helvetica,sans-Serif" font-size="10.00">Container.h</text>
</a>
</g>
</g>
<!-- Node6&#45;&gt;Node10 -->
<g id="edge10" class="edge">
<title>Node6&#45;&gt;Node10</title>
<path fill="none" stroke="#63b8ff" d="M449.47,-164.51C419.64,-155.73 374.04,-142.3 341.05,-132.59"/>
<polygon fill="#63b8ff" stroke="#63b8ff" points="342.42,-129.34 331.84,-129.87 340.44,-136.06 342.42,-129.34"/>
</g>
<!-- Node11 -->
<g id="node11" class="node">
<title>Node11</title>
<g id="a_node11"><a xlink:href="Helper_8h.html" target="_top" xlink:title=" ">
<polygon fill="white" stroke="#666666" points="294.5,-74 241.5,-74 241.5,-55 294.5,-55 294.5,-74"/>
<text text-anchor="middle" x="268" y="-62" font-family="Helvetica,sans-Serif" font-size="10.00">Helper.h</text>
</a>
</g>
</g>
<!-- Node10&#45;&gt;Node11 -->
<g id="edge11" class="edge">
<title>Node10&#45;&gt;Node11</title>
<path fill="none" stroke="#63b8ff" d="M294.72,-109.75C290.53,-102.81 284.52,-92.86 279.27,-84.16"/>
<polygon fill="#63b8ff" stroke="#63b8ff" points="282.35,-82.49 274.18,-75.74 276.35,-86.11 282.35,-82.49"/>
</g>
<!-- Node13 -->
<g id="node13" class="node">
<title>Node13</title>
<g id="a_node13"><a xlink:title=" ">
<polygon fill="#e0e0e0" stroke="#999999" points="424.5,-19 373.5,-19 373.5,0 424.5,0 424.5,-19"/>
<text text-anchor="middle" x="399" y="-7" font-family="Helvetica,sans-Serif" font-size="10.00">assert.h</text>
</a>
</g>
</g>
<!-- Node10&#45;&gt;Node13 -->
<g id="edge19" class="edge">
<title>Node10&#45;&gt;Node13</title>
<path fill="none" stroke="#63b8ff" d="M305.52,-109.81C313.77,-97.12 330.17,-73.06 347,-55 356.58,-44.72 368.4,-34.45 378.35,-26.36"/>
<polygon fill="#63b8ff" stroke="#63b8ff" points="380.33,-29.26 385.99,-20.3 375.98,-23.77 380.33,-29.26"/>
</g>
<!-- Node11&#45;&gt;Node3 -->
<g id="edge12" class="edge">
<title>Node11&#45;&gt;Node3</title>
<path fill="none" stroke="#63b8ff" d="M294.8,-56.89C329.93,-48.23 392.16,-32.89 435.41,-22.23"/>
<polygon fill="#63b8ff" stroke="#63b8ff" points="436.17,-25.65 445.04,-19.86 434.49,-18.85 436.17,-25.65"/>
</g>
<!-- Node11&#45;&gt;Node4 -->
<g id="edge15" class="edge">
<title>Node11&#45;&gt;Node4</title>
<path fill="none" stroke="#63b8ff" d="M294.94,-59.39C356.96,-49.91 509.82,-26.56 579.44,-15.93"/>
<polygon fill="#63b8ff" stroke="#63b8ff" points="579.8,-19.42 589.15,-14.45 578.74,-12.5 579.8,-19.42"/>
</g>
<!-- Node11&#45;&gt;Node7 -->
<g id="edge13" class="edge">
<title>Node11&#45;&gt;Node7</title>
<path fill="none" stroke="#63b8ff" d="M242.72,-54.51C218.5,-45.89 181.7,-32.8 154.53,-23.14"/>
<polygon fill="#63b8ff" stroke="#63b8ff" points="155.92,-19.92 145.33,-19.87 153.58,-26.51 155.92,-19.92"/>
</g>
<!-- Node12 -->
<g id="node12" class="node">
<title>Node12</title>
<g id="a_node12"><a xlink:title=" ">
<polygon fill="#e0e0e0" stroke="#999999" points="355.5,-19 308.5,-19 308.5,0 355.5,0 355.5,-19"/>
<text text-anchor="middle" x="332" y="-7" font-family="Helvetica,sans-Serif" font-size="10.00">iterator</text>
</a>
</g>
</g>
<!-- Node11&#45;&gt;Node12 -->
<g id="edge14" class="edge">
<title>Node11&#45;&gt;Node12</title>
<path fill="none" stroke="#63b8ff" d="M278.86,-54.51C288.11,-46.85 301.62,-35.66 312.71,-26.47"/>
<polygon fill="#63b8ff" stroke="#63b8ff" points="314.67,-29.4 320.14,-20.32 310.2,-24.01 314.67,-29.4"/>
</g>
<!-- Node11&#45;&gt;Node13 -->
<g id="edge16" class="edge">
<title>Node11&#45;&gt;Node13</title>
<path fill="none" stroke="#63b8ff" d="M290.22,-54.51C311.14,-46.04 342.73,-33.27 366.48,-23.66"/>
<polygon fill="#63b8ff" stroke="#63b8ff" points="367.75,-26.92 375.7,-19.93 365.12,-20.43 367.75,-26.92"/>
</g>
<!-- Node14 -->
<g id="node14" class="node">
<title>Node14</title>
<g id="a_node14"><a xlink:title=" ">
<polygon fill="#e0e0e0" stroke="#999999" points="227.5,-19 176.5,-19 176.5,0 227.5,0 227.5,-19"/>
<text text-anchor="middle" x="202" y="-7" font-family="Helvetica,sans-Serif" font-size="10.00">stdarg.h</text>
</a>
</g>
</g>
<!-- Node11&#45;&gt;Node14 -->
<g id="edge17" class="edge">
<title>Node11&#45;&gt;Node14</title>
<path fill="none" stroke="#63b8ff" d="M256.8,-54.51C247.26,-46.85 233.33,-35.66 221.89,-26.47"/>
<polygon fill="#63b8ff" stroke="#63b8ff" points="224.2,-23.84 214.21,-20.31 219.82,-29.3 224.2,-23.84"/>
</g>
<!-- Node15 -->
<g id="node15" class="node">
<title>Node15</title>
<g id="a_node15"><a xlink:title=" ">
<polygon fill="#e0e0e0" stroke="#999999" points="290.5,-19 245.5,-19 245.5,0 290.5,0 290.5,-19"/>
<text text-anchor="middle" x="268" y="-7" font-family="Helvetica,sans-Serif" font-size="10.00">stdio.h</text>
</a>
</g>
</g>
<!-- Node11&#45;&gt;Node15 -->
<g id="edge18" class="edge">
<title>Node11&#45;&gt;Node15</title>
<path fill="none" stroke="#63b8ff" d="M268,-54.75C268,-48.27 268,-39.16 268,-30.9"/>
<polygon fill="#63b8ff" stroke="#63b8ff" points="271.5,-30.96 268,-20.96 264.5,-30.96 271.5,-30.96"/>
</g>
<!-- Node16&#45;&gt;Node11 -->
<g id="edge22" class="edge">
<title>Node16&#45;&gt;Node11</title>
<path fill="none" stroke="#63b8ff" d="M345.62,-164.58C311.82,-156.5 268.47,-143.65 258,-129 248.77,-116.09 252.88,-97.93 258.36,-84.34"/>
<polygon fill="#63b8ff" stroke="#63b8ff" points="261.38,-86.13 262.38,-75.58 255.03,-83.21 261.38,-86.13"/>
</g>
<!-- Node17&#45;&gt;Node4 -->
<g id="edge24" class="edge">
<title>Node17&#45;&gt;Node4</title>
<path fill="none" stroke="#63b8ff" d="M526.98,-54.51C543.45,-46.27 568.09,-33.96 587.11,-24.45"/>
<polygon fill="#63b8ff" stroke="#63b8ff" points="588.55,-27.64 595.93,-20.03 585.42,-21.38 588.55,-27.64"/>
</g>
<!-- Node19&#45;&gt;Node6 -->
<g id="edge27" class="edge">
<title>Node19&#45;&gt;Node6</title>
<path fill="none" stroke="#63b8ff" d="M651.05,-219.51C615.43,-210.34 560.14,-196.12 522.12,-186.34"/>
<polygon fill="#63b8ff" stroke="#63b8ff" points="523.42,-183.06 512.86,-183.96 521.68,-189.84 523.42,-183.06"/>
</g>
<!-- Node19&#45;&gt;Node16 -->
<g id="edge28" class="edge">
<title>Node19&#45;&gt;Node16</title>
<path fill="none" stroke="#63b8ff" d="M643.3,-220.91C590.19,-211.46 499.49,-195.33 441.71,-185.05"/>
<polygon fill="#63b8ff" stroke="#63b8ff" points="442.57,-181.65 432.11,-183.34 441.34,-188.54 442.57,-181.65"/>
</g>
<!-- Node20 -->
<g id="node20" class="node">
<title>Node20</title>
<g id="a_node20"><a xlink:href="MQTT__Connection__State_8h.html" target="_top" xlink:title=" ">
<polygon fill="white" stroke="#666666" points="862,-129 728,-129 728,-110 862,-110 862,-129"/>
<text text-anchor="middle" x="795" y="-117" font-family="Helvetica,sans-Serif" font-size="10.00">MQTT_Connection_State.h</text>
</a>
</g>
</g>
<!-- Node19&#45;&gt;Node20 -->
<g id="edge29" class="edge">
<title>Node19&#45;&gt;Node20</title>
<path fill="none" stroke="#63b8ff" d="M726.98,-219.51C747.15,-212.99 770.06,-202.04 784,-184 793.44,-171.79 795.9,-154.31 796.16,-140.77"/>
<polygon fill="#63b8ff" stroke="#63b8ff" points="799.66,-140.74 795.93,-130.82 792.66,-140.9 799.66,-140.74"/>
</g>
<!-- Node21 -->
<g id="node21" class="node">
<title>Node21</title>
<g id="a_node21"><a xlink:href="MQTT__Connection__Error_8h.html" target="_top" xlink:title=" ">
<polygon fill="white" stroke="#666666" points="774.5,-184 643.5,-184 643.5,-165 774.5,-165 774.5,-184"/>
<text text-anchor="middle" x="709" y="-172" font-family="Helvetica,sans-Serif" font-size="10.00">MQTT_Connection_Error.h</text>
</a>
</g>
</g>
<!-- Node19&#45;&gt;Node21 -->
<g id="edge31" class="edge">
<title>Node19&#45;&gt;Node21</title>
<path fill="none" stroke="#63b8ff" d="M689.8,-219.75C692.74,-212.96 696.94,-203.3 700.65,-194.73"/>
<polygon fill="#63b8ff" stroke="#63b8ff" points="703.75,-196.4 704.52,-185.83 697.33,-193.61 703.75,-196.4"/>
</g>
<!-- Node20&#45;&gt;Node4 -->
<g id="edge30" class="edge">
<title>Node20&#45;&gt;Node4</title>
<path fill="none" stroke="#63b8ff" d="M782.52,-109.68C764.44,-97.03 729.76,-73.26 699,-55 680.72,-44.15 659.58,-32.95 643.07,-24.51"/>
<polygon fill="#63b8ff" stroke="#63b8ff" points="644.83,-21.47 634.32,-20.07 641.66,-27.71 644.83,-21.47"/>
</g>
<!-- Node21&#45;&gt;Node4 -->
<g id="edge32" class="edge">
<title>Node21&#45;&gt;Node4</title>
<path fill="none" stroke="#63b8ff" d="M706.4,-164.63C700.16,-144.15 682.95,-92.47 658,-55 651.18,-44.75 641.85,-34.77 633.63,-26.86"/>
<polygon fill="#63b8ff" stroke="#63b8ff" points="636.14,-24.42 626.42,-20.21 631.39,-29.56 636.14,-24.42"/>
</g>
<!-- Node22&#45;&gt;Node3 -->
<g id="edge35" class="edge">
<title>Node22&#45;&gt;Node3</title>
<path fill="none" stroke="#63b8ff" d="M157.99,-58.95C213.14,-51.5 325.8,-35.98 431.45,-19.37"/>
<polygon fill="#63b8ff" stroke="#63b8ff" points="431.81,-22.85 441.14,-17.83 430.72,-15.94 431.81,-22.85"/>
</g>
<!-- Node22&#45;&gt;Node7 -->
<g id="edge36" class="edge">
<title>Node22&#45;&gt;Node7</title>
<path fill="none" stroke="#63b8ff" d="M123.17,-54.75C122.56,-48.27 121.7,-39.16 120.92,-30.9"/>
<polygon fill="#63b8ff" stroke="#63b8ff" points="124.41,-30.58 119.99,-20.95 117.44,-31.23 124.41,-30.58"/>
</g>
<!-- Node23 -->
<g id="node23" class="node">
<title>Node23</title>
<g id="a_node23"><a xlink:title=" ">
<polygon fill="#e0e0e0" stroke="#999999" points="62,-19 0,-19 0,0 62,0 62,-19"/>
<text text-anchor="middle" x="31" y="-7" font-family="Helvetica,sans-Serif" font-size="10.00">type_traits</text>
</a>
</g>
</g>
<!-- Node22&#45;&gt;Node23 -->
<g id="edge37" class="edge">
<title>Node22&#45;&gt;Node23</title>
<path fill="none" stroke="#63b8ff" d="M108.22,-54.51C93.98,-46.39 72.76,-34.3 56.17,-24.85"/>
<polygon fill="#63b8ff" stroke="#63b8ff" points="58.28,-22.02 47.86,-20.11 54.81,-28.1 58.28,-22.02"/>
</g>
</g>
</svg>
