<?xml version="1.0" encoding="UTF-8" standalone="no"?>
<!DOCTYPE svg PUBLIC "-//W3C//DTD SVG 1.1//EN"
 "http://www.w3.org/Graphics/SVG/1.1/DTD/svg11.dtd">
<!-- Generated by graphviz version 7.0.5 (20221223.1930)
 -->
<!-- Title: src/ThingsBoard.h Pages: 1 -->
<svg width="838pt" height="302pt"
 viewBox="0.00 0.00 837.99 302.00" xmlns="http://www.w3.org/2000/svg" xmlns:xlink="http://www.w3.org/1999/xlink">
<g id="graph0" class="graph" transform="scale(1 1) rotate(0) translate(4 298)">
<title>src/ThingsBoard.h</title>
<!-- Node1 -->
<g id="node1" class="node">
<title>Node1</title>
<g id="a_node1"><a xlink:title=" ">
<polygon fill="#999999" stroke="#666666" points="305.99,-294 210.99,-294 210.99,-275 305.99,-275 305.99,-294"/>
<text text-anchor="middle" x="258.49" y="-282" font-family="Helvetica,sans-Serif" font-size="10.00">src/ThingsBoard.h</text>
</a>
</g>
</g>
<!-- Node2 -->
<g id="node2" class="node">
<title>Node2</title>
<g id="a_node2"><a xlink:href="Constants_8h.html" target="_top" xlink:title=" ">
<polygon fill="white" stroke="#666666" points="86.49,-184 18.49,-184 18.49,-165 86.49,-165 86.49,-184"/>
<text text-anchor="middle" x="52.49" y="-172" font-family="Helvetica,sans-Serif" font-size="10.00">Constants.h</text>
</a>
</g>
</g>
<!-- Node1&#45;&gt;Node2 -->
<g id="edge1" class="edge">
<title>Node1&#45;&gt;Node2</title>
<path fill="none" stroke="#63b8ff" d="M241.63,-274.66C206.02,-255.99 122.87,-212.4 79.66,-189.74"/>
<polygon fill="#63b8ff" stroke="#63b8ff" points="81.41,-186.71 70.92,-185.16 78.15,-192.91 81.41,-186.71"/>
</g>
<!-- Node5 -->
<g id="node5" class="node">
<title>Node5</title>
<g id="a_node5"><a xlink:href="IAPI__Implementation_8h.html" target="_top" xlink:title=" ">
<polygon fill="white" stroke="#666666" points="316.49,-239 200.49,-239 200.49,-220 316.49,-220 316.49,-239"/>
<text text-anchor="middle" x="258.49" y="-227" font-family="Helvetica,sans-Serif" font-size="10.00">IAPI_Implementation.h</text>
</a>
</g>
</g>
<!-- Node1&#45;&gt;Node5 -->
<g id="edge4" class="edge">
<title>Node1&#45;&gt;Node5</title>
<path fill="none" stroke="#63b8ff" d="M258.49,-274.75C258.49,-268.27 258.49,-259.16 258.49,-250.9"/>
<polygon fill="#63b8ff" stroke="#63b8ff" points="261.99,-250.96 258.49,-240.96 254.99,-250.96 261.99,-250.96"/>
</g>
<!-- Node16 -->
<g id="node16" class="node">
<title>Node16</title>
<g id="a_node16"><a xlink:href="DefaultLogger_8h.html" target="_top" xlink:title=" ">
<polygon fill="white" stroke="#666666" points="771.99,-184 686.99,-184 686.99,-165 771.99,-165 771.99,-184"/>
<text text-anchor="middle" x="729.49" y="-172" font-family="Helvetica,sans-Serif" font-size="10.00">DefaultLogger.h</text>
</a>
</g>
</g>
<!-- Node1&#45;&gt;Node16 -->
<g id="edge32" class="edge">
<title>Node1&#45;&gt;Node16</title>
<path fill="none" stroke="#63b8ff" d="M306.45,-280.41C368.85,-275.56 480.84,-263.99 573.49,-239 619.76,-226.52 670.72,-204 701.4,-189.4"/>
<polygon fill="#63b8ff" stroke="#63b8ff" points="702.89,-192.57 710.38,-185.08 699.85,-186.27 702.89,-192.57"/>
</g>
<!-- Node19 -->
<g id="node19" class="node">
<title>Node19</title>
<g id="a_node19"><a xlink:href="IMQTT__Client_8h.html" target="_top" xlink:title=" ">
<polygon fill="white" stroke="#666666" points="563.99,-239 478.99,-239 478.99,-220 563.99,-220 563.99,-239"/>
<text text-anchor="middle" x="521.49" y="-227" font-family="Helvetica,sans-Serif" font-size="10.00">IMQTT_Client.h</text>
</a>
</g>
</g>
<!-- Node1&#45;&gt;Node19 -->
<g id="edge25" class="edge">
<title>Node1&#45;&gt;Node19</title>
<path fill="none" stroke="#63b8ff" d="M303.11,-274.51C348.56,-265.35 419.08,-251.14 467.62,-241.36"/>
<polygon fill="#63b8ff" stroke="#63b8ff" points="468.25,-244.8 477.36,-239.39 466.86,-237.94 468.25,-244.8"/>
</g>
<!-- Node22 -->
<g id="node22" class="node">
<title>Node22</title>
<g id="a_node22"><a xlink:href="Telemetry_8h.html" target="_top" xlink:title=" ">
<polygon fill="white" stroke="#666666" points="289.99,-74 222.99,-74 222.99,-55 289.99,-55 289.99,-74"/>
<text text-anchor="middle" x="256.49" y="-62" font-family="Helvetica,sans-Serif" font-size="10.00">Telemetry.h</text>
</a>
</g>
</g>
<!-- Node1&#45;&gt;Node22 -->
<g id="edge33" class="edge">
<title>Node1&#45;&gt;Node22</title>
<path fill="none" stroke="#63b8ff" d="M210.72,-280.04C151.77,-272.91 53.92,-251.03 9.49,-184 -41.51,-107.04 126.86,-78.66 211.23,-69.43"/>
<polygon fill="#63b8ff" stroke="#63b8ff" points="211.46,-72.93 221.04,-68.41 210.74,-65.97 211.46,-72.93"/>
</g>
<!-- Node3 -->
<g id="node3" class="node">
<title>Node3</title>
<g id="a_node3"><a xlink:href="Configuration_8h.html" target="_top" xlink:title=" ">
<polygon fill="white" stroke="#666666" points="424.49,-19 344.49,-19 344.49,0 424.49,0 424.49,-19"/>
<text text-anchor="middle" x="384.49" y="-7" font-family="Helvetica,sans-Serif" font-size="10.00">Configuration.h</text>
</a>
</g>
</g>
<!-- Node2&#45;&gt;Node3 -->
<g id="edge2" class="edge">
<title>Node2&#45;&gt;Node3</title>
<path fill="none" stroke="#63b8ff" d="M81.22,-164.51C128.25,-149.23 223.92,-115.73 298.49,-74 323,-60.29 348.58,-40.6 365.4,-26.79"/>
<polygon fill="#63b8ff" stroke="#63b8ff" points="367.62,-29.5 373.06,-20.4 363.14,-24.12 367.62,-29.5"/>
</g>
<!-- Node4 -->
<g id="node4" class="node">
<title>Node4</title>
<g id="a_node4"><a xlink:title=" ">
<polygon fill="#e0e0e0" stroke="#999999" points="394.49,-129 346.49,-129 346.49,-110 394.49,-110 394.49,-129"/>
<text text-anchor="middle" x="370.49" y="-117" font-family="Helvetica,sans-Serif" font-size="10.00">stdint.h</text>
</a>
</g>
</g>
<!-- Node2&#45;&gt;Node4 -->
<g id="edge3" class="edge">
<title>Node2&#45;&gt;Node4</title>
<path fill="none" stroke="#63b8ff" d="M86.73,-166.59C89.69,-166.03 92.64,-165.5 95.49,-165 200.44,-146.67 227.78,-148.64 332.49,-129 333.31,-128.85 334.15,-128.69 334.98,-128.52"/>
<polygon fill="#63b8ff" stroke="#63b8ff" points="335.45,-132 344.53,-126.54 334.03,-125.15 335.45,-132"/>
</g>
<!-- Node5&#45;&gt;Node2 -->
<g id="edge19" class="edge">
<title>Node5&#45;&gt;Node2</title>
<path fill="none" stroke="#63b8ff" d="M223.55,-219.51C188.86,-210.59 135.54,-196.87 97.66,-187.12"/>
<polygon fill="#63b8ff" stroke="#63b8ff" points="98.94,-183.84 88.39,-184.74 97.2,-190.62 98.94,-183.84"/>
</g>
<!-- Node6 -->
<g id="node6" class="node">
<title>Node6</title>
<g id="a_node6"><a xlink:href="Callback_8h.html" target="_top" xlink:title=" ">
<polygon fill="white" stroke="#666666" points="668.49,-184 606.49,-184 606.49,-165 668.49,-165 668.49,-184"/>
<text text-anchor="middle" x="637.49" y="-172" font-family="Helvetica,sans-Serif" font-size="10.00">Callback.h</text>
</a>
</g>
</g>
<!-- Node5&#45;&gt;Node6 -->
<g id="edge5" class="edge">
<title>Node5&#45;&gt;Node6</title>
<path fill="none" stroke="#63b8ff" d="M316.89,-222.25C382.23,-214.94 491.48,-201.78 594.82,-184.34"/>
<polygon fill="#63b8ff" stroke="#63b8ff" points="595.33,-187.8 604.6,-182.67 594.16,-180.9 595.33,-187.8"/>
</g>
<!-- Node5&#45;&gt;Node16 -->
<g id="edge20" class="edge">
<title>Node5&#45;&gt;Node16</title>
<path fill="none" stroke="#63b8ff" d="M316.91,-223.34C395.78,-216.15 540.96,-202.08 675.36,-184.21"/>
<polygon fill="#63b8ff" stroke="#63b8ff" points="675.73,-187.69 685.17,-182.9 674.8,-180.76 675.73,-187.69"/>
</g>
<!-- Node17 -->
<g id="node17" class="node">
<title>Node17</title>
<g id="a_node17"><a xlink:href="API__Process__Type_8h.html" target="_top" xlink:title=" ">
<polygon fill="white" stroke="#666666" points="212.49,-184 104.49,-184 104.49,-165 212.49,-165 212.49,-184"/>
<text text-anchor="middle" x="158.49" y="-172" font-family="Helvetica,sans-Serif" font-size="10.00">API_Process_Type.h</text>
</a>
</g>
</g>
<!-- Node5&#45;&gt;Node17 -->
<g id="edge22" class="edge">
<title>Node5&#45;&gt;Node17</title>
<path fill="none" stroke="#63b8ff" d="M241.53,-219.51C226.14,-211.35 203.18,-199.19 185.31,-189.71"/>
<polygon fill="#63b8ff" stroke="#63b8ff" points="187.02,-186.66 176.54,-185.07 183.74,-192.84 187.02,-186.66"/>
</g>
<!-- Node18 -->
<g id="node18" class="node">
<title>Node18</title>
<g id="a_node18"><a xlink:title=" ">
<polygon fill="#e0e0e0" stroke="#999999" points="286.49,-184 230.49,-184 230.49,-165 286.49,-165 286.49,-184"/>
<text text-anchor="middle" x="258.49" y="-172" font-family="Helvetica,sans-Serif" font-size="10.00">algorithm</text>
</a>
</g>
</g>
<!-- Node5&#45;&gt;Node18 -->
<g id="edge24" class="edge">
<title>Node5&#45;&gt;Node18</title>
<path fill="none" stroke="#63b8ff" d="M258.49,-219.75C258.49,-213.27 258.49,-204.16 258.49,-195.9"/>
<polygon fill="#63b8ff" stroke="#63b8ff" points="261.99,-195.96 258.49,-185.96 254.99,-195.96 261.99,-195.96"/>
</g>
<!-- Node6&#45;&gt;Node3 -->
<g id="edge6" class="edge">
<title>Node6&#45;&gt;Node3</title>
<path fill="none" stroke="#63b8ff" d="M606.07,-166.76C554.21,-155.54 455.76,-133.77 449.49,-129 416.45,-103.84 398.03,-56.84 389.81,-30.21"/>
<polygon fill="#63b8ff" stroke="#63b8ff" points="393.2,-29.36 387.07,-20.72 386.48,-31.3 393.2,-29.36"/>
</g>
<!-- Node7 -->
<g id="node7" class="node">
<title>Node7</title>
<g id="a_node7"><a xlink:href="Container_8h.html" target="_top" xlink:title=" ">
<polygon fill="white" stroke="#666666" points="700.99,-129 635.99,-129 635.99,-110 700.99,-110 700.99,-129"/>
<text text-anchor="middle" x="668.49" y="-117" font-family="Helvetica,sans-Serif" font-size="10.00">Container.h</text>
</a>
</g>
</g>
<!-- Node6&#45;&gt;Node7 -->
<g id="edge7" class="edge">
<title>Node6&#45;&gt;Node7</title>
<path fill="none" stroke="#63b8ff" d="M642.61,-164.75C646.67,-157.81 652.49,-147.86 657.58,-139.16"/>
<polygon fill="#63b8ff" stroke="#63b8ff" points="660.47,-141.15 662.5,-130.75 654.43,-137.61 660.47,-141.15"/>
</g>
<!-- Node9 -->
<g id="node9" class="node">
<title>Node9</title>
<g id="a_node9"><a xlink:title=" ">
<polygon fill="#e0e0e0" stroke="#999999" points="563.49,-19 485.49,-19 485.49,0 563.49,0 563.49,-19"/>
<text text-anchor="middle" x="524.49" y="-7" font-family="Helvetica,sans-Serif" font-size="10.00">ArduinoJson.h</text>
</a>
</g>
</g>
<!-- Node6&#45;&gt;Node9 -->
<g id="edge16" class="edge">
<title>Node6&#45;&gt;Node9</title>
<path fill="none" stroke="#63b8ff" d="M606.08,-164.93C587.22,-158.18 564.27,-146.87 550.49,-129 528.26,-100.17 524.19,-56.24 523.9,-30.75"/>
<polygon fill="#63b8ff" stroke="#63b8ff" points="527.4,-30.83 524,-20.79 520.4,-30.76 527.4,-30.83"/>
</g>
<!-- Node14 -->
<g id="node14" class="node">
<title>Node14</title>
<g id="a_node14"><a xlink:title=" ">
<polygon fill="#e0e0e0" stroke="#999999" points="617.99,-129 558.99,-129 558.99,-110 617.99,-110 617.99,-129"/>
<text text-anchor="middle" x="588.49" y="-117" font-family="Helvetica,sans-Serif" font-size="10.00">functional</text>
</a>
</g>
</g>
<!-- Node6&#45;&gt;Node14 -->
<g id="edge17" class="edge">
<title>Node6&#45;&gt;Node14</title>
<path fill="none" stroke="#63b8ff" d="M629.4,-164.75C622.63,-157.43 612.77,-146.76 604.43,-137.74"/>
<polygon fill="#63b8ff" stroke="#63b8ff" points="607.15,-135.52 597.79,-130.55 602.01,-140.27 607.15,-135.52"/>
</g>
<!-- Node15 -->
<g id="node15" class="node">
<title>Node15</title>
<g id="a_node15"><a xlink:title=" ">
<polygon fill="#e0e0e0" stroke="#999999" points="502.49,-129 458.49,-129 458.49,-110 502.49,-110 502.49,-129"/>
<text text-anchor="middle" x="480.49" y="-117" font-family="Helvetica,sans-Serif" font-size="10.00">vector</text>
</a>
</g>
</g>
<!-- Node6&#45;&gt;Node15 -->
<g id="edge18" class="edge">
<title>Node6&#45;&gt;Node15</title>
<path fill="none" stroke="#63b8ff" d="M610.86,-164.51C583.98,-155.44 542.42,-141.41 513.48,-131.63"/>
<polygon fill="#63b8ff" stroke="#63b8ff" points="514.71,-128.36 504.11,-128.47 512.47,-134.99 514.71,-128.36"/>
</g>
<!-- Node8 -->
<g id="node8" class="node">
<title>Node8</title>
<g id="a_node8"><a xlink:href="Helper_8h.html" target="_top" xlink:title=" ">
<polygon fill="white" stroke="#666666" points="697.99,-74 644.99,-74 644.99,-55 697.99,-55 697.99,-74"/>
<text text-anchor="middle" x="671.49" y="-62" font-family="Helvetica,sans-Serif" font-size="10.00">Helper.h</text>
</a>
</g>
</g>
<!-- Node7&#45;&gt;Node8 -->
<g id="edge8" class="edge">
<title>Node7&#45;&gt;Node8</title>
<path fill="none" stroke="#63b8ff" d="M668.99,-109.75C669.35,-103.27 669.87,-94.16 670.34,-85.9"/>
<polygon fill="#63b8ff" stroke="#63b8ff" points="673.83,-86.13 670.9,-75.95 666.84,-85.74 673.83,-86.13"/>
</g>
<!-- Node11 -->
<g id="node11" class="node">
<title>Node11</title>
<g id="a_node11"><a xlink:title=" ">
<polygon fill="#e0e0e0" stroke="#999999" points="632.99,-19 581.99,-19 581.99,0 632.99,0 632.99,-19"/>
<text text-anchor="middle" x="607.49" y="-7" font-family="Helvetica,sans-Serif" font-size="10.00">assert.h</text>
</a>
</g>
</g>
<!-- Node7&#45;&gt;Node11 -->
<g id="edge15" class="edge">
<title>Node7&#45;&gt;Node11</title>
<path fill="none" stroke="#63b8ff" d="M661.33,-109.65C654.46,-100.91 644.04,-87 636.49,-74 628.2,-59.72 620.52,-42.64 615.15,-29.8"/>
<polygon fill="#63b8ff" stroke="#63b8ff" points="618.49,-28.74 611.48,-20.8 612.01,-31.38 618.49,-28.74"/>
</g>
<!-- Node8&#45;&gt;Node3 -->
<g id="edge9" class="edge">
<title>Node8&#45;&gt;Node3</title>
<path fill="none" stroke="#63b8ff" d="M644.75,-58.56C597.2,-49.78 497.18,-31.31 435.92,-20"/>
<polygon fill="#63b8ff" stroke="#63b8ff" points="436.91,-16.62 426.44,-18.25 435.64,-23.5 436.91,-16.62"/>
</g>
<!-- Node8&#45;&gt;Node9 -->
<g id="edge10" class="edge">
<title>Node8&#45;&gt;Node9</title>
<path fill="none" stroke="#63b8ff" d="M646.56,-54.51C622.65,-45.89 586.35,-32.8 559.54,-23.14"/>
<polygon fill="#63b8ff" stroke="#63b8ff" points="561.08,-19.97 550.48,-19.87 558.7,-26.56 561.08,-19.97"/>
</g>
<!-- Node10 -->
<g id="node10" class="node">
<title>Node10</title>
<g id="a_node10"><a xlink:title=" ">
<polygon fill="#e0e0e0" stroke="#999999" points="697.99,-19 650.99,-19 650.99,0 697.99,0 697.99,-19"/>
<text text-anchor="middle" x="674.49" y="-7" font-family="Helvetica,sans-Serif" font-size="10.00">iterator</text>
</a>
</g>
</g>
<!-- Node8&#45;&gt;Node10 -->
<g id="edge11" class="edge">
<title>Node8&#45;&gt;Node10</title>
<path fill="none" stroke="#63b8ff" d="M671.99,-54.75C672.35,-48.27 672.87,-39.16 673.34,-30.9"/>
<polygon fill="#63b8ff" stroke="#63b8ff" points="676.83,-31.13 673.9,-20.95 669.84,-30.74 676.83,-31.13"/>
</g>
<!-- Node8&#45;&gt;Node11 -->
<g id="edge12" class="edge">
<title>Node8&#45;&gt;Node11</title>
<path fill="none" stroke="#63b8ff" d="M660.64,-54.51C651.39,-46.85 637.87,-35.66 626.78,-26.47"/>
<polygon fill="#63b8ff" stroke="#63b8ff" points="629.29,-24.01 619.35,-20.32 624.82,-29.4 629.29,-24.01"/>
</g>
<!-- Node12 -->
<g id="node12" class="node">
<title>Node12</title>
<g id="a_node12"><a xlink:title=" ">
<polygon fill="#e0e0e0" stroke="#999999" points="766.99,-19 715.99,-19 715.99,0 766.99,0 766.99,-19"/>
<text text-anchor="middle" x="741.49" y="-7" font-family="Helvetica,sans-Serif" font-size="10.00">stdarg.h</text>
</a>
</g>
</g>
<!-- Node8&#45;&gt;Node12 -->
<g id="edge13" class="edge">
<title>Node8&#45;&gt;Node12</title>
<path fill="none" stroke="#63b8ff" d="M683.37,-54.51C693.59,-46.77 708.56,-35.43 720.76,-26.2"/>
<polygon fill="#63b8ff" stroke="#63b8ff" points="722.73,-29.1 728.59,-20.27 718.5,-23.52 722.73,-29.1"/>
</g>
<!-- Node13 -->
<g id="node13" class="node">
<title>Node13</title>
<g id="a_node13"><a xlink:title=" ">
<polygon fill="#e0e0e0" stroke="#999999" points="829.99,-19 784.99,-19 784.99,0 829.99,0 829.99,-19"/>
<text text-anchor="middle" x="807.49" y="-7" font-family="Helvetica,sans-Serif" font-size="10.00">stdio.h</text>
</a>
</g>
</g>
<!-- Node8&#45;&gt;Node13 -->
<g id="edge14" class="edge">
<title>Node8&#45;&gt;Node13</title>
<path fill="none" stroke="#63b8ff" d="M694.56,-54.51C716.38,-46.01 749.37,-33.15 774.07,-23.53"/>
<polygon fill="#63b8ff" stroke="#63b8ff" points="775.31,-26.8 783.35,-19.91 772.76,-20.28 775.31,-26.8"/>
</g>
<!-- Node16&#45;&gt;Node8 -->
<g id="edge21" class="edge">
<title>Node16&#45;&gt;Node8</title>
<path fill="none" stroke="#63b8ff" d="M728.11,-164.83C725.84,-152.16 720.52,-128.13 710.49,-110 704.99,-100.05 696.95,-90.38 689.61,-82.62"/>
<polygon fill="#63b8ff" stroke="#63b8ff" points="692.09,-80.16 682.55,-75.54 687.13,-85.1 692.09,-80.16"/>
</g>
<!-- Node17&#45;&gt;Node4 -->
<g id="edge23" class="edge">
<title>Node17&#45;&gt;Node4</title>
<path fill="none" stroke="#63b8ff" d="M194.46,-164.51C233.72,-154.69 296.2,-139.07 335.2,-129.32"/>
<polygon fill="#63b8ff" stroke="#63b8ff" points="335.94,-132.75 344.79,-126.93 334.24,-125.96 335.94,-132.75"/>
</g>
<!-- Node19&#45;&gt;Node6 -->
<g id="edge26" class="edge">
<title>Node19&#45;&gt;Node6</title>
<path fill="none" stroke="#63b8ff" d="M541.17,-219.51C559.44,-211.16 586.91,-198.61 607.84,-189.05"/>
<polygon fill="#63b8ff" stroke="#63b8ff" points="609.09,-192.33 616.73,-184.99 606.18,-185.96 609.09,-192.33"/>
</g>
<!-- Node19&#45;&gt;Node16 -->
<g id="edge27" class="edge">
<title>Node19&#45;&gt;Node16</title>
<path fill="none" stroke="#63b8ff" d="M556.78,-219.51C591.69,-210.61 645.32,-196.95 683.54,-187.21"/>
<polygon fill="#63b8ff" stroke="#63b8ff" points="684.09,-190.68 692.92,-184.82 682.36,-183.9 684.09,-190.68"/>
</g>
<!-- Node20 -->
<g id="node20" class="node">
<title>Node20</title>
<g id="a_node20"><a xlink:href="MQTT__Connection__State_8h.html" target="_top" xlink:title=" ">
<polygon fill="white" stroke="#666666" points="588.49,-184 454.49,-184 454.49,-165 588.49,-165 588.49,-184"/>
<text text-anchor="middle" x="521.49" y="-172" font-family="Helvetica,sans-Serif" font-size="10.00">MQTT_Connection_State.h</text>
</a>
</g>
</g>
<!-- Node19&#45;&gt;Node20 -->
<g id="edge28" class="edge">
<title>Node19&#45;&gt;Node20</title>
<path fill="none" stroke="#63b8ff" d="M521.49,-219.75C521.49,-213.27 521.49,-204.16 521.49,-195.9"/>
<polygon fill="#63b8ff" stroke="#63b8ff" points="524.99,-195.96 521.49,-185.96 517.99,-195.96 524.99,-195.96"/>
</g>
<!-- Node21 -->
<g id="node21" class="node">
<title>Node21</title>
<g id="a_node21"><a xlink:href="MQTT__Connection__Error_8h.html" target="_top" xlink:title=" ">
<polygon fill="white" stroke="#666666" points="435.99,-184 304.99,-184 304.99,-165 435.99,-165 435.99,-184"/>
<text text-anchor="middle" x="370.49" y="-172" font-family="Helvetica,sans-Serif" font-size="10.00">MQTT_Connection_Error.h</text>
</a>
</g>
</g>
<!-- Node19&#45;&gt;Node21 -->
<g id="edge30" class="edge">
<title>Node19&#45;&gt;Node21</title>
<path fill="none" stroke="#63b8ff" d="M495.88,-219.51C471.4,-210.92 434.26,-197.88 406.75,-188.22"/>
<polygon fill="#63b8ff" stroke="#63b8ff" points="408,-184.96 397.41,-184.95 405.69,-191.56 408,-184.96"/>
</g>
<!-- Node20&#45;&gt;Node4 -->
<g id="edge29" class="edge">
<title>Node20&#45;&gt;Node4</title>
<path fill="none" stroke="#63b8ff" d="M495.88,-164.51C471.1,-155.81 433.36,-142.57 405.75,-132.88"/>
<polygon fill="#63b8ff" stroke="#63b8ff" points="407,-129.61 396.41,-129.6 404.68,-136.21 407,-129.61"/>
</g>
<!-- Node21&#45;&gt;Node4 -->
<g id="edge31" class="edge">
<title>Node21&#45;&gt;Node4</title>
<path fill="none" stroke="#63b8ff" d="M370.49,-164.75C370.49,-158.27 370.49,-149.16 370.49,-140.9"/>
<polygon fill="#63b8ff" stroke="#63b8ff" points="373.99,-140.96 370.49,-130.96 366.99,-140.96 373.99,-140.96"/>
</g>
<!-- Node22&#45;&gt;Node3 -->
<g id="edge34" class="edge">
<title>Node22&#45;&gt;Node3</title>
<path fill="none" stroke="#63b8ff" d="M278.21,-54.51C298.65,-46.04 329.51,-33.27 352.72,-23.66"/>
<polygon fill="#63b8ff" stroke="#63b8ff" points="353.8,-27 361.7,-19.94 351.12,-20.53 353.8,-27"/>
</g>
<!-- Node22&#45;&gt;Node9 -->
<g id="edge35" class="edge">
<title>Node22&#45;&gt;Node9</title>
<path fill="none" stroke="#63b8ff" d="M290.43,-56.79C336.85,-47.61 420.49,-31.07 474.2,-20.45"/>
<polygon fill="#63b8ff" stroke="#63b8ff" points="474.56,-23.94 483.69,-18.57 473.21,-17.07 474.56,-23.94"/>
</g>
<!-- Node23 -->
<g id="node23" class="node">
<title>Node23</title>
<g id="a_node23"><a xlink:title=" ">
<polygon fill="#e0e0e0" stroke="#999999" points="287.49,-19 225.49,-19 225.49,0 287.49,0 287.49,-19"/>
<text text-anchor="middle" x="256.49" y="-7" font-family="Helvetica,sans-Serif" font-size="10.00">type_traits</text>
</a>
</g>
</g>
<!-- Node22&#45;&gt;Node23 -->
<g id="edge36" class="edge">
<title>Node22&#45;&gt;Node23</title>
<path fill="none" stroke="#63b8ff" d="M256.49,-54.75C256.49,-48.27 256.49,-39.16 256.49,-30.9"/>
<polygon fill="#63b8ff" stroke="#63b8ff" points="259.99,-30.96 256.49,-20.96 252.99,-30.96 259.99,-30.96"/>
</g>
</g>
</svg>
