<?xml version="1.0" encoding="UTF-8" standalone="no"?>
<!DOCTYPE svg PUBLIC "-//W3C//DTD SVG 1.1//EN"
 "http://www.w3.org/Graphics/SVG/1.1/DTD/svg11.dtd">
<!-- Generated by graphviz version 7.0.5 (20221223.1930)
 -->
<!-- Title: src/ThingsBoard.h Pages: 1 -->
<svg width="847pt" height="302pt"
 viewBox="0.00 0.00 847.00 302.00" xmlns="http://www.w3.org/2000/svg" xmlns:xlink="http://www.w3.org/1999/xlink">
<g id="graph0" class="graph" transform="scale(1 1) rotate(0) translate(4 298)">
<title>src/ThingsBoard.h</title>
<!-- Node1 -->
<g id="node1" class="node">
<title>Node1</title>
<g id="a_node1"><a xlink:title=" ">
<polygon fill="#999999" stroke="#666666" points="324.5,-294 229.5,-294 229.5,-275 324.5,-275 324.5,-294"/>
<text text-anchor="middle" x="277" y="-282" font-family="Helvetica,sans-Serif" font-size="10.00">src/ThingsBoard.h</text>
</a>
</g>
</g>
<!-- Node2 -->
<g id="node2" class="node">
<title>Node2</title>
<g id="a_node2"><a xlink:href="Constants_8h.html" target="_top" xlink:title=" ">
<polygon fill="white" stroke="#666666" points="154,-184 86,-184 86,-165 154,-165 154,-184"/>
<text text-anchor="middle" x="120" y="-172" font-family="Helvetica,sans-Serif" font-size="10.00">Constants.h</text>
</a>
</g>
</g>
<!-- Node1&#45;&gt;Node2 -->
<g id="edge1" class="edge">
<title>Node1&#45;&gt;Node2</title>
<path fill="none" stroke="#63b8ff" d="M263.32,-274.58C249.73,-265.67 228.32,-251.54 210,-239 186.44,-222.87 159.74,-203.95 141.58,-190.98"/>
<polygon fill="#63b8ff" stroke="#63b8ff" points="143.84,-188.3 133.67,-185.33 139.77,-193.99 143.84,-188.3"/>
</g>
<!-- Node4 -->
<g id="node4" class="node">
<title>Node4</title>
<g id="a_node4"><a xlink:href="IAPI__Implementation_8h.html" target="_top" xlink:title=" ">
<polygon fill="white" stroke="#666666" points="335,-239 219,-239 219,-220 335,-220 335,-239"/>
<text text-anchor="middle" x="277" y="-227" font-family="Helvetica,sans-Serif" font-size="10.00">IAPI_Implementation.h</text>
</a>
</g>
</g>
<!-- Node1&#45;&gt;Node4 -->
<g id="edge3" class="edge">
<title>Node1&#45;&gt;Node4</title>
<path fill="none" stroke="#63b8ff" d="M277,-274.75C277,-268.27 277,-259.16 277,-250.9"/>
<polygon fill="#63b8ff" stroke="#63b8ff" points="280.5,-250.96 277,-240.96 273.5,-250.96 280.5,-250.96"/>
</g>
<!-- Node15 -->
<g id="node15" class="node">
<title>Node15</title>
<g id="a_node15"><a xlink:href="DefaultLogger_8h.html" target="_top" xlink:title=" ">
<polygon fill="white" stroke="#666666" points="537.5,-184 452.5,-184 452.5,-165 537.5,-165 537.5,-184"/>
<text text-anchor="middle" x="495" y="-172" font-family="Helvetica,sans-Serif" font-size="10.00">DefaultLogger.h</text>
</a>
</g>
</g>
<!-- Node1&#45;&gt;Node15 -->
<g id="edge31" class="edge">
<title>Node1&#45;&gt;Node15</title>
<path fill="none" stroke="#63b8ff" d="M294.84,-274.66C332.68,-255.91 421.27,-212.03 466.83,-189.45"/>
<polygon fill="#63b8ff" stroke="#63b8ff" points="468.15,-192.71 475.56,-185.13 465.04,-186.44 468.15,-192.71"/>
</g>
<!-- Node19 -->
<g id="node19" class="node">
<title>Node19</title>
<g id="a_node19"><a xlink:href="IMQTT__Client_8h.html" target="_top" xlink:title=" ">
<polygon fill="white" stroke="#666666" points="537.5,-239 452.5,-239 452.5,-220 537.5,-220 537.5,-239"/>
<text text-anchor="middle" x="495" y="-227" font-family="Helvetica,sans-Serif" font-size="10.00">IMQTT_Client.h</text>
</a>
</g>
</g>
<!-- Node1&#45;&gt;Node19 -->
<g id="edge24" class="edge">
<title>Node1&#45;&gt;Node19</title>
<path fill="none" stroke="#63b8ff" d="M313.98,-274.51C350.66,-265.59 407.02,-251.89 447.1,-242.15"/>
<polygon fill="#63b8ff" stroke="#63b8ff" points="447.84,-245.57 456.73,-239.8 446.19,-238.77 447.84,-245.57"/>
</g>
<!-- Node22 -->
<g id="node22" class="node">
<title>Node22</title>
<g id="a_node22"><a xlink:href="Telemetry_8h.html" target="_top" xlink:title=" ">
<polygon fill="white" stroke="#666666" points="91.5,-74 24.5,-74 24.5,-55 91.5,-55 91.5,-74"/>
<text text-anchor="middle" x="58" y="-62" font-family="Helvetica,sans-Serif" font-size="10.00">Telemetry.h</text>
</a>
</g>
</g>
<!-- Node1&#45;&gt;Node22 -->
<g id="edge32" class="edge">
<title>Node1&#45;&gt;Node22</title>
<path fill="none" stroke="#63b8ff" d="M233.62,-274.61C186.87,-262.58 114.17,-236.33 77,-184 56.14,-154.64 54.79,-110.9 56.11,-85.58"/>
<polygon fill="#63b8ff" stroke="#63b8ff" points="59.59,-85.94 56.84,-75.71 52.61,-85.42 59.59,-85.94"/>
</g>
<!-- Node3 -->
<g id="node3" class="node">
<title>Node3</title>
<g id="a_node3"><a xlink:href="Configuration_8h.html" target="_top" xlink:title=" ">
<polygon fill="white" stroke="#666666" points="160,-19 80,-19 80,0 160,0 160,-19"/>
<text text-anchor="middle" x="120" y="-7" font-family="Helvetica,sans-Serif" font-size="10.00">Configuration.h</text>
</a>
</g>
</g>
<!-- Node2&#45;&gt;Node3 -->
<g id="edge2" class="edge">
<title>Node2&#45;&gt;Node3</title>
<path fill="none" stroke="#63b8ff" d="M120,-164.74C120,-139.53 120,-66.36 120,-30.62"/>
<polygon fill="#63b8ff" stroke="#63b8ff" points="123.5,-30.82 120,-20.82 116.5,-30.82 123.5,-30.82"/>
</g>
<!-- Node4&#45;&gt;Node2 -->
<g id="edge18" class="edge">
<title>Node4&#45;&gt;Node2</title>
<path fill="none" stroke="#63b8ff" d="M250.37,-219.51C224.8,-210.88 185.95,-197.76 157.31,-188.1"/>
<polygon fill="#63b8ff" stroke="#63b8ff" points="158.53,-184.81 147.94,-184.93 156.29,-191.45 158.53,-184.81"/>
</g>
<!-- Node5 -->
<g id="node5" class="node">
<title>Node5</title>
<g id="a_node5"><a xlink:href="Callback_8h.html" target="_top" xlink:title=" ">
<polygon fill="white" stroke="#666666" points="308,-184 246,-184 246,-165 308,-165 308,-184"/>
<text text-anchor="middle" x="277" y="-172" font-family="Helvetica,sans-Serif" font-size="10.00">Callback.h</text>
</a>
</g>
</g>
<!-- Node4&#45;&gt;Node5 -->
<g id="edge4" class="edge">
<title>Node4&#45;&gt;Node5</title>
<path fill="none" stroke="#63b8ff" d="M277,-219.75C277,-213.27 277,-204.16 277,-195.9"/>
<polygon fill="#63b8ff" stroke="#63b8ff" points="280.5,-195.96 277,-185.96 273.5,-195.96 280.5,-195.96"/>
</g>
<!-- Node4&#45;&gt;Node15 -->
<g id="edge19" class="edge">
<title>Node4&#45;&gt;Node15</title>
<path fill="none" stroke="#63b8ff" d="M313.98,-219.51C350.66,-210.59 407.02,-196.89 447.1,-187.15"/>
<polygon fill="#63b8ff" stroke="#63b8ff" points="447.84,-190.57 456.73,-184.8 446.19,-183.77 447.84,-190.57"/>
</g>
<!-- Node16 -->
<g id="node16" class="node">
<title>Node16</title>
<g id="a_node16"><a xlink:href="API__Process__Type_8h.html" target="_top" xlink:title=" ">
<polygon fill="white" stroke="#666666" points="434,-184 326,-184 326,-165 434,-165 434,-184"/>
<text text-anchor="middle" x="380" y="-172" font-family="Helvetica,sans-Serif" font-size="10.00">API_Process_Type.h</text>
</a>
</g>
</g>
<!-- Node4&#45;&gt;Node16 -->
<g id="edge21" class="edge">
<title>Node4&#45;&gt;Node16</title>
<path fill="none" stroke="#63b8ff" d="M294.47,-219.51C310.4,-211.31 334.19,-199.07 352.64,-189.58"/>
<polygon fill="#63b8ff" stroke="#63b8ff" points="354.15,-192.74 361.44,-185.05 350.95,-186.51 354.15,-192.74"/>
</g>
<!-- Node18 -->
<g id="node18" class="node">
<title>Node18</title>
<g id="a_node18"><a xlink:title=" ">
<polygon fill="#e0e0e0" stroke="#999999" points="228,-184 172,-184 172,-165 228,-165 228,-184"/>
<text text-anchor="middle" x="200" y="-172" font-family="Helvetica,sans-Serif" font-size="10.00">algorithm</text>
</a>
</g>
</g>
<!-- Node4&#45;&gt;Node18 -->
<g id="edge23" class="edge">
<title>Node4&#45;&gt;Node18</title>
<path fill="none" stroke="#63b8ff" d="M263.94,-219.51C252.48,-211.62 235.57,-199.98 222.02,-190.65"/>
<polygon fill="#63b8ff" stroke="#63b8ff" points="224.34,-188 214.12,-185.22 220.37,-193.77 224.34,-188"/>
</g>
<!-- Node5&#45;&gt;Node3 -->
<g id="edge5" class="edge">
<title>Node5&#45;&gt;Node3</title>
<path fill="none" stroke="#63b8ff" d="M268.19,-164.68C259.27,-155.74 245.11,-141.47 233,-129 198.21,-93.17 157.95,-50.71 136.12,-27.59"/>
<polygon fill="#63b8ff" stroke="#63b8ff" points="138.9,-25.44 129.49,-20.57 133.81,-30.25 138.9,-25.44"/>
</g>
<!-- Node6 -->
<g id="node6" class="node">
<title>Node6</title>
<g id="a_node6"><a xlink:href="Array_8h.html" target="_top" xlink:title=" ">
<polygon fill="white" stroke="#666666" points="300.5,-129 253.5,-129 253.5,-110 300.5,-110 300.5,-129"/>
<text text-anchor="middle" x="277" y="-117" font-family="Helvetica,sans-Serif" font-size="10.00">Array.h</text>
</a>
</g>
</g>
<!-- Node5&#45;&gt;Node6 -->
<g id="edge6" class="edge">
<title>Node5&#45;&gt;Node6</title>
<path fill="none" stroke="#63b8ff" d="M277,-164.75C277,-158.27 277,-149.16 277,-140.9"/>
<polygon fill="#63b8ff" stroke="#63b8ff" points="280.5,-140.96 277,-130.96 273.5,-140.96 280.5,-140.96"/>
</g>
<!-- Node8 -->
<g id="node8" class="node">
<title>Node8</title>
<g id="a_node8"><a xlink:title=" ">
<polygon fill="#e0e0e0" stroke="#999999" points="256,-19 178,-19 178,0 256,0 256,-19"/>
<text text-anchor="middle" x="217" y="-7" font-family="Helvetica,sans-Serif" font-size="10.00">ArduinoJson.h</text>
</a>
</g>
</g>
<!-- Node5&#45;&gt;Node8 -->
<g id="edge15" class="edge">
<title>Node5&#45;&gt;Node8</title>
<path fill="none" stroke="#63b8ff" d="M268.7,-164.67C261.15,-156.17 250.27,-142.63 244,-129 228.98,-96.34 221.99,-54.66 219,-30.44"/>
<polygon fill="#63b8ff" stroke="#63b8ff" points="222.5,-30.28 217.92,-20.73 215.55,-31.05 222.5,-30.28"/>
</g>
<!-- Node13 -->
<g id="node13" class="node">
<title>Node13</title>
<g id="a_node13"><a xlink:title=" ">
<polygon fill="#e0e0e0" stroke="#999999" points="377.5,-129 318.5,-129 318.5,-110 377.5,-110 377.5,-129"/>
<text text-anchor="middle" x="348" y="-117" font-family="Helvetica,sans-Serif" font-size="10.00">functional</text>
</a>
</g>
</g>
<!-- Node5&#45;&gt;Node13 -->
<g id="edge16" class="edge">
<title>Node5&#45;&gt;Node13</title>
<path fill="none" stroke="#63b8ff" d="M289.04,-164.51C299.41,-156.77 314.6,-145.43 326.97,-136.2"/>
<polygon fill="#63b8ff" stroke="#63b8ff" points="329,-139.05 334.92,-130.26 324.81,-133.44 329,-139.05"/>
</g>
<!-- Node14 -->
<g id="node14" class="node">
<title>Node14</title>
<g id="a_node14"><a xlink:title=" ">
<polygon fill="#e0e0e0" stroke="#999999" points="440,-129 396,-129 396,-110 440,-110 440,-129"/>
<text text-anchor="middle" x="418" y="-117" font-family="Helvetica,sans-Serif" font-size="10.00">vector</text>
</a>
</g>
</g>
<!-- Node5&#45;&gt;Node14 -->
<g id="edge17" class="edge">
<title>Node5&#45;&gt;Node14</title>
<path fill="none" stroke="#63b8ff" d="M300.92,-164.51C324.05,-155.81 359.3,-142.57 385.07,-132.88"/>
<polygon fill="#63b8ff" stroke="#63b8ff" points="386.28,-136.16 394.41,-129.37 383.82,-129.61 386.28,-136.16"/>
</g>
<!-- Node7 -->
<g id="node7" class="node">
<title>Node7</title>
<g id="a_node7"><a xlink:href="Helper_8h.html" target="_top" xlink:title=" ">
<polygon fill="white" stroke="#666666" points="383.5,-74 330.5,-74 330.5,-55 383.5,-55 383.5,-74"/>
<text text-anchor="middle" x="357" y="-62" font-family="Helvetica,sans-Serif" font-size="10.00">Helper.h</text>
</a>
</g>
</g>
<!-- Node6&#45;&gt;Node7 -->
<g id="edge7" class="edge">
<title>Node6&#45;&gt;Node7</title>
<path fill="none" stroke="#63b8ff" d="M290.57,-109.51C302.48,-101.62 320.05,-89.98 334.13,-80.65"/>
<polygon fill="#63b8ff" stroke="#63b8ff" points="335.96,-83.63 342.37,-75.19 332.1,-77.8 335.96,-83.63"/>
</g>
<!-- Node10 -->
<g id="node10" class="node">
<title>Node10</title>
<g id="a_node10"><a xlink:title=" ">
<polygon fill="#e0e0e0" stroke="#999999" points="325.5,-19 274.5,-19 274.5,0 325.5,0 325.5,-19"/>
<text text-anchor="middle" x="300" y="-7" font-family="Helvetica,sans-Serif" font-size="10.00">assert.h</text>
</a>
</g>
</g>
<!-- Node6&#45;&gt;Node10 -->
<g id="edge14" class="edge">
<title>Node6&#45;&gt;Node10</title>
<path fill="none" stroke="#63b8ff" d="M278.88,-109.66C282.54,-92.5 290.68,-54.26 295.72,-30.6"/>
<polygon fill="#63b8ff" stroke="#63b8ff" points="299.12,-31.45 297.78,-20.94 292.27,-29.99 299.12,-31.45"/>
</g>
<!-- Node7&#45;&gt;Node3 -->
<g id="edge8" class="edge">
<title>Node7&#45;&gt;Node3</title>
<path fill="none" stroke="#63b8ff" d="M330.27,-57.52C291.75,-48.91 219.89,-32.84 171.01,-21.91"/>
<polygon fill="#63b8ff" stroke="#63b8ff" points="172.03,-18.55 161.51,-19.78 170.51,-25.38 172.03,-18.55"/>
</g>
<!-- Node7&#45;&gt;Node8 -->
<g id="edge9" class="edge">
<title>Node7&#45;&gt;Node8</title>
<path fill="none" stroke="#63b8ff" d="M333.25,-54.51C310.69,-45.97 276.53,-33.03 251.06,-23.4"/>
<polygon fill="#63b8ff" stroke="#63b8ff" points="252.41,-20.16 241.81,-19.89 249.93,-26.71 252.41,-20.16"/>
</g>
<!-- Node9 -->
<g id="node9" class="node">
<title>Node9</title>
<g id="a_node9"><a xlink:title=" ">
<polygon fill="#e0e0e0" stroke="#999999" points="453.5,-19 406.5,-19 406.5,0 453.5,0 453.5,-19"/>
<text text-anchor="middle" x="430" y="-7" font-family="Helvetica,sans-Serif" font-size="10.00">iterator</text>
</a>
</g>
</g>
<!-- Node7&#45;&gt;Node9 -->
<g id="edge10" class="edge">
<title>Node7&#45;&gt;Node9</title>
<path fill="none" stroke="#63b8ff" d="M369.38,-54.51C380.15,-46.7 395.97,-35.21 408.75,-25.93"/>
<polygon fill="#63b8ff" stroke="#63b8ff" points="410.54,-28.95 416.57,-20.25 406.43,-23.29 410.54,-28.95"/>
</g>
<!-- Node7&#45;&gt;Node10 -->
<g id="edge11" class="edge">
<title>Node7&#45;&gt;Node10</title>
<path fill="none" stroke="#63b8ff" d="M347.33,-54.51C339.26,-47 327.53,-36.1 317.78,-27.03"/>
<polygon fill="#63b8ff" stroke="#63b8ff" points="320.34,-24.63 310.63,-20.39 315.57,-29.76 320.34,-24.63"/>
</g>
<!-- Node11 -->
<g id="node11" class="node">
<title>Node11</title>
<g id="a_node11"><a xlink:title=" ">
<polygon fill="#e0e0e0" stroke="#999999" points="522.5,-19 471.5,-19 471.5,0 522.5,0 522.5,-19"/>
<text text-anchor="middle" x="497" y="-7" font-family="Helvetica,sans-Serif" font-size="10.00">stdarg.h</text>
</a>
</g>
</g>
<!-- Node7&#45;&gt;Node11 -->
<g id="edge12" class="edge">
<title>Node7&#45;&gt;Node11</title>
<path fill="none" stroke="#63b8ff" d="M380.75,-54.51C403.31,-45.97 437.47,-33.03 462.94,-23.4"/>
<polygon fill="#63b8ff" stroke="#63b8ff" points="464.07,-26.71 472.19,-19.89 461.59,-20.16 464.07,-26.71"/>
</g>
<!-- Node12 -->
<g id="node12" class="node">
<title>Node12</title>
<g id="a_node12"><a xlink:title=" ">
<polygon fill="#e0e0e0" stroke="#999999" points="388.5,-19 343.5,-19 343.5,0 388.5,0 388.5,-19"/>
<text text-anchor="middle" x="366" y="-7" font-family="Helvetica,sans-Serif" font-size="10.00">stdio.h</text>
</a>
</g>
</g>
<!-- Node7&#45;&gt;Node12 -->
<g id="edge13" class="edge">
<title>Node7&#45;&gt;Node12</title>
<path fill="none" stroke="#63b8ff" d="M358.49,-54.75C359.6,-48.19 361.17,-38.95 362.59,-30.6"/>
<polygon fill="#63b8ff" stroke="#63b8ff" points="366,-31.38 364.23,-20.93 359.1,-30.21 366,-31.38"/>
</g>
<!-- Node15&#45;&gt;Node7 -->
<g id="edge20" class="edge">
<title>Node15&#45;&gt;Node7</title>
<path fill="none" stroke="#63b8ff" d="M490.45,-164.64C483.23,-151.29 467.99,-125.91 449,-110 433,-96.6 412.29,-86.13 394.57,-78.71"/>
<polygon fill="#63b8ff" stroke="#63b8ff" points="395.98,-75.51 385.4,-75.05 393.39,-82.01 395.98,-75.51"/>
</g>
<!-- Node17 -->
<g id="node17" class="node">
<title>Node17</title>
<g id="a_node17"><a xlink:title=" ">
<polygon fill="#e0e0e0" stroke="#999999" points="645,-129 597,-129 597,-110 645,-110 645,-129"/>
<text text-anchor="middle" x="621" y="-117" font-family="Helvetica,sans-Serif" font-size="10.00">stdint.h</text>
</a>
</g>
</g>
<!-- Node16&#45;&gt;Node17 -->
<g id="edge22" class="edge">
<title>Node16&#45;&gt;Node17</title>
<path fill="none" stroke="#63b8ff" d="M420.88,-164.51C467.11,-154.34 541.64,-137.95 585.51,-128.3"/>
<polygon fill="#63b8ff" stroke="#63b8ff" points="586.01,-131.78 595.02,-126.21 584.5,-124.94 586.01,-131.78"/>
</g>
<!-- Node19&#45;&gt;Node5 -->
<g id="edge25" class="edge">
<title>Node19&#45;&gt;Node5</title>
<path fill="none" stroke="#63b8ff" d="M458.02,-219.51C419.68,-210.19 359.83,-195.64 319.55,-185.85"/>
<polygon fill="#63b8ff" stroke="#63b8ff" points="320.51,-182.48 309.96,-183.51 318.85,-189.28 320.51,-182.48"/>
</g>
<!-- Node19&#45;&gt;Node15 -->
<g id="edge26" class="edge">
<title>Node19&#45;&gt;Node15</title>
<path fill="none" stroke="#63b8ff" d="M495,-219.75C495,-213.27 495,-204.16 495,-195.9"/>
<polygon fill="#63b8ff" stroke="#63b8ff" points="498.5,-195.96 495,-185.96 491.5,-195.96 498.5,-195.96"/>
</g>
<!-- Node20 -->
<g id="node20" class="node">
<title>Node20</title>
<g id="a_node20"><a xlink:href="MQTT__Connection__State_8h.html" target="_top" xlink:title=" ">
<polygon fill="white" stroke="#666666" points="839,-184 705,-184 705,-165 839,-165 839,-184"/>
<text text-anchor="middle" x="772" y="-172" font-family="Helvetica,sans-Serif" font-size="10.00">MQTT_Connection_State.h</text>
</a>
</g>
</g>
<!-- Node19&#45;&gt;Node20 -->
<g id="edge27" class="edge">
<title>Node19&#45;&gt;Node20</title>
<path fill="none" stroke="#63b8ff" d="M537.98,-220.28C585.26,-211.23 661.51,-196.64 714.05,-186.59"/>
<polygon fill="#63b8ff" stroke="#63b8ff" points="714.56,-190.05 723.73,-184.74 713.25,-183.18 714.56,-190.05"/>
</g>
<!-- Node21 -->
<g id="node21" class="node">
<title>Node21</title>
<g id="a_node21"><a xlink:href="MQTT__Connection__Error_8h.html" target="_top" xlink:title=" ">
<polygon fill="white" stroke="#666666" points="686.5,-184 555.5,-184 555.5,-165 686.5,-165 686.5,-184"/>
<text text-anchor="middle" x="621" y="-172" font-family="Helvetica,sans-Serif" font-size="10.00">MQTT_Connection_Error.h</text>
</a>
</g>
</g>
<!-- Node19&#45;&gt;Node21 -->
<g id="edge29" class="edge">
<title>Node19&#45;&gt;Node21</title>
<path fill="none" stroke="#63b8ff" d="M516.37,-219.51C536.41,-211.08 566.6,-198.38 589.41,-188.79"/>
<polygon fill="#63b8ff" stroke="#63b8ff" points="590.69,-192.05 598.55,-184.94 587.97,-185.6 590.69,-192.05"/>
</g>
<!-- Node20&#45;&gt;Node17 -->
<g id="edge28" class="edge">
<title>Node20&#45;&gt;Node17</title>
<path fill="none" stroke="#63b8ff" d="M746.38,-164.51C721.61,-155.81 683.87,-142.57 656.26,-132.88"/>
<polygon fill="#63b8ff" stroke="#63b8ff" points="657.51,-129.61 646.92,-129.6 655.19,-136.21 657.51,-129.61"/>
</g>
<!-- Node21&#45;&gt;Node17 -->
<g id="edge30" class="edge">
<title>Node21&#45;&gt;Node17</title>
<path fill="none" stroke="#63b8ff" d="M621,-164.75C621,-158.27 621,-149.16 621,-140.9"/>
<polygon fill="#63b8ff" stroke="#63b8ff" points="624.5,-140.96 621,-130.96 617.5,-140.96 624.5,-140.96"/>
</g>
<!-- Node22&#45;&gt;Node3 -->
<g id="edge33" class="edge">
<title>Node22&#45;&gt;Node3</title>
<path fill="none" stroke="#63b8ff" d="M68.52,-54.51C77.39,-46.93 90.31,-35.88 100.99,-26.75"/>
<polygon fill="#63b8ff" stroke="#63b8ff" points="103.16,-29.5 108.49,-20.34 98.61,-24.18 103.16,-29.5"/>
</g>
<!-- Node22&#45;&gt;Node8 -->
<g id="edge34" class="edge">
<title>Node22&#45;&gt;Node8</title>
<path fill="none" stroke="#63b8ff" d="M84.97,-54.51C110.98,-45.84 150.55,-32.65 179.6,-22.97"/>
<polygon fill="#63b8ff" stroke="#63b8ff" points="180.35,-26.41 188.73,-19.92 178.13,-19.77 180.35,-26.41"/>
</g>
<!-- Node23 -->
<g id="node23" class="node">
<title>Node23</title>
<g id="a_node23"><a xlink:title=" ">
<polygon fill="#e0e0e0" stroke="#999999" points="62,-19 0,-19 0,0 62,0 62,-19"/>
<text text-anchor="middle" x="31" y="-7" font-family="Helvetica,sans-Serif" font-size="10.00">type_traits</text>
</a>
</g>
</g>
<!-- Node22&#45;&gt;Node23 -->
<g id="edge35" class="edge">
<title>Node22&#45;&gt;Node23</title>
<path fill="none" stroke="#63b8ff" d="M53.54,-54.75C50.05,-47.88 45.05,-38.08 40.65,-29.45"/>
<polygon fill="#63b8ff" stroke="#63b8ff" points="43.9,-28.11 36.24,-20.79 37.66,-31.29 43.9,-28.11"/>
</g>
</g>
</svg>
