<?xml version="1.0" encoding="UTF-8" standalone="no"?>
<!DOCTYPE svg PUBLIC "-//W3C//DTD SVG 1.1//EN"
 "http://www.w3.org/Graphics/SVG/1.1/DTD/svg11.dtd">
<!-- Generated by graphviz version 7.0.5 (20221223.1930)
 -->
<!-- Title: src/Timeoutable_Request.h Pages: 1 -->
<svg width="974pt" height="203pt"
 viewBox="0.00 0.00 974.00 203.00" xmlns="http://www.w3.org/2000/svg" xmlns:xlink="http://www.w3.org/1999/xlink">
<g id="graph0" class="graph" transform="scale(1 1) rotate(0) translate(4 199)">
<title>src/Timeoutable_Request.h</title>
<!-- Node1 -->
<g id="node1" class="node">
<title>Node1</title>
<g id="a_node1"><a xlink:title=" ">
<polygon fill="#999999" stroke="#666666" points="466,-195 331,-195 331,-176 466,-176 466,-195"/>
<text text-anchor="middle" x="398.5" y="-183" font-family="Helvetica,sans-Serif" font-size="10.00">src/Timeoutable_Request.h</text>
</a>
</g>
</g>
<!-- Node2 -->
<g id="node2" class="node">
<title>Node2</title>
<g id="a_node2"><a xlink:href="Attribute__Request_8h.html" target="_top" xlink:title=" ">
<polygon fill="white" stroke="#666666" points="119,-74 0,-74 0,-55 119,-55 119,-74"/>
<text text-anchor="middle" x="59.5" y="-62" font-family="Helvetica,sans-Serif" font-size="10.00">src/Attribute_Request.h</text>
</a>
</g>
</g>
<!-- Node1&#45;&gt;Node2 -->
<g id="edge1" class="edge">
<title>Node1&#45;&gt;Node2</title>
<path fill="none" stroke="#63b8ff" d="M319.63,-179.7C245.7,-173.93 141.61,-162.11 107.5,-140 82.84,-124.02 68.26,-90.41 62.44,-74.38"/>
<polygon fill="#63b8ff" stroke="#63b8ff" points="319.01,-183.17 329.25,-180.43 319.54,-176.19 319.01,-183.17"/>
</g>
<!-- Node4 -->
<g id="node4" class="node">
<title>Node4</title>
<g id="a_node4"><a xlink:href="Attribute__Request__Callback_8h.html" target="_top" xlink:title=" ">
<polygon fill="white" stroke="#666666" points="228,-140 117,-140 117,-110 228,-110 228,-140"/>
<text text-anchor="start" x="125" y="-128" font-family="Helvetica,sans-Serif" font-size="10.00">src/Attribute_Request</text>
<text text-anchor="middle" x="172.5" y="-117" font-family="Helvetica,sans-Serif" font-size="10.00">_Callback.h</text>
</a>
</g>
</g>
<!-- Node1&#45;&gt;Node4 -->
<g id="edge3" class="edge">
<title>Node1&#45;&gt;Node4</title>
<path fill="none" stroke="#63b8ff" d="M353.04,-172.73C317.07,-163.42 266.69,-150.38 228.28,-140.44"/>
<polygon fill="#63b8ff" stroke="#63b8ff" points="352.15,-176.12 362.71,-175.24 353.91,-169.34 352.15,-176.12"/>
</g>
<!-- Node5 -->
<g id="node5" class="node">
<title>Node5</title>
<g id="a_node5"><a xlink:href="OTA__Update__Callback_8h.html" target="_top" xlink:title=" ">
<polygon fill="white" stroke="#666666" points="393.5,-134.5 253.5,-134.5 253.5,-115.5 393.5,-115.5 393.5,-134.5"/>
<text text-anchor="middle" x="323.5" y="-122.5" font-family="Helvetica,sans-Serif" font-size="10.00">src/OTA_Update_Callback.h</text>
</a>
</g>
</g>
<!-- Node1&#45;&gt;Node5 -->
<g id="edge5" class="edge">
<title>Node1&#45;&gt;Node5</title>
<path fill="none" stroke="#63b8ff" d="M378.28,-168.73C364.4,-157.9 346.49,-143.93 335,-134.97"/>
<polygon fill="#63b8ff" stroke="#63b8ff" points="375.88,-171.29 385.92,-174.68 380.18,-165.77 375.88,-171.29"/>
</g>
<!-- Node8 -->
<g id="node8" class="node">
<title>Node8</title>
<g id="a_node8"><a xlink:href="Provision__Callback_8h.html" target="_top" xlink:title=" ">
<polygon fill="white" stroke="#666666" points="535.5,-134.5 411.5,-134.5 411.5,-115.5 535.5,-115.5 535.5,-134.5"/>
<text text-anchor="middle" x="473.5" y="-122.5" font-family="Helvetica,sans-Serif" font-size="10.00">src/Provision_Callback.h</text>
</a>
</g>
</g>
<!-- Node1&#45;&gt;Node8 -->
<g id="edge9" class="edge">
<title>Node1&#45;&gt;Node8</title>
<path fill="none" stroke="#63b8ff" d="M418.72,-168.73C432.6,-157.9 450.51,-143.93 462,-134.97"/>
<polygon fill="#63b8ff" stroke="#63b8ff" points="416.82,-165.77 411.08,-174.68 421.12,-171.29 416.82,-165.77"/>
</g>
<!-- Node11 -->
<g id="node11" class="node">
<title>Node11</title>
<g id="a_node11"><a xlink:href="RPC__Request__Callback_8h.html" target="_top" xlink:title=" ">
<polygon fill="white" stroke="#666666" points="757,-134.5 612,-134.5 612,-115.5 757,-115.5 757,-134.5"/>
<text text-anchor="middle" x="684.5" y="-122.5" font-family="Helvetica,sans-Serif" font-size="10.00">src/RPC_Request_Callback.h</text>
</a>
</g>
</g>
<!-- Node1&#45;&gt;Node11 -->
<g id="edge12" class="edge">
<title>Node1&#45;&gt;Node11</title>
<path fill="none" stroke="#63b8ff" d="M453.44,-173.26C507.98,-162.11 590.5,-145.23 640.76,-134.95"/>
<polygon fill="#63b8ff" stroke="#63b8ff" points="452.83,-169.82 443.73,-175.25 454.23,-176.67 452.83,-169.82"/>
</g>
<!-- Node14 -->
<g id="node14" class="node">
<title>Node14</title>
<g id="a_node14"><a xlink:href="Timeoutable__Request_8cpp.html" target="_top" xlink:title=" ">
<polygon fill="white" stroke="#666666" points="921.5,-134.5 775.5,-134.5 775.5,-115.5 921.5,-115.5 921.5,-134.5"/>
<text text-anchor="middle" x="848.5" y="-122.5" font-family="Helvetica,sans-Serif" font-size="10.00">src/Timeoutable_Request.cpp</text>
</a>
</g>
</g>
<!-- Node1&#45;&gt;Node14 -->
<g id="edge15" class="edge">
<title>Node1&#45;&gt;Node14</title>
<path fill="none" stroke="#63b8ff" d="M477.62,-176.06C552.25,-167.83 667.16,-154.48 766.5,-140 776.79,-138.5 787.78,-136.74 798.26,-134.98"/>
<polygon fill="#63b8ff" stroke="#63b8ff" points="477.52,-172.55 467.96,-177.12 478.28,-179.51 477.52,-172.55"/>
</g>
<!-- Node3 -->
<g id="node3" class="node">
<title>Node3</title>
<g id="a_node3"><a xlink:href="OTA__Firmware__Update_8h.html" target="_top" xlink:title=" ">
<polygon fill="white" stroke="#666666" points="195,-19 52,-19 52,0 195,0 195,-19"/>
<text text-anchor="middle" x="123.5" y="-7" font-family="Helvetica,sans-Serif" font-size="10.00">src/OTA_Firmware_Update.h</text>
</a>
</g>
</g>
<!-- Node2&#45;&gt;Node3 -->
<g id="edge2" class="edge">
<title>Node2&#45;&gt;Node3</title>
<path fill="none" stroke="#63b8ff" d="M78.98,-47.37C90.1,-38.16 103.6,-26.98 112.8,-19.36"/>
<polygon fill="#63b8ff" stroke="#63b8ff" points="76.99,-44.47 71.52,-53.54 81.46,-49.86 76.99,-44.47"/>
</g>
<!-- Node4&#45;&gt;Node2 -->
<g id="edge4" class="edge">
<title>Node4&#45;&gt;Node2</title>
<path fill="none" stroke="#63b8ff" d="M134.38,-104.27C114.78,-94.12 91.86,-82.25 76.59,-74.35"/>
<polygon fill="#63b8ff" stroke="#63b8ff" points="132.73,-107.35 143.22,-108.84 135.95,-101.14 132.73,-107.35"/>
</g>
<!-- Node6 -->
<g id="node6" class="node">
<title>Node6</title>
<g id="a_node6"><a xlink:href="OTA__Handler_8h.html" target="_top" xlink:title=" ">
<polygon fill="white" stroke="#666666" points="237.5,-74 137.5,-74 137.5,-55 237.5,-55 237.5,-74"/>
<text text-anchor="middle" x="187.5" y="-62" font-family="Helvetica,sans-Serif" font-size="10.00">src/OTA_Handler.h</text>
</a>
</g>
</g>
<!-- Node5&#45;&gt;Node6 -->
<g id="edge6" class="edge">
<title>Node5&#45;&gt;Node6</title>
<path fill="none" stroke="#63b8ff" d="M292.5,-110.66C266.74,-99.58 230.79,-84.12 208.35,-74.47"/>
<polygon fill="#63b8ff" stroke="#63b8ff" points="290.88,-113.78 301.45,-114.52 293.65,-107.35 290.88,-113.78"/>
</g>
<!-- Node7 -->
<g id="node7" class="node">
<title>Node7</title>
<g id="a_node7"><a xlink:href="OTA__Update__Callback_8cpp.html" target="_top" xlink:title=" ">
<polygon fill="white" stroke="#666666" points="407,-74 256,-74 256,-55 407,-55 407,-74"/>
<text text-anchor="middle" x="331.5" y="-62" font-family="Helvetica,sans-Serif" font-size="10.00">src/OTA_Update_Callback.cpp</text>
</a>
</g>
</g>
<!-- Node5&#45;&gt;Node7 -->
<g id="edge8" class="edge">
<title>Node5&#45;&gt;Node7</title>
<path fill="none" stroke="#63b8ff" d="M326.21,-104.16C327.61,-93.95 329.24,-82.04 330.31,-74.17"/>
<polygon fill="#63b8ff" stroke="#63b8ff" points="322.77,-103.49 324.89,-113.87 329.71,-104.43 322.77,-103.49"/>
</g>
<!-- Node6&#45;&gt;Node3 -->
<g id="edge7" class="edge">
<title>Node6&#45;&gt;Node3</title>
<path fill="none" stroke="#63b8ff" d="M168.02,-47.37C156.9,-38.16 143.4,-26.98 134.2,-19.36"/>
<polygon fill="#63b8ff" stroke="#63b8ff" points="165.54,-49.86 175.48,-53.54 170.01,-44.47 165.54,-49.86"/>
</g>
<!-- Node9 -->
<g id="node9" class="node">
<title>Node9</title>
<g id="a_node9"><a xlink:href="Provision_8h.html" target="_top" xlink:title=" ">
<polygon fill="white" stroke="#666666" points="506,-74 425,-74 425,-55 506,-55 506,-74"/>
<text text-anchor="middle" x="465.5" y="-62" font-family="Helvetica,sans-Serif" font-size="10.00">src/Provision.h</text>
</a>
</g>
</g>
<!-- Node8&#45;&gt;Node9 -->
<g id="edge10" class="edge">
<title>Node8&#45;&gt;Node9</title>
<path fill="none" stroke="#63b8ff" d="M470.79,-104.16C469.39,-93.95 467.76,-82.04 466.69,-74.17"/>
<polygon fill="#63b8ff" stroke="#63b8ff" points="467.29,-104.43 472.11,-113.87 474.23,-103.49 467.29,-104.43"/>
</g>
<!-- Node10 -->
<g id="node10" class="node">
<title>Node10</title>
<g id="a_node10"><a xlink:href="Provision__Callback_8cpp.html" target="_top" xlink:title=" ">
<polygon fill="white" stroke="#666666" points="658.5,-74 524.5,-74 524.5,-55 658.5,-55 658.5,-74"/>
<text text-anchor="middle" x="591.5" y="-62" font-family="Helvetica,sans-Serif" font-size="10.00">src/Provision_Callback.cpp</text>
</a>
</g>
</g>
<!-- Node8&#45;&gt;Node10 -->
<g id="edge11" class="edge">
<title>Node8&#45;&gt;Node10</title>
<path fill="none" stroke="#63b8ff" d="M501.61,-110.07C523.86,-99.03 554.28,-83.95 573.41,-74.47"/>
<polygon fill="#63b8ff" stroke="#63b8ff" points="500.18,-106.87 492.78,-114.44 503.29,-113.14 500.18,-106.87"/>
</g>
<!-- Node12 -->
<g id="node12" class="node">
<title>Node12</title>
<g id="a_node12"><a xlink:href="Client__Side__RPC_8h.html" target="_top" xlink:title=" ">
<polygon fill="white" stroke="#666666" points="792.5,-74 676.5,-74 676.5,-55 792.5,-55 792.5,-74"/>
<text text-anchor="middle" x="734.5" y="-62" font-family="Helvetica,sans-Serif" font-size="10.00">src/Client_Side_RPC.h</text>
</a>
</g>
</g>
<!-- Node11&#45;&gt;Node12 -->
<g id="edge13" class="edge">
<title>Node11&#45;&gt;Node12</title>
<path fill="none" stroke="#63b8ff" d="M699.2,-106.8C708.36,-96.08 719.77,-82.73 727.09,-74.17"/>
<polygon fill="#63b8ff" stroke="#63b8ff" points="696.7,-104.34 692.86,-114.22 702.02,-108.89 696.7,-104.34"/>
</g>
<!-- Node13 -->
<g id="node13" class="node">
<title>Node13</title>
<g id="a_node13"><a xlink:href="RPC__Request__Callback_8cpp.html" target="_top" xlink:title=" ">
<polygon fill="white" stroke="#666666" points="966,-74 811,-74 811,-55 966,-55 966,-74"/>
<text text-anchor="middle" x="888.5" y="-62" font-family="Helvetica,sans-Serif" font-size="10.00">src/RPC_Request_Callback.cpp</text>
</a>
</g>
</g>
<!-- Node11&#45;&gt;Node13 -->
<g id="edge14" class="edge">
<title>Node11&#45;&gt;Node13</title>
<path fill="none" stroke="#63b8ff" d="M726.42,-111.98C765.28,-100.84 822.21,-84.51 857.23,-74.47"/>
<polygon fill="#63b8ff" stroke="#63b8ff" points="725.59,-108.58 716.94,-114.7 727.52,-115.31 725.59,-108.58"/>
</g>
</g>
</svg>
